<?xml version="1.0" encoding="utf-8"?>
<!-- Generator: Adobe Illustrator 23.0.4, SVG Export Plug-In . SVG Version: 6.00 Build 0)  -->
<svg version="1.1" id="Camada_1" xmlns="http://www.w3.org/2000/svg" xmlns:xlink="http://www.w3.org/1999/xlink" x="0px" y="0px"
	 viewBox="0 0 49.5 49.5" style="enable-background:new 0 0 49.5 49.5;" xml:space="preserve">
<path d="M49.5,24.7C49.5,11.1,38.4,0,24.8,0S0,11.1,0,24.7s11.1,24.8,24.8,24.8S49.5,38.4,49.5,24.7z M23.4,32.7l-6.5-5.3
	c-0.2-0.2-0.4-0.5-0.4-0.8c0-0.2,0.1-0.4,0.2-0.6c0.3-0.4,1-0.5,1.4-0.1l4.8,4V17.2c0-0.6,0.4-1,1-1s1,0.4,1,1v12.7l4.5-3.5
	c0.4-0.3,1.1-0.3,1.4,0.2c0.3,0.4,0.3,1.1-0.2,1.4l-6.1,4.7C24.3,33,23.8,33,23.4,32.7z"/>
</svg>
