<?xml version="1.0" encoding="utf-8"?>
<!-- Generator: Adobe Illustrator 23.0.4, SVG Export Plug-In . SVG Version: 6.00 Build 0)  -->
<svg version="1.1" id="Camada_1" xmlns="http://www.w3.org/2000/svg" xmlns:xlink="http://www.w3.org/1999/xlink" x="0px" y="0px"
	 viewBox="0 0 1920 1080" style="enable-background:new 0 0 1920 1080;" xml:space="preserve">
<style type="text/css">
	.st0{fill:#202020;}
	.st1{fill:#F5F5F3;}
	.st2{fill:#7D96EE;}
	.st3{fill:#334A8C;}
	.st4{fill:#657BB5;}
	.st5{fill:none;stroke:#000000;stroke-linecap:round;stroke-linejoin:round;stroke-miterlimit:10;}
	.st6{fill:#FFFFFF;stroke:#334A8C;stroke-width:6;stroke-miterlimit:10;}
</style>
<path class="st0" d="M487,1056c0,0,26-174,192-187s293-129,312-194s-6-241.8,288-240c491,3,645-436,645-436l-5,1079l-671.7,0.9
	L487,1080V1056z"/>
<g id="XMLID_15_">
	<g>
		<g id="XMLID_1_">
			<g>
				<path class="st0" d="M1119.6,410.3c0,0,24.8,16.3,93.2,16.3c45.8,0,86.1-15,89.2-16.2c3.7,1.9,85.9,43.5,85.9,113.5h-166.3
					h-15.3h-169.5C1036.8,452.2,1119.6,410.3,1119.6,410.3z"/>
				<path class="st1" d="M1302.1,410.4c-3.1,1.2-43.4,16.2-89.2,16.2c-68.4,0-93.2-16.3-93.2-16.3h48.2c14.3,2,29.2,2.7,44.5,2.2
					c0,0,23-1.2,41.1-2.2h48.6C1301.9,410.3,1302,410.3,1302.1,410.4z"/>
				<path class="st2" d="M1297.9,246.3c-3.7,0-10.1,1.5-15.1,10c0.2-1.5,0.4-3,0.5-4.5c0.1-0.5,0.1-1.1,0.2-1.6
					c0.7-5.3,1.1-9.4,1.1-9.4s7.8-11.2,16.9-5.8s6.3,25.5,0,35.5c-6.2,10.1-17.1,15.1-22.6,7.4l1-5.1l0.8-4.2c0.1-0.5,0.2-1,0.3-1.6
					c0-0.3,0.1-0.6,0.2-0.9c0,0,0,0,0,0c0.1-0.3,0.1-0.6,0.2-0.9c0.1-0.3,0.1-0.6,0.2-1c0.1-0.4,0.2-0.8,0.2-1.3
					c0.2-0.9,0.3-1.8,0.4-2.7c0.3,0,0.6-0.2,0.8-0.5l0.2-0.3l0.1-0.2l4.4-6.5h0c0.6,0.4,2,1.3,3.3,2.7c1.3,1.4,2.3,3.2,2.3,5.3
					c0,1.6-0.6,3.4-2.3,5.6c-0.3,0.4-0.3,1,0.1,1.3c0.4,0.3,1,0.3,1.3-0.1c2-2.4,2.8-4.7,2.8-6.7c0-3.1-1.8-5.6-3.5-7.2
					c-1-1-2-1.7-2.6-2.1c0.7-0.6,1.4-1.1,2.1-1.5c2.6-1.6,5-1.9,6.7-1.9c0.8,0,1.4,0.1,1.8,0.1l0.5,0.1l0.1,0l0,0
					c0.5,0.1,1-0.1,1.2-0.6c0.1-0.5-0.1-1-0.6-1.1C1300.8,246.7,1299.7,246.3,1297.9,246.3z"/>
				<path class="st3" d="M1287.8,252.8l1.4-1.3c0.7,0.4,1.6,1.1,2.6,2.1c1.7,1.6,3.5,4.1,3.5,7.2c0,2.1-0.8,4.4-2.8,6.7
					c-0.3,0.4-0.9,0.4-1.3,0.1c-0.4-0.3-0.4-0.9-0.1-1.3c1.8-2.1,2.3-4,2.3-5.6c0-2.1-1.1-3.9-2.3-5.3
					C1289.8,254.1,1288.3,253.2,1287.8,252.8z"/>
				<path class="st3" d="M1289.1,251.5l-1.4,1.3h0l-0.2-0.1c-0.5-0.2-0.6-0.8-0.4-1.2s0.8-0.6,1.2-0.4
					C1288.4,251.1,1288.7,251.2,1289.1,251.5z"/>
				<path class="st0" d="M1284.7,236.4c0.8-15,0-25.4,0-25.4s0.1-1.6,0.1-4.3C1285.4,215.4,1285.4,225.2,1284.7,236.4z"/>
				<path class="st3" d="M1284.5,238.8c0,0-11.3-13.9-16.7-36.5c-17.6-12.4-24.1-29.5-26.3-37.6c-16.4,16.2-48.2,39.7-90,32.8
					c-3.2,18.5-12.6,33-16,37.8c-1-14.4-0.5-24.2-0.5-24.2s-4-78.7,78.9-78.7c41.7,0,59,23,66.1,44.1c0,0.1,0,0.1,0.1,0.2
					c0.3,1,0.5,2,0.8,3.1c2.8,9.1,3.6,18.8,3.8,24.9c0.1,0.6,0.1,1.3,0.1,2c0,0,0,0,0,0.1c0,2.7-0.1,4.3-0.1,4.3s0.7,10.4,0,25.4
					C1284.7,237.2,1284.6,238,1284.5,238.8z"/>
				<path class="st2" d="M1283.4,251.9c-0.2,1.5-0.3,3-0.5,4.5c0,0,0,0.1,0,0.1C1283,254.9,1283.2,253.4,1283.4,251.9z"/>
				<path class="st3" d="M1282.8,256.4c5-8.5,11.4-10.1,15.1-10c1.8,0,2.9,0.3,3,0.4c0.5,0.1,0.8,0.7,0.6,1.1
					c-0.2,0.5-0.7,0.8-1.2,0.6l0,0l-0.1,0l-0.5-0.1c-0.4-0.1-1.1-0.1-1.8-0.1c-1.7,0-4.1,0.3-6.7,1.9c-0.7,0.4-1.4,0.9-2.1,1.5
					c-0.4-0.3-0.7-0.4-0.8-0.4c-0.4-0.2-1-0.1-1.2,0.4s-0.1,1,0.4,1.2l0.2,0.1l-4.4,6.5l-0.1,0.2l-0.2,0.3c-0.2,0.3-0.5,0.5-0.8,0.5
					c0.1-0.5,0.2-0.9,0.2-1.4C1282.6,258.1,1282.7,257.2,1282.8,256.4z"/>
				<path class="st1" d="M1280.1,176.7c4.1,12.3,4.7,23.9,4.7,30c0-0.7-0.1-1.3-0.1-2c-0.2-6.1-1-15.8-3.8-24.9
					C1280.7,178.7,1280.4,177.7,1280.1,176.7z"/>
				<path class="st3" d="M1282.5,258.9c0,0,0,0.1-0.1,0.1c0.1-0.9,0.2-1.7,0.4-2.6c0,0,0-0.1,0-0.1
					C1282.7,257.2,1282.6,258.1,1282.5,258.9z"/>
				<path class="st3" d="M1282.5,258.9c-0.1,0.5-0.1,0.9-0.2,1.4c0,0,0,0,0,0c0.1-0.4,0.1-0.9,0.2-1.3
					C1282.5,259,1282.5,259,1282.5,258.9z"/>
				<path class="st2" d="M1282.2,260.3C1282.3,260.3,1282.3,260.3,1282.2,260.3c-0.1,0.9-0.2,1.8-0.4,2.7
					C1282,262.2,1282.1,261.3,1282.2,260.3z"/>
				<path class="st3" d="M1282.8,256.5c-0.1,0.9-0.2,1.7-0.4,2.6c-0.1,0.4-0.1,0.9-0.2,1.3c-0.1,0-0.3,0-0.4-0.1
					c-0.4-0.2-0.6-0.8-0.4-1.2l0.2-0.4v0l0.1-0.1C1282.1,257.8,1282.4,257.1,1282.8,256.5z"/>
				<path class="st3" d="M1301.6,235c-9.2-5.4-16.9,5.8-16.9,5.8s-0.4,4.2-1.1,9.4c0.4-4,0.7-7.8,1-11.4c0.1-0.8,0.1-1.6,0.2-2.4
					c0.7-11.2,0.7-21,0.2-29.7c0,0,0-0.1,0-0.1c0-6.1-0.6-17.7-4.7-30c0-0.1,0-0.2-0.1-0.2c-0.3-1.1-0.6-2.1-0.9-3.1l3.7,1
					c-1.5-10.4-13.6-28.2-32.7-40.1l0.5-0.7c0,0,36.1-12.7,47.2,18.6c10.3,29.1,22.4,49.8,37.5,67.6
					c55.6,65.5,72.1,166.1-47.3,187.1c-16-4.6-40.1-13.5-42.6-25.3v-32.3c0.5-1.3,1-2.8,1.4-4.3l-1.4-6.2v-5.1
					c19.5-13.1,29.5-37.2,34.6-60.7l-1,5.1c5.6,7.7,16.4,2.7,22.6-7.4C1307.9,260.5,1310.8,240.4,1301.6,235z"/>
				<path class="st1" d="M1301.9,410.3h-48.6c1.9-0.1,3.7-0.2,5.4-0.3c10.5-0.6,20.2-1.8,29.2-3.3c8.2,2.4,14.3,3.6,14.3,3.6
					s-0.1,0-0.2,0.1C1302,410.3,1301.9,410.3,1301.9,410.3z"/>
				<path class="st3" d="M1246.3,208.9c2.7,0.5,5.3,1.6,7.6,3l9,6.5l-37.7-4.1c0,0-1.7-8.4-2.1-9.1L1246.3,208.9z"/>
				<path class="st0" d="M1245.4,338.6l1.4,6.2c-0.4,1.6-0.8,3-1.4,4.3V338.6z"/>
				<path class="st3" d="M1243.8,242c-3.8,0-6.9-3.1-6.9-6.8c0-3.8,3.1-6.9,6.9-6.9c3.8,0,6.9,3.1,6.9,6.9
					C1250.6,238.9,1247.6,242,1243.8,242z"/>
				<path class="st2" d="M1243.8,242c3.8,0,6.9-3.1,6.9-6.8c0-3.8-3.1-6.9-6.9-6.9c-3.8,0-6.9,3.1-6.9,6.9
					C1236.9,238.9,1240,242,1243.8,242z M1173,235.2c0,3.8,3.1,6.8,6.9,6.8c3.8,0,6.8-3.1,6.8-6.8c0-3.8-3.1-6.9-6.8-6.9
					C1176.1,228.3,1173,231.4,1173,235.2z M1223.1,205.2c0.4,0.7,2.1,9.1,2.1,9.1l37.7,4.1l-9-6.5c-2.3-1.5-4.9-2.5-7.6-3
					L1223.1,205.2z M1241.6,164.7c2.2,8.1,8.7,25.3,26.3,37.6c5.4,22.6,16.7,36.5,16.7,36.5c-0.2,3.6-0.6,7.4-1,11.4
					c-0.1,0.5-0.1,1.1-0.2,1.6c-0.2,1.5-0.4,3-0.6,4.6c-0.4,0.6-0.8,1.3-1.1,2l-0.1,0.1v0l-0.2,0.4c-0.2,0.5,0,1,0.4,1.2
					c0.1,0.1,0.3,0.1,0.4,0.1c-0.1,0.9-0.3,1.8-0.4,2.7c-0.1,0.4-0.1,0.8-0.2,1.3c-0.1,0.4-0.1,0.7-0.2,1c0,0.3-0.1,0.6-0.2,0.9
					c0,0,0,0,0,0c-0.1,0.3-0.1,0.6-0.2,0.9c-0.1,0.6-0.2,1.1-0.3,1.6l-0.8,4.2c-5.1,23.4-15.1,47.6-34.6,60.7c0,0,0,0,0,0l-68.8-0.1
					h0c-23.1-15.5-33.5-46.2-38-73c0.1,0,0.1,0,0.2-0.1c0.5-0.2,0.6-0.8,0.4-1.2l-0.2-0.4c-0.3-0.6-0.6-1.2-0.9-1.8
					c-1.2-7.8-1.9-15.1-2.4-21.5v0c3.4-4.8,12.8-19.3,16-37.8C1193.3,204.4,1225.2,180.9,1241.6,164.7z M1248.8,255.2
					c0.3-0.4,0.2-1-0.2-1.3l-15.1-11.4c-0.4-0.3-1-0.2-1.3,0.2c-0.3,0.4-0.2,1,0.2,1.3l15.1,11.4
					C1247.9,255.7,1248.5,255.6,1248.8,255.2z M1237.5,285.5c0.8-0.5,1.1-1.6,0.6-2.4c-0.5-0.8-1.6-1.1-2.4-0.6l-0.1,0.1
					c-1,0.6-10.7,6.2-23,6.2c-6.5,0-12.4-1.6-16.5-3.1c-2.1-0.8-3.8-1.6-4.9-2.1c-0.6-0.3-1-0.5-1.3-0.7l-0.3-0.2l-0.1-0.1
					c-0.8-0.5-1.9-0.3-2.4,0.6c-0.5,0.8-0.3,1.9,0.6,2.4c0.2,0.1,10.7,6.7,24.9,6.7C1226.8,292.3,1237.4,285.6,1237.5,285.5z
					 M1218.9,270.6c0.9-0.2,1.5-1.2,1.2-2.1c-0.2-0.9-1.2-1.5-2.1-1.2l-3.7,1v0c-0.5,0.1-0.9,0.2-1.4,0.2c-2,0-3.8-1.1-4.5-2.9
					c-0.2-0.6-0.3-1.2-0.4-1.9V251c0-1-0.8-1.7-1.7-1.7c-1,0-1.7,0.8-1.7,1.7h0v12.8c0,1.1,0.2,2.2,0.6,3.2l0,0c1.3,3.2,4.5,5,7.7,5
					c0.8,0,1.5-0.1,2.3-0.3L1218.9,270.6z M1194.3,214.3c0,0,1.7-8.4,2.1-9.1l-23.2,3.7c-2.7,0.5-5.3,1.6-7.6,3l-9,6.5L1194.3,214.3
					z M1192.8,244.1c0.4-0.3,0.5-0.8,0.3-1.3c-0.3-0.4-0.9-0.5-1.3-0.3l-17.1,11.3c-0.4,0.3-0.5,0.8-0.3,1.3
					c0.3,0.4,0.9,0.5,1.3,0.3L1192.8,244.1z"/>
				<path class="st3" d="M1233.5,242.5l15.1,11.4c0.4,0.3,0.5,0.9,0.2,1.3c-0.3,0.4-0.9,0.5-1.3,0.2l-15.1-11.4
					c-0.4-0.3-0.5-0.9-0.2-1.3C1232.5,242.3,1233.1,242.2,1233.5,242.5z"/>
				<path class="st2" d="M1167.8,410.3h85.6c-18.1,1-41.1,2.2-41.1,2.2C1197,413,1182,412.2,1167.8,410.3z"/>
				<path class="st3" d="M1220.2,268.5c0.2,0.9-0.3,1.9-1.2,2.1l-3.7,1c-0.8,0.2-1.5,0.3-2.3,0.3c-3.2,0-6.4-1.8-7.7-5l0,0
					c-0.4-1-0.6-2.1-0.6-3.2V251h0c0-1,0.8-1.7,1.7-1.7c1,0,1.7,0.8,1.7,1.7v12.8c0,0.7,0.1,1.3,0.4,1.9c0.7,1.8,2.5,2.9,4.5,2.9
					c0.5,0,0.9-0.1,1.4-0.2v0l3.7-1C1219,267,1219.9,267.6,1220.2,268.5z"/>
				<path class="st3" d="M1178,335.5c5.5,2.5,10.8,4.4,15.7,5.6c31.6,8.2,51.1-5.6,51.1-5.6l0.7,3v10.5
					c-6.5,16.3-24.2,16.4-24.2,16.4C1192.2,367.5,1178,335.5,1178,335.5z"/>
				<path class="st2" d="M1244.8,335.5c0,0-19.5,13.9-51.1,5.6l0-0.1c5.3,1.4,11.2,2.2,17.5,2.2c13.8,0,25.1-3.7,34.2-9.8
					c0,0,0,0,0,0v5.1L1244.8,335.5z"/>
				<path class="st3" d="M1196.4,205.2c-0.4,0.7-2.1,9.1-2.1,9.1l-37.7,4.1l9-6.5c2.3-1.5,4.9-2.5,7.6-3L1196.4,205.2z"/>
				<path class="st3" d="M1189.9,282.9c0.3,0.2,0.7,0.4,1.3,0.7c1.1,0.6,2.8,1.4,4.9,2.1c4.2,1.6,10,3.1,16.5,3.1
					c12.3,0,22-5.5,23-6.2l0.1-0.1c0.8-0.5,1.9-0.3,2.4,0.6c0.5,0.8,0.3,1.9-0.6,2.4c-0.1,0.1-10.7,6.7-24.9,6.7
					c-14.2,0-24.8-6.7-24.9-6.7c-0.8-0.5-1.1-1.6-0.6-2.4c0.5-0.8,1.6-1.1,2.4-0.6l0.1,0.1L1189.9,282.9z"/>
				<path class="st3" d="M1179.8,242c-3.8,0-6.9-3.1-6.9-6.8c0-3.8,3.1-6.9,6.9-6.9c3.8,0,6.8,3.1,6.8,6.9
					C1186.7,238.9,1183.6,242,1179.8,242z"/>
				<path class="st2" d="M1193.7,341.1c-6.4-1.7-12-4.4-17.1-7.8l68.8,0.1c-9.2,6.1-20.4,9.8-34.2,9.8
					C1204.8,343.3,1199,342.6,1193.7,341.1z"/>
				<path class="st2" d="M1176.6,333.4c5.1,3.4,10.8,6.1,17.1,7.8l0,0.1c-5-1.3-10.2-3.1-15.7-5.6c0,0,14.3,32,43.3,30
					c0,0,17.7-0.2,24.2-16.4v32.3c2.5,11.9,26.6,20.7,42.6,25.3c-9,1.6-18.7,2.7-29.2,3.3c-1.7,0.1-3.5,0.2-5.4,0.3h-85.6
					c-9.5-1.3-18.8-3.1-27.6-5.3c26.1-9.2,36.3-23.6,36.3-23.6L1176.6,333.4L1176.6,333.4z"/>
				<path class="st3" d="M1192.8,244.1l-17.1,11.3c-0.4,0.3-1,0.2-1.3-0.3c-0.3-0.4-0.2-1,0.3-1.3l17.1-11.3c0.4-0.3,1-0.2,1.3,0.3
					C1193.3,243.3,1193.2,243.9,1192.8,244.1z"/>
				<path class="st1" d="M1140.2,405c8.8,2.3,18,4,27.6,5.3h-48.2C1127.4,409,1134.2,407.1,1140.2,405z"/>
				<path class="st3" d="M1138.5,260.3c-0.2-1.2-0.4-2.4-0.6-3.5c0.3,0.6,0.6,1.2,0.9,1.8l0.2,0.4c0.2,0.5,0.1,1-0.4,1.2
					C1138.6,260.3,1138.6,260.3,1138.5,260.3z"/>
				<path class="st3" d="M1171.8,130.7c-55.3,27.6-40.6,96.8-37.9,107.9c-2.8-2.9-8.6-7.4-15.1-3.6c-9.2,5.4-6.2,25.5,0,35.5
					c6.3,10.1,17.1,15.1,22.7,7.4l-1.9-9.2c-0.4-2-0.9-5-1.4-8.3c0.1,0,0.2,0,0.3,0c4.6,26.8,14.9,57.6,38,73v48
					c0,0-10.3,14.4-36.3,23.6c-69-17.7-112.4-64.6-81.3-124c23.2-44.3,53.4-50.3,54.3-88.7c0.9-38.3,16.7-70.6,62-84.1
					c45.3-13.5,75.4,25.2,75.4,25.2l-0.5,0.7C1230.2,121.5,1202.7,115.3,1171.8,130.7z"/>
				<path class="st3" d="M1138.2,260.3c-0.1-0.4-0.1-0.9-0.2-1.4c-0.1-0.9-0.2-1.7-0.4-2.6c0.1,0.1,0.2,0.2,0.2,0.4
					c0.2,1.2,0.4,2.3,0.6,3.5C1138.4,260.3,1138.3,260.3,1138.2,260.3z"/>
				<path class="st3" d="M1134.5,239.2l0.4-3c0.2-0.3,0.4-0.5,0.7-0.9c0.4,6.4,1.2,13.8,2.4,21.5c-0.1-0.1-0.2-0.3-0.2-0.4
					c-1-7.8-1.9-15.6-1.9-15.6S1135.3,240.1,1134.5,239.2z"/>
				<path class="st2" d="M1134.3,240.1l0.1-0.9c0.9,1,1.3,1.6,1.3,1.6s0.9,7.9,1.9,15.6c-6-8.7-11.6-10.1-15-10.1c0,0-0.1,0-0.1,0
					c-1.8,0-2.9,0.3-3,0.4c-0.5,0.1-0.8,0.7-0.6,1.1c0.2,0.5,0.7,0.8,1.1,0.6l0,0c0.2,0,1.1-0.3,2.4-0.3c2.2,0,5.4,0.6,8.8,3.4
					c-0.7,0.4-1.6,1.1-2.6,2.1c-1.7,1.6-3.4,4.1-3.5,7.2c0,2.1,0.8,4.4,2.8,6.7c0.3,0.4,0.9,0.4,1.3,0.1c0.4-0.3,0.4-0.9,0.1-1.3
					c-1.8-2.1-2.3-4-2.3-5.5c0-2.4,1.4-4.4,2.9-5.9c0.8-0.7,1.5-1.3,2.1-1.7l0.7-0.4h0c1.5,1.6,3.1,3.7,4.5,6.6l0.2,0.4
					c0.2,0.3,0.5,0.5,0.8,0.5c0.5,3.3,1,6.3,1.4,8.3l1.9,9.2c-5.6,7.7-16.4,2.7-22.7-7.4c-6.2-10-9.2-30.1,0-35.5
					c6.5-3.8,12.2,0.6,15.1,3.6c0,0,0,0,0,0C1134.2,239.6,1134.3,240.1,1134.3,240.1z"/>
				<path class="st3" d="M1133.9,238.6c-2.8-11.1-17.4-80.2,37.9-107.9c30.9-15.4,58.4-9.2,78.4,3.4c19,12,31.2,29.8,32.7,40.1
					l-3.7-1c0.3,1,0.6,2,0.9,3.1c-7.1-21.1-24.4-44.1-66.1-44.1c-82.9,0-78.9,78.7-78.9,78.7s-0.5,9.8,0.5,24.2v0
					c-0.3,0.4-0.5,0.6-0.7,0.9l-0.4,3C1134.3,239,1134.2,238.8,1133.9,238.6C1133.9,238.6,1133.9,238.6,1133.9,238.6z"/>
				<path class="st2" d="M1134.3,240.1c0,0-0.2-0.5-0.4-1.5c0.2,0.2,0.4,0.4,0.5,0.5L1134.3,240.1z"/>
				<path class="st3" d="M1133.3,251.5c0.2,0.4,0.1,1-0.4,1.2l-0.2,0.1h0c-0.5-0.5-0.9-0.9-1.4-1.3c0.5-0.3,0.7-0.4,0.8-0.4
					C1132.6,250.9,1133.1,251,1133.3,251.5z"/>
				<path class="st3" d="M1132.1,253.3c-0.6,0.4-1.3,0.9-2.1,1.7c-1.5,1.5-2.9,3.5-2.9,5.9c0,1.6,0.6,3.4,2.3,5.5
					c0.3,0.4,0.3,1-0.1,1.3c-0.4,0.3-1,0.3-1.3-0.1c-1.9-2.4-2.8-4.7-2.8-6.7c0-3.1,1.8-5.6,3.5-7.2c1-1,2-1.7,2.6-2.1
					c0.5,0.4,0.9,0.8,1.4,1.3L1132.1,253.3z"/>
				<path class="st3" d="M1133.3,251.5c-0.2-0.4-0.8-0.6-1.2-0.4c0,0-0.3,0.2-0.8,0.4c-3.4-2.8-6.6-3.3-8.8-3.4
					c-1.3,0-2.2,0.2-2.4,0.3l0,0c-0.5,0.1-1-0.1-1.1-0.6c-0.2-0.5,0.1-1,0.6-1.1c0.1,0,1.2-0.4,3-0.4c0,0,0.1,0,0.1,0
					c3.4,0,9,1.4,15,10.1c0.1,0.9,0.2,1.7,0.4,2.6c0.1,0.5,0.1,0.9,0.2,1.4c-0.3,0-0.6-0.2-0.8-0.5l-0.2-0.4c-1.4-2.8-2.9-5-4.5-6.6
					l0.2-0.1C1133.4,252.5,1133.6,251.9,1133.3,251.5z"/>
			</g>
			<g>
			</g>
		</g>
	</g>
</g>
<g>
	<g id="XMLID_13_">
		<g>
			<path class="st0" d="M1654.3,579.1c0,0.5-0.2,1-0.6,1.4c-0.3,0.4-0.9,0.6-1.4,0.6h-408.7c-0.5,0-1-0.2-1.4-0.6
				c-0.4-0.3-0.6-0.9-0.6-1.4c0-9.3,1.2-18.2,3.6-26.6c0.2-0.9,1.1-1.5,2-1.4l-0.9,1.9h0.8h2c0,0.2,0,0.3-0.1,0.5
				c-2,7.4-3.2,15.3-3.4,23.6h-2v2h2c0-0.7,0-1.3,0-2h404.7c0,0.7,0,1.3,0,2h2v-2h-2c-0.1-8.2-1.3-16.1-3.4-23.6
				c0-0.2-0.1-0.3-0.1-0.5h2l-9.5-20h-0.3c-4.7-9.3-10.5-17.9-16.9-25.7c-0.3-0.4-0.7-0.8-1-1.2h2.6l-17.9-18.6c0,0,0.1-0.1,0.1-0.1
				c0.8-0.8,0.7-2-0.1-2.8c0,0,0.1,0,0.1,0.1c6.6,5.9,13.2,12.6,19.4,20.1c5.5,6.7,10.7,14,15,22c4.4,8,8,16.5,10.4,25.7
				C1653,560.9,1654.3,569.8,1654.3,579.1z"/>
			<path class="st3" d="M1652.3,577.1v2h-2c0-0.7,0-1.3,0-2H1652.3z"/>
			<path class="st0" d="M1650.3,577.1h-404.7c0.1-8.2,1.3-16.1,3.4-23.6c0-0.2,0.1-0.3,0.1-0.5h397.8c0,0.2,0.1,0.3,0.1,0.5
				C1648.9,561,1650.2,568.9,1650.3,577.1z"/>
			<path class="st3" d="M1639.3,533l9.5,20h-2c-1.9-7-4.6-13.7-7.7-20H1639.3z"/>
			<path class="st1" d="M1646.8,553H1249c0-0.9-0.6-1.6-1.4-1.9c0-0.2,0.1-0.3,0.1-0.5c1,0.3,2.1-0.3,2.4-1.3
				c1.8-5.7,4-11.1,6.7-16.3h382.2C1642.2,539.4,1644.8,546,1646.8,553z"/>
			<path class="st0" d="M1639.1,533h-382.2c4.7-9.4,10.5-18,16.8-25.7c0.3-0.4,0.7-0.8,1-1.2h346.5c0.3,0.4,0.7,0.8,1,1.2
				C1628.6,515.1,1634.4,523.7,1639.1,533z"/>
			<path class="st3" d="M1605.8,487.5l17.9,18.6h-2.6c-5.7-6.8-11.9-13-17.9-18.4v0C1604,488.3,1605.1,488.2,1605.8,487.5z"/>
			<path class="st1" d="M1621.2,506.1h-346.5c5.7-6.8,11.9-13,17.9-18.4c0,0,0,0,0.1-0.1l0,0c0.6-0.5,1.1-1,1.7-1.5h307
				c0.6,0.5,1.1,1,1.7,1.5c0,0,0.1,0.1,0.1,0.1v0C1609.3,493.1,1615.4,499.3,1621.2,506.1z"/>
			<path class="st3" d="M1605.7,484.7c0.8,0.7,0.9,2,0.1,2.8c0,0-0.1,0.1-0.1,0.1l-1.2-1.3l-0.1-0.1h-1.9c0-0.4,0.2-0.9,0.5-1.2
				C1603.7,484.1,1605,484,1605.7,484.7z"/>
			<path class="st3" d="M1604.5,486.2l1.2,1.3c-0.7,0.7-1.8,0.8-2.6,0.1c0,0-0.1,0-0.1-0.1c-0.4-0.4-0.6-1-0.6-1.5h1.9L1604.5,486.2
				z"/>
			<path class="st3" d="M1605.7,484.7c-0.8-0.7-2-0.6-2.7,0.2c-0.3,0.3-0.4,0.8-0.5,1.2h-1.1c-17.7-15.6-34.4-24.9-38.3-27
				c-0.2-0.1-0.3-0.2-0.4-0.2h0.5v-2l-0.9,1.8c0,0,0.1,0.1,0.4,0.2h-2.6c-1.1,0-2-0.9-2-2h2c0,0-0.7-0.1-1.9-0.4
				c0.2-0.9,1-1.6,1.9-1.6h3.1c0.3,0,0.6,0.1,0.9,0.2C1564.2,455.3,1584.4,465.5,1605.7,484.7z"/>
			<path class="st3" d="M1603.1,487.6c-0.6-0.5-1.1-1-1.7-1.5h1.1C1602.5,486.6,1602.7,487.2,1603.1,487.6z"/>
			<path class="st0" d="M1601.4,486.1h-307c9.9-8.7,19.4-15.4,26.6-20c3.8-2.4,7-4.3,9.1-5.5c1.1-0.6,2-1.1,2.6-1.4
				c0.6-0.3,0.9-0.4,0.9-0.4c0.7-0.3,1.1-1,1.1-1.8h223.4c0,1.1,0.9,2,2,2h2.6c0.1,0.1,0.3,0.1,0.4,0.2
				C1567.1,461.3,1583.7,470.6,1601.4,486.1z"/>
			<path class="st3" d="M1563.2,456.9v2h-0.5c-0.3-0.1-0.4-0.2-0.4-0.2L1563.2,456.9z"/>
			<path class="st3" d="M1560.1,456.9h-2c0-0.1,0-0.3,0-0.4C1559.4,456.8,1560.1,456.9,1560.1,456.9z"/>
			<path class="st2" d="M1558.1,456.5c0,0.1,0,0.3,0,0.4h-223.4c0-0.1,0-0.2,0-0.3c43-8.1,55.9-30.8,55.9-30.8v-60.2h1.2
				c0,0,16,31.8,41.9,46.5c18.8,10.7,43.1,6.6,55.9-10.9c4.1-5.6,7.5-12.8,9.4-22.2v46.8C1502.6,442.9,1548.1,454.2,1558.1,456.5z"
				/>
			<path class="st2" d="M1542.2,264.9c9.9,5.8,6.7,27.4,0,38.2c-6.7,10.7-17.4,16-23.4,8.1c1.4-6.5,2.4-12.9,3.2-19.1
				c0.4,0,0.8-0.2,1-0.6l0.1-0.1c1.5-3,3.1-5.3,4.7-7.1c0.8,0.5,2,1.4,3.1,2.6c1.4,1.5,2.6,3.5,2.6,5.7c0,1.7-0.7,3.7-2.5,6
				c-0.3,0.4-0.3,1,0.1,1.4c0.4,0.3,1,0.3,1.4-0.1c2.1-2.6,3-5,3-7.2c0-3.4-1.9-6-3.7-7.8c-0.9-0.9-1.8-1.6-2.5-2
				c3.6-3.2,7-3.9,9.2-3.9c0.8,0,1.4,0.1,1.9,0.2l0.5,0.1l0.1,0h0c0.5,0.2,1.1-0.1,1.2-0.6c0.2-0.5-0.1-1.1-0.6-1.2
				c-0.1,0-1.3-0.4-3.1-0.4c-2.8,0-7.2,0.9-11.5,5.3h0c-1.4,1.6-2.9,3.4-4.3,5.9c0.7-6.1,1.1-11.8,1.4-17.1h0.1
				C1524,271.1,1532.3,259.1,1542.2,264.9z"/>
			<path class="st3" d="M1541.4,277.5c0.5,0.2,0.8,0.7,0.6,1.2c-0.2,0.5-0.7,0.8-1.2,0.6h0l-0.1,0l-0.5-0.1
				c-0.4-0.1-1.1-0.2-1.9-0.2c-2.2,0-5.6,0.6-9.2,3.9c-0.7-0.4-1.1-0.7-1.1-0.7c-0.4-0.2-0.9-0.1-1.1,0.2c4.3-4.4,8.7-5.3,11.5-5.3
				C1540.2,277.1,1541.4,277.4,1541.4,277.5z"/>
			<path class="st3" d="M1535.3,292.7c0,2.2-0.9,4.7-3,7.2c-0.3,0.4-1,0.5-1.4,0.1c-0.4-0.3-0.5-1-0.1-1.4c1.9-2.3,2.5-4.3,2.5-6
				c0-2.2-1.2-4.2-2.6-5.7c-1.1-1.2-2.3-2.1-3.1-2.6c0.2-0.2,0.3-0.4,0.5-0.6c0.3-0.3,0.6-0.6,0.9-0.9c0.7,0.4,1.6,1.1,2.5,2
				C1533.4,286.7,1535.3,289.3,1535.3,292.7z"/>
			<path class="st3" d="M1528.2,283.8c-0.2,0.2-0.3,0.4-0.5,0.6c-0.2-0.1-0.3-0.2-0.4-0.3l-0.3-0.1c-0.4-0.2-0.7-0.9-0.4-1.3
				c0-0.1,0.1-0.2,0.2-0.2c0.3-0.3,0.8-0.4,1.1-0.2c0,0,0.5,0.2,1.1,0.7C1528.8,283.1,1528.5,283.4,1528.2,283.8z"/>
			<path class="st3" d="M1527.3,284.1c0.1,0.1,0.2,0.2,0.4,0.3c-1.6,1.8-3.2,4-4.7,7.1l-0.1,0.1c-0.2,0.3-0.6,0.6-1,0.6
				c0-0.4,0.1-0.8,0.1-1.1c0.1-0.9,0.2-1.8,0.3-2.7c1.4-2.4,2.9-4.3,4.3-5.9h0c-0.1,0.1-0.1,0.2-0.2,0.2c-0.3,0.4-0.1,1.1,0.4,1.3
				L1527.3,284.1z"/>
			<path class="st3" d="M1443.5,136.7c114.7,0,97.6,73.8,81.2,128.3c0,0-0.2-0.3-0.6-1c0-1.2,0.1-2.3,0.1-3.4
				c0.2-11.2-0.2-18.5-0.2-18.5s6.9-87.5-76.1-87.5c-89.2,0-84.9,87.5-84.9,87.5s-0.4,8.4,0.2,21.3h0c0,1.2,0.1,2.6,0.2,3.9
				c-0.6,1.2-0.9,1.8-0.9,1.8C1346,210.5,1335.1,136.7,1443.5,136.7z"/>
			<path class="st3" d="M1524,242.1c0,0,0.5,7.2,0.2,18.5l-0.7,0.6c-0.3-0.4-0.8-0.4-1.2-0.3c-3.1-5.6-8.8-16.3-14.6-28.9
				c-7.2-16-14.6-35.1-16.5-50.6c-0.3,0.2-55.5,34.1-117.1,41.1c2.1,14-5.1,32.3-9.1,41.2c-0.3-0.2-0.8-0.1-1.1,0.2l-0.8-0.6h0
				c-0.6-12.8-0.2-21.3-0.2-21.3s-4.3-87.5,84.9-87.5C1530.9,154.5,1524,242.1,1524,242.1z"/>
			<path class="st0" d="M1524.3,260.6c0,1.1,0,2.2-0.1,3.4c-0.2-0.4-0.5-0.9-0.9-1.5l0.1-0.1c0.4-0.3,0.5-0.9,0.2-1.3L1524.3,260.6z
				"/>
			<path class="st2" d="M1524.2,264c-0.1,2.2-0.2,4.7-0.3,7.1c-0.3,5.3-0.8,11-1.4,17.1c-0.4,0.7-0.8,1.5-1.2,2.3l-0.1,0.1
				c-0.2,0.5,0,1.1,0.4,1.3c0.1,0.1,0.2,0.1,0.4,0.1c-0.8,6.2-1.8,12.6-3.2,19.1c-4.8,22.7-13.7,46-29.8,61.2
				c-6.6,5.5-15.7,11.5-26.7,14.7c-0.7,0.2-1.4,0.4-2.2,0.6h0c-4.7,1-9.7,1.6-15,1.6c-0.4,0-0.8,0-1.2,0
				c-17.6-0.9-33.2-9.6-42.7-16.2l-0.2-0.1c-16.9-15.2-26.3-39-31.6-62.1c-1.5-6.4-2.6-12.8-3.5-18.9c0.5-0.2,0.7-0.8,0.5-1.3
				c-0.3-0.7-0.6-1.2-1-1.8c-0.8-6.3-1.4-12.3-1.8-17.7c-0.1-1.3-0.2-2.6-0.3-3.9c0.3-0.5,0.6-1.1,0.9-1.8l9,7
				c1.9,6.6,5.9,12.3,11.2,16.4c5.4,4.2,12.1,6.6,19.4,6.6c17.5,0,31.7-14,31.9-31.4c0.9-0.7,3.5-2.6,6.5-2.6c1.8,0,3.7,0.6,5.8,2.6
				c0.2,17.4,14.4,31.5,31.9,31.5c14.5,0,26.8-9.7,30.6-23l12.8-10C1523.7,263.1,1524,263.6,1524.2,264z M1473.5,322.6
				c0.8-0.7,0.9-1.9,0.2-2.7c-0.7-0.8-1.9-0.9-2.7-0.2l-0.1,0.1c-1,0.8-10.5,8-23.6,8c-7,0-13.5-2-18.2-4.1c-2.4-1-4.3-2-5.6-2.8
				c-0.7-0.4-1.2-0.7-1.5-0.9l-0.4-0.2l-0.1-0.1c-0.9-0.6-2-0.4-2.6,0.4c-0.6,0.9-0.4,2,0.4,2.6c0.2,0.1,12.5,8.8,27.9,8.8
				C1462.8,331.4,1473.3,322.7,1473.5,322.6z M1456.7,305.8c1-0.2,1.6-1.3,1.3-2.3c-0.2-1-1.3-1.6-2.3-1.3l-7.4,2
				c-0.5,0.1-1,0.2-1.5,0.2c-2.1,0-4-1.2-4.8-3c0,0,0,0,0-0.1c-0.2-0.7-0.4-1.4-0.4-2v-30.9c0-1-0.8-1.9-1.9-1.9s-1.9,0.8-1.9,1.9
				v30.9c0,1.2,0.3,2.3,0.6,3.3l0,0.1c1.4,3.5,4.8,5.4,8.3,5.4c0.8,0,1.7-0.1,2.5-0.3L1456.7,305.8z"/>
			<path class="st0" d="M1523.6,261.1c0.3,0.4,0.2,1-0.2,1.3l-0.1,0.1c-0.1-0.3-0.3-0.6-0.4-0.8L1523.6,261.1z"/>
			<path class="st0" d="M1523.6,261.1l-0.7,0.6c-0.1-0.3-0.3-0.6-0.4-0.8C1522.8,260.7,1523.3,260.7,1523.6,261.1z"/>
			<path class="st0" d="M1523.3,262.5l-12.8,10c0-0.1,0.1-0.2,0.1-0.3c0.1-0.4,0.2-0.8,0.3-1.1l11.9-9.4
				C1523.1,261.9,1523.2,262.2,1523.3,262.5z"/>
			<path class="st0" d="M1522.4,260.8c0.1,0.3,0.3,0.6,0.4,0.8L1511,271c0.1-0.4,0.2-0.9,0.3-1.4l11-8.7
				C1522.3,260.9,1522.4,260.9,1522.4,260.8z"/>
			<path class="st3" d="M1522.5,288.2c-0.1,0.9-0.2,1.8-0.3,2.7c0,0.4-0.1,0.8-0.1,1.1c-0.1,0-0.2,0-0.4-0.1
				c-0.5-0.2-0.7-0.9-0.4-1.3l0.1-0.1C1521.6,289.7,1522.1,289,1522.5,288.2z"/>
			<path class="st2" d="M1522.4,260.8c0,0-0.1,0.1-0.1,0.1l-11,8.7c0.4-1.9,0.6-4,0.6-6c0-15-10.3-27.5-24.2-31h18.8l1.5-0.7
				C1513.6,244.6,1519.3,255.3,1522.4,260.8z"/>
			<path class="st0" d="M1511.9,263.6c0,2.1-0.2,4.1-0.6,6l-1.1,0.9c0.5-2.2,0.8-4.6,0.8-6.9c0-17.1-13.8-30.9-30.9-31h7.6
				C1501.5,236,1511.9,248.6,1511.9,263.6z"/>
			<path class="st0" d="M1510.1,270.5l1.1-0.9c-0.1,0.5-0.2,1-0.3,1.4l-1.1,0.9h0C1509.9,271.4,1510,271,1510.1,270.5z"/>
			<path class="st0" d="M1511,271c-0.1,0.4-0.2,0.8-0.3,1.1c0,0.1-0.1,0.2-0.1,0.3l-0.2,0.2c-0.2,0.2-0.6,0.2-0.9,0.1
				c0.1-0.3,0.2-0.6,0.3-0.9h0L1511,271z"/>
			<path class="st0" d="M1510.9,263.6c0,2.4-0.3,4.7-0.8,6.9l-0.9,0.7c-0.1,0.1-0.2,0.2-0.2,0.3h-0.1c0.7-2.5,1.1-5.2,1.1-7.9
				c0-8.3-3.3-15.8-8.8-21.2c-5.4-5.4-12.9-8.8-21.2-8.8v-0.9h0C1497.1,232.7,1510.9,246.5,1510.9,263.6z"/>
			<path class="st0" d="M1510.4,272.7l0.2-0.2c-3.8,13.3-16.1,23-30.6,23c-17.5,0-31.7-14.1-31.9-31.5c0.1,0.1,0.2,0.1,0.3,0.2
				c0.2,0.2,0.4,0.3,0.7,0.2c0.4,16.7,14.1,30.1,30.9,30.1c13.9,0,25.6-9.2,29.5-21.8C1509.8,272.9,1510.1,272.9,1510.4,272.7z"/>
			<path class="st0" d="M1510.1,270.5c-0.1,0.5-0.2,0.9-0.3,1.4c-0.1,0.3-0.2,0.6-0.3,0.9c-0.2,0-0.3-0.1-0.4-0.3
				c-0.2-0.3-0.2-0.7-0.1-1c0-0.1,0.1-0.2,0.2-0.3L1510.1,270.5z"/>
			<path class="st0" d="M1509.1,272.5c0.1,0.1,0.2,0.2,0.4,0.3c-3.9,12.6-15.7,21.8-29.5,21.8c-16.8,0-30.5-13.4-30.9-30.1
				c0.2,0,0.4-0.1,0.6-0.2c0.2-0.2,0.2-0.4,0.2-0.7h0c0,8.3,3.3,15.8,8.8,21.2c5.4,5.4,12.9,8.8,21.2,8.8c6.9,0,13.2-2.3,18.3-6.2
				c5.1-3.9,8.9-9.4,10.6-15.7c0-0.1,0-0.1,0-0.2h0.1C1508.9,271.8,1508.9,272.2,1509.1,272.5z"/>
			<path class="st2" d="M1510,263.6c0,2.7-0.4,5.4-1.1,7.9c0,0.1,0,0.1,0,0.2c-1.8,6.3-5.6,11.8-10.6,15.7c-5,3.9-11.4,6.2-18.3,6.2
				c-8.3,0-15.8-3.3-21.2-8.8c-5.4-5.4-8.8-12.9-8.8-21.2c0-8.3,3.3-15.8,8.8-21.2c5.4-5.4,12.9-8.8,21.2-8.8
				c8.3,0,15.8,3.3,21.2,8.8C1506.6,247.8,1510,255.3,1510,263.6z M1487.4,261.7c0-4.1-3.3-7.4-7.4-7.4c-4.1,0-7.4,3.3-7.4,7.4
				s3.3,7.4,7.4,7.4C1484.1,269,1487.4,265.7,1487.4,261.7z M1485.4,283.2c0.3-0.4,0.2-1-0.2-1.4l-16.2-12.2c-0.4-0.3-1-0.2-1.4,0.2
				c-0.3,0.4-0.2,1,0.2,1.4l16.2,12.2C1484.4,283.7,1485,283.6,1485.4,283.2z"/>
			<path class="st2" d="M1507.9,232l-1.5,0.7l-14.4-8.2c-3.7-1.8-7.6-3-11.7-3.3l-20.9-1.7c0.6,1,4.5,13.2,4.5,13.2h8.5
				c-13.3,3.3-23.3,14.9-24.2,29c-2-1.4-4-2-5.8-2c-2.8,0-5.1,1.2-6.6,2.1c-0.8-14.2-10.9-25.9-24.2-29.1h16.4
				c0,0,3.9-12.2,4.5-13.2l-20.9,1.7c-4.1,0.3-8,1.5-11.7,3.3l-14.4,8.2h10.8c-13.9,3.4-24.2,16-24.2,31c0,2,0.2,4,0.6,6l-7.3-5.8
				c-0.1,0-0.1-0.1-0.2-0.1c4.1-8.9,11.3-27.2,9.1-41.2c61.6-7,116.9-40.9,117.1-41.1C1493.3,196.9,1500.6,216,1507.9,232z"/>
			<path class="st3" d="M1506.4,232.6h-18.8c-2.4-0.6-5-0.9-7.7-0.9c-2.7,0-5.2,0.3-7.7,0.9h-8.5c0,0-3.9-12.2-4.5-13.2l20.9,1.7
				c4.1,0.3,8.1,1.5,11.7,3.3L1506.4,232.6z"/>
			<path class="st3" d="M1500.6,360.7c0,6.8-0.6,12.9-1.8,18.2c-2,9.4-5.4,16.6-9.4,22.2c-12.8,17.4-37.1,21.6-55.9,10.9
				c-25.9-14.8-41.9-46.5-41.9-46.5s3.4,3.3,9.3,7.4l0.2,0.1c10.9,9.8,24.8,16,42.7,16.2c0.4,0,0.8,0,1.2,0c1.3,0.1,2.6,0.1,3.9,0
				c3.9-0.2,7.6-0.7,11.1-1.6h0c0.8-0.2,1.5-0.3,2.2-0.6c10.6-2.7,19.4-7.9,26.7-14.7C1496.5,366.3,1500.6,360.7,1500.6,360.7z"/>
			<path class="st0" d="M1487.6,232.6h-7.6h0v-0.9C1482.6,231.7,1485.2,232,1487.6,232.6z"/>
			<circle class="st3" cx="1480" cy="261.7" r="7.4"/>
			<path class="st3" d="M1485.2,281.8c0.4,0.3,0.5,1,0.2,1.4c-0.3,0.4-1,0.5-1.4,0.2l-16.2-12.2c-0.4-0.3-0.5-0.9-0.2-1.4
				c0.3-0.4,1-0.5,1.4-0.2L1485.2,281.8z"/>
			<path class="st0" d="M1480,232.6v0.9c-8.3,0-15.8,3.3-21.2,8.8c-5.4,5.4-8.8,12.9-8.8,21.2h0c0-0.2-0.1-0.5-0.2-0.7
				c-0.2-0.2-0.4-0.4-0.6-0.6C1449.7,245.8,1463.3,232.6,1480,232.6z"/>
			<path class="st0" d="M1480,231.7v0.9h-7.7C1474.8,232,1477.3,231.7,1480,231.7z"/>
			<path class="st0" d="M1472.3,232.6h7.7c-16.7,0-30.3,13.2-30.9,29.7c-0.3-0.3-0.6-0.5-0.9-0.7
				C1449,247.5,1459,235.9,1472.3,232.6z"/>
			<path class="st3" d="M1473.7,319.9c0.7,0.8,0.6,2-0.2,2.7c-0.2,0.1-10.7,8.8-26.1,8.9c-15.4,0-27.7-8.7-27.9-8.8
				c-0.8-0.6-1.1-1.7-0.4-2.6c0.6-0.8,1.7-1,2.6-0.4l0.1,0.1l0.4,0.2c0.3,0.2,0.9,0.5,1.5,0.9c1.3,0.8,3.2,1.8,5.6,2.8
				c4.7,2,11.2,4.1,18.2,4.1c13.1,0,22.6-7.1,23.6-8l0.1-0.1C1471.9,319,1473.1,319.1,1473.7,319.9z"/>
			<path class="st3" d="M1458,303.5c0.3,1-0.3,2-1.3,2.3l-7.4,2c-0.8,0.2-1.7,0.3-2.5,0.3c-3.5,0-6.9-1.9-8.3-5.4l0-0.1
				c-0.3-1-0.6-2.1-0.6-3.3v-30.9c0-1,0.8-1.9,1.9-1.9s1.9,0.8,1.9,1.9v30.9c0,0.7,0.1,1.3,0.4,2l-1.7,0.7l1.8-0.6
				c0.8,1.8,2.7,3,4.8,3c0.5,0,1-0.1,1.5-0.2l7.4-2C1456.7,301.9,1457.7,302.5,1458,303.5z"/>
			<path class="st0" d="M1449.7,262.9c0.2,0.2,0.2,0.4,0.2,0.7c0,0.2-0.1,0.5-0.2,0.7c-0.2,0.2-0.4,0.2-0.6,0.2c0-0.3,0-0.6,0-0.9
				c0-0.4,0-0.8,0-1.2C1449.3,262.5,1449.5,262.7,1449.7,262.9z"/>
			<path class="st0" d="M1449.1,262.3c0,0.4,0,0.8,0,1.2c-0.3-0.3-0.6-0.6-0.9-0.8c0-0.4,0-0.8,0-1.1
				C1448.5,261.8,1448.8,262.1,1449.1,262.3z"/>
			<path class="st0" d="M1449,263.6c0,0.3,0,0.6,0,0.9c-0.3,0-0.5-0.1-0.7-0.2c-0.1-0.1-0.2-0.2-0.3-0.2c0-0.1,0-0.3,0-0.4
				c0-0.3,0-0.6,0-0.8C1448.4,263,1448.7,263.3,1449,263.6z"/>
			<path class="st0" d="M1448.2,261.6c0,0.4,0,0.8,0,1.1c-5.1-4.2-10.3-1.4-12.3,0.1c0-0.4,0-0.8,0-1.1c1.4-1,3.8-2.1,6.6-2.1
				C1444.2,259.6,1446.2,260.2,1448.2,261.6z"/>
			<path class="st0" d="M1448.1,262.8c0,0.3,0,0.6,0,0.8c0,0.1,0,0.3,0,0.4c-2-2-4-2.5-5.8-2.6c-3,0-5.7,1.9-6.5,2.6
				c0-0.1,0-0.3,0-0.4c0-0.2,0-0.4,0-0.7C1437.9,261.4,1443,258.5,1448.1,262.8z"/>
			<path class="st0" d="M1441.9,301.3C1441.9,301.3,1441.9,301.3,1441.9,301.3l-1.7,0.7L1441.9,301.3z"/>
			<path class="st0" d="M1435.8,262.9c0,0.2,0,0.4,0,0.7h-0.9C1434.9,263.6,1435.2,263.3,1435.8,262.9z"/>
			<path class="st0" d="M1435.8,263.6c0,0.1,0,0.3,0,0.4c-0.1,0-0.1,0.1-0.2,0.1l-0.1,0.1c-0.2,0.2-0.4,0.2-0.7,0.2
				c0-0.3,0-0.6,0-0.9H1435.8z"/>
			<path class="st0" d="M1435.7,264.2c0,0,0.1-0.1,0.2-0.1c-0.2,17.4-14.4,31.4-31.9,31.4c-7.3,0-14.1-2.4-19.4-6.6
				c-5.3-4.1-9.3-9.8-11.2-16.4l0.2,0.1h0c0.2,0.3,0.6,0.3,0.9,0.2c3.9,12.6,15.6,21.8,29.5,21.8c16.8,0,30.4-13.3,30.9-30
				c0.2,0,0.5-0.1,0.7-0.2L1435.7,264.2z"/>
			<path class="st0" d="M1435.8,261.8c0,0.4,0,0.8,0,1.1c-0.6,0.4-0.9,0.7-0.9,0.7c0-0.4,0-0.8,0-1.2
				C1435.1,262.2,1435.4,262,1435.8,261.8z"/>
			<path class="st0" d="M1434.9,262.4c0,0.4,0,0.8,0,1.2h-0.9c0-0.2,0.1-0.5,0.3-0.7C1434.3,262.9,1434.5,262.7,1434.9,262.4z"/>
			<path class="st0" d="M1434.9,263.6c0,0.3,0,0.6,0,0.9c-0.2,0-0.4-0.1-0.7-0.3c-0.2-0.2-0.2-0.4-0.2-0.6v0H1434.9z"/>
			<path class="st0" d="M1435.8,261.8c-0.4,0.2-0.7,0.5-0.9,0.7c-0.6-16.6-14.2-29.8-30.9-29.8h7.6
				C1424.9,235.9,1435,247.6,1435.8,261.8z"/>
			<path class="st0" d="M1434.9,264.5c-0.5,16.7-14.1,30-30.9,30c-13.9,0-25.7-9.1-29.5-21.8c0.1,0,0.3-0.1,0.4-0.2
				c0.2-0.2,0.3-0.6,0.2-0.8c3.6,12.6,15.1,21.9,28.9,21.9c8.3,0,15.8-3.3,21.2-8.8c5.4-5.4,8.8-12.9,8.8-21.2
				c0,0.2,0.1,0.4,0.2,0.6C1434.4,264.4,1434.6,264.5,1434.9,264.5z"/>
			<path class="st0" d="M1434.9,262.4c-0.3,0.3-0.6,0.5-0.6,0.5c-0.2,0.2-0.3,0.4-0.3,0.7c0-8.3-3.3-15.8-8.8-21.2
				c-5.4-5.4-12.9-8.8-21.2-8.8c-8.3,0-15.8,3.3-21.2,8.8c-5.4,5.4-8.8,12.9-8.8,21.2c0,2.8,0.3,5.4,1.1,8c0-0.1-0.1-0.2-0.2-0.3
				l0,0l-0.1-0.1l-0.9-0.7c-0.6-2.2-0.8-4.6-0.8-6.9c0-17.1,13.9-31,31-31h0C1420.7,232.7,1434.2,245.9,1434.9,262.4z"/>
			<path class="st2" d="M1434,263.6L1434,263.6c0,8.3-3.3,15.8-8.8,21.2c-5.4,5.4-12.9,8.8-21.2,8.8c-13.8,0-25.3-9.2-28.9-21.9
				c0-0.1,0-0.1-0.1-0.2c-0.7-2.6-1.1-5.2-1.1-8c0-8.3,3.3-15.8,8.8-21.2c5.4-5.4,12.9-8.8,21.2-8.8c8.3,0,15.8,3.3,21.2,8.8
				C1430.6,247.8,1434,255.3,1434,263.6z M1425.1,269.9c0.4-0.3,0.6-0.9,0.3-1.4c-0.3-0.4-0.9-0.6-1.4-0.3l-18.4,12.1
				c-0.4,0.3-0.6,0.9-0.3,1.4c0.3,0.4,0.9,0.6,1.4,0.3L1425.1,269.9z M1418.6,261.7c0-4.1-3.3-7.4-7.4-7.4s-7.4,3.3-7.4,7.4
				s3.3,7.4,7.4,7.4S1418.6,265.7,1418.6,261.7z"/>
			<path class="st3" d="M1411.7,221.1l20.9-1.7c-0.7,1-4.5,13.2-4.5,13.2h-16.4c-2.4-0.6-5-0.9-7.7-0.9c-2.7,0-5.2,0.3-7.7,0.9
				h-10.8l14.4-8.2C1403.6,222.6,1407.6,221.5,1411.7,221.1z"/>
			<path class="st3" d="M1425.4,268.5c0.3,0.5,0.2,1.1-0.3,1.4l-18.4,12.1c-0.5,0.3-1.1,0.2-1.4-0.3c-0.3-0.4-0.2-1.1,0.3-1.4
				l18.4-12.1C1424.5,267.9,1425.1,268,1425.4,268.5z"/>
			<circle class="st3" cx="1411.2" cy="261.7" r="7.4"/>
			<path class="st0" d="M1411.6,232.6h-7.6h0h-7.7c2.4-0.6,5-0.9,7.7-0.9C1406.6,231.7,1409.1,232,1411.6,232.6z"/>
			<path class="st0" d="M1396.3,232.6h7.7c-17.1,0-31,13.9-31,31c0,2.3,0.2,4.7,0.8,6.9l-1.1-0.9c-0.4-2-0.6-4-0.6-6
				C1372,248.6,1382.3,236,1396.3,232.6z"/>
			<path class="st0" d="M1375,271.8c0.1,0.3,0,0.6-0.2,0.8c-0.1,0.1-0.2,0.2-0.4,0.2c-0.1-0.3-0.2-0.6-0.3-0.9
				c-0.1-0.5-0.2-0.9-0.3-1.4l0.9,0.7l0.1,0.1l0,0c0.1,0.1,0.2,0.2,0.2,0.3C1375,271.6,1375,271.7,1375,271.8z"/>
			<path class="st0" d="M1374.4,272.8c-0.3,0.1-0.7,0.1-0.9-0.2h0l-0.2-0.1c0-0.1-0.1-0.2-0.1-0.3c-0.1-0.4-0.2-0.8-0.3-1.2l1.2,0.9
				C1374.2,272.2,1374.3,272.5,1374.4,272.8z"/>
			<path class="st0" d="M1373.8,270.5c0.1,0.5,0.2,0.9,0.3,1.4l-1.2-0.9c-0.1-0.4-0.2-0.9-0.3-1.4L1373.8,270.5z"/>
			<path class="st0" d="M1373.2,272.1c0,0.1,0.1,0.2,0.1,0.3l-9-7c0.1-0.3,0.3-0.6,0.4-0.9l8.2,6.4
				C1373,271.4,1373.1,271.8,1373.2,272.1z"/>
			<path class="st0" d="M1372.9,271l-8.2-6.4v0c0.1-0.2,0.2-0.5,0.4-0.8c0.1,0,0.1,0.1,0.2,0.1l7.3,5.8
				C1372.7,270.1,1372.8,270.5,1372.9,271z"/>
			<path class="st2" d="M1369.5,310.9l-0.4,0.1c-6,8.3-16.9,3-23.6-7.8c-6.8-10.8-9.9-32.4,0-38.2c9.9-5.8,18.2,6.2,18.2,6.2h0.1
				c0.4,5.4,1,11.4,1.8,17.7c-1.4-2.7-3-4.8-4.7-6.5c0-0.1-0.1-0.1-0.2-0.2c-2.1-2.1-4.1-3.4-6.1-4.1c-2-0.8-3.8-1-5.2-1
				c-1.9,0-3.1,0.4-3.1,0.4c-0.5,0.2-0.8,0.7-0.6,1.2c0.2,0.5,0.7,0.8,1.2,0.6h0c0.1,0,1.1-0.3,2.5-0.3c2.2,0,5.6,0.6,9.2,3.9
				c-0.7,0.4-1.6,1.1-2.5,2c-1.8,1.8-3.7,4.4-3.8,7.8c0,2.2,0.9,4.7,3,7.2c0.3,0.4,1,0.5,1.4,0.1c0.4-0.3,0.5-1,0.1-1.4
				c-1.9-2.3-2.5-4.3-2.5-6c0-2.6,1.5-4.8,3.1-6.4c0.8-0.8,1.6-1.4,2.2-1.8l0.3-0.2c1.6,1.8,3.2,4.1,4.7,7.2
				c0.2,0.5,0.8,0.7,1.3,0.5C1366.8,298.1,1368,304.4,1369.5,310.9z"/>
			<path class="st3" d="M1366.5,290.7c0.2,0.5,0,1.1-0.5,1.3c-0.2-1.1-0.3-2.1-0.5-3.1C1365.8,289.4,1366.1,290,1366.5,290.7z"/>
			<path class="st3" d="M1366,292c-0.5,0.2-1.1,0-1.3-0.5c-1.5-3.1-3.1-5.4-4.7-7.2l0.4-0.2l0.2-0.2c0.5-0.2,0.7-0.8,0.4-1.3
				c0-0.1-0.1-0.2-0.2-0.2c1.6,1.7,3.2,3.8,4.7,6.5C1365.6,289.9,1365.8,290.9,1366,292z"/>
			<path class="st0" d="M1365.1,263.7c-0.1,0.3-0.3,0.6-0.4,0.8l-0.7-0.6C1364.3,263.6,1364.8,263.6,1365.1,263.7z"/>
			<path class="st0" d="M1364.7,264.5L1364.7,264.5c-0.1,0.3-0.3,0.6-0.4,0.9l-0.2-0.1c-0.4-0.3-0.4-0.9-0.1-1.3l0,0L1364.7,264.5z"
				/>
			<path class="st0" d="M1364.1,265.3l0.2,0.1c-0.3,0.7-0.6,1.3-0.9,1.8c-0.1-1.3-0.1-2.7-0.2-3.9l0.8,0.6l0,0
				C1363.7,264.4,1363.8,265,1364.1,265.3z"/>
			<path class="st3" d="M1361,282.6c0.3,0.5,0.1,1.1-0.4,1.3l-0.2,0.2l-0.4,0.2c-0.2-0.2-0.3-0.4-0.5-0.6c-0.3-0.3-0.6-0.6-0.9-0.9
				c0.7-0.4,1.1-0.7,1.1-0.7c0.3-0.2,0.7-0.1,0.9,0c0.1,0.1,0.2,0.1,0.2,0.2C1360.9,282.4,1361,282.5,1361,282.6z"/>
			<path class="st3" d="M1360.6,282.2c-0.3-0.1-0.7-0.2-0.9,0c0,0-0.5,0.2-1.1,0.7c-3.6-3.2-7-3.9-9.2-3.9c-1.4,0-2.3,0.3-2.5,0.3h0
				c-0.5,0.2-1.1-0.1-1.2-0.6c-0.2-0.5,0.1-1.1,0.6-1.2c0.1,0,1.3-0.4,3.1-0.4c1.4,0,3.2,0.2,5.2,1
				C1356.5,278.8,1358.6,280.1,1360.6,282.2z"/>
			<path class="st3" d="M1359.5,283.8c0.2,0.2,0.3,0.4,0.5,0.6l-0.3,0.2c-0.6,0.4-1.4,1-2.2,1.8c-1.6,1.6-3.1,3.8-3.1,6.4
				c0,1.7,0.7,3.7,2.5,6c0.3,0.4,0.3,1-0.1,1.4c-0.4,0.3-1,0.3-1.4-0.1c-2.1-2.6-3-5-3-7.2c0-3.4,1.9-6,3.8-7.8
				c0.9-0.9,1.8-1.6,2.5-2C1358.8,283.2,1359.1,283.4,1359.5,283.8z"/>
			<path class="st3" d="M1334.6,456.6c0,0.1,0,0.2,0,0.3h-1.9C1333.4,456.8,1334,456.7,1334.6,456.6z"/>
			<path class="st0" d="M1332.7,456.9h1.9c0,0.7-0.4,1.4-1.1,1.8c0,0-0.3,0.1-0.9,0.4c-0.6,0.3-1.4,0.8-2.6,1.4
				c-2.2,1.2-5.3,3.1-9.1,5.5c-7.2,4.6-16.7,11.3-26.6,20h-1.2c0-0.4-0.2-0.9-0.5-1.2c-0.7-0.8-1.9-0.9-2.7-0.2
				c21.3-19.2,41.6-29.4,41.7-29.5c1-0.5,2.2-0.1,2.7,0.9c0.1,0.2,0.1,0.3,0.2,0.6C1334,456.7,1333.4,456.8,1332.7,456.9z"/>
			<path class="st3" d="M1294.5,486.1c-0.6,0.4-1.1,1-1.7,1.5c0.4-0.4,0.6-1,0.6-1.5H1294.5z"/>
			<path class="st3" d="M1293.3,486.1c0,0.5-0.1,1.1-0.6,1.5l0,0c-0.8,0.7-1.9,0.6-2.7-0.1l1.3-1.3l0.1-0.1H1293.3z"/>
			<path class="st3" d="M1293.3,486.1h-1.9l-0.1,0.1l-1.3,1.3c0,0-0.1-0.1-0.1-0.1c-0.7-0.8-0.7-2,0.2-2.8c0.8-0.7,2-0.6,2.7,0.2
				C1293.1,485.3,1293.3,485.7,1293.3,486.1z"/>
			<path class="st3" d="M1292.7,487.6C1292.7,487.7,1292.7,487.7,1292.7,487.6c-6.1,5.5-12.3,11.7-18,18.5h-2.6l17.9-18.6
				C1290.8,488.3,1291.9,488.3,1292.7,487.6z"/>
			<path class="st0" d="M1290,484.7c0,0,0.1-0.1,0.1-0.1c-0.8,0.7-0.9,2-0.2,2.8c0,0,0.1,0.1,0.1,0.1l-17.9,18.6h2.6
				c-0.3,0.4-0.7,0.8-1,1.2c-6.3,7.7-12.2,16.3-16.8,25.7h-1.2l-7.3,15.7v0l-0.8,1.7c-0.9-0.4-1.3-1.4-1.1-2.3
				c2.6-8.3,6.1-16,10.3-23.2c4.1-7.2,8.9-13.9,14-20.1C1276.8,497.4,1283.4,490.6,1290,484.7z"/>
			<path class="st3" d="M1255.6,533h1.2c-2.6,5.2-4.9,10.7-6.7,16.3c-0.3,1-1.4,1.6-2.4,1.3c0.2-0.6,0.3-1.2,0.6-1.9v0L1255.6,533z"
				/>
			<path class="st3" d="M1249,553h-2c0.2-0.7,0.3-1.3,0.6-1.9C1248.4,551.4,1249,552.2,1249,553z"/>
			<path class="st3" d="M1248.3,548.8c-0.2,0.6-0.4,1.2-0.6,1.9h0c-0.1,0-0.2-0.1-0.2-0.1L1248.3,548.8z"/>
			<path d="M1247.7,550.7c-0.1,0.1-0.1,0.3-0.1,0.5h0c-0.1,0-0.2,0-0.4,0l0.3-0.6C1247.5,550.6,1247.6,550.6,1247.7,550.7
				L1247.7,550.7z"/>
			<path class="st3" d="M1247.6,551.1c-0.2,0.6-0.4,1.2-0.6,1.9h-0.8l0.9-1.9C1247.3,551.1,1247.4,551.1,1247.6,551.1L1247.6,551.1z
				"/>
			<path class="st3" d="M1245.6,577.1c0,0.7,0,1.3,0,2h-2v-2H1245.6z"/>
		</g>
		<g>
		</g>
	</g>
</g>
<g>
	<g id="XMLID_14_">
		<g>
			<path class="st3" d="M1362.8,874.3c0-80,92.6-126.9,92.6-126.9l2,0.8c-0.2,0.4-0.2,0.8-0.1,1.2c0.3,1.1,1.3,1.8,2.4,1.6
				c1-0.2,2-0.4,2.9-0.6l109.5,45.5l116.6-46c1.1,0.3,2,0.5,2.8,0.7c1.1,0.3,2.2-0.4,2.5-1.5c0.1-0.4,0.1-0.9-0.1-1.2l0.9-0.4
				c0,0,92.6,46.8,92.6,126.9H1362.8z"/>
			<path class="st0" d="M1691.3,750.6c-0.7-0.2-1.6-0.4-2.8-0.7l3.2-1.3l1.9-0.8c0.1,0.4,0.2,0.8,0.1,1.2
				C1693.6,750.2,1692.5,750.8,1691.3,750.6z"/>
			<path class="st3" d="M1662,568.8c1.9,1.8,3.8,4.5,3.9,8c0,2.3-0.9,4.9-3.1,7.5c-0.4,0.4-1,0.5-1.4,0.1c-0.4-0.4-0.5-1-0.1-1.5
				c2-2.4,2.6-4.4,2.6-6.2c0-2.3-1.2-4.4-2.6-5.9c-1.2-1.3-2.5-2.3-3.3-2.8c0.2-0.2,0.4-0.4,0.5-0.6l0.9-0.9
				C1660.1,567.2,1661,567.9,1662,568.8z"/>
			<path class="st0" d="M1657.1,566.4L1657.1,566.4L1657.1,566.4z"/>
			<path class="st3" d="M1657.2,566.4L1657.2,566.4L1657.2,566.4z M1657.2,567.8c-0.5-0.3-0.7-0.9-0.4-1.4c0.1-0.1,0.1-0.2,0.2-0.2
				v0c0.3-0.4,0.8-0.4,1.2-0.2c0,0,0.5,0.3,1.2,0.8l-0.9,0.9c-0.2,0.2-0.4,0.4-0.5,0.6c-0.2-0.1-0.3-0.2-0.4-0.3L1657.2,567.8z"/>
			<path class="st3" d="M1657,566.2c4.4-4.6,9-5.6,12-5.6c1.9,0,3.1,0.4,3.2,0.4c0.4,0.1,0.7,0.6,0.7,1c0,0.1,0,0.2,0,0.3
				c-0.1,0.4-0.6,0.7-1,0.7c-0.1,0-0.2,0-0.3,0l-0.1,0l-0.5-0.1c-0.5-0.1-1.1-0.2-1.9-0.2c-1.3,0-2.9,0.2-4.7,0.9
				c-1,0.4-2,0.9-4.9,3.2c-0.7-0.5-1.1-0.8-1.2-0.8C1657.8,565.7,1657.3,565.8,1657,566.2z"/>
			<polygon class="st0" points="1657,566.2 1657,566.2 1656.9,566.2 			"/>
			<path class="st2" d="M1654,554.5c0,0,0.7-1,2-2.3h0.1c0,0.8-0.1,1.6-0.1,2.4v0c0,0.3,0,0.5,0,0.7c-0.1,0.1-0.2,0.2-0.2,0.3
				l-0.1,0L1654,554.5z"/>
			<path class="st2" d="M1668.9,560.6c-2.9,0-7.5,1-12,5.6h0c-0.7,0.7-1.4,1.5-2,2.3c0.5-4.6,0.8-9.1,1-13.2
				c0.5-0.7,1.8-2.3,3.5-3.7c2.1-1.7,4.8-3.2,7.7-3.2c1.5,0,3,0.4,4.7,1.4c1.9,1.1,3.2,2.9,4.2,5.3c0.8,1.9,1.2,4.3,1.3,6.8
				l-4.5,0.1c0-0.4-0.3-0.9-0.7-1C1672,561,1670.8,560.6,1668.9,560.6z"/>
			<path class="st2" d="M1665.8,576.8c0-3.5-2-6.2-3.9-8c-1-0.9-1.9-1.6-2.6-2.1c2.9-2.2,3.9-2.8,4.9-3.2c1.8-0.7,3.4-0.9,4.7-0.9
				c0.8,0,1.5,0.1,1.9,0.2l0.5,0.1l0.1,0c0.1,0,0.2,0,0.3,0c0.4,0,0.9-0.3,1-0.7c0-0.1,0-0.2,0-0.3l4.5-0.1c0,0.6,0.1,1.3,0.1,1.9
				c0,7.9-2.6,17.1-6.2,22.8c-2.2,3.5-4.8,6.4-7.5,8.4c-2.7,2-5.4,3-7.6,3c-2,0-3.7-0.7-5.3-2.4c1.5-6.9,2.5-13.8,3.3-20.3
				c0.1-0.8,0.2-1.6,0.3-2.4c1.1-1.9,2.3-3.4,3.4-4.7c0.8,0.5,2.1,1.5,3.3,2.8c1.4,1.5,2.6,3.6,2.6,5.9c0,1.8-0.7,3.8-2.6,6.2
				c-0.4,0.5-0.3,1.1,0.1,1.5c0.4,0.4,1.1,0.3,1.4-0.1C1664.9,581.7,1665.8,579.2,1665.8,576.8z"/>
			<path class="st3" d="M1654.4,572.8c0.2-1.5,0.4-2.9,0.5-4.3c0.6-0.9,1.3-1.6,2-2.3l0,0c-0.1,0-0.1,0.1-0.2,0.2
				c-0.3,0.5-0.1,1.1,0.4,1.4l0.3,0.1c0.1,0.1,0.3,0.1,0.4,0.3C1656.7,569.4,1655.5,570.9,1654.4,572.8z"/>
			<path class="st0" d="M1654,552c0-0.3,0-0.6,0-0.9c0.1-0.1,0.1-0.1,0.3-0.3c0,0.4-0.1,0.8-0.1,1.1L1654,552L1654,552z"/>
			<path class="st0" d="M1654,552.1h0.1c0,0.1,0,0.1,0,0.2L1654,552.1z"/>
			<path class="st2" d="M1653.9,554.4c0-0.8,0.1-1.6,0.1-2.3l0.1,0.2c0-0.1,0-0.1,0-0.2l1.8,0.1
				C1654.7,553.5,1654,554.5,1653.9,554.4L1653.9,554.4z"/>
			<path class="st2" d="M1654.1,551.2c0,0.3,0,0.6,0,0.9c-0.1-0.1-0.2-0.3-0.3-0.5C1653.9,551.4,1654,551.3,1654.1,551.2z"/>
			<path class="st2" d="M1654,552h-0.7c0.1-0.1,0.3-0.3,0.4-0.5C1653.9,551.7,1654,551.9,1654,552z"/>
			<path class="st2" d="M1652.4,572.3c0.8-6.3,1.2-12.3,1.5-17.8h0.1l1.7,1.1l0.1,0c0-0.1,0.1-0.1,0.2-0.3c-0.2,4.2-0.6,8.6-1,13.2
				C1654.1,569.6,1653.3,570.8,1652.4,572.3z"/>
			<path class="st0" d="M1653.9,554.4L1653.9,554.4L1653.9,554.4C1653.9,554.4,1653.9,554.4,1653.9,554.4z"/>
			<path class="st2" d="M1653.9,554.4l-1.6-1.1c0,0,0.4-0.5,1-1.3h0.7v0C1654,552.8,1654,553.6,1653.9,554.4z"/>
			<path class="st3" d="M1652.4,572.3c0.8-1.4,1.6-2.7,2.5-3.8c-0.1,1.4-0.3,2.9-0.5,4.3c-0.5,0.8-0.9,1.6-1.4,2.5l-0.5-0.2
				l-0.4-0.2C1652.2,574.1,1652.3,573.2,1652.4,572.3z"/>
			<path class="st0" d="M1652.5,575.2l0.5,0.2c0,0,0,0,0,0.1L1652.5,575.2z"/>
			<path class="st0" d="M1652.5,575.2l0.5,0.3l0,0.1c-0.2,0.4-0.6,0.7-1,0.6c0-0.4,0.1-0.8,0.1-1.2L1652.5,575.2z"/>
			<path class="st3" d="M1651.7,576.1c-0.5-0.2-0.8-0.8-0.6-1.3l0.1-0.2l0-0.1c0.4-0.8,0.8-1.6,1.2-2.3c-0.1,0.9-0.2,1.8-0.3,2.8
				c0,0.4-0.1,0.8-0.1,1.2C1651.9,576.2,1651.7,576.2,1651.7,576.1z"/>
			<path class="st2" d="M1667.2,548.4c-2.8,0-5.6,1.5-7.7,3.2c-1.8,1.4-3,3-3.5,3.7c0-0.3,0-0.5,0-0.7v0c0-0.8,0.1-1.6,0.1-2.4h-0.1
				c3.1-3.3,9.6-8.5,17-4.1c10.3,6.1,7,28.5,0,39.7c-6.3,10.1-16.2,15.6-22.6,10.2v0c0.1-0.5,0.2-0.9,0.3-1.4c0.1-0.3,0.1-0.7,0.2-1
				c1.6,1.8,3.3,2.4,5.3,2.4c2.2,0,4.9-1,7.6-3c2.6-2,5.3-4.9,7.5-8.4c3.6-5.7,6.2-14.9,6.2-22.8c0-0.6,0-1.3-0.1-1.9
				c-0.1-2.5-0.6-4.9-1.3-6.8c-0.9-2.4-2.3-4.2-4.2-5.3C1670.2,548.8,1668.6,548.4,1667.2,548.4z"/>
			<path class="st2" d="M1650.3,597.9c6.4,5.4,16.3-0.1,22.6-10.2c7-11.2,10.3-33.6,0-39.7c-7.3-4.3-13.9,0.8-17,4.1l-1.8-0.1
				c0.1-0.4,0.1-0.8,0.1-1.1c0,0,0,0,0,0c0.5-0.6,1.3-1.3,2.1-2c2.5-2.2,6.2-4.5,10.7-4.5c2.2,0,4.5,0.6,6.8,1.9h0
				c2.8,1.7,4.7,4.3,5.9,7.4c1.1,3,1.6,6.6,1.6,10.2c0,4.4-0.7,9-1.9,13.3c-1.2,4.3-2.9,8.4-4.9,11.7c-2.4,3.9-5.4,7.2-8.5,9.5
				c-3.2,2.3-6.6,3.8-10,3.8c-1,0-2-0.1-6.3-2C1650,599.4,1650.2,598.7,1650.3,597.9z"/>
			<path class="st2" d="M1650.9,595.5c-0.1,0.3-0.1,0.7-0.2,1c-0.1,0.5-0.2,0.9-0.3,1.4c-0.6-0.5-1.1-1.1-1.7-1.8
				c0-0.2,0.1-0.4,0.1-0.6l1.3-1l0.3,0.3C1650.5,595.1,1650.6,595.3,1650.9,595.5z"/>
			<path class="st2" d="M1648.7,595.5c1.4-6.6,2.4-13.1,3.2-19.3c0.4,0,0.9-0.2,1-0.6l0-0.1c0,0,0,0,0-0.1c0.5-0.9,0.9-1.8,1.4-2.5
				c-0.1,0.8-0.2,1.6-0.3,2.4c-0.8,6.6-1.8,13.4-3.3,20.3c-0.2-0.2-0.4-0.4-0.6-0.6l-0.3-0.3L1648.7,595.5z"/>
			<path class="st2" d="M1648.1,598.6c0.2-0.8,0.4-1.6,0.6-2.5c0.5,0.7,1.1,1.3,1.7,1.8v0c-0.1,0.7-0.3,1.4-0.5,2.1
				C1649.2,599.7,1648.6,599.2,1648.1,598.6z"/>
			<path class="st2" d="M1646.8,597.1l2-1.5c0,0.2-0.1,0.4-0.1,0.6c-0.2,0.8-0.4,1.6-0.6,2.5l-1-1.2L1646.8,597.1z"/>
			<path class="st3" d="M1641.9,490c1.8-8.1,0.6-16.7-3.6-23.6l1.9-0.8c16.4,26.2,13.8,58.7,13.8,58.7s0.7,10.9,0,26.9
				c-0.1,0.1-0.2,0.3-0.3,0.4C1651.1,546.5,1636.1,515.9,1641.9,490z"/>
			<path class="st0" d="M1630,714.9v0.2h-2.1l2-0.4C1629.9,714.7,1630,714.8,1630,714.9z"/>
			<path class="st2" d="M1627.9,666.5c0.1-0.7,0.3-1.4,0.4-2c0.9,0.2,1.6,1,1.6,2v48.4c0-0.1-0.1-0.2-0.1-0.3l-2,0.4V666.5z"/>
			<path class="st2" d="M1658.4,735.8c14.1,5.8,29,9.6,33.9,10.8c0.7,0.1,1.2,0.6,1.4,1.3l-1.9,0.8c-9.9-2.4-60-15.4-63.9-33.5h2.1
				v-0.2c0.8,3.6,4.2,7.4,9.3,11C1644.5,729.6,1651.4,732.9,1658.4,735.8z"/>
			<path class="st2" d="M1637,729.2c-5.6-3.9-9.8-8.4-11-13.8l-0.1-0.4v-41c0.8-2.4,1.5-4.9,2-7.6v48.6c3.9,18.1,54,31.1,63.9,33.5
				l-3.2,1.3c-4.7-1.2-12.5-3.3-20.9-6.3C1657.1,740,1645.4,735.2,1637,729.2z"/>
			<path class="st3" d="M1625.9,666.5c0-1.1,0.9-2.1,2-2.1c0.1,0,0.3,0,0.4,0c-0.1,0.7-0.3,1.4-0.4,2c-0.6,2.7-1.3,5.3-2,7.6V666.5z
				"/>
			<path class="st3" d="M1608.6,502.6c4.3,0.4,8.4,1.5,12.2,3.4l15,8.5h-44.2c0,0-4-12.7-4.7-13.7L1608.6,502.6z"/>
			<path class="st2" d="M1617.6,659.8c16.2-15.2,25.4-38.3,30.5-61.2c0.6,0.5,1.1,1,1.8,1.5c-3.9,17.2-10.2,34.6-20.1,48.7
				c0-0.4,0-0.8,0-1.3C1629.8,647.5,1625.4,653.3,1617.6,659.8z"/>
			<circle class="st3" cx="1608.3" cy="544.6" r="7.7"/>
			<path class="st3" d="M1612.5,567.2l-16.8-12.7c-0.4-0.3-0.5-1-0.2-1.4c0.3-0.4,1-0.5,1.4-0.2l16.8,12.7c0.4,0.3,0.5,1,0.2,1.4
				C1613.6,567.4,1612.9,567.5,1612.5,567.2z"/>
			<path class="st2" d="M1617.4,659.9c-8,7.5-17.8,13-29.7,15.6C1600,672.5,1610.2,665.9,1617.4,659.9z"/>
			<path class="st2" d="M1617.4,659.9c-7.2,6-17.4,12.6-29.7,15.6v-2.1h0h-0.1c11.6-2.7,20.9-8,28.5-15.2
				c8.2-7.6,14.6-17.4,19.5-28.2c5-10.8,8.5-22.7,11-34.4c1.5-7.1,2.6-14.2,3.4-20.9v0c0.9-7.2,1.5-14.1,1.8-20.4
				c0-0.8,0.1-1.6,0.1-2.4l1.3,0.1c-0.6,0.8-1,1.2-1,1.3l1.6,1.1c0,0,0,0,0,0.1c-0.3,5.5-0.8,11.5-1.5,17.8
				c-0.4,0.7-0.8,1.5-1.2,2.3l0,0.1l-0.1,0.2c-0.2,0.5,0,1.1,0.6,1.3c0.1,0,0.2,0.1,0.3,0.1c-0.8,6.2-1.8,12.7-3.2,19.3l-2,1.5
				l0.3,0.3l1,1.2c-5.1,22.8-14.3,46-30.5,61.2l0,0C1617.5,659.8,1617.5,659.9,1617.4,659.9z"/>
			<path class="st2" d="M1588.2,677.5l-0.2,0.1h-0.2C1587.9,677.6,1588,677.6,1588.2,677.5z"/>
			<path class="st2" d="M1587.7,675.6l0.5,2c-0.1,0-0.3,0-0.4,0.1c0,0-0.1,0-0.1,0V675.6z"/>
			<path class="st2" d="M1587.3,673.6c0.1,0,0.2,0,0.3-0.1h0h0.1h0v2.1L1587.3,673.6z"/>
			<path class="st2" d="M1587.7,675.6c11.9-2.6,21.7-8.2,29.7-15.6c0,0,0.1-0.1,0.1-0.1l0,0c7.8-6.5,12.2-12.2,12.2-12.2
				c0,0.4,0,0.9,0,1.3c-3.2,4.5-6.8,8.7-10.8,12.5c-8.3,7.8-18.5,13.6-30.8,16.3h0L1587.7,675.6L1587.7,675.6z"/>
			<path class="st2" d="M1587.6,673.5c-0.1,0-0.2,0-0.3,0.1l0.2-0.1H1587.6z"/>
			<path class="st2" d="M1572.1,677.2c5.5,0,10.7-0.6,15.5-1.6c-3.7,0.9-7.5,1.5-11.5,1.6C1574.8,677.3,1573.5,677.3,1572.1,677.2z"
				/>
			<path class="st2" d="M1573.1,659l2.9-9.5c0.2-0.5,0.8-0.8,1.3-0.7c0.5,0.2,0.8,0.8,0.7,1.3l-2.9,9.5c-0.2,0.5-0.8,0.9-1.3,0.7
				C1573.3,660.1,1573,659.5,1573.1,659z"/>
			<path class="st2" d="M1572.1,677.2L1572.1,677.2c1.4,0.1,2.7,0.1,4,0c4-0.1,7.8-0.8,11.5-1.6h0v2c-4.8,1.1-10.1,1.6-15.6,1.6
				h-0.3c-0.3,0-0.6,0-1-0.1v-2v0c0.3,0,0.7,0,1,0H1572.1z"/>
			<path class="st2" d="M1570.6,679.2l0.2-2v2C1570.8,679.2,1570.7,679.2,1570.6,679.2z"/>
			<path class="st0" d="M1568.8,585.8l-1.8,0.7L1568.8,585.8L1568.8,585.8C1568.8,585.8,1568.8,585.8,1568.8,585.8z"/>
			<path class="st3" d="M1568.7,585.7l-1.8,0.8L1568.7,585.7C1568.8,585.8,1568.8,585.8,1568.7,585.7c0.8,2,2.9,3.2,5.1,3.2
				c0.5,0,1-0.1,1.5-0.2l7.7-2.1c1-0.3,2.1,0.4,2.4,1.4c0.3,1-0.4,2.1-1.4,2.4l-7.7,2.1h0c-0.8,0.2-1.7,0.3-2.5,0.3
				c-3.6,0-7.2-2-8.7-5.6v0c-0.4-1-0.7-2.3-0.7-3.5v-32c0-1.1,0.9-2,1.9-2c1.1,0,2,0.9,2,2v32
				C1568.4,584.3,1568.5,585.1,1568.7,585.7z"/>
			<path class="st3" d="M1537.3,502.6l21.7-1.8c-0.7,1-4.7,13.7-4.7,13.7h-44.2l15-8.5C1529,504.1,1533.1,502.9,1537.3,502.6z"/>
			<path class="st3" d="M1545,601.7c0.6-0.9,1.8-1.1,2.7-0.5l0.1,0.1l0.4,0.3c0.4,0.2,0.9,0.5,1.5,0.9c1.4,0.8,3.4,1.9,5.8,2.9
				c4.9,2.1,11.6,4.3,18.9,4.2c13.6,0,23.5-7.4,24.5-8.3l0.1-0.1c0.8-0.7,2-0.6,2.7,0.3c0.7,0.8,0.6,2-0.3,2.7
				c-0.2,0.1-11,9.2-27.1,9.3c-16,0-28.8-9.1-29-9.2C1544.6,603.8,1544.4,602.6,1545,601.7z"/>
			<circle class="st3" cx="1536.9" cy="544.6" r="7.7"/>
			<path class="st3" d="M1531.1,564l19.1-12.6c0.5-0.3,1.1-0.2,1.4,0.3c0.3,0.5,0.2,1.1-0.3,1.4l-19.1,12.6
				c-0.5,0.3-1.1,0.2-1.4-0.3C1530.5,565,1530.7,564.3,1531.1,564z"/>
			<path class="st2" d="M1462.5,750.4c42-9.3,54.6-34.1,54.8-34.4l0.2-0.9v-60.9c3.8,6.8,19.3,33.4,42.6,46.6
				c19.5,11.1,44.8,6.8,58-11.3c3-4.2,5.7-9.2,7.8-15.4v41l0.1,0.4c1.2,5.4,5.4,9.8,11,13.8c8.4,5.9,20.1,10.7,30.7,14.4
				c8.5,2.9,16.3,5.1,20.9,6.3l-116.6,46L1462.5,750.4z"/>
			<path class="st2" d="M1526.5,660.4l-0.1-0.1l1.4-1.5l0.1,0l0.1,0.1c11,9.9,24.9,16.1,43,16.3h0.1l0.1,0h0.8h0.3
				c5.4,0,10.5-0.5,15.1-1.6h0l0.4,2h0h0c-4.8,1.1-10,1.6-15.5,1.6h0h-0.3c-0.3,0-0.7,0-1,0c0,0-0.1,0-0.1,0
				c-18.1-0.9-34.2-9.9-44.1-16.7C1526.6,660.4,1526.5,660.4,1526.5,660.4z"/>
			<polygon class="st2" points="1527.7,658.7 1526.3,660.2 1527.6,658.6 			"/>
			<path class="st2" d="M1570.7,677.2c-18.4-0.2-32.8-6.6-44.1-16.7C1536.5,667.3,1552.6,676.2,1570.7,677.2z"/>
			<path class="st2" d="M1525.3,662l1.2-1.6c0,0,0.1,0.1,0.1,0.1c11.2,10.1,25.6,16.5,44.1,16.7c0,0,0.1,0,0.1,0v0l-0.2,2
				c0.1,0,0.1,0,0.2,0v0C1551.9,679,1536.8,672.4,1525.3,662z"/>
			<polygon class="st2" points="1526.5,660.4 1525.3,662 1525.2,662 1525.1,661.9 			"/>
			<path class="st2" d="M1526.3,660.2c-4.4-3.1-7.5-5.7-8.9-6.9v-0.8v-1.8c0,0,0-0.1,0-0.1C1520.2,654.2,1523.1,657.3,1526.3,660.2z
				"/>
			<path class="st2" d="M1517.5,653.3c1.4,1.2,4.5,3.8,8.9,6.9l0.1,0.1l-1.4,1.5l-0.1,0l-0.1-0.1c-2.7-2.4-5.2-5-7.5-7.8V653.3z"/>
			<path class="st3" d="M1560.1,700.8c-23.3-13.2-38.9-39.8-42.6-46.6v-0.3c2.3,2.8,4.8,5.4,7.5,7.8l0.1,0.1l0.1,0l0.1,0.1h0
				c11.6,10.5,26.6,17.1,45.6,17.3v0c0.4,0.1,0.7,0.1,1,0.1h0.3c5.5,0,10.7-0.6,15.6-1.6c0,0,0.1,0,0.1,0h0.2l0.2-0.1h0
				c12.3-2.7,22.5-8.5,30.8-16.3c4-3.8,7.6-7.9,10.8-12.5c-0.1,5.7-0.6,11-1.4,15.6c-0.1,0-0.3,0-0.4,0c-1.1,0-2,0.9-2,2.1v7.6
				c-2,6.2-4.7,11.2-7.8,15.4C1604.9,707.7,1579.6,711.9,1560.1,700.8z"/>
			<path class="st3" d="M1517.5,653.9v0.3c-0.1-0.3-0.3-0.6-0.4-0.8C1517.1,653.6,1517.3,653.8,1517.5,653.9z"/>
			<path class="st2" d="M1517.5,653.3v0.6c-0.2-0.1-0.3-0.3-0.4-0.5l0,0c-0.3-0.5-0.4-0.8-0.4-0.8S1516.9,652.8,1517.5,653.3z"/>
			<path class="st2" d="M1517,653.4c-0.3-0.3-0.5-0.5-0.7-0.8h0.3C1516.6,652.5,1516.8,652.8,1517,653.4z"/>
			<path class="st2" d="M1516.1,648.9c0.8,0.3,1.4,1,1.4,1.8C1517,650.1,1516.5,649.5,1516.1,648.9z"/>
			<path class="st2" d="M1516.1,648.9c0.4,0.6,0.9,1.3,1.4,1.8c0,0,0,0.1,0,0.1v1.8v0.8c-0.6-0.5-0.9-0.8-0.9-0.8h-0.3
				c-0.9-1-1.7-2.1-2.4-3.2c0.4-0.4,0.9-0.6,1.5-0.6C1515.6,648.7,1515.9,648.7,1516.1,648.9z"/>
			<path class="st2" d="M1513.6,714.1l1.8,0.9h-2v-0.5C1513.5,714.3,1513.5,714.2,1513.6,714.1L1513.6,714.1z"/>
			<path class="st2" d="M1513.3,650.8c0-0.6,0.2-1.1,0.6-1.4c0.8,1.1,1.5,2.1,2.4,3.2h-1v62.5l-1.8-0.9v0c0,0.1-0.1,0.2-0.2,0.4v-62
				V650.8z"/>
			<path class="st3" d="M1504.1,465.2c12.5-17.4,34-31.9,70.9-31.9c34.7,0,54.2,14.7,65.2,32.3l-1.9,0.8c-1-1.6-2.1-3.2-3.4-4.6
				l-0.1-0.1c-3.1-3.4-6.3-6.1-9.6-8.5c2.3,15,0.8,27.4,0.8,27.4c-46.7-3.2-69.6-16.8-80.4-27.1c12,17,33.2,31.4,34.5,32.3
				c-33.7-7.6-45.8-25.7-50.2-38.4c-6.5,3.2-13.4,7.9-19.8,14.9c-1.3,1.4-2.6,3-3.8,4.7L1504.1,465.2z"/>
			<path class="st2" d="M1635.7,514.5l-15-8.5c-3.8-1.9-7.9-3-12.2-3.4l-21.7-1.8c0.6,1,4.7,13.7,4.7,13.7H1635.7z M1600.6,544.6
				c0,4.2,3.4,7.7,7.7,7.7c4.2,0,7.7-3.4,7.7-7.7s-3.4-7.7-7.7-7.7C1604,537,1600.6,540.4,1600.6,544.6z M1596.9,552.9
				c-0.5-0.4-1.1-0.3-1.4,0.2c-0.4,0.5-0.3,1.1,0.2,1.4l16.8,12.7c0.5,0.4,1.1,0.3,1.4-0.2c0.4-0.5,0.3-1.1-0.2-1.4L1596.9,552.9z
				 M1575.1,659.6l2.9-9.5c0.1-0.5-0.1-1.1-0.7-1.3c-0.5-0.1-1.1,0.1-1.3,0.7l-2.9,9.5c-0.1,0.5,0.1,1.1,0.7,1.3
				C1574.4,660.4,1574.9,660.1,1575.1,659.6z M1565.2,587.2c1.5,3.6,5.1,5.6,8.7,5.6c0.8,0,1.7-0.1,2.5-0.3h0l7.7-2.1
				c1-0.3,1.6-1.4,1.4-2.4c-0.3-1-1.4-1.6-2.4-1.4l-7.7,2.1c-0.5,0.1-1,0.2-1.5,0.2c-2.3,0-4.3-1.3-5.1-3.2h0
				c-0.2-0.6-0.4-1.4-0.4-2.1v-32c0-1.1-0.9-2-2-2c-1,0-1.9,0.9-1.9,2v32C1564.5,584.9,1564.8,586.1,1565.2,587.2L1565.2,587.2z
				 M1536.9,552.3c4.2,0,7.7-3.4,7.7-7.7s-3.4-7.7-7.7-7.7s-7.7,3.4-7.7,7.7S1532.6,552.3,1536.9,552.3z M1550.2,551.4l-19.1,12.6
				c-0.5,0.3-0.6,0.9-0.3,1.4c0.3,0.5,0.9,0.6,1.4,0.3l19.1-12.6c0.5-0.3,0.6-0.9,0.3-1.4C1551.3,551.2,1550.7,551.1,1550.2,551.4z
				 M1510.2,514.5h44.2c0,0,4-12.7,4.7-13.7l-21.7,1.8c-4.2,0.4-8.3,1.5-12.1,3.4L1510.2,514.5z M1487.2,550.3
				c3.7-8,17.5-39.1,14.4-59.4c-1.3-8.2,0-16.8,4.7-23.7l0.2-0.3c1.2-1.7,2.4-3.3,3.8-4.7c6.4-7,13.2-11.7,19.8-14.9
				c4.4,12.7,16.6,30.9,50.2,38.4c-1.3-0.9-22.5-15.3-34.5-32.3c10.8,10.3,33.7,23.9,80.4,27.1c0,0,1.5-12.4-0.8-27.4
				c3.3,2.4,6.5,5.1,9.6,8.5l0.1,0.1c1.3,1.4,2.4,3,3.4,4.6c4.2,7,5.4,15.5,3.6,23.6c-5.8,25.9,9.2,56.4,11.9,61.5
				c-0.1,0.2-0.3,0.4-0.4,0.5l-1.3-0.1c0,0.8-0.1,1.6-0.1,2.4c-0.3,6.2-0.9,13.1-1.8,20.4v0c-0.8,6.7-1.9,13.8-3.4,20.9
				c-2.5,11.7-6,23.6-11,34.4c-4.9,10.8-11.4,20.6-19.5,28.2c-7.7,7.2-16.9,12.5-28.5,15.2h0h-0.1l-0.2,0.1h0
				c-4.7,1-9.7,1.6-15.1,1.6h-0.3h-0.8l-0.1,0h-0.1c-18.1-0.2-32-6.4-43-16.3l-0.1-0.1l-0.1,0l-0.1-0.1
				c-17-15.3-26.7-39.6-32.1-63.3c-3.4-14.6-5.1-29-5.9-40.9v0c-0.1-1.4-0.2-2.8-0.3-4L1487.2,550.3z M1601.5,604.3
				c0.8-0.7,0.9-1.9,0.3-2.7c-0.7-0.8-1.9-0.9-2.7-0.3l-0.1,0.1c-1,0.9-10.9,8.3-24.5,8.3c-7.2,0-14-2.1-18.9-4.2
				c-2.4-1.1-4.4-2.1-5.8-2.9c-0.7-0.4-1.2-0.7-1.5-0.9l-0.4-0.3l-0.1-0.1c-0.9-0.6-2.1-0.4-2.7,0.5c-0.6,0.9-0.4,2.1,0.5,2.7
				c0.2,0.1,13,9.1,29,9.2C1590.5,613.5,1601.4,604.4,1601.5,604.3z"/>
			<path class="st2" d="M1494.8,597c-0.3,0.4-0.5,0.7-0.8,1c-0.1-0.6-0.3-1.2-0.4-1.8L1494.8,597z"/>
			<path class="st2" d="M1503.5,632c-3.9-8.1-6.9-16.8-11.2-32.4c0.6-0.5,1.1-1,1.7-1.6c4.3,18.1,11.2,36.5,22,50.9
				c-0.2-0.1-0.4-0.1-0.7-0.1c-0.6,0-1.1,0.3-1.5,0.6C1509.9,644,1506.5,638.1,1503.5,632z"/>
			<path class="st2" d="M1493.6,596.1c0.1,0.6,0.3,1.2,0.4,1.8c-0.5,0.6-1.1,1.1-1.7,1.6c-0.2-0.8-0.4-1.5-0.5-2.3
				c0.5-0.4,0.9-0.9,1.3-1.5h0L1493.6,596.1z"/>
			<path class="st2" d="M1493.5,595.7c0,0.1,0.1,0.3,0.1,0.4l-0.5-0.3L1493.5,595.7z"/>
			<path class="st2" d="M1491.5,594.6l1.6,1.2c-0.4,0.6-0.8,1.1-1.3,1.5c-0.1-0.4-0.2-0.8-0.3-1.2c-0.1-0.4-0.2-0.9-0.3-1.3
				C1491.3,594.8,1491.4,594.7,1491.5,594.6z"/>
			<path class="st3" d="M1490.4,574.7c0.3,0.5,0,1.1-0.5,1.4h0c-0.2-1.1-0.4-2.2-0.5-3.3C1489.8,573.4,1490.1,574.1,1490.4,574.7z"
				/>
			<path class="st2" d="M1489.4,572.8c-0.9-6.5-1.5-12.7-1.9-18.4c0,0,0,0,0-0.1l1.6-1.1c0,0-0.7-1-1.9-2.3c0-0.2,0-0.5,0-0.7
				l2.1-0.1c0.1,1.3,0.1,2.6,0.3,4v0c0.9,11.9,2.6,26.3,5.9,40.9c5.4,23.7,15.1,48,32.1,63.3l-1.3,1.6c-3.2-2.9-6.2-6.1-8.9-9.6
				c0-0.9-0.6-1.6-1.4-1.8c-10.8-14.4-17.7-32.8-22-50.9c0.3-0.3,0.5-0.6,0.8-1l-1.2-0.9c0-0.1-0.1-0.3-0.1-0.4
				c-1.5-6.7-2.7-13.3-3.6-19.6h0c0.5-0.2,0.7-0.9,0.5-1.4C1490.1,574.1,1489.8,573.4,1489.4,572.8z"/>
			<path class="st2" d="M1487.5,573.5l1.1,2.1c0.3,0.5,0.8,0.7,1.3,0.5c0.9,6.3,2.1,13,3.6,19.6l-0.4,0.1h0l-1.6-1.2
				c-0.1,0.1-0.1,0.2-0.2,0.3L1487.5,573.5z"/>
			<path class="st0" d="M1487.5,554.5L1487.5,554.5C1487.5,554.4,1487.5,554.4,1487.5,554.5L1487.5,554.5z"/>
			<path class="st2" d="M1489.1,553.3l-1.6,1.1c-0.1-1.2-0.2-2.3-0.3-3.4C1488.5,552.3,1489.1,553.2,1489.1,553.3z"/>
			<path class="st3" d="M1501.6,490.9c3.1,20.4-10.6,51.5-14.4,59.4c-0.9-15.5-0.4-26-0.4-26s-1.6-32.9,17.2-59.1l2.4,1.8l-0.2,0.3
				C1501.6,474.1,1500.3,482.7,1501.6,490.9z"/>
			<path class="st2" d="M1487.3,551c-0.1-0.1-0.1-0.2-0.2-0.3c0.1-0.1,0.1-0.3,0.2-0.4C1487.2,550.6,1487.3,550.8,1487.3,551z"/>
			<path class="st3" d="M1487.2,550.3c-0.1,0.1-0.1,0.3-0.2,0.4c-0.1-0.1-0.3-0.2-0.4-0.4L1487.2,550.3z"/>
			<path class="st3" d="M1486.9,568.8c0.9,1.2,1.7,2.5,2.5,4c0.1,1.1,0.3,2.1,0.5,3.3c-0.5,0.3-1.1,0-1.3-0.5l-1.1-2.1L1486.9,568.8
				z"/>
			<path class="st3" d="M1487.1,550.7c-0.5,1-0.8,1.5-0.8,1.5c-0.1-0.6-0.2-1.2-0.3-1.9l0.7,0
				C1486.8,550.5,1486.9,550.6,1487.1,550.7z"/>
			<path class="st3" d="M1486.9,524.3c0,0-0.5,10.5,0.4,26l-0.5,0c-0.3-0.3-0.5-0.5-0.8-0.8c-0.3-2.3-0.5-4.8-0.6-7.3v-0.1
				c-0.1-3.7-0.1-7.4,0-11.4v-54.5c0-14.4,8.5-27.5,21.7-33.4l20.9-11.1c4.1-17.9,21.8-25.9,30.5-28.8c2.8-0.9,5.6-1.4,8.5-1.5
				c31.2-0.8,46.3,15.4,53.4,33.3l15.3,8.1c13.2,5.9,21.6,19,21.6,33.4l-2,67.8c0-1.1,0.1-4,0-8.2c0,5.3-0.3,10.4-0.9,15
				c0,0,0,0,0,0c-0.1,0.1-0.2,0.2-0.3,0.3c0.7-15.9,0-26.9,0-26.9s2.6-32.5-13.8-58.7c-11-17.6-30.5-32.3-65.2-32.3
				c-37,0-58.5,14.5-70.9,31.9C1485.2,491.4,1486.9,524.3,1486.9,524.3z"/>
			<path class="st3" d="M1486,550.4c0-0.3-0.1-0.5-0.1-0.8c0.3,0.3,0.5,0.5,0.8,0.8L1486,550.4z"/>
			<path class="st2" d="M1487.3,551c0.1,1.1,0.1,2.2,0.3,3.4l-0.1,0.1c0,0-0.8-1.1-2.1-2.6c0-0.5-0.1-1-0.1-1.4l0.8,0
				c0.1,0.6,0.2,1.3,0.3,1.9c0,0,0.3-0.5,0.8-1.5C1487.1,550.8,1487.2,551,1487.3,551z"/>
			<path class="st2" d="M1487.5,554.5c0.4,5.7,1,11.9,1.9,18.4c-0.8-1.5-1.7-2.9-2.5-4l-1.3-13.5c0,0,0,0,0,0.1l0.1,0.3l0,0
				L1487.5,554.5L1487.5,554.5z"/>
			<path class="st2" d="M1485.3,551.9c1.4,1.4,2.1,2.6,2.1,2.6l-1.7,1.1l0,0l-0.1-0.3c0,0,0,0,0-0.1c0-0.2-0.1-0.4-0.1-0.6
				C1485.4,553.7,1485.3,552.8,1485.3,551.9z"/>
			<path class="st3" d="M1484.6,566.2c0.1,0.1,0.1,0.1,0.2,0.2C1484.7,566.3,1484.6,566.2,1484.6,566.2L1484.6,566.2z"/>
			<path class="st3" d="M1486.9,568.8l0.6,4.7c-1.8-2.9-2.5-3.9-3.8-5.3l0.4-0.3l0.3-0.1c0.5-0.3,0.7-0.9,0.4-1.4
				C1485.5,567.1,1486.2,567.9,1486.9,568.8z"/>
			<path class="st3" d="M1483.1,567.6c-0.3-0.3-0.6-0.6-0.9-0.9c0.7-0.5,1.2-0.8,1.2-0.8c0.3-0.2,0.7-0.1,1,0c0.1,0,0.1,0.1,0.2,0.2
				c0.1,0,0.1,0.1,0.2,0.2c0.3,0.5,0.1,1.1-0.4,1.4l-0.3,0.1l-0.4,0.3C1483.5,568,1483.3,567.8,1483.1,567.6z"/>
			<path class="st3" d="M1479.6,568.8c0.9-0.9,1.9-1.6,2.6-2.1c0,0,0,0,0,0c0.3,0.3,0.6,0.6,0.9,0.9c0.2,0.2,0.4,0.4,0.6,0.6
				l-0.4,0.3c-0.6,0.4-1.5,1-2.3,1.9c-1.7,1.6-3.3,3.9-3.3,6.6c0,1.8,0.7,3.8,2.6,6.2c0.4,0.5,0.3,1.1-0.1,1.5
				c-0.4,0.4-1.1,0.3-1.5-0.1c-2.2-2.6-3.1-5.2-3.1-7.5C1475.7,573.3,1477.7,570.6,1479.6,568.8z"/>
			<path class="st3" d="M1482.2,566.7c-3.7-3.4-7.3-4-9.6-4c-1.4,0-2.4,0.3-2.5,0.3h0c-0.5,0.2-1.1-0.1-1.3-0.6c0-0.1,0-0.2,0-0.3
				c0-0.4,0.3-0.9,0.7-1c0.1,0,1.3-0.4,3.2-0.4c0,0,0.1,0,0.1,0c2.9,0,7.2,1,11.7,5.4c-0.3-0.2-0.7-0.2-1,0
				C1483.4,566,1482.9,566.2,1482.2,566.7C1482.2,566.7,1482.2,566.7,1482.2,566.7z"/>
			<path class="st2" d="M1464.1,561.9c0.1-2.5,0.6-4.9,1.3-6.8c0.9-2.4,2.3-4.2,4.2-5.3c1.7-1,3.3-1.4,4.7-1.4c3,0,5.9,1.7,8.1,3.5
				c1,0.9,1.9,1.9,2.5,2.5c0.3,0.3,0.5,0.6,0.6,0.8l1.3,13.5c-0.7-0.9-1.4-1.7-2.1-2.4c0-0.1-0.1-0.1-0.2-0.2h0
				c-0.1-0.1-0.1-0.1-0.2-0.2c-4.5-4.4-8.8-5.4-11.7-5.4c0,0-0.1,0-0.1,0c-1.9,0-3.1,0.4-3.2,0.4c-0.4,0.1-0.7,0.6-0.7,1
				L1464.1,561.9z"/>
			<path class="st2" d="M1482.2,566.7c-0.7,0.5-1.6,1.2-2.6,2.1c-1.9,1.8-3.9,4.5-3.9,8c0,2.3,0.9,4.9,3.1,7.5
				c0.4,0.4,1,0.5,1.5,0.1c0.4-0.4,0.5-1,0.1-1.5c-2-2.4-2.6-4.4-2.6-6.2c0-2.6,1.6-4.9,3.3-6.6c0.8-0.8,1.7-1.5,2.3-1.9l0.4-0.3
				c1.3,1.5,2,2.4,3.8,5.3l3.8,21.3c-1.8,2.3-3.7,3.1-5.9,3.1c-2.2,0-4.9-1-7.6-3c-2.6-2-5.3-4.9-7.5-8.4
				c-3.5-5.7-6.2-14.8-6.2-22.6c0,0,0-0.1,0-0.1c0-0.6,0-1.3,0.1-1.9l4.5,0.1c0,0.1,0,0.2,0,0.3c0.2,0.5,0.8,0.8,1.3,0.6h0
				c0.2-0.1,1.1-0.3,2.5-0.3C1474.9,562.7,1478.4,563.3,1482.2,566.7z"/>
			<path class="st2" d="M1517.3,716c-0.1,0.4-12.7,25.1-54.8,34.4l-3.3-1.4c43.6-8.7,56.2-33.9,56.2-33.9v-62.5h1
				c0.2,0.3,0.4,0.5,0.7,0.8l0,0c0.1,0.2,0.3,0.5,0.4,0.8v60.9L1517.3,716z"/>
			<path class="st2" d="M1458.8,747c39.3-7.8,52.7-29.2,54.6-32.4v0.5h2c0,0-12.6,25.3-56.2,33.9l-1.9-0.8
				C1457.5,747.6,1458.1,747.1,1458.8,747z"/>
			<path class="st2" d="M1468.6,548c7.2-4.2,13.5,0.6,16.8,3.9c0,0.9,0.1,1.8,0.2,2.7c0,0.2,0,0.4,0.1,0.6c-0.1-0.2-0.4-0.4-0.6-0.8
				c-0.6-0.7-1.5-1.6-2.5-2.5c-2.1-1.9-5-3.6-8.1-3.5c-1.5,0-3,0.4-4.7,1.4c-1.9,1.1-3.2,2.9-4.2,5.3c-0.8,1.9-1.2,4.3-1.3,6.8
				c0,0.6-0.1,1.3-0.1,1.9c0,0,0,0.1,0,0.1c0,7.8,2.7,17,6.2,22.6c2.2,3.5,4.8,6.4,7.5,8.4c2.7,2,5.4,3,7.6,3c2.2,0,4.1-0.8,5.9-3.1
				c0.1,0.4,0.2,0.9,0.3,1.3c0.1,0.4,0.2,0.8,0.3,1.2c-6.4,6.4-16.8,0.9-23.3-9.6C1461.5,576.5,1458.3,554.1,1468.6,548z"/>
			<path class="st2" d="M1485.3,551.9c-3.2-3.3-9.6-8.1-16.8-3.9c-10.3,6.1-7,28.5,0,39.7c6.5,10.5,16.8,16,23.3,9.6
				c0.1,0.8,0.3,1.5,0.5,2.3c-2.1,1.7-4.5,2.5-7,2.5c-3.4,0-6.9-1.5-10-3.8c-3.2-2.4-6.1-5.6-8.5-9.5c-4.1-6.6-6.8-16.2-6.8-25
				c0-3.7,0.5-7.1,1.6-10.2c1.1-3,3.1-5.7,5.9-7.4c2.3-1.3,4.7-1.9,6.8-1.9c4.5,0,8.2,2.4,10.7,4.5c0.3,0.3,0.6,0.5,0.9,0.8
				c0,0.3,0.1,0.5,0.1,0.8l-0.8,0C1485.2,550.9,1485.3,551.4,1485.3,551.9z"/>
			<path class="st0" d="M1457.2,749.4c-0.1-0.4,0-0.8,0.1-1.2l1.9,0.8l3.3,1.4c-0.9,0.2-1.9,0.4-2.9,0.6
				C1458.5,751.2,1457.4,750.5,1457.2,749.4z"/>
		</g>
		<g>
		</g>
	</g>
</g>
<g>
	<g>
		<g id="XMLID_12_">
			<g>
				<path class="st0" d="M1354.2,685.6c6.2,5.2,10.8,12.8,13,21.8c-6.5-4.4-12.4-10.2-17.9-17C1351,688.9,1352.7,687.3,1354.2,685.6
					z"/>
				<path class="st0" d="M1349.3,690.4c-2.8-3.5-5.5-7.3-7.9-11.3c4.7,1,9,3.3,12.8,6.5C1352.7,687.3,1351,688.9,1349.3,690.4z"/>
				<path class="st0" d="M1349.3,690.4c-4.5,4-9.5,7.2-14.9,9.4c0-0.3,0-0.6,0-1c0-7.2-1.5-14.1-4.3-19.9c1.8-0.4,3.5-0.5,5.4-0.5
					c2,0,4,0.2,5.9,0.6C1343.8,683.1,1346.5,686.9,1349.3,690.4z"/>
				<path class="st0" d="M1399.2,717.9c-11.4,0-22.2-3.8-32-10.5c-2.2-9-6.8-16.6-13-21.8c12.1-13.2,19.7-32.4,19.7-53.9
					c0-29.3-14.2-54.5-34.6-65.8c14.7-22.9,37.4-43.1,71-51.4c22.7-5.6,26.8-21.5,18.3-35.7c33.3,8.8,61.9,33.7,61.9,87.3
					C1490.5,636.4,1443.6,717.9,1399.2,717.9z"/>
				<path class="st0" d="M1334.4,699.9c5.4-2.3,10.4-5.4,14.9-9.4c5.4,6.8,11.4,12.6,17.9,17c0.9,3.7,1.4,7.7,1.4,11.8
					c0,22.5-14.8,40.7-33,40.7c-12.4,0-23.2-8.4-28.8-20.8C1322.2,736,1334,719.7,1334.4,699.9z"/>
				<path class="st0" d="M1410.3,514.5c-33.7,8.3-56.3,28.5-71,51.4c-5.7-3.1-11.8-5.2-18.2-6c8.3-52.6,38.2-85.1,75.8-85.1
					c10.6,0,21.4,1.2,31.8,4C1437,493,1433,508.9,1410.3,514.5z"/>
				<path class="st0" d="M1319.9,611.4c3.6-14.6,9.8-30.6,19.4-45.5c20.4,11.2,34.6,36.4,34.6,65.8c0,21.5-7.6,40.7-19.7,53.9
					c-3.8-3.2-8.1-5.5-12.8-6.5C1330.3,660.9,1322.6,637.5,1319.9,611.4z"/>
				<path class="st0" d="M1339.3,565.9c-9.6,14.9-15.8,31-19.4,45.5c-0.8-6.8-1.1-13.8-1.1-20.9c0-10.8,0.8-21,2.3-30.6
					C1327.5,560.7,1333.6,562.8,1339.3,565.9z"/>
				<path class="st0" d="M1315.4,703.8c6.7,0,13.1-1.4,19-3.9c-0.4,19.8-12.3,36.2-27.7,39.2c-2.7-5.9-4.2-12.7-4.2-19.9
					c0-5.9,1-11.4,2.8-16.5C1308.6,703.4,1312,703.8,1315.4,703.8z"/>
				<path class="st0" d="M1330.2,679c2.7,5.9,4.3,12.7,4.3,19.9c0,0.3,0,0.6,0,1c-6,2.6-12.4,3.9-19,3.9c-3.4,0-6.8-0.4-10.1-1.1
					C1309.8,690.3,1319,681.2,1330.2,679z"/>
				<path class="st0" d="M1319.9,611.4c2.7,26,10.4,49.4,21.5,67.6c-1.9-0.4-3.9-0.6-5.9-0.6c-1.8,0-3.6,0.2-5.4,0.5
					c-4.1-9-10.8-15.9-19-19l1-2c2.3,1,4.5,1.5,6.7,1.5C1314.9,654.4,1314,634.8,1319.9,611.4z"/>
				<path class="st0" d="M1272.1,680.1c8.6,11.7,20.2,19.8,33.3,22.6c-1.8,5-2.8,10.6-2.8,16.5c0,7.3,1.5,14.1,4.2,19.9
					c-1.8,0.4-3.5,0.5-5.3,0.5c-18.3,0-33-18.2-33-40.7C1268.3,692.1,1269.7,685.7,1272.1,680.1z"/>
				<path class="st0" d="M1396.8,474.9c-37.6,0-67.5,32.5-75.8,85.1c-1.9-0.2-3.8-0.3-5.7-0.3c-16,0-30.5,7.9-41.1,20.8
					c-3.8-32.7,2.2-68.4,27.1-91.8c58-54.5,112.3-35,127.3-9.8C1418.2,476,1407.4,474.9,1396.8,474.9z"/>
				<path class="st0" d="M1301.4,658.2c-12.8,0-23.8,8.9-29.3,21.9c-9.4-12.8-15.1-29.8-15.1-48.4c0-20.1,6.7-38.2,17.4-51.3
					c4.3,37,21.3,70.2,37.9,77.5l-1,2C1308.1,658.8,1304.8,658.2,1301.4,658.2z"/>
				<path class="st0" d="M1330.2,679c-11.2,2.3-20.4,11.4-24.9,23.7c-13.1-2.8-24.7-11-33.3-22.6c5.5-13,16.6-21.9,29.3-21.9
					c3.4,0,6.7,0.6,9.8,1.8C1319.3,663.1,1326.1,670,1330.2,679z"/>
				<path class="st0" d="M1319.9,611.4c-5.8,23.4-5,43-1,48c-2.2,0-4.5-0.5-6.7-1.5c-16.6-7.3-33.5-40.5-37.9-77.5
					c10.6-12.9,25.1-20.8,41.1-20.8c1.9,0,3.8,0.1,5.7,0.3c-1.5,9.5-2.3,19.8-2.3,30.6C1318.8,597.6,1319.1,604.6,1319.9,611.4z"/>
			</g>
			<g>
			</g>
		</g>
	</g>
	<g>
		<g id="XMLID_11_">
			<g>
				<path class="st3" d="M1596.6,912.6l0,2C1596.5,914,1596.5,913.3,1596.6,912.6C1596.5,912.6,1596.6,912.6,1596.6,912.6z"/>
				<path class="st3" d="M1596.5,912.6c0,0.7,0,1.4,0,2c0,0,0,0,0,0c-0.2,0-0.9,0-2,0c0-0.7,0-1.4,0-2
					C1595.6,912.6,1596.2,912.6,1596.5,912.6z"/>
				<path class="st3" d="M1596.5,914.7h-2v0C1595.6,914.7,1596.3,914.7,1596.5,914.7z"/>
				<path class="st3" d="M1502.3,787.1c0.5-0.1,0.9-0.1,1.4-0.1c0.6,0.4,0.9,1.2,0.7,2c0,0,0,0,0,0.1c-0.6,0-1.2,0-1.8,0.1l-0.1-0.6
					c0,0-1-0.2-2.8-0.7C1501.9,787.1,1502.1,787.1,1502.3,787.1z"/>
				<path class="st3" d="M1502,790.5c0,0-0.8-0.2-2.3-0.5c0.9-0.5,1.9-0.8,2.8-0.9c0.6-0.1,1.2-0.1,1.8-0.1
					C1504.2,790.1,1503.1,790.7,1502,790.5z"/>
				<path class="st3" d="M1497.7,788.8l1.9-1c1.8,0.5,2.8,0.7,2.8,0.7l0.1,0.6c-1,0.1-1.9,0.4-2.8,0.9c-0.8-0.2-1.8-0.4-2.9-0.7
					C1497.2,789.1,1497.5,789,1497.7,788.8z"/>
				<path class="st0" d="M1489.4,627.2c-0.4,0.5-1,0.5-1.4,0.1c-0.4-0.4-0.5-1-0.1-1.4c1.9-2.4,2.6-4.4,2.6-6.2c0-2.4-1.2-4.4-2.6-6
					c-1.4-1.5-3-2.6-3.6-3c0.5-0.5,1-1,1.5-1.5c0.7,0.5,1.8,1.3,3,2.4c1.9,1.8,3.9,4.5,3.9,8.1
					C1492.5,622,1491.6,624.6,1489.4,627.2z"/>
				<path class="st0" d="M1485.7,609.3c-0.5,0.4-1,0.9-1.5,1.5h0l-0.3-0.1c-0.5-0.3-0.7-0.9-0.4-1.4c0.3-0.5,0.9-0.7,1.4-0.4
					C1484.8,608.8,1485.2,608.9,1485.7,609.3z"/>
				<path class="st2" d="M1482.6,593.5l-0.9,0l0,0l0-0.1l-0.1-0.4c0.6-0.6,1.3-1.3,2.1-2c-0.3,1.5-0.6,2.7-0.9,3.6l-0.4-0.3
					C1482.6,594,1482.6,593.7,1482.6,593.5z"/>
				<path class="st4" d="M1483.7,596.8c-0.5,0.5-0.8,1-1,1.3c0-0.4,0.1-0.5,0.1-0.5l-0.4,0c0-0.4,0.1-0.7,0.1-1
					c0-0.1,0.1-0.3,0.2-0.6L1483.7,596.8z"/>
				<path class="st2" d="M1482.9,594.6c-0.1,0.5-0.2,0.9-0.3,1.1l-0.1-0.1c0-0.2,0-0.4,0-0.6L1482.9,594.6z"/>
				<path class="st4" d="M1482.7,598c-0.1,0.1-0.1,0.3-0.2,0.3l-0.1,0.1l-0.1-0.1c0-0.3,0.1-0.6,0.1-0.9l0.4,0
					C1482.7,597.5,1482.7,597.6,1482.7,598z"/>
				<path class="st2" d="M1482.4,594.1l-0.4-0.4l-0.1-0.1l-0.2-0.2l0.9,0c0,0.3,0,0.5-0.1,0.8L1482.4,594.1z"/>
				<path class="st4" d="M1482.9,594.6L1482.9,594.6l-0.4,0.4c0-0.3,0-0.5,0-0.8L1482.9,594.6z"/>
				<path class="st2" d="M1482.4,596.4c0-0.3,0.1-0.5,0.1-0.7l0.1,0.1C1482.5,596.1,1482.4,596.3,1482.4,596.4z"/>
				<path class="st2" d="M1482.4,596.4l-0.3-1l0.3,0.3C1482.5,595.9,1482.4,596.1,1482.4,596.4z"/>
				<path class="st2" d="M1482.2,595.4l0.4-0.4c0,0.2,0,0.4,0,0.6L1482.2,595.4L1482.2,595.4z"/>
				<path class="st4" d="M1482.3,597.4c0,0.3,0,0.6-0.1,0.9l-1.6-1.1L1482.3,597.4z"/>
				<path class="st4" d="M1482.2,595.4l0.3,1c0,0.3,0,0.7-0.1,1l-1.6-0.2C1480.7,597.2,1481.2,596.5,1482.2,595.4z"/>
				<path class="st0" d="M1482.1,593.7l0.4,0.4L1482.1,593.7z"/>
				<path class="st0" d="M1481.8,593.5l0.2,0.2L1481.8,593.5z"/>
				<path class="st2" d="M1482.5,595l-0.4,0.4l-0.5-2h0l0,0l0.2,0.2l0.1,0.1l0.4,0.4l0.1,0.2C1482.6,594.5,1482.6,594.8,1482.5,595z
					"/>
				<polygon class="st2" points="1481.7,593.4 1481.7,593.4 1481.7,593.4 				"/>
				<path class="st4" d="M1482.3,598.4c-0.1,2.5-0.4,5.1-0.6,7.8l-2-0.2c0-0.1,0-0.3,0-0.4c0.6-4.8,1-8.4,1-8.4L1482.3,598.4z"/>
				<path class="st0" d="M1481.6,593l0.1,0.4l-0.2-0.1l0-0.1C1481.5,593.1,1481.5,593,1481.6,593z"/>
				<polygon class="st0" points="1481.5,593.2 1481.7,593.4 1481.7,593.4 				"/>
				<polygon class="st0" points="1481.5,593.1 1481.5,593.2 1481.4,593.2 				"/>
				<path class="st4" d="M1484.4,596c1.1-1.1,2.5-2.4,4.1-3.3c1.6-0.9,3.5-1.6,5.4-1.6c1.5,0,3,0.4,4.8,1.4c1.9,1.1,3.2,2.9,4.1,5.3
					c0.9,2.4,1.4,5.5,1.4,8.8c0,7.9-2.7,17.2-6.3,22.9c-2.2,3.5-4.9,6.4-7.7,8.4c-2.8,2-5.7,3-8,3c-2.2,0-4-0.8-5.7-2.7l0.9-4.3
					l1-5.2l0-0.1v0c0.2-1,0.4-2.2,0.7-3.6v0c0.1-0.6,0.3-1.4,0.4-2.2c0,0,0,0,0-0.1c0.3-1.5,0.5-3.1,0.7-4.7v0
					c0.1-0.8,0.2-1.6,0.3-2.4c1.2-2,2.4-3.5,3.6-4.8h0c0.6,0.4,2.3,1.5,3.6,3c1.4,1.6,2.6,3.6,2.6,6c0,1.8-0.7,3.8-2.6,6.2
					c-0.4,0.4-0.3,1.1,0.1,1.4c0.4,0.4,1.1,0.3,1.4-0.1c2.2-2.6,3.1-5.2,3.1-7.5c0-3.5-2-6.3-3.9-8.1c-1.1-1.1-2.3-1.9-3-2.4
					c3.8-3.2,7.4-3.8,9.8-3.8c0.9,0,1.6,0.1,2,0.2l0.5,0.1l0.1,0h0c0.5,0.1,1.1-0.1,1.3-0.7c0.2-0.5-0.1-1.1-0.7-1.3
					c-0.1,0-1.3-0.4-3.3-0.4c-3.5,0-9.3,1.3-14.4,7.7l0.1-1.2c0.1-1.3,0.3-2.5,0.4-3.6c0.3-2.5,0.6-4.7,0.8-6.3
					c0.1-0.9,0.2-1.5,0.2-2c0.3-0.3,0.6-0.7,1-1.3l-1.1-1c0.1-0.3,0.2-0.7,0.3-1.1l0,0L1484.4,596z"/>
				<path class="st0" d="M1481.1,611.1c5.1-6.4,10.9-7.7,14.4-7.7c2,0,3.3,0.4,3.3,0.4c0.6,0.1,0.9,0.8,0.7,1.3
					c-0.1,0.5-0.7,0.8-1.3,0.7h0l-0.1,0l-0.5-0.1c-0.5-0.1-1.2-0.2-2-0.2c-2.4,0-6,0.6-9.8,3.8c-0.5-0.3-0.8-0.5-0.8-0.5
					c-0.5-0.3-1.1-0.1-1.4,0.4c-0.3,0.5-0.1,1.1,0.4,1.4l0.3,0.1c-1.2,1.3-2.4,2.9-3.6,4.8C1480.9,612.9,1480.9,612.6,1481.1,611.1
					C1481.1,611.1,1481.1,611.1,1481.1,611.1z"/>
				<path class="st0" d="M1481.7,593.4l0.5,2l-1.5-1.3c0,0,0,0-0.1,0.1c0-0.1,0-0.2,0-0.3c0-0.1,0-0.3,0-0.5L1481.7,593.4z"/>
				<path class="st2" d="M1480.5,594.1c0-0.1,0-0.2,0-0.3C1480.6,593.9,1480.6,594,1480.5,594.1z"/>
				<path class="st0" d="M1480.2,594.5c0.1-0.1,0.3-0.3,0.4-0.4c0,0,0,0.1,0,0.1c0,0.3,0,0.5-0.1,0.8
					C1480.4,594.9,1480.4,594.7,1480.2,594.5z"/>
				<path class="st0" d="M1480.2,594.5c-0.1-0.3-0.5-0.7-0.8-1.3l1.3,0.1c0,0.2,0,0.3,0,0.5c0,0.1,0,0.2,0,0.3
					C1480.4,594.3,1480.3,594.4,1480.2,594.5z"/>
				<path class="st0" d="M1480.6,594.1l1.5,1.3v0c-0.9,1-1.5,1.8-1.5,1.8s-0.4,3.6-1,8.4c0.4-4,0.6-7.8,0.9-11.4
					C1480.5,594.2,1480.5,594.2,1480.6,594.1C1480.6,594.1,1480.6,594.1,1480.6,594.1z"/>
				<path class="st0" d="M1479.5,622.7C1479.5,622.7,1479.5,622.7,1479.5,622.7l-1.7-0.3L1479.5,622.7z"/>
				<path class="st4" d="M1482.4,598.4l0.1-0.1c0.1-0.1,0.1-0.2,0.2-0.3c0,0.4-0.1,1.1-0.2,2c-0.2,1.6-0.4,3.8-0.8,6.3
					c-0.1,1.2-0.3,2.4-0.4,3.6l-0.1,1.2c0,0,0,0,0,0c-0.9,1-1.7,2.3-2.5,3.6c0.1-1.3,0.3-2.5,0.4-3.7c0.1-0.5,0.1-0.9,0.2-1.4
					c0.1-1.3,0.3-2.5,0.4-3.6l2,0.2c0.3-2.7,0.5-5.3,0.6-7.8L1482.4,598.4z"/>
				<path class="st2" d="M1479.2,609.6c0,0.5-0.1,0.9-0.2,1.4C1479.1,610.5,1479.2,610.1,1479.2,609.6z"/>
				<path class="st4" d="M1478.6,614.7c0.8-1.4,1.6-2.6,2.5-3.6c-0.2,1.5-0.2,1.8-0.6,4.5c-0.5,0.8-0.9,1.6-1.4,2.4l-0.1,0.1
					l-0.2,0.4c-0.2,0.4-0.5,0.6-0.9,0.6c0.1-0.5,0.2-1.1,0.3-1.6C1478.4,616.6,1478.5,615.6,1478.6,614.7z"/>
				<path class="st2" d="M1478.5,614.8c0.2-1.3,0.4-2.6,0.5-3.8c-0.1,1.2-0.3,2.5-0.4,3.7C1478.5,614.7,1478.5,614.8,1478.5,614.8z"
					/>
				<path class="st3" d="M1475.1,782.8c8.7,3,16.8,5.3,21.9,6.5c-13.6,8.4-51.3,28.5-99.5,28.5c-28.9,0-61.5-7.2-95.2-28.6
					c7.8-1.7,14.8-3.9,20.9-6.3c2.6,1.4,31,16.8,74,16.9C1419.7,799.8,1446.2,795.5,1475.1,782.8z"/>
				<path class="st4" d="M1479.5,622.8c-0.1,0.9-0.3,1.6-0.4,2.2v0c-0.3,1.4-0.5,2.6-0.7,3.6v-0.2v0c0.2-1.1,0.5-2.3,0.7-3.4l-2-0.4
					c0.1-0.7,0.3-1.5,0.4-2.3l0.3,0L1479.5,622.8z"/>
				<path class="st4" d="M1479.1,625c-0.2,1.1-0.5,2.3-0.7,3.4h-2c0.2-0.9,0.4-2,0.6-3.2c0-0.2,0.1-0.4,0.1-0.5L1479.1,625z"/>
				<path class="st0" d="M1478.3,628.8c0-0.1,0-0.3,0.1-0.4v0.2v0L1478.3,628.8L1478.3,628.8z"/>
				<path class="st4" d="M1478.4,628.4c0,0.1,0,0.3-0.1,0.4l-2-0.4L1478.4,628.4L1478.4,628.4z"/>
				<path class="st4" d="M1479.4,593.3c0.4,0.5,0.7,1,0.8,1.3c-0.7,0.9-1.1,1.5-1.2,1.5l-0.3,0.4l-0.1,0.5c0,0-0.3,2.9-0.8,6.9
					c0.3-3.7,0.6-7.3,0.8-10.7L1479.4,593.3z"/>
				<path class="st2" d="M1478.2,617.7c0.1-0.9,0.3-1.9,0.4-2.9c0,0,0-0.1,0.1-0.1c-0.1,0.9-0.3,1.9-0.4,2.8L1478.2,617.7z"/>
				<path class="st2" d="M1478.2,617.5c-0.1,0.5-0.2,1.1-0.3,1.6h0c0.1-0.5,0.1-1,0.2-1.5L1478.2,617.5z"/>
				<path class="st2" d="M1478,619.1c0,0.3-0.1,0.6-0.2,0.9C1477.8,619.7,1477.9,619.5,1478,619.1L1478,619.1z"/>
				<path class="st4" d="M1480.2,618c-0.3,1.6-0.5,3.2-0.7,4.7l-1.7-0.3l-0.3,0c0.1-0.8,0.3-1.5,0.4-2.3c0,0,0,0,0,0
					c0.1-0.3,0.1-0.6,0.2-0.9c0.4,0,0.7-0.2,0.9-0.6l0.2-0.4l0.1-0.1c0.4-0.9,0.9-1.7,1.4-2.4C1480.4,616.4,1480.3,617.2,1480.2,618
					L1480.2,618z"/>
				<path class="st4" d="M1479.7,605.6c0,0.1,0,0.3,0,0.4l-2-0.2c0-0.5,0.1-1,0.1-1.5c0-0.1,0-0.3,0-0.4c0.5-4,0.8-6.9,0.8-6.9
					l0.1-0.5l0.3-0.4c0,0,0.5-0.6,1.2-1.5c0.2,0.2,0.3,0.4,0.3,0.5c0-0.3,0.1-0.5,0.1-0.8C1480.3,597.8,1480,601.7,1479.7,605.6z"/>
				<path class="st4" d="M1478.2,617.7c-0.1,0.5-0.1,1-0.2,1.5c-0.2,0-0.3,0-0.5-0.1c-0.5-0.3-0.7-0.9-0.5-1.4l0-0.1h0l0.4,0.1
					L1478.2,617.7z"/>
				<path class="st0" d="M1477.1,617.5l0.4,0.1L1477.1,617.5z"/>
				<path class="st4" d="M1478.5,614.8c-0.1,1-0.3,1.9-0.4,2.9l-0.6-0.1l-0.4-0.1l0.1-0.3l0.1-0.1
					C1477.7,616.3,1478.1,615.5,1478.5,614.8z"/>
				<path class="st3" d="M1496.9,789.3c-5-1.3-13.1-3.5-21.9-6.5c0,0,0.1,0,0.1,0c0.7-0.3,1.1-1,1.2-1.7c9.9,3.4,18.9,5.7,23.3,6.8
					l-1.9,1C1497.5,789,1497.2,789.1,1496.9,789.3z"/>
				<path class="st4" d="M1477.7,605.8l2,0.2c-0.1,1.2-0.3,2.4-0.4,3.6c-0.1,0.4-0.1,0.9-0.2,1.4c-0.1,1.3-0.3,2.5-0.5,3.8
					c-0.5,0.7-0.9,1.5-1.3,2.3l-0.1,0.1l-0.1,0.3h0l-0.5-0.1l-0.4-0.1c0.4-2.7,0.8-5.4,1.1-8
					C1477.3,608.1,1477.5,606.9,1477.7,605.8c0-0.6,0.1-1,0.1-1.5C1477.8,604.8,1477.7,605.3,1477.7,605.8z"/>
				<path class="st0" d="M1477,617.5l-0.5-0.1L1477,617.5z"/>
				<polygon class="st0" points="1477,624.6 1476.5,624.6 1476.9,624.6 				"/>
				<polygon class="st0" points="1476.9,624.6 1476.5,624.6 1476,624.5 				"/>
				<path class="st4" d="M1478.3,628.8L1478.3,628.8l-1,5.2l-0.9,4.3c0,0-0.1-0.1-0.1-0.1c0.4-1.4,0.7-2.8,1-4.1l-2-0.4l1-5.2v0
					L1478.3,628.8z"/>
				<path class="st4" d="M1488.5,592.7c-1.6,1-3.1,2.2-4.1,3.3l-1.5-1.4c3.2-3.3,9.6-8.1,16.8-3.9c10.3,6.1,7,28.6,0,39.8
					c-6.5,10.4-17.4,16-24,9.9c0.1-0.4,0.3-0.9,0.3-1.3l0.2,0l0.2-1c1.7,1.9,3.5,2.6,5.7,2.7c2.4,0,5.3-1,8-3c2.8-2,5.5-4.9,7.7-8.4
					c3.6-5.7,6.3-15,6.3-22.9c0-3.3-0.5-6.3-1.4-8.8c-0.9-2.4-2.3-4.2-4.1-5.3c-1.7-1-3.3-1.4-4.8-1.4
					C1492,591.1,1490.2,591.8,1488.5,592.7z"/>
				<path class="st0" d="M1477,625.2c-0.2,1.2-0.4,2.3-0.6,3.2C1476.6,627.3,1476.8,626.3,1477,625.2z"/>
				<polygon class="st0" points="1476.1,617.4 1476.5,617.5 1476.1,617.4 				"/>
				<path class="st4" d="M1477,625.2c-0.2,1.1-0.4,2.1-0.6,3.2l-2-0.4c0.1-0.3,0.1-0.6,0.1-0.8c0.1-0.4,0.1-0.7,0.2-1
					c0.1-0.6,0.2-1.2,0.3-1.8l1.4,0.2l0.6,0.1h0C1477,624.8,1477,625,1477,625.2z"/>
				<polygon class="st4" points="1476.5,624.6 1475.1,624.4 1475.1,624.3 1476,624.5 				"/>
				<path class="st4" d="M1477.8,620.1c-0.1,0.8-0.2,1.5-0.4,2.3c-0.1,0.8-0.3,1.5-0.4,2.3h0l-0.1,0l-0.9-0.1l-1-0.2
					c0.1-0.8,0.3-1.5,0.4-2.1v0v0c0.3-1.5,0.5-3,0.7-4.6l0.4,0l0.5,0.1l0,0.1c-0.3,0.5,0,1.1,0.5,1.4c0.1,0.1,0.3,0.1,0.5,0.1
					C1477.9,619.5,1477.8,619.7,1477.8,620.1C1477.8,620.1,1477.8,620.1,1477.8,620.1z"/>
				<path class="st4" d="M1476,639.2c0.1-0.4,0.2-0.7,0.3-1.1c0,0,0.1,0.1,0.1,0.1l-0.2,1L1476,639.2z"/>
				<path class="st4" d="M1499.7,590.7c-7.2-4.3-13.6,0.5-16.8,3.9c0.3-0.9,0.5-2.1,0.9-3.6c0.8-0.6,1.7-1.3,2.7-1.9
					c2.1-1.2,4.6-2.1,7.4-2.1c2.2,0,4.5,0.6,6.8,2c2.8,1.6,4.8,4.3,5.9,7.4c1.2,3.1,1.6,6.6,1.7,10.2c0,8.8-2.8,18.5-6.9,25.1
					c-2.5,3.9-5.5,7.2-8.8,9.6c-3.3,2.4-6.9,3.8-10.4,3.8c-2.5,0-4.9-0.8-7-2.4c0.3-0.8,0.4-1.5,0.6-2.2c6.5,6.1,17.5,0.5,24-9.9
					C1506.7,619.3,1510,596.8,1499.7,590.7z"/>
				<path class="st4" d="M1476.3,638.1c-0.1,0.4-0.1,0.7-0.3,1.1l-1.8-0.4l1.6-1.2C1476,637.8,1476.2,638,1476.3,638.1z"/>
				<path class="st0" d="M1476,624.5l-0.9-0.1v0h0c0,0,0,0,0-0.1L1476,624.5z"/>
				<path class="st4" d="M1474.3,638.8l1.8,0.4c-0.1,0.4-0.2,0.8-0.3,1.3C1475.2,640,1474.7,639.4,1474.3,638.8z"/>
				<path class="st0" d="M1475.1,624.4c-0.1,0.6-0.2,1.2-0.3,1.8C1474.8,625.6,1474.9,625,1475.1,624.4L1475.1,624.4z"/>
				<path class="st4" d="M1475.9,637.6l-1.6,1.2l1.1-5.2l2,0.4c-0.3,1.4-0.6,2.7-1,4.1C1476.2,638,1476,637.8,1475.9,637.6z"/>
				<path class="st3" d="M1476.4,781c0,0.7-0.5,1.4-1.2,1.7c0,0-0.1,0-0.1,0c-0.4-0.1-0.8-0.3-1.3-0.4c-0.5-0.2-1.1-0.4-1.6-0.6
					c0.7-0.3,1.4-0.6,2.1-0.9l0.1-0.4C1475.1,780.6,1475.8,780.8,1476.4,781z"/>
				<path class="st3" d="M1476.2,780c0.1,0.4,0.2,0.7,0.1,1c-0.6-0.2-1.2-0.4-1.9-0.6c-0.8-0.3-1.6-0.6-2.4-0.9
					c0.5-0.2,0.9-0.4,1.4-0.6C1474.6,778.5,1475.8,779,1476.2,780z"/>
				<path class="st4" d="M1475.1,642.7c-0.6-0.4-1.1-0.9-1.6-1.5c0.7-2.5,1.3-5,1.8-7.5l-1.1,5.2c0.5,0.6,0.9,1.2,1.5,1.6
					C1475.6,641.2,1475.4,641.9,1475.1,642.7z"/>
				<path class="st4" d="M1475.3,633.6c-0.5,2.5-1.1,5-1.8,7.5c-0.3-0.4-0.6-0.7-0.9-1.1l-0.5-0.7l1.1-5.2c0.1-0.3,0.1-0.6,0.2-0.9
					L1475.3,633.6z"/>
				<path class="st4" d="M1476.4,628.4L1476.4,628.4l-1,5.2l-2-0.4c-0.1,0.3-0.1,0.6-0.2,0.9l0.2-0.9l1-5l0-0.2
					c0.1-0.3,0.1-0.5,0.2-0.8c0,0.3-0.1,0.5-0.1,0.8L1476.4,628.4z"/>
				<path class="st3" d="M1472.2,781.8c-0.9-0.3-1.9-0.7-2.8-1c0.9-0.4,1.8-0.8,2.8-1.2c0.8,0.3,1.6,0.6,2.4,0.9l-0.1,0.4
					C1473.6,781.2,1472.9,781.5,1472.2,781.8z"/>
				<path class="st4" d="M1473.5,641.1c-6,23-16.6,45.5-35.2,58.8h0c-0.4-0.5-0.9-0.9-1.6-0.9c-0.3,0-0.5,0-0.7,0.1
					c20.5-13.9,31.5-39.7,37.2-65.1l-1.1,5.2l0.5,0.7C1472.9,640.4,1473.2,640.8,1473.5,641.1z"/>
				<path class="st4" d="M1438.3,699.9c18.6-13.3,29.2-35.8,35.2-58.8c0.5,0.6,1.1,1.1,1.6,1.5c-2.8,10.3-6.4,20.6-11.4,30
					c-5.8,11-13.4,20.9-25.1,29.5v-1v0C1438.7,700.7,1438.5,700.3,1438.3,699.9z"/>
				<path class="st0" d="M1438.7,754.5v0.3h-2l2-0.4C1438.6,754.4,1438.7,754.5,1438.7,754.5z"/>
				<path class="st4" d="M1436.6,754.8v-39.5c0-0.2,0.1-0.4,0.1-0.5c0.6,0,1.1-0.3,1.4-0.8c0.3,0.4,0.5,0.8,0.5,1.3v39.2
					c0,0,0-0.1,0-0.1L1436.6,754.8z"/>
				<path class="st4" d="M1472.1,779.5c-16.2-5.9-33.3-14.4-35.5-24.7h2v-0.3c0.5,2.1,1.8,4.4,4,6.6c2.1,2.3,5.1,4.5,8.5,6.5
					c6.9,4.2,15.6,7.9,24,10.8c10.9,3.8,21.1,6.4,25.5,7.5c1.5,0.4,2.3,0.5,2.3,0.5c0.3,0.1,0.6,0.2,0.9,0.5c-0.5,0-1,0-1.4,0.1
					c-0.2,0-0.4,0.1-2.7,0.8c-4.4-1-13.4-3.4-23.3-6.8c0.1-0.3,0-0.7-0.1-1c-0.4-1-1.6-1.5-2.7-1
					C1473.1,779.2,1472.6,779.4,1472.1,779.5z"/>
				<path class="st4" d="M1437.7,702.8c-0.4,0.3-0.8,0.5-1.1,0.7v-2.4c0.6-0.4,1.1-0.8,1.6-1.2h0c0.2,0.3,0.4,0.8,0.4,1.2v0v1
					C1438.3,702.4,1438.1,702.6,1437.7,702.8z"/>
				<path class="st3" d="M1436.6,712.7v-9.2c0.4-0.2,0.8-0.5,1.1-0.7c0.3-0.2,0.6-0.4,0.9-0.7v10.6c0,0.5-0.2,1-0.5,1.3
					c-0.3-0.4-0.8-0.7-1.4-0.8L1436.6,712.7z"/>
				<path class="st3" d="M1436.8,713.3c0.6,0,1.1,0.3,1.4,0.8c-0.4,0.4-0.9,0.7-1.4,0.8c0.1-0.2,0.1-0.4,0.2-0.6L1436.8,713.3z"/>
				<path class="st3" d="M1436.6,714.8v-1.5c0,0,0.1,0,0.1,0l0.2,0.9c-0.1,0.2-0.1,0.4-0.2,0.6
					C1436.7,714.8,1436.7,714.8,1436.6,714.8z"/>
				<path class="st0" d="M1436.8,714.8c0,0.2-0.1,0.4-0.1,0.5v-0.5C1436.7,714.8,1436.7,714.8,1436.8,714.8z"/>
				<path class="st0" d="M1436.8,713.3c0,0-0.1,0-0.1,0v-0.6L1436.8,713.3z"/>
				<path class="st4" d="M1469.4,780.7c-11.4-4.3-23-9.8-29.7-16.8c-2.5-2.6-4.4-5.5-5-8.7l0-0.4v-33.9c0.8-1.7,1.5-3.5,2-5.5v39.5
					c2.2,10.3,19.3,18.8,35.5,24.7C1471.2,780,1470.3,780.4,1469.4,780.7z"/>
				<path class="st3" d="M1436.6,703.5v9.2l-1.8-8.1C1435.4,704.3,1436.1,703.9,1436.6,703.5z"/>
				<path class="st4" d="M1434.6,703.9v-1.5c0.7-0.4,1.4-0.9,2-1.3v2.4c-0.6,0.4-1.2,0.8-1.8,1.1L1434.6,703.9
					C1434.7,703.9,1434.6,703.9,1434.6,703.9z"/>
				<path class="st3" d="M1434.6,712.7v-7.9c0.1,0,0.2-0.1,0.3-0.1l1.8,8.1v0.6c-0.6,0-1.2,0.3-1.6,0.8
					C1434.8,713.7,1434.6,713.2,1434.6,712.7z"/>
				<path class="st3" d="M1436.6,714.8c-0.6,0-1.2-0.3-1.6-0.8c0.4-0.5,0.9-0.8,1.6-0.8V714.8z"/>
				<path class="st4" d="M1435.8,699.2c-0.1,0.1-0.2,0.2-0.3,0.3c-0.1,0.1-0.3,0.2-0.4,0.3C1435.3,699.5,1435.6,699.4,1435.8,699.2z
					"/>
				<path class="st3" d="M1434.6,720.9v-5.5c0-0.5,0.2-0.9,0.5-1.3c0.4,0.5,0.9,0.8,1.6,0.8v0.5
					C1436.1,717.4,1435.4,719.2,1434.6,720.9z"/>
				<path class="st4" d="M1434.7,703.9l0.2,0.8c-0.1,0.1-0.2,0.1-0.3,0.1L1434.7,703.9C1434.6,703.9,1434.7,703.9,1434.7,703.9z"/>
				<path class="st4" d="M1436.6,701.2c-0.7,0.4-1.4,0.9-2,1.3v-1.3v0c0-0.5,0.2-1,0.5-1.4c0.1-0.1,0.3-0.1,0.4-0.3
					c0.1-0.1,0.2-0.1,0.3-0.3c0,0,0,0,0.1,0c0.2-0.1,0.5-0.1,0.7-0.1c0.7,0,1.3,0.3,1.6,0.9C1437.7,700.4,1437.2,700.8,1436.6,701.2
					z"/>
				<path class="st4" d="M1360.7,699.4c10.1,6.7,22.4,10.8,37.6,10.8c7.5,0,14.4-1,20.6-2.9c5.7-1.7,10.8-4.1,16.3-7.6
					c-0.3,0.4-0.5,0.9-0.5,1.4v0v1.3c-9.9,6.2-21.9,9.8-36.4,9.8c-14.6,0-26.7-3.6-36.8-9.9V701
					C1361.5,700.4,1361.2,699.8,1360.7,699.4z"/>
				<path class="st4" d="M1434.6,703.9c-1.5,1-29.7,19.7-73.1,0.7v-2.3c10.1,6.2,22.2,9.9,36.8,9.9c14.5,0,26.5-3.6,36.4-9.8V703.9z
					"/>
				<path class="st4" d="M1361.5,704.6c43.5,19,71.6,0.4,73.1-0.7v0.9c-10,5.9-22.1,9.4-36.4,9.4
					C1383.8,714.2,1371.6,710.7,1361.5,704.6L1361.5,704.6z"/>
				<path class="st3" d="M1408.3,737.5c-26.4,1.9-41.9-21.4-46.8-30.2v-2.5c10.2,6,22.4,9.5,36.8,9.5c14.3,0,26.3-3.5,36.4-9.4v7.9
					c0,0.5,0.2,1,0.5,1.3c-0.3,0.4-0.5,0.8-0.5,1.3v5.5C1426.7,737.3,1408.3,737.5,1408.3,737.5z"/>
				<path class="st0" d="M1361.5,704.6L1361.5,704.6c-0.1,0-0.3-0.1-0.4-0.2C1361.2,704.5,1361.3,704.6,1361.5,704.6z"/>
				<path class="st4" d="M1361.5,702.3v2.3c-0.1,0-0.3-0.1-0.4-0.2c-0.5-0.3-1.1-0.6-1.6-1V701
					C1360.1,701.5,1360.8,701.9,1361.5,702.3z"/>
				<path class="st4" d="M1359.4,701c-0.6-0.4-1.1-0.8-1.6-1.2c0.4-0.5,0.9-0.9,1.6-0.9c0.4,0,0.8,0.1,1,0.3c0.1,0,0.1,0.1,0.2,0.2
					c0.5,0.4,0.8,0.9,0.8,1.6v1.3C1360.8,701.9,1360.1,701.5,1359.4,701z"/>
				<path class="st3" d="M1361.5,704.7v2.5c-1.1-2.1-1.7-3.4-1.7-3.4c0.4,0.2,0.9,0.4,1.3,0.6
					C1361.2,704.5,1361.3,704.6,1361.5,704.7z"/>
				<path class="st0" d="M1359.4,754.8h-2v-0.6c0.2-0.3,0.3-0.4,0.3-0.5v0L1359.4,754.8z"/>
				<path class="st4" d="M1357.8,699.8c0.5,0.4,1.1,0.8,1.6,1.2v2.4c-0.4-0.3-0.8-0.5-1.1-0.8c-0.3-0.2-0.6-0.4-0.9-0.6v-1
					C1357.4,700.6,1357.5,700.2,1357.8,699.8z"/>
				<path class="st4" d="M1358.3,702.7c0.4,0.3,0.8,0.5,1.1,0.8v51.4l-1.7-1.1v0c0,0.1-0.1,0.2-0.3,0.5V702
					C1357.7,702.3,1357.9,702.5,1358.3,702.7z"/>
				<path class="st4" d="M1361.5,707.2c4.9,8.8,20.5,32.1,46.8,30.2c0,0,18.5-0.2,26.3-16.6v33.9l0,0.4c0.7,3.2,2.5,6.1,5,8.7
					c6.7,6.9,18.3,12.5,29.7,16.8c-26.8,11.2-51.3,15-72.3,15c-22,0-40.1-4.1-52.6-8.3c-6.3-2.1-11.2-4.1-14.5-5.7
					c-0.8-0.3-1.4-0.6-2-0.9c14.3-7.4,20.3-11.8,24.5-15.6c5.9-5.2,8.5-9.1,8.6-9.2c0.2-0.3,0.3-0.8,0.3-1.1V707.2z"/>
				<path class="st3" d="M1344.5,787.5c12.6,4.1,30.7,8.3,52.6,8.3c21,0,45.5-3.8,72.3-15c0.9,0.4,1.9,0.7,2.8,1
					c-76.6,33-136.2,5.5-146.6,0.1l2.4-1.1c0.6,0.3,1.2,0.6,2,0.9C1333.3,783.3,1338.2,785.4,1344.5,787.5z"/>
				<path class="st4" d="M1325.7,779.7c24.2-10.6,33.7-24.8,33.7-24.8v-51.4c0.5,0.4,1.1,0.7,1.6,1c-0.4-0.2-0.9-0.4-1.3-0.6
					c0,0,0.6,1.3,1.7,3.4v47.6c0,0.4-0.1,0.8-0.3,1.1c-0.1,0.1-2.7,4-8.6,9.2c-4.3,3.8-10.2,8.3-24.5,15.6c-0.8-0.4-1.3-0.7-1.8-0.9
					C1326,779.8,1325.8,779.7,1325.7,779.7z"/>
				<path class="st4" d="M1313.4,591c3.5-4.9,12.9-19.3,17.1-38.1h131.7c4,21.4,13.8,35.6,17.2,40.3l-0.8,0
					c-0.2,3.4-0.5,6.9-0.8,10.7c0,0.1,0,0.3,0,0.4c-0.1,0.5-0.1,0.9-0.2,1.4c-0.1,1.1-0.3,2.4-0.4,3.6c-0.3,2.6-0.7,5.3-1.1,8v0
					c-0.3,1.6-0.5,3.2-0.7,4.6v0v0c-0.1,0.7-0.3,1.4-0.4,2.1c0,0,0,0,0,0.1c-0.1,0.6-0.2,1.2-0.3,1.8c-0.1,0.3-0.1,0.7-0.2,1
					c-0.1,0.3-0.1,0.6-0.2,0.8l0,0.2l-1,5l-0.2,0.9c-5.7,25.5-16.7,51.2-37.2,65.1c0,0-0.1,0-0.1,0c-0.3,0.1-0.5,0.3-0.8,0.5
					c-5.5,3.5-10.6,5.9-16.3,7.6c-6.2,1.9-13,2.9-20.6,2.9c-15.2,0-27.5-4-37.6-10.8c-0.1-0.1-0.1-0.1-0.2-0.2
					c-8.5-5.8-15.3-13.2-20.9-21.7c-5.7-8.6-10.1-18.4-13.4-28.5c-6.8-20.2-9.6-41.8-10.7-58.2L1313.4,591z"/>
				<path class="st3" d="M1325.6,781.9c10.4,5.4,70,32.8,146.6-0.1c0.5,0.2,1.1,0.4,1.6,0.6c0.4,0.1,0.8,0.3,1.3,0.4
					c-28.9,12.8-55.4,17.1-78,17.1c-43,0-71.4-15.5-74-16.9c0.5-0.2,0.9-0.4,1.4-0.6C1324.9,782.2,1325.2,782.1,1325.6,781.9z"/>
				<path class="st3" d="M1326.2,779.9c0.5,0.3,1,0.6,1.8,0.9l-2.4,1.1c-1.1-0.6-1.6-0.9-1.6-0.9l-0.2-0.5c0.7-0.3,1.3-0.6,2-0.8
					C1325.8,779.7,1326,779.8,1326.2,779.9z"/>
				<path class="st3" d="M1324.5,782.4c-0.5,0.2-0.9,0.4-1.4,0.6c-0.1-0.1-0.2-0.1-0.2-0.1c-0.6-0.4-1-1-1-1.6
					c0.6-0.2,1.2-0.5,1.8-0.7l0.2,0.5c0,0,0.6,0.3,1.6,0.9C1325.2,782.1,1324.9,782.2,1324.5,782.4z"/>
				<path class="st3" d="M1325.3,779.4c0.1,0.1,0.3,0.1,0.4,0.3c-0.6,0.3-1.3,0.5-2,0.8c-0.6,0.3-1.2,0.5-1.8,0.7
					c0-0.4,0-0.8,0.3-1.2c0.6-1,1.8-1.3,2.8-0.7L1325.3,779.4z"/>
				<path class="st3" d="M1323.1,782.9c-6.1,2.4-13.1,4.6-20.9,6.3c-0.8-0.5-1.6-1-2.5-1.6c8.4-1.7,15.7-3.9,22.1-6.5
					c0,0.6,0.4,1.3,1,1.6C1322.9,782.8,1323,782.8,1323.1,782.9z"/>
				<path class="st0" d="M1401.4,475.6c86.6,0,79.4,88.2,79.4,88.2s0.7,10.4,0.1,25.6v0.1c0,1.3-0.1,2.6-0.2,3.8l-1.3-0.1
					c-3.4-4.8-13.2-18.9-17.2-40.3h-131.7c-4.2,18.7-13.6,33.2-17.1,38.1c-1.1-16.1-0.5-27.2-0.5-27.2S1308.4,475.6,1401.4,475.6z"
					/>
				<path class="st4" d="M1357.8,699.8c-33.3-23.7-42.2-76.4-44.3-108.8l2-0.1c1.1,16.4,3.9,37.9,10.7,58.2
					c3.4,10.1,7.8,19.9,13.4,28.5c5.5,8.5,12.3,15.9,20.9,21.7c-0.3-0.2-0.6-0.3-1-0.3C1358.7,699,1358.1,699.3,1357.8,699.8z"/>
				<path class="st4" d="M1322.3,650.3c-6.4-19-9.3-39-10.6-55c0.2,0.7,0.3,1.1,0.3,1.1l0.4-4c0.2-0.3,0.6-0.8,1-1.4
					c2.2,32.4,11,85.1,44.3,108.8c-0.3,0.4-0.4,0.8-0.4,1.2v1C1340,690.1,1329.2,670.7,1322.3,650.3z"/>
				<path class="st0" d="M1311.4,591.2l2-0.1c-0.4,0.6-0.8,1.1-1,1.4l-0.4,4c0,0-0.1-0.4-0.3-1.1
					C1311.6,593.9,1311.5,592.5,1311.4,591.2z"/>
				<path class="st2" d="M1483.8,591c-0.8,0.7-1.5,1.4-2.1,2l-0.8-3.5v-0.1c0.6-15.3-0.1-25.6-0.1-25.6s7.2-88.2-79.4-88.2
					c-93,0-88.5,88.2-88.5,88.2s-0.6,11.1,0.5,27.2l-2,0.1c0.1,1.4,0.2,2.7,0.3,4.1c-3-10.6-24.3-94.3,41-127
					c15.8-7.9,30.5-10.7,44-10.2c13.5-0.5,28.3,2.3,44,10.2C1500.4,498.1,1488.5,570.7,1483.8,591z"/>
				<path class="st3" d="M1498.8,790.5c-20.9,13.1-106.9,59.3-199.4-0.7c1-0.2,1.9-0.4,2.9-0.6c33.7,21.4,66.3,28.5,95.2,28.6
					c48.2,0,85.9-20.2,99.5-28.5c1.1,0.3,2.1,0.5,2.9,0.7C1499.5,790.1,1499.1,790.3,1498.8,790.5z"/>
				<path class="st3" d="M1302.2,789.2c-0.9,0.2-1.9,0.4-2.9,0.6c-0.3-0.2-0.7-0.4-1-0.6l1-1.5c0.1,0,0.3,0,0.4-0.1
					C1300.6,788.2,1301.4,788.7,1302.2,789.2z"/>
				<path class="st3" d="M1299.4,787.7l0.1-0.2c0.1,0,0.2,0.1,0.3,0.1C1299.6,787.7,1299.5,787.7,1299.4,787.7z"/>
				<path class="st3" d="M1299.5,787.5l-0.1,0.2c0,0,0,0-0.1,0L1299.5,787.5C1299.5,787.5,1299.5,787.5,1299.5,787.5z"/>
				<path class="st3" d="M1299.4,787.7l-1,1.5L1299.4,787.7C1299.3,787.7,1299.4,787.7,1299.4,787.7z"/>
				<path class="st3" d="M1299.3,787.7l-0.9,1.5c-0.7-0.5-1.4-0.8-2.2-0.9C1297.2,788.2,1298.3,788,1299.3,787.7z"/>
				<path class="st3" d="M1296.6,786.3c1,0.1,2,0.6,2.9,1.1l-0.2,0.3c-1,0.2-2.1,0.4-3.1,0.6L1296.6,786.3z"/>
				<path class="st3" d="M1299.4,789.8c92.5,59.9,178.5,13.8,199.4,0.7c0.3-0.2,0.7-0.4,1-0.5c1.4,0.3,2.3,0.5,2.3,0.5
					c1.1,0.3,2.1-0.4,2.4-1.5c1.6,0,3.3,0.5,4.7,1.4c19.8,11.5,86,55,87.3,122.2c-0.3,0-0.9,0-2,0c-0.6-32.6-16.9-59.5-35.6-80
					c-9.6-10.4-19.8-19.1-28.8-25.9c-9-6.8-17-11.7-21.9-14.6c-1.3-0.7-2.7-1.1-4.1-1.1c-0.4,0-0.8,0-1.1,0.1c-1,0.1-2.1,0.5-3,1.1
					h0c-13.3,8.3-52.1,29.6-102.4,29.6c-15.2,0-31.4-2-48.2-6.8c-16.8-4.8-34.3-12.6-52-24.2c-0.4-0.3-0.7-0.4-1.1-0.5h0.1l0.4,0
					C1297.5,790.2,1298.4,790,1299.4,789.8z"/>
				<path class="st4" d="M1359.4,754.8c0,0-9.5,14.2-33.7,24.8c-0.2-0.1-0.3-0.2-0.4-0.3l-0.3-0.1c-1-0.6-2.3-0.3-2.8,0.7
					c-0.2,0.4-0.3,0.8-0.3,1.2c-6.4,2.5-13.8,4.8-22.1,6.5c-0.1,0-0.2-0.1-0.3-0.1c0,0,0,0,0,0c-0.9-0.6-1.9-1-2.9-1.1
					c0,0-0.1,0-0.1,0c-0.1,0-0.2,0-0.3,0c10.6-1.9,19.4-4.6,26.8-7.7c22.3-9.2,32.5-21.8,34.4-24.4v0.6H1359.4z"/>
				<path class="st3" d="M1296.6,786.3l-0.4,2l0.3-2C1296.5,786.3,1296.5,786.3,1296.6,786.3z"/>
				<path class="st3" d="M1296.4,786.3l-0.3,2v-2h-0.1v0c0,0,0,0,0.1,0C1296.2,786.3,1296.3,786.3,1296.4,786.3z"/>
				<path class="st3" d="M1296.1,786.3v2l-0.4-2l0.1,0C1296,786.3,1296,786.3,1296.1,786.3L1296.1,786.3z"/>
				<path class="st3" d="M1295.6,790.4c-0.9-0.2-1.6-1-1.6-2c0.7-0.2,1.4-0.2,2.1,0c0.8,0.1,1.5,0.4,2.2,0.9c0.3,0.2,0.7,0.4,1,0.6
					c-0.9,0.2-1.9,0.4-2.9,0.5l-0.4,0h-0.1c0,0-0.1,0-0.1,0c0,0-0.1,0-0.1,0C1295.8,790.4,1295.7,790.4,1295.6,790.4z"/>
				<path class="st3" d="M1295.9,790.4c0,0,0.1,0,0.1,0C1295.9,790.4,1295.9,790.4,1295.9,790.4z"/>
				<path class="st3" d="M1296.1,788.3c-0.7-0.1-1.4-0.1-2.1,0v0c0-1,0.8-1.9,1.8-2L1296.1,788.3z"/>
				<path class="st3" d="M1295.8,786.3c-1,0.1-1.8,1-1.8,2v0c-0.5,0.1-1,0.3-1.5,0.6l-0.2-0.3l-0.3-0.5l-0.5-1c1.1-0.6,2.4-1,3.6-1
					c0.3,0,0.6,0,0.9,0.1v0c-0.1,0-0.1,0-0.2,0L1295.8,786.3z"/>
				<path class="st3" d="M1292.4,788.7l-0.3-0.5L1292.4,788.7z"/>
				<path class="st3" d="M1292.1,788.2l-0.6-1c0,0,0,0,0,0L1292.1,788.2z"/>
				<path class="st3" d="M1293.6,790.7c0.5-0.3,1-0.4,1.6-0.4l0.5,0.1c0.1,0,0.2,0,0.3,0c0,0,0.1,0,0.1,0s0.1,0,0.1,0
					c0.4,0.1,0.8,0.3,1.1,0.5c17.7,11.6,35.1,19.3,52,24.2c16.8,4.9,33,6.8,48.2,6.8c50.3,0,89.2-21.4,102.4-29.6h0
					c0.9-0.6,2-1,3-1.1c0.4,0,0.8-0.1,1.1-0.1c1.4,0,2.9,0.4,4.1,1.1c4.9,2.9,12.8,7.8,21.9,14.6c9,6.8,19.2,15.5,28.8,25.9
					c18.7,20.4,35,47.4,35.6,80c-20.2-0.2-182.3-2-291.6-2c-28.5,0-53.4,0.1-71.3,0.4c-8.9,0.2-16.1,0.4-21.1,0.6
					c-2.4,0.1-4.4,0.3-5.8,0.4c0.9-33.9,18.6-61.7,38.4-82.3C1263.3,808.6,1285.7,795.2,1293.6,790.7L1293.6,790.7z"/>
				<path class="st3" d="M1210.5,911.6c5-0.3,12.2-0.4,21.1-0.6c17.9-0.3,42.8-0.4,71.3-0.4c109.3,0,271.3,1.8,291.6,2
					c0,0.7,0,1.4,0,2c-29.1-0.3-360.6-4-389.8-0.6c0-0.7,0-1.4,0-2C1206.1,911.9,1208.1,911.7,1210.5,911.6z"/>
				<path class="st3" d="M1241.1,915c-16.7,0.2-29,0.5-34.6,1c-1.1,0.1-2.1,0.2-2.5,0.3c0.1,0,0.1-0.1,0.2-0.1
					c0.2-0.2,0.3-0.4,0.4-0.7c0,0,0,0,0-0.1c0.1-0.1,0.1-0.2,0.1-0.3c0,0,0,0,0-0.1c0-0.1,0-0.2,0-0.3v-0.1c0-0.2,0-0.3,0-0.5
					c29.2-3.4,360.7,0.3,389.8,0.6v0h2c0,0,0,0,0,0l0-2c0,0,0,0-0.1,0c-1.3-67.3-67.5-110.7-87.3-122.2c-1.5-0.8-3.1-1.3-4.7-1.4
					c0,0,0,0,0-0.1c0.2-0.8-0.1-1.6-0.7-2c0.1,0,0.2,0,0.3,0c2.1,0,4.3,0.6,6.2,1.6l0,0c10.1,5.9,32.1,19.9,51.7,41.2
					c19.5,21.3,36.7,49.9,36.7,84.8c0,0.6-0.2,1.1-0.6,1.5c-0.4,0.4-0.9,0.6-1.5,0.6c0,0-2.8,0-7.8-0.1c-5,0-12.4-0.1-21.6-0.2
					c-18.4-0.2-44.2-0.5-73.6-0.7c-58.8-0.5-132.2-1-190.6-1C1279.2,914.7,1257.9,914.8,1241.1,915z"/>
				<path class="st3" d="M1204.7,914.1c0,0.2,0,0.3,0,0.5C1204.7,914.4,1204.7,914.2,1204.7,914.1
					C1204.6,914.1,1204.7,914.1,1204.7,914.1z"/>
				<path class="st3" d="M1243.1,829.7c-19.7,20.6-37.5,48.4-38.4,82.3c-0.1,0-0.1,0-0.1,0c-0.7,0.1-1.3,0.2-1.8,0.3l-0.1,0
					c1.6-70.3,74-114.6,89.8-123.4c0.5-0.3,1-0.5,1.5-0.6c0,1,0.7,1.8,1.6,2l-0.5-0.1c-0.5,0-1.1,0.1-1.6,0.4h0
					C1285.7,795.2,1263.3,808.6,1243.1,829.7z"/>
				<path class="st3" d="M1204.2,915.9c0,0.1-0.1,0.1-0.1,0.1C1204.1,916,1204.1,916,1204.2,915.9z"/>
				<path class="st3" d="M1204,916.1C1204,916.1,1204,916.1,1204,916.1C1204,916.1,1204,916.1,1204,916.1z"/>
				<path class="st3" d="M1203.9,916.1C1203.9,916.1,1203.9,916.1,1203.9,916.1C1204,916.2,1203.9,916.2,1203.9,916.1L1203.9,916.1z
					"/>
				<path class="st3" d="M1203.9,916.1L1203.9,916.1L1203.9,916.1C1203.9,916.2,1203.9,916.2,1203.9,916.1z"/>
				<path class="st3" d="M1204,916.1C1204,916.1,1204,916.1,1204,916.1c-0.1,0.1-0.1,0.1-0.1,0.1c0,0,0,0,0,0l-0.8-1.2l-0.2-0.3
					l1.6,0.8v0c-0.1,0.2-0.2,0.3-0.3,0.5C1204.1,916,1204.1,916,1204,916.1z"/>
				<path class="st3" d="M1204.5,915.5L1204.5,915.5C1204.5,915.4,1204.5,915.4,1204.5,915.5
					C1204.5,915.4,1204.5,915.4,1204.5,915.5c-0.1,0.3-0.2,0.5-0.4,0.7c-0.1,0.1-0.1,0.1-0.2,0.1c0,0,0,0,0,0c-0.1,0-0.1,0-0.2,0
					c0,0,0,0,0.1,0s0.1,0,0.1-0.1h0c0,0,0,0,0,0c0,0,0,0,0.1-0.1s0.1-0.1,0.1-0.1C1204.3,915.8,1204.4,915.6,1204.5,915.5z"/>
				<path class="st3" d="M1203.9,916.2c0,0.1-0.1,0.1-0.1,0.1C1203.8,916.2,1203.8,916.2,1203.9,916.2L1203.9,916.2z"/>
				<path class="st3" d="M1203.7,916.3l0.2-0.1c0,0,0,0.1-0.1,0.1S1203.8,916.3,1203.7,916.3
					C1203.7,916.3,1203.7,916.3,1203.7,916.3L1203.7,916.3z"/>
				<polygon class="st3" points="1203.6,916.3 1203.6,916.2 1203.7,916.3 				"/>
				<polygon class="st3" points="1203.5,916.1 1203.6,916.2 1203.5,916.2 				"/>
				<polygon class="st3" points="1203.1,915 1203.9,916.2 1203.9,916.2 1203.7,916.3 1203.6,916.2 1203.5,916.1 1203.4,915.8 
					1203.4,915.7 1203.3,915.5 				"/>
				<path class="st3" d="M1203.2,916.6c-0.1,0-0.2,0-0.3,0C1203,916.6,1203.1,916.6,1203.2,916.6z"/>
				<path class="st3" d="M1204.1,913.1c0.3,0.3,0.4,0.6,0.5,1c-1.2,0.1-1.9,0.3-2,0.5c0-0.7,0-1.4,0-2c0,0,0.1,0,0.1,0v0
					C1203.3,912.6,1203.8,912.8,1204.1,913.1z"/>
				<path class="st3" d="M1204.7,912c0,0.7,0,1.4,0,2c0,0-0.1,0-0.1,0c-0.1-0.4-0.3-0.7-0.5-1c-0.4-0.4-0.8-0.6-1.3-0.6v0
					c0,0-0.1,0-0.1,0c0-0.1,0-0.1,0-0.2l0.1,0c0.5-0.1,1.1-0.2,1.8-0.3C1204.6,912,1204.7,912,1204.7,912z"/>
				<path class="st3" d="M1202,912.6l0.7-0.2c0,0,0,0.1,0,0.2h0c-0.3,0-0.5,0.1-0.8,0.1L1202,912.6z"/>
				<path class="st3" d="M1201.5,912.8l0.4-0.2c-0.3,0.1-0.5,0.3-0.7,0.5C1201.3,913,1201.4,912.9,1201.5,912.8z"/>
				<path class="st3" d="M1201.8,916.5C1201.8,916.5,1201.8,916.4,1201.8,916.5c0.1,0,0.3,0.1,0.4,0.1
					C1202.1,916.6,1201.9,916.5,1201.8,916.5z"/>
				<path class="st3" d="M1201.2,913.1c0.2-0.2,0.4-0.4,0.7-0.5c0.3-0.1,0.5-0.1,0.8-0.1h0c0,0.7,0,1.4,0,2h-2c0-0.1,0-0.2,0-0.3
					c0,0,0-0.1,0-0.1c0-0.1,0.1-0.3,0.1-0.4C1200.9,913.5,1201,913.3,1201.2,913.1C1201.2,913.2,1201.2,913.2,1201.2,913.1z"/>
				<path class="st3" d="M1201.1,913.2c-0.1,0.1-0.2,0.3-0.3,0.5C1200.9,913.5,1201,913.3,1201.1,913.2z"/>
				<path class="st3" d="M1201,915.8c-0.1-0.1-0.2-0.2-0.2-0.3C1200.9,915.6,1201,915.7,1201,915.8z"/>
				<path class="st0" d="M1201.7,916.4C1201.7,916.4,1201.7,916.4,1201.7,916.4c0.1,0,0.1,0.1,0.1,0.1c0.1,0.1,0.3,0.1,0.4,0.1
					c0.1,0,0.3,0,0.4,0h0c0.1,0,0.2,0,0.3,0c0.1,0,0.2,0,0.3,0c0.1,0,0.1,0,0.1,0c0.1,0,0.2-0.1,0.3-0.2c0,0,0.1,0,0.1,0
					c0,0,0.1,0,0.2,0c-0.4,0.3-0.8,0.5-1.3,0.5c-0.5,0-1.1-0.2-1.5-0.6c-0.2-0.2-0.4-0.5-0.4-0.8c0,0,0,0,0,0.1c0,0,0,0,0.1,0.1
					c0,0.1,0.1,0.2,0.2,0.3c0,0,0,0.1,0.1,0.1c0,0.1,0.1,0.1,0.1,0.1c0,0,0.1,0,0.1,0.1c0,0,0.1,0.1,0.2,0.1c0,0,0,0,0,0
					c0,0,0,0,0,0C1201.6,916.3,1201.6,916.3,1201.7,916.4z"/>
				<path class="st3" d="M1200.7,915.2c0,0.1,0,0.1,0.1,0.2c0,0,0-0.1,0-0.1C1200.8,915.3,1200.7,915.3,1200.7,915.2z"/>
				<path class="st3" d="M1200.7,914.2c0-0.1,0.1-0.3,0.1-0.4C1200.7,913.9,1200.7,914,1200.7,914.2z"/>
				<path class="st0" d="M1200.7,915.2c0,0,0,0.1,0,0.1C1200.7,915.3,1200.7,915.2,1200.7,915.2
					C1200.7,915.2,1200.7,915.2,1200.7,915.2z"/>
				<path class="st3" d="M1200.7,915C1200.7,915,1200.7,915.1,1200.7,915L1200.7,915C1200.7,915.1,1200.7,915,1200.7,915z"/>
				<path class="st0" d="M1200.7,915.1c0,0,0,0.1,0,0.1C1200.7,915.1,1200.7,915.1,1200.7,915.1L1200.7,915.1z"/>
				<path class="st3" d="M1292.1,788.2l0.3,0.5l0.2,0.3c-15.8,8.8-88.3,53.1-89.8,123.4l-0.7,0.2l-0.1,0.1l-0.4,0.2
					c-0.1,0.1-0.2,0.1-0.3,0.3c0,0,0,0-0.1,0.1c-0.1,0.1-0.3,0.3-0.3,0.5c-0.1,0.1-0.1,0.3-0.1,0.4c0,0,0,0,0,0.1c0,0.1,0,0.2,0,0.3
					c0-36.6,18.8-66.2,39.5-87.7c20.6-21.5,43.2-35.1,51.4-39.6L1292.1,788.2z"/>
				<path class="st3" d="M1200.9,915.5C1200.8,915.5,1200.8,915.5,1200.9,915.5c-0.1-0.1-0.1-0.2-0.1-0.3c0,0,0,0,0-0.1s0-0.1,0-0.1
					c0,0,0,0,0-0.1c0-0.1,0-0.2,0-0.3v-0.1h2c0.1-0.2,0.8-0.3,2-0.5c0,0.1,0.1,0.3,0.1,0.5v0.1c0,0.1,0,0.2,0,0.3c0,0,0,0.1,0,0.1
					c0,0.1,0,0.2-0.1,0.3c0,0,0,0,0,0l-1.6-0.8l0.2,0.3l0.2,0.5l0.1,0.3l0,0l0.1,0.3v0.1h0l0,0.2c-0.1,0.1-0.2,0.1-0.3,0.2
					c0,0-0.1,0-0.1,0c-0.1,0-0.1,0-0.3,0c-0.1,0-0.2,0-0.3,0h0c-0.1,0-0.3,0-0.4,0c-0.2,0-0.4-0.1-0.5-0.2c0,0,0,0,0,0
					c-0.1,0-0.1,0-0.1-0.1c0,0,0,0,0,0c0,0,0,0,0,0c-0.1,0-0.1-0.1-0.2-0.1c0,0,0-0.1-0.1-0.1c0,0-0.1-0.1-0.1-0.1
					c0,0-0.1-0.1-0.1-0.1C1201,915.7,1200.9,915.6,1200.9,915.5z"/>
			</g>
			<g>
			</g>
		</g>
	</g>
	<g>
		<g>
			<path class="st5" d="M1413.3,631.3c-1.3,3.8-11,6.6-15.3,6.9c-3.2,0.2-12-1.4-14.5-6.1"/>
		</g>
	</g>
	<g>
		<g>
			<path class="st0" d="M1466.8,579.9c-3.7-1.8-14.7-6.2-19.8-6.9c-8.2-1.2-27.9-2.9-27.9-2.9c-3.9-3.1-5.1-8.5-3.9-8
				c5.3,2.2,35.2,4.4,39.4,6.4C1456.9,569.7,1467.6,579.1,1466.8,579.9z"/>
		</g>
	</g>
	<g>
		<g>
			<path class="st0" d="M1331.5,577c3.8-1.7,15-5.5,20.1-6c8.3-0.8,28-1.7,28-1.7c4.1-2.9,5.5-8.2,4.2-7.8
				c-7.1,2.2-35.3,2.8-39.7,4.7C1341.7,567.3,1330.7,576.2,1331.5,577z"/>
		</g>
	</g>
	<path class="st0" d="M1415.8,607.3c0,0,0.1-0.1,0.1-0.1c3-6.4,9.4-10.3,21.3-11.3c8.6-0.7,16.5,3.4,16.5,3.4
		c-2.6,0.4-4,1.9-4.6,2.7c3.8-2.5,7.4-1.2,9.2,0c0,0-5.6,0.8-7.2,3.4C1433.6,596.7,1415.8,607.3,1415.8,607.3z"/>
	<path class="st0" d="M1383,607.3c0,0-0.1-0.1-0.1-0.1c-3-6.4-9.5-10.3-21.3-11.3c-8.6-0.7-16.5,3.4-16.5,3.4c2.6,0.4,4,1.9,4.6,2.7
		c-3.8-2.5-7.4-1.2-9.2,0c0,0,5.6,0.8,7.2,3.4C1365.2,596.6,1383,607.2,1383,607.3z"/>
	<ellipse class="st0" cx="1311.1" cy="756.5" rx="33" ry="40.7"/>
	<path class="st0" d="M1359.3,771.3c0,17.2-11.3,31.2-25.3,31.2c-14,0-25.3-13.9-25.3-31.2c0-17.2,11.3-31.2,25.3-31.2
		C1348,740.1,1359.3,754.1,1359.3,771.3z"/>
	<ellipse class="st0" cx="1318.9" cy="812" rx="19.7" ry="24.2"/>
	<path class="st0" d="M1334.8,851.4c0,13.4-15.8,45.4-15.8,45.4s-14.6-32-14.6-45.4c0-13.4,6.8-24.2,15.2-24.2
		C1327.9,827.2,1334.8,838,1334.8,851.4z"/>
	<path class="st1" d="M1410,673.6l-19.5,3.7c-4.7,0-15.8-11.7-15.8-11.7c0-4.7,1.7-7.7,6.4-7.7h35.1c4.7,0,7.2,2.7,7.2,7.4
		C1423.4,665.2,1414.7,673.6,1410,673.6z"/>
	<g>
		<g>
			<path class="st0" d="M1428.4,660.3c-3.7-0.3-18.9-8.7-23.7-6.8c-2.7,1.1-6.8,1.8-10.1,0c-3.3-1.8-21.9,6.9-22.7,8.5
				c9,0,18.6-2.8,27.8-2.6C1410.9,659.5,1421.2,662.4,1428.4,660.3z"/>
		</g>
	</g>
	<g>
		<g>
			<path class="st0" d="M1398.8,685c9.5-0.3,22-10,28.4-24.3c-8.9,1.6-17.2,14.5-29,14.5c-13.4,0-21-12.9-27.4-12.9
				C1379.6,679.1,1389.2,685.3,1398.8,685z"/>
		</g>
	</g>
</g>
<g>
	<g>
		<g>
			<path class="st0" d="M1228.2,544.4c0,0,2,58.2,31.4,88.5c38,39.2,44.1,144-83.6,135.6l18.9-243.5L1228.2,544.4z"/>
			<path class="st0" d="M1167.5,567.5c15.9,5.6,29.4,15.7,38.4,30.1c0.7,1,1.3,2.1,1.9,3.3c12.5-12.3,20.3-29.5,20.3-48.5
				c0-37.6-30.5-68.1-68.1-68.1c-37.6,0-68.1,30.5-68.1,68.1c0,4,0.4,8,1,11.8C1118,560.5,1143.9,559.1,1167.5,567.5z"/>
		</g>
		<path class="st0" d="M1059.1,655c0,0-25.9-90.3,42.7-124.5s122.9,25.5,126.4,49.7l-97-25.5l-40.6,21.3c0,0-9.3,24.5-24.7,31.3
			L1059.1,655"/>
		<path class="st2" d="M1230.3,625.5c0,0,10.5,150.6-83.7,150.6c-94.2,0-86.6-150.6-86.6-150.6s-4.5-89.6,89.8-89.6
			C1237.6,535.9,1230.3,625.5,1230.3,625.5z"/>
		<g>
			<circle class="st3" cx="1110.9" cy="653" r="7.8"/>
			<circle class="st3" cx="1183.7" cy="653" r="7.8"/>
			<path class="st3" d="M1129.7,618.9c-0.4,0.8-2.3,10.3-2.3,10.3l-43,4.6l10.2-7.4c2.6-1.7,5.5-2.8,8.6-3.4L1129.7,618.9z"/>
			<path class="st0" d="M1160.1,618.9c0.4,0.8,2.3,10.3,2.3,10.3l43,4.6l-10.2-7.4c-2.6-1.7-5.5-2.8-8.6-3.4L1160.1,618.9z"/>
		</g>
		<g>
			<path class="st2" d="M1223.7,701.7c6.4,8.8,18.7,3,25.8-8.4c7.1-11.4,10.5-34.2,0-40.4c-10.5-6.2-19.3,6.6-19.3,6.6
				s-2.5,23.1-4.4,31.7L1223.7,701.7z"/>
			<g>
				<g>
					<g>
						<path class="st3" d="M1227.5,681.7c-0.2,0-0.3,0-0.5-0.1c-0.5-0.3-0.7-0.9-0.5-1.4c8.7-18,22.1-14.1,22.2-14.1
							c0.5,0.2,0.9,0.7,0.7,1.3c-0.2,0.5-0.8,0.9-1.3,0.7c-0.5-0.1-11.9-3.3-19.7,13C1228.2,681.5,1227.8,681.7,1227.5,681.7z"/>
					</g>
				</g>
				<g>
					<path class="st3" d="M1238.3,690.3c-0.2,0-0.5-0.1-0.7-0.2c-0.4-0.4-0.5-1-0.1-1.5c2.2-2.6,3-5.2,2.5-7.7
						c-1-4.8-6.5-7.8-6.6-7.9c-0.5-0.3-0.7-0.9-0.4-1.4c0.3-0.5,0.9-0.7,1.4-0.4c0.3,0.1,6.5,3.5,7.6,9.3c0.6,3.1-0.4,6.3-3,9.5
						C1238.9,690.2,1238.6,690.3,1238.3,690.3z"/>
				</g>
			</g>
		</g>
		<g>
			<path class="st2" d="M1066.3,701.6c-6.4,8.8-17.9,3.1-25-8.3c-7.1-11.4-10.5-34.2,0-40.4c10.5-6.2,19.3,6.6,19.3,6.6"/>
			<g>
				<g>
					<path class="st3" d="M1139,671v14.5c0,1.3,0.2,2.5,0.7,3.6c1.5,3.7,5.1,5.7,8.8,5.7c0.9,0,1.7-0.1,2.6-0.3l4.3-1.1
						c1.1-0.3,1.7-1.4,1.4-2.4c-0.3-1.1-1.4-1.7-2.4-1.4l-4.2,1.1c-0.5,0.1-1.1,0.2-1.6,0.2c-2.3,0-4.4-1.3-5.2-3.2
						c-0.3-0.7-0.4-1.4-0.4-2.1V671c0-1.1-0.9-2-2-2C1139.9,669,1139,669.9,1139,671L1139,671z"/>
					<path class="st3" d="M1124.5,661.5l-19.4,12.8c-0.5,0.3-0.6,1-0.3,1.4c0.3,0.5,1,0.6,1.4,0.3l19.4-12.8c0.5-0.3,0.6-1,0.3-1.4
						C1125.6,661.3,1125,661.2,1124.5,661.5"/>
					<path class="st3" d="M1170.7,663.1l17.2,12.9c0.5,0.3,1.1,0.3,1.5-0.2c0.3-0.5,0.3-1.1-0.2-1.5l-17.2-12.9
						c-0.5-0.3-1.1-0.3-1.5,0.2S1170.3,662.7,1170.7,663.1"/>
					<path class="st3" d="M1119.8,710.4c0.2,0.1,12.2,7.6,28.4,7.7c16.2,0,28.2-7.6,28.4-7.7c0.9-0.6,1.2-1.8,0.6-2.7
						c-0.6-0.9-1.8-1.2-2.7-0.6l-0.1,0.1c-1.2,0.7-12.2,7-26.2,7c-7.5,0-14.1-1.8-18.8-3.6c-2.4-0.9-4.3-1.8-5.5-2.4
						c-0.6-0.3-1.1-0.6-1.5-0.8l-0.4-0.2l-0.1-0.1c-0.9-0.6-2.1-0.3-2.7,0.6C1118.6,708.6,1118.9,709.8,1119.8,710.4L1119.8,710.4z"
						/>
					<path class="st3" d="M1042.7,668.1L1042.7,668.1c0.2-0.1,1.2-0.3,2.6-0.3c3.7,0,10.6,1.6,16.2,13.2c0.2,0.5,0.9,0.7,1.4,0.5
						c0.5-0.3,0.7-0.9,0.5-1.4c-5.9-12.2-13.7-14.4-18.1-14.4c-2,0-3.2,0.4-3.3,0.4c-0.5,0.2-0.8,0.8-0.7,1.3
						C1041.6,668,1042.2,668.3,1042.7,668.1L1042.7,668.1z"/>
					<path class="st3" d="M1056.4,671.2c-0.1,0-1.9,1-3.9,2.9c-1.9,1.9-3.9,4.6-3.9,8.2c0,2.4,0.9,5,3.1,7.7c0.4,0.4,1,0.5,1.5,0.1
						c0.4-0.4,0.5-1,0.1-1.5c-2-2.4-2.7-4.5-2.7-6.3c0-2.7,1.6-5,3.3-6.7c0.9-0.8,1.7-1.5,2.4-1.9l0.8-0.5l0.3-0.2
						c0.5-0.3,0.7-0.9,0.4-1.4C1057.5,671.1,1056.9,670.9,1056.4,671.2L1056.4,671.2z"/>
				</g>
			</g>
		</g>
		<g>
			<path class="st0" d="M1059.1,655c0,0-25.9-90.3,42.7-124.5s122.9,25.5,126.4,49.7l-97-25.5l-40.6,21.3c0,0-9.3,24.5-24.7,31.3
				L1059.1,655"/>
			<path class="st0" d="M1059.1,655c0,0,36-45.4,13.3-90.7C1072.4,564.3,1055.8,619.8,1059.1,655z"/>
			<path class="st0" d="M1230.1,657.2c0,0-31.1-35.2-15.6-92.9C1214.4,564.3,1233.4,622,1230.1,657.2z"/>
			<path class="st0" d="M1082.5,557c0,0,71.5,109.8,158.7,76.9C1241.2,633.9,1169.6,520.1,1082.5,557z"/>
			<path class="st0" d="M1106.1,570.5c-0.1,1.1,6.6,45.4,48.8,62.1c0,0-60.6-3-77.8-57.6L1106.1,570.5z"/>
			<path class="st3" d="M1239.4,593.7v31.1c0,1.3-1.6,1.8-2.4,0.8c-8.7-11.3-40.4-47-93.5-45.1c-52.7,1.9-79.7,36-87,47
				c-0.6,0.9-2.1,0.5-2.1-0.6V597c0-3.2,0.8-6.4,2.5-9.2c8.2-13.9,36.7-47.6,86.6-47.6c61.7,0,90.3,36.9,95.1,46.7
				C1239.1,587.9,1239.4,592.6,1239.4,593.7z"/>
		</g>
	</g>
	<g>
		<path class="st2" d="M1107.1,764.8v54.7c0,0-17.7,24.8-64.8,33h208c0,0-60.3-12.6-64.7-33v-54.5"/>
		<path class="st0" d="M1107.1,766.4c0,0,16.3,36.4,49.3,34.1c0,0,23.5-0.2,29.1-23.6l-2.3-10.5
			C1183.2,766.4,1153.5,787.6,1107.1,766.4z"/>
		<path class="st3" d="M1253.5,852.4h-95.1H1141h-98.7c0,0-94.3,47.7-94.3,129.3h193h17.5h189.4
			C1347.9,900.2,1253.5,852.4,1253.5,852.4z"/>
	</g>
</g>
<path class="st6" d="M1242.9,340.8"/>
<path class="st0" d="M711,1081c0,0,48.2-115.9,181-111c323,12,280.7-100.2,515.8-92.9C1819,890,1924,740,1924,740l-4,339.4L711,1081
	z"/>
<g>
	<g>
		<path class="st3" d="M1195.5,1216.3c1.9,0,1.9-3,0-3C1193.6,1213.3,1193.6,1216.3,1195.5,1216.3L1195.5,1216.3z"/>
	</g>
</g>
</svg>
