<?xml version="1.0" encoding="utf-8"?>
<!-- Generator: Adobe Illustrator 23.0.4, SVG Export Plug-In . SVG Version: 6.00 Build 0)  -->
<svg version="1.1" id="Camada_1" xmlns="http://www.w3.org/2000/svg" xmlns:xlink="http://www.w3.org/1999/xlink" x="0px" y="0px"
	 viewBox="0 0 19.3 19.9" style="enable-background:new 0 0 19.3 19.9;" xml:space="preserve">
<g>
	<path d="M9.6,19.3C4.3,19.3,0,15,0,9.6C0,4.3,4.3,0,9.6,0s9.6,4.3,9.6,9.6C19.3,15,15,19.3,9.6,19.3z M9.6,1C4.9,1,1,4.9,1,9.6
		s3.9,8.6,8.6,8.6s8.6-3.9,8.6-8.6S14.4,1,9.6,1z"/>
</g>
<g>
	<g>
		<path d="M11.4,11.3v0.5H7.9v-0.4L10,9.3c0.6-0.6,0.7-0.9,0.7-1.2c0-0.6-0.4-0.9-1.2-0.9c-0.6,0-1,0.2-1.4,0.6L7.7,7.4
			c0.4-0.5,1-0.7,1.8-0.7c1,0,1.7,0.5,1.7,1.4c0,0.5-0.2,0.9-0.8,1.6l-1.7,1.7H11.4z"/>
	</g>
</g>
</svg>
