<?xml version="1.0" encoding="utf-8"?>
<!-- Generator: Adobe Illustrator 23.0.4, SVG Export Plug-In . SVG Version: 6.00 Build 0)  -->
<svg version="1.1" id="Camada_1" xmlns="http://www.w3.org/2000/svg" xmlns:xlink="http://www.w3.org/1999/xlink" x="0px" y="0px"
	 viewBox="0 0 19.3 19.9" style="enable-background:new 0 0 19.3 19.9;" xml:space="preserve">
<g>
	<path d="M9.6,19.3C4.3,19.3,0,15,0,9.6C0,4.3,4.3,0,9.6,0s9.6,4.3,9.6,9.6C19.3,15,15,19.3,9.6,19.3z M9.6,1C4.9,1,1,4.9,1,9.6
		s3.9,8.6,8.6,8.6s8.6-3.9,8.6-8.6S14.4,1,9.6,1z"/>
</g>
<g>
	<g>
		<path d="M11.3,10.3c0,0.8-0.6,1.5-1.8,1.5c-0.7,0-1.4-0.3-1.8-0.6l0.3-0.4c0.3,0.3,0.9,0.6,1.6,0.6c0.8,0,1.3-0.4,1.3-1
			c0-0.6-0.4-1-1.4-1H9.1V8.9l1.4-1.8H7.9V6.7h3.2v0.4L9.7,8.9C10.8,8.9,11.3,9.5,11.3,10.3z"/>
	</g>
</g>
</svg>
