<?xml version="1.0" encoding="utf-8"?>
<!-- Generator: Adobe Illustrator 23.0.4, SVG Export Plug-In . SVG Version: 6.00 Build 0)  -->
<svg version="1.1" id="Camada_1" xmlns="http://www.w3.org/2000/svg" xmlns:xlink="http://www.w3.org/1999/xlink" x="0px" y="0px"
	 viewBox="0 0 596 597.5" style="enable-background:new 0 0 596 597.5;" xml:space="preserve">
<style type="text/css">
	.st0{fill:#FFFFFF;stroke:#334A8C;stroke-width:6;stroke-miterlimit:10;}
	.st1{fill:#202020;}
	.st2{fill:#7D96EE;}
	.st3{fill:#334A8C;}
	.st4{fill:#F5F5F3;}
	.st5{fill:#657BB5;}
	.st6{fill:none;stroke:#000000;stroke-linecap:round;stroke-linejoin:round;stroke-miterlimit:10;}
</style>
<circle class="st0" cx="149.6" cy="513.7" r="80.8"/>
<circle class="st0" cx="451.6" cy="513.7" r="80.8"/>
<circle class="st0" cx="512.2" cy="254" r="80.8"/>
<circle class="st0" cx="83.8" cy="254" r="80.8"/>
<circle class="st0" cx="295.8" cy="83.8" r="80.8"/>
<g>
	<g>
		<g>
			<path class="st1" d="M167.9,462.5c0,0,0.5,13.7,7.4,20.8c8.9,9.2,10.4,33.9-19.7,31.9l4.4-57.3L167.9,462.5z"/>
			<path class="st1" d="M153.7,468c3.7,1.3,6.9,3.7,9,7.1c0.2,0.2,0.3,0.5,0.5,0.8c2.9-2.9,4.8-6.9,4.8-11.4c0-8.8-7.2-16-16-16
				s-16,7.2-16,16c0,0.9,0.1,1.9,0.2,2.8C142,466.3,148.1,466,153.7,468z"/>
		</g>
		<path class="st1" d="M128.1,488.6c0,0-6.1-21.2,10-29.3s28.9,6,29.7,11.7l-22.8-6l-9.5,5c0,0-2.2,5.8-5.8,7.4L128.1,488.6"/>
		<path class="st2" d="M168.4,481.6c0,0,2.5,35.4-19.7,35.4c-22.2,0-20.4-35.4-20.4-35.4s-1.1-21.1,21.1-21.1
			C170.1,460.6,168.4,481.6,168.4,481.6z"/>
		<g>
			<circle class="st3" cx="140.3" cy="488.1" r="1.8"/>
			<circle class="st3" cx="157.5" cy="488.1" r="1.8"/>
			<path class="st3" d="M144.8,480.1c-0.1,0.2-0.5,2.4-0.5,2.4l-10.1,1.1l2.4-1.7c0.6-0.4,1.3-0.7,2-0.8L144.8,480.1z"/>
			<path class="st1" d="M151.9,480.1c0.1,0.2,0.5,2.4,0.5,2.4l10.1,1.1l-2.4-1.7c-0.6-0.4-1.3-0.7-2-0.8L151.9,480.1z"/>
		</g>
		<g>
			<path class="st2" d="M166.9,499.5c1.5,2.1,4.4,0.7,6.1-2c1.7-2.7,2.5-8.1,0-9.5c-2.5-1.5-4.5,1.5-4.5,1.5s-0.6,5.4-1,7.5
				L166.9,499.5z"/>
			<g>
				<g>
					<g>
						<path class="st3" d="M167.8,494.8c0,0-0.1,0-0.1,0c-0.1-0.1-0.2-0.2-0.1-0.3c2-4.2,5.2-3.3,5.2-3.3c0.1,0,0.2,0.2,0.2,0.3
							c0,0.1-0.2,0.2-0.3,0.2c-0.1,0-2.8-0.8-4.6,3.1C167.9,494.8,167.8,494.8,167.8,494.8z"/>
					</g>
				</g>
				<g>
					<path class="st3" d="M170.3,496.9c-0.1,0-0.1,0-0.2-0.1c-0.1-0.1-0.1-0.2,0-0.3c0.5-0.6,0.7-1.2,0.6-1.8
						c-0.2-1.1-1.5-1.8-1.5-1.8c-0.1-0.1-0.2-0.2-0.1-0.3c0.1-0.1,0.2-0.2,0.3-0.1c0.1,0,1.5,0.8,1.8,2.2c0.1,0.7-0.1,1.5-0.7,2.2
						C170.4,496.8,170.4,496.9,170.3,496.9z"/>
				</g>
			</g>
		</g>
		<g>
			<path class="st2" d="M129.8,499.5c-1.5,2.1-4.2,0.7-5.9-1.9c-1.7-2.7-2.5-8.1,0-9.5c2.5-1.5,4.5,1.5,4.5,1.5"/>
			<g>
				<g>
					<path class="st3" d="M147,492.3v3.4c0,0.3,0.1,0.6,0.2,0.8c0.4,0.9,1.2,1.3,2.1,1.3c0.2,0,0.4,0,0.6-0.1l1-0.3
						c0.2-0.1,0.4-0.3,0.3-0.6c-0.1-0.2-0.3-0.4-0.6-0.3l-1,0.3c-0.1,0-0.2,0-0.4,0c-0.5,0-1-0.3-1.2-0.8c-0.1-0.2-0.1-0.3-0.1-0.5
						v-3.4c0-0.3-0.2-0.5-0.5-0.5C147.2,491.9,147,492.1,147,492.3L147,492.3z"/>
					<path class="st3" d="M143.5,490.1l-4.6,3c-0.1,0.1-0.1,0.2-0.1,0.3c0.1,0.1,0.2,0.1,0.3,0.1l4.6-3c0.1-0.1,0.1-0.2,0.1-0.3
						C143.8,490,143.6,490,143.5,490.1"/>
					<path class="st3" d="M154.4,490.5l4,3c0.1,0.1,0.3,0.1,0.3,0c0.1-0.1,0.1-0.3,0-0.3l-4-3c-0.1-0.1-0.3-0.1-0.3,0
						C154.3,490.2,154.3,490.4,154.4,490.5"/>
					<path class="st3" d="M142.4,501.6c0,0,2.9,1.8,6.7,1.8c3.8,0,6.6-1.8,6.7-1.8c0.2-0.1,0.3-0.4,0.1-0.6
						c-0.1-0.2-0.4-0.3-0.6-0.1l0,0c-0.3,0.2-2.9,1.7-6.2,1.6c-1.8,0-3.3-0.4-4.4-0.8c-0.6-0.2-1-0.4-1.3-0.6
						c-0.2-0.1-0.3-0.1-0.3-0.2l-0.1-0.1l0,0c-0.2-0.1-0.5-0.1-0.6,0.1C142.1,501.2,142.2,501.4,142.4,501.6L142.4,501.6z"/>
					<path class="st3" d="M124.3,491.6L124.3,491.6c0,0,0.3-0.1,0.6-0.1c0.9,0,2.5,0.4,3.8,3.1c0.1,0.1,0.2,0.2,0.3,0.1
						c0.1-0.1,0.2-0.2,0.1-0.3c-1.4-2.9-3.2-3.4-4.3-3.4c-0.5,0-0.8,0.1-0.8,0.1c-0.1,0-0.2,0.2-0.2,0.3
						C124,491.6,124.2,491.7,124.3,491.6L124.3,491.6z"/>
					<path class="st3" d="M127.5,492.4c0,0-0.5,0.2-0.9,0.7c-0.4,0.4-0.9,1.1-0.9,1.9c0,0.6,0.2,1.2,0.7,1.8c0.1,0.1,0.2,0.1,0.3,0
						c0.1-0.1,0.1-0.2,0-0.3c-0.5-0.6-0.6-1.1-0.6-1.5c0-0.6,0.4-1.2,0.8-1.6c0.2-0.2,0.4-0.3,0.6-0.4l0.2-0.1l0.1,0
						c0.1-0.1,0.2-0.2,0.1-0.3C127.8,492.3,127.6,492.3,127.5,492.4L127.5,492.4z"/>
				</g>
			</g>
		</g>
		<g>
			<path class="st1" d="M128.1,488.6c0,0-6.1-21.2,10-29.3s28.9,6,29.7,11.7l-22.8-6l-9.5,5c0,0-2.2,5.8-5.8,7.4L128.1,488.6"/>
			<path class="st1" d="M128.1,488.6c0,0,8.5-10.7,3.1-21.3C131.3,467.2,127.4,480.3,128.1,488.6z"/>
			<path class="st1" d="M168.4,489.1c0,0-7.3-8.3-3.7-21.9C164.7,467.2,169.1,480.8,168.4,489.1z"/>
			<path class="st1" d="M133.7,465.5c0,0,16.8,25.8,37.3,18.1C171,483.6,154.2,456.8,133.7,465.5z"/>
			<path class="st1" d="M139.2,468.7c0,0.3,1.6,10.7,11.5,14.6c0,0-14.3-0.7-18.3-13.6L139.2,468.7z"/>
			<path class="st3" d="M170.5,474.1v7.3c0,0.3-0.4,0.4-0.6,0.2c-2-2.7-9.5-11.1-22-10.6c-12.4,0.5-18.7,8.5-20.5,11.1
				c-0.1,0.2-0.5,0.1-0.5-0.1v-7c0-0.8,0.2-1.5,0.6-2.2c1.9-3.3,8.6-11.2,20.4-11.2c14.5,0,21.2,8.7,22.4,11
				C170.5,472.8,170.5,473.9,170.5,474.1z"/>
		</g>
	</g>
	<g>
		<path class="st2" d="M139.5,514.4v12.9c0,0-4.2,5.8-15.2,7.8h48.9c0,0-14.2-3-15.2-7.8v-12.8"/>
		<path class="st1" d="M139.5,514.8c0,0,3.8,8.6,11.6,8c0,0,5.5-0.1,6.8-5.6l-0.5-2.5C157.3,514.8,150.4,519.7,139.5,514.8z"/>
		<path class="st3" d="M173.9,535h-22.4h-4.1h-23.2c0,0-22.2,11.2-22.2,30.4h45.4h4.1h44.5C196.1,546.2,173.9,535,173.9,535z"/>
	</g>
</g>
<g>
	<g>
		<g id="XMLID_15_">
			<g>
				<path class="st3" d="M343.2,128.8h-44.5h-4.1h-45.4c0-19.2,22.2-30.4,22.2-30.4s6.6,4.4,25,4.4c12.3,0,23.1-4,23.9-4.3
					C321.2,98.9,343.2,110,343.2,128.8z"/>
				<path class="st3" d="M329.1,47.3c14.9,17.5,19.3,44.5-12.7,50.1c-4.3-1.2-10.7-3.6-11.4-6.8V82c0.1-0.4,0.3-0.7,0.4-1.2
					l-0.4-1.6v-1.4c5.2-3.5,7.9-10,9.3-16.2l-0.3,1.4c1.5,2.1,4.4,0.7,6.1-2c1.7-2.7,2.5-8.1,0-9.5c-2.5-1.5-4.5,1.5-4.5,1.5
					s-0.1,1.1-0.3,2.5c0.1-1.1,0.2-2.1,0.3-3.1c0-0.2,0-0.4,0-0.6c0.2-3,0.2-5.6,0-7.9c0,0,0,0,0,0c0-1.6-0.2-4.7-1.3-8
					c0,0,0,0,0-0.1c-0.1-0.3-0.2-0.6-0.2-0.8l1,0.3c-0.4-2.8-3.6-7.5-8.7-10.8l0.1-0.2c0,0,9.7-3.4,12.6,5
					C321.8,37,325,42.5,329.1,47.3z"/>
				<path class="st2" d="M315,57.8c0.1-0.6,0.2-1.3,0.2-1.9c0-0.1,0-0.3,0.1-0.4c0.2-1.4,0.3-2.5,0.3-2.5s2.1-3,4.5-1.5
					c2.5,1.5,1.7,6.8,0,9.5c-1.7,2.7-4.6,4-6.1,2l0.3-1.4l0.2-1.1c0-0.1,0.1-0.3,0.1-0.4c0-0.2,0.1-0.3,0.1-0.5c0-0.1,0-0.2,0-0.3
					C314.8,58.8,314.9,58.3,315,57.8z"/>
				<path class="st4" d="M320.2,98.4C320.2,98.4,320.2,98.4,320.2,98.4C320.2,98.4,320.2,98.4,320.2,98.4h-13.1c0.5,0,1-0.1,1.5-0.1
					c2.8-0.2,5.4-0.5,7.8-0.9C318.6,98,320.2,98.4,320.2,98.4z"/>
				<path class="st4" d="M320.2,98.4C320.2,98.4,320.2,98.4,320.2,98.4c-0.8,0.3-11.6,4.4-23.9,4.4c-18.3,0-25-4.4-25-4.4h12.9
					c3.8,0.5,7.8,0.7,11.9,0.6c0,0,6.2-0.3,11-0.6H320.2z"/>
				<path class="st1" d="M315.6,43.9c0.1,2.3,0.2,5,0,7.9c0.2-4,0-6.8,0-6.8S315.6,44.6,315.6,43.9z"/>
				<path class="st4" d="M315.6,43.8c0-0.2,0-0.4,0-0.5c-0.1-1.6-0.3-4.2-1-6.7c-0.1-0.3-0.1-0.6-0.2-0.8
					C315.4,39.1,315.6,42.2,315.6,43.8z"/>
				<path class="st3" d="M315.5,43.3c0,0.2,0,0.4,0,0.5c0,0,0,0,0,0c0,0.7,0,1.1,0,1.1s0.2,2.8,0,6.8c0,0.2,0,0.4,0,0.6
					c0,0-3-3.7-4.5-9.8c-4.7-3.3-6.5-7.9-7.1-10.1c-4.4,4.3-12.9,10.6-24.1,8.8c-0.8,4.9-3.4,8.8-4.3,10.1c-0.3-3.8-0.1-6.5-0.1-6.5
					s-1.1-21.1,21.1-21.1c11.2,0,15.8,6.2,17.7,11.8c0,0,0,0,0,0.1c0.1,0.3,0.1,0.5,0.2,0.8C315.3,39.1,315.5,41.7,315.5,43.3z"/>
				<path class="st2" d="M314.9,57.9c-0.1,0.5-0.1,1-0.2,1.4c0,0.1,0,0.2,0,0.3c0,0.2-0.1,0.3-0.1,0.5c0,0.2-0.1,0.3-0.1,0.4
					l-0.2,1.1c-1.4,6.3-4,12.7-9.3,16.2c0,0,0,0,0,0l-18.4,0h0c-8.3-5.5-10.4-18.4-11-26.3v0c0.9-1.3,3.4-5.2,4.3-10.1
					c11.2,1.9,19.7-4.4,24.1-8.8c0.6,2.2,2.3,6.8,7.1,10.1c1.4,6.1,4.5,9.8,4.5,9.8c-0.1,1-0.1,2-0.3,3.1c0,0.1,0,0.3-0.1,0.4
					C315.1,56.6,315,57.2,314.9,57.9z M299.6,45.9l10.1,1.1l-2.4-1.7c-0.6-0.4-1.3-0.7-2-0.8l-6.2-1
					C299.1,43.6,299.6,45.9,299.6,45.9z M306.4,51.5c0-1-0.8-1.8-1.8-1.8c-1,0-1.8,0.8-1.8,1.8c0,1,0.8,1.8,1.8,1.8
					C305.6,53.3,306.4,52.5,306.4,51.5z M291.9,43.4l-6.2,1c-0.7,0.1-1.4,0.4-2,0.8l-2.4,1.7l10.1-1.1
					C291.3,45.9,291.8,43.6,291.9,43.4z M289.3,51.5c0-1-0.8-1.8-1.8-1.8c-1,0-1.8,0.8-1.8,1.8c0,1,0.8,1.8,1.8,1.8
					C288.5,53.3,289.3,52.5,289.3,51.5z"/>
				<path class="st3" d="M315,35.2l-1-0.3c0.1,0.3,0.2,0.5,0.2,0.8c-1.9-5.7-6.5-11.8-17.7-11.8c-22.2,0-21.1,21.1-21.1,21.1
					s-0.1,2.6,0.1,6.5v0c-0.1,0.1-0.1,0.2-0.2,0.2l-0.1,0.8c0,0-0.1-0.1-0.1-0.1c0,0,0,0,0,0c-0.7-3-4.7-21.5,10.1-28.9
					c8.3-4.1,15.6-2.5,21,0.9C311.4,27.6,314.6,32.4,315,35.2z"/>
				<path class="st2" d="M315.2,55.9c-0.1,0.6-0.1,1.2-0.2,1.9c0,0,0,0,0,0C315,57.2,315.1,56.6,315.2,55.9z"/>
				<path class="st2" d="M314.9,57.9C314.9,57.8,314.9,57.8,314.9,57.9c-0.1,0.4-0.1,0.9-0.2,1.4C314.8,58.8,314.9,58.4,314.9,57.9z
					"/>
				<path class="st1" d="M314.6,60c0-0.2,0.1-0.3,0.1-0.5C314.7,59.7,314.6,59.9,314.6,60z"/>
				<path class="st2" d="M305,90.6c0.7,3.2,7.1,5.5,11.4,6.8c-2.4,0.4-5,0.7-7.8,0.9c-0.5,0-0.9,0.1-1.5,0.1h-22.9
					c-2.6-0.3-5-0.8-7.4-1.4c7-2.5,9.7-6.3,9.7-6.3V77.8h0c2.5,1.7,5.5,2.7,9.3,2.7c3.7,0,6.7-1,9.2-2.6c0,0,0,0,0,0v1.4l-0.2-0.8
					c0,0-7,5-17.9,0c0,0,3.8,8.6,11.6,8c0,0,4.7,0,6.5-4.4V90.6z"/>
				<path class="st3" d="M309.7,47l-10.1-1.1c0,0-0.5-2.2-0.6-2.4l6.2,1c0.7,0.1,1.4,0.4,2,0.8L309.7,47z"/>
				<path class="st2" d="M284.2,98.4h22.9c-4.8,0.3-11,0.6-11,0.6C292.1,99.1,288.1,98.9,284.2,98.4z"/>
				<path class="st3" d="M276.3,57.8c-0.3-2.3-0.6-4.9-0.6-4.9s-0.1-0.2-0.4-0.4l0.1-0.8c0.1-0.1,0.1-0.1,0.2-0.2
					c0.5,7.9,2.7,20.7,11,26.3v12.9c0,0-2.7,3.9-9.7,6.3c-18.5-4.7-30.1-17.3-21.8-33.2c6.2-11.9,14.3-13.5,14.5-23.7
					c0.2-10.3,4.5-18.9,16.6-22.5c12.1-3.6,20.2,6.8,20.2,6.8l-0.1,0.2c-5.3-3.4-12.7-5.1-21-0.9c-14.8,7.4-10.9,25.9-10.1,28.9
					c-0.8-0.8-2.3-2-4-1c-2.5,1.5-1.7,6.8,0,9.5c1.7,2.7,4.6,4,6.1,2l-0.5-2.5C276.6,59.8,276.4,58.9,276.3,57.8z"/>
				<circle class="st3" cx="304.6" cy="51.5" r="1.8"/>
				<path class="st1" d="M305,79.2l0.4,1.6c-0.1,0.4-0.2,0.8-0.4,1.2V79.2z"/>
				<path class="st3" d="M305,79.2V82c-1.8,4.4-6.5,4.4-6.5,4.4c-7.8,0.5-11.6-8-11.6-8c10.9,5,17.9,0,17.9,0L305,79.2z"/>
				<path class="st2" d="M286.6,77.8l18.4,0c-2.5,1.6-5.5,2.6-9.2,2.6C292.1,80.4,289.1,79.4,286.6,77.8z"/>
				<path class="st3" d="M285.7,44.4l6.2-1c-0.1,0.2-0.6,2.4-0.6,2.4L281.2,47l2.4-1.7C284.3,44.8,284.9,44.6,285.7,44.4z"/>
				<circle class="st3" cx="287.5" cy="51.5" r="1.8"/>
				<path class="st4" d="M284.2,98.4h-12.9c2.1-0.4,3.9-0.9,5.5-1.4C279.2,97.5,281.7,98,284.2,98.4z"/>
				<path class="st2" d="M276.3,57.8c0.1,1,0.3,2,0.4,2.6l0.5,2.5c-1.5,2.1-4.4,0.7-6.1-2c-1.7-2.7-2.5-8.1,0-9.5c1.7-1,3.3,0.2,4,1
					c0,0,0,0,0,0c0.1,0.3,0.1,0.4,0.1,0.4l0-0.2c0.2,0.3,0.4,0.4,0.4,0.4S276,55.6,276.3,57.8z"/>
				<path class="st2" d="M275.3,52.5l0,0.2c0,0,0-0.1-0.1-0.4C275.2,52.4,275.3,52.5,275.3,52.5z"/>
			</g>
			<g>
				<path class="st3" d="M294.1,55.7v3.4c0,0.3,0.1,0.6,0.2,0.8l0,0c0.4,0.9,1.2,1.3,2.1,1.3c0.2,0,0.4,0,0.6-0.1l0,0l1-0.3
					c0.2-0.1,0.4-0.3,0.3-0.6c-0.1-0.2-0.3-0.4-0.6-0.3l-1,0.3l0,0c-0.1,0-0.2,0-0.4,0c-0.5,0-1-0.3-1.2-0.8l0,0
					c-0.1-0.2-0.1-0.3-0.1-0.5v-3.4c0-0.3-0.2-0.5-0.5-0.5C294.3,55.2,294.1,55.4,294.1,55.7L294.1,55.7z"/>
				<path class="st3" d="M290.7,53.5l-4.6,3c-0.1,0.1-0.1,0.2-0.1,0.3c0.1,0.1,0.2,0.1,0.3,0.1l4.6-3c0.1-0.1,0.1-0.2,0.1-0.3
					C290.9,53.4,290.8,53.4,290.7,53.5"/>
				<path class="st3" d="M301.5,53.8l4,3c0.1,0.1,0.3,0.1,0.3,0c0.1-0.1,0.1-0.3,0-0.3l-4-3c-0.1-0.1-0.3-0.1-0.3,0
					C301.4,53.6,301.4,53.7,301.5,53.8"/>
				<path class="st3" d="M289.6,65c0,0,2.9,1.8,6.7,1.8c3.8,0,6.6-1.8,6.7-1.8c0.2-0.1,0.3-0.4,0.1-0.6c-0.1-0.2-0.4-0.3-0.6-0.1
					l0,0c-0.3,0.2-2.9,1.7-6.2,1.6c-1.8,0-3.3-0.4-4.4-0.8c-0.6-0.2-1-0.4-1.3-0.6c-0.2-0.1-0.3-0.1-0.3-0.2l-0.1-0.1l0,0
					c-0.2-0.1-0.5-0.1-0.6,0.1C289.3,64.5,289.3,64.8,289.6,65L289.6,65z"/>
				<path class="st3" d="M315.1,58.1L315.1,58.1l0.1-0.1l0,0c1.3-2.6,3-3,3.9-3c0.2,0,0.4,0,0.5,0l0.1,0l0,0l0,0
					c0.1,0,0.3,0,0.3-0.2c0-0.1,0-0.3-0.2-0.3c0,0-0.3-0.1-0.8-0.1c-1.1,0-3,0.5-4.4,3.3l0,0l0,0l0,0l-0.1,0.1
					c-0.1,0.1,0,0.3,0.1,0.3C314.9,58.2,315,58.2,315.1,58.1L315.1,58.1z"/>
				<path class="st3" d="M316.3,56.2L316.3,56.2c0.2,0.1,0.6,0.4,0.9,0.8c0.3,0.4,0.6,0.9,0.6,1.4c0,0.4-0.2,0.9-0.6,1.5
					c-0.1,0.1-0.1,0.3,0,0.3c0.1,0.1,0.3,0.1,0.3,0c0.5-0.6,0.7-1.2,0.7-1.8c0-0.8-0.5-1.5-0.9-1.9c-0.5-0.4-0.9-0.7-0.9-0.7
					c-0.1-0.1-0.3,0-0.3,0.1C316.1,56,316.2,56.1,316.3,56.2L316.3,56.2z"/>
				<path class="st3" d="M276.6,57.9l-0.1-0.1l0,0c-1.4-2.8-3.3-3.3-4.4-3.3c-0.5,0-0.8,0.1-0.8,0.1c-0.1,0-0.2,0.2-0.2,0.3
					c0,0.1,0.2,0.2,0.3,0.2l0,0c0,0,0.3-0.1,0.6-0.1c0.9,0,2.6,0.4,3.9,3l0,0l0.1,0.1c0.1,0.1,0.2,0.2,0.3,0.1
					C276.6,58.1,276.6,58,276.6,57.9L276.6,57.9z"/>
				<path class="st3" d="M274.7,55.7c0,0-0.5,0.2-0.9,0.7c-0.4,0.4-0.9,1.1-0.9,1.9c0,0.6,0.2,1.2,0.7,1.8c0.1,0.1,0.2,0.1,0.3,0
					c0.1-0.1,0.1-0.2,0-0.3c-0.5-0.6-0.6-1.1-0.6-1.5c0-0.6,0.4-1.2,0.8-1.6c0.2-0.2,0.4-0.3,0.6-0.4l0.2-0.1l0.1,0
					c0.1-0.1,0.2-0.2,0.1-0.3C275,55.7,274.8,55.7,274.7,55.7L274.7,55.7z"/>
			</g>
		</g>
	</g>
</g>
<g>
	<g id="XMLID_14_">
		<g>
			<path class="st3" d="M114.6,271.6c0,0,22.1,11.2,22.1,30.3H35.5c0-19.1,22.1-30.3,22.1-30.3l0.5,0.2c0,0.1-0.1,0.2,0,0.3
				c0.1,0.3,0.3,0.4,0.6,0.4c0.2,0,0.5-0.1,0.7-0.1l26.1,10.8l27.8-11c0.3,0.1,0.5,0.1,0.7,0.2c0.3,0.1,0.5-0.1,0.6-0.4
				c0-0.1,0-0.2,0-0.3L114.6,271.6z"/>
			<path class="st1" d="M114.4,272c-0.1,0.3-0.3,0.4-0.6,0.4c-0.2,0-0.4-0.1-0.7-0.2l0.8-0.3l0.4-0.2
				C114.4,271.7,114.5,271.9,114.4,272z"/>
			<path class="st3" d="M106.6,229.5c-0.3-0.3-0.6-0.5-0.8-0.6c0-0.1,0.1-0.1,0.1-0.1v0c0.1-0.1,0.2-0.1,0.2-0.2
				c0.2,0.1,0.4,0.3,0.6,0.5c0.5,0.4,0.9,1.1,0.9,1.9c0,0.5-0.2,1.2-0.7,1.8c-0.1,0.1-0.2,0.1-0.3,0c-0.1-0.1-0.1-0.2,0-0.3
				c0.5-0.6,0.6-1.1,0.6-1.5C107.3,230.3,107,229.9,106.6,229.5z"/>
			<path class="st2" d="M104.2,235.4c0.4-1.8,0.6-3.4,0.8-4.8c0-0.2,0.1-0.4,0.1-0.6c0.3-0.5,0.5-0.8,0.8-1.1
				c0.2,0.1,0.5,0.3,0.8,0.6c0.3,0.4,0.6,0.9,0.6,1.4c0,0.4-0.2,0.9-0.6,1.5c-0.1,0.1-0.1,0.3,0,0.3c0.1,0.1,0.3,0.1,0.3,0
				c0.5-0.6,0.7-1.2,0.7-1.8c0-0.8-0.5-1.5-0.9-1.9c-0.2-0.2-0.5-0.4-0.6-0.5c0.9-0.8,1.7-1,2.3-1c0.2,0,0.4,0,0.5,0l0.1,0l0,0h0
				c0.1,0,0.3,0,0.3-0.2c0,0,0-0.1,0-0.1l1.1,0c0,0.2,0,0.3,0,0.5c0,1.9-0.6,4.1-1.5,5.4c-0.5,0.8-1.1,1.5-1.8,2
				c-0.6,0.5-1.3,0.7-1.8,0.7C105,235.9,104.6,235.8,104.2,235.4z"/>
			<path class="st3" d="M105.7,228.7c-0.1-0.1-0.2-0.2-0.1-0.3c0,0,0-0.1,0.1-0.1c0.1-0.1,0.2-0.1,0.3-0.1c0,0,0.1,0.1,0.3,0.2
				c-0.1,0.1-0.1,0.1-0.2,0.2v0c0,0-0.1,0.1-0.1,0.1C105.8,228.8,105.8,228.8,105.7,228.7L105.7,228.7z"/>
			<path class="st3" d="M105.6,228.3c1.1-1.1,2.2-1.3,2.9-1.3c0.5,0,0.8,0.1,0.8,0.1c0.1,0,0.2,0.1,0.2,0.2c0,0,0,0.1,0,0.1
				c0,0.1-0.2,0.2-0.3,0.2h0l0,0l-0.1,0c-0.1,0-0.3,0-0.5,0c-0.6,0-1.4,0.2-2.3,1c-0.2-0.1-0.3-0.2-0.3-0.2
				C105.8,228.3,105.7,228.3,105.6,228.3L105.6,228.3z"/>
			<path class="st2" d="M105,224.7C105,224.7,105,224.7,105,224.7c0.1-0.2,0.3-0.3,0.5-0.5c0.6-0.5,1.5-1.1,2.6-1.1
				c0.5,0,1.1,0.1,1.6,0.5c0.7,0.4,1.1,1,1.4,1.8c0.3,0.7,0.4,1.6,0.4,2.4c0,2.1-0.7,4.4-1.6,6l0,0c-0.6,0.9-1.3,1.7-2,2.3
				c-0.8,0.6-1.6,0.9-2.4,0.9c0,0,0,0,0,0c-0.2,0-0.4,0-1.5-0.5c0-0.2,0.1-0.4,0.1-0.5c1.5,1.3,3.9,0,5.4-2.4c1.7-2.7,2.5-8,0-9.5
				c-1.8-1-3.3,0.2-4.1,1l-0.4,0C105,224.9,105,224.8,105,224.7z"/>
			<path class="st2" d="M105.6,228.3c-0.2,0.2-0.3,0.3-0.5,0.5c0.1-1.1,0.2-2.2,0.2-3.1c0.1-0.2,0.4-0.5,0.9-0.9
				c0.5-0.4,1.2-0.8,1.8-0.8c0.4,0,0.7,0.1,1.1,0.3v0c0.4,0.3,0.8,0.7,1,1.3c0.2,0.5,0.3,1,0.3,1.6l-1.1,0c0-0.1-0.1-0.2-0.2-0.2
				c0,0-0.3-0.1-0.8-0.1C107.8,227,106.7,227.3,105.6,228.3z"/>
			<path class="st2" d="M104.9,225.6c0,0,0.2-0.2,0.5-0.5h0c0,0.2,0,0.4,0,0.6c0,0.1,0,0.1,0,0.2c0,0,0,0.1-0.1,0.1l0,0L104.9,225.6
				z"/>
			<path class="st3" d="M105.8,228.8c-0.3,0.3-0.5,0.7-0.8,1.1c0-0.4,0.1-0.7,0.1-1.1c0.2-0.2,0.3-0.4,0.5-0.5l0,0c0,0,0,0-0.1,0.1
				c-0.1,0.1,0,0.3,0.1,0.3L105.8,228.8C105.8,228.8,105.8,228.8,105.8,228.8z"/>
			<path class="st1" d="M105,225C105,225,105,225,105,225L105,225L105,225z"/>
			<path class="st1" d="M104.9,224.8C105,224.7,105,224.7,104.9,224.8c0.1,0,0,0.1,0,0.2h0v0C104.9,224.9,104.9,224.8,104.9,224.8z"
				/>
			<path class="st2" d="M104.9,225.6l0.4,0.3l0,0c0,0,0,0,0.1-0.1c-0.1,1-0.1,2-0.2,3.1c-0.2,0.3-0.4,0.6-0.6,0.9
				C104.7,228.3,104.8,226.9,104.9,225.6L104.9,225.6L104.9,225.6z"/>
			<path class="st2" d="M105.4,225c-0.3,0.3-0.5,0.5-0.5,0.5h0l0,0c0-0.2,0-0.4,0-0.6l0,0c0,0,0,0,0,0L105.4,225z"/>
			<path class="st2" d="M104.9,224.8C104.9,224.8,104.9,224.8,104.9,224.8c0.1,0,0.1,0.1,0.1,0.1
				C104.9,224.9,104.9,224.9,104.9,224.8z"/>
			<path class="st2" d="M104.8,225c0,0,0.1-0.1,0.1-0.1c0,0.1,0.1,0.1,0.1,0.1H104.8z"/>
			<polygon class="st1" points="104.9,225.5 104.9,225.6 104.9,225.6 			"/>
			<path class="st2" d="M104.9,225c0,0.2,0,0.4,0,0.6l-0.4-0.3c0,0,0.1-0.1,0.2-0.3L104.9,225L104.9,225z"/>
			<path class="st3" d="M105,229.9c-0.1,0.2-0.2,0.4-0.3,0.6h0l0,0l-0.1,0l-0.1-0.1c0-0.2,0.1-0.5,0.1-0.7c0.2-0.3,0.4-0.6,0.6-0.9
				C105.1,229.2,105.1,229.6,105,229.9z"/>
			<polygon class="st1" points="104.7,230.5 104.7,230.6 104.6,230.5 			"/>
			<path class="st1" d="M104.6,230.5l0.1,0.1L104.6,230.5c0.1,0.2,0,0.2-0.1,0.2c0-0.1,0-0.2,0-0.3L104.6,230.5z"/>
			<path class="st3" d="M104.6,229.8c0,0.2-0.1,0.4-0.1,0.7c0,0.1,0,0.2,0,0.3c0,0-0.1,0-0.1,0c-0.1-0.1-0.2-0.2-0.1-0.3l0,0l0,0
				C104.4,230.1,104.5,230,104.6,229.8z"/>
			<path class="st2" d="M105.4,225c0.7-0.8,2.3-2,4.1-1c2.5,1.5,1.7,6.8,0,9.5c-1.5,2.4-3.9,3.7-5.4,2.4c0-0.1,0.1-0.2,0.1-0.3
				l0.1-0.2c0.4,0.4,0.8,0.6,1.3,0.6c0.5,0,1.2-0.2,1.8-0.7c0.6-0.5,1.3-1.2,1.8-2c0.9-1.4,1.5-3.6,1.5-5.4c0-0.2,0-0.3,0-0.5
				c0-0.6-0.1-1.2-0.3-1.6c-0.2-0.6-0.6-1-1-1.3v0c-0.4-0.2-0.8-0.3-1.1-0.3c-0.7,0-1.3,0.4-1.8,0.8c-0.4,0.3-0.7,0.7-0.9,0.9
				c0-0.1,0-0.1,0-0.2C105.4,225.4,105.4,225.2,105.4,225L105.4,225z"/>
			<path class="st2" d="M104.2,235.4l-0.1,0.2c0,0.1,0,0.2-0.1,0.3c-0.1-0.1-0.3-0.3-0.4-0.4c0-0.1,0-0.1,0-0.1l0.3-0.2l0.1,0.1
				C104.1,235.3,104.1,235.3,104.2,235.4z"/>
			<path class="st2" d="M105,230.5c-0.2,1.5-0.4,3-0.8,4.8c-0.1-0.1-0.1-0.1-0.1-0.2l-0.1-0.1l-0.3,0.2c0.3-1.6,0.6-3.1,0.8-4.6
				c0.1,0,0.2-0.1,0.2-0.2l0,0h0c0.1-0.2,0.2-0.4,0.3-0.6C105,230.1,105,230.3,105,230.5z"/>
			<path class="st2" d="M103.7,235.5c0.1,0.2,0.3,0.3,0.4,0.4c0,0.2-0.1,0.4-0.1,0.5c-0.2-0.1-0.3-0.2-0.4-0.4
				C103.6,235.9,103.6,235.7,103.7,235.5z"/>
			<path class="st2" d="M103.7,235.3c0,0.1,0,0.1,0,0.1c0,0.2-0.1,0.4-0.1,0.6c-0.1-0.1-0.2-0.2-0.2-0.3l-0.1-0.1L103.7,235.3z"/>
			<path class="st3" d="M104.9,224.8C104.9,224.8,104.9,224.8,104.9,224.8c-0.7-1.1-4.3-8.4-2.9-14.6c0.4-1.9,0.1-4-0.9-5.6l0.5-0.2
				c3.9,6.2,3.3,14,3.3,14S105.1,221,104.9,224.8z"/>
			<path class="st1" d="M99.2,263.8L99.2,263.8l-0.5,0.1L99.2,263.8C99.2,263.8,99.2,263.8,99.2,263.8z"/>
			<path class="st2" d="M98.7,263.8v-11.6c0-0.2,0.1-0.3,0.1-0.5c0.2,0,0.4,0.2,0.4,0.5v11.5c0,0,0,0,0,0L98.7,263.8z"/>
			<path class="st2" d="M113.9,271.8c-2.4-0.6-14.3-3.7-15.2-8h0.5v-0.1c0.2,0.9,1,1.8,2.2,2.7c1.2,0.9,2.9,1.7,4.6,2.4
				c3.4,1.4,6.9,2.3,8.1,2.6c0.2,0,0.3,0.1,0.3,0.3L113.9,271.8z"/>
			<path class="st2" d="M108.2,270.7c-2.5-0.9-5.3-2-7.3-3.4c-1.3-0.9-2.4-2-2.6-3.3l0-0.1v-9.8c0.2-0.6,0.4-1.2,0.5-1.8v11.6
				c0.9,4.3,12.9,7.4,15.2,8l-0.8,0.3C112.1,271.9,110.2,271.4,108.2,270.7z"/>
			<path class="st3" d="M98.7,252.3c-0.1,0.6-0.3,1.3-0.5,1.8v-1.8c0-0.3,0.2-0.5,0.5-0.5c0,0,0.1,0,0.1,0
				C98.8,251.9,98.7,252.1,98.7,252.3z"/>
			<path class="st3" d="M97,214l3.6,2H90c0,0-1-3-1.1-3.3l5.2,0.4C95.1,213.3,96.1,213.5,97,214z"/>
			<path class="st2" d="M99.1,247.7c0,0-1.1,1.4-2.9,2.9c3.9-3.6,6.1-9.1,7.3-14.6c0.1,0.1,0.3,0.3,0.4,0.4
				c-0.6,2.6-1.4,5.1-2.5,7.5l-2.3,4C99.1,247.9,99.1,247.8,99.1,247.7z"/>
			<circle class="st3" cx="94" cy="223.2" r="1.8"/>
			<path class="st3" d="M91.3,225.2l4,3c0.1,0.1,0.1,0.2,0.1,0.4c-0.1,0.1-0.2,0.1-0.3,0l-4-3c-0.1-0.1-0.1-0.2-0.1-0.3
				C91,225.1,91.2,225.1,91.3,225.2z"/>
			<path class="st2" d="M89.1,254.4c2.9-0.7,5.4-2.3,7.1-3.8C94.3,252.5,92,253.8,89.1,254.4z"/>
			<path class="st2" d="M96.2,250.7c-1.7,1.4-4.2,3-7.1,3.8v-0.5h0h-0.1c2.7-0.6,5-1.9,6.8-3.6v0c1.9-1.8,3.5-4.1,4.7-6.7
				c1.2-2.6,2-5.4,2.6-8.2c0.4-1.7,0.6-3.4,0.8-5c0.2-1.7,0.4-3.4,0.4-4.9c0-0.2,0-0.4,0-0.6l0.3,0c-0.1,0.2-0.2,0.3-0.2,0.3
				l0.4,0.3v0c-0.1,1.3-0.2,2.7-0.4,4.2c-0.1,0.2-0.2,0.4-0.3,0.6l0,0l0,0c0,0.1,0,0.3,0.1,0.3c0,0,0.1,0,0.1,0
				c-0.2,1.5-0.4,3-0.8,4.6l-0.5,0.4l0.1,0.1c0.1,0.1,0.2,0.2,0.2,0.3C102.3,241.5,100.1,247,96.2,250.7L96.2,250.7z"/>
			<polygon class="st2" points="89.2,254.9 89.2,254.9 89.1,254.9 89.1,254.9 89.1,254.4 			"/>
			<path class="st2" d="M89.1,254.4L89,254c0,0,0,0,0,0l0,0h0.1h0V254.4z"/>
			<path class="st2" d="M96.6,251c-2,1.9-4.4,3.2-7.3,3.9h0l-0.1-0.5h0c2.8-0.6,5.2-2,7.1-3.8l0,0c1.9-1.5,2.9-2.9,2.9-2.9
				c0,0.1,0,0.2,0,0.3L96.6,251z"/>
			<path class="st2" d="M72.4,249.3c0.9,1.6,4.6,8,10.2,11.1c4.7,2.7,10.7,1.6,13.8-2.7c0.7-1,1.4-2.2,1.9-3.7v9.8l0,0.1
				c0.3,1.3,1.3,2.3,2.6,3.3c2,1.4,4.8,2.6,7.3,3.4c2,0.7,3.9,1.2,5,1.5l-27.8,11l-26.1-10.8c10-2.2,13-8.1,13-8.2l0.1-0.2V249.3z"
				/>
			<path class="st2" d="M85.4,254.8c1.3,0,2.6-0.1,3.7-0.4c-0.9,0.2-1.8,0.4-2.7,0.4C86,254.8,85.7,254.8,85.4,254.8z"/>
			<path class="st2" d="M86.3,248.2c0-0.1,0.2-0.2,0.3-0.2c0.1,0,0.2,0.2,0.2,0.3l-0.7,2.3c0,0.1-0.2,0.2-0.3,0.2
				c-0.1,0-0.2-0.2-0.2-0.3L86.3,248.2z"/>
			<path class="st2" d="M89.2,254.9c-1.2,0.3-2.4,0.4-3.8,0.4h-0.1c-0.1,0-0.1,0-0.2,0l0-0.5v0c0.1,0,0.2,0,0.2,0h0.1h0
				c0.3,0,0.6,0,1,0c1,0,1.9-0.2,2.7-0.4h0L89.2,254.9L89.2,254.9L89.2,254.9z"/>
			<path class="st2" d="M85.1,254.8l0,0.5c0,0,0,0-0.1,0L85.1,254.8z"/>
			<polygon class="st1" points="84.6,233 84.2,233.2 84.6,233 			"/>
			<path class="st3" d="M86.2,233.7l1.8-0.5c0.2-0.1,0.5,0.1,0.6,0.3s-0.1,0.5-0.3,0.6l-1.8,0.5c-0.2,0.1-0.4,0.1-0.6,0.1
				c-0.9,0-1.7-0.5-2.1-1.3l0,0c-0.1-0.2-0.2-0.5-0.2-0.8v-7.6c0-0.3,0.2-0.5,0.5-0.5c0.3,0,0.5,0.2,0.5,0.5v7.6
				c0,0.2,0,0.4,0.1,0.5l0,0l-0.4,0.2l0.4-0.2c0.2,0.5,0.7,0.8,1.2,0.8C85.9,233.8,86.1,233.8,86.2,233.7z"/>
			<path class="st3" d="M77.1,213.2l5.2-0.4c-0.2,0.2-1.1,3.3-1.1,3.3H70.6l3.6-2C75.1,213.5,76.1,213.3,77.1,213.2z"/>
			<path class="st3" d="M92.4,237.4c0,0-2.6,2.2-6.5,2.2c-3.8,0-6.9-2.2-6.9-2.2c-0.2-0.1-0.3-0.4-0.1-0.6c0.1-0.2,0.4-0.3,0.6-0.1
				l0,0l0.1,0.1c0.1,0.1,0.2,0.1,0.4,0.2c0.3,0.2,0.8,0.4,1.4,0.7c1.2,0.5,2.8,1,4.5,1c3.2,0,5.6-1.8,5.8-2l0,0
				c0.2-0.2,0.5-0.1,0.7,0.1C92.6,237,92.6,237.3,92.4,237.4z"/>
			<circle class="st3" cx="77" cy="223.2" r="1.8"/>
			<path class="st3" d="M75.6,227.8l4.6-3c0.1-0.1,0.3,0,0.3,0.1c0.1,0.1,0,0.3-0.1,0.3l-4.6,3c-0.1,0.1-0.3,0-0.3-0.1
				S75.5,227.9,75.6,227.8z"/>
			<path class="st2" d="M75.2,223.2c0,1,0.8,1.8,1.8,1.8c1,0,1.8-0.8,1.8-1.8s-0.8-1.8-1.8-1.8C76,221.4,75.2,222.2,75.2,223.2z
				 M70.6,216h10.5c0,0,1-3,1.1-3.3l-5.2,0.4c-1,0.1-2,0.4-2.9,0.8L70.6,216z M100.6,216l-3.6-2c-0.9-0.5-1.9-0.7-2.9-0.8l-5.2-0.4
				C89.1,213,90,216,90,216H100.6z M95.3,228.2l-4-3c-0.1-0.1-0.3-0.1-0.3,0.1c-0.1,0.1-0.1,0.3,0.1,0.3l4,3c0.1,0.1,0.3,0.1,0.3,0
				C95.4,228.4,95.4,228.3,95.3,228.2z M92.2,223.2c0,1,0.8,1.8,1.8,1.8c1,0,1.8-0.8,1.8-1.8s-0.8-1.8-1.8-1.8
				C93,221.4,92.2,222.2,92.2,223.2z M80.2,224.8l-4.6,3c-0.1,0.1-0.1,0.2-0.1,0.3s0.2,0.1,0.3,0.1l4.6-3c0.1-0.1,0.1-0.2,0.1-0.3
				C80.4,224.8,80.3,224.8,80.2,224.8z M70.6,203.6c1.5-1.7,3.2-2.8,4.7-3.6c1.1,3,4,7.4,12,9.2c-0.3-0.2-5.4-3.6-8.2-7.7
				c2.6,2.5,8,5.7,19.2,6.5c0,0,0.4-3-0.2-6.5c0.8,0.6,1.5,1.2,2.3,2l0,0c0.3,0.3,0.6,0.7,0.8,1.1c1,1.7,1.3,3.7,0.9,5.6
				c-1.4,6.1,2.2,13.4,2.8,14.7c0,0.1-0.1,0.1-0.1,0.1l-0.3,0c0,0.2,0,0.4,0,0.6c-0.1,1.5-0.2,3.1-0.4,4.9c-0.2,1.6-0.5,3.3-0.8,5
				c-0.6,2.8-1.4,5.6-2.6,8.2c-1.2,2.6-2.7,4.9-4.7,6.7v0c-1.9,1.7-4.1,3-6.8,3.6l0,0c0,0,0,0,0,0h0c-1.1,0.3-2.3,0.4-3.6,0.4h-0.1
				l-0.2,0h0h0c-4.3,0-7.6-1.5-10.3-3.9l0,0l0,0l0,0c-4-3.7-6.4-9.4-7.6-15.1v0c-0.8-3.5-1.2-6.9-1.4-9.8c0-0.3-0.1-0.7-0.1-1
				l-0.5,0c0.9-1.9,4.2-9.3,3.4-14.2c-0.3-2,0-4,1.1-5.6l0-0.1C70,204.3,70.3,203.9,70.6,203.6z M92.4,237.4
				c0.2-0.2,0.2-0.5,0.1-0.6c-0.2-0.2-0.5-0.2-0.7-0.1l0,0c-0.2,0.2-2.6,2-5.8,2c-1.7,0-3.3-0.5-4.5-1c-0.6-0.3-1.1-0.5-1.4-0.7
				c-0.2-0.1-0.3-0.2-0.4-0.2l-0.1-0.1l0,0c-0.2-0.1-0.5-0.1-0.6,0.1c-0.2,0.2-0.1,0.5,0.1,0.6c0,0,3.1,2.2,6.9,2.2
				C89.8,239.6,92.4,237.5,92.4,237.4z M88.3,234.1c0.2-0.1,0.4-0.3,0.3-0.6s-0.3-0.4-0.6-0.3l-1.8,0.5c-0.1,0-0.2,0-0.4,0
				c-0.5,0-1-0.3-1.2-0.8c-0.1-0.2-0.1-0.3-0.1-0.5v-7.6c0-0.3-0.2-0.5-0.5-0.5c-0.3,0-0.5,0.2-0.5,0.5v7.6c0,0.3,0.1,0.6,0.2,0.8
				l0,0c0.4,0.9,1.2,1.3,2.1,1.3c0.2,0,0.4,0,0.6-0.1L88.3,234.1z M86.8,248.4c0-0.1,0-0.3-0.2-0.3c-0.1,0-0.3,0-0.3,0.2l-0.7,2.3
				c0,0.1,0,0.3,0.2,0.3c0.1,0,0.3,0,0.3-0.2L86.8,248.4z"/>
			<path class="st2" d="M74.8,250.4c2.6,2.3,5.9,3.8,10.3,3.9h0h0l0.2,0h0.1c1.3,0,2.5-0.1,3.6-0.4h0l0.1,0.5h0h0
				c-1.1,0.3-2.4,0.4-3.7,0.4h0h-0.1c-0.1,0-0.2,0-0.2,0c0,0,0,0,0,0c-4.3-0.2-8.2-2.4-10.5-4c0,0,0,0,0,0c0,0,0,0,0,0l0,0
				L74.8,250.4L74.8,250.4L74.8,250.4z"/>
			<polygon class="st2" points="74.5,250.8 74.8,250.4 74.8,250.4 			"/>
			<path class="st2" d="M85.1,254.8c-4.4-0.1-7.8-1.6-10.5-4C76.9,252.5,80.8,254.6,85.1,254.8z"/>
			<path class="st2" d="M74.5,250.8C74.5,250.8,74.5,250.8,74.5,250.8C74.5,250.8,74.5,250.8,74.5,250.8z"/>
			<path class="st2" d="M74.6,250.8c2.7,2.4,6.1,3.9,10.5,4c0,0,0,0,0,0v0l-0.1,0.5c-4.5,0-8.1-1.6-10.8-4.1L74.6,250.8
				C74.5,250.8,74.5,250.8,74.6,250.8C74.5,250.8,74.5,250.8,74.6,250.8z"/>
			<polygon class="st2" points="74.5,250.8 74.2,251.2 74.2,251.2 74.2,251.2 			"/>
			<path class="st2" d="M72.4,248.5c0.6,0.8,1.3,1.6,2.1,2.3c-1-0.7-1.8-1.3-2.1-1.6v-0.2V248.5C72.4,248.5,72.4,248.5,72.4,248.5z"
				/>
			<path class="st2" d="M74.5,250.8l-0.3,0.4l0,0l0,0c-0.6-0.6-1.2-1.2-1.8-1.9v-0.1C72.7,249.4,73.4,250,74.5,250.8
				C74.5,250.8,74.5,250.8,74.5,250.8L74.5,250.8z"/>
			<path class="st3" d="M96.4,257.8c-3.2,4.3-9.2,5.4-13.8,2.7c-5.6-3.2-9.3-9.5-10.2-11.1v-0.1c0.6,0.7,1.2,1.3,1.8,1.9l0,0l0,0
				l0,0h0c2.7,2.5,6.3,4.1,10.8,4.1c0,0,0,0,0.1,0c0.1,0,0.2,0,0.2,0h0.1c1.3,0,2.6-0.1,3.8-0.4l0,0h0c2.9-0.6,5.4-2,7.3-3.9l2.6-3
				c0,1.4-0.1,2.6-0.3,3.7c0,0-0.1,0-0.1,0c-0.3,0-0.5,0.2-0.5,0.5v1.8C97.7,255.6,97.1,256.8,96.4,257.8z"/>
			<path class="st3" d="M72.4,249.3L72.4,249.3C72.3,249.3,72.3,249.2,72.4,249.3C72.3,249.2,72.3,249.2,72.4,249.3z"/>
			<path class="st2" d="M72.3,249.1c-0.1-0.1-0.1-0.1-0.2-0.2h0.1C72.2,248.9,72.2,249,72.3,249.1z"/>
			<path class="st2" d="M72.4,248.5c-0.1-0.1-0.2-0.3-0.3-0.4C72.2,248.1,72.3,248.3,72.4,248.5z"/>
			<path class="st2" d="M72.2,248.9c0,0,0.1,0.1,0.2,0.2v0.1c0,0-0.1-0.1-0.1-0.1c0,0,0,0,0,0C72.2,249,72.2,248.9,72.2,248.9z"/>
			<path class="st2" d="M72.4,248.9v0.2c-0.1-0.1-0.2-0.2-0.2-0.2h-0.1c-0.2-0.2-0.4-0.5-0.6-0.8c0.1-0.1,0.2-0.2,0.4-0.2
				c0.1,0,0.1,0,0.2,0c0.1,0.1,0.2,0.3,0.3,0.4c0,0,0,0,0,0V248.9z"/>
			<path class="st2" d="M71.9,263.8h-0.5v-0.1c0,0,0-0.1,0-0.1l0,0L71.9,263.8z"/>
			<path class="st2" d="M71.5,248.2c0.2,0.3,0.4,0.5,0.6,0.8h-0.2v14.9l-0.4-0.2l0,0c0,0,0,0,0,0.1v-14.8v-0.4
				C71.4,248.4,71.4,248.3,71.5,248.2z"/>
			<path class="st3" d="M75.4,200c-1.6,0.8-3.2,1.9-4.7,3.6c-0.3,0.3-0.6,0.7-0.9,1.1l-0.6-0.4c3-4.2,8.1-7.6,16.9-7.6
				c8.3,0,12.9,3.5,15.5,7.7l-0.5,0.2c-0.2-0.4-0.5-0.8-0.8-1.1l0,0c-0.7-0.8-1.5-1.5-2.3-2c0.5,3.6,0.2,6.5,0.2,6.5
				c-11.1-0.8-16.6-4-19.2-6.5c2.9,4.1,7.9,7.5,8.2,7.7C79.3,207.4,76.4,203.1,75.4,200z"/>
			<path class="st2" d="M67,235.7c-0.1,0.1-0.1,0.2-0.2,0.2c0-0.1-0.1-0.3-0.1-0.4L67,235.7z"/>
			<path class="st2" d="M66.8,235.9c1,4.3,2.7,8.7,5.3,12.1c-0.1,0-0.1,0-0.2,0c-0.1,0-0.3,0.1-0.4,0.2c-0.9-1.3-1.8-2.7-2.5-4.2
				c-0.9-1.9-1.7-4-2.7-7.7C66.5,236.2,66.7,236.1,66.8,235.9z"/>
			<path class="st2" d="M66.7,235.5c0,0.1,0.1,0.3,0.1,0.4c-0.1,0.1-0.3,0.3-0.4,0.4c0-0.2-0.1-0.4-0.1-0.5c0.1-0.1,0.2-0.2,0.3-0.4
				L66.7,235.5z"/>
			<path class="st2" d="M66.6,235.4L66.6,235.4c0.1,0,0.1,0.1,0.1,0.1L66.6,235.4z"/>
			<path class="st2" d="M66.2,235.1l0.4,0.3c-0.1,0.1-0.2,0.3-0.3,0.4c0-0.1,0-0.2-0.1-0.3C66.2,235.4,66.1,235.3,66.2,235.1
				C66.1,235.2,66.2,235.2,66.2,235.1z"/>
			<path class="st3" d="M65.8,230.7c0-0.3-0.1-0.5-0.1-0.8c0.1,0.1,0.2,0.3,0.2,0.5C66,230.5,65.9,230.7,65.8,230.7z"/>
			<path class="st2" d="M74.8,250.4l-0.3,0.4c0,0,0,0,0,0c-0.8-0.7-1.5-1.5-2.1-2.3c0-0.2-0.1-0.4-0.3-0.4
				c-2.6-3.4-4.2-7.8-5.3-12.1c0.1-0.1,0.1-0.1,0.2-0.2l-0.3-0.2c0,0,0-0.1,0-0.1c-0.4-1.6-0.6-3.2-0.9-4.7c0.1-0.1,0.2-0.2,0.1-0.3
				c-0.1-0.2-0.2-0.3-0.2-0.5c-0.2-1.6-0.4-3-0.5-4.4v0l0.4-0.3c0,0-0.2-0.2-0.4-0.5c0-0.1,0-0.1,0-0.2l0.5,0c0,0.3,0,0.6,0.1,1
				c0.2,2.9,0.6,6.3,1.4,9.8v0C68.4,240.9,70.7,246.7,74.8,250.4z"/>
			<path class="st2" d="M65.8,230.7c0.2,1.5,0.5,3.1,0.9,4.7l-0.1,0l-0.4-0.3c0,0,0,0.1-0.1,0.1c-0.4-1.7-0.7-3.5-0.9-5.1
				c0.1,0.2,0.2,0.3,0.3,0.5C65.5,230.7,65.7,230.8,65.8,230.7z"/>
			<path class="st2" d="M65.6,225.3l-0.4,0.3c0-0.3,0-0.5-0.1-0.8C65.5,225,65.6,225.3,65.6,225.3z"/>
			<path class="st3" d="M65.7,229.9c0,0.3,0.1,0.5,0.1,0.8c-0.1,0.1-0.3,0-0.3-0.1c-0.1-0.2-0.2-0.4-0.3-0.5
				c-0.1-0.4-0.1-0.8-0.1-1.1C65.3,229.3,65.5,229.6,65.7,229.9z"/>
			<polygon class="st1" points="65.2,225.5 65.2,225.6 65.2,225.6 			"/>
			<path class="st2" d="M65.2,225.6c0.1,1.3,0.2,2.8,0.5,4.4c-0.2-0.4-0.4-0.7-0.6-1c-0.1-1.1-0.2-2.2-0.3-3.2l0,0.1l0,0L65.2,225.6
				L65.2,225.6L65.2,225.6z"/>
			<path class="st3" d="M69.7,204.7c-1.1,1.6-1.4,3.7-1.1,5.6c0.7,4.9-2.5,12.3-3.4,14.2c-0.2-3.7-0.1-6.2-0.1-6.2
				s-0.4-7.8,4.1-14.1L69.7,204.7L69.7,204.7z"/>
			<path class="st2" d="M65.2,224.6c0,0.1,0,0.1,0,0.2c0,0,0,0-0.1-0.1C65.1,224.6,65.1,224.6,65.2,224.6z"/>
			<path class="st3" d="M65.2,224.6c0,0,0,0.1-0.1,0.1c0,0-0.1-0.1-0.1-0.1L65.2,224.6z"/>
			<path class="st3" d="M65.1,224.7c-0.1,0.2-0.2,0.4-0.2,0.4c0-0.1,0-0.3-0.1-0.4L65.1,224.7C65.1,224.6,65.1,224.6,65.1,224.7z"/>
			<path class="st3" d="M64.8,224.4c-0.1-0.6-0.1-1.2-0.1-1.8v0c0-0.9,0-1.8,0-2.7v-13c0-3.4,2-6.6,5.2-8l5-2.6
				c1-4.3,5.2-6.2,7.3-6.9c0.7-0.2,1.3-0.3,2-0.4c7.4-0.2,11,3.7,12.7,7.9l3.6,1.9c3.1,1.4,5.2,4.5,5.2,8l-0.5,16.3c0-0.2,0-0.9,0-2
				c0,1.3-0.1,2.5-0.2,3.6c0,0,0,0,0,0c0,0,0,0-0.1,0.1c0.2-3.8,0-6.4,0-6.4s0.6-7.8-3.3-14c-2.6-4.2-7.3-7.7-15.5-7.7
				c-8.8,0-13.9,3.4-16.9,7.6c-4.5,6.3-4.1,14.1-4.1,14.1s-0.1,2.5,0.1,6.2l-0.1,0C65,224.5,64.9,224.5,64.8,224.4
				C64.9,224.4,64.9,224.4,64.8,224.4z"/>
			<path class="st3" d="M64.9,224.4c0.1,0.1,0.1,0.1,0.2,0.2l-0.1,0C64.9,224.5,64.9,224.5,64.9,224.4z"/>
			<path class="st2" d="M65.2,224.7c0,0.3,0,0.5,0.1,0.8l0,0h0c0,0-0.2-0.3-0.5-0.6c0-0.1,0-0.2,0-0.3l0.2,0c0,0.2,0,0.3,0.1,0.4
				C64.9,225,65,224.9,65.2,224.7C65.1,224.7,65.2,224.7,65.2,224.7z"/>
			<path class="st2" d="M64.7,224.9c0.3,0.3,0.5,0.6,0.5,0.6l-0.4,0.3l0,0l0-0.1v0c0-0.1,0-0.1,0-0.2
				C64.7,225.4,64.7,225.1,64.7,224.9z"/>
			<path class="st3" d="M65.2,230.1c-0.3-0.5-0.6-0.9-0.9-1.3l0.1-0.1l0.1,0c0.1-0.1,0.2-0.2,0.1-0.3l0,0c0.2,0.2,0.3,0.4,0.5,0.6
				C65.1,229.3,65.2,229.7,65.2,230.1z"/>
			<path class="st3" d="M64.2,228.7c-0.1-0.1-0.1-0.1-0.2-0.2c0.2-0.1,0.3-0.2,0.3-0.2c0.1-0.1,0.3,0,0.3,0.1c0.1,0.1,0,0.3-0.1,0.3
				l-0.1,0l-0.1,0.1C64.3,228.8,64.2,228.7,64.2,228.7L64.2,228.7z"/>
			<path class="st3" d="M63.1,232.7c-0.5-0.6-0.7-1.2-0.7-1.8c0-0.8,0.5-1.5,0.9-1.9c0.2-0.2,0.5-0.4,0.6-0.5
				c0.1,0.1,0.1,0.1,0.2,0.2h0c0,0,0.1,0.1,0.1,0.1l-0.1,0.1c-0.2,0.1-0.4,0.3-0.6,0.4c-0.4,0.4-0.8,0.9-0.8,1.6
				c0,0.4,0.2,0.9,0.6,1.5c0.1,0.1,0.1,0.3,0,0.3C63.4,232.8,63.2,232.8,63.1,232.7z"/>
			<path class="st3" d="M64,228.5c-0.9-0.8-1.7-1-2.3-1c-0.3,0-0.6,0.1-0.6,0.1h0c-0.1,0-0.3,0-0.3-0.2c0,0,0-0.1,0-0.1
				c0-0.1,0.1-0.2,0.2-0.2c0,0,0.3-0.1,0.8-0.1c0.4,0,0.8,0.1,1.3,0.2c0.5,0.2,1,0.5,1.6,1.1c0,0,0,0,0.1,0.1l0,0
				c-0.1-0.1-0.2-0.2-0.3-0.1C64.2,228.3,64.1,228.4,64,228.5z"/>
			<path class="st2" d="M64.5,228.3c-0.5-0.5-1.1-0.9-1.6-1.1c-0.5-0.2-0.9-0.2-1.3-0.2c-0.5,0-0.8,0.1-0.8,0.1
				c-0.1,0-0.2,0.1-0.2,0.2l-1.1,0c0-0.6,0.1-1.2,0.3-1.6c0.2-0.6,0.5-1,1-1.3v0c0.4-0.2,0.8-0.3,1.1-0.3c0.7,0,1.4,0.4,1.9,0.8
				c0.3,0.2,0.5,0.4,0.6,0.6c0.1,0.1,0.1,0.1,0.2,0.2v0c0.1,1,0.2,2.1,0.3,3.2C64.9,228.8,64.7,228.6,64.5,228.3
				C64.6,228.4,64.5,228.4,64.5,228.3z"/>
			<path class="st2" d="M61.7,227.5c0.6,0,1.4,0.2,2.3,1c-0.2,0.1-0.4,0.3-0.6,0.5c-0.5,0.4-0.9,1.1-0.9,1.9c0,0.5,0.2,1.2,0.7,1.8
				c0.1,0.1,0.2,0.1,0.3,0c0.1-0.1,0.1-0.2,0-0.3c-0.5-0.6-0.6-1.1-0.6-1.5c0-0.6,0.4-1.2,0.8-1.6c0.2-0.2,0.4-0.3,0.6-0.4l0.1-0.1
				c0.3,0.3,0.6,0.8,0.9,1.3c0.2,1.6,0.5,3.4,0.9,5.1c-0.4,0.5-0.9,0.7-1.4,0.7c-0.5,0-1.2-0.2-1.8-0.7c-0.6-0.5-1.3-1.2-1.8-2
				c-0.4-0.7-0.8-1.6-1.1-2.5c-0.3-0.9-0.4-2-0.4-2.9c0-0.2,0-0.3,0-0.5l1.1,0c0,0,0,0.1,0,0.1c0,0.1,0.2,0.2,0.3,0.2h0
				C61.1,227.6,61.3,227.5,61.7,227.5z"/>
			<path class="st2" d="M72.4,263.8l-0.1,0.2c0,0.1-3,6-13,8.2l-0.8-0.3c10.4-2.1,13.4-8.1,13.4-8.1v-14.9h0.2
				c0.1,0.1,0.1,0.1,0.2,0.2c0,0,0,0,0,0c0,0,0.1,0.1,0.1,0.2V263.8z"/>
			<path class="st2" d="M71.9,263.8c0,0-3,6-13.4,8.1l-0.4-0.2c0.1-0.1,0.2-0.3,0.4-0.3c9.4-1.9,12.6-7,13-7.7v0.1H71.9z"/>
			<path class="st2" d="M60.7,224c1.7-1,3.2,0.1,4,0.9c0,0.2,0,0.4,0,0.6c0,0.1,0,0.1,0,0.2c0,0-0.1-0.1-0.2-0.2
				c-0.1-0.2-0.4-0.4-0.6-0.6c-0.5-0.4-1.2-0.8-1.9-0.8c-0.4,0-0.7,0.1-1.1,0.3v0c-0.4,0.3-0.8,0.7-1,1.3c-0.2,0.5-0.3,1-0.3,1.6
				c0,0.2,0,0.3,0,0.5c0,0.9,0.2,2,0.4,2.9c0.3,1,0.6,1.9,1.1,2.5c0.5,0.8,1.2,1.5,1.8,2c0.6,0.5,1.3,0.7,1.8,0.7
				c0.5,0,1-0.2,1.4-0.7c0,0.1,0,0.2,0.1,0.3c0,0.1,0,0.2,0.1,0.3c-1.5,1.5-4,0.2-5.5-2.3C59,230.8,58.3,225.5,60.7,224z"/>
			<path class="st2" d="M60.3,233.7c-1-1.6-1.6-3.9-1.6-6c0-0.9,0.1-1.7,0.4-2.4c0.3-0.7,0.7-1.4,1.4-1.8c0.5-0.3,1.1-0.5,1.6-0.5
				c1.1,0,2,0.6,2.6,1.1c0.1,0.1,0.1,0.1,0.2,0.2c0,0,0,0,0,0c0,0.1,0,0.1,0,0.2l-0.2,0c0,0.1,0,0.2,0,0.3c-0.8-0.8-2.3-1.9-4-0.9
				c-2.5,1.5-1.7,6.8,0,9.5c1.6,2.5,4,3.8,5.5,2.3c0,0.2,0.1,0.4,0.1,0.5c-0.5,0.4-1.1,0.6-1.7,0.6c-0.8,0-1.6-0.4-2.4-0.9
				C61.6,235.4,60.9,234.7,60.3,233.7z"/>
			<path class="st1" d="M58.6,272.4c-0.3,0.1-0.5-0.1-0.6-0.4c0-0.1,0-0.2,0-0.3l0.4,0.2l0.8,0.3C59,272.3,58.8,272.4,58.6,272.4z"
				/>
		</g>
		<g>
		</g>
	</g>
</g>
<g>
	<g id="XMLID_13_">
		<g>
			<path class="st3" d="M561.7,297v0.5h-0.5c0-0.2,0-0.3,0-0.5H561.7z"/>
			<path class="st3" d="M561.2,297H460.9c0-2,0.3-4,0.8-5.8c0,0,0-0.1,0-0.1h98.5c0,0,0,0.1,0,0.1
				C560.8,292.9,561.1,294.7,561.2,297z"/>
			<path class="st3" d="M558.5,286.1l2.3,5h-0.5C559.8,289.3,559.2,287.7,558.5,286.1L558.5,286.1z"/>
			<path class="st3" d="M558.4,286.1h-94.7c1.2-2.3,2.6-4.4,4.2-6.4c0.1-0.1,0.2-0.2,0.3-0.3H554c0.1,0.1,0.2,0.2,0.3,0.3
				C555.8,281.7,557.2,283.8,558.4,286.1z"/>
			<path class="st3" d="M549.5,274.9c0.2,0.2,0.5,0.1,0.6,0l4.4,4.6H554C552.5,277.7,551,276.2,549.5,274.9L549.5,274.9z"/>
			<path class="st3" d="M549.8,274.5L549.8,274.5l-0.5,0c0-0.1,0-0.2,0.1-0.3c0.2-0.2,0.5-0.2,0.7,0h0c0.2,0.2,0.2,0.5,0,0.7
				c0,0,0,0,0,0L549.8,274.5z"/>
			<path class="st3" d="M550.2,274.8c-0.2,0.2-0.4,0.2-0.6,0c0,0,0,0,0,0c-0.1-0.1-0.1-0.2-0.1-0.4h0.5l0,0L550.2,274.8z"/>
			<path class="st4" d="M549.5,274.9c1.5,1.3,3,2.9,4.4,4.6h-85.8c1.6-1.9,3-3.3,4.4-4.6c0,0,0,0,0,0l0,0c0.1-0.1,0.3-0.3,0.4-0.4
				h76C549.2,274.6,549.4,274.7,549.5,274.9C549.5,274.9,549.5,274.9,549.5,274.9L549.5,274.9z"/>
			<path class="st3" d="M549.1,274.5h0.3c0,0.1,0,0.3,0.1,0.4C549.4,274.7,549.2,274.6,549.1,274.5z"/>
			<path class="st3" d="M539.6,267.3v0.5h-0.1c-0.1,0-0.1-0.1-0.1-0.1L539.6,267.3z"/>
			<path class="st3" d="M538.8,267.7h0.6c0,0,0.1,0,0.1,0.1c1,0.5,5.1,2.8,9.5,6.7h-76c2.4-2.2,4.8-3.8,6.6-5
				c0.9-0.6,1.7-1.1,2.3-1.4c0.3-0.2,0.5-0.3,0.6-0.3c0.1-0.1,0.2-0.1,0.2-0.1c0.2-0.1,0.3-0.3,0.3-0.4h55.3
				C538.3,267.5,538.6,267.7,538.8,267.7z"/>
			<path class="st3" d="M538.8,267.3c0,0-0.2,0-0.5-0.1c0.1-0.2,0.2-0.4,0.5-0.4h0.8c0.1,0,0.2,0,0.2,0.1c0,0,5,2.6,10.3,7.3
				c0,0,0,0,0,0c-0.2-0.2-0.5-0.2-0.7,0c-0.1,0.1-0.1,0.2-0.1,0.3h-0.3c-4.4-3.9-8.5-6.2-9.5-6.7c-0.1,0-0.1-0.1-0.1-0.1h0.1v-0.5
				l-0.2,0.4c0,0,0,0,0.1,0.1h-0.6c-0.3,0-0.5-0.2-0.5-0.5H538.8z"/>
			<path class="st3" d="M538.8,267.3h-0.5c0,0,0-0.1,0-0.1C538.7,267.2,538.8,267.3,538.8,267.3z"/>
			<path class="st3" d="M531.8,224.7c0.4,0.4,0.9,1.1,0.9,1.9c0,0.6-0.2,1.2-0.7,1.8c-0.1,0.1-0.2,0.1-0.3,0c-0.1-0.1-0.1-0.2,0-0.3
				c0.5-0.6,0.6-1.1,0.6-1.5c0-0.6-0.3-1-0.6-1.4c-0.3-0.3-0.6-0.5-0.8-0.6c0-0.1,0.1-0.1,0.1-0.1c0.1-0.1,0.1-0.2,0.2-0.2
				C531.3,224.3,531.6,224.4,531.8,224.7z"/>
			<path class="st3" d="M530.6,224.1C530.6,224,530.6,224,530.6,224.1c0.2-0.1,0.3-0.1,0.3-0.1c0,0,0.1,0.1,0.3,0.2
				c-0.1,0.1-0.1,0.1-0.2,0.2c0,0-0.1,0.1-0.1,0.1c0,0-0.1,0-0.1-0.1l-0.1,0C530.5,224.3,530.5,224.2,530.6,224.1z"/>
			<path class="st3" d="M533.4,223.2c-0.6,0-1.4,0.2-2.3,1c-0.2-0.1-0.3-0.2-0.3-0.2c-0.1,0-0.2,0-0.2,0l0,0c1-1.1,2.1-1.3,2.8-1.3
				c0.5,0,0.8,0.1,0.8,0.1c0.1,0,0.2,0.2,0.2,0.3c0,0.1-0.2,0.2-0.3,0.2h0l0,0l-0.1,0C533.8,223.2,533.6,223.2,533.4,223.2z"/>
			<path class="st1" d="M529.8,219.1c0.1-0.1,0.1-0.2,0-0.3l0.2-0.1c0,0.3,0,0.6,0,0.9C529.9,219.4,529.8,219.2,529.8,219.1
				L529.8,219.1z"/>
			<path class="st2" d="M528.6,231.2c0.3-1.6,0.6-3.2,0.8-4.7c0.1,0,0.2-0.1,0.2-0.1l0,0h0c0.4-0.8,0.8-1.3,1.2-1.8
				c0.2,0.1,0.5,0.4,0.8,0.6c0.3,0.4,0.6,0.9,0.6,1.4c0,0.4-0.2,0.9-0.6,1.5c-0.1,0.1-0.1,0.3,0,0.3c0.1,0.1,0.3,0.1,0.3,0
				c0.5-0.6,0.7-1.2,0.7-1.8c0-0.8-0.5-1.5-0.9-1.9c-0.2-0.2-0.5-0.4-0.6-0.5c0.9-0.8,1.7-1,2.3-1c0.2,0,0.4,0,0.5,0l0.1,0l0,0h0
				c0.1,0,0.3,0,0.3-0.2c0-0.1,0-0.3-0.2-0.3c0,0-0.3-0.1-0.8-0.1c-0.7,0-1.8,0.2-2.8,1.3c0,0,0,0-0.1,0c-0.3,0.3-0.5,0.6-1.1,1.5
				c0.2-1.5,0.3-2.9,0.4-4.2h0c0,0,2.1-3,4.5-1.5c2.5,1.4,1.7,6.8,0,9.5C532.8,231.8,530.1,233.1,528.6,231.2z"/>
			<path class="st1" d="M529.8,218.8c0.1,0.1,0.1,0.2,0,0.3l0,0c0-0.1-0.1-0.1-0.1-0.2L529.8,218.8z"/>
			<path class="st1" d="M529.7,219.1l-3.2,2.5c0,0,0-0.1,0-0.1c0-0.1,0.1-0.2,0.1-0.3l3-2.3C529.7,219,529.7,219,529.7,219.1z"/>
			<path class="st1" d="M529.5,218.7c0.1,0,0.2,0,0.3,0.1l-0.2,0.1C529.6,218.8,529.6,218.8,529.5,218.7z"/>
			<path class="st1" d="M529.6,218.9l-3,2.3l0.1-0.4l2.7-2.2c0,0,0,0,0,0C529.6,218.8,529.6,218.8,529.6,218.9z"/>
			<path class="st3" d="M529.6,226.3c0,0.1-0.1,0.1-0.2,0.1c0-0.1,0-0.2,0-0.3c0-0.2,0.1-0.4,0.1-0.7c0.6-0.9,0.8-1.2,1.1-1.5
				c0,0,0,0,0.1,0l0,0c0,0-0.1,0.1-0.1,0.1c-0.1,0.1,0,0.3,0.1,0.3l0.1,0c0,0,0.1,0,0.1,0.1C530.4,224.9,530,225.5,529.6,226.3
				L529.6,226.3L529.6,226.3z"/>
			<path class="st3" d="M529.2,226l0.3-0.6c0,0.2-0.1,0.4-0.1,0.7c0,0.1,0,0.2,0,0.3c0,0-0.1,0-0.1,0
				C529.2,226.3,529.1,226.2,529.2,226L529.2,226z"/>
			<path class="st1" d="M526.5,221.1l0.3-0.2l-0.1,0.4l-0.3,0.2h0C526.4,221.3,526.4,221.2,526.5,221.1z"/>
			<path class="st1" d="M526.6,221.5C526.6,221.5,526.6,221.5,526.6,221.5l-0.1,0.1c-0.1,0.1-0.1,0.1-0.2,0c0-0.1,0.1-0.1,0.1-0.2h0
				l0.3-0.2C526.7,221.3,526.6,221.4,526.6,221.5z"/>
			<path class="st1" d="M526.2,221.6c-0.1-0.1-0.1-0.2,0-0.2c0,0,0-0.1,0.1-0.1l0.2-0.2c0,0.1-0.1,0.2-0.1,0.4c0,0.1,0,0.1-0.1,0.2
				C526.3,221.6,526.2,221.6,526.2,221.6z"/>
			<path class="st2" d="M526.9,219.4c0-3.7-2.6-6.8-6-7.7h4.7l0.4-0.2c1.4,3.1,2.8,5.8,3.6,7.1c0,0,0,0,0,0l-2.7,2.2
				C526.9,219.9,526.9,219.7,526.9,219.4z"/>
			<path class="st2" d="M497.1,244.6c0,0,4,7.9,10.4,11.5c4.7,2.7,10.7,1.6,13.8-2.7c1-1.4,1.9-3.2,2.3-5.5v11.6
				c0.9,4.2,12.2,7,14.7,7.6c0,0,0,0.1,0,0.1H483c0,0,0-0.1,0-0.1c10.6-2,13.8-7.6,13.8-7.6v-14.9H497.1z"/>
			<path class="st1" d="M526.7,219.4c0-4.2-3.4-7.7-7.7-7.7h1.9c3.5,0.8,6,3.9,6,7.7c0,0.3,0,0.6-0.1,1.5l-0.3,0.2
				C526.6,220.5,526.7,220,526.7,219.4z"/>
			<path class="st3" d="M519.1,208.9c1,0.1,2,0.4,2.9,0.8l3.6,2h-4.7c-0.6-0.1-1.2-0.2-1.9-0.2s-1.3,0.1-1.9,0.2H515
				c0,0-1-3-1.1-3.3L519.1,208.9z"/>
			<circle class="st3" cx="519" cy="218.9" r="1.8"/>
			<path class="st1" d="M519,211.5c0.6,0,1.3,0.1,1.9,0.2H519h0V211.5z"/>
			<path class="st1" d="M519,211.7c4.2,0,7.7,3.4,7.7,7.7c0,0.6-0.1,1.2-0.2,1.7l-0.2,0.2c0,0-0.1,0.1-0.1,0.1h0
				c0.2-0.6,0.3-1.3,0.3-2c0-2-0.8-3.9-2.2-5.3c-1.3-1.3-3.2-2.2-5.3-2.2L519,211.7L519,211.7z"/>
			<path class="st1" d="M519,211.7h-1.9c0.6-0.1,1.2-0.2,1.9-0.2V211.7z"/>
			<path class="st2" d="M517.2,218.9c0,1,0.8,1.8,1.8,1.8c1,0,1.8-0.8,1.8-1.8s-0.8-1.8-1.8-1.8C518,217.1,517.2,217.9,517.2,218.9z
				 M519,226.8c-2.1,0-3.9-0.8-5.3-2.2c-1.3-1.3-2.2-3.2-2.2-5.3c0-2,0.8-3.9,2.2-5.3c1.3-1.3,3.2-2.2,5.3-2.2c2,0,3.9,0.8,5.3,2.2
				c1.3,1.3,2.2,3.2,2.2,5.3c0,0.7-0.1,1.3-0.3,2c0,0,0,0,0,0c-0.4,1.6-1.4,2.9-2.6,3.9C522.3,226.2,520.7,226.8,519,226.8z
				 M520.3,223.9l-4-3c-0.1-0.1-0.3-0.1-0.3,0.1c-0.1,0.1-0.1,0.3,0.1,0.3l4,3c0.1,0.1,0.3,0.1,0.3-0.1
				C520.4,224.1,520.4,224,520.3,223.9z"/>
			<path class="st3" d="M516.3,220.9l4,3c0.1,0.1,0.1,0.2,0.1,0.3c-0.1,0.1-0.2,0.1-0.3,0.1l-4-3c-0.1-0.1-0.1-0.2-0.1-0.3
				C516,220.8,516.2,220.8,516.3,220.9z"/>
			<path class="st1" d="M511.3,219.1c0.2-4.1,3.5-7.4,7.7-7.4v0.2c-2.1,0-3.9,0.8-5.3,2.2c-1.3,1.3-2.2,3.2-2.2,5.3h0
				c0-0.1,0-0.1-0.1-0.2C511.4,219.2,511.4,219.1,511.3,219.1z"/>
			<path class="st1" d="M511.6,219.4c0,2.1,0.8,3.9,2.2,5.3c1.3,1.3,3.2,2.2,5.3,2.2c1.7,0,3.3-0.6,4.5-1.5c1.3-1,2.2-2.3,2.6-3.9
				c0,0,0,0,0,0h0c0,0.1,0,0.2,0,0.2c0,0,0.1,0.1,0.1,0.1c-1,3.1-3.9,5.4-7.3,5.4c-4.2,0-7.5-3.3-7.7-7.4c0.1,0,0.1,0,0.2-0.1
				S511.6,219.4,511.6,219.4L511.6,219.4z"/>
			<path class="st1" d="M511.5,219.2c0,0,0.1,0.1,0.1,0.2c0,0.1,0,0.1-0.1,0.2s-0.1,0.1-0.2,0.1c0-0.1,0-0.2,0-0.2
				c0-0.1,0-0.2,0-0.3C511.4,219.1,511.4,219.2,511.5,219.2z"/>
			<path class="st1" d="M511.1,218.9c0.2-3.5,2.7-6.4,6-7.2h1.9c-4.1,0-7.5,3.3-7.7,7.4C511.3,219,511.2,218.9,511.1,218.9z"/>
			<path class="st1" d="M519,227.3c-4.3,0-7.8-3.5-7.9-7.8c0,0,0,0,0.1,0.1c0,0.1,0.1,0.1,0.2,0.1c0.1,4.1,3.5,7.4,7.7,7.4
				c3.4,0,6.3-2.3,7.3-5.4c0.1,0,0.2,0,0.2,0l0.1,0C525.6,224.9,522.6,227.3,519,227.3z"/>
			<path class="st1" d="M511.3,219.4c-0.1-0.1-0.1-0.1-0.2-0.2c0-0.1,0-0.2,0-0.3c0.1,0.1,0.2,0.1,0.2,0.2
				C511.3,219.2,511.3,219.3,511.3,219.4z"/>
			<path class="st1" d="M511.1,219.2c0.1,0.1,0.1,0.1,0.2,0.2c0,0.1,0,0.2,0,0.2c-0.1,0-0.1,0-0.2-0.1c0,0,0,0-0.1-0.1
				c0,0,0-0.1,0-0.1C511.1,219.3,511.1,219.2,511.1,219.2z"/>
			<path class="st1" d="M509.6,228.7C509.6,228.7,509.6,228.7,509.6,228.7l-0.4,0.2L509.6,228.7z"/>
			<path class="st3" d="M508.7,229c-0.1-0.2-0.2-0.5-0.2-0.8v-7.7c0-0.3,0.2-0.5,0.5-0.5s0.5,0.2,0.5,0.5v7.7c0,0.2,0,0.3,0.1,0.5
				l-0.4,0.2l0.4-0.2c0.2,0.5,0.7,0.7,1.2,0.7c0.1,0,0.2,0,0.4-0.1l1.8-0.5c0.2-0.1,0.5,0.1,0.6,0.3c0.1,0.2-0.1,0.5-0.3,0.6
				l-1.8,0.5c-0.2,0.1-0.4,0.1-0.6,0.1C509.9,230.4,509.1,229.9,508.7,229L508.7,229z"/>
			<path class="st1" d="M511.1,219.2c-1.3-1.1-2.5-0.3-3,0c0-0.1,0-0.2,0-0.3c0.4-0.2,0.9-0.5,1.6-0.5c0.5,0,1,0.1,1.4,0.5
				C511.1,219,511.1,219.1,511.1,219.2z"/>
			<path class="st1" d="M508.1,219.2c0.5-0.4,1.8-1.1,3,0c0,0.1,0,0.1,0,0.2c0,0,0,0.1,0,0.1c-0.5-0.5-1-0.6-1.4-0.6
				c-0.8,0-1.4,0.5-1.6,0.6c0,0,0-0.1,0-0.1C508.1,219.3,508.1,219.3,508.1,219.2z"/>
			<path class="st1" d="M508.1,219.2c0,0.1,0,0.1,0,0.2h-0.2C507.8,219.4,507.9,219.3,508.1,219.2z"/>
			<path class="st1" d="M507.8,219.6c0-0.1,0-0.2,0-0.2h0.2c0,0,0,0.1,0,0.1c0,0,0,0,0,0l0,0C507.9,219.6,507.9,219.6,507.8,219.6z"
				/>
			<path class="st1" d="M507.8,219.1c0.1,0,0.1-0.1,0.2-0.2c0,0.1,0,0.2,0,0.3c-0.1,0.1-0.2,0.2-0.2,0.2
				C507.8,219.3,507.8,219.2,507.8,219.1z"/>
			<path class="st1" d="M507.8,219.1c0,0.1,0,0.2,0,0.3h-0.2c0-0.1,0-0.1,0.1-0.2C507.7,219.2,507.7,219.2,507.8,219.1z"/>
			<path class="st1" d="M507.8,219.4c0,0.1,0,0.2,0,0.2c-0.1,0-0.1,0-0.2-0.1s-0.1-0.1-0.1-0.2v0H507.8z"/>
			<path class="st3" d="M500.9,223.9c-0.1,0.1-0.3,0-0.3-0.1c-0.1-0.1,0-0.3,0.1-0.3l4.6-3c0.1-0.1,0.3,0,0.3,0.1
				c0.1,0.1,0,0.3-0.1,0.3L500.9,223.9z"/>
			<path class="st3" d="M510.9,236.2c-3.8,0-6.9-2.2-6.9-2.2c-0.2-0.1-0.3-0.4-0.1-0.6c0.1-0.2,0.4-0.3,0.6-0.1l0,0l0.1,0.1
				c0.1,0.1,0.2,0.1,0.4,0.2c0.3,0.2,0.8,0.4,1.4,0.7c1.2,0.5,2.8,1,4.5,1c3.2,0,5.6-1.8,5.8-2l0,0c0.2-0.2,0.5-0.1,0.7,0.1
				c0.2,0.2,0.1,0.5-0.1,0.6C517.3,234,514.8,236.2,510.9,236.2z"/>
			<path class="st2" d="M507.6,219.4c0,2.1-0.8,3.9-2.2,5.3c-1.3,1.3-3.2,2.2-5.3,2.2c-3.4,0-6.3-2.3-7.2-5.4c0,0,0,0,0-0.1
				c-0.2-0.6-0.3-1.3-0.3-2c0-2,0.8-3.9,2.2-5.3c1.3-1.3,3.2-2.2,5.3-2.2c2.1,0,3.9,0.8,5.3,2.2
				C506.8,215.5,507.6,217.3,507.6,219.4L507.6,219.4z M502,220.7c1,0,1.8-0.8,1.8-1.8s-0.8-1.8-1.8-1.8s-1.8,0.8-1.8,1.8
				S501,220.7,502,220.7z M505.1,220.5l-4.6,3c-0.1,0.1-0.1,0.2-0.1,0.3c0.1,0.1,0.2,0.1,0.3,0.1l4.6-3c0.1-0.1,0.1-0.2,0.1-0.3
				C505.4,220.5,505.3,220.4,505.1,220.5z"/>
			<path class="st1" d="M507.8,219.1c-0.2-4.1-3.5-7.4-7.7-7.4h1.9c3.3,0.8,5.8,3.7,6,7.2C508,219,507.9,219,507.8,219.1z"/>
			<circle class="st3" cx="502" cy="218.9" r="1.8"/>
			<path class="st1" d="M498.3,211.7c0.6-0.1,1.2-0.2,1.9-0.2s1.3,0.1,1.9,0.2h-1.9h0H498.3z"/>
			<path class="st3" d="M502,211.7c-0.6-0.1-1.2-0.2-1.9-0.2s-1.3,0.1-1.9,0.2h-2.7l3.6-2c0.9-0.5,1.9-0.7,2.9-0.8l5.2-0.4
				c-0.2,0.2-1.1,3.3-1.1,3.3H502z"/>
			<path class="st3" d="M507.5,256.1c-6.4-3.7-10.4-11.5-10.4-11.5s0.9,0.8,2.3,1.8l0,0c2.7,2.4,6.1,4,10.6,4c0.1,0,0.2,0,0.3,0
				c0.3,0,0.6,0,1,0c1,0,1.9-0.2,2.7-0.4h0c0.2,0,0.4-0.1,0.5-0.1c2.6-0.7,4.8-1.9,6.6-3.6c1.8-1.5,2.9-2.9,2.9-2.9
				c0,1.7-0.2,3.2-0.4,4.5c-0.5,2.3-1.3,4.1-2.3,5.5C518.2,257.8,512.2,258.8,507.5,256.1z"/>
			<path class="st1" d="M500.2,227c-3.4,0-6.4-2.3-7.3-5.4c0,0,0.1,0,0.1-0.1c0.1-0.1,0.1-0.1,0.1-0.2c0.9,3.1,3.7,5.4,7.2,5.4
				c2.1,0,3.9-0.8,5.3-2.2c1.3-1.3,2.2-3.2,2.2-5.3c0,0.1,0,0.1,0.1,0.2s0.1,0.1,0.2,0.1C507.7,223.7,504.3,227,500.2,227z"/>
			<path class="st1" d="M500.2,227.3c-3.6,0-6.6-2.4-7.6-5.7l0,0c0,0,0.1,0.1,0.2,0.1c0,0,0.1,0,0.1,0c1,3.1,3.9,5.4,7.3,5.4
				c4.2,0,7.5-3.3,7.7-7.4c0.1,0,0.1,0,0.2-0.1l0,0c0,0,0,0,0,0C508,223.8,504.5,227.3,500.2,227.3z"/>
			<path class="st1" d="M492.9,221.3C493,221.3,493,221.3,492.9,221.3c0.1,0.1,0.1,0.1,0.1,0.1c0,0.1,0,0.1-0.1,0.2
				c0,0-0.1,0-0.1,0.1c0-0.1-0.1-0.1-0.1-0.2c0-0.1-0.1-0.2-0.1-0.4L492.9,221.3L492.9,221.3L492.9,221.3z"/>
			<path class="st1" d="M492.7,219.4c0,0.7,0.1,1.3,0.3,2c0,0,0-0.1-0.1-0.1l0,0l0,0l-0.2-0.2c-0.1-0.6-0.2-1.1-0.2-1.7
				c0-4.2,3.4-7.7,7.7-7.7h0c4.1,0,7.5,3.3,7.7,7.4c-0.1,0.1-0.1,0.1-0.1,0.1c-0.1,0-0.1,0.1-0.1,0.2c0-2-0.8-3.9-2.2-5.3
				c-1.3-1.3-3.2-2.2-5.3-2.2c-2.1,0-3.9,0.8-5.3,2.2C493.6,215.5,492.7,217.3,492.7,219.4z"/>
			<path class="st1" d="M492.6,221.6L492.6,221.6c-0.1-0.1-0.1-0.1-0.1-0.1c0-0.1-0.1-0.2-0.1-0.3l0.3,0.2c0,0.1,0,0.2,0.1,0.2
				c0,0-0.1,0-0.1,0C492.7,221.7,492.7,221.6,492.6,221.6z"/>
			<path class="st1" d="M492.4,220.9l0.3,0.2c0,0.1,0.1,0.2,0.1,0.4l-0.3-0.2C492.5,221.1,492.4,221,492.4,220.9z"/>
			<path class="st1" d="M492.5,219.4c0,0.6,0.1,1.2,0.2,1.7l-0.3-0.2c-0.1-0.5-0.1-1-0.1-1.5c0-3.7,2.6-6.8,6-7.7h1.9
				C495.9,211.7,492.5,215.1,492.5,219.4z"/>
			<path class="st2" d="M492.4,220.9l-1.8-1.4c0,0,0,0,0,0c1-2.2,2.8-6.7,2.3-10.2c15.3-1.7,28.9-10.1,29-10.2
				c0.5,3.8,2.3,8.6,4.1,12.5l-0.4,0.2l-3.6-2c-0.9-0.5-1.9-0.7-2.9-0.8l-5.2-0.4c0.2,0.2,1.1,3.3,1.1,3.3h2.1
				c-3.3,0.8-5.8,3.7-6,7.2c-0.5-0.4-1-0.5-1.4-0.5c-0.7,0-1.3,0.3-1.6,0.5c-0.2-3.5-2.7-6.4-6-7.2h4.1c0,0,1-3,1.1-3.3l-5.2,0.4
				c-1,0.1-2,0.4-2.9,0.8l-3.6,2h2.7c-3.5,0.8-6,3.9-6,7.7C492.3,219.9,492.3,220.4,492.4,220.9z"/>
			<path class="st3" d="M490.8,226.4c-0.1-0.3-0.1-0.5-0.1-0.8c0.1,0.1,0.2,0.3,0.2,0.5C490.9,226.2,490.9,226.3,490.8,226.4z"/>
			<path class="st1" d="M490.5,219.6l2,1.6c0,0.1,0.1,0.2,0.1,0.3c0,0,0,0.1,0,0.1l-2.2-1.8C490.4,219.8,490.4,219.7,490.5,219.6z"
				/>
			<path class="st1" d="M492.5,221.2l-2-1.6v0c0-0.1,0.1-0.1,0.1-0.2c0,0,0,0,0,0l1.8,1.4C492.4,221,492.5,221.1,492.5,221.2z"/>
			<path class="st2" d="M509.5,220.5c0-0.3-0.2-0.5-0.5-0.5s-0.5,0.2-0.5,0.5v7.7c0,0.3,0.1,0.6,0.2,0.8l0,0
				c0.4,0.9,1.2,1.3,2.1,1.3c0.2,0,0.4,0,0.6-0.1l1.8-0.5c0.2-0.1,0.4-0.3,0.3-0.6c-0.1-0.2-0.3-0.4-0.6-0.3l-1.8,0.5
				c-0.1,0-0.2,0.1-0.4,0.1c-0.5,0-1-0.3-1.2-0.7c0,0,0,0,0,0c-0.1-0.2-0.1-0.3-0.1-0.5V220.5z M490.7,225.6c-0.2-1.6-0.4-3-0.5-4.4
				c0-0.3,0-0.6-0.1-1c0.1-0.1,0.1-0.3,0.2-0.5l2.2,1.8c0.9,3.3,4,5.7,7.6,5.7c4.3,0,7.8-3.5,7.9-7.8c0.2-0.2,0.9-0.6,1.6-0.6
				c0.4,0,0.9,0.1,1.4,0.6c0.1,4.3,3.6,7.8,7.9,7.8c3.6,0,6.6-2.4,7.6-5.7l3.2-2.5c0.1,0.2,0.2,0.3,0.2,0.4c0,0.6,0,1.2-0.1,1.8
				c-0.1,1.3-0.2,2.7-0.4,4.2l-0.3,0.6l0,0c-0.1,0.1,0,0.3,0.1,0.3c0,0,0.1,0,0.1,0c-0.2,1.5-0.5,3.1-0.8,4.7
				c-1.2,5.6-3.4,11.4-7.4,15.2c-1.6,1.4-3.9,2.9-6.6,3.6c-0.2,0.1-0.4,0.1-0.5,0.1h0c-1.2,0.3-2.4,0.4-3.7,0.4c-0.1,0-0.2,0-0.3,0
				c-4.4-0.2-8.2-2.4-10.6-4l0,0c-4.2-3.8-6.5-9.7-7.8-15.4c-0.4-1.6-0.6-3.2-0.9-4.7c0.1-0.1,0.2-0.2,0.1-0.3
				C490.8,225.9,490.7,225.8,490.7,225.6z M517.4,234c0.2-0.2,0.2-0.5,0.1-0.6c-0.2-0.2-0.5-0.2-0.7-0.1l0,0c-0.2,0.2-2.6,2-5.8,2
				c-1.7,0-3.3-0.5-4.5-1c-0.6-0.3-1.1-0.5-1.4-0.7c-0.2-0.1-0.3-0.2-0.4-0.2l-0.1-0.1l0,0c-0.2-0.1-0.5-0.1-0.6,0.1
				c-0.2,0.2-0.1,0.5,0.1,0.6c0,0,3.1,2.2,6.9,2.2C514.8,236.2,517.3,234,517.4,234z"/>
			<path class="st1" d="M490.6,219.4c0,0.1-0.1,0.1-0.1,0.2l-0.2-0.1C490.4,219.4,490.5,219.4,490.6,219.4z"/>
			<path class="st3" d="M490.1,219.3c-0.1-3.2,0-5.3,0-5.3s-1.1-21.7,21-21.7c20.6,0,18.8,21.7,18.8,21.7s0.1,1.8,0.1,4.6l-0.2,0.1
				c-0.1-0.1-0.2-0.1-0.3-0.1c-0.8-1.4-2.2-4-3.6-7.1c-1.8-4-3.6-8.7-4.1-12.5c-0.1,0-13.7,8.4-29,10.2c0.5,3.5-1.3,8-2.3,10.2
				c-0.1,0-0.2,0-0.3,0.1L490.1,219.3L490.1,219.3z"/>
			<path class="st1" d="M490.5,219.6L490.5,219.6c0,0.1-0.1,0.2-0.1,0.2l0,0c-0.1-0.1-0.1-0.2,0-0.3l0,0L490.5,219.6z"/>
			<path class="st1" d="M490.1,220.3c0-0.3,0-0.7,0-1l0.2,0.2l0,0c-0.1,0.1-0.1,0.2,0,0.3l0,0C490.3,220,490.2,220.2,490.1,220.3z"
				/>
			<path class="st3" d="M489.9,220.7c-4.1-14.5-6.8-32.8,20.1-32.8c28.4,0,24.2,18.3,20.1,31.8c0,0-0.1-0.1-0.1-0.2
				c0-0.3,0-0.6,0-0.9c0.1-2.8-0.1-4.6-0.1-4.6s1.7-21.7-18.8-21.7c-22.1,0-21,21.7-21,21.7s-0.1,2.1,0,5.3h0c0,0.3,0,0.6,0,1
				C490,220.6,489.9,220.7,489.9,220.7z"/>
			<path class="st3" d="M489.5,224.1c0.4,0.4,0.8,0.9,1.1,1.6c0,0.3,0.1,0.5,0.1,0.8c-0.1,0.1-0.3,0-0.3-0.1
				c-0.4-0.8-0.8-1.3-1.2-1.8l0.1-0.1l0.1,0C489.6,224.3,489.6,224.2,489.5,224.1L489.5,224.1z"/>
			<path class="st3" d="M489.4,224.4L489.4,224.4c-0.1,0-0.2,0-0.2-0.1h0c-0.1-0.1-0.1-0.1-0.2-0.2c0.2-0.1,0.3-0.2,0.3-0.2
				c0.1-0.1,0.3,0,0.3,0.1C489.6,224.2,489.6,224.3,489.4,224.4L489.4,224.4z"/>
			<path class="st3" d="M489.2,224.4c0,0,0.1,0.1,0.1,0.1l-0.1,0.1c-0.2,0.1-0.4,0.3-0.6,0.5c-0.4,0.4-0.8,0.9-0.8,1.6
				c0,0.4,0.2,0.9,0.6,1.5c0.1,0.1,0.1,0.3,0,0.3c-0.1,0.1-0.3,0.1-0.3,0c-0.5-0.6-0.7-1.2-0.7-1.8c0-0.8,0.5-1.5,0.9-1.9
				c0.2-0.2,0.5-0.4,0.6-0.5C489,224.2,489.1,224.3,489.2,224.4L489.2,224.4z"/>
			<path class="st3" d="M488.9,224.1c-0.9-0.8-1.7-1-2.3-1c-0.4,0-0.6,0.1-0.6,0.1h0c-0.1,0-0.3,0-0.3-0.2s0-0.3,0.2-0.3
				c0,0,0.3-0.1,0.8-0.1c0.4,0,0.8,0.1,1.3,0.2c0.5,0.2,1,0.5,1.6,1.1c0,0,0,0,0.1,0.1l0,0c-0.1-0.1-0.2-0.2-0.3-0.1
				C489.2,224,489.1,224,488.9,224.1z"/>
			<path class="st2" d="M486.6,223.2c0.6,0,1.4,0.2,2.3,1c-0.2,0.1-0.4,0.3-0.6,0.5c-0.4,0.4-0.9,1.1-0.9,1.9c0,0.5,0.2,1.2,0.7,1.8
				c0.1,0.1,0.2,0.1,0.3,0c0.1-0.1,0.1-0.2,0-0.3c-0.5-0.6-0.6-1.1-0.6-1.5c0-0.6,0.4-1.2,0.8-1.6c0.2-0.2,0.4-0.4,0.6-0.5l0.1-0.1
				c0.4,0.4,0.8,1,1.2,1.8c0.1,0.1,0.2,0.2,0.3,0.1c0.2,1.5,0.5,3.1,0.9,4.7l-0.1,0c-1.5,2-4.2,0.7-5.8-1.9c-1.7-2.7-2.5-8,0-9.5
				c2.5-1.4,4.5,1.5,4.5,1.5h0c0.1,1.3,0.2,2.8,0.5,4.4c-0.4-0.6-0.7-1.2-1.1-1.6c0,0,0,0-0.1-0.1c-0.5-0.5-1.1-0.9-1.6-1.1
				c-0.5-0.2-0.9-0.2-1.3-0.2c-0.5,0-0.8,0.1-0.8,0.1c-0.1,0-0.2,0.2-0.2,0.3s0.2,0.2,0.3,0.2h0
				C486.1,223.3,486.3,223.2,486.6,223.2z"/>
			<path class="st3" d="M483,267.2C483,267.2,483,267.2,483,267.2l-0.5,0.1C482.7,267.2,482.9,267.2,483,267.2z"/>
			<path class="st3" d="M473.1,274.5c-0.1,0.1-0.3,0.2-0.4,0.4c0.1-0.1,0.1-0.2,0.1-0.4H473.1z"/>
			<path class="st3" d="M472,274.1c5.3-4.7,10.3-7.3,10.3-7.3c0.2-0.1,0.5,0,0.7,0.2c0,0.1,0,0.1,0,0.1c-0.2,0-0.3,0.1-0.5,0.1h0.5
				c0,0.2-0.1,0.4-0.3,0.4c0,0-0.1,0-0.2,0.1c-0.1,0.1-0.4,0.2-0.6,0.3c-0.5,0.3-1.3,0.8-2.3,1.4c-1.8,1.1-4.1,2.8-6.6,5h-0.3
				c0-0.1,0-0.2-0.1-0.3C472.5,274,472.2,274,472,274.1C472,274.1,472,274.1,472,274.1z"/>
			<path class="st3" d="M472,274.8l0.3-0.3l0,0h0.5c0,0.1,0,0.3-0.1,0.4l0,0C472.4,275,472.1,275,472,274.8z"/>
			<path class="st3" d="M472.6,274.9c-1.4,1.3-2.8,2.7-4.4,4.6h-0.6l4.4-4.6C472.1,275,472.4,275,472.6,274.9
				C472.6,274.9,472.6,274.9,472.6,274.9z"/>
			<path class="st3" d="M472.3,274.5l-0.3,0.3c0,0,0,0,0,0c-0.2-0.2-0.2-0.5,0-0.7h0c0.2-0.2,0.5-0.2,0.7,0c0.1,0.1,0.1,0.2,0.1,0.3
				L472.3,274.5L472.3,274.5z"/>
			<path class="st3" d="M461.6,290L461.6,290l1.8-3.9h0.3c-0.6,1.3-1.2,2.6-1.6,4c-0.1,0.3-0.3,0.4-0.6,0.3
				C461.5,290.3,461.6,290.2,461.6,290z"/>
			<path class="st3" d="M461.8,291.1h-0.5c0-0.2,0.1-0.3,0.1-0.5C461.7,290.6,461.8,290.8,461.8,291.1z"/>
			<path class="st3" d="M461.6,290c-0.1,0.2-0.1,0.3-0.1,0.5h0c0,0,0,0-0.1,0L461.6,290z"/>
			<path class="st3" d="M463.7,284.1c1-1.8,2.2-3.4,3.5-5c1.5-1.9,3.2-3.5,4.8-5c-0.2,0.2-0.2,0.5,0,0.7c0,0,0,0,0,0l-4.4,4.6h0.6
				c-0.1,0.1-0.2,0.2-0.3,0.3c-1.6,1.9-3,4-4.2,6.4h-0.3l-1.8,3.9v0l-0.2,0.4c-0.2-0.1-0.3-0.4-0.3-0.6
				C461.8,287.8,462.7,285.9,463.7,284.1z"/>
			<path class="st4" d="M462.1,290.1c0.4-1.4,1-2.7,1.6-4h94.7c0.8,1.6,1.4,3.2,1.9,5h-98.5c0-0.2-0.1-0.4-0.4-0.5c0,0,0-0.1,0-0.1
				C461.7,290.5,462,290.4,462.1,290.1z"/>
			<path d="M461.3,290.6l0.1-0.1c0,0,0,0,0.1,0h0c0,0,0,0.1,0,0.1L461.3,290.6C461.4,290.6,461.4,290.6,461.3,290.6z"/>
			<path class="st3" d="M461.1,291.1l0.2-0.5c0,0,0.1,0,0.1,0h0c-0.1,0.2-0.1,0.3-0.1,0.5H461.1z"/>
			<path class="st3" d="M460.9,297c0,0.2,0,0.3,0,0.5h-0.5V297H460.9z"/>
			<path class="st3" d="M561.7,298H460.5c-0.1,0-0.3-0.1-0.3-0.1c-0.1-0.1-0.1-0.2-0.1-0.4c0-2.3,0.3-4.5,0.9-6.6
				c0.1-0.2,0.3-0.4,0.5-0.4l-0.2,0.5h0.2h0.5c0,0,0,0.1,0,0.1c-0.5,1.9-0.8,3.8-0.8,5.8h-0.5v0.5h0.5c0-0.2,0-0.3,0-0.5h100.2
				c0,0.2,0,0.3,0,0.5h0.5V297h-0.5c-0.1-2.3-0.4-4.1-0.8-5.8c0,0,0-0.1,0-0.1h0.5l-2.3-5h-0.1c-1.2-2.3-2.6-4.4-4.2-6.4
				c-0.1-0.1-0.2-0.2-0.3-0.3h0.6l-4.4-4.6c0,0,0,0,0,0c0.2-0.2,0.2-0.5,0-0.7c1.6,1.5,3.3,3.1,4.8,5c1.4,1.7,2.6,3.5,3.7,5.4
				c1.1,2,2,4.1,2.6,6.4c0.6,2.1,0.9,4.3,0.9,6.6c0,0.1-0.1,0.3-0.1,0.4C561.9,297.9,561.8,298,561.7,298z"/>
		</g>
		<g>
		</g>
	</g>
</g>
<g>
	<g>
		<g id="XMLID_12_">
			<g>
				<path class="st1" d="M472.7,479.8c0,16.8-11.2,36.2-21.8,36.2c-2.7,0-5.3-0.9-7.6-2.5c-0.5-2.1-1.6-4-3.1-5.2
					c2.9-3.2,4.7-7.7,4.7-12.9c0-7-3.4-13-8.3-15.7c3.5-5.5,8.9-10.3,17-12.3c5.4-1.3,6.4-5.1,4.4-8.5
					C465.8,461,472.7,467,472.7,479.8z"/>
				<path class="st1" d="M457.9,458.9c2,3.4,1.1,7.2-4.4,8.5c-8,2-13.4,6.8-17,12.3c-1.3-0.8-2.8-1.2-4.3-1.4
					c2-12.6,9.1-20.3,18.1-20.3C452.8,458,455.4,458.3,457.9,458.9z"/>
				<path class="st1" d="M457.9,458.9c-2.5-0.7-5.1-0.9-7.6-0.9c-9,0-16.1,7.8-18.1,20.3c-0.4-0.1-0.9-0.1-1.3-0.1
					c-3.8,0-7.3,1.9-9.8,5c-0.9-7.8,0.5-16.3,6.5-21.9C441.3,448.3,454.3,452.9,457.9,458.9z"/>
				<path class="st1" d="M443.2,513.5c0.2,0.9,0.3,1.8,0.3,2.8c0,5.4-3.5,9.7-7.9,9.7c-3,0-5.5-2-6.9-5c3.7-0.7,6.5-4.6,6.6-9.4
					c1.3-0.5,2.5-1.3,3.5-2.3C440.2,511.1,441.7,512.5,443.2,513.5z"/>
				<path class="st1" d="M440.1,508.3c1.5,1.2,2.6,3.1,3.1,5.2c-1.5-1.1-3-2.4-4.3-4.1C439.3,509.1,439.7,508.7,440.1,508.3z"/>
				<path class="st1" d="M436.5,479.7c4.9,2.7,8.3,8.7,8.3,15.7c0,5.1-1.8,9.7-4.7,12.9c-0.9-0.8-1.9-1.3-3.1-1.6
					c-2.7-4.3-4.5-9.9-5.1-16.1C432.8,487.1,434.2,483.3,436.5,479.7z"/>
				<path class="st1" d="M440.1,508.3c-0.4,0.4-0.8,0.8-1.2,1.2c-0.7-0.8-1.3-1.7-1.9-2.7C438.2,507,439.2,507.5,440.1,508.3z"/>
				<path class="st1" d="M435.4,511.5c0-1.7-0.4-3.3-1-4.8c0.4-0.1,0.8-0.1,1.3-0.1c0.5,0,0.9,0.1,1.4,0.2c0.6,1,1.2,1.9,1.9,2.7
					c-1.1,1-2.3,1.7-3.5,2.3C435.4,511.6,435.4,511.6,435.4,511.5z"/>
				<path class="st1" d="M435.4,511.5c0,0.1,0,0.2,0,0.2c-1.4,0.6-3,0.9-4.5,0.9c-0.8,0-1.6-0.1-2.4-0.3c1.1-3,3.3-5.1,5.9-5.7
					C435,508.1,435.4,509.8,435.4,511.5z"/>
				<path class="st1" d="M429.8,502.2c1.9,0.7,3.6,2.4,4.5,4.5c-2.7,0.5-4.9,2.7-5.9,5.7c-3.1-0.7-5.9-2.6-7.9-5.4
					c1.3-3.1,4-5.2,7-5.2C428.3,501.8,429.1,501.9,429.8,502.2z"/>
				<path class="st1" d="M435.4,511.7c-0.1,4.7-2.9,8.6-6.6,9.4c-0.6-1.4-1-3-1-4.8c0-1.4,0.2-2.7,0.7-3.9c0.8,0.2,1.6,0.3,2.4,0.3
					C432.4,512.6,434,512.3,435.4,511.7z"/>
				<path class="st1" d="M432.2,478.3c1.5,0.2,3,0.7,4.3,1.4c-2.3,3.6-3.8,7.4-4.6,10.9c-0.2-1.6-0.3-3.3-0.3-5
					C431.6,483,431.8,480.6,432.2,478.3z"/>
				<path class="st1" d="M431.7,502.1c-0.5,0-1.1-0.1-1.6-0.4c-4-1.7-8-9.7-9-18.5c2.5-3.1,6-5,9.8-5c0.5,0,0.9,0,1.3,0.1
					c-0.4,2.3-0.5,4.7-0.5,7.3c0,1.7,0.1,3.4,0.3,5C430.5,496.2,430.7,500.9,431.7,502.1z"/>
				<path class="st1" d="M430.1,501.7c0.5,0.2,1.1,0.4,1.6,0.4c-1-1.2-1.2-5.9,0.2-11.5c0.6,6.2,2.5,11.8,5.1,16.1
					c-0.5-0.1-0.9-0.2-1.4-0.2c-0.4,0-0.9,0-1.3,0.1c-1-2.1-2.6-3.8-4.5-4.5L430.1,501.7z"/>
				<path class="st1" d="M428.8,521.1c-0.4,0.1-0.8,0.1-1.3,0.1c-4.4,0-7.9-4.4-7.9-9.7c0-1.6,0.3-3.2,0.9-4.5
					c2,2.8,4.8,4.7,7.9,5.4c-0.4,1.2-0.7,2.5-0.7,3.9C427.8,518.1,428.1,519.7,428.8,521.1z"/>
				<path class="st1" d="M429.8,502.2c-0.7-0.3-1.5-0.4-2.3-0.4c-3,0-5.7,2.1-7,5.2c-2.2-3-3.6-7.1-3.6-11.6c0-4.8,1.6-9.1,4.2-12.2
					c1,8.8,5.1,16.8,9,18.5L429.8,502.2z"/>
			</g>
			<g>
			</g>
		</g>
	</g>
	<g>
		<g id="XMLID_11_">
			<g>
				<path class="st3" d="M498,562.5l0,0.5C498,562.8,498,562.7,498,562.5C498,562.5,498,562.5,498,562.5z"/>
				<path class="st3" d="M498,562.5c0,0.2,0,0.3,0,0.5c0,0,0,0,0,0c0,0-0.2,0-0.5,0c0-0.2,0-0.3,0-0.5
					C497.7,562.5,497.9,562.5,498,562.5z"/>
				<path class="st3" d="M498,563h-0.5v0C497.7,563,497.9,563,498,563z"/>
				<path class="st3" d="M475.5,533l0-0.1c0,0-0.2-0.1-0.7-0.2c0.5-0.2,0.6-0.2,0.6-0.2c0.1,0,0.2,0,0.3,0c0.1,0.1,0.2,0.3,0.2,0.5
					c0,0,0,0,0,0C475.8,533,475.7,533,475.5,533z"/>
				<path class="st3" d="M476,533c-0.1,0.3-0.3,0.4-0.6,0.4c0,0-0.2,0-0.5-0.1c0.2-0.1,0.4-0.2,0.7-0.2C475.7,533,475.8,533,476,533
					z"/>
				<path class="st3" d="M475.5,532.9l0,0.1c-0.2,0-0.5,0.1-0.7,0.2c-0.2,0-0.4-0.1-0.7-0.2c0.1,0,0.1-0.1,0.2-0.1
					c0.1-0.1,0.3-0.2,0.5-0.2C475.3,532.8,475.5,532.9,475.5,532.9z"/>
				<path class="st3" d="M474.2,533.1c-2.1,1.3-4.9,2.8-8.5,4.1c-4.1,1.5-9.4,2.7-15.2,2.7c-6.9,0-14.7-1.7-22.7-6.8
					c1.9-0.4,3.5-0.9,5-1.5c0.7,0.4,7.4,4,17.7,4c5.4,0,11.7-1,18.6-4.1C471,532.2,473,532.8,474.2,533.1z"/>
				<path class="st1" d="M472,491.1c-0.3-0.4-0.7-0.6-0.9-0.7c0.1-0.1,0.2-0.2,0.4-0.4c0.2,0.1,0.4,0.3,0.7,0.6
					c0.4,0.4,0.9,1.1,0.9,1.9c0,0.6-0.2,1.2-0.7,1.8c-0.1,0.1-0.2,0.1-0.3,0c-0.1-0.1-0.1-0.2,0-0.3c0.5-0.6,0.6-1.1,0.6-1.5
					C472.6,492,472.3,491.5,472,491.1z"/>
				<path class="st1" d="M471,490.1c0.1-0.1,0.2-0.2,0.3-0.1c0,0,0.1,0,0.2,0.1c-0.1,0.1-0.2,0.2-0.4,0.4h0l-0.1,0
					C470.9,490.3,470.9,490.2,471,490.1z"/>
				<path class="st2" d="M470.8,486.3l-0.2,0l0,0l0,0l0-0.1c0.1-0.1,0.3-0.3,0.5-0.5c-0.1,0.4-0.1,0.6-0.2,0.9l-0.1-0.1
					C470.8,486.4,470.8,486.4,470.8,486.3z"/>
				<path class="st5" d="M470.7,487.3c0-0.1,0-0.2,0-0.2c0,0,0-0.1,0-0.1l0.3,0.2c-0.1,0.1-0.2,0.2-0.2,0.3
					C470.8,487.3,470.8,487.3,470.7,487.3L470.7,487.3z"/>
				<path class="st2" d="M470.7,486.8c0-0.1,0-0.1,0-0.2l0.1-0.1C470.8,486.7,470.8,486.8,470.7,486.8L470.7,486.8z"/>
				<path class="st5" d="M470.7,487.5c0-0.1,0-0.2,0-0.2l0.1,0C470.8,487.3,470.8,487.3,470.7,487.5
					C470.8,487.4,470.7,487.5,470.7,487.5L470.7,487.5L470.7,487.5z"/>
				<path class="st2" d="M470.8,486.3c0,0.1,0,0.1,0,0.2l0,0l-0.1-0.1l0,0l0,0L470.8,486.3z"/>
				<path class="st5" d="M470.8,486.6L470.8,486.6C470.7,486.6,470.7,486.6,470.8,486.6L470.8,486.6L470.8,486.6z"/>
				<path class="st2" d="M470.8,486.9c0,0.1,0,0.1,0,0.1C470.7,486.9,470.7,486.9,470.8,486.9L470.8,486.9z"/>
				<path class="st2" d="M470.7,487l-0.1-0.2l0.1,0.1C470.7,486.9,470.7,486.9,470.7,487z"/>
				<path class="st2" d="M470.7,486.7c0,0.1,0,0.1,0,0.2L470.7,486.7L470.7,486.7L470.7,486.7z"/>
				<path class="st5" d="M470.7,487.5l-0.4-0.3l0.4,0.1C470.7,487.3,470.7,487.4,470.7,487.5z"/>
				<path class="st5" d="M470.3,487.2c0,0,0.1-0.2,0.4-0.4l0.1,0.2c0,0.1,0,0.2,0,0.2L470.3,487.2z"/>
				<path class="st2" d="M470.6,486.4L470.6,486.4L470.6,486.4z"/>
				<path class="st5" d="M470.5,489.4c0.1-0.6,0.1-1.1,0.2-1.5c0-0.2,0-0.4,0.1-0.5c0.1-0.1,0.1-0.2,0.2-0.3l-0.3-0.2
					c0-0.1,0-0.2,0.1-0.3l0,0l0.4,0.3c0.3-0.3,0.6-0.6,1-0.8c0.4-0.2,0.8-0.4,1.3-0.4c0.4,0,0.7,0.1,1.1,0.3c0.4,0.3,0.8,0.7,1,1.3
					s0.3,1.3,0.3,2.1c0,1.9-0.6,4.1-1.5,5.5c-0.5,0.8-1.2,1.5-1.8,2c-0.7,0.5-1.3,0.7-1.9,0.7c-0.5,0-1-0.2-1.4-0.6l0.2-1l0.2-1.2
					c0,0,0,0,0,0c0.1-0.2,0.1-0.5,0.2-0.9v0c0-0.2,0.1-0.3,0.1-0.5c0,0,0,0,0,0c0.1-0.4,0.1-0.7,0.2-1.1v0c0-0.2,0.1-0.4,0.1-0.6
					c0.3-0.5,0.6-0.8,0.9-1.1h0c0.1,0.1,0.5,0.4,0.9,0.7c0.3,0.4,0.6,0.9,0.6,1.4c0,0.4-0.2,0.9-0.6,1.5c-0.1,0.1-0.1,0.3,0,0.3
					c0.1,0.1,0.3,0.1,0.3,0c0.5-0.6,0.7-1.2,0.7-1.8c0-0.8-0.5-1.5-0.9-1.9c-0.3-0.3-0.5-0.5-0.7-0.6c0.9-0.8,1.8-0.9,2.3-0.9
					c0.2,0,0.4,0,0.5,0l0.1,0l0,0h0c0.1,0,0.3,0,0.3-0.2c0-0.1,0-0.3-0.2-0.3c0,0-0.3-0.1-0.8-0.1c-0.8,0-2.2,0.3-3.4,1.8
					c0-0.1,0-0.2,0-0.3C470.5,489.9,470.5,489.6,470.5,489.4z"/>
				<path class="st2" d="M470.6,486.3L470.6,486.3L470.6,486.3z"/>
				<path class="st2" d="M470.7,486.8l-0.1-0.5h0l0,0l0,0l0,0l0.1,0.1l0,0C470.7,486.6,470.7,486.6,470.7,486.8L470.7,486.8z"/>
				<polygon class="st2" points="470.5,486.3 470.6,486.3 470.5,486.3 				"/>
				<path class="st5" d="M470.7,487.5c0,0.6-0.1,1.2-0.1,1.9l-0.5,0c0,0,0-0.1,0-0.1c0.1-1.2,0.2-2,0.2-2L470.7,487.5z"/>
				<path class="st1" d="M470.5,486.2L470.5,486.2L470.5,486.2L470.5,486.2C470.5,486.2,470.5,486.2,470.5,486.2z"/>
				<polygon class="st1" points="470.5,486.2 470.5,486.3 470.5,486.3 				"/>
				<polygon class="st1" points="470.5,486.2 470.5,486.2 470.5,486.2 				"/>
				<path class="st1" d="M471.1,490.4c-0.3,0.3-0.6,0.7-0.9,1.1c0.1-0.6,0.1-0.7,0.1-1.1c1.2-1.5,2.6-1.8,3.4-1.8
					c0.5,0,0.8,0.1,0.8,0.1c0.1,0,0.2,0.2,0.2,0.3c0,0.1-0.2,0.2-0.3,0.2h0l0,0l-0.1,0c-0.1,0-0.3,0-0.5,0c-0.6,0-1.5,0.1-2.3,0.9
					c-0.1-0.1-0.2-0.1-0.2-0.1c-0.1-0.1-0.3,0-0.3,0.1C470.9,490.2,470.9,490.3,471.1,490.4L471.1,490.4z"/>
				<path class="st1" d="M470.5,486.3l0.1,0.5l-0.4-0.3c0,0,0,0,0,0c0,0,0-0.1,0-0.1c0,0,0-0.1,0-0.1L470.5,486.3z"/>
				<path class="st2" d="M470.3,486.4C470.3,486.4,470.3,486.4,470.3,486.4C470.3,486.4,470.3,486.4,470.3,486.4z"/>
				<path class="st1" d="M470.3,486.5c0,0.1,0,0.1,0,0.2C470.2,486.6,470.2,486.6,470.3,486.5C470.2,486.5,470.2,486.5,470.3,486.5
					C470.3,486.5,470.3,486.5,470.3,486.5z"/>
				<path class="st1" d="M470,486.3l0.3,0c0,0,0,0.1,0,0.1c0,0,0,0.1,0,0.1c0,0-0.1,0.1-0.1,0.1C470.1,486.5,470.1,486.4,470,486.3z
					"/>
				<path class="st1" d="M470.7,486.8c-0.2,0.2-0.4,0.4-0.4,0.4s-0.1,0.9-0.2,2c0.1-0.9,0.2-1.9,0.2-2.7c0,0,0,0,0,0c0,0,0,0,0,0
					L470.7,486.8L470.7,486.8z"/>
				<path class="st1" d="M469.6,493.2l0.4,0.1c0,0,0,0,0,0L469.6,493.2z"/>
				<path class="st5" d="M470.7,487.9c0,0.4-0.1,0.9-0.2,1.5c0,0.3-0.1,0.6-0.1,0.9c0,0.1,0,0.2,0,0.3c-0.2,0.3-0.4,0.5-0.6,0.9
					c0.1-0.4,0.1-0.8,0.1-1.2c0-0.3,0.1-0.6,0.1-0.9l0.5,0c0.1-0.6,0.1-1.3,0.1-1.9l0,0l0,0c0,0,0,0,0.1-0.1
					C470.8,487.5,470.7,487.7,470.7,487.9z"/>
				<path class="st5" d="M469.7,492.1c0-0.2,0.1-0.5,0.1-0.7c0.2-0.3,0.4-0.6,0.6-0.9c0,0.4-0.1,0.4-0.1,1.1
					c-0.1,0.2-0.2,0.4-0.3,0.6l0,0l-0.1,0.1c0,0.1-0.1,0.1-0.2,0.1C469.7,492.3,469.7,492.2,469.7,492.1z"/>
				<path class="st2" d="M470,490.2c0,0.4-0.1,0.8-0.1,1.2c0,0,0,0,0,0C469.9,491,469.9,490.6,470,490.2z"/>
				<path class="st5" d="M469.8,494.7c0.1-0.3,0.1-0.5,0.2-0.8l-0.5-0.1c0-0.2,0.1-0.4,0.1-0.5l0.1,0l0.4,0.1c0,0.2-0.1,0.4-0.1,0.5
					v0C469.9,494.2,469.8,494.5,469.8,494.7L469.8,494.7L469.8,494.7z"/>
				<path class="st5" d="M469.9,493.8c-0.1,0.3-0.1,0.5-0.2,0.8h-0.5c0-0.2,0.1-0.5,0.1-0.8c0,0,0-0.1,0-0.1L469.9,493.8z"/>
				<path class="st5" d="M469.8,494.7C469.7,494.7,469.7,494.7,469.8,494.7l-0.4,0l-0.1,0L469.8,494.7L469.8,494.7z"/>
				<path class="st5" d="M469.8,487.2c0,0-0.1,0.7-0.2,1.6c0.1-0.9,0.1-1.7,0.2-2.5l0.2,0c0.1,0.1,0.2,0.2,0.2,0.3
					c-0.2,0.2-0.3,0.4-0.3,0.4l-0.1,0.1L469.8,487.2z"/>
				<path class="st1" d="M469.7,494.7C469.7,494.7,469.7,494.7,469.7,494.7L469.7,494.7C469.8,494.7,469.7,494.7,469.7,494.7
					l-0.4-0.1L469.7,494.7z"/>
				<path class="st2" d="M469.7,492.1c0-0.2,0.1-0.5,0.1-0.7c0,0,0,0,0,0C469.8,491.6,469.7,491.8,469.7,492.1L469.7,492.1z"/>
				<path class="st2" d="M469.7,492.1L469.7,492.1c0,0.1,0,0.2,0,0.4h0C469.7,492.3,469.7,492.2,469.7,492.1z"/>
				<path class="st2" d="M469.7,492.4c0,0.1,0,0.1,0,0.2C469.6,492.6,469.6,492.5,469.7,492.4L469.7,492.4z"/>
				<path class="st5" d="M470,493.3l-0.4-0.1l-0.1,0c0-0.2,0.1-0.4,0.1-0.5c0,0,0,0,0,0c0-0.1,0-0.2,0-0.2c0.1,0,0.2-0.1,0.2-0.1
					l0.1-0.1l0,0c0.1-0.2,0.2-0.4,0.3-0.6c0,0.2-0.1,0.4-0.1,0.6v0C470.1,492.5,470.1,492.9,470,493.3z"/>
				<path class="st5" d="M469.6,488.8c0.1-1,0.2-1.6,0.2-1.6l0-0.1l0.1-0.1c0,0,0.1-0.2,0.3-0.4c0,0.1,0.1,0.1,0.1,0.1
					c0-0.1,0-0.1,0-0.2c-0.1,0.9-0.1,1.8-0.2,2.7c0,0,0,0.1,0,0.1l-0.5,0C469.6,489.1,469.6,489,469.6,488.8
					C469.6,488.9,469.6,488.8,469.6,488.8z"/>
				<path class="st5" d="M469.7,492.1c0,0.1,0,0.2-0.1,0.4c0,0-0.1,0-0.1,0c-0.1-0.1-0.2-0.2-0.1-0.3l0,0h0l0.1,0L469.7,492.1z"/>
				<path class="st1" d="M469.4,492.1l0.1,0L469.4,492.1z"/>
				<path class="st5" d="M469.5,491.9c0.1-0.2,0.2-0.4,0.3-0.5c0,0.2-0.1,0.5-0.1,0.7l-0.2,0l-0.1,0L469.5,491.9L469.5,491.9z"/>
				<path class="st3" d="M474.2,533.1c-1.2-0.3-3.1-0.8-5.2-1.6c0,0,0,0,0,0c0.2-0.1,0.3-0.2,0.3-0.4c2.4,0.8,4.5,1.4,5.6,1.6
					c-0.2,0.1-0.3,0.1-0.5,0.2C474.3,533,474.2,533,474.2,533.1z"/>
				<path class="st5" d="M470,490.2c-0.1,0.4-0.1,0.8-0.2,1.2c-0.1,0.2-0.2,0.4-0.3,0.5l0,0l0,0.1h0l-0.1,0l-0.1,0
					c0.1-0.6,0.2-1.3,0.3-1.9c0-0.3,0.1-0.6,0.1-0.9c0-0.1,0-0.2,0-0.3c0,0.1,0,0.2,0,0.4l0.5,0C470,489.6,470,489.9,470,490.2z"/>
				<path class="st1" d="M469.4,492.1l-0.1,0L469.4,492.1z"/>
				<polygon class="st1" points="469.4,493.7 469.4,493.8 469.3,493.7 				"/>
				<polygon class="st1" points="469.4,493.7 469.3,493.7 469.2,493.7 				"/>
				<path class="st5" d="M469,495.9l0.2-1.2v0l0.1,0l0.4,0.1l-0.2,1.2l-0.2,1c0,0,0,0,0,0c0.1-0.3,0.2-0.7,0.2-1L469,495.9z"/>
				<path class="st5" d="M474.8,485.7c2.5,1.5,1.7,6.8,0,9.5c-1.5,2.5-4.2,3.8-5.7,2.4c0-0.1,0.1-0.2,0.1-0.3l0,0l0-0.2
					c0.4,0.5,0.8,0.6,1.4,0.6c0.6,0,1.3-0.2,1.9-0.7c0.7-0.5,1.3-1.2,1.8-2c0.9-1.4,1.5-3.6,1.5-5.5c0-0.8-0.1-1.5-0.3-2.1
					s-0.5-1-1-1.3c-0.4-0.2-0.8-0.3-1.1-0.3c-0.5,0-0.9,0.2-1.3,0.4c-0.4,0.2-0.7,0.5-1,0.8l-0.4-0.3
					C471.6,485.8,473.1,484.6,474.8,485.7z"/>
				<path class="st1" d="M469.3,494.7c0.1-0.3,0.1-0.5,0.1-0.8C469.4,494.2,469.3,494.4,469.3,494.7z"/>
				<polygon class="st1" points="469.2,492 469.3,492 469.2,492 				"/>
				<path class="st5" d="M468.8,494.4c0.1-0.2,0.1-0.5,0.1-0.7l0.3,0.1l0.1,0h0c0,0,0,0.1,0,0.1c0,0.3-0.1,0.5-0.1,0.8l-0.5-0.1
					C468.8,494.5,468.8,494.4,468.8,494.4z"/>
				<polygon class="st5" points="469.3,493.7 469,493.7 469,493.7 469.2,493.7 				"/>
				<path class="st5" d="M469,493.1c0.1-0.4,0.1-0.7,0.2-1.1l0.1,0l0.1,0l0,0c-0.1,0.1,0,0.3,0.1,0.3c0,0,0.1,0,0.1,0
					c0,0.1,0,0.1,0,0.2c0,0,0,0,0,0c0,0.2-0.1,0.4-0.1,0.5c0,0.2-0.1,0.4-0.1,0.5h0l0,0l-0.2,0l-0.2,0
					C469,493.5,469,493.3,469,493.1L469,493.1L469,493.1z"/>
				<path class="st5" d="M469.3,497l0,0.2l0,0C469.2,497.1,469.2,497.1,469.3,497C469.3,497,469.3,497,469.3,497z"/>
				<path class="st5" d="M476.9,489.4c0,2.1-0.7,4.4-1.6,6c-0.6,0.9-1.3,1.7-2.1,2.3c-0.8,0.6-1.6,0.9-2.5,0.9
					c-0.6,0-1.2-0.2-1.7-0.6c0-0.2,0.1-0.4,0.1-0.5c1.6,1.5,4.2,0.1,5.7-2.4c1.7-2.7,2.5-8.1,0-9.5c-1.7-1-3.2,0.1-4,0.9
					c0.1-0.2,0.1-0.5,0.2-0.9c0.2-0.2,0.4-0.3,0.6-0.4c0.5-0.3,1.1-0.5,1.8-0.5c0.5,0,1.1,0.1,1.6,0.5c0.7,0.4,1.1,1,1.4,1.8
					C476.8,487.7,476.9,488.6,476.9,489.4z"/>
				<path class="st5" d="M469.3,497c0,0.1,0,0.2-0.1,0.2l-0.4-0.1l0.4-0.3C469.2,496.9,469.2,496.9,469.3,497z"/>
				<path class="st1" d="M469.2,493.7l-0.2,0v0h0c0,0,0,0,0,0L469.2,493.7z"/>
				<path class="st5" d="M469.1,497.5c-0.1-0.1-0.2-0.2-0.4-0.4l0.4,0.1C469.2,497.3,469.2,497.4,469.1,497.5z"/>
				<path class="st1" d="M468.8,494.4c0-0.2,0.1-0.4,0.1-0.7h0C468.9,493.9,468.9,494.1,468.8,494.4z"/>
				<path class="st5" d="M469.2,496.8l-0.4,0.3l0.3-1.2l0.5,0.1c-0.1,0.3-0.1,0.7-0.2,1C469.2,496.9,469.2,496.9,469.2,496.8z"/>
				<path class="st3" d="M469.3,531.1c0,0.2-0.1,0.3-0.3,0.4c0,0,0,0,0,0c-0.1,0-0.2-0.1-0.3-0.1c-0.1,0-0.3-0.1-0.4-0.1
					c0.2-0.1,0.3-0.1,0.5-0.2l0-0.1C469,531,469.1,531,469.3,531.1z"/>
				<path class="st3" d="M469.3,531.1c-0.1-0.1-0.3-0.1-0.4-0.2c-0.2-0.1-0.4-0.1-0.6-0.2c0.1,0,0.2-0.1,0.3-0.1
					c0.2-0.1,0.5,0,0.6,0.2C469.3,530.9,469.3,531,469.3,531.1z"/>
				<path class="st5" d="M468.8,497.1c0.1,0.2,0.2,0.3,0.4,0.4c0,0.2-0.1,0.4-0.1,0.5c-0.1-0.1-0.3-0.2-0.4-0.4
					c0.2-0.6,0.3-1.2,0.4-1.8L468.8,497.1z"/>
				<path class="st5" d="M469,495.9c-0.1,0.6-0.3,1.2-0.4,1.8c-0.1-0.1-0.1-0.2-0.2-0.3l-0.1-0.2l0.2-1.2c0-0.1,0.1-0.2,0.1-0.3
					L469,495.9z"/>
				<path class="st5" d="M470,486.3l-0.2,0c-0.1,0.8-0.1,1.7-0.2,2.5c0,0,0,0.1,0,0.1c0,0.1,0,0.2,0,0.3c0,0.3-0.1,0.6-0.1,0.9
					c-0.1,0.6-0.2,1.3-0.3,1.9v0c-0.1,0.4-0.1,0.8-0.2,1.1v0v0c0,0.2-0.1,0.3-0.1,0.5c0,0,0,0,0,0c0,0.2-0.1,0.5-0.1,0.7
					c0,0.1,0,0.1,0,0.2l0,0.1v0l-0.2,1.2l-0.1,0.3c-1.4,6.1-4,12.2-8.9,15.5c0,0-0.1,0-0.1,0.1c0,0,0,0,0,0
					c-2.4,1.6-5.3,2.5-8.8,2.5c-3.6,0-6.5-0.9-8.9-2.5c0,0-0.1-0.1-0.1-0.1c-2-1.4-3.7-3.1-5-5.2c-1.3-2.1-2.4-4.4-3.2-6.8
					c-1.6-4.8-2.3-10-2.6-13.9l-0.5,0c0.8-1.2,3.1-4.6,4.1-9.1h31.4C466.8,481.7,469.2,485.1,470,486.3z"/>
				<path class="st5" d="M468.5,495.8l0.2-1.2v0l0-0.1c0-0.1,0-0.1,0-0.2c0,0.1,0,0.1,0,0.2l0.5,0.1v0l-0.2,1.2L468.5,495.8
					c0,0.1,0,0.2-0.1,0.3L468.5,495.8z"/>
				<path class="st3" d="M468.8,530.9l0,0.1c-0.2,0.1-0.3,0.2-0.5,0.2c-0.2-0.1-0.5-0.2-0.7-0.2c0.2-0.1,0.4-0.2,0.7-0.3
					C468.5,530.8,468.6,530.9,468.8,530.9z"/>
				<path class="st5" d="M459.6,511.6c4.9-3.3,7.6-9.4,8.9-15.5l-0.2,1.2l0.1,0.2c0.1,0.1,0.1,0.2,0.2,0.3c-1.4,5.5-4,10.9-8.4,14h0
					c-0.1-0.1-0.2-0.2-0.4-0.2C459.7,511.5,459.6,511.5,459.6,511.6z"/>
				<path class="st1" d="M460.3,524.8L460.3,524.8l-0.5,0.1L460.3,524.8C460.3,524.7,460.3,524.8,460.3,524.8z"/>
				<path class="st3" d="M460.3,514.8c0,0.1,0,0.2-0.1,0.3c-0.1-0.1-0.2-0.2-0.3-0.2l0-0.1v-2.2c0.1-0.1,0.2-0.1,0.3-0.2
					c0.1-0.1,0.1-0.1,0.2-0.2V514.8z"/>
				<path class="st5" d="M460.3,524.7l-0.5,0.1v-9.4c0,0,0-0.1,0-0.1c0.1,0,0.3-0.1,0.3-0.2c0.1,0.1,0.1,0.2,0.1,0.3L460.3,524.7
					C460.3,524.8,460.3,524.7,460.3,524.7z"/>
				<path class="st5" d="M475.6,532.4c0.1,0,0.1,0.1,0.2,0.1c-0.1,0-0.2,0-0.3,0c-0.1,0-0.1,0-0.6,0.2c-1.1-0.3-3.2-0.8-5.6-1.6
					c0-0.1,0-0.2,0-0.2c-0.1-0.2-0.4-0.4-0.6-0.2c-0.1,0.1-0.2,0.1-0.3,0.1c-3.9-1.4-7.9-3.4-8.5-5.9h0.5v-0.1
					c0.1,0.5,0.4,1,0.9,1.6c0.5,0.5,1.2,1.1,2,1.6c1.6,1,3.7,1.9,5.7,2.6c2.6,0.9,5,1.5,6.1,1.8
					C475.4,532.4,475.6,532.4,475.6,532.4z"/>
				<path class="st5" d="M466.3,505.2c-1.4,2.6-3.2,5-6,7V512v0c0-0.1,0-0.2-0.1-0.3c4.4-3.2,7-8.6,8.4-14c0.1,0.1,0.3,0.3,0.4,0.4
					C468.3,500.5,467.4,503,466.3,505.2z"/>
				<path class="st5" d="M459.8,512.6V512c0.1-0.1,0.3-0.2,0.4-0.3h0c0.1,0.1,0.1,0.2,0.1,0.3v0v0.2c-0.1,0.1-0.1,0.1-0.2,0.2
					C460,512.5,459.9,512.5,459.8,512.6z"/>
				<path class="st3" d="M459.8,514.9c0.1,0,0.3,0.1,0.3,0.2c-0.1,0.1-0.2,0.2-0.3,0.2c0-0.1,0-0.1,0-0.2L459.8,514.9z"/>
				<path class="st3" d="M459.8,514.9l0,0.2c0,0.1,0,0.1,0,0.2c0,0,0,0,0,0L459.8,514.9C459.8,514.9,459.8,514.9,459.8,514.9z"/>
				<path class="st1" d="M459.8,515.3c0,0,0,0.1,0,0.1L459.8,515.3C459.8,515.3,459.8,515.3,459.8,515.3z"/>
				<path class="st1" d="M459.8,514.9C459.8,514.9,459.8,514.9,459.8,514.9l0-0.1L459.8,514.9z"/>
				<path class="st5" d="M459.8,515.4v9.4c0.5,2.5,4.6,4.5,8.5,5.9c-0.2,0.1-0.4,0.2-0.7,0.3c-2.7-1-5.5-2.3-7.1-4
					c-0.6-0.6-1-1.3-1.2-2.1l0-0.1l0-8.1C459.5,516.3,459.7,515.9,459.8,515.4z"/>
				<path class="st3" d="M459.8,515.3v0.1c-0.1,0.5-0.3,0.9-0.5,1.3v-1.3c0-0.1,0-0.2,0.1-0.3C459.5,515.2,459.6,515.3,459.8,515.3z
					"/>
				<path class="st3" d="M459.8,514.9v0.4c-0.2,0-0.3-0.1-0.4-0.2C459.5,515,459.6,514.9,459.8,514.9z"/>
				<path class="st3" d="M459.8,512.6v2.2l-0.4-1.9C459.5,512.8,459.6,512.7,459.8,512.6z"/>
				<path class="st5" d="M459.3,512.7C459.3,512.7,459.3,512.7,459.3,512.7l0-0.3c0.2-0.1,0.3-0.2,0.5-0.3v0.6
					c-0.1,0.1-0.3,0.2-0.4,0.3L459.3,512.7z"/>
				<path class="st3" d="M459.8,514.8v0.1c-0.2,0-0.3,0.1-0.4,0.2c-0.1-0.1-0.1-0.2-0.1-0.3v-1.9c0,0,0.1,0,0.1,0L459.8,514.8z"/>
				<path class="st5" d="M459.6,511.6C459.5,511.6,459.5,511.6,459.6,511.6c-0.1,0-0.1,0.1-0.1,0.1
					C459.5,511.6,459.5,511.6,459.6,511.6z"/>
				<path class="st5" d="M459.3,512.7l0,0.2c0,0,0,0-0.1,0L459.3,512.7C459.3,512.7,459.3,512.7,459.3,512.7z"/>
				<path class="st5" d="M459.8,512c-0.2,0.1-0.3,0.2-0.5,0.3V512l0,0c0-0.1,0.1-0.3,0.1-0.3c0,0,0,0,0,0c0,0,0,0,0.1,0c0,0,0,0,0,0
					c0.1,0,0.1-0.1,0.2-0.1c0.2,0,0.3,0.1,0.4,0.2C460,511.8,459.9,511.9,459.8,512z"/>
				<path class="st5" d="M441.8,513.5c1.2,2.1,4.9,7.7,11.2,7.2c0,0,4.4,0,6.3-4l0,8.1l0,0.1c0.2,0.8,0.6,1.5,1.2,2.1
					c1.6,1.7,4.4,3,7.1,4c-6.4,2.7-12.2,3.6-17.3,3.6c-5.2,0-9.6-1-12.6-2c-1.5-0.5-2.7-1-3.5-1.4c-0.2-0.1-0.3-0.2-0.5-0.2
					c3.4-1.8,4.9-2.8,5.9-3.7c1.4-1.2,2-2.2,2-2.2c0.1-0.1,0.1-0.2,0.1-0.3V513.5z"/>
				<path class="st5" d="M450.6,514.7c-3.5,0-6.4-0.9-8.8-2.4v0V512c0-0.1-0.1-0.3-0.1-0.3c2.4,1.6,5.3,2.5,8.9,2.5
					c3.6,0,6.5-0.9,8.8-2.5c-0.1,0.1-0.1,0.2-0.1,0.3l0,0v0.3C456.9,513.8,454.1,514.7,450.6,514.7z"/>
				<path class="st5" d="M459.3,512.3v0.4c-0.5,0.3-7.1,4.7-17.5,0.2v-0.5c2.4,1.5,5.3,2.4,8.8,2.4
					C454.1,514.7,456.9,513.8,459.3,512.3z"/>
				<path class="st5" d="M450.6,515.1c-3.4,0-6.4-0.8-8.8-2.3v0c10.3,4.5,17,0.2,17.5-0.2v0.2C456.9,514.3,454,515.1,450.6,515.1z"
					/>
				<path class="st3" d="M441.8,513.5v-0.6c2.4,1.4,5.3,2.3,8.8,2.3c3.4,0,6.3-0.8,8.7-2.3v1.9c0,0.1,0,0.2,0.1,0.3
					c-0.1,0.1-0.1,0.2-0.1,0.3v1.3c-1.9,3.9-6.3,4-6.3,4C446.7,521.1,443,515.6,441.8,513.5z"/>
				<path class="st1" d="M441.8,512.8L441.8,512.8C441.8,512.8,441.8,512.8,441.8,512.8C441.8,512.8,441.8,512.8,441.8,512.8z"/>
				<path class="st5" d="M441.8,512.3v0.5c0,0-0.1,0-0.1,0c-0.1-0.1-0.3-0.2-0.4-0.2V512C441.5,512.1,441.7,512.2,441.8,512.3
					L441.8,512.3z"/>
				<path class="st5" d="M441.7,511.6c0.1,0.1,0.1,0.2,0.1,0.3v0.3c-0.2-0.1-0.3-0.2-0.5-0.3c-0.1-0.1-0.3-0.2-0.4-0.3
					c0.1-0.1,0.2-0.2,0.4-0.2c0.1,0,0.2,0,0.2,0.1C441.6,511.6,441.7,511.6,441.7,511.6z"/>
				<path class="st3" d="M441.8,512.9v0.6c-0.3-0.5-0.4-0.8-0.4-0.8C441.5,512.7,441.6,512.8,441.8,512.9
					C441.8,512.8,441.8,512.8,441.8,512.9z"/>
				<path class="st1" d="M441.3,524.8h-0.5v-0.1c0-0.1,0.1-0.1,0.1-0.1v0L441.3,524.8z"/>
				<path class="st5" d="M440.9,512c0-0.1,0-0.2,0.1-0.3c0.1,0.1,0.3,0.2,0.4,0.3v0.6c-0.1-0.1-0.2-0.1-0.3-0.2
					c-0.1-0.1-0.2-0.1-0.2-0.2V512z"/>
				<path class="st5" d="M441.1,512.4c0.1,0.1,0.2,0.1,0.3,0.2v12.3l-0.4-0.3v0c0,0,0,0.1-0.1,0.1v-12.5
					C440.9,512.3,441,512.3,441.1,512.4z"/>
				<path class="st5" d="M433.3,530.8c5.8-2.5,8.1-5.9,8.1-5.9v-12.3c0.1,0.1,0.3,0.2,0.4,0.2c-0.1,0-0.2-0.1-0.3-0.1
					c0,0,0.1,0.3,0.4,0.8v11.4c0,0.1,0,0.2-0.1,0.3c0,0-0.6,1-2,2.2c-1,0.9-2.4,2-5.9,3.7c-0.2-0.1-0.3-0.2-0.4-0.2
					C433.4,530.8,433.3,530.8,433.3,530.8z"/>
				<path class="st3" d="M437.8,532.6c3,1,7.3,2,12.6,2c5,0,10.9-0.9,17.3-3.6c0.2,0.1,0.5,0.2,0.7,0.2c-18.3,7.9-32.5,1.3-35,0
					c0.2-0.1,0.4-0.2,0.6-0.3c0.1,0.1,0.3,0.1,0.5,0.2C435.1,531.6,436.3,532.1,437.8,532.6z"/>
				<path class="st3" d="M433.3,531.3c2.5,1.3,16.7,7.8,35,0c0.1,0,0.3,0.1,0.4,0.1c0.1,0,0.2,0.1,0.3,0.1c-6.9,3-13.2,4.1-18.6,4.1
					c-10.2,0-17-3.7-17.7-4c0.1,0,0.2-0.1,0.3-0.1C433.1,531.4,433.2,531.3,433.3,531.3z"/>
				<path class="st3" d="M433.4,530.8c0.1,0.1,0.2,0.1,0.4,0.2c-0.2,0.1-0.4,0.2-0.6,0.3c-0.3-0.1-0.4-0.2-0.4-0.2l-0.1-0.1
					c0.2-0.1,0.3-0.1,0.5-0.2C433.3,530.8,433.4,530.8,433.4,530.8z"/>
				<path class="st3" d="M432.6,531.5c-0.1-0.1-0.2-0.2-0.2-0.4c0.1-0.1,0.3-0.1,0.4-0.2l0.1,0.1c0,0,0.1,0.1,0.4,0.2
					c-0.1,0-0.2,0.1-0.3,0.1C432.9,531.5,432.8,531.5,432.6,531.5C432.6,531.5,432.6,531.5,432.6,531.5z"/>
				<path class="st3" d="M433.3,530.8c-0.2,0.1-0.3,0.1-0.5,0.2c-0.1,0.1-0.3,0.1-0.4,0.2c0-0.1,0-0.2,0.1-0.3
					c0.1-0.2,0.4-0.3,0.7-0.2l0.1,0C433.2,530.7,433.3,530.7,433.3,530.8z"/>
				<path class="st3" d="M432.7,531.5c-1.5,0.6-3.1,1.1-5,1.5c-0.2-0.1-0.4-0.2-0.6-0.4c2-0.4,3.8-0.9,5.3-1.5
					C432.4,531.3,432.5,531.4,432.7,531.5C432.6,531.5,432.6,531.5,432.7,531.5z"/>
				<path class="st1" d="M434.4,476.6c-1,4.5-3.3,7.9-4.1,9.1c-0.3-3.9-0.1-6.5-0.1-6.5s-1.1-21.1,21.1-21.1
					c20.7,0,18.9,21.1,18.9,21.1s0.2,2.5,0,6.1v0c0,0.3,0,0.6,0,0.9l-0.3,0c-0.8-1.1-3.2-4.5-4.1-9.6H434.4z"/>
				<path class="st5" d="M440.9,511.7c-7.9-5.7-10.1-18.2-10.6-26l0.5,0c0.3,3.9,0.9,9.1,2.6,13.9c0.8,2.4,1.9,4.7,3.2,6.8
					c1.3,2,2.9,3.8,5,5.2c-0.1,0-0.2-0.1-0.2-0.1C441.2,511.5,441,511.6,440.9,511.7z"/>
				<path class="st5" d="M430.4,485.7c0.5,7.7,2.6,20.3,10.6,26c-0.1,0.1-0.1,0.2-0.1,0.3v0.2c-4.1-2.9-6.7-7.5-8.4-12.3
					c-1.5-4.6-2.2-9.4-2.5-13.2c0.1,0.2,0.1,0.3,0.1,0.3l0.1-1C430.2,486,430.3,485.9,430.4,485.7z"/>
				<path class="st1" d="M430.4,485.7c-0.1,0.1-0.2,0.3-0.2,0.3l-0.1,1c0,0,0-0.1-0.1-0.3c0-0.3-0.1-0.6-0.1-1L430.4,485.7z"/>
				<path class="st2" d="M471,485.7c-0.2,0.2-0.4,0.3-0.5,0.5l-0.2-0.8v0c0.2-3.6,0-6.1,0-6.1s1.7-21.1-18.9-21.1
					c-22.2,0-21.1,21.1-21.1,21.1s-0.1,2.6,0.1,6.5l-0.5,0c0,0.3,0,0.6,0.1,1c-0.8-2.7-5.7-22.5,9.8-30.3c3.8-1.9,7.3-2.6,10.5-2.4
					c3.2-0.1,6.7,0.6,10.5,2.4C475,463.6,472.2,480.9,471,485.7z"/>
				<path class="st3" d="M427.7,533.1c8,5.1,15.8,6.8,22.7,6.8c5.9,0,11.1-1.2,15.2-2.7c3.7-1.3,6.5-2.8,8.5-4.1
					c0.3,0.1,0.5,0.1,0.7,0.2c-0.1,0-0.2,0.1-0.2,0.1c-5,3.1-25.5,14.1-47.6-0.2C427.2,533.2,427.5,533.1,427.7,533.1z"/>
				<path class="st3" d="M427.7,533.1c-0.2,0.1-0.5,0.1-0.7,0.1c-0.1-0.1-0.2-0.1-0.2-0.2l0.2-0.4c0,0,0.1,0,0.1,0
					C427.3,532.8,427.5,532.9,427.7,533.1z"/>
				<path class="st3" d="M427,532.7L427,532.7C427.1,532.7,427.1,532.7,427,532.7C427.1,532.7,427,532.7,427,532.7z"/>
				<path class="st3" d="M427,532.6L427,532.6C427,532.7,427,532.7,427,532.6L427,532.6C427,532.6,427,532.6,427,532.6z"/>
				<path class="st3" d="M427,532.7l-0.2,0.4L427,532.7C427,532.7,427,532.7,427,532.7z"/>
				<path class="st3" d="M427,532.7l-0.2,0.4c-0.2-0.1-0.3-0.2-0.5-0.2C426.5,532.8,426.7,532.7,427,532.7z"/>
				<path class="st3" d="M426.3,532.4c0.2,0,0.5,0.1,0.7,0.3l0,0.1c-0.2,0.1-0.5,0.1-0.8,0.1L426.3,532.4z"/>
				<path class="st3" d="M426.3,532.4C426.3,532.4,426.3,532.4,426.3,532.4C426.3,532.4,426.3,532.4,426.3,532.4L426.3,532.4z"/>
				<path class="st5" d="M441.3,524.8c0,0-2.3,3.4-8.1,5.9c0,0-0.1,0-0.1-0.1l-0.1,0c-0.2-0.1-0.5-0.1-0.7,0.2
					c-0.1,0.1-0.1,0.2-0.1,0.3c-1.5,0.6-3.3,1.1-5.3,1.5c0,0,0,0-0.1,0c0,0,0,0,0,0c-0.2-0.1-0.5-0.2-0.7-0.3c0,0,0,0,0,0
					c0,0-0.1,0-0.1,0c2.5-0.5,4.6-1.1,6.4-1.8c5.3-2.2,7.7-5.2,8.2-5.8v0.1H441.3z"/>
				<path class="st3" d="M426.3,532.4l-0.1,0.5L426.3,532.4C426.3,532.4,426.3,532.4,426.3,532.4z"/>
				<path class="st3" d="M426.2,532.3C426.3,532.3,426.3,532.4,426.2,532.3L426.2,532.3v0.5V532.3L426.2,532.3L426.2,532.3
					L426.2,532.3z"/>
				<path class="st3" d="M426.3,533.3c0.2,0,0.5-0.1,0.7-0.1c22.1,14.3,42.6,3.3,47.6,0.2c0.1-0.1,0.2-0.1,0.2-0.1
					c0.3,0.1,0.5,0.1,0.5,0.1c0.3,0.1,0.5-0.1,0.6-0.4c0.4,0,0.8,0.1,1.1,0.3c4.7,2.7,20.5,13.1,20.9,29.2c-0.1,0-0.2,0-0.5,0
					c-0.1-7.8-4-14.2-8.5-19.1c-2.3-2.5-4.7-4.6-6.9-6.2c-2.2-1.6-4-2.8-5.2-3.5c-0.3-0.2-0.6-0.3-1-0.3c-0.1,0-0.2,0-0.3,0
					c-0.2,0-0.5,0.1-0.7,0.3h0c-3.2,2-12.5,7.1-24.5,7.1c-3.6,0-7.5-0.5-11.5-1.6c-4-1.2-8.2-3-12.4-5.8c-0.1-0.1-0.2-0.1-0.3-0.1
					L426.3,533.3L426.3,533.3z"/>
				<path class="st3" d="M426.2,532.8l-0.1-0.5l0,0c0,0,0,0,0,0h0V532.8z"/>
				<path class="st3" d="M427,533.2c-0.2,0-0.5,0.1-0.7,0.1l-0.1,0h0c0,0,0,0,0,0c0,0,0,0,0,0c0,0,0,0-0.1,0
					c-0.2-0.1-0.4-0.2-0.4-0.5c0.2,0,0.3,0,0.5,0c0.2,0,0.4,0.1,0.5,0.2C426.8,533.1,426.9,533.1,427,533.2z"/>
				<path class="st3" d="M426.2,533.3C426.2,533.3,426.2,533.3,426.2,533.3C426.2,533.3,426.2,533.3,426.2,533.3z"/>
				<path class="st3" d="M426.2,532.4l0.1,0.5c-0.2,0-0.3,0-0.5,0v0C425.7,532.6,425.9,532.4,426.2,532.4z"/>
				<path class="st3" d="M426.1,533.3C426.1,533.3,426.2,533.3,426.1,533.3C426.2,533.3,426.2,533.3,426.1,533.3c0.1,0,0.1,0,0.1,0
					c0.1,0,0.2,0.1,0.3,0.1c4.2,2.8,8.4,4.6,12.4,5.8c4,1.2,7.9,1.6,11.5,1.6c12,0,21.3-5.1,24.5-7.1h0c0.2-0.1,0.5-0.2,0.7-0.3
					c0.1,0,0.2,0,0.3,0c0.3,0,0.7,0.1,1,0.3c1.2,0.7,3.1,1.9,5.2,3.5c2.2,1.6,4.6,3.7,6.9,6.2c4.5,4.9,8.4,11.3,8.5,19.1
					c-4.9-0.1-43.5-0.5-69.6-0.5c-6.8,0-12.7,0-17,0.1c-2.1,0-3.9,0.1-5,0.1c-0.6,0-1,0.1-1.4,0.1c0.2-8.1,4.4-14.7,9.2-19.7
					c4.8-5,10.2-8.2,12-9.3h0c0.1-0.1,0.2-0.1,0.4-0.1L426.1,533.3z"/>
				<path class="st3" d="M425.1,532.6c0.3-0.2,0.6-0.2,0.9-0.2c0.1,0,0.1,0,0.2,0v0c0,0,0,0,0,0l0,0c-0.2,0-0.4,0.2-0.4,0.5v0
					c-0.1,0-0.2,0.1-0.4,0.1l0-0.1l-0.1-0.1L425.1,532.6z"/>
				<path class="st3" d="M425.3,532.8l0.1,0.1L425.3,532.8z"/>
				<path class="st3" d="M425.1,532.6l0.1,0.2L425.1,532.6C425.1,532.6,425.1,532.6,425.1,532.6z"/>
				<path class="st3" d="M497.5,563c-7-0.1-86.1-1-93.1-0.1c0-0.2,0-0.3,0-0.5c0.3,0,0.8-0.1,1.4-0.1c1.2-0.1,2.9-0.1,5-0.1
					c4.3-0.1,10.2-0.1,17-0.1c26.1,0,64.7,0.4,69.6,0.5C497.5,562.7,497.5,562.8,497.5,563z"/>
				<path class="st3" d="M477.1,533.3c-0.4-0.2-0.7-0.3-1.1-0.3c0,0,0,0,0,0c0-0.2,0-0.4-0.2-0.5c0,0,0,0,0.1,0c0.5,0,1,0.1,1.5,0.4
					l0,0c2.4,1.4,7.7,4.8,12.3,9.8c4.7,5.1,8.8,11.9,8.8,20.3c0,0.1-0.1,0.3-0.1,0.4c-0.1,0.1-0.2,0.1-0.4,0.1c0,0-0.7,0-1.9,0
					c-1.2,0-3,0-5.2-0.1c-4.4-0.1-10.5-0.1-17.6-0.2c-14-0.1-31.6-0.2-45.5-0.2c-5.7,0-10.8,0-14.8,0.1c-4,0.1-6.9,0.1-8.3,0.2
					c-0.3,0-0.5,0-0.6,0.1c0,0,0,0,0,0c0,0,0-0.1,0.1-0.1v0c0,0,0-0.1,0-0.1c0,0,0,0,0,0c0,0,0-0.1,0-0.1c0,0,0,0,0,0
					c0,0,0-0.1,0-0.1v0c0,0,0-0.1,0-0.1c7-0.8,86.1,0.1,93.1,0.1v0h0.5c0,0,0,0,0,0l0-0.5c0,0,0,0,0,0
					C497.6,546.4,481.8,536.1,477.1,533.3z"/>
				<path class="st3" d="M404.4,562.9c0,0,0,0.1,0,0.1C404.4,562.9,404.4,562.9,404.4,562.9C404.4,562.9,404.4,562.9,404.4,562.9z"
					/>
				<path class="st3" d="M425.6,533.4c-1.9,1.1-7.2,4.3-12,9.3c-4.7,4.9-8.9,11.6-9.2,19.7c0,0,0,0,0,0c-0.2,0-0.3,0-0.4,0.1l0,0
					c0.4-16.8,17.7-27.4,21.5-29.5c0.1-0.1,0.2-0.1,0.4-0.1c0,0.2,0.2,0.4,0.4,0.5l-0.1,0C425.9,533.3,425.7,533.3,425.6,533.4
					L425.6,533.4z"/>
				<path class="st3" d="M404.2,563.3L404.2,563.3C404.2,563.4,404.2,563.4,404.2,563.3C404.2,563.4,404.2,563.4,404.2,563.3z"/>
				<path class="st3" d="M404.3,563.3L404.3,563.3C404.3,563.3,404.3,563.3,404.3,563.3c-0.1,0.1-0.1,0.1-0.1,0.1c0,0,0,0,0,0
					c0,0,0,0,0,0c0,0,0,0,0,0c0,0,0,0,0,0c0,0,0,0,0,0v0C404.2,563.3,404.3,563.3,404.3,563.3C404.3,563.3,404.3,563.3,404.3,563.3
					C404.3,563.3,404.3,563.3,404.3,563.3C404.3,563.3,404.3,563.3,404.3,563.3L404.3,563.3C404.3,563.3,404.3,563.3,404.3,563.3
					C404.3,563.3,404.3,563.3,404.3,563.3C404.3,563.2,404.3,563.2,404.3,563.3L404.3,563.3C404.4,563.2,404.4,563.2,404.3,563.3
					C404.4,563.2,404.4,563.2,404.3,563.3C404.4,563.2,404.3,563.2,404.3,563.3z"/>
				<path class="st3" d="M404.2,563.4L404.2,563.4C404.2,563.4,404.2,563.4,404.2,563.4C404.2,563.4,404.2,563.4,404.2,563.4z"/>
				<path class="st3" d="M404.2,563.4L404.2,563.4C404.2,563.4,404.2,563.4,404.2,563.4C404.2,563.4,404.2,563.4,404.2,563.4
					C404.2,563.4,404.2,563.4,404.2,563.4L404.2,563.4z"/>
				<polygon class="st3" points="404.1,563.4 404.1,563.4 404.2,563.4 				"/>
				<polygon class="st3" points="404.1,563.3 404.1,563.4 404.1,563.4 				"/>
				<polygon class="st3" points="404.1,563.3 404.1,563.3 404,563.1 404.1,563.2 404.2,563.3 404.2,563.4 404.2,563.4 404.2,563.4 
					404.1,563.4 				"/>
				<path class="st3" d="M404,563.5C404,563.5,404,563.5,404,563.5C404,563.5,404,563.5,404,563.5z"/>
				<path class="st3" d="M403.9,563c0-0.2,0-0.3,0-0.5c0,0,0,0,0,0v0c0.1,0,0.2,0.1,0.3,0.1c0.1,0.1,0.1,0.1,0.1,0.2
					C404.1,562.9,403.9,562.9,403.9,563z"/>
				<path class="st3" d="M404.1,563.2l-0.1-0.1L404,563l0.4,0.2v0c0,0,0,0,0,0.1c0,0,0,0,0,0c0,0,0,0,0,0h0c0,0,0,0,0,0c0,0,0,0,0,0
					c0,0,0,0,0,0c0,0,0,0,0,0c0,0,0,0,0,0L404.1,563.2L404.1,563.2z"/>
				<path class="st3" d="M404.4,562.4c0,0.2,0,0.3,0,0.5c0,0,0,0,0,0c0-0.1-0.1-0.2-0.1-0.2c-0.1-0.1-0.2-0.1-0.3-0.1v0c0,0,0,0,0,0
					c0,0,0,0,0,0l0,0C404.1,562.4,404.2,562.4,404.4,562.4C404.4,562.4,404.4,562.4,404.4,562.4z"/>
				<path class="st3" d="M403.9,562.5c-0.1,0-0.1,0-0.2,0l0,0L403.9,562.5C403.9,562.5,403.9,562.5,403.9,562.5L403.9,562.5z"/>
				<path class="st3" d="M403.6,562.6L403.6,562.6C403.7,562.5,403.6,562.6,403.6,562.6C403.6,562.6,403.6,562.6,403.6,562.6z"/>
				<path class="st3" d="M403.5,562.8c0-0.1,0.1-0.1,0.1-0.1c0,0,0,0,0,0c0,0,0.1-0.1,0.2-0.1c0.1,0,0.1,0,0.2,0h0
					c0,0.2,0,0.3,0,0.5h-0.5c0,0,0-0.1,0-0.1c0,0,0,0,0,0C403.4,562.8,403.5,562.8,403.5,562.8z"/>
				<path class="st3" d="M403.6,562.6c0,0-0.1,0.1-0.1,0.1C403.5,562.7,403.5,562.7,403.6,562.6z"/>
				<path class="st1" d="M403.5,563.2C403.5,563.2,403.5,563.2,403.5,563.2L403.5,563.2c0.1,0.1,0.1,0.1,0.1,0.1c0,0,0,0,0,0.1
					c0,0,0,0,0,0c0,0,0,0,0,0c0,0,0,0,0,0c0,0,0,0,0.1,0h0c0,0,0,0,0.1,0c0,0,0.1,0,0.1,0h0c0,0,0,0,0.1,0c0,0,0,0,0.1,0
					c0,0,0,0,0,0c0,0,0.1,0,0.1,0c0,0,0,0,0,0c0,0,0,0,0,0c-0.1,0.1-0.2,0.1-0.3,0.1c-0.1,0-0.3-0.1-0.4-0.1
					C403.5,563.3,403.5,563.2,403.5,563.2C403.5,563.1,403.5,563.1,403.5,563.2C403.5,563.2,403.5,563.2,403.5,563.2z"/>
				<path class="st3" d="M403.4,562.9c0,0,0-0.1,0-0.1C403.5,562.8,403.4,562.8,403.4,562.9z"/>
				<path class="st3" d="M403.4,563.1C403.4,563.1,403.4,563.1,403.4,563.1C403.4,563.1,403.4,563.1,403.4,563.1
					C403.4,563.1,403.4,563.1,403.4,563.1z"/>
				<path class="st1" d="M403.4,563.1C403.4,563.1,403.4,563.1,403.4,563.1C403.4,563.1,403.4,563.1,403.4,563.1
					C403.4,563.1,403.4,563.1,403.4,563.1z"/>
				<path class="st3" d="M412.9,542c4.9-5.1,10.3-8.4,12.3-9.5l0.1,0.2l0.1,0.1l0,0.1c-3.8,2.1-21.1,12.7-21.5,29.5l-0.2,0.1l0,0
					l-0.1,0c0,0-0.1,0-0.1,0.1c0,0,0,0,0,0c0,0-0.1,0.1-0.1,0.1c0,0,0,0.1,0,0.1c0,0,0,0,0,0c0,0,0,0.1,0,0.1
					C403.4,554.3,407.9,547.2,412.9,542z"/>
				<path class="st3" d="M403.5,563.3C403.5,563.2,403.5,563.2,403.5,563.3c-0.1-0.1-0.1-0.1-0.1-0.1c0,0,0,0,0,0c0,0,0,0,0,0
					c0,0,0,0,0,0c0,0,0-0.1,0-0.1v0h0.5c0,0,0.2-0.1,0.5-0.1c0,0,0,0.1,0,0.1v0c0,0,0,0.1,0,0.1c0,0,0,0,0,0c0,0,0,0.1,0,0.1
					c0,0,0,0,0,0L404,563l0.1,0.1l0.1,0.2l0,0.1v0h0l0,0c0,0-0.1,0-0.1,0c0,0,0,0,0,0c0,0,0,0-0.1,0c0,0,0,0-0.1,0h0
					c0,0-0.1,0-0.1,0c0,0,0,0-0.1,0h0c0,0-0.1,0-0.1,0c0,0,0,0,0,0C403.6,563.4,403.6,563.4,403.5,563.3
					C403.6,563.3,403.6,563.3,403.5,563.3C403.6,563.3,403.5,563.3,403.5,563.3C403.5,563.3,403.5,563.3,403.5,563.3L403.5,563.3z"
					/>
			</g>
			<g>
			</g>
		</g>
	</g>
	<g>
		<g>
			<path class="st6" d="M454.2,495.4c-0.3,0.9-2.6,1.6-3.7,1.6c-0.8,0-2.9-0.3-3.5-1.5"/>
		</g>
	</g>
	<g>
		<g>
			<path class="st1" d="M467,483.1c-0.9-0.4-3.5-1.5-4.7-1.6c-2-0.3-6.7-0.7-6.7-0.7c-0.9-0.7-1.2-2-0.9-1.9c1.3,0.5,8.4,1,9.4,1.5
				C464.6,480.6,467.2,482.9,467,483.1z"/>
		</g>
	</g>
	<g>
		<g>
			<path class="st1" d="M434.7,482.4c0.9-0.4,3.6-1.3,4.8-1.4c2-0.2,6.7-0.4,6.7-0.4c1-0.7,1.3-2,1-1.9c-1.7,0.5-8.4,0.7-9.5,1.1
				C437.1,480.1,434.5,482.2,434.7,482.4z"/>
		</g>
	</g>
	<path class="st1" d="M454.8,489.6C454.8,489.6,454.8,489.6,454.8,489.6c0.7-1.6,2.3-2.5,5.1-2.7c2-0.2,3.9,0.8,3.9,0.8
		c-0.6,0.1-0.9,0.4-1.1,0.6c0.9-0.6,1.8-0.3,2.2,0c0,0-1.3,0.2-1.7,0.8C459.1,487.1,454.8,489.6,454.8,489.6z"/>
	<path class="st1" d="M447,489.6C447,489.6,447,489.6,447,489.6c-0.7-1.6-2.3-2.5-5.1-2.7c-2-0.2-3.9,0.8-3.9,0.8
		c0.6,0.1,0.9,0.4,1.1,0.6c-0.9-0.6-1.8-0.3-2.2,0c0,0,1.3,0.2,1.7,0.8C442.7,487.1,447,489.6,447,489.6z"/>
	<ellipse class="st1" cx="429.8" cy="525.2" rx="7.9" ry="9.7"/>
	<path class="st1" d="M441.3,528.8c0,4.1-2.7,7.4-6,7.4c-3.3,0-6-3.3-6-7.4c0-4.1,2.7-7.4,6-7.4
		C438.6,521.3,441.3,524.7,441.3,528.8z"/>
	<ellipse class="st1" cx="431.7" cy="538.5" rx="4.7" ry="5.8"/>
	<path class="st1" d="M435.5,547.9c0,3.2-3.8,10.8-3.8,10.8s-3.5-7.6-3.5-10.8c0-3.2,1.6-5.8,3.6-5.8
		C433.8,542.1,435.5,544.7,435.5,547.9z"/>
	<path class="st4" d="M453.4,505.4l-4.6,0.9c-1.1,0-3.8-2.8-3.8-2.8c0-1.1,0.4-1.8,1.5-1.8h8.4c1.1,0,1.7,0.6,1.7,1.8
		C456.6,503.4,454.5,505.4,453.4,505.4z"/>
	<g>
		<g>
			<path class="st1" d="M457.8,502.3c-0.9-0.1-4.5-2.1-5.6-1.6c-0.6,0.3-1.6,0.4-2.4,0c-0.8-0.4-5.2,1.6-5.4,2
				c2.2,0,4.4-0.7,6.6-0.6C453.6,502.1,456.1,502.8,457.8,502.3z"/>
		</g>
	</g>
	<g>
		<g>
			<path class="st1" d="M450.8,508.2c2.3-0.1,5.3-2.4,6.8-5.8c-2.1,0.4-4.1,3.5-6.9,3.5c-3.2,0-5-3.1-6.5-3.1
				C446.2,506.8,448.5,508.2,450.8,508.2z"/>
		</g>
	</g>
</g>
<line class="st0" x1="495.1" y1="333.6" x2="467.7" y2="436"/>
<line class="st0" x1="370.9" y1="513.7" x2="230.3" y2="513.7"/>
<line class="st0" x1="108.5" y1="440.4" x2="83.8" y2="334.8"/>
<line class="st0" x1="131.5" y1="189.4" x2="221" y2="112.9"/>
<line class="st0" x1="371" y1="112.9" x2="469.1" y2="185"/>
<path class="st0" d="M136.7,301.8"/>
</svg>
