<?xml version="1.0" encoding="utf-8"?>
<!-- Generator: Adobe Illustrator 23.0.4, SVG Export Plug-In . SVG Version: 6.00 Build 0)  -->
<svg version="1.1" id="Camada_1" xmlns="http://www.w3.org/2000/svg" xmlns:xlink="http://www.w3.org/1999/xlink" x="0px" y="0px"
	 viewBox="0 0 565.2 389.2" style="enable-background:new 0 0 565.2 389.2;" xml:space="preserve">
<style type="text/css">
	.st0{display:none;}
	.st1{display:inline;}
	.st2{fill:#F5F5F5;}
	.st3{fill:#FFFFFF;stroke:#334A8C;stroke-width:6;stroke-miterlimit:10;}
	.st4{fill:#202020;}
	.st5{fill:#7D96EE;}
	.st6{fill:#334A8C;}
	.st7{fill:#F5F5F3;}
	.st8{fill:#657BB5;}
	.st9{fill:none;stroke:#000000;stroke-linecap:round;stroke-linejoin:round;stroke-miterlimit:10;}
	.st10{fill:none;stroke:#334A8C;stroke-width:6;stroke-miterlimit:10;}
</style>
<g id="Background_Simple" class="st0">
	<g class="st1">
		<g>
			<path class="st2" d="M312.6,125.3c25.5-2,32-4.6,57.3-8.2c31.7-4.5,47.5-8.5,78.9-2.5s62.3,24.6,74.5,54.2
				c15.3,37.2-3.6,81.7-34.7,107.1c-31.1,25.5-71.8,35.7-111.4,42.9c-34.4,6.2-69.3,10.6-104.2,8.8c-34.9-1.8-69.9-10.1-100-27.9
				c-37.5-22.1-65.3-57.6-86.7-95.5c-15.5-27.5-28.4-57.4-29.7-88.9s10.6-64.9,36.3-83.2c32.4-23,78.8-16.5,112,5.3
				c29.9,19.7,40.8,32.9,58.2,59.9c6.8,10.5,16.4,19,27.9,23.9C297.5,124.1,304.9,125.9,312.6,125.3z"/>
		</g>
	</g>
</g>
<g id="Windows">
</g>
<circle class="st3" cx="194.4" cy="326.3" r="49.2"/>
<circle class="st3" cx="378.2" cy="326.3" r="49.2"/>
<circle class="st3" cx="415.1" cy="168.2" r="49.2"/>
<circle class="st3" cx="154.4" cy="168.2" r="49.2"/>
<circle class="st3" cx="283.4" cy="64.7" r="49.2"/>
<g>
	<g>
		<g>
			<path class="st4" d="M205.6,295.1c0,0,0.3,8.3,4.5,12.7c5.4,5.6,6.3,20.6-12,19.4l2.7-34.9L205.6,295.1z"/>
			<path class="st4" d="M196.9,298.5c2.3,0.8,4.2,2.3,5.5,4.3c0.1,0.1,0.2,0.3,0.3,0.5c1.8-1.8,2.9-4.2,2.9-6.9
				c0-5.4-4.4-9.7-9.7-9.7s-9.7,4.4-9.7,9.7c0,0.5,0.1,1.2,0.1,1.7C189.8,297.5,193.5,297.3,196.9,298.5z"/>
		</g>
		<path class="st4" d="M181.3,311c0,0-3.7-12.9,6.1-17.8c9.8-4.9,17.6,3.7,18.1,7.1l-13.9-3.7l-5.8,3c0,0-1.3,3.5-3.5,4.5L181.3,311
			"/>
		<path class="st5" d="M205.9,306.8c0,0,1.5,21.5-12,21.5s-12.4-21.5-12.4-21.5s-0.7-12.8,12.8-12.8
			C206.9,294,205.9,306.8,205.9,306.8z"/>
		<g>
			<circle class="st6" cx="188.8" cy="310.7" r="1.1"/>
			<circle class="st6" cx="199.2" cy="310.7" r="1.1"/>
			<path class="st6" d="M191.5,305.8c-0.1,0.1-0.3,1.5-0.3,1.5l-6.1,0.7l1.5-1c0.4-0.2,0.8-0.4,1.2-0.5L191.5,305.8z"/>
			<path class="st4" d="M195.8,305.8c0.1,0.1,0.3,1.5,0.3,1.5l6.1,0.7l-1.5-1c-0.4-0.2-0.8-0.4-1.2-0.5L195.8,305.8z"/>
		</g>
		<g>
			<path class="st5" d="M205,317.7c0.9,1.3,2.7,0.4,3.7-1.2c1-1.6,1.5-4.9,0-5.8c-1.5-0.9-2.7,0.9-2.7,0.9s-0.4,3.3-0.6,4.6
				L205,317.7z"/>
			<g>
				<g>
					<g>
						<path class="st6" d="M205.5,314.8L205.5,314.8c-0.1-0.1-0.2-0.1-0.1-0.2c1.2-2.6,3.2-2,3.2-2c0.1,0,0.1,0.1,0.1,0.2
							s-0.1,0.1-0.2,0.1s-1.7-0.5-2.8,1.9C205.6,314.8,205.5,314.8,205.5,314.8z"/>
					</g>
				</g>
				<g>
					<path class="st6" d="M207,316.1c-0.1,0-0.1,0-0.1-0.1c-0.1-0.1-0.1-0.1,0-0.2c0.3-0.4,0.4-0.7,0.4-1.1
						c-0.1-0.7-0.9-1.1-0.9-1.1c-0.1-0.1-0.1-0.1-0.1-0.2c0.1-0.1,0.1-0.1,0.2-0.1c0.1,0,0.9,0.5,1.1,1.3c0.1,0.4-0.1,0.9-0.4,1.3
						C207.1,316,207.1,316.1,207,316.1z"/>
				</g>
			</g>
		</g>
		<g>
			<path class="st5" d="M182.4,317.7c-0.9,1.3-2.6,0.4-3.6-1.2c-1-1.6-1.5-4.9,0-5.8c1.5-0.9,2.7,0.9,2.7,0.9"/>
			<g>
				<g>
					<path class="st6" d="M192.8,313.3v2.1c0,0.2,0.1,0.4,0.1,0.5c0.2,0.5,0.7,0.8,1.3,0.8c0.1,0,0.2,0,0.4-0.1l0.6-0.2
						c0.1-0.1,0.2-0.2,0.2-0.4c-0.1-0.1-0.2-0.2-0.4-0.2l-0.6,0.2c-0.1,0-0.1,0-0.2,0c-0.3,0-0.6-0.2-0.7-0.5
						c-0.1-0.1-0.1-0.2-0.1-0.3v-2.1c0-0.2-0.1-0.3-0.3-0.3C193,313,192.8,313.2,192.8,313.3L192.8,313.3z"/>
					<path class="st6" d="M190.7,311.9l-2.8,1.8c-0.1,0.1-0.1,0.1-0.1,0.2c0.1,0.1,0.1,0.1,0.2,0.1l2.8-1.8c0.1-0.1,0.1-0.1,0.1-0.2
						C190.9,311.9,190.8,311.9,190.7,311.9"/>
					<path class="st6" d="M197.3,312.2l2.4,1.8c0.1,0.1,0.2,0.1,0.2,0c0.1-0.1,0.1-0.2,0-0.2l-2.4-1.8c-0.1-0.1-0.2-0.1-0.2,0
						C197.3,312,197.3,312.1,197.3,312.2"/>
					<path class="st6" d="M190,318.9c0,0,1.8,1.1,4.1,1.1c2.3,0,4-1.1,4.1-1.1c0.1-0.1,0.2-0.2,0.1-0.4c-0.1-0.1-0.2-0.2-0.4-0.1
						l0,0c-0.2,0.1-1.8,1-3.8,1c-1.1,0-2-0.2-2.7-0.5c-0.4-0.1-0.6-0.2-0.8-0.4c-0.1-0.1-0.2-0.1-0.2-0.1l-0.1-0.1l0,0
						c-0.1-0.1-0.3-0.1-0.4,0.1C189.9,318.7,189.9,318.8,190,318.9L190,318.9z"/>
					<path class="st6" d="M179,312.8L179,312.8c0,0,0.2-0.1,0.4-0.1c0.5,0,1.5,0.2,2.3,1.9c0.1,0.1,0.1,0.1,0.2,0.1
						c0.1-0.1,0.1-0.1,0.1-0.2c-0.9-1.8-1.9-2.1-2.6-2.1c-0.3,0-0.5,0.1-0.5,0.1c-0.1,0-0.1,0.1-0.1,0.2
						C178.8,312.8,179,312.9,179,312.8L179,312.8z"/>
					<path class="st6" d="M181,313.3c0,0-0.3,0.1-0.5,0.4c-0.2,0.2-0.5,0.7-0.5,1.2c0,0.4,0.1,0.7,0.4,1.1c0.1,0.1,0.1,0.1,0.2,0
						s0.1-0.1,0-0.2c-0.3-0.4-0.4-0.7-0.4-0.9c0-0.4,0.2-0.7,0.5-1c0.1-0.1,0.2-0.2,0.4-0.2l0.1-0.1h0.1c0.1-0.1,0.1-0.1,0.1-0.2
						C181.2,313.3,181,313.3,181,313.3L181,313.3z"/>
				</g>
			</g>
		</g>
		<g>
			<path class="st4" d="M181.3,311c0,0-3.7-12.9,6.1-17.8c9.8-4.9,17.6,3.7,18.1,7.1l-13.9-3.7l-5.8,3c0,0-1.3,3.5-3.5,4.5
				L181.3,311"/>
			<path class="st4" d="M181.3,311c0,0,5.2-6.5,1.9-13C183.3,298,180.9,306,181.3,311z"/>
			<path class="st4" d="M205.9,311.3c0,0-4.4-5.1-2.3-13.3C203.6,298,206.3,306.3,205.9,311.3z"/>
			<path class="st4" d="M184.7,297c0,0,10.2,15.7,22.7,11C207.5,308,197.2,291.7,184.7,297z"/>
			<path class="st4" d="M188.1,298.9c0,0.2,1,6.5,7,8.9c0,0-8.7-0.4-11.1-8.3L188.1,298.9z"/>
			<path class="st6" d="M207.1,302.2v4.4c0,0.2-0.2,0.2-0.4,0.1c-1.2-1.6-5.8-6.8-13.4-6.5c-7.5,0.3-11.4,5.2-12.5,6.8
				c-0.1,0.1-0.3,0.1-0.3-0.1v-4.3c0-0.5,0.1-0.9,0.4-1.3c1.2-2,5.2-6.8,12.4-6.8c8.8,0,12.9,5.3,13.6,6.7
				C207.1,301.4,207.1,302.1,207.1,302.2z"/>
		</g>
	</g>
	<g>
		<path class="st5" d="M188.3,326.7v7.9c0,0-2.6,3.5-9.3,4.7h29.8c0,0-8.6-1.8-9.3-4.7v-7.8"/>
		<path class="st4" d="M188.3,327c0,0,2.3,5.2,7.1,4.9c0,0,3.3-0.1,4.1-3.4l-0.3-1.5C199.1,327,194.9,330,188.3,327z"/>
		<path class="st6" d="M209.2,339.3h-13.6h-2.5H179c0,0-13.5,6.8-13.5,18.5h27.6h2.5h27.1C222.7,346.1,209.2,339.3,209.2,339.3z"/>
	</g>
</g>
<g>
	<g>
		<g id="XMLID_15_">
			<g>
				<path class="st6" d="M312.3,92h-27.1h-2.5H255c0-11.7,13.5-18.5,13.5-18.5s4,2.7,15.2,2.7c7.5,0,14.1-2.4,14.5-2.6
					C298.9,73.8,312.3,80.6,312.3,92z"/>
				<path class="st6" d="M303.7,42.4c9.1,10.7,11.7,27.1-7.7,30.5c-2.6-0.7-6.5-2.2-6.9-4.1v-5.2c0.1-0.2,0.2-0.4,0.2-0.7l-0.2-1V61
					c3.2-2.1,4.8-6.1,5.7-9.9l-0.2,0.9c0.9,1.3,2.7,0.4,3.7-1.2s1.5-4.9,0-5.8c-1.5-0.9-2.7,0.9-2.7,0.9s-0.1,0.7-0.2,1.5
					c0.1-0.7,0.1-1.3,0.2-1.9c0-0.1,0-0.2,0-0.4c0.1-1.8,0.1-3.4,0-4.8l0,0c0-1-0.1-2.9-0.8-4.9c0,0,0,0,0-0.1
					c-0.1-0.2-0.1-0.4-0.1-0.5l0.6,0.2c-0.2-1.7-2.2-4.6-5.3-6.6l0.1-0.1c0,0,5.9-2.1,7.7,3C299.2,36.2,301.2,39.5,303.7,42.4z"/>
				<path class="st5" d="M295.1,48.8c0.1-0.4,0.1-0.8,0.1-1.2c0-0.1,0-0.2,0.1-0.2c0.1-0.9,0.2-1.5,0.2-1.5s1.3-1.8,2.7-0.9
					c1.5,0.9,1,4.1,0,5.8s-2.8,2.4-3.7,1.2l0.2-0.9l0.1-0.7c0-0.1,0.1-0.2,0.1-0.2c0-0.1,0.1-0.2,0.1-0.3c0-0.1,0-0.1,0-0.2
					C295,49.4,295,49.1,295.1,48.8z"/>
				<path class="st7" d="M298.3,73.5L298.3,73.5L298.3,73.5h-8c0.3,0,0.6-0.1,0.9-0.1c1.7-0.1,3.3-0.3,4.7-0.5
					C297.3,73.3,298.3,73.5,298.3,73.5z"/>
				<path class="st7" d="M298.3,73.5L298.3,73.5c-0.5,0.2-7.1,2.7-14.5,2.7c-11.1,0-15.2-2.7-15.2-2.7h7.9c2.3,0.3,4.7,0.4,7.2,0.4
					c0,0,3.8-0.2,6.7-0.4H298.3z"/>
				<path class="st4" d="M295.5,40.4c0.1,1.4,0.1,3,0,4.8c0.1-2.4,0-4.1,0-4.1S295.5,40.8,295.5,40.4z"/>
				<path class="st7" d="M295.5,40.3c0-0.1,0-0.2,0-0.3c-0.1-1-0.2-2.6-0.6-4.1c-0.1-0.2-0.1-0.4-0.1-0.5
					C295.3,37.4,295.5,39.3,295.5,40.3z"/>
				<path class="st6" d="M295.4,40c0,0.1,0,0.2,0,0.3l0,0c0,0.4,0,0.7,0,0.7s0.1,1.7,0,4.1c0,0.1,0,0.2,0,0.4c0,0-1.8-2.3-2.7-6
					c-2.9-2-4-4.8-4.3-6.1c-2.7,2.6-7.9,6.5-14.7,5.4c-0.5,3-2.1,5.4-2.6,6.1c-0.2-2.3-0.1-4-0.1-4s-0.7-12.8,12.8-12.8
					c6.8,0,9.6,3.8,10.8,7.2c0,0,0,0,0,0.1c0.1,0.2,0.1,0.3,0.1,0.5C295.3,37.4,295.4,39,295.4,40z"/>
				<path class="st5" d="M295,48.9c-0.1,0.3-0.1,0.6-0.1,0.9c0,0.1,0,0.1,0,0.2c0,0.1-0.1,0.2-0.1,0.3c0,0.1-0.1,0.2-0.1,0.2
					l-0.1,0.7c-0.9,3.8-2.4,7.7-5.7,9.9l0,0h-11.2l0,0c-5.1-3.3-6.3-11.2-6.7-16l0,0c0.5-0.8,2.1-3.2,2.6-6.1
					c6.8,1.2,12-2.7,14.7-5.4c0.4,1.3,1.4,4.1,4.3,6.1c0.9,3.7,2.7,6,2.7,6c-0.1,0.6-0.1,1.2-0.2,1.9c0,0.1,0,0.2-0.1,0.2
					C295.2,48.1,295.1,48.5,295,48.9z M285.7,41.6l6.1,0.7l-1.5-1c-0.4-0.2-0.8-0.4-1.2-0.5l-3.8-0.6
					C285.4,40.2,285.7,41.6,285.7,41.6z M289.9,45c0-0.6-0.5-1.1-1.1-1.1c-0.6,0-1.1,0.5-1.1,1.1c0,0.6,0.5,1.1,1.1,1.1
					C289.4,46.1,289.9,45.6,289.9,45z M281,40.1l-3.8,0.6c-0.4,0.1-0.9,0.2-1.2,0.5l-1.5,1l6.1-0.7C280.7,41.6,281,40.2,281,40.1z
					 M279.5,45c0-0.6-0.5-1.1-1.1-1.1c-0.6,0-1.1,0.5-1.1,1.1c0,0.6,0.5,1.1,1.1,1.1C279,46.1,279.5,45.6,279.5,45z"/>
				<path class="st6" d="M295.1,35.1l-0.6-0.2c0.1,0.2,0.1,0.3,0.1,0.5c-1.2-3.5-4-7.2-10.8-7.2C270.3,28.2,271,41,271,41
					s-0.1,1.6,0.1,4l0,0c-0.1,0.1-0.1,0.1-0.1,0.1l-0.1,0.5l-0.1-0.1l0,0c-0.4-1.8-2.9-13.1,6.1-17.6c5.1-2.5,9.5-1.5,12.8,0.5
					C292.9,30.4,294.8,33.4,295.1,35.1z"/>
				<path class="st5" d="M295.2,47.7c-0.1,0.4-0.1,0.7-0.1,1.2l0,0C295.1,48.5,295.2,48.1,295.2,47.7z"/>
				<path class="st5" d="M295,48.9C295,48.8,295,48.8,295,48.9c-0.1,0.2-0.1,0.5-0.1,0.9C295,49.4,295,49.2,295,48.9z"/>
				<path class="st4" d="M294.8,50.2c0-0.1,0.1-0.2,0.1-0.3C294.9,50,294.8,50.1,294.8,50.2z"/>
				<path class="st5" d="M289,68.8c0.4,1.9,4.3,3.3,6.9,4.1c-1.5,0.2-3,0.4-4.7,0.5c-0.3,0-0.5,0.1-0.9,0.1h-13.9
					c-1.6-0.2-3-0.5-4.5-0.9c4.3-1.5,5.9-3.8,5.9-3.8V61l0,0c1.5,1,3.3,1.6,5.7,1.6c2.3,0,4.1-0.6,5.6-1.6l0,0v0.9l-0.1-0.5
					c0,0-4.3,3-10.9,0c0,0,2.3,5.2,7.1,4.9c0,0,2.9,0,4-2.7V68.8L289,68.8z"/>
				<path class="st6" d="M291.9,42.3l-6.1-0.7c0,0-0.3-1.3-0.4-1.5l3.8,0.6c0.4,0.1,0.9,0.2,1.2,0.5L291.9,42.3z"/>
				<path class="st5" d="M276.3,73.5h13.9c-2.9,0.2-6.7,0.4-6.7,0.4C281.2,74,278.7,73.8,276.3,73.5z"/>
				<path class="st6" d="M271.5,48.8c-0.2-1.4-0.4-3-0.4-3s-0.1-0.1-0.2-0.2l0.1-0.5c0.1-0.1,0.1-0.1,0.1-0.1
					c0.3,4.8,1.6,12.6,6.7,16v7.9c0,0-1.6,2.4-5.9,3.8c-11.3-2.9-18.3-10.5-13.3-20.2c3.8-7.2,8.7-8.2,8.8-14.4
					c0.1-6.3,2.7-11.5,10.1-13.7c7.4-2.2,12.3,4.1,12.3,4.1l-0.1,0.1c-3.2-2.1-7.7-3.1-12.8-0.5c-9,4.5-6.6,15.8-6.1,17.6
					c-0.5-0.5-1.4-1.2-2.4-0.6c-1.5,0.9-1,4.1,0,5.8c1,1.6,2.8,2.4,3.7,1.2l-0.3-1.5C271.7,50,271.6,49.5,271.5,48.8z"/>
				<circle class="st6" cx="288.8" cy="45" r="1.1"/>
				<path class="st4" d="M289,61.9l0.2,1c-0.1,0.2-0.1,0.5-0.2,0.7V61.9z"/>
				<path class="st6" d="M289,61.9v1.7c-1.1,2.7-4,2.7-4,2.7c-4.7,0.3-7.1-4.9-7.1-4.9c6.6,3,10.9,0,10.9,0L289,61.9z"/>
				<path class="st5" d="M277.8,61H289c-1.5,1-3.3,1.6-5.6,1.6S279.3,62,277.8,61z"/>
				<path class="st6" d="M277.3,40.7l3.8-0.6c-0.1,0.1-0.4,1.5-0.4,1.5l-6.1,0.7l1.5-1C276.4,40.9,276.8,40.8,277.3,40.7z"/>
				<circle class="st6" cx="278.4" cy="45" r="1.1"/>
				<path class="st7" d="M276.3,73.5h-7.9c1.3-0.2,2.4-0.5,3.3-0.9C273.3,73,274.8,73.3,276.3,73.5z"/>
				<path class="st5" d="M271.5,48.8c0.1,0.6,0.2,1.2,0.2,1.6l0.3,1.5c-0.9,1.3-2.7,0.4-3.7-1.2s-1.5-4.9,0-5.8c1-0.6,2,0.1,2.4,0.6
					l0,0c0.1,0.2,0.1,0.2,0.1,0.2v-0.1c0.1,0.2,0.2,0.2,0.2,0.2S271.4,47.5,271.5,48.8z"/>
				<path class="st5" d="M270.9,45.6v0.1c0,0,0-0.1-0.1-0.2C270.9,45.5,270.9,45.6,270.9,45.6z"/>
			</g>
			<g>
				<path class="st6" d="M282.4,47.5v2.1c0,0.2,0.1,0.4,0.1,0.5l0,0c0.2,0.5,0.7,0.8,1.3,0.8c0.1,0,0.2,0,0.4-0.1l0,0l0.6-0.2
					c0.1-0.1,0.2-0.2,0.2-0.4c-0.1-0.1-0.2-0.2-0.4-0.2l-0.6,0.2l0,0c-0.1,0-0.1,0-0.2,0c-0.3,0-0.6-0.2-0.7-0.5l0,0
					c-0.1-0.1-0.1-0.2-0.1-0.3v-2.1c0-0.2-0.1-0.3-0.3-0.3C282.5,47.2,282.4,47.4,282.4,47.5L282.4,47.5z"/>
				<path class="st6" d="M280.3,46.2l-2.8,1.8c-0.1,0.1-0.1,0.1-0.1,0.2c0.1,0.1,0.1,0.1,0.2,0.1l2.8-1.8c0.1-0.1,0.1-0.1,0.1-0.2
					C280.4,46.2,280.4,46.2,280.3,46.2"/>
				<path class="st6" d="M286.9,46.4l2.4,1.8c0.1,0.1,0.2,0.1,0.2,0c0.1-0.1,0.1-0.2,0-0.2l-2.4-1.8c-0.1-0.1-0.2-0.1-0.2,0
					C286.8,46.3,286.8,46.3,286.9,46.4"/>
				<path class="st6" d="M279.6,53.2c0,0,1.8,1.1,4.1,1.1c2.3,0,4-1.1,4.1-1.1c0.1-0.1,0.2-0.2,0.1-0.4c-0.1-0.1-0.2-0.2-0.4-0.1
					l0,0c-0.2,0.1-1.8,1-3.8,1c-1.1,0-2-0.2-2.7-0.5c-0.4-0.1-0.6-0.2-0.8-0.4c-0.1-0.1-0.2-0.1-0.2-0.1l-0.1-0.1l0,0
					c-0.1-0.1-0.3-0.1-0.4,0.1C279.5,52.9,279.5,53.1,279.6,53.2L279.6,53.2z"/>
				<path class="st6" d="M295.2,49L295.2,49L295.2,49L295.2,49c0.9-1.6,1.9-1.9,2.4-1.9c0.1,0,0.2,0,0.3,0h0.1l0,0l0,0
					c0.1,0,0.2,0,0.2-0.1c0-0.1,0-0.2-0.1-0.2c0,0-0.2-0.1-0.5-0.1c-0.7,0-1.8,0.3-2.7,2l0,0l0,0l0,0l-0.1,0.1
					c-0.1,0.1,0,0.2,0.1,0.2C295,49.1,295.1,49.1,295.2,49L295.2,49z"/>
				<path class="st6" d="M295.9,47.9L295.9,47.9c0.1,0.1,0.4,0.2,0.5,0.5s0.4,0.5,0.4,0.9c0,0.2-0.1,0.5-0.4,0.9
					c-0.1,0.1-0.1,0.2,0,0.2c0.1,0.1,0.2,0.1,0.2,0c0.3-0.4,0.4-0.7,0.4-1.1c0-0.5-0.3-0.9-0.5-1.2c-0.3-0.2-0.5-0.4-0.5-0.4
					c-0.1-0.1-0.2,0-0.2,0.1C295.8,47.7,295.8,47.8,295.9,47.9L295.9,47.9z"/>
				<path class="st6" d="M271.7,48.9L271.7,48.9L271.7,48.9c-0.9-1.8-2.1-2.1-2.7-2.1c-0.3,0-0.5,0.1-0.5,0.1
					c-0.1,0-0.1,0.1-0.1,0.2s0.1,0.1,0.2,0.1l0,0c0,0,0.2-0.1,0.4-0.1c0.5,0,1.6,0.2,2.4,1.8l0,0l0.1,0.1c0.1,0.1,0.1,0.1,0.2,0.1
					C271.7,49,271.7,48.9,271.7,48.9L271.7,48.9z"/>
				<path class="st6" d="M270.6,47.5c0,0-0.3,0.1-0.5,0.4c-0.2,0.2-0.5,0.7-0.5,1.2c0,0.4,0.1,0.7,0.4,1.1c0.1,0.1,0.1,0.1,0.2,0
					c0.1-0.1,0.1-0.1,0-0.2c-0.3-0.4-0.4-0.7-0.4-0.9c0-0.4,0.2-0.7,0.5-1c0.1-0.1,0.2-0.2,0.4-0.2l0.1-0.1h0.1
					c0.1-0.1,0.1-0.1,0.1-0.2C270.7,47.5,270.6,47.5,270.6,47.5L270.6,47.5z"/>
			</g>
		</g>
	</g>
</g>
<g>
	<g id="XMLID_14_">
		<g>
			<path class="st6" d="M173.1,179c0,0,13.5,6.8,13.5,18.4H125c0-11.6,13.5-18.4,13.5-18.4l0.3,0.1c0,0.1-0.1,0.1,0,0.2
				c0.1,0.2,0.2,0.2,0.4,0.2c0.1,0,0.3-0.1,0.4-0.1l15.9,6.6l16.9-6.7c0.2,0.1,0.3,0.1,0.4,0.1c0.2,0.1,0.3-0.1,0.4-0.2
				C173.1,179.1,173.1,179.1,173.1,179L173.1,179z"/>
			<path class="st4" d="M173,179.2c-0.1,0.2-0.2,0.2-0.4,0.2c-0.1,0-0.2-0.1-0.4-0.1l0.5-0.2l0.2-0.1C173,179,173.1,179.1,173,179.2
				z"/>
			<path class="st6" d="M168.3,153.3c-0.2-0.2-0.4-0.3-0.5-0.4c0-0.1,0.1-0.1,0.1-0.1l0,0c0.1-0.1,0.1-0.1,0.1-0.1
				c0.1,0.1,0.2,0.2,0.4,0.3c0.3,0.2,0.5,0.7,0.5,1.2c0,0.3-0.1,0.7-0.4,1.1c-0.1,0.1-0.1,0.1-0.2,0c-0.1-0.1-0.1-0.1,0-0.2
				c0.3-0.4,0.4-0.7,0.4-0.9C168.7,153.8,168.5,153.6,168.3,153.3z"/>
			<path class="st5" d="M166.8,156.9c0.2-1.1,0.4-2.1,0.5-2.9c0-0.1,0.1-0.2,0.1-0.4c0.2-0.3,0.3-0.5,0.5-0.7
				c0.1,0.1,0.3,0.2,0.5,0.4c0.2,0.2,0.4,0.5,0.4,0.9c0,0.2-0.1,0.5-0.4,0.9c-0.1,0.1-0.1,0.2,0,0.2c0.1,0.1,0.2,0.1,0.2,0
				c0.3-0.4,0.4-0.7,0.4-1.1c0-0.5-0.3-0.9-0.5-1.2c-0.1-0.1-0.3-0.2-0.4-0.3c0.5-0.5,1-0.6,1.4-0.6c0.1,0,0.2,0,0.3,0h0.1l0,0l0,0
				c0.1,0,0.2,0,0.2-0.1v-0.1h0.7c0,0.1,0,0.2,0,0.3c0,1.2-0.4,2.5-0.9,3.3c-0.3,0.5-0.7,0.9-1.1,1.2c-0.4,0.3-0.8,0.4-1.1,0.4
				C167.3,157.2,167,157.2,166.8,156.9z"/>
			<path class="st6" d="M167.7,152.8c-0.1-0.1-0.1-0.1-0.1-0.2c0,0,0-0.1,0.1-0.1c0.1-0.1,0.1-0.1,0.2-0.1c0,0,0.1,0.1,0.2,0.1
				c-0.1,0.1-0.1,0.1-0.1,0.1l0,0l-0.1,0.1C167.8,152.9,167.8,152.9,167.7,152.8L167.7,152.8z"/>
			<path class="st6" d="M167.6,152.6c0.7-0.7,1.3-0.8,1.8-0.8c0.3,0,0.5,0.1,0.5,0.1c0.1,0,0.1,0.1,0.1,0.1v0.1
				c0,0.1-0.1,0.1-0.2,0.1l0,0l0,0h-0.1c-0.1,0-0.2,0-0.3,0c-0.4,0-0.9,0.1-1.4,0.6c-0.1-0.1-0.2-0.1-0.2-0.1
				C167.8,152.6,167.7,152.6,167.6,152.6L167.6,152.6z"/>
			<path class="st5" d="M167.3,150.4L167.3,150.4c0.1-0.1,0.2-0.2,0.3-0.3c0.4-0.3,0.9-0.7,1.6-0.7c0.3,0,0.7,0.1,1,0.3
				c0.4,0.2,0.7,0.6,0.9,1.1c0.2,0.4,0.2,1,0.2,1.5c0,1.3-0.4,2.7-1,3.7l0,0c-0.4,0.5-0.8,1-1.2,1.4c-0.5,0.4-1,0.5-1.5,0.5l0,0
				c-0.1,0-0.2,0-0.9-0.3c0-0.1,0.1-0.2,0.1-0.3c0.9,0.8,2.4,0,3.3-1.5c1-1.6,1.5-4.9,0-5.8c-1.1-0.6-2,0.1-2.5,0.6h-0.2
				C167.3,150.5,167.3,150.5,167.3,150.4z"/>
			<path class="st5" d="M167.6,152.6c-0.1,0.1-0.2,0.2-0.3,0.3c0.1-0.7,0.1-1.3,0.1-1.9c0.1-0.1,0.2-0.3,0.5-0.5
				c0.3-0.2,0.7-0.5,1.1-0.5c0.2,0,0.4,0.1,0.7,0.2l0,0c0.2,0.2,0.5,0.4,0.6,0.8c0.1,0.3,0.2,0.6,0.2,1h-0.7c0-0.1-0.1-0.1-0.1-0.1
				c0,0-0.2-0.1-0.5-0.1C169,151.8,168.3,152,167.6,152.6z"/>
			<path class="st5" d="M167.2,151c0,0,0.1-0.1,0.3-0.3l0,0c0,0.1,0,0.2,0,0.4c0,0.1,0,0.1,0,0.1c0,0,0,0.1-0.1,0.1l0,0L167.2,151z"
				/>
			<path class="st6" d="M167.8,152.9c-0.2,0.2-0.3,0.4-0.5,0.7c0-0.2,0.1-0.4,0.1-0.7c0.1-0.1,0.2-0.2,0.3-0.3l0,0c0,0,0,0-0.1,0.1
				c-0.1,0.1,0,0.2,0.1,0.2L167.8,152.9L167.8,152.9z"/>
			<path class="st4" d="M167.3,150.6L167.3,150.6L167.3,150.6L167.3,150.6z"/>
			<path class="st4" d="M167.2,150.5C167.3,150.4,167.3,150.4,167.2,150.5c0.1,0,0,0.1,0,0.1l0,0l0,0
				C167.2,150.5,167.2,150.5,167.2,150.5z"/>
			<path class="st5" d="M167.2,151l0.2,0.2l0,0c0,0,0,0,0.1-0.1c-0.1,0.6-0.1,1.2-0.1,1.9c-0.1,0.2-0.2,0.4-0.4,0.5
				C167.1,152.6,167.2,151.7,167.2,151L167.2,151L167.2,151z"/>
			<path class="st5" d="M167.5,150.6c-0.2,0.2-0.3,0.3-0.3,0.3l0,0l0,0c0-0.1,0-0.2,0-0.4l0,0l0,0L167.5,150.6z"/>
			<path class="st5" d="M167.2,150.5L167.2,150.5C167.3,150.5,167.3,150.5,167.2,150.5C167.2,150.5,167.2,150.5,167.2,150.5z"/>
			<path class="st5" d="M167.2,150.6L167.2,150.6c0.1,0,0.1,0,0.1,0H167.2z"/>
			<polygon class="st4" points="167.2,150.9 167.2,151 167.2,151 			"/>
			<path class="st5" d="M167.2,150.6c0,0.1,0,0.2,0,0.4l-0.2-0.2c0,0,0.1-0.1,0.1-0.2H167.2L167.2,150.6z"/>
			<path class="st6" d="M167.3,153.6c-0.1,0.1-0.1,0.2-0.2,0.4l0,0l0,0H167l-0.1-0.1c0-0.1,0.1-0.3,0.1-0.4c0.1-0.2,0.2-0.4,0.4-0.5
				C167.3,153.1,167.3,153.4,167.3,153.6z"/>
			<polygon class="st4" points="167.1,153.9 167.1,154 167,153.9 			"/>
			<path class="st4" d="M167,153.9L167,153.9L167,153.9c0.1,0.1,0,0.1-0.1,0.1C167,154,167,153.9,167,153.9L167,153.9z"/>
			<path class="st6" d="M167,153.5c0,0.1-0.1,0.2-0.1,0.4c0,0.1,0,0.1,0,0.2h-0.1c-0.1-0.1-0.1-0.1-0.1-0.2l0,0l0,0
				C166.9,153.7,167,153.6,167,153.5z"/>
			<path class="st5" d="M167.5,150.6c0.4-0.5,1.4-1.2,2.5-0.6c1.5,0.9,1,4.1,0,5.8c-0.9,1.5-2.4,2.3-3.3,1.5c0-0.1,0.1-0.1,0.1-0.2
				l0.1-0.1c0.2,0.2,0.5,0.4,0.8,0.4c0.3,0,0.7-0.1,1.1-0.4c0.4-0.3,0.8-0.7,1.1-1.2c0.5-0.9,0.9-2.2,0.9-3.3c0-0.1,0-0.2,0-0.3
				c0-0.4-0.1-0.7-0.2-1c-0.1-0.4-0.4-0.6-0.6-0.8l0,0c-0.2-0.1-0.5-0.2-0.7-0.2c-0.4,0-0.8,0.2-1.1,0.5c-0.2,0.2-0.4,0.4-0.5,0.5
				c0-0.1,0-0.1,0-0.1C167.5,150.8,167.5,150.7,167.5,150.6L167.5,150.6z"/>
			<path class="st5" d="M166.8,156.9l-0.1,0.1c0,0.1,0,0.1-0.1,0.2c-0.1-0.1-0.2-0.2-0.2-0.2c0-0.1,0-0.1,0-0.1l0.2-0.1l0.1,0.1
				C166.7,156.9,166.7,156.9,166.8,156.9z"/>
			<path class="st5" d="M167.3,153.9c-0.1,0.9-0.2,1.8-0.5,2.9c-0.1-0.1-0.1-0.1-0.1-0.1l-0.1-0.1l-0.2,0.1c0.2-1,0.4-1.9,0.5-2.8
				c0.1,0,0.1-0.1,0.1-0.1l0,0l0,0c0.1-0.1,0.1-0.2,0.2-0.4C167.3,153.7,167.3,153.8,167.3,153.9z"/>
			<path class="st5" d="M166.5,157c0.1,0.1,0.2,0.2,0.2,0.2c0,0.1-0.1,0.2-0.1,0.3c-0.1-0.1-0.2-0.1-0.2-0.2
				C166.4,157.2,166.4,157.1,166.5,157z"/>
			<path class="st5" d="M166.5,156.9C166.5,156.9,166.5,156.9,166.5,156.9c0,0.2-0.1,0.3-0.1,0.4c-0.1-0.1-0.1-0.1-0.1-0.2l-0.1-0.1
				L166.5,156.9z"/>
			<path class="st6" d="M167.2,150.5L167.2,150.5c-0.4-0.7-2.6-5.1-1.8-8.9c0.2-1.2,0.1-2.4-0.5-3.4l0.3-0.1c2.4,3.8,2,8.5,2,8.5
				S167.3,148.2,167.2,150.5z"/>
			<path class="st4" d="M163.8,174.2L163.8,174.2l-0.3,0.1L163.8,174.2L163.8,174.2z"/>
			<path class="st5" d="M163.4,174.2v-7.1c0-0.1,0.1-0.2,0.1-0.3c0.1,0,0.2,0.1,0.2,0.3v7l0,0L163.4,174.2z"/>
			<path class="st5" d="M172.7,179.1c-1.5-0.4-8.7-2.3-9.3-4.9h0.3v-0.1c0.1,0.5,0.6,1.1,1.3,1.6c0.7,0.5,1.8,1,2.8,1.5
				c2.1,0.9,4.2,1.4,4.9,1.6c0.1,0,0.2,0.1,0.2,0.2L172.7,179.1z"/>
			<path class="st5" d="M169.2,178.4c-1.5-0.5-3.2-1.2-4.4-2.1c-0.8-0.5-1.5-1.2-1.6-2v-0.1v-6c0.1-0.4,0.2-0.7,0.3-1.1v7.1
				c0.5,2.6,7.9,4.5,9.3,4.9l-0.5,0.2C171.6,179.1,170.4,178.8,169.2,178.4z"/>
			<path class="st6" d="M163.4,167.2c-0.1,0.4-0.2,0.8-0.3,1.1v-1.1c0-0.2,0.1-0.3,0.3-0.3h0.1C163.5,167,163.4,167.1,163.4,167.2z"
				/>
			<path class="st6" d="M162.4,143.9l2.2,1.2h-6.5c0,0-0.6-1.8-0.7-2l3.2,0.2C161.3,143.5,161.9,143.6,162.4,143.9z"/>
			<path class="st5" d="M163.7,164.4c0,0-0.7,0.9-1.8,1.8c2.4-2.2,3.7-5.5,4.4-8.9c0.1,0.1,0.2,0.2,0.2,0.2
				c-0.4,1.6-0.9,3.1-1.5,4.6l-1.4,2.4C163.7,164.5,163.7,164.5,163.7,164.4z"/>
			<circle class="st6" cx="160.6" cy="149.5" r="1.1"/>
			<path class="st6" d="M158.9,150.7l2.4,1.8c0.1,0.1,0.1,0.1,0.1,0.2c-0.1,0.1-0.1,0.1-0.2,0l-2.4-1.8c-0.1-0.1-0.1-0.1-0.1-0.2
				C158.8,150.7,158.9,150.7,158.9,150.7z"/>
			<path class="st5" d="M157.6,168.5c1.8-0.4,3.3-1.4,4.3-2.3C160.8,167.3,159.4,168.1,157.6,168.5z"/>
			<path class="st5" d="M161.9,166.2c-1,0.9-2.6,1.8-4.3,2.3v-0.3l0,0h-0.1c1.6-0.4,3-1.2,4.1-2.2l0,0c1.2-1.1,2.1-2.5,2.9-4.1
				s1.2-3.3,1.6-5c0.2-1,0.4-2.1,0.5-3c0.1-1,0.2-2.1,0.2-3c0-0.1,0-0.2,0-0.4h0.2c-0.1,0.1-0.1,0.2-0.1,0.2l0.2,0.2l0,0
				c-0.1,0.8-0.1,1.6-0.2,2.6c-0.1,0.1-0.1,0.2-0.2,0.4l0,0l0,0c0,0.1,0,0.2,0.1,0.2h0.1c-0.1,0.9-0.2,1.8-0.5,2.8l-0.3,0.2l0.1,0.1
				c0.1,0.1,0.1,0.1,0.1,0.2C165.6,160.6,164.3,164,161.9,166.2L161.9,166.2z"/>
			<polygon class="st5" points="157.7,168.8 157.7,168.8 157.6,168.8 157.6,168.8 157.6,168.5 			"/>
			<path class="st5" d="M157.6,168.5l-0.1-0.2l0,0l0,0h0.1l0,0V168.5z"/>
			<path class="st5" d="M162.2,166.4c-1.2,1.2-2.7,1.9-4.4,2.4l0,0l-0.1-0.3l0,0c1.7-0.4,3.2-1.2,4.3-2.3l0,0
				c1.2-0.9,1.8-1.8,1.8-1.8c0,0.1,0,0.1,0,0.2L162.2,166.4z"/>
			<path class="st5" d="M147.4,165.4c0.5,1,2.8,4.9,6.2,6.8c2.9,1.6,6.5,1,8.4-1.6c0.4-0.6,0.9-1.3,1.2-2.3v6v0.1
				c0.2,0.8,0.8,1.4,1.6,2c1.2,0.9,2.9,1.6,4.4,2.1c1.2,0.4,2.4,0.7,3,0.9l-16.9,6.7l-15.9-6.6c6.1-1.3,7.9-4.9,7.9-5l0.1-0.1
				C147.4,174.3,147.4,165.4,147.4,165.4z"/>
			<path class="st5" d="M155.4,168.7c0.8,0,1.6-0.1,2.3-0.2c-0.5,0.1-1.1,0.2-1.6,0.2C155.7,168.7,155.5,168.7,155.4,168.7z"/>
			<path class="st5" d="M155.9,164.7c0-0.1,0.1-0.1,0.2-0.1c0.1,0,0.1,0.1,0.1,0.2l-0.4,1.4c0,0.1-0.1,0.1-0.2,0.1s-0.1-0.1-0.1-0.2
				L155.9,164.7z"/>
			<path class="st5" d="M157.7,168.8c-0.7,0.2-1.5,0.2-2.3,0.2h-0.1c-0.1,0-0.1,0-0.1,0v-0.3l0,0c0.1,0,0.1,0,0.1,0h0.1l0,0
				c0.2,0,0.4,0,0.6,0c0.6,0,1.2-0.1,1.6-0.2l0,0L157.7,168.8L157.7,168.8L157.7,168.8z"/>
			<path class="st5" d="M155.2,168.7v0.3c0,0,0,0-0.1,0L155.2,168.7z"/>
			<path class="st4" d="M154.9,155.5l-0.2,0.1L154.9,155.5z"/>
			<path class="st6" d="M155.8,155.9l1.1-0.3c0.1-0.1,0.3,0.1,0.4,0.2c0.1,0.1-0.1,0.3-0.2,0.4l-1.1,0.3c-0.1,0.1-0.2,0.1-0.4,0.1
				c-0.5,0-1-0.3-1.3-0.8l0,0c-0.1-0.1-0.1-0.3-0.1-0.5v-4.6c0-0.2,0.1-0.3,0.3-0.3c0.2,0,0.3,0.1,0.3,0.3v4.6c0,0.1,0,0.2,0.1,0.3
				l0,0l-0.2,0.1l0.2-0.1c0.1,0.3,0.4,0.5,0.7,0.5C155.7,155.9,155.8,155.9,155.8,155.9z"/>
			<path class="st6" d="M150.3,143.4l3.2-0.2c-0.1,0.1-0.7,2-0.7,2h-6.5l2.2-1.2C149.1,143.6,149.7,143.5,150.3,143.4z"/>
			<path class="st6" d="M159.6,158.1c0,0-1.6,1.3-4,1.3c-2.3,0-4.2-1.3-4.2-1.3c-0.1-0.1-0.2-0.2-0.1-0.4c0.1-0.1,0.2-0.2,0.4-0.1
				l0,0l0.1,0.1c0.1,0.1,0.1,0.1,0.2,0.1c0.2,0.1,0.5,0.2,0.9,0.4c0.7,0.3,1.7,0.6,2.7,0.6c1.9,0,3.4-1.1,3.5-1.2l0,0
				c0.1-0.1,0.3-0.1,0.4,0.1S159.7,158.1,159.6,158.1z"/>
			<circle class="st6" cx="150.2" cy="149.5" r="1.1"/>
			<path class="st6" d="M149.4,152.3l2.8-1.8c0.1-0.1,0.2,0,0.2,0.1c0.1,0.1,0,0.2-0.1,0.2l-2.8,1.8c-0.1,0.1-0.2,0-0.2-0.1
				S149.3,152.4,149.4,152.3z"/>
			<path class="st5" d="M149.1,149.5c0,0.6,0.5,1.1,1.1,1.1c0.6,0,1.1-0.5,1.1-1.1s-0.5-1.1-1.1-1.1
				C149.6,148.4,149.1,148.9,149.1,149.5z M146.3,145.1h6.4c0,0,0.6-1.8,0.7-2l-3.2,0.2c-0.6,0.1-1.2,0.2-1.8,0.5L146.3,145.1z
				 M164.6,145.1l-2.2-1.2c-0.5-0.3-1.2-0.4-1.8-0.5l-3.2-0.2c0.1,0.1,0.7,1.9,0.7,1.9H164.6z M161.4,152.5l-2.4-1.8
				c-0.1-0.1-0.2-0.1-0.2,0.1c-0.1,0.1-0.1,0.2,0.1,0.2l2.4,1.8c0.1,0.1,0.2,0.1,0.2,0C161.4,152.7,161.4,152.6,161.4,152.5z
				 M159.5,149.5c0,0.6,0.5,1.1,1.1,1.1c0.6,0,1.1-0.5,1.1-1.1s-0.5-1.1-1.1-1.1C160,148.4,159.5,148.9,159.5,149.5z M152.2,150.5
				l-2.8,1.8c-0.1,0.1-0.1,0.1-0.1,0.2s0.1,0.1,0.2,0.1l2.8-1.8c0.1-0.1,0.1-0.1,0.1-0.2C152.3,150.5,152.2,150.5,152.2,150.5z
				 M146.3,137.6c0.9-1,1.9-1.7,2.9-2.2c0.7,1.8,2.4,4.5,7.3,5.6c-0.2-0.1-3.3-2.2-5-4.7c1.6,1.5,4.9,3.5,11.7,4c0,0,0.2-1.8-0.1-4
				c0.5,0.4,0.9,0.7,1.4,1.2l0,0c0.2,0.2,0.4,0.4,0.5,0.7c0.6,1,0.8,2.3,0.5,3.4c-0.9,3.7,1.3,8.2,1.7,8.9c0,0.1-0.1,0.1-0.1,0.1
				H167c0,0.1,0,0.2,0,0.4c-0.1,0.9-0.1,1.9-0.2,3c-0.1,1-0.3,2-0.5,3c-0.4,1.7-0.9,3.4-1.6,5c-0.7,1.6-1.6,3-2.9,4.1l0,0
				c-1.2,1-2.5,1.8-4.1,2.2l0,0l0,0l0,0c-0.7,0.2-1.4,0.2-2.2,0.2h-0.1h-0.1l0,0l0,0c-2.6,0-4.6-0.9-6.3-2.4l0,0l0,0l0,0
				c-2.4-2.3-3.9-5.7-4.6-9.2l0,0c-0.5-2.1-0.7-4.2-0.9-6c0-0.2-0.1-0.4-0.1-0.6h-0.3c0.5-1.2,2.6-5.7,2.1-8.6
				c-0.2-1.2,0-2.4,0.7-3.4v-0.1C146,138,146.2,137.7,146.3,137.6z M159.6,158.1c0.1-0.1,0.1-0.3,0.1-0.4c-0.1-0.1-0.3-0.1-0.4-0.1
				l0,0c-0.1,0.1-1.6,1.2-3.5,1.2c-1,0-2-0.3-2.7-0.6c-0.4-0.2-0.7-0.3-0.9-0.4c-0.1-0.1-0.2-0.1-0.2-0.1l-0.1-0.1l0,0
				c-0.1-0.1-0.3-0.1-0.4,0.1c-0.1,0.1-0.1,0.3,0.1,0.4c0,0,1.9,1.3,4.2,1.3C158,159.5,159.6,158.2,159.6,158.1z M157.1,156.1
				c0.1-0.1,0.2-0.2,0.2-0.4c-0.1-0.2-0.2-0.2-0.4-0.2l-1.1,0.3c-0.1,0-0.1,0-0.2,0c-0.3,0-0.6-0.2-0.7-0.5
				c-0.1-0.1-0.1-0.2-0.1-0.3v-4.6c0-0.2-0.1-0.3-0.3-0.3s-0.3,0.1-0.3,0.3v4.6c0,0.2,0.1,0.4,0.1,0.5l0,0c0.2,0.5,0.7,0.8,1.3,0.8
				c0.1,0,0.2,0,0.4-0.1L157.1,156.1z M156.2,164.8c0-0.1,0-0.2-0.1-0.2c-0.1,0-0.2,0-0.2,0.1l-0.4,1.4c0,0.1,0,0.2,0.1,0.2
				c0.1,0,0.2,0,0.2-0.1L156.2,164.8z"/>
			<path class="st5" d="M148.9,166c1.6,1.4,3.6,2.3,6.3,2.4l0,0l0,0h0.1h0.1c0.8,0,1.5-0.1,2.2-0.2l0,0l0.1,0.3l0,0l0,0
				c-0.7,0.2-1.5,0.2-2.3,0.2l0,0h-0.1c-0.1,0-0.1,0-0.1,0l0,0c-2.6-0.1-5-1.5-6.4-2.4l0,0l0,0l0,0L148.9,166L148.9,166L148.9,166z"
				/>
			<polygon class="st5" points="148.7,166.3 148.9,166 148.9,166 			"/>
			<path class="st5" d="M155.2,168.7c-2.7-0.1-4.7-1-6.4-2.4C150.2,167.3,152.6,168.6,155.2,168.7z"/>
			<path class="st5" d="M148.7,166.3L148.7,166.3L148.7,166.3z"/>
			<path class="st5" d="M148.8,166.3c1.6,1.5,3.7,2.4,6.4,2.4l0,0l0,0l-0.1,0.3c-2.7,0-4.9-1-6.6-2.5L148.8,166.3
				C148.7,166.3,148.7,166.3,148.8,166.3C148.7,166.3,148.7,166.3,148.8,166.3z"/>
			<polygon class="st5" points="148.7,166.3 148.5,166.5 148.5,166.5 148.5,166.5 			"/>
			<path class="st5" d="M147.4,164.9c0.4,0.5,0.8,1,1.3,1.4c-0.6-0.4-1.1-0.8-1.3-1v-0.1V164.9L147.4,164.9z"/>
			<path class="st5" d="M148.7,166.3l-0.2,0.2l0,0l0,0c-0.4-0.4-0.7-0.7-1.1-1.2v-0.1C147.6,165.4,148.1,165.8,148.7,166.3
				L148.7,166.3L148.7,166.3z"/>
			<path class="st6" d="M162,170.6c-1.9,2.6-5.6,3.3-8.4,1.6c-3.4-1.9-5.7-5.8-6.2-6.8v-0.1c0.4,0.4,0.7,0.8,1.1,1.2l0,0l0,0l0,0
				l0,0c1.6,1.5,3.8,2.5,6.6,2.5c0,0,0,0,0.1,0c0.1,0,0.1,0,0.1,0h0.1c0.8,0,1.6-0.1,2.3-0.2l0,0l0,0c1.8-0.4,3.3-1.2,4.4-2.4
				l1.6-1.8c0,0.9-0.1,1.6-0.2,2.3h-0.1c-0.2,0-0.3,0.1-0.3,0.3v1.1C162.8,169.2,162.5,169.9,162,170.6z"/>
			<path class="st6" d="M147.4,165.4L147.4,165.4C147.4,165.4,147.4,165.3,147.4,165.4C147.4,165.3,147.4,165.3,147.4,165.4z"/>
			<path class="st5" d="M147.4,165.3c-0.1-0.1-0.1-0.1-0.1-0.1h0.1C147.3,165.1,147.3,165.2,147.4,165.3z"/>
			<path class="st5" d="M147.4,164.9c-0.1-0.1-0.1-0.2-0.2-0.2C147.3,164.6,147.4,164.8,147.4,164.9z"/>
			<path class="st5" d="M147.3,165.1c0,0,0.1,0.1,0.1,0.1v0.1l-0.1-0.1l0,0C147.3,165.2,147.3,165.1,147.3,165.1z"/>
			<path class="st5" d="M147.4,165.1v0.1c-0.1-0.1-0.1-0.1-0.1-0.1h-0.1c-0.1-0.1-0.2-0.3-0.4-0.5c0.1-0.1,0.1-0.1,0.2-0.1
				c0.1,0,0.1,0,0.1,0c0.1,0.1,0.1,0.2,0.2,0.2l0,0C147.4,164.8,147.4,165.1,147.4,165.1z"/>
			<path class="st5" d="M147.1,174.2h-0.3v-0.1v-0.1l0,0L147.1,174.2z"/>
			<path class="st5" d="M146.9,164.7c0.1,0.2,0.2,0.3,0.4,0.5h-0.1v9.1l-0.2-0.1l0,0c0,0,0,0,0,0.1v-9V165
				C146.8,164.8,146.8,164.8,146.9,164.7z"/>
			<path class="st6" d="M149.3,135.4c-1,0.5-1.9,1.2-2.9,2.2c-0.2,0.2-0.4,0.4-0.5,0.7l-0.4-0.2c1.8-2.6,4.9-4.6,10.3-4.6
				c5.1,0,7.9,2.1,9.4,4.7l-0.3,0.1c-0.1-0.2-0.3-0.5-0.5-0.7l0,0c-0.4-0.5-0.9-0.9-1.4-1.2c0.3,2.2,0.1,4,0.1,4
				c-6.8-0.5-10.1-2.4-11.7-4c1.8,2.5,4.8,4.6,5,4.7C151.6,139.9,149.9,137.3,149.3,135.4z"/>
			<path class="st5" d="M144.2,157.1c-0.1,0.1-0.1,0.1-0.1,0.1c0-0.1-0.1-0.2-0.1-0.2L144.2,157.1z"/>
			<path class="st5" d="M144,157.2c0.6,2.6,1.6,5.3,3.2,7.4c-0.1,0-0.1,0-0.1,0c-0.1,0-0.2,0.1-0.2,0.1c-0.5-0.8-1.1-1.6-1.5-2.6
				c-0.5-1.2-1-2.4-1.6-4.7C143.9,157.4,144,157.3,144,157.2z"/>
			<path class="st5" d="M144,157c0,0.1,0.1,0.2,0.1,0.2c-0.1,0.1-0.2,0.2-0.2,0.2c0-0.1-0.1-0.2-0.1-0.3
				C143.8,157.1,143.9,157,144,157L144,157z"/>
			<path class="st5" d="M143.9,156.9L143.9,156.9C144,156.9,144,157,143.9,156.9L143.9,156.9z"/>
			<path class="st5" d="M143.7,156.7l0.2,0.2c-0.1,0.1-0.1,0.2-0.2,0.2c0-0.1,0-0.1-0.1-0.2C143.7,156.9,143.6,156.9,143.7,156.7
				C143.6,156.8,143.7,156.8,143.7,156.7z"/>
			<path class="st6" d="M143.4,154.1c0-0.2-0.1-0.3-0.1-0.5c0.1,0.1,0.1,0.2,0.1,0.3C143.5,153.9,143.5,154.1,143.4,154.1z"/>
			<path class="st5" d="M148.9,166l-0.2,0.2l0,0c-0.5-0.4-0.9-0.9-1.3-1.4c0-0.1-0.1-0.2-0.2-0.2c-1.6-2.1-2.6-4.7-3.2-7.4
				c0.1-0.1,0.1-0.1,0.1-0.1L144,157V157c-0.2-1-0.4-1.9-0.5-2.9c0.1-0.1,0.1-0.1,0.1-0.2c-0.1-0.1-0.1-0.2-0.1-0.3
				c-0.1-1-0.2-1.8-0.3-2.7l0,0l0.2-0.2c0,0-0.1-0.1-0.2-0.3c0-0.1,0-0.1,0-0.1h0.3c0,0.2,0,0.4,0.1,0.6c0.1,1.8,0.4,3.8,0.9,6l0,0
				C145,160.3,146.4,163.8,148.9,166z"/>
			<path class="st5" d="M143.4,154.1c0.1,0.9,0.3,1.9,0.5,2.9h-0.1l-0.2-0.2c0,0,0,0.1-0.1,0.1c-0.2-1-0.4-2.1-0.5-3.1
				c0.1,0.1,0.1,0.2,0.2,0.3C143.2,154.1,143.4,154.1,143.4,154.1z"/>
			<path class="st5" d="M143.3,150.8l-0.2,0.2c0-0.2,0-0.3-0.1-0.5C143.2,150.6,143.3,150.8,143.3,150.8z"/>
			<path class="st6" d="M143.4,153.6c0,0.2,0.1,0.3,0.1,0.5c-0.1,0.1-0.2,0-0.2-0.1c-0.1-0.1-0.1-0.2-0.2-0.3
				c-0.1-0.2-0.1-0.5-0.1-0.7C143.1,153.2,143.2,153.4,143.4,153.6z"/>
			<polygon class="st4" points="143.1,150.9 143.1,151 143.1,151 			"/>
			<path class="st5" d="M143.1,151c0.1,0.8,0.1,1.7,0.3,2.7c-0.1-0.2-0.2-0.4-0.4-0.6c-0.1-0.7-0.1-1.3-0.2-1.9v0.1l0,0L143.1,151
				L143.1,151L143.1,151z"/>
			<path class="st6" d="M145.8,138.2c-0.7,1-0.9,2.3-0.7,3.4c0.4,3-1.5,7.5-2.1,8.6c-0.1-2.3-0.1-3.8-0.1-3.8s-0.2-4.7,2.5-8.6
				L145.8,138.2L145.8,138.2z"/>
			<path class="st5" d="M143.1,150.3c0,0.1,0,0.1,0,0.1C143.1,150.5,143.1,150.5,143.1,150.3C143,150.3,143,150.3,143.1,150.3z"/>
			<path class="st6" d="M143.1,150.3C143.1,150.3,143.1,150.4,143.1,150.3h-0.1H143.1z"/>
			<path class="st6" d="M143,150.4c-0.1,0.1-0.1,0.2-0.1,0.2c0-0.1,0-0.2-0.1-0.2H143C143,150.3,143,150.3,143,150.4z"/>
			<path class="st6" d="M142.8,150.2c-0.1-0.4-0.1-0.7-0.1-1.1l0,0c0-0.5,0-1.1,0-1.6v-7.9c0-2.1,1.2-4,3.2-4.9l3-1.6
				c0.6-2.6,3.2-3.8,4.4-4.2c0.4-0.1,0.8-0.2,1.2-0.2c4.5-0.1,6.7,2.3,7.7,4.8l2.2,1.2c1.9,0.9,3.2,2.7,3.2,4.9l-0.3,9.9
				c0-0.1,0-0.5,0-1.2c0,0.8-0.1,1.5-0.1,2.2l0,0c0,0,0,0-0.1,0.1c0.1-2.3,0-3.9,0-3.9s0.4-4.7-2-8.5c-1.6-2.6-4.4-4.7-9.4-4.7
				c-5.4,0-8.5,2.1-10.3,4.6c-2.7,3.8-2.5,8.6-2.5,8.6s-0.1,1.5,0.1,3.8H143C142.9,150.3,142.9,150.3,142.8,150.2
				C142.9,150.2,142.9,150.2,142.8,150.2z"/>
			<path class="st6" d="M142.9,150.2c0.1,0.1,0.1,0.1,0.1,0.1h-0.1C142.9,150.3,142.9,150.3,142.9,150.2z"/>
			<path class="st5" d="M143.1,150.4c0,0.2,0,0.3,0.1,0.5l0,0l0,0c0,0-0.1-0.2-0.3-0.4c0-0.1,0-0.1,0-0.2h0.1c0,0.1,0,0.2,0.1,0.2
				C142.9,150.6,142.9,150.5,143.1,150.4C143,150.4,143.1,150.4,143.1,150.4z"/>
			<path class="st5" d="M142.8,150.5c0.2,0.2,0.3,0.4,0.3,0.4l-0.2,0.2l0,0V151l0,0c0-0.1,0-0.1,0-0.1
				C142.8,150.8,142.8,150.7,142.8,150.5z"/>
			<path class="st6" d="M143.1,153.7c-0.2-0.3-0.4-0.5-0.5-0.8l0.1-0.1h0.1c0.1-0.1,0.1-0.1,0.1-0.2l0,0c0.1,0.1,0.2,0.2,0.3,0.4
				C143,153.2,143.1,153.5,143.1,153.7z"/>
			<path class="st6" d="M142.5,152.8c-0.1-0.1-0.1-0.1-0.1-0.1c0.1-0.1,0.2-0.1,0.2-0.1c0.1-0.1,0.2,0,0.2,0.1
				c0.1,0.1,0,0.2-0.1,0.2h-0.1H142.5C142.5,152.9,142.5,152.8,142.5,152.8L142.5,152.8z"/>
			<path class="st6" d="M141.8,155.3c-0.3-0.4-0.4-0.7-0.4-1.1c0-0.5,0.3-0.9,0.5-1.2c0.1-0.1,0.3-0.2,0.4-0.3
				c0.1,0.1,0.1,0.1,0.1,0.1l0,0l0.1,0.1l-0.1,0.1c-0.1,0.1-0.2,0.2-0.4,0.2c-0.2,0.2-0.5,0.5-0.5,1c0,0.2,0.1,0.5,0.4,0.9
				c0.1,0.1,0.1,0.2,0,0.2C142,155.3,141.8,155.3,141.8,155.3z"/>
			<path class="st6" d="M142.3,152.7c-0.5-0.5-1-0.6-1.4-0.6c-0.2,0-0.4,0.1-0.4,0.1l0,0c-0.1,0-0.2,0-0.2-0.1V152
				c0-0.1,0.1-0.1,0.1-0.1c0,0,0.2-0.1,0.5-0.1c0.2,0,0.5,0.1,0.8,0.1c0.3,0.1,0.6,0.3,1,0.7c0,0,0,0,0.1,0.1l0,0
				c-0.1-0.1-0.1-0.1-0.2-0.1C142.5,152.6,142.4,152.7,142.3,152.7z"/>
			<path class="st5" d="M142.6,152.6c-0.3-0.3-0.7-0.5-1-0.7c-0.3-0.1-0.5-0.1-0.8-0.1c-0.3,0-0.5,0.1-0.5,0.1
				c-0.1,0-0.1,0.1-0.1,0.1h-0.7c0-0.4,0.1-0.7,0.2-1c0.1-0.4,0.3-0.6,0.6-0.8l0,0c0.2-0.1,0.5-0.2,0.7-0.2c0.4,0,0.9,0.2,1.2,0.5
				c0.2,0.1,0.3,0.2,0.4,0.4c0.1,0.1,0.1,0.1,0.1,0.1l0,0c0.1,0.6,0.1,1.3,0.2,1.9C142.9,152.9,142.8,152.8,142.6,152.6
				C142.7,152.7,142.6,152.7,142.6,152.6z"/>
			<path class="st5" d="M140.9,152.1c0.4,0,0.9,0.1,1.4,0.6c-0.1,0.1-0.2,0.2-0.4,0.3c-0.3,0.2-0.5,0.7-0.5,1.2
				c0,0.3,0.1,0.7,0.4,1.1c0.1,0.1,0.1,0.1,0.2,0c0.1-0.1,0.1-0.1,0-0.2c-0.3-0.4-0.4-0.7-0.4-0.9c0-0.4,0.2-0.7,0.5-1
				c0.1-0.1,0.2-0.2,0.4-0.2l0.1-0.1c0.2,0.2,0.4,0.5,0.5,0.8c0.1,1,0.3,2.1,0.5,3.1c-0.2,0.3-0.5,0.4-0.9,0.4
				c-0.3,0-0.7-0.1-1.1-0.4c-0.4-0.3-0.8-0.7-1.1-1.2c-0.2-0.4-0.5-1-0.7-1.5s-0.2-1.2-0.2-1.8c0-0.1,0-0.2,0-0.3h0.7v0.1
				c0,0.1,0.1,0.1,0.2,0.1l0,0C140.6,152.2,140.7,152.1,140.9,152.1z"/>
			<path class="st5" d="M147.4,174.2l-0.1,0.1c0,0.1-1.8,3.7-7.9,5l-0.5-0.2c6.3-1.3,8.2-4.9,8.2-4.9v-9.1h0.1
				c0.1,0.1,0.1,0.1,0.1,0.1l0,0c0,0,0.1,0.1,0.1,0.1C147.4,165.4,147.4,174.2,147.4,174.2z"/>
			<path class="st5" d="M147.1,174.2c0,0-1.8,3.7-8.2,4.9l-0.2-0.1c0.1-0.1,0.1-0.2,0.2-0.2c5.7-1.2,7.7-4.3,7.9-4.7v0.1H147.1z"/>
			<path class="st5" d="M140.3,150c1-0.6,1.9,0.1,2.4,0.5c0,0.1,0,0.2,0,0.4c0,0.1,0,0.1,0,0.1c0,0-0.1-0.1-0.1-0.1
				c-0.1-0.1-0.2-0.2-0.4-0.4c-0.3-0.2-0.7-0.5-1.2-0.5c-0.2,0-0.4,0.1-0.7,0.2l0,0c-0.2,0.2-0.5,0.4-0.6,0.8
				c-0.1,0.3-0.2,0.6-0.2,1c0,0.1,0,0.2,0,0.3c0,0.5,0.1,1.2,0.2,1.8c0.2,0.6,0.4,1.2,0.7,1.5c0.3,0.5,0.7,0.9,1.1,1.2
				c0.4,0.3,0.8,0.4,1.1,0.4c0.3,0,0.6-0.1,0.9-0.4c0,0.1,0,0.1,0.1,0.2c0,0.1,0,0.1,0.1,0.2c-0.9,0.9-2.4,0.1-3.3-1.4
				C139.3,154.1,138.9,150.9,140.3,150z"/>
			<path class="st5" d="M140.1,155.9c-0.6-1-1-2.4-1-3.7c0-0.5,0.1-1,0.2-1.5c0.2-0.4,0.4-0.9,0.9-1.1c0.3-0.2,0.7-0.3,1-0.3
				c0.7,0,1.2,0.4,1.6,0.7c0.1,0.1,0.1,0.1,0.1,0.1l0,0c0,0.1,0,0.1,0,0.1h-0.1c0,0.1,0,0.1,0,0.2c-0.5-0.5-1.4-1.2-2.4-0.5
				c-1.5,0.9-1,4.1,0,5.8c1,1.5,2.4,2.3,3.3,1.4c0,0.1,0.1,0.2,0.1,0.3c-0.3,0.2-0.7,0.4-1,0.4c-0.5,0-1-0.2-1.5-0.5
				C140.9,156.9,140.4,156.5,140.1,155.9z"/>
			<path class="st4" d="M139,179.4c-0.2,0.1-0.3-0.1-0.4-0.2c0-0.1,0-0.1,0-0.2l0.2,0.1l0.5,0.2C139.3,179.4,139.2,179.4,139,179.4z
				"/>
		</g>
	</g>
</g>
<g>
	<g id="XMLID_13_">
		<g>
			<path class="st6" d="M445.2,194.4v0.3h-0.3c0-0.1,0-0.2,0-0.3H445.2z"/>
			<path class="st6" d="M444.9,194.4h-61c0-1.2,0.2-2.4,0.5-3.5v-0.1h59.9v0.1C444.7,191.9,444.9,193,444.9,194.4z"/>
			<path class="st6" d="M443.3,187.8l1.4,3h-0.3C444.1,189.7,443.7,188.8,443.3,187.8L443.3,187.8z"/>
			<path class="st6" d="M443.2,187.8h-57.6c0.7-1.4,1.6-2.7,2.6-3.9c0.1-0.1,0.1-0.1,0.2-0.2h52.2c0.1,0.1,0.1,0.1,0.2,0.2
				C441.6,185.1,442.5,186.4,443.2,187.8z"/>
			<path class="st6" d="M437.8,181c0.1,0.1,0.3,0.1,0.4,0l2.7,2.8h-0.3C439.6,182.7,438.7,181.8,437.8,181L437.8,181z"/>
			<path class="st6" d="M438,180.7L438,180.7h-0.3c0-0.1,0-0.1,0.1-0.2c0.1-0.1,0.3-0.1,0.4,0l0,0c0.1,0.1,0.1,0.3,0,0.4l0,0
				L438,180.7z"/>
			<path class="st6" d="M438.2,180.9c-0.1,0.1-0.2,0.1-0.4,0l0,0c-0.1-0.1-0.1-0.1-0.1-0.2h0.3l0,0L438.2,180.9z"/>
			<path class="st7" d="M437.8,181c0.9,0.8,1.8,1.8,2.7,2.8h-52.2c1-1.2,1.8-2,2.7-2.8l0,0l0,0c0.1-0.1,0.2-0.2,0.2-0.2h46.3
				C437.6,180.8,437.8,180.8,437.8,181L437.8,181L437.8,181z"/>
			<path class="st6" d="M437.6,180.7h0.2c0,0.1,0,0.2,0.1,0.2C437.8,180.8,437.6,180.8,437.6,180.7z"/>
			<path class="st6" d="M431.8,176.3v0.3h-0.1c-0.1,0-0.1-0.1-0.1-0.1L431.8,176.3z"/>
			<path class="st6" d="M431.3,176.6h0.4c0,0,0.1,0,0.1,0.1c0.6,0.3,3.1,1.7,5.8,4.1h-46.3c1.5-1.3,2.9-2.3,4-3
				c0.5-0.4,1-0.7,1.4-0.9c0.2-0.1,0.3-0.2,0.4-0.2c0.1-0.1,0.1-0.1,0.1-0.1c0.1-0.1,0.2-0.2,0.2-0.2H431
				C431,176.5,431.2,176.6,431.3,176.6z"/>
			<path class="st6" d="M431.3,176.3c0,0-0.1,0-0.3-0.1c0.1-0.1,0.1-0.2,0.3-0.2h0.5c0.1,0,0.1,0,0.1,0.1c0,0,3,1.6,6.3,4.4l0,0
				c-0.1-0.1-0.3-0.1-0.4,0c-0.1,0.1-0.1,0.1-0.1,0.2h-0.2c-2.7-2.4-5.2-3.8-5.8-4.1c-0.1,0-0.1-0.1-0.1-0.1h0.1v-0.3l-0.1,0.2
				c0,0,0,0,0.1,0.1h-0.4c-0.2,0-0.3-0.1-0.3-0.3L431.3,176.3L431.3,176.3z"/>
			<path class="st6" d="M431.3,176.3H431v-0.1C431.2,176.3,431.3,176.3,431.3,176.3z"/>
			<path class="st6" d="M427,150.4c0.2,0.2,0.5,0.7,0.5,1.2c0,0.4-0.1,0.7-0.4,1.1c-0.1,0.1-0.1,0.1-0.2,0s-0.1-0.1,0-0.2
				c0.3-0.4,0.4-0.7,0.4-0.9c0-0.4-0.2-0.6-0.4-0.9c-0.2-0.2-0.4-0.3-0.5-0.4c0-0.1,0.1-0.1,0.1-0.1c0.1-0.1,0.1-0.1,0.1-0.1
				C426.7,150.2,426.9,150.2,427,150.4z"/>
			<path class="st6" d="M426.3,150C426.3,150,426.3,150,426.3,150c0.1-0.1,0.2-0.1,0.2-0.1s0.1,0.1,0.2,0.1
				c-0.1,0.1-0.1,0.1-0.1,0.1l-0.1,0.1c0,0-0.1,0-0.1-0.1h-0.1C426.3,150.2,426.3,150.1,426.3,150z"/>
			<path class="st6" d="M428,149.5c-0.4,0-0.9,0.1-1.4,0.6c-0.1-0.1-0.2-0.1-0.2-0.1c-0.1,0-0.1,0-0.1,0l0,0
				c0.6-0.7,1.3-0.8,1.7-0.8c0.3,0,0.5,0.1,0.5,0.1c0.1,0,0.1,0.1,0.1,0.2c0,0.1-0.1,0.1-0.2,0.1l0,0l0,0h-0.1
				C428.3,149.5,428.1,149.5,428,149.5z"/>
			<path class="st4" d="M425.8,147c0.1-0.1,0.1-0.1,0-0.2l0.1-0.1c0,0.2,0,0.4,0,0.5C425.9,147.2,425.8,147.1,425.8,147L425.8,147z"
				/>
			<path class="st5" d="M425.1,154.4c0.2-1,0.4-1.9,0.5-2.9c0.1,0,0.1-0.1,0.1-0.1l0,0l0,0c0.2-0.5,0.5-0.8,0.7-1.1
				c0.1,0.1,0.3,0.2,0.5,0.4c0.2,0.2,0.4,0.5,0.4,0.9c0,0.2-0.1,0.5-0.4,0.9c-0.1,0.1-0.1,0.2,0,0.2c0.1,0.1,0.2,0.1,0.2,0
				c0.3-0.4,0.4-0.7,0.4-1.1c0-0.5-0.3-0.9-0.5-1.2c-0.1-0.1-0.3-0.2-0.4-0.3c0.5-0.5,1-0.6,1.4-0.6c0.1,0,0.2,0,0.3,0h0.1l0,0l0,0
				c0.1,0,0.2,0,0.2-0.1c0-0.1,0-0.2-0.1-0.2c0,0-0.2-0.1-0.5-0.1c-0.4,0-1.1,0.1-1.7,0.8c0,0,0,0-0.1,0c-0.2,0.2-0.3,0.4-0.7,0.9
				c0.1-0.9,0.2-1.8,0.2-2.6l0,0c0,0,1.3-1.8,2.7-0.9c1.5,0.9,1,4.1,0,5.8C427.7,154.7,426,155.5,425.1,154.4z"/>
			<path class="st4" d="M425.8,146.8c0.1,0.1,0.1,0.1,0,0.2l0,0C425.8,146.9,425.8,146.9,425.8,146.8L425.8,146.8z"/>
			<path class="st4" d="M425.8,147l-1.9,1.5v-0.1c0-0.1,0.1-0.1,0.1-0.2l1.8-1.4C425.8,146.9,425.8,146.9,425.8,147z"/>
			<path class="st4" d="M425.6,146.8c0.1,0,0.1,0,0.2,0.1l-0.1,0.1C425.7,146.8,425.7,146.8,425.6,146.8z"/>
			<path class="st4" d="M425.7,146.9l-1.8,1.4l0.1-0.2l1.6-1.3l0,0C425.7,146.8,425.7,146.8,425.7,146.9z"/>
			<path class="st6" d="M425.7,151.4c0,0.1-0.1,0.1-0.1,0.1c0-0.1,0-0.1,0-0.2c0-0.1,0.1-0.2,0.1-0.4c0.4-0.5,0.5-0.7,0.7-0.9
				c0,0,0,0,0.1,0l0,0l-0.1,0.1c-0.1,0.1,0,0.2,0.1,0.2h0.1c0,0,0.1,0,0.1,0.1C426.2,150.5,425.9,150.9,425.7,151.4L425.7,151.4
				L425.7,151.4z"/>
			<path class="st6" d="M425.5,151.2l0.2-0.4c0,0.1-0.1,0.2-0.1,0.4c0,0.1,0,0.1,0,0.2h-0.1C425.5,151.4,425.4,151.3,425.5,151.2
				L425.5,151.2z"/>
			<path class="st4" d="M423.8,148.2l0.2-0.1l-0.1,0.2l-0.2,0.1l0,0C423.8,148.3,423.8,148.3,423.8,148.2z"/>
			<path class="st4" d="M423.9,148.5L423.9,148.5L423.9,148.5c-0.1,0.1-0.1,0.1-0.2,0.1c0-0.1,0.1-0.1,0.1-0.1l0,0l0.2-0.1
				C423.9,148.3,423.9,148.4,423.9,148.5z"/>
			<path class="st4" d="M423.6,148.5c-0.1-0.1-0.1-0.1,0-0.1c0,0,0-0.1,0.1-0.1l0.1-0.1c0,0.1-0.1,0.1-0.1,0.2
				C423.8,148.5,423.8,148.5,423.6,148.5C423.7,148.5,423.6,148.5,423.6,148.5z"/>
			<path class="st5" d="M424.1,147.2c0-2.3-1.6-4.1-3.7-4.7h2.9l0.2-0.1c0.9,1.9,1.7,3.5,2.2,4.3l0,0l-1.6,1.3
				C424.1,147.5,424.1,147.4,424.1,147.2z"/>
			<path class="st5" d="M405.9,162.5c0,0,2.4,4.8,6.3,7c2.9,1.6,6.5,1,8.4-1.6c0.6-0.9,1.2-1.9,1.4-3.3v7.1c0.5,2.6,7.4,4.3,8.9,4.6
				v0.1h-33.7v-0.1c6.5-1.2,8.4-4.6,8.4-4.6v-9.1H405.9z"/>
			<path class="st4" d="M423.9,147.2c0-2.6-2.1-4.7-4.7-4.7h1.2c2.1,0.5,3.7,2.4,3.7,4.7c0,0.2,0,0.4-0.1,0.9l-0.2,0.1
				C423.9,147.9,423.9,147.5,423.9,147.2z"/>
			<path class="st6" d="M419.3,140.8c0.6,0.1,1.2,0.2,1.8,0.5l2.2,1.2h-2.9c-0.4-0.1-0.7-0.1-1.2-0.1s-0.8,0.1-1.2,0.1h-1.3
				c0,0-0.6-1.8-0.7-2L419.3,140.8z"/>
			<circle class="st6" cx="419.3" cy="146.9" r="1.1"/>
			<path class="st4" d="M419.3,142.4c0.4,0,0.8,0.1,1.2,0.1h-1.2l0,0V142.4z"/>
			<path class="st4" d="M419.3,142.5c2.6,0,4.7,2.1,4.7,4.7c0,0.4-0.1,0.7-0.1,1l-0.1,0.1l-0.1,0.1l0,0c0.1-0.4,0.2-0.8,0.2-1.2
				c0-1.2-0.5-2.4-1.3-3.2c-0.8-0.8-1.9-1.3-3.2-1.3V142.5L419.3,142.5z"/>
			<path class="st4" d="M419.3,142.5h-1.2c0.4-0.1,0.7-0.1,1.2-0.1V142.5z"/>
			<path class="st5" d="M418.2,146.9c0,0.6,0.5,1.1,1.1,1.1c0.6,0,1.1-0.5,1.1-1.1s-0.5-1.1-1.1-1.1
				C418.6,145.8,418.2,146.3,418.2,146.9z M419.3,151.7c-1.3,0-2.4-0.5-3.2-1.3c-0.8-0.8-1.3-1.9-1.3-3.2c0-1.2,0.5-2.4,1.3-3.2
				c0.8-0.8,1.9-1.3,3.2-1.3c1.2,0,2.4,0.5,3.2,1.3c0.8,0.8,1.3,1.9,1.3,3.2c0,0.4-0.1,0.8-0.2,1.2l0,0c-0.2,1-0.9,1.8-1.6,2.4
				C421.3,151.3,420.3,151.7,419.3,151.7z M420,149.9l-2.4-1.8c-0.1-0.1-0.2-0.1-0.2,0.1c-0.1,0.1-0.1,0.2,0.1,0.2l2.4,1.8
				c0.1,0.1,0.2,0.1,0.2-0.1C420.1,150,420.1,150,420,149.9z"/>
			<path class="st6" d="M417.6,148.1l2.4,1.8c0.1,0.1,0.1,0.1,0.1,0.2c-0.1,0.1-0.1,0.1-0.2,0.1l-2.4-1.8c-0.1-0.1-0.1-0.1-0.1-0.2
				C417.4,148,417.5,148,417.6,148.1z"/>
			<path class="st4" d="M414.6,147c0.1-2.5,2.1-4.5,4.7-4.5v0.1c-1.3,0-2.4,0.5-3.2,1.3c-0.8,0.8-1.3,1.9-1.3,3.2l0,0
				C414.7,147.1,414.7,147.1,414.6,147C414.6,147.1,414.6,147,414.6,147z"/>
			<path class="st4" d="M414.7,147.2c0,1.3,0.5,2.4,1.3,3.2c0.8,0.8,1.9,1.3,3.2,1.3c1,0,2-0.4,2.7-0.9c0.8-0.6,1.3-1.4,1.6-2.4l0,0
				l0,0c0,0.1,0,0.1,0,0.1l0.1,0.1c-0.6,1.9-2.4,3.3-4.4,3.3c-2.6,0-4.6-2-4.7-4.5c0.1,0,0.1,0,0.1-0.1
				C414.7,147.3,414.7,147.2,414.7,147.2L414.7,147.2z"/>
			<path class="st4" d="M414.7,147.1c0,0,0.1,0.1,0.1,0.1c0,0.1,0,0.1-0.1,0.1c-0.1,0.1-0.1,0.1-0.1,0.1c0-0.1,0-0.1,0-0.1
				c0-0.1,0-0.1,0-0.2C414.6,147,414.6,147.1,414.7,147.1z"/>
			<path class="st4" d="M414.4,146.9c0.1-2.1,1.6-3.9,3.7-4.4h1.2c-2.5,0-4.6,2-4.7,4.5C414.6,146.9,414.5,146.9,414.4,146.9z"/>
			<path class="st4" d="M419.3,152c-2.6,0-4.7-2.1-4.8-4.7c0,0,0,0,0.1,0.1c0,0.1,0.1,0.1,0.1,0.1c0.1,2.5,2.1,4.5,4.7,4.5
				c2.1,0,3.8-1.4,4.4-3.3c0.1,0,0.1,0,0.1,0h0.1C423.3,150.5,421.4,152,419.3,152z"/>
			<path class="st4" d="M414.6,147.2c-0.1-0.1-0.1-0.1-0.1-0.1c0-0.1,0-0.1,0-0.2c0.1,0.1,0.1,0.1,0.1,0.1
				C414.6,147.1,414.6,147.1,414.6,147.2z"/>
			<path class="st4" d="M414.4,147.1c0.1,0.1,0.1,0.1,0.1,0.1c0,0.1,0,0.1,0,0.1c-0.1,0-0.1,0-0.1-0.1c0,0,0,0-0.1-0.1L414.4,147.1
				C414.4,147.1,414.4,147.1,414.4,147.1z"/>
			<path class="st4" d="M413.5,152.8L413.5,152.8l-0.2,0.1L413.5,152.8z"/>
			<path class="st6" d="M413,153c-0.1-0.1-0.1-0.3-0.1-0.5v-4.7c0-0.2,0.1-0.3,0.3-0.3s0.3,0.1,0.3,0.3v4.7c0,0.1,0,0.2,0.1,0.3
				l-0.2,0.1l0.2-0.1c0.1,0.3,0.4,0.4,0.7,0.4c0.1,0,0.1,0,0.2-0.1l1.1-0.3c0.1-0.1,0.3,0.1,0.4,0.2s-0.1,0.3-0.2,0.4l-1.1,0.3
				c-0.1,0.1-0.2,0.1-0.4,0.1C413.7,153.9,413.2,153.6,413,153L413,153z"/>
			<path class="st4" d="M414.4,147.1c-0.8-0.7-1.5-0.2-1.8,0c0-0.1,0-0.1,0-0.2c0.2-0.1,0.5-0.3,1-0.3c0.3,0,0.6,0.1,0.9,0.3
				C414.4,146.9,414.4,147,414.4,147.1z"/>
			<path class="st4" d="M412.6,147.1c0.3-0.2,1.1-0.7,1.8,0c0,0.1,0,0.1,0,0.1v0.1c-0.3-0.3-0.6-0.4-0.9-0.4c-0.5,0-0.9,0.3-1,0.4
				v-0.1C412.6,147.1,412.6,147.1,412.6,147.1z"/>
			<path class="st4" d="M412.6,147.1c0,0.1,0,0.1,0,0.1h-0.1C412.4,147.2,412.5,147.1,412.6,147.1z"/>
			<path class="st4" d="M412.4,147.3c0-0.1,0-0.1,0-0.1h0.1v0.1l0,0l0,0C412.5,147.3,412.5,147.3,412.4,147.3z"/>
			<path class="st4" d="M412.4,147c0.1,0,0.1-0.1,0.1-0.1c0,0.1,0,0.1,0,0.2c-0.1,0.1-0.1,0.1-0.1,0.1
				C412.4,147.1,412.4,147.1,412.4,147z"/>
			<path class="st4" d="M412.4,147c0,0.1,0,0.1,0,0.2h-0.1C412.3,147.1,412.3,147.1,412.4,147C412.4,147.1,412.4,147.1,412.4,147z"
				/>
			<path class="st4" d="M412.4,147.2c0,0.1,0,0.1,0,0.1c-0.1,0-0.1,0-0.1-0.1c-0.1-0.1-0.1-0.1-0.1-0.1l0,0L412.4,147.2L412.4,147.2
				z"/>
			<path class="st6" d="M408.2,149.9c-0.1,0.1-0.2,0-0.2-0.1c-0.1-0.1,0-0.2,0.1-0.2l2.8-1.8c0.1-0.1,0.2,0,0.2,0.1
				c0.1,0.1,0,0.2-0.1,0.2L408.2,149.9z"/>
			<path class="st6" d="M414.3,157.4c-2.3,0-4.2-1.3-4.2-1.3c-0.1-0.1-0.2-0.2-0.1-0.4c0.1-0.1,0.2-0.2,0.4-0.1l0,0l0.1,0.1
				c0.1,0.1,0.1,0.1,0.2,0.1c0.2,0.1,0.5,0.2,0.9,0.4c0.7,0.3,1.7,0.6,2.7,0.6c1.9,0,3.4-1.1,3.5-1.2l0,0c0.1-0.1,0.3-0.1,0.4,0.1
				c0.1,0.1,0.1,0.3-0.1,0.4C418.2,156.1,416.7,157.4,414.3,157.4z"/>
			<path class="st5" d="M412.3,147.2c0,1.3-0.5,2.4-1.3,3.2c-0.8,0.8-1.9,1.3-3.2,1.3c-2.1,0-3.8-1.4-4.4-3.3c0,0,0,0,0-0.1
				c-0.1-0.4-0.2-0.8-0.2-1.2c0-1.2,0.5-2.4,1.3-3.2c0.8-0.8,1.9-1.3,3.2-1.3c1.3,0,2.4,0.5,3.2,1.3
				C411.8,144.8,412.3,145.9,412.3,147.2L412.3,147.2z M408.9,148c0.6,0,1.1-0.5,1.1-1.1s-0.5-1.1-1.1-1.1c-0.6,0-1.1,0.5-1.1,1.1
				S408.3,148,408.9,148z M410.8,147.9l-2.8,1.8c-0.1,0.1-0.1,0.1-0.1,0.2c0.1,0.1,0.1,0.1,0.2,0.1l2.8-1.8c0.1-0.1,0.1-0.1,0.1-0.2
				S410.9,147.8,410.8,147.9z"/>
			<path class="st4" d="M412.4,147c-0.1-2.5-2.1-4.5-4.7-4.5h1.2c2,0.5,3.5,2.3,3.7,4.4C412.6,146.9,412.5,146.9,412.4,147z"/>
			<circle class="st6" cx="408.9" cy="146.9" r="1.1"/>
			<path class="st4" d="M406.7,142.5c0.4-0.1,0.7-0.1,1.2-0.1s0.8,0.1,1.2,0.1h-1.2l0,0H406.7z"/>
			<path class="st6" d="M408.9,142.5c-0.4-0.1-0.7-0.1-1.2-0.1s-0.8,0.1-1.2,0.1h-1.6l2.2-1.2c0.5-0.3,1.2-0.4,1.8-0.5l3.2-0.2
				c-0.1,0.1-0.7,2-0.7,2L408.9,142.5L408.9,142.5z"/>
			<path class="st6" d="M412.3,169.5c-3.9-2.3-6.3-7-6.3-7s0.5,0.5,1.4,1.1l0,0c1.6,1.5,3.7,2.4,6.5,2.4c0.1,0,0.1,0,0.2,0
				c0.2,0,0.4,0,0.6,0c0.6,0,1.2-0.1,1.6-0.2l0,0c0.1,0,0.2-0.1,0.3-0.1c1.6-0.4,2.9-1.2,4-2.2c1.1-0.9,1.8-1.8,1.8-1.8
				c0,1-0.1,1.9-0.2,2.7c-0.3,1.4-0.8,2.5-1.4,3.3C418.8,170.6,415.1,171.2,412.3,169.5z"/>
			<path class="st4" d="M407.8,151.8c-2.1,0-3.9-1.4-4.4-3.3c0,0,0.1,0,0.1-0.1c0.1-0.1,0.1-0.1,0.1-0.1c0.5,1.9,2.3,3.3,4.4,3.3
				c1.3,0,2.4-0.5,3.2-1.3c0.8-0.8,1.3-1.9,1.3-3.2c0,0.1,0,0.1,0.1,0.1c0.1,0.1,0.1,0.1,0.1,0.1
				C412.4,149.8,410.3,151.8,407.8,151.8z"/>
			<path class="st4" d="M407.8,152c-2.2,0-4-1.5-4.6-3.5l0,0c0,0,0.1,0.1,0.1,0.1h0.1c0.6,1.9,2.4,3.3,4.4,3.3c2.6,0,4.6-2,4.7-4.5
				c0.1,0,0.1,0,0.1-0.1l0,0l0,0C412.6,149.9,410.4,152,407.8,152z"/>
			<path class="st4" d="M403.4,148.3C403.4,148.3,403.4,148.3,403.4,148.3C403.4,148.4,403.4,148.4,403.4,148.3
				c0.1,0.1,0.1,0.1,0,0.2c0,0-0.1,0-0.1,0.1c0-0.1-0.1-0.1-0.1-0.1s-0.1-0.1-0.1-0.2L403.4,148.3L403.4,148.3L403.4,148.3z"/>
			<path class="st4" d="M403.2,147.2c0,0.4,0.1,0.8,0.2,1.2c0,0,0-0.1-0.1-0.1l0,0l0,0l-0.1-0.1c-0.1-0.4-0.1-0.7-0.1-1
				c0-2.6,2.1-4.7,4.7-4.7l0,0c2.5,0,4.6,2,4.7,4.5c-0.1,0.1-0.1,0.1-0.1,0.1c-0.1,0-0.1,0.1-0.1,0.1c0-1.2-0.5-2.4-1.3-3.2
				c-0.8-0.8-1.9-1.3-3.2-1.3s-2.4,0.5-3.2,1.3C403.8,144.8,403.2,145.9,403.2,147.2z"/>
			<path class="st4" d="M403.2,148.5L403.2,148.5C403.1,148.5,403.1,148.5,403.2,148.5c-0.1-0.1-0.1-0.2-0.1-0.2l0.2,0.1
				c0,0.1,0,0.1,0.1,0.1L403.2,148.5C403.2,148.6,403.2,148.5,403.2,148.5z"/>
			<path class="st4" d="M403.1,148.1l0.2,0.1c0,0.1,0.1,0.1,0.1,0.2l-0.2-0.1C403.1,148.2,403.1,148.2,403.1,148.1z"/>
			<path class="st4" d="M403.1,147.2c0,0.4,0.1,0.7,0.1,1l-0.2-0.1c-0.1-0.3-0.1-0.6-0.1-0.9c0-2.3,1.6-4.1,3.7-4.7h1.2
				C405.2,142.5,403.1,144.6,403.1,147.2z"/>
			<path class="st5" d="M403.1,148.1l-1.1-0.9l0,0c0.6-1.3,1.7-4.1,1.4-6.2c9.3-1,17.6-6.1,17.7-6.2c0.3,2.3,1.4,5.2,2.5,7.6
				l-0.2,0.1l-2.2-1.2c-0.5-0.3-1.2-0.4-1.8-0.5l-3.2-0.2c0.1,0.1,0.7,2,0.7,2h1.3c-2,0.5-3.5,2.3-3.7,4.4c-0.3-0.2-0.6-0.3-0.9-0.3
				c-0.4,0-0.8,0.2-1,0.3c-0.1-2.1-1.6-3.9-3.7-4.4h2.5c0,0,0.6-1.8,0.7-2l-3.2,0.2c-0.6,0.1-1.2,0.2-1.8,0.5l-2.2,1.2h1.6
				c-2.1,0.5-3.7,2.4-3.7,4.7C403,147.5,403,147.8,403.1,148.1z"/>
			<path class="st6" d="M402.1,151.4c-0.1-0.2-0.1-0.3-0.1-0.5c0.1,0.1,0.1,0.2,0.1,0.3C402.1,151.3,402.1,151.4,402.1,151.4z"/>
			<path class="st4" d="M401.9,147.3l1.2,1c0,0.1,0.1,0.1,0.1,0.2v0.1l-1.3-1.1C401.8,147.4,401.8,147.4,401.9,147.3z"/>
			<path class="st4" d="M403.1,148.3l-1.2-1l0,0c0-0.1,0.1-0.1,0.1-0.1l0,0l1.1,0.9C403.1,148.2,403.1,148.2,403.1,148.3z"/>
			<path class="st5" d="M413.5,147.9c0-0.2-0.1-0.3-0.3-0.3s-0.3,0.1-0.3,0.3v4.7c0,0.2,0.1,0.4,0.1,0.5l0,0
				c0.2,0.5,0.7,0.8,1.3,0.8c0.1,0,0.2,0,0.4-0.1l1.1-0.3c0.1-0.1,0.2-0.2,0.2-0.4c-0.1-0.1-0.2-0.2-0.4-0.2l-1.1,0.3
				c-0.1,0-0.1,0.1-0.2,0.1c-0.3,0-0.6-0.2-0.7-0.4l0,0c-0.1-0.1-0.1-0.2-0.1-0.3L413.5,147.9L413.5,147.9z M402,151
				c-0.1-1-0.2-1.8-0.3-2.7c0-0.2,0-0.4-0.1-0.6c0.1-0.1,0.1-0.2,0.1-0.3l1.3,1.1c0.5,2,2.4,3.5,4.6,3.5c2.6,0,4.7-2.1,4.8-4.7
				c0.1-0.1,0.5-0.4,1-0.4c0.2,0,0.5,0.1,0.9,0.4c0.1,2.6,2.2,4.7,4.8,4.7c2.2,0,4-1.5,4.6-3.5l1.9-1.5c0.1,0.1,0.1,0.2,0.1,0.2
				c0,0.4,0,0.7-0.1,1.1c-0.1,0.8-0.1,1.6-0.2,2.6l-0.2,0.4l0,0c-0.1,0.1,0,0.2,0.1,0.2h0.1c-0.1,0.9-0.3,1.9-0.5,2.9
				c-0.7,3.4-2.1,6.9-4.5,9.3c-1,0.9-2.4,1.8-4,2.2c-0.1,0.1-0.2,0.1-0.3,0.1l0,0c-0.7,0.2-1.5,0.2-2.3,0.2c-0.1,0-0.1,0-0.2,0
				c-2.7-0.1-5-1.5-6.5-2.4l0,0c-2.6-2.3-4-5.9-4.7-9.4c-0.2-1-0.4-1.9-0.5-2.9c0.1-0.1,0.1-0.1,0.1-0.2
				C402.1,151.1,402,151.1,402,151z M418.3,156.1c0.1-0.1,0.1-0.3,0.1-0.4c-0.1-0.1-0.3-0.1-0.4-0.1l0,0c-0.1,0.1-1.6,1.2-3.5,1.2
				c-1,0-2-0.3-2.7-0.6c-0.4-0.2-0.7-0.3-0.9-0.4c-0.1-0.1-0.2-0.1-0.2-0.1l-0.1-0.1l0,0c-0.1-0.1-0.3-0.1-0.4,0.1
				c-0.1,0.1-0.1,0.3,0.1,0.4c0,0,1.9,1.3,4.2,1.3C416.7,157.4,418.2,156.1,418.3,156.1z"/>
			<path class="st4" d="M402,147.2c0,0.1-0.1,0.1-0.1,0.1l-0.1-0.1C401.8,147.2,401.9,147.2,402,147.2z"/>
			<path class="st6" d="M401.7,147.1c-0.1-1.9,0-3.2,0-3.2s-0.7-13.2,12.8-13.2c12.5,0,11.4,13.2,11.4,13.2s0.1,1.1,0.1,2.8
				l-0.1,0.1c-0.1-0.1-0.1-0.1-0.2-0.1c-0.5-0.9-1.3-2.4-2.2-4.3c-1.1-2.4-2.2-5.3-2.5-7.6c-0.1,0-8.3,5.1-17.7,6.2
				c0.3,2.1-0.8,4.9-1.4,6.2c-0.1,0-0.1,0-0.2,0.1L401.7,147.1L401.7,147.1z"/>
			<path class="st4" d="M401.9,147.3L401.9,147.3c0,0.1-0.1,0.1-0.1,0.1l0,0C401.8,147.4,401.8,147.3,401.9,147.3L401.9,147.3
				L401.9,147.3z"/>
			<path class="st4" d="M401.7,147.7c0-0.2,0-0.4,0-0.6l0.1,0.1l0,0c-0.1,0.1-0.1,0.1,0,0.2l0,0
				C401.8,147.5,401.7,147.7,401.7,147.7z"/>
			<path class="st6" d="M401.5,148c-2.5-8.8-4.1-20,12.2-20c17.3,0,14.7,11.1,12.2,19.4c0,0-0.1-0.1-0.1-0.1c0-0.2,0-0.4,0-0.5
				c0.1-1.7-0.1-2.8-0.1-2.8s1-13.2-11.4-13.2c-13.5,0-12.8,13.2-12.8,13.2s-0.1,1.3,0,3.2l0,0c0,0.2,0,0.4,0,0.6
				C401.6,147.9,401.5,148,401.5,148z"/>
			<path class="st6" d="M401.3,150c0.2,0.2,0.5,0.5,0.7,1c0,0.2,0.1,0.3,0.1,0.5c-0.1,0.1-0.2,0-0.2-0.1c-0.2-0.5-0.5-0.8-0.7-1.1
				l0.1-0.1h0.1C401.4,150.2,401.4,150.1,401.3,150L401.3,150z"/>
			<path class="st6" d="M401.2,150.2L401.2,150.2c-0.1,0-0.1,0-0.1-0.1l0,0c-0.1-0.1-0.1-0.1-0.1-0.1c0.1-0.1,0.2-0.1,0.2-0.1
				c0.1-0.1,0.2,0,0.2,0.1C401.4,150.1,401.4,150.2,401.2,150.2L401.2,150.2z"/>
			<path class="st6" d="M401.1,150.2L401.1,150.2v0.1c-0.1,0.1-0.2,0.2-0.4,0.3c-0.2,0.2-0.5,0.5-0.5,1c0,0.2,0.1,0.5,0.4,0.9
				c0.1,0.1,0.1,0.2,0,0.2c-0.1,0.1-0.2,0.1-0.2,0c-0.3-0.4-0.4-0.7-0.4-1.1c0-0.5,0.3-0.9,0.5-1.2c0.1-0.1,0.3-0.2,0.4-0.3
				S401.1,150.2,401.1,150.2L401.1,150.2z"/>
			<path class="st6" d="M400.9,150c-0.5-0.5-1-0.6-1.4-0.6c-0.2,0-0.4,0.1-0.4,0.1l0,0c-0.1,0-0.2,0-0.2-0.1s0-0.2,0.1-0.2
				c0,0,0.2-0.1,0.5-0.1c0.2,0,0.5,0.1,0.8,0.1c0.3,0.1,0.6,0.3,1,0.7c0,0,0,0,0.1,0.1l0,0c-0.1-0.1-0.1-0.1-0.2-0.1
				C401.1,150,401.1,150,400.9,150z"/>
			<path class="st5" d="M399.5,149.5c0.4,0,0.9,0.1,1.4,0.6c-0.1,0.1-0.2,0.2-0.4,0.3c-0.2,0.2-0.5,0.7-0.5,1.2
				c0,0.3,0.1,0.7,0.4,1.1c0.1,0.1,0.1,0.1,0.2,0c0.1-0.1,0.1-0.1,0-0.2c-0.3-0.4-0.4-0.7-0.4-0.9c0-0.4,0.2-0.7,0.5-1
				c0.1-0.1,0.2-0.2,0.4-0.3l0.1-0.1c0.2,0.2,0.5,0.6,0.7,1.1c0.1,0.1,0.1,0.1,0.2,0.1c0.1,0.9,0.3,1.9,0.5,2.9h-0.1
				c-0.9,1.2-2.6,0.4-3.5-1.2c-1-1.6-1.5-4.9,0-5.8c1.5-0.9,2.7,0.9,2.7,0.9l0,0c0.1,0.8,0.1,1.7,0.3,2.7c-0.2-0.4-0.4-0.7-0.7-1
				c0,0,0,0-0.1-0.1c-0.3-0.3-0.7-0.5-1-0.7c-0.3-0.1-0.5-0.1-0.8-0.1c-0.3,0-0.5,0.1-0.5,0.1c-0.1,0-0.1,0.1-0.1,0.2
				s0.1,0.1,0.2,0.1l0,0C399.2,149.6,399.4,149.5,399.5,149.5z"/>
			<path class="st6" d="M397.3,176.3L397.3,176.3l-0.3,0.1C397.2,176.3,397.3,176.3,397.3,176.3z"/>
			<path class="st6" d="M391.3,180.7c-0.1,0.1-0.2,0.1-0.2,0.2c0.1-0.1,0.1-0.1,0.1-0.2H391.3z"/>
			<path class="st6" d="M390.6,180.5c3.2-2.9,6.3-4.4,6.3-4.4c0.1-0.1,0.3,0,0.4,0.1c0,0.1,0,0.1,0,0.1c-0.1,0-0.2,0.1-0.3,0.1h0.3
				c0,0.1-0.1,0.2-0.2,0.2c0,0-0.1,0-0.1,0.1c-0.1,0.1-0.2,0.1-0.4,0.2c-0.3,0.2-0.8,0.5-1.4,0.9c-1.1,0.7-2.5,1.7-4,3h-0.2
				c0-0.1,0-0.1-0.1-0.2C391,180.4,390.8,180.4,390.6,180.5L390.6,180.5z"/>
			<path class="st6" d="M390.6,180.9l0.2-0.2l0,0h0.3c0,0.1,0,0.2-0.1,0.2l0,0C390.9,181,390.7,181,390.6,180.9z"/>
			<path class="st6" d="M391,181c-0.9,0.8-1.7,1.6-2.7,2.8H388l2.7-2.8C390.7,181,390.9,181,391,181L391,181z"/>
			<path class="st6" d="M390.8,180.7l-0.2,0.2l0,0c-0.1-0.1-0.1-0.3,0-0.4l0,0c0.1-0.1,0.3-0.1,0.4,0c0.1,0.1,0.1,0.1,0.1,0.2
				L390.8,180.7L390.8,180.7z"/>
			<path class="st6" d="M384.3,190.2L384.3,190.2l1.1-2.4h0.2c-0.4,0.8-0.7,1.6-1,2.4c-0.1,0.2-0.2,0.2-0.4,0.2
				C384.3,190.3,384.3,190.3,384.3,190.2z"/>
			<path class="st6" d="M384.4,190.8h-0.3c0-0.1,0.1-0.2,0.1-0.3C384.4,190.5,384.4,190.6,384.4,190.8z"/>
			<path class="st6" d="M384.3,190.2c-0.1,0.1-0.1,0.2-0.1,0.3l0,0c0,0,0,0-0.1,0L384.3,190.2z"/>
			<path class="st6" d="M385.6,186.6c0.6-1.1,1.3-2.1,2.1-3c0.9-1.2,1.9-2.1,2.9-3c-0.1,0.1-0.1,0.3,0,0.4l0,0l-2.7,2.8h0.4
				c-0.1,0.1-0.1,0.1-0.2,0.2c-1,1.2-1.8,2.4-2.6,3.9h-0.2l-1.1,2.4l0,0l-0.1,0.2c-0.1-0.1-0.2-0.2-0.2-0.4
				C384.4,188.8,385,187.7,385.6,186.6z"/>
			<path class="st7" d="M384.6,190.2c0.2-0.9,0.6-1.6,1-2.4h57.6c0.5,1,0.9,1.9,1.2,3h-59.9c0-0.1-0.1-0.2-0.2-0.3v-0.1
				C384.4,190.5,384.6,190.4,384.6,190.2z"/>
			<path d="M384.1,190.5L384.1,190.5c0.1-0.1,0.1-0.1,0.1-0.1l0,0v0.1H384.1C384.2,190.5,384.2,190.5,384.1,190.5z"/>
			<path class="st6" d="M384,190.8l0.1-0.3h0.1l0,0c-0.1,0.1-0.1,0.2-0.1,0.3H384z"/>
			<path class="st6" d="M383.9,194.4c0,0.1,0,0.2,0,0.3h-0.3v-0.3H383.9z"/>
			<path class="st6" d="M445.2,195h-61.6c-0.1,0-0.2-0.1-0.2-0.1c-0.1-0.1-0.1-0.1-0.1-0.2c0-1.4,0.2-2.7,0.5-4
				c0.1-0.1,0.2-0.2,0.3-0.2l-0.1,0.3h0.1h0.3v0.1c-0.3,1.2-0.5,2.3-0.5,3.5h-0.3v0.3h0.3c0-0.1,0-0.2,0-0.3h61c0,0.1,0,0.2,0,0.3
				h0.3v-0.2h-0.3c-0.1-1.4-0.2-2.5-0.5-3.5v-0.1h0.3l-1.4-3h-0.1c-0.7-1.4-1.6-2.7-2.6-3.9c-0.1-0.1-0.1-0.1-0.2-0.2h0.4l-2.7-2.8
				l0,0c0.1-0.1,0.1-0.3,0-0.4c1,0.9,2,1.9,2.9,3c0.9,1,1.6,2.1,2.3,3.3c0.7,1.2,1.2,2.5,1.6,3.9c0.4,1.3,0.5,2.6,0.5,4
				c0,0.1-0.1,0.2-0.1,0.2C445.4,195,445.3,195,445.2,195z"/>
		</g>
	</g>
</g>
<g>
	<g>
		<g id="XMLID_12_">
			<g>
				<path class="st4" d="M391.1,305.7c0,10.2-6.8,22-13.3,22c-1.6,0-3.2-0.5-4.6-1.5c-0.3-1.3-1-2.4-1.9-3.2
					c1.8-1.9,2.9-4.7,2.9-7.9c0-4.3-2.1-7.9-5.1-9.6c2.1-3.3,5.4-6.3,10.3-7.5c3.3-0.8,3.9-3.1,2.7-5.2
					C386.9,294.2,391.1,297.9,391.1,305.7z"/>
				<path class="st4" d="M382.1,292.9c1.2,2.1,0.7,4.4-2.7,5.2c-4.9,1.2-8.2,4.1-10.3,7.5c-0.8-0.5-1.7-0.7-2.6-0.9
					c1.2-7.7,5.5-12.4,11-12.4C379,292.4,380.5,292.6,382.1,292.9z"/>
				<path class="st4" d="M382.1,292.9c-1.5-0.4-3.1-0.5-4.6-0.5c-5.5,0-9.8,4.7-11,12.4c-0.2-0.1-0.5-0.1-0.8-0.1
					c-2.3,0-4.4,1.2-6,3c-0.5-4.7,0.3-9.9,4-13.3C372,286.5,379.9,289.3,382.1,292.9z"/>
				<path class="st4" d="M373.1,326.2c0.1,0.5,0.2,1.1,0.2,1.7c0,3.3-2.1,5.9-4.8,5.9c-1.8,0-3.3-1.2-4.2-3c2.3-0.4,4-2.8,4-5.7
					c0.8-0.3,1.5-0.8,2.1-1.4C371.3,324.7,372.2,325.6,373.1,326.2z"/>
				<path class="st4" d="M371.2,323c0.9,0.7,1.6,1.9,1.9,3.2c-0.9-0.7-1.8-1.5-2.6-2.5C370.7,323.5,371,323.3,371.2,323z"/>
				<path class="st4" d="M369,305.6c3,1.6,5.1,5.3,5.1,9.6c0,3.1-1.1,5.9-2.9,7.9c-0.5-0.5-1.2-0.8-1.9-1c-1.6-2.6-2.7-6-3.1-9.8
					C366.8,310.1,367.6,307.8,369,305.6z"/>
				<path class="st4" d="M371.2,323c-0.2,0.2-0.5,0.5-0.7,0.7c-0.4-0.5-0.8-1-1.2-1.6C370.1,322.2,370.7,322.5,371.2,323z"/>
				<path class="st4" d="M368.4,325c0-1-0.2-2-0.6-2.9c0.2-0.1,0.5-0.1,0.8-0.1c0.3,0,0.5,0.1,0.9,0.1c0.4,0.6,0.7,1.2,1.2,1.6
					c-0.7,0.6-1.4,1-2.1,1.4C368.4,325,368.4,325,368.4,325z"/>
				<path class="st4" d="M368.4,325c0,0.1,0,0.1,0,0.1c-0.9,0.4-1.8,0.5-2.7,0.5c-0.5,0-1-0.1-1.5-0.2c0.7-1.8,2-3.1,3.6-3.5
					C368.1,322.9,368.4,323.9,368.4,325z"/>
				<path class="st4" d="M365,319.3c1.2,0.4,2.2,1.5,2.7,2.7c-1.6,0.3-3,1.6-3.6,3.5c-1.9-0.4-3.6-1.6-4.8-3.3
					c0.8-1.9,2.4-3.2,4.3-3.2C364.1,319.1,364.5,319.1,365,319.3z"/>
				<path class="st4" d="M368.4,325.1c-0.1,2.9-1.8,5.2-4,5.7c-0.4-0.9-0.6-1.8-0.6-2.9c0-0.9,0.1-1.6,0.4-2.4
					c0.5,0.1,1,0.2,1.5,0.2C366.5,325.6,367.5,325.4,368.4,325.1z"/>
				<path class="st4" d="M366.4,304.8c0.9,0.1,1.8,0.4,2.6,0.9c-1.4,2.2-2.3,4.5-2.8,6.6c-0.1-1-0.2-2-0.2-3
					C366.1,307.6,366.2,306.2,366.4,304.8z"/>
				<path class="st4" d="M366.1,319.2c-0.3,0-0.7-0.1-1-0.2c-2.4-1-4.9-5.9-5.5-11.3c1.5-1.9,3.7-3,6-3c0.3,0,0.5,0,0.8,0.1
					c-0.2,1.4-0.3,2.9-0.3,4.4c0,1,0.1,2.1,0.2,3C365.4,315.6,365.5,318.5,366.1,319.2z"/>
				<path class="st4" d="M365.1,319c0.3,0.1,0.7,0.2,1,0.2c-0.6-0.7-0.7-3.6,0.1-7c0.4,3.8,1.5,7.2,3.1,9.8
					c-0.3-0.1-0.5-0.1-0.9-0.1c-0.2,0-0.5,0-0.8,0.1c-0.6-1.3-1.6-2.3-2.7-2.7L365.1,319z"/>
				<path class="st4" d="M364.4,330.8c-0.2,0.1-0.5,0.1-0.8,0.1c-2.7,0-4.8-2.7-4.8-5.9c0-1,0.2-1.9,0.5-2.7
					c1.2,1.7,2.9,2.9,4.8,3.3c-0.2,0.7-0.4,1.5-0.4,2.4C363.7,329,363.9,330,364.4,330.8z"/>
				<path class="st4" d="M365,319.3c-0.4-0.2-0.9-0.2-1.4-0.2c-1.8,0-3.5,1.3-4.3,3.2c-1.3-1.8-2.2-4.3-2.2-7.1c0-2.9,1-5.5,2.6-7.4
					c0.6,5.4,3.1,10.2,5.5,11.3L365,319.3z"/>
			</g>
		</g>
	</g>
	<g>
		<g id="XMLID_11_">
			<g>
				<path class="st6" d="M406.5,356v0.3C406.5,356.2,406.5,356.1,406.5,356L406.5,356z"/>
				<path class="st6" d="M406.5,356c0,0.1,0,0.2,0,0.3l0,0c0,0-0.1,0-0.3,0c0-0.1,0-0.2,0-0.3C406.3,356,406.4,356,406.5,356z"/>
				<path class="st6" d="M406.5,356.3h-0.3l0,0C406.3,356.3,406.4,356.3,406.5,356.3z"/>
				<path class="st6" d="M392.8,338L392.8,338c0-0.1-0.1-0.1-0.4-0.2c0.3-0.1,0.4-0.1,0.4-0.1c0.1,0,0.1,0,0.2,0
					c0.1,0.1,0.1,0.2,0.1,0.3l0,0C393,338,392.9,338,392.8,338z"/>
				<path class="st6" d="M393.1,338c-0.1,0.2-0.2,0.2-0.4,0.2c0,0-0.1,0-0.3-0.1c0.1-0.1,0.2-0.1,0.4-0.1
					C392.9,338,393,338,393.1,338z"/>
				<path class="st6" d="M392.8,338L392.8,338c-0.1,0.1-0.3,0.1-0.4,0.2c-0.1,0-0.2-0.1-0.4-0.1c0.1,0,0.1-0.1,0.1-0.1
					c0.1-0.1,0.2-0.1,0.3-0.1C392.7,337.9,392.8,338,392.8,338z"/>
				<path class="st6" d="M392,338.1c-1.3,0.8-3,1.7-5.2,2.5c-2.5,0.9-5.7,1.6-9.3,1.6c-4.2,0-8.9-1-13.8-4.1c1.2-0.2,2.1-0.5,3-0.9
					c0.4,0.2,4.5,2.4,10.8,2.4c3.3,0,7.1-0.6,11.3-2.5C390,337.6,391.3,337.9,392,338.1z"/>
				<path class="st4" d="M390.6,312.5c-0.2-0.2-0.4-0.4-0.5-0.4c0.1-0.1,0.1-0.1,0.2-0.2c0.1,0.1,0.2,0.2,0.4,0.4
					c0.2,0.2,0.5,0.7,0.5,1.2c0,0.4-0.1,0.7-0.4,1.1c-0.1,0.1-0.1,0.1-0.2,0c-0.1-0.1-0.1-0.1,0-0.2c0.3-0.4,0.4-0.7,0.4-0.9
					C391,313.1,390.8,312.8,390.6,312.5z"/>
				<path class="st4" d="M390,311.9c0.1-0.1,0.1-0.1,0.2-0.1c0,0,0.1,0,0.1,0.1c-0.1,0.1-0.1,0.1-0.2,0.2l0,0H390
					C390,312.1,390,312,390,311.9z"/>
				<path class="st5" d="M389.9,309.6h-0.1l0,0l0,0v-0.1c0.1-0.1,0.2-0.2,0.3-0.3c-0.1,0.2-0.1,0.4-0.1,0.5l-0.1-0.1
					C389.9,309.7,389.9,309.7,389.9,309.6z"/>
				<path class="st8" d="M389.9,310.2c0-0.1,0-0.1,0-0.1V310l0.2,0.1c-0.1,0.1-0.1,0.1-0.1,0.2C389.9,310.2,389.9,310.2,389.9,310.2
					L389.9,310.2z"/>
				<path class="st5" d="M389.9,309.9c0-0.1,0-0.1,0-0.1l0.1-0.1C389.9,309.9,389.9,309.9,389.9,309.9L389.9,309.9z"/>
				<path class="st8" d="M389.9,310.4c0-0.1,0-0.1,0-0.1h0.1C389.9,310.2,389.9,310.2,389.9,310.4
					C389.9,310.3,389.9,310.4,389.9,310.4L389.9,310.4L389.9,310.4z"/>
				<path class="st5" d="M389.9,309.6c0,0.1,0,0.1,0,0.1l0,0V309.6L389.9,309.6L389.9,309.6L389.9,309.6z"/>
				<path class="st8" d="M389.9,309.8L389.9,309.8C389.9,309.8,389.9,309.8,389.9,309.8L389.9,309.8L389.9,309.8z"/>
				<path class="st5" d="M389.9,310C389.9,310,389.9,310,389.9,310C389.9,310,389.9,310,389.9,310L389.9,310z"/>
				<path class="st5" d="M389.9,310l-0.1-0.1L389.9,310C389.9,310,389.9,310,389.9,310z"/>
				<path class="st5" d="M389.9,309.9c0,0.1,0,0.1,0,0.1V309.9L389.9,309.9L389.9,309.9z"/>
				<path class="st8" d="M389.9,310.4l-0.2-0.2l0.2,0.1C389.9,310.2,389.9,310.3,389.9,310.4z"/>
				<path class="st8" d="M389.6,310.2c0,0,0.1-0.1,0.2-0.2l0.1,0.1c0,0.1,0,0.1,0,0.1H389.6z"/>
				<path class="st5" d="M389.8,309.7L389.8,309.7L389.8,309.7z"/>
				<path class="st8" d="M389.7,311.5c0.1-0.4,0.1-0.7,0.1-0.9c0-0.1,0-0.2,0.1-0.3c0.1-0.1,0.1-0.1,0.1-0.2l-0.2-0.1
					c0-0.1,0-0.1,0.1-0.2l0,0l0.2,0.2c0.2-0.2,0.4-0.4,0.6-0.5c0.2-0.1,0.5-0.2,0.8-0.2c0.2,0,0.4,0.1,0.7,0.2
					c0.2,0.2,0.5,0.4,0.6,0.8c0.1,0.4,0.2,0.8,0.2,1.3c0,1.2-0.4,2.5-0.9,3.3c-0.3,0.5-0.7,0.9-1.1,1.2c-0.4,0.3-0.8,0.4-1.2,0.4
					c-0.3,0-0.6-0.1-0.9-0.4l0.1-0.6l0.1-0.7l0,0c0.1-0.1,0.1-0.3,0.1-0.5l0,0c0-0.1,0.1-0.2,0.1-0.3l0,0c0.1-0.2,0.1-0.4,0.1-0.7
					l0,0c0-0.1,0.1-0.2,0.1-0.4c0.2-0.3,0.4-0.5,0.5-0.7l0,0c0.1,0.1,0.3,0.2,0.5,0.4c0.2,0.2,0.4,0.5,0.4,0.9
					c0,0.2-0.1,0.5-0.4,0.9c-0.1,0.1-0.1,0.2,0,0.2c0.1,0.1,0.2,0.1,0.2,0c0.3-0.4,0.4-0.7,0.4-1.1c0-0.5-0.3-0.9-0.5-1.2
					c-0.2-0.2-0.3-0.3-0.4-0.4c0.5-0.5,1.1-0.5,1.4-0.5c0.1,0,0.2,0,0.3,0h0.1l0,0l0,0c0.1,0,0.2,0,0.2-0.1c0-0.1,0-0.2-0.1-0.2
					c0,0-0.2-0.1-0.5-0.1c-0.5,0-1.3,0.2-2.1,1.1c0-0.1,0-0.1,0-0.2C389.7,311.8,389.7,311.6,389.7,311.5z"/>
				<path class="st5" d="M389.8,309.6L389.8,309.6L389.8,309.6z"/>
				<path class="st5" d="M389.9,309.9l-0.1-0.3l0,0l0,0l0,0l0,0l0.1,0.1l0,0C389.9,309.8,389.9,309.8,389.9,309.9L389.9,309.9z"/>
				<path class="st5" d="M389.7,309.6L389.7,309.6L389.7,309.6z"/>
				<path class="st8" d="M389.9,310.4c0,0.4-0.1,0.7-0.1,1.2h-0.3v-0.1c0.1-0.7,0.1-1.2,0.1-1.2L389.9,310.4z"/>
				<path class="st4" d="M389.7,309.6L389.7,309.6L389.7,309.6L389.7,309.6L389.7,309.6z"/>
				<polygon class="st4" points="389.7,309.6 389.7,309.6 389.7,309.6 				"/>
				<path class="st4" d="M389.7,309.6L389.7,309.6L389.7,309.6z"/>
				<path class="st4" d="M390.1,312.1c-0.2,0.2-0.4,0.4-0.5,0.7c0.1-0.4,0.1-0.4,0.1-0.7c0.7-0.9,1.6-1.1,2.1-1.1
					c0.3,0,0.5,0.1,0.5,0.1c0.1,0,0.1,0.1,0.1,0.2c0,0.1-0.1,0.1-0.2,0.1l0,0l0,0H392c-0.1,0-0.2,0-0.3,0c-0.4,0-0.9,0.1-1.4,0.5
					c-0.1-0.1-0.1-0.1-0.1-0.1c-0.1-0.1-0.2,0-0.2,0.1C390,312,390,312.1,390.1,312.1L390.1,312.1z"/>
				<path class="st4" d="M389.7,309.6l0.1,0.3l-0.2-0.2l0,0v-0.1v-0.1H389.7z"/>
				<path class="st5" d="M389.6,309.7L389.6,309.7L389.6,309.7z"/>
				<path class="st4" d="M389.6,309.7c0,0.1,0,0.1,0,0.1C389.6,309.8,389.6,309.8,389.6,309.7C389.6,309.7,389.6,309.7,389.6,309.7
					L389.6,309.7z"/>
				<path class="st4" d="M389.4,309.6h0.2v0.1v0.1l-0.1,0.1C389.5,309.7,389.5,309.7,389.4,309.6z"/>
				<path class="st4" d="M389.9,309.9c-0.1,0.1-0.2,0.2-0.2,0.2s-0.1,0.5-0.1,1.2c0.1-0.5,0.1-1.2,0.1-1.6l0,0l0,0L389.9,309.9
					L389.9,309.9z"/>
				<path class="st4" d="M389.2,313.8l0.2,0.1l0,0L389.2,313.8z"/>
				<path class="st8" d="M389.9,310.6c0,0.2-0.1,0.5-0.1,0.9c0,0.2-0.1,0.4-0.1,0.5c0,0.1,0,0.1,0,0.2c-0.1,0.2-0.2,0.3-0.4,0.5
					c0.1-0.2,0.1-0.5,0.1-0.7c0-0.2,0.1-0.4,0.1-0.5h0.3c0.1-0.4,0.1-0.8,0.1-1.2l0,0l0,0c0,0,0,0,0.1-0.1
					C389.9,310.4,389.9,310.5,389.9,310.6z"/>
				<path class="st8" d="M389.2,313.2c0-0.1,0.1-0.3,0.1-0.4c0.1-0.2,0.2-0.4,0.4-0.5c0,0.2-0.1,0.2-0.1,0.7
					c-0.1,0.1-0.1,0.2-0.2,0.4l0,0l-0.1,0.1c0,0.1-0.1,0.1-0.1,0.1C389.2,313.3,389.2,313.2,389.2,313.2z"/>
				<path class="st5" d="M389.4,312c0,0.2-0.1,0.5-0.1,0.7l0,0C389.4,312.5,389.4,312.2,389.4,312z"/>
				<path class="st8" d="M389.3,314.7c0.1-0.2,0.1-0.3,0.1-0.5l-0.3-0.1c0-0.1,0.1-0.2,0.1-0.3h0.1l0.2,0.1c0,0.1-0.1,0.2-0.1,0.3
					l0,0C389.4,314.4,389.3,314.6,389.3,314.7L389.3,314.7L389.3,314.7z"/>
				<path class="st8" d="M389.4,314.2c-0.1,0.2-0.1,0.3-0.1,0.5h-0.3c0-0.1,0.1-0.3,0.1-0.5v-0.1L389.4,314.2z"/>
				<path class="st8" d="M389.3,314.7C389.2,314.7,389.2,314.7,389.3,314.7h-0.2H389H389.3L389.3,314.7z"/>
				<path class="st8" d="M389.3,310.2c0,0-0.1,0.4-0.1,1c0.1-0.5,0.1-1,0.1-1.5h0.1c0.1,0.1,0.1,0.1,0.1,0.2
					c-0.1,0.1-0.2,0.2-0.2,0.2L389.3,310.2L389.3,310.2z"/>
				<path class="st4" d="M389.2,314.7L389.2,314.7L389.2,314.7C389.3,314.7,389.2,314.7,389.2,314.7l-0.2-0.1L389.2,314.7z"/>
				<path class="st5" d="M389.2,313.2c0-0.1,0.1-0.3,0.1-0.4l0,0C389.3,312.8,389.2,313,389.2,313.2L389.2,313.2z"/>
				<path class="st5" d="M389.2,313.2L389.2,313.2c0,0.1,0,0.1,0,0.2l0,0C389.2,313.3,389.2,313.2,389.2,313.2z"/>
				<path class="st5" d="M389.2,313.3c0,0.1,0,0.1,0,0.1C389.2,313.5,389.2,313.4,389.2,313.3L389.2,313.3z"/>
				<path class="st8" d="M389.4,313.9l-0.2-0.1h-0.1c0-0.1,0.1-0.2,0.1-0.3l0,0c0-0.1,0-0.1,0-0.1c0.1,0,0.1-0.1,0.1-0.1l0.1-0.1
					l0,0c0.1-0.1,0.1-0.2,0.2-0.4c0,0.1-0.1,0.2-0.1,0.4l0,0C389.5,313.4,389.5,313.6,389.4,313.9z"/>
				<path class="st8" d="M389.2,311.1c0.1-0.6,0.1-1,0.1-1v-0.1l0.1-0.1c0,0,0.1-0.1,0.2-0.2c0,0.1,0.1,0.1,0.1,0.1
					c0-0.1,0-0.1,0-0.1c-0.1,0.5-0.1,1.1-0.1,1.6v0.1h-0.3C389.2,311.3,389.2,311.3,389.2,311.1
					C389.2,311.2,389.2,311.1,389.2,311.1z"/>
				<path class="st8" d="M389.2,313.2c0,0.1,0,0.1-0.1,0.2h-0.1c-0.1-0.1-0.1-0.1-0.1-0.2l0,0l0,0h0.1L389.2,313.2z"/>
				<path class="st4" d="M389.1,313.2L389.1,313.2L389.1,313.2z"/>
				<path class="st8" d="M389.1,313c0.1-0.1,0.1-0.2,0.2-0.3c0,0.1-0.1,0.3-0.1,0.4h-0.1h-0.1L389.1,313L389.1,313z"/>
				<path class="st6" d="M392,338.1c-0.7-0.2-1.9-0.5-3.2-1l0,0c0.1-0.1,0.2-0.1,0.2-0.2c1.5,0.5,2.7,0.9,3.4,1
					c-0.1,0.1-0.2,0.1-0.3,0.1C392,338,392,338,392,338.1z"/>
				<path class="st8" d="M389.4,312c-0.1,0.2-0.1,0.5-0.1,0.7c-0.1,0.1-0.1,0.2-0.2,0.3l0,0v0.1l0,0h-0.1H389
					c0.1-0.4,0.1-0.8,0.2-1.2c0-0.2,0.1-0.4,0.1-0.5c0-0.1,0-0.1,0-0.2c0,0.1,0,0.1,0,0.2h0.3C389.4,311.6,389.4,311.8,389.4,312z"
					/>
				<path class="st4" d="M389.1,313.2L389.1,313.2L389.1,313.2z"/>
				<polygon class="st4" points="389.1,314.1 389.1,314.2 389,314.1 				"/>
				<polygon class="st4" points="389.1,314.1 389,314.1 388.9,314.1 				"/>
				<path class="st8" d="M388.8,315.5l0.1-0.7l0,0h0.1l0.2,0.1l-0.1,0.7l-0.1,0.6l0,0c0.1-0.2,0.1-0.4,0.1-0.6L388.8,315.5z"/>
				<path class="st8" d="M392.4,309.3c1.5,0.9,1,4.1,0,5.8c-0.9,1.5-2.6,2.3-3.5,1.5c0-0.1,0.1-0.1,0.1-0.2l0,0v-0.1
					c0.2,0.3,0.5,0.4,0.9,0.4c0.4,0,0.8-0.1,1.2-0.4c0.4-0.3,0.8-0.7,1.1-1.2c0.5-0.9,0.9-2.2,0.9-3.3c0-0.5-0.1-0.9-0.2-1.3
					c-0.1-0.4-0.3-0.6-0.6-0.8c-0.2-0.1-0.5-0.2-0.7-0.2c-0.3,0-0.5,0.1-0.8,0.2c-0.2,0.1-0.4,0.3-0.6,0.5l-0.2-0.2
					C390.4,309.3,391.3,308.6,392.4,309.3z"/>
				<path class="st4" d="M389,314.7c0.1-0.2,0.1-0.3,0.1-0.5C389.1,314.4,389,314.6,389,314.7z"/>
				<path class="st4" d="M388.9,313.1L388.9,313.1L388.9,313.1z"/>
				<path class="st8" d="M388.7,314.6c0.1-0.1,0.1-0.3,0.1-0.4l0.2,0.1h0.1l0,0v0.1c0,0.2-0.1,0.3-0.1,0.5l-0.3-0.1
					C388.7,314.6,388.7,314.6,388.7,314.6z"/>
				<polygon class="st8" points="389,314.1 388.8,314.1 388.8,314.1 388.9,314.1 				"/>
				<path class="st8" d="M388.8,313.8c0.1-0.2,0.1-0.4,0.1-0.7h0.1h0.1l0,0c-0.1,0.1,0,0.2,0.1,0.2h0.1c0,0.1,0,0.1,0,0.1l0,0
					c0,0.1-0.1,0.2-0.1,0.3c0,0.1-0.1,0.2-0.1,0.3l0,0l0,0h-0.1h-0.1C388.8,314,388.8,313.9,388.8,313.8L388.8,313.8L388.8,313.8z"
					/>
				<path class="st8" d="M389,316.1v0.1l0,0C388.9,316.2,388.9,316.2,389,316.1L389,316.1z"/>
				<path class="st8" d="M393.6,311.5c0,1.3-0.4,2.7-1,3.7c-0.4,0.5-0.8,1-1.3,1.4c-0.5,0.4-1,0.5-1.5,0.5c-0.4,0-0.7-0.1-1-0.4
					c0-0.1,0.1-0.2,0.1-0.3c1,0.9,2.6,0.1,3.5-1.5c1-1.6,1.5-4.9,0-5.8c-1-0.6-1.9,0.1-2.4,0.5c0.1-0.1,0.1-0.3,0.1-0.5
					c0.1-0.1,0.2-0.2,0.4-0.2c0.3-0.2,0.7-0.3,1.1-0.3c0.3,0,0.7,0.1,1,0.3c0.4,0.2,0.7,0.6,0.9,1.1
					C393.6,310.5,393.6,311,393.6,311.5z"/>
				<path class="st8" d="M389,316.1c0,0.1,0,0.1-0.1,0.1l-0.2-0.1l0.2-0.2C388.9,316.1,388.9,316.1,389,316.1z"/>
				<path class="st4" d="M388.9,314.1h-0.1l0,0l0,0l0,0H388.9z"/>
				<path class="st8" d="M388.9,316.4c-0.1-0.1-0.1-0.1-0.2-0.2l0.2,0.1C388.9,316.3,388.9,316.4,388.9,316.4z"/>
				<path class="st4" d="M388.7,314.6c0-0.1,0.1-0.2,0.1-0.4l0,0C388.8,314.2,388.8,314.4,388.7,314.6z"/>
				<path class="st8" d="M388.9,316l-0.2,0.2l0.2-0.7l0.3,0.1c-0.1,0.2-0.1,0.4-0.1,0.6C388.9,316.1,388.9,316.1,388.9,316z"/>
				<path class="st6" d="M389,336.9c0,0.1-0.1,0.2-0.2,0.2l0,0c-0.1,0-0.1-0.1-0.2-0.1s-0.2-0.1-0.2-0.1c0.1-0.1,0.2-0.1,0.3-0.1
					v-0.1C388.8,336.8,388.9,336.8,389,336.9z"/>
				<path class="st6" d="M389,336.9c-0.1-0.1-0.2-0.1-0.2-0.1c-0.1-0.1-0.2-0.1-0.4-0.1c0.1,0,0.1-0.1,0.2-0.1
					c0.1-0.1,0.3,0,0.4,0.1C389,336.8,389,336.8,389,336.9z"/>
				<path class="st8" d="M388.7,316.2c0.1,0.1,0.1,0.2,0.2,0.2c0,0.1-0.1,0.2-0.1,0.3c-0.1-0.1-0.2-0.1-0.2-0.2
					c0.1-0.4,0.2-0.7,0.2-1.1L388.7,316.2z"/>
				<path class="st8" d="M388.8,315.5c-0.1,0.4-0.2,0.7-0.2,1.1c-0.1-0.1-0.1-0.1-0.1-0.2l-0.1-0.1l0.1-0.7c0-0.1,0.1-0.1,0.1-0.2
					L388.8,315.5z"/>
				<path class="st8" d="M389.4,309.6h-0.1c-0.1,0.5-0.1,1-0.1,1.5v0.1c0,0.1,0,0.1,0,0.2c0,0.2-0.1,0.4-0.1,0.5
					c-0.1,0.4-0.1,0.8-0.2,1.2l0,0c-0.1,0.2-0.1,0.5-0.1,0.7l0,0l0,0c0,0.1-0.1,0.2-0.1,0.3l0,0c0,0.1-0.1,0.3-0.1,0.4
					c0,0.1,0,0.1,0,0.1v0.1l0,0l-0.1,0.7l-0.1,0.2c-0.9,3.7-2.4,7.4-5.4,9.4c0,0-0.1,0-0.1,0.1l0,0c-1.5,1-3.2,1.5-5.4,1.5
					c-2.2,0-4-0.5-5.4-1.5l-0.1-0.1c-1.2-0.9-2.3-1.9-3-3.2s-1.5-2.7-1.9-4.1c-1-2.9-1.4-6.1-1.6-8.5h-0.3c0.5-0.7,1.9-2.8,2.5-5.5
					h19.1C387.5,306.8,388.9,308.9,389.4,309.6z"/>
				<path class="st8" d="M388.5,315.4l0.1-0.7l0,0v-0.1c0-0.1,0-0.1,0-0.1c0,0.1,0,0.1,0,0.1l0.3,0.1l0,0l-0.1,0.7H388.5
					c0,0.1,0,0.1-0.1,0.2L388.5,315.4z"/>
				<path class="st6" d="M388.7,336.8L388.7,336.8c-0.1,0.1-0.2,0.2-0.3,0.2c-0.1-0.1-0.3-0.1-0.4-0.1c0.1-0.1,0.2-0.1,0.4-0.2
					C388.5,336.7,388.6,336.8,388.7,336.8z"/>
				<path class="st8" d="M383.1,325c3-2,4.6-5.7,5.4-9.4l-0.1,0.7l0.1,0.1c0.1,0.1,0.1,0.1,0.1,0.2c-0.9,3.3-2.4,6.6-5.1,8.5l0,0
					c-0.1-0.1-0.1-0.1-0.2-0.1C383.2,325,383.1,325,383.1,325z"/>
				<path class="st4" d="M383.5,333.1L383.5,333.1l-0.3,0.1L383.5,333.1C383.5,333,383.5,333.1,383.5,333.1z"/>
				<path class="st6" d="M383.5,327c0,0.1,0,0.1-0.1,0.2c-0.1-0.1-0.1-0.1-0.2-0.1V327v-1.3c0.1-0.1,0.1-0.1,0.2-0.1
					c0.1-0.1,0.1-0.1,0.1-0.1L383.5,327L383.5,327z"/>
				<path class="st8" d="M383.5,333l-0.3,0.1v-5.7v-0.1c0.1,0,0.2-0.1,0.2-0.1c0.1,0.1,0.1,0.1,0.1,0.2L383.5,333
					C383.5,333.1,383.5,333,383.5,333z"/>
				<path class="st8" d="M392.8,337.7c0.1,0,0.1,0.1,0.1,0.1C392.9,337.7,392.8,337.7,392.8,337.7c-0.1,0.1-0.1,0.1-0.4,0.2
					c-0.7-0.2-1.9-0.5-3.4-1c0-0.1,0-0.1,0-0.1c-0.1-0.1-0.2-0.2-0.4-0.1c-0.1,0.1-0.1,0.1-0.2,0.1c-2.4-0.9-4.8-2.1-5.2-3.6h0.3
					v-0.1c0.1,0.3,0.2,0.6,0.5,1c0.3,0.3,0.7,0.7,1.2,1c1,0.6,2.3,1.2,3.5,1.6c1.6,0.5,3,0.9,3.7,1.1
					C392.7,337.7,392.8,337.7,392.8,337.7z"/>
				<path class="st8" d="M387.2,321.1c-0.9,1.6-1.9,3-3.7,4.3v-0.1l0,0c0-0.1,0-0.1-0.1-0.2c2.7-1.9,4.3-5.2,5.1-8.5
					c0.1,0.1,0.2,0.2,0.2,0.2C388.4,318.3,387.8,319.8,387.2,321.1z"/>
				<path class="st8" d="M383.2,325.6v-0.4c0.1-0.1,0.2-0.1,0.2-0.2l0,0c0.1,0.1,0.1,0.1,0.1,0.2l0,0v0.1c-0.1,0.1-0.1,0.1-0.1,0.1
					C383.3,325.6,383.3,325.6,383.2,325.6z"/>
				<path class="st6" d="M383.2,327c0.1,0,0.2,0.1,0.2,0.1c-0.1,0.1-0.1,0.1-0.2,0.1c0-0.1,0-0.1,0-0.1V327z"/>
				<path class="st6" d="M383.2,327v0.1c0,0.1,0,0.1,0,0.1l0,0V327L383.2,327z"/>
				<path class="st4" d="M383.2,327.3L383.2,327.3L383.2,327.3L383.2,327.3z"/>
				<path class="st4" d="M383.2,327L383.2,327L383.2,327L383.2,327z"/>
				<path class="st8" d="M383.2,327.3v5.7c0.3,1.5,2.8,2.7,5.2,3.6c-0.1,0.1-0.2,0.1-0.4,0.2c-1.6-0.6-3.3-1.4-4.3-2.4
					c-0.4-0.4-0.6-0.8-0.7-1.3v-0.1v-4.9C383,327.9,383.2,327.6,383.2,327.3z"/>
				<path class="st6" d="M383.2,327.3L383.2,327.3c-0.1,0.4-0.2,0.6-0.3,0.9v-0.8c0-0.1,0-0.1,0.1-0.2
					C383,327.2,383.1,327.3,383.2,327.3z"/>
				<path class="st6" d="M383.2,327v0.2c-0.1,0-0.2-0.1-0.2-0.1C383,327.1,383.1,327,383.2,327z"/>
				<path class="st6" d="M383.2,325.6v1.3l-0.2-1.2C383,325.8,383.1,325.7,383.2,325.6z"/>
				<path class="st8" d="M382.9,325.7L382.9,325.7v-0.2c0.1-0.1,0.2-0.1,0.3-0.2v0.4c-0.1,0.1-0.2,0.1-0.2,0.2L382.9,325.7z"/>
				<path class="st6" d="M383.2,327L383.2,327c-0.1,0.1-0.2,0.1-0.2,0.2c-0.1-0.1-0.1-0.1-0.1-0.2v-1.2h0.1L383.2,327z"/>
				<path class="st8" d="M383.1,325C383,325,383,325,383.1,325C383,325,383,325.1,383.1,325C383,325,383,325,383.1,325z"/>
				<path class="st8" d="M382.9,325.7v0.1c0,0,0,0-0.1,0L382.9,325.7L382.9,325.7z"/>
				<path class="st8" d="M383.2,325.3c-0.1,0.1-0.2,0.1-0.3,0.2v-0.2l0,0c0-0.1,0.1-0.2,0.1-0.2l0,0c0,0,0,0,0.1,0l0,0
					c0.1,0,0.1-0.1,0.1-0.1c0.1,0,0.2,0.1,0.2,0.1C383.3,325.1,383.3,325.2,383.2,325.3z"/>
				<path class="st8" d="M372.3,326.2c0.7,1.3,3,4.7,6.8,4.4c0,0,2.7,0,3.8-2.4v4.9v0.1c0.1,0.5,0.4,0.9,0.7,1.3
					c1,1,2.7,1.8,4.3,2.4c-3.9,1.6-7.4,2.2-10.5,2.2c-3.2,0-5.8-0.6-7.7-1.2c-0.9-0.3-1.6-0.6-2.1-0.9c-0.1-0.1-0.2-0.1-0.3-0.1
					c2.1-1.1,3-1.7,3.6-2.3c0.9-0.7,1.2-1.3,1.2-1.3c0.1-0.1,0.1-0.1,0.1-0.2L372.3,326.2L372.3,326.2z"/>
				<path class="st8" d="M377.6,326.9c-2.1,0-3.9-0.5-5.4-1.5l0,0v-0.2c0-0.1-0.1-0.2-0.1-0.2c1.5,1,3.2,1.5,5.4,1.5
					c2.2,0,4-0.5,5.4-1.5c-0.1,0.1-0.1,0.1-0.1,0.2l0,0v0.2C381.5,326.4,379.8,326.9,377.6,326.9z"/>
				<path class="st8" d="M382.9,325.4v0.2c-0.3,0.2-4.3,2.9-10.7,0.1v-0.3c1.5,0.9,3.2,1.5,5.4,1.5
					C379.8,326.9,381.5,326.4,382.9,325.4z"/>
				<path class="st8" d="M377.6,327.2c-2.1,0-3.9-0.5-5.4-1.4l0,0c6.3,2.7,10.3,0.1,10.7-0.1v0.1
					C381.5,326.7,379.7,327.2,377.6,327.2z"/>
				<path class="st6" d="M372.3,326.2v-0.4c1.5,0.9,3.2,1.4,5.4,1.4c2.1,0,3.8-0.5,5.3-1.4v1.2c0,0.1,0,0.1,0.1,0.2
					c-0.1,0.1-0.1,0.1-0.1,0.2v0.8c-1.2,2.4-3.8,2.4-3.8,2.4C375.2,330.8,373,327.5,372.3,326.2z"/>
				<path class="st4" d="M372.3,325.8L372.3,325.8L372.3,325.8L372.3,325.8z"/>
				<path class="st8" d="M372.3,325.4v0.3h-0.1c-0.1-0.1-0.2-0.1-0.2-0.1v-0.4C372.1,325.3,372.2,325.4,372.3,325.4L372.3,325.4z"/>
				<path class="st8" d="M372.2,325c0.1,0.1,0.1,0.1,0.1,0.2v0.2c-0.1-0.1-0.2-0.1-0.3-0.2c-0.1-0.1-0.2-0.1-0.2-0.2
					c0.1-0.1,0.1-0.1,0.2-0.1c0.1,0,0.1,0,0.1,0.1C372.1,325,372.2,325,372.2,325z"/>
				<path class="st6" d="M372.3,325.8v0.4c-0.2-0.3-0.2-0.5-0.2-0.5C372.1,325.7,372.1,325.8,372.3,325.8
					C372.3,325.8,372.3,325.8,372.3,325.8z"/>
				<path class="st4" d="M372,333.1h-0.3V333c0-0.1,0.1-0.1,0.1-0.1l0,0L372,333.1z"/>
				<path class="st8" d="M371.7,325.3c0-0.1,0-0.1,0.1-0.2c0.1,0.1,0.2,0.1,0.2,0.2v0.4c-0.1-0.1-0.1-0.1-0.2-0.1
					c-0.1-0.1-0.1-0.1-0.1-0.1V325.3z"/>
				<path class="st8" d="M371.8,325.5c0.1,0.1,0.1,0.1,0.2,0.1v7.5l-0.2-0.2l0,0c0,0,0,0.1-0.1,0.1v-7.6
					C371.7,325.4,371.8,325.4,371.8,325.5z"/>
				<path class="st8" d="M367.1,336.7c3.5-1.5,4.9-3.6,4.9-3.6v-7.5c0.1,0.1,0.2,0.1,0.2,0.1c-0.1,0-0.1-0.1-0.2-0.1
					c0,0,0.1,0.2,0.2,0.5v6.9c0,0.1,0,0.1-0.1,0.2c0,0-0.4,0.6-1.2,1.3c-0.6,0.5-1.5,1.2-3.6,2.3c-0.1-0.1-0.2-0.1-0.2-0.1
					C367.2,336.7,367.1,336.7,367.1,336.7z"/>
				<path class="st6" d="M369.8,337.8c1.8,0.6,4.4,1.2,7.7,1.2c3,0,6.6-0.5,10.5-2.2c0.1,0.1,0.3,0.1,0.4,0.1
					c-11.1,4.8-19.8,0.8-21.3,0c0.1-0.1,0.2-0.1,0.4-0.2c0.1,0.1,0.2,0.1,0.3,0.1C368.2,337.2,368.9,337.5,369.8,337.8z"/>
				<path class="st6" d="M367.1,337c1.5,0.8,10.2,4.7,21.3,0c0.1,0,0.2,0.1,0.2,0.1c0.1,0,0.1,0.1,0.2,0.1c-4.2,1.8-8,2.5-11.3,2.5
					c-6.2,0-10.3-2.3-10.8-2.4c0.1,0,0.1-0.1,0.2-0.1C367,337.1,367,337,367.1,337z"/>
				<path class="st6" d="M367.2,336.7c0.1,0.1,0.1,0.1,0.2,0.1c-0.1,0.1-0.2,0.1-0.4,0.2c-0.2-0.1-0.2-0.1-0.2-0.1l-0.1-0.1
					c0.1-0.1,0.2-0.1,0.3-0.1C367.1,336.7,367.2,336.7,367.2,336.7z"/>
				<path class="st6" d="M366.7,337.1c-0.1-0.1-0.1-0.1-0.1-0.2c0.1-0.1,0.2-0.1,0.2-0.1l0.1,0.1c0,0,0.1,0.1,0.2,0.1
					c-0.1,0-0.1,0.1-0.2,0.1C366.8,337.1,366.8,337.1,366.7,337.1L366.7,337.1z"/>
				<path class="st6" d="M367.1,336.7c-0.1,0.1-0.2,0.1-0.3,0.1c-0.1,0.1-0.2,0.1-0.2,0.1c0-0.1,0-0.1,0.1-0.2
					C366.7,336.6,366.8,336.6,367.1,336.7L367.1,336.7C367,336.6,367.1,336.6,367.1,336.7z"/>
				<path class="st6" d="M366.7,337.1c-0.9,0.4-1.9,0.7-3,0.9c-0.1-0.1-0.2-0.1-0.4-0.2c1.2-0.2,2.3-0.5,3.2-0.9
					C366.5,337,366.6,337.1,366.7,337.1C366.7,337.1,366.7,337.1,366.7,337.1z"/>
				<path class="st4" d="M367.8,303.7c-0.6,2.7-2,4.8-2.5,5.5c-0.2-2.4-0.1-4-0.1-4s-0.7-12.8,12.8-12.8c12.6,0,11.5,12.8,11.5,12.8
					s0.1,1.5,0,3.7l0,0c0,0.2,0,0.4,0,0.5h-0.2c-0.5-0.7-1.9-2.7-2.5-5.8H367.8z"/>
				<path class="st8" d="M371.7,325.1c-4.8-3.5-6.1-11.1-6.5-15.8h0.3c0.2,2.4,0.5,5.5,1.6,8.5c0.5,1.5,1.2,2.9,1.9,4.1
					c0.8,1.2,1.8,2.3,3,3.2c-0.1,0-0.1-0.1-0.1-0.1C371.9,325,371.8,325,371.7,325.1z"/>
				<path class="st8" d="M365.3,309.3c0.3,4.7,1.6,12.4,6.5,15.8c-0.1,0.1-0.1,0.1-0.1,0.2v0.1c-2.5-1.8-4.1-4.6-5.1-7.5
					c-0.9-2.8-1.3-5.7-1.5-8c0.1,0.1,0.1,0.2,0.1,0.2l0.1-0.6C365.2,309.4,365.3,309.4,365.3,309.3z"/>
				<path class="st4" d="M365.3,309.3c-0.1,0.1-0.1,0.2-0.1,0.2l-0.1,0.6c0,0,0-0.1-0.1-0.2c0-0.2-0.1-0.4-0.1-0.6H365.3z"/>
				<path class="st5" d="M390,309.3c-0.1,0.1-0.2,0.2-0.3,0.3l-0.1-0.5l0,0c0.1-2.2,0-3.7,0-3.7s1-12.8-11.5-12.8
					c-13.5,0-12.8,12.8-12.8,12.8s-0.1,1.6,0.1,4H365c0,0.2,0,0.4,0.1,0.6c-0.5-1.6-3.5-13.7,6-18.4c2.3-1.2,4.4-1.6,6.4-1.5
					c1.9-0.1,4.1,0.4,6.4,1.5C392.5,295.8,390.8,306.3,390,309.3z"/>
				<path class="st6" d="M363.7,338.1c4.9,3.1,9.6,4.1,13.8,4.1c3.6,0,6.8-0.7,9.3-1.6c2.3-0.8,4-1.7,5.2-2.5
					c0.2,0.1,0.3,0.1,0.4,0.1c-0.1,0-0.1,0.1-0.1,0.1c-3,1.9-15.5,8.6-29-0.1C363.4,338.2,363.6,338.1,363.7,338.1z"/>
				<path class="st6" d="M363.7,338.1c-0.1,0.1-0.3,0.1-0.4,0.1c-0.1-0.1-0.1-0.1-0.1-0.1l0.1-0.2h0.1
					C363.4,337.9,363.6,338,363.7,338.1z"/>
				<path class="st6" d="M363.3,337.9L363.3,337.9C363.3,337.9,363.3,337.9,363.3,337.9C363.3,337.9,363.3,337.9,363.3,337.9z"/>
				<path class="st6" d="M363.3,337.8L363.3,337.8C363.3,337.9,363.3,337.9,363.3,337.8L363.3,337.8L363.3,337.8z"/>
				<path class="st6" d="M363.3,337.9l-0.1,0.2L363.3,337.9L363.3,337.9z"/>
				<path class="st6" d="M363.3,337.9l-0.1,0.2c-0.1-0.1-0.2-0.1-0.3-0.1C363,337.9,363.1,337.9,363.3,337.9z"/>
				<path class="st6" d="M362.8,337.7c0.1,0,0.3,0.1,0.4,0.2v0.1c-0.1,0.1-0.3,0.1-0.5,0.1L362.8,337.7z"/>
				<path class="st6" d="M362.8,337.7L362.8,337.7L362.8,337.7L362.8,337.7z"/>
				<path class="st8" d="M372,333.1c0,0-1.4,2.1-4.9,3.6c0,0-0.1,0-0.1-0.1h-0.1c-0.1-0.1-0.3-0.1-0.4,0.1c-0.1,0.1-0.1,0.1-0.1,0.2
					c-0.9,0.4-2,0.7-3.2,0.9c0,0,0,0-0.1,0l0,0c-0.1-0.1-0.3-0.1-0.4-0.2l0,0h-0.1c1.5-0.3,2.8-0.7,3.9-1.1c3.2-1.3,4.7-3.2,5-3.5
					v0.1L372,333.1L372,333.1z"/>
				<path class="st6" d="M362.8,337.7l-0.1,0.3L362.8,337.7L362.8,337.7z"/>
				<path class="st6" d="M362.8,337.6C362.8,337.6,362.8,337.7,362.8,337.6L362.8,337.6v0.3V337.6L362.8,337.6L362.8,337.6
					L362.8,337.6z"/>
				<path class="st6" d="M362.8,338.2c0.1,0,0.3-0.1,0.4-0.1c13.5,8.7,25.9,2,29,0.1c0.1-0.1,0.1-0.1,0.1-0.1
					c0.2,0.1,0.3,0.1,0.3,0.1c0.2,0.1,0.3-0.1,0.4-0.2c0.2,0,0.5,0.1,0.7,0.2c2.9,1.6,12.5,8,12.7,17.8c-0.1,0-0.1,0-0.3,0
					c-0.1-4.7-2.4-8.6-5.2-11.6c-1.4-1.5-2.9-2.8-4.2-3.8c-1.3-1-2.4-1.7-3.2-2.1c-0.2-0.1-0.4-0.2-0.6-0.2c-0.1,0-0.1,0-0.2,0
					c-0.1,0-0.3,0.1-0.4,0.2l0,0c-1.9,1.2-7.6,4.3-14.9,4.3c-2.2,0-4.6-0.3-7-1C368,341.1,365.4,340,362.8,338.2c0,0-0.1,0-0.1,0
					L362.8,338.2L362.8,338.2z"/>
				<path class="st6" d="M362.8,337.9l-0.1-0.3l0,0l0,0l0,0L362.8,337.9L362.8,337.9z"/>
				<path class="st6" d="M363.3,338.2c-0.1,0-0.3,0.1-0.4,0.1h-0.1l0,0l0,0l0,0c0,0,0,0-0.1,0c-0.1-0.1-0.2-0.1-0.2-0.3
					c0.1,0,0.2,0,0.3,0s0.2,0.1,0.3,0.1C363.1,338.1,363.2,338.1,363.3,338.2z"/>
				<path class="st6" d="M362.8,338.2L362.8,338.2L362.8,338.2z"/>
				<path class="st6" d="M362.8,337.7l0.1,0.3c-0.1,0-0.2,0-0.3,0l0,0C362.5,337.8,362.6,337.7,362.8,337.7z"/>
				<path class="st6" d="M362.7,338.2C362.7,338.2,362.8,338.2,362.7,338.2C362.8,338.2,362.8,338.2,362.7,338.2
					C362.8,338.2,362.8,338.2,362.7,338.2c0.1,0,0.2,0.1,0.2,0.1c2.6,1.7,5.1,2.8,7.5,3.5c2.4,0.7,4.8,1,7,1c7.3,0,13-3.1,14.9-4.3
					l0,0c0.1-0.1,0.3-0.1,0.4-0.2c0.1,0,0.1,0,0.2,0c0.2,0,0.4,0.1,0.6,0.2c0.7,0.4,1.9,1.2,3.2,2.1c1.3,1,2.8,2.3,4.2,3.8
					c2.7,3,5.1,6.9,5.2,11.6c-3-0.1-26.5-0.3-42.4-0.3c-4.1,0-7.7,0-10.3,0.1c-1.3,0-2.4,0.1-3,0.1c-0.4,0-0.6,0.1-0.9,0.1
					c0.1-4.9,2.7-8.9,5.6-12c2.9-3,6.2-5,7.3-5.7l0,0C362.5,338.2,362.6,338.2,362.7,338.2L362.7,338.2z"/>
				<path class="st6" d="M362.1,337.8c0.2-0.1,0.4-0.1,0.5-0.1c0.1,0,0.1,0,0.1,0l0,0l0,0l0,0c-0.1,0-0.2,0.1-0.2,0.3l0,0
					c-0.1,0-0.1,0.1-0.2,0.1V338l-0.1-0.1L362.1,337.8z"/>
				<path class="st6" d="M362.2,337.9L362.2,337.9L362.2,337.9z"/>
				<path class="st6" d="M362.1,337.8l0.1,0.1L362.1,337.8L362.1,337.8z"/>
				<path class="st6" d="M406.2,356.3c-4.3-0.1-52.4-0.6-56.7-0.1c0-0.1,0-0.2,0-0.3c0.2,0,0.5-0.1,0.9-0.1c0.7-0.1,1.8-0.1,3-0.1
					c2.6-0.1,6.2-0.1,10.3-0.1c15.9,0,39.4,0.2,42.4,0.3C406.2,356.1,406.2,356.2,406.2,356.3z"/>
				<path class="st6" d="M393.8,338.2c-0.2-0.1-0.4-0.2-0.7-0.2l0,0c0-0.1,0-0.2-0.1-0.3c0,0,0,0,0.1,0c0.3,0,0.6,0.1,0.9,0.2l0,0
					c1.5,0.9,4.7,2.9,7.5,6c2.9,3.1,5.4,7.2,5.4,12.4c0,0.1-0.1,0.2-0.1,0.2c-0.1,0.1-0.1,0.1-0.2,0.1c0,0-0.4,0-1.2,0
					s-1.8,0-3.2-0.1c-2.7-0.1-6.4-0.1-10.7-0.1c-8.5-0.1-19.2-0.1-27.7-0.1c-3.5,0-6.6,0-9,0.1c-2.4,0.1-4.2,0.1-5.1,0.1
					c-0.2,0-0.3,0-0.4,0.1l0,0c0,0,0-0.1,0.1-0.1l0,0v-0.1l0,0v-0.1l0,0v-0.1l0,0v-0.1c4.3-0.5,52.4,0.1,56.7,0.1l0,0h0.3l0,0V356
					l0,0C406.2,346.2,396.6,339.9,393.8,338.2z"/>
				<path class="st6" d="M349.5,356.2L349.5,356.2C349.5,356.2,349.5,356.2,349.5,356.2L349.5,356.2z"/>
				<path class="st6" d="M362.4,338.3c-1.2,0.7-4.4,2.6-7.3,5.7c-2.9,3-5.4,7.1-5.6,12l0,0c-0.1,0-0.2,0-0.2,0.1l0,0
					c0.2-10.2,10.8-16.7,13.1-18c0.1-0.1,0.1-0.1,0.2-0.1c0,0.1,0.1,0.2,0.2,0.3h-0.1C362.6,338.2,362.5,338.2,362.4,338.3
					L362.4,338.3z"/>
				<path class="st6" d="M349.4,356.5L349.4,356.5C349.4,356.5,349.4,356.5,349.4,356.5C349.4,356.5,349.4,356.5,349.4,356.5z"/>
				<path class="st6" d="M349.4,356.5L349.4,356.5L349.4,356.5C349.4,356.5,349.4,356.5,349.4,356.5L349.4,356.5L349.4,356.5
					L349.4,356.5L349.4,356.5L349.4,356.5L349.4,356.5C349.4,356.5,349.4,356.5,349.4,356.5L349.4,356.5L349.4,356.5L349.4,356.5
					L349.4,356.5L349.4,356.5L349.4,356.5C349.4,356.4,349.4,356.4,349.4,356.5L349.4,356.5C349.5,356.4,349.5,356.4,349.4,356.5
					C349.5,356.4,349.5,356.4,349.4,356.5C349.5,356.4,349.4,356.4,349.4,356.5z"/>
				<path class="st6" d="M349.4,356.5L349.4,356.5L349.4,356.5L349.4,356.5z"/>
				<path class="st6" d="M349.4,356.5L349.4,356.5L349.4,356.5L349.4,356.5L349.4,356.5L349.4,356.5z"/>
				<polygon class="st6" points="349.3,356.5 349.3,356.5 349.4,356.5 				"/>
				<polygon class="st6" points="349.3,356.5 349.3,356.5 349.3,356.5 				"/>
				<polygon class="st6" points="349.3,356.5 349.3,356.5 349.3,356.4 349.3,356.4 349.4,356.5 349.4,356.5 349.4,356.5 
					349.4,356.5 349.3,356.5 				"/>
				<path class="st6" d="M349.3,356.6L349.3,356.6L349.3,356.6z"/>
				<path class="st6" d="M349.2,356.3c0-0.1,0-0.2,0-0.3l0,0l0,0c0.1,0,0.1,0.1,0.2,0.1c0.1,0.1,0.1,0.1,0.1,0.1
					C349.3,356.2,349.2,356.2,349.2,356.3z"/>
				<path class="st6" d="M349.3,356.4L349.3,356.4l-0.1-0.1l0.2,0.1l0,0c0,0,0,0,0,0.1l0,0l0,0l0,0l0,0l0,0l0,0l0,0l0,0L349.3,356.4
					L349.3,356.4z"/>
				<path class="st6" d="M349.5,355.9c0,0.1,0,0.2,0,0.3l0,0c0-0.1-0.1-0.1-0.1-0.1c-0.1-0.1-0.1-0.1-0.2-0.1l0,0l0,0l0,0l0,0
					C349.3,355.9,349.4,355.9,349.5,355.9L349.5,355.9z"/>
				<path class="st6" d="M349.2,356c-0.1,0-0.1,0-0.1,0l0,0H349.2L349.2,356L349.2,356z"/>
				<path class="st6" d="M349,356.1L349,356.1C349.1,356,349,356.1,349,356.1L349,356.1z"/>
				<path class="st6" d="M349,356.2C349,356.1,349,356.1,349,356.2L349,356.2c0.1-0.1,0.1-0.1,0.2-0.1c0.1,0,0.1,0,0.1,0l0,0
					c0,0.1,0,0.2,0,0.3H349v-0.1l0,0C348.9,356.2,349,356.2,349,356.2z"/>
				<path class="st6" d="M349,356.1L349,356.1C349,356.1,349,356.1,349,356.1z"/>
				<path class="st4" d="M349,356.4L349,356.4L349,356.4C349,356.5,349,356.5,349,356.4c0.1,0.1,0.1,0.1,0.1,0.1l0,0l0,0l0,0
					c0,0,0,0,0.1,0l0,0c0,0,0,0,0.1,0h0.1l0,0c0,0,0,0,0.1,0c0,0,0,0,0.1,0l0,0h0.1l0,0l0,0c-0.1,0.1-0.1,0.1-0.2,0.1
					s-0.2-0.1-0.2-0.1C349,356.5,349,356.4,349,356.4C349,356.4,349,356.4,349,356.4L349,356.4z"/>
				<path class="st6" d="M348.9,356.2L348.9,356.2C349,356.2,348.9,356.2,348.9,356.2z"/>
				<path class="st6" d="M348.9,356.4L348.9,356.4L348.9,356.4L348.9,356.4z"/>
				<path class="st4" d="M348.9,356.4L348.9,356.4L348.9,356.4L348.9,356.4z"/>
				<path class="st6" d="M354.7,343.5c3-3.1,6.3-5.1,7.5-5.8l0.1,0.1l0.1,0.1v0.1c-2.3,1.3-12.8,7.7-13.1,18l-0.1,0.1l0,0H349
					c0,0-0.1,0-0.1,0.1l0,0l-0.1,0.1v0.1l0,0v0.1C348.9,351,351.6,346.7,354.7,343.5z"/>
				<path class="st6" d="M349,356.5C349,356.4,349,356.4,349,356.5C348.9,356.4,348.9,356.4,349,356.5L349,356.5L349,356.5
					L349,356.5l-0.1-0.1l0,0h0.3c0,0,0.1-0.1,0.3-0.1v0.1l0,0v0.1l0,0v0.1l0,0l-0.2-0.2l0.1,0.1l0.1,0.1v0.1l0,0l0,0l0,0h-0.1l0,0
					c0,0,0,0-0.1,0c0,0,0,0-0.1,0l0,0h-0.1c0,0,0,0-0.1,0l0,0L349,356.5L349,356.5C349,356.5,349,356.5,349,356.5
					C349,356.5,349,356.5,349,356.5C349,356.5,349,356.5,349,356.5L349,356.5L349,356.5z"/>
			</g>
		</g>
	</g>
	<g>
		<g>
			<path class="st9" d="M379.8,315.2c-0.2,0.5-1.6,1-2.3,1c-0.5,0-1.8-0.2-2.1-0.9"/>
		</g>
	</g>
	<g>
		<g>
			<path class="st4" d="M387.6,307.7c-0.5-0.2-2.1-0.9-2.9-1c-1.2-0.2-4.1-0.4-4.1-0.4c-0.5-0.4-0.7-1.2-0.5-1.2
				c0.8,0.3,5.1,0.6,5.7,0.9C386.1,306.2,387.7,307.6,387.6,307.7z"/>
		</g>
	</g>
	<g>
		<g>
			<path class="st4" d="M367.9,307.2c0.5-0.2,2.2-0.8,2.9-0.9c1.2-0.1,4.1-0.2,4.1-0.2c0.6-0.4,0.8-1.2,0.6-1.2
				c-1,0.3-5.1,0.4-5.8,0.7C369.4,305.8,367.8,307.1,367.9,307.2z"/>
		</g>
	</g>
	<path class="st4" d="M380.2,311.6L380.2,311.6c0.4-1,1.4-1.5,3.1-1.6c1.2-0.1,2.4,0.5,2.4,0.5c-0.4,0.1-0.5,0.2-0.7,0.4
		c0.5-0.4,1.1-0.2,1.3,0c0,0-0.8,0.1-1,0.5C382.8,310.1,380.2,311.6,380.2,311.6z"/>
	<path class="st4" d="M375.4,311.6L375.4,311.6c-0.4-1-1.4-1.5-3.1-1.6c-1.2-0.1-2.4,0.5-2.4,0.5c0.4,0.1,0.5,0.2,0.7,0.4
		c-0.5-0.4-1.1-0.2-1.3,0c0,0,0.8,0.1,1,0.5C372.8,310.1,375.4,311.6,375.4,311.6z"/>
	<ellipse class="st4" cx="365" cy="333.3" rx="4.8" ry="5.9"/>
	<path class="st4" d="M372,335.5c0,2.5-1.6,4.5-3.7,4.5s-3.7-2-3.7-4.5s1.6-4.5,3.7-4.5C370.3,330.9,372,333,372,335.5z"/>
	<ellipse class="st4" cx="366.1" cy="341.4" rx="2.9" ry="3.5"/>
	<path class="st4" d="M368.4,347.1c0,1.9-2.3,6.6-2.3,6.6s-2.1-4.6-2.1-6.6s1-3.5,2.2-3.5C367.4,343.6,368.4,345.2,368.4,347.1z"/>
	<path class="st7" d="M379.3,321.2l-2.8,0.5c-0.7,0-2.3-1.7-2.3-1.7c0-0.7,0.2-1.1,0.9-1.1h5.1c0.7,0,1,0.4,1,1.1
		C381.3,320,380,321.2,379.3,321.2z"/>
	<g>
		<g>
			<path class="st4" d="M382,319.4c-0.5-0.1-2.7-1.3-3.4-1c-0.4,0.2-1,0.2-1.5,0c-0.5-0.2-3.2,1-3.3,1.2c1.3,0,2.7-0.4,4-0.4
				C379.4,319.2,381,319.7,382,319.4z"/>
		</g>
	</g>
	<g>
		<g>
			<path class="st4" d="M377.7,323c1.4-0.1,3.2-1.5,4.1-3.5c-1.3,0.2-2.5,2.1-4.2,2.1c-1.9,0-3-1.9-4-1.9
				C374.9,322.1,376.3,323,377.7,323z"/>
		</g>
	</g>
</g>
<line class="st10" x1="404.7" y1="216.7" x2="388" y2="279"/>
<line class="st10" x1="329.1" y1="326.3" x2="243.5" y2="326.3"/>
<line class="st10" x1="169.4" y1="281.7" x2="154.4" y2="217.4"/>
<line class="st10" x1="183.4" y1="128.9" x2="237.9" y2="82.4"/>
<line class="st10" x1="329.2" y1="82.4" x2="388.9" y2="126.2"/>
<path class="st3" d="M186.6,197.3"/>
</svg>
