<?xml version="1.0" encoding="utf-8"?>
<!-- Generator: Adobe Illustrator 23.0.4, SVG Export Plug-In . SVG Version: 6.00 Build 0)  -->
<svg version="1.1" id="Camada_1" xmlns="http://www.w3.org/2000/svg" xmlns:xlink="http://www.w3.org/1999/xlink" x="0px" y="0px"
	 viewBox="0 0 142.3 201.9" style="enable-background:new 0 0 142.3 201.9;" xml:space="preserve">
<style type="text/css">
	.st0{fill:#FFAE03;}
	.st1{fill:#E9190F;}
	.st2{fill:#FE4E00;}
	.st3{fill:#FF0F80;}
	.st4{fill:#E67F0D;}
	.st5{fill:#FFFFFF;}
	.st6{font-family:'Montserrat-Medium';}
	.st7{font-size:4.6453px;}
</style>
<g>
	<polygon class="st0" points="85,71.4 32.5,71.4 32.5,47.9 33.5,47.9 33.5,70.4 85,70.4 	"/>
</g>
<g>
	<g>
		<polygon class="st1" points="85,142.4 32.5,142.4 32.5,118.9 33.5,118.9 33.5,141.4 85,141.4 		"/>
	</g>
</g>
<g>
	<g>
		<polygon class="st2" points="91.5,110.4 39,110.4 39,109.4 90.5,109.4 90.5,86.9 91.5,86.9 		"/>
	</g>
</g>
<g>
	<g>
		<polygon class="st3" points="91.5,173.4 39,173.4 39,172.4 90.5,172.4 90.5,149.9 91.5,149.9 		"/>
	</g>
</g>
<g>
	<polygon class="st0" points="42.7,20.2 22.4,20.2 12.2,37.8 22.4,55.4 42.7,55.4 52.9,37.8 	"/>
</g>
<g>
	<polygon class="st4" points="100.8,53.6 80.5,53.6 70.4,71.2 80.5,88.8 100.8,88.8 111,71.2 	"/>
</g>
<g>
	<polygon class="st1" points="100.8,124.3 80.5,124.3 70.4,141.9 80.5,159.5 100.8,159.5 111,141.9 	"/>
</g>
<g>
	<polygon class="st2" points="42.7,91.9 22.4,91.9 12.2,109.5 22.4,127.1 42.7,127.1 52.9,109.5 	"/>
</g>
<g>
	<polygon class="st3" points="42.7,155.7 22.4,155.7 12.2,173.3 22.4,190.9 42.7,190.9 52.9,173.3 	"/>
</g>
<text transform="matrix(1 0 0 1 24.5459 36.3945)"><tspan x="0" y="0" class="st5 st6 st7">Quero </tspan><tspan x="-2.9" y="5.6" class="st5 st6 st7">trabalhar</tspan></text>
<text transform="matrix(1 0 0 1 82.6826 140.4858)"><tspan x="0" y="0" class="st5 st6 st7">Quero </tspan><tspan x="-0.7" y="5.6" class="st5 st6 st7">ensinar</tspan></text>
<text transform="matrix(1 0 0 1 24.5459 168.7895)"><tspan x="0" y="0" class="st5 st6 st7">Quero </tspan><tspan x="-0.6" y="5.6" class="st5 st6 st7">dar um</tspan><tspan x="-3" y="11.1" class="st5 st6 st7">feedback</tspan></text>
<text transform="matrix(1 0 0 1 24.5459 108.122)"><tspan x="0" y="0" class="st5 st6 st7">Quero </tspan><tspan x="2.6" y="5.6" class="st5 st6 st7">doar</tspan></text>
<text transform="matrix(1 0 0 1 82.6826 66.6982)"><tspan x="0" y="0" class="st5 st6 st7">Quero </tspan><tspan x="1.6" y="5.6" class="st5 st6 st7">fazer </tspan><tspan x="-1.7" y="11.1" class="st5 st6 st7">parceria</tspan></text>
</svg>
