<?xml version="1.0" encoding="utf-8"?>
<!-- Generator: Adobe Illustrator 23.0.4, SVG Export Plug-In . SVG Version: 6.00 Build 0)  -->
<svg version="1.1" id="Camada_1" xmlns="http://www.w3.org/2000/svg" xmlns:xlink="http://www.w3.org/1999/xlink" x="0px" y="0px"
	 viewBox="0 0 464 412.9" style="enable-background:new 0 0 464 412.9;" xml:space="preserve">
<style type="text/css">
	.st0{fill:#EBB450;}
	.st1{fill:#DA3267;}
	.st2{fill:#990066;}
	.st3{fill:#4578D7;}
	.st4{fill:#6DA4FC;}
	.st5{fill:#000111;}
	.st6{fill:#FFFFFF;}
	.st7{font-family:'Poppins-Regular';}
	.st8{font-size:18.9414px;}
</style>
<g>
	<g>
		<g>
		</g>
	</g>
	<g>
	</g>
</g>
<g>
	<path class="st0" d="M219.5,263.2c-0.5,0.5-1.1,1-1.6,1.4c-21.1,17.7-47.3,25.5-72.8,24c2.4,12.5,7.9,24.7,16.7,35.2
		c27.4,32.6,76,36.9,108.6,9.5c11.5-9.6,19.4-21.8,23.7-35.1C266.7,295.5,240.3,283.7,219.5,263.2z"/>
	<path class="st1" d="M402.1,94.5c-44.2-52.7-122.7-59.6-175.3-15.4c-7.1,5.9-13.3,12.5-18.8,19.6c8.3,5.4,16,12.2,22.7,20.2
		c20.7,24.6,27.9,56.1,22.5,85.4c10,4.6,19.2,11.5,26.8,20.5c17.8,21.2,22.2,49.1,14.2,73.6c32.3,3.3,65.7-5.9,92.5-28.4
		C439.4,225.7,446.3,147.2,402.1,94.5z"/>
	<path class="st2" d="M280,224.7c-7.6-9-16.8-15.9-26.8-20.5c-4.1,22.2-15.4,43.1-33.7,59c20.7,20.4,47.2,32.2,74.6,35
		C302.1,273.8,297.7,245.9,280,224.7z"/>
	<path class="st3" d="M171.3,215.1c4.7-3.9,9.6-7.1,14.8-9.8c-9.3-36.5-1.7-76.1,21.9-106.7C170.8,74.3,120.7,76,84.9,106
		c-43.8,36.7-49.5,102-12.8,145.8c19,22.7,45.7,35.1,73,36.8C140.1,262.1,149.1,233.7,171.3,215.1z"/>
	<path class="st4" d="M217.9,264.6c0.6-0.5,1.1-1,1.6-1.4c-2.8-2.8-5.6-5.7-8.2-8.8c-12.4-14.8-20.7-31.5-25.2-49
		c-5.2,2.6-10.2,5.9-14.8,9.8c-22.2,18.6-31.2,47-26.2,73.5C170.6,290.2,196.8,282.4,217.9,264.6z"/>
	<path class="st4" d="M186.1,205.4c21.2-10.7,45.9-10.9,67-1.2c5.4-29.3-1.8-60.7-22.5-85.4c-6.7-8-14.4-14.7-22.7-20.2
		C184.5,129.3,176.8,168.8,186.1,205.4z"/>
	<path class="st5" d="M186.1,205.4c4.5,17.5,12.8,34.3,25.2,49c2.6,3.1,5.3,6,8.2,8.8c18.2-15.9,29.6-36.9,33.7-59
		C232.1,194.5,207.3,194.7,186.1,205.4z"/>
</g>
<g>
	<g>
		<g>
			<path class="st6" d="M212.7,207.5v4.9h4.9v2.9h-4.9v4.9h-3v-4.9h-4.8v-2.9h4.9v-4.9H212.7z"/>
		</g>
	</g>
	<g>
		<g>
			<path class="st6" d="M206.8,230c3.4,2.6,8,4.4,14.4,4.4c6.2,0,10.8-1.9,14.3-4.4v2.5c-2.9,2.2-7.4,4.6-14.3,4.6
				c-6.9,0-11.5-2.3-14.4-4.6C206.8,232.4,206.8,230,206.8,230z"/>
		</g>
	</g>
</g>
<g>
	<text transform="matrix(1 0 0 1 71.3076 177.6555)"><tspan x="0" y="0" class="st6 st7 st8">Políticas</tspan><tspan x="0" y="22.7" class="st6 st7 st8">públicas</tspan></text>
</g>
<g>
	<text transform="matrix(1 0 0 1 323.4609 172.052)"><tspan x="0" y="0" class="st6 st7 st8">Técnico/</tspan><tspan x="0" y="22.7" class="st6 st7 st8">Infra</tspan></text>
</g>
<text transform="matrix(1 0 0 1 165.4434 318.0735)" class="st6 st7 st8">Pedagógico</text>
</svg>
