<?xml version="1.0" encoding="utf-8"?>
<!-- Generator: Adobe Illustrator 23.0.4, SVG Export Plug-In . SVG Version: 6.00 Build 0)  -->
<svg version="1.1" id="Camada_1" xmlns="http://www.w3.org/2000/svg" xmlns:xlink="http://www.w3.org/1999/xlink" x="0px" y="0px"
	 viewBox="0 0 80 80" style="enable-background:new 0 0 80 80;" xml:space="preserve">
<style type="text/css">
	.st0{fill:url(#SVGID_1_);}
	.st1{fill:url(#SVGID_2_);}
	.st2{fill:url(#SVGID_3_);}
	.st3{fill:url(#SVGID_4_);}
</style>
<g>
	<radialGradient id="SVGID_1_" cx="39.66" cy="39.2755" r="5.5468" gradientUnits="userSpaceOnUse">
		<stop  offset="0" style="stop-color:#3C3C3C"/>
		<stop  offset="0.7821" style="stop-color:#000000"/>
	</radialGradient>
	<path class="st0" d="M39.7,33.7c-3.1,0-5.5,2.5-5.5,5.6c0,3.1,2.5,5.5,5.5,5.5c3.1,0,5.6-2.5,5.6-5.5
		C45.2,36.2,42.7,33.7,39.7,33.7z"/>
	<radialGradient id="SVGID_2_" cx="39.6552" cy="39.2804" r="13.6394" gradientUnits="userSpaceOnUse">
		<stop  offset="0" style="stop-color:#3C3C3C"/>
		<stop  offset="0.7821" style="stop-color:#000000"/>
	</radialGradient>
	<path class="st1" d="M52.6,29.5c-0.3-0.8-0.7-1.3-1.2-1.9c-0.6-0.6-1.1-0.9-1.9-1.2c-0.6-0.2-1.5-0.5-3.1-0.6
		c-1.8-0.1-2.3-0.1-6.7-0.1c-4.4,0-5,0-6.7,0.1c-1.6,0.1-2.5,0.3-3.1,0.6c-0.8,0.3-1.3,0.7-1.9,1.2c-0.6,0.6-0.9,1.1-1.2,1.9
		c-0.2,0.6-0.5,1.5-0.6,3.1C26,34.3,26,34.8,26,39.3c0,4.4,0,5,0.1,6.7c0.1,1.6,0.4,2.5,0.6,3.1c0.3,0.8,0.7,1.3,1.2,1.9
		c0.6,0.6,1.1,0.9,1.9,1.2c0.6,0.2,1.5,0.5,3.1,0.6c1.8,0.1,2.3,0.1,6.7,0.1c4.4,0,5,0,6.7-0.1c1.6-0.1,2.5-0.3,3.1-0.6
		c0.8-0.3,1.3-0.7,1.9-1.2c0.6-0.6,0.9-1.1,1.2-1.9c0.2-0.6,0.5-1.5,0.6-3.1c0.1-1.8,0.1-2.3,0.1-6.7c0-4.4,0-5-0.1-6.7
		C53.1,30.9,52.9,30.1,52.6,29.5z M39.7,47.8c-4.7,0-8.5-3.8-8.5-8.5c0-4.7,3.8-8.5,8.5-8.5s8.5,3.8,8.5,8.5
		C48.2,44,44.4,47.8,39.7,47.8z M48.5,32.4c-1.1,0-2-0.9-2-2c0-1.1,0.9-2,2-2c1.1,0,2,0.9,2,2C50.5,31.5,49.6,32.4,48.5,32.4z"/>
	<radialGradient id="SVGID_3_" cx="39.6552" cy="39.2804" r="30.3435" gradientUnits="userSpaceOnUse">
		<stop  offset="0" style="stop-color:#3C3C3C"/>
		<stop  offset="0.7821" style="stop-color:#000000"/>
	</radialGradient>
	<path class="st2" d="M61.1,17.8C55.6,12.3,48,8.9,39.7,8.9c-8.4,0-16,3.4-21.5,8.9c-5.5,5.5-8.9,13.1-8.9,21.5
		c0,16.8,13.6,30.3,30.3,30.3c8.4,0,16-3.4,21.5-8.9c5.5-5.5,8.9-13.1,8.9-21.5C70,30.9,66.6,23.3,61.1,17.8z M56.2,46.1
		c-0.1,1.8-0.4,3-0.8,4c-0.4,1.1-1,2-1.9,2.9c-0.9,0.9-1.9,1.5-2.9,1.9c-1.1,0.4-2.3,0.7-4,0.8c-1.8,0.1-2.3,0.1-6.9,0.1
		c-4.5,0-5.1,0-6.9-0.1c-1.8-0.1-3-0.4-4-0.8c-1.1-0.4-2-1-2.9-1.9c-0.9-0.9-1.5-1.9-1.9-2.9c-0.4-1.1-0.7-2.3-0.8-4
		C23,44.4,23,43.8,23,39.3c0-4.5,0-5.1,0.1-6.9c0.1-1.8,0.4-3,0.8-4c0.4-1.1,1-2,1.9-2.9c0.9-0.9,1.9-1.5,2.9-1.9
		c1.1-0.4,2.3-0.7,4-0.8c1.8-0.1,2.3-0.1,6.9-0.1c4.5,0,5.1,0,6.9,0.1c1.8,0.1,3,0.4,4,0.8c1.1,0.4,2,1,2.9,1.9
		c0.9,0.9,1.5,1.9,1.9,2.9c0.4,1.1,0.7,2.3,0.8,4c0.1,1.8,0.1,2.3,0.1,6.9C56.3,43.8,56.3,44.4,56.2,46.1z"/>
</g>
</svg>
