<?xml version="1.0" encoding="utf-8"?>
<!-- Generator: Adobe Illustrator 23.0.4, SVG Export Plug-In . SVG Version: 6.00 Build 0)  -->
<svg version="1.1" id="Camada_1" xmlns="http://www.w3.org/2000/svg" xmlns:xlink="http://www.w3.org/1999/xlink" x="0px" y="0px"
	 viewBox="0 0 80 80" style="enable-background:new 0 0 80 80;" xml:space="preserve">
<style type="text/css">
	.st0{fill:url(#SVGID_1_);}
	.st1{fill:url(#SVGID_2_);}
	.st2{fill:url(#SVGID_3_);}
	.st3{fill:url(#SVGID_4_);}
</style>
<g id="XMLID_1_">
	<radialGradient id="SVGID_1_" cx="39.7909" cy="40.2587" r="30.3435" gradientUnits="userSpaceOnUse">
		<stop  offset="0" style="stop-color:#3C3C3C"/>
		<stop  offset="0.7821" style="stop-color:#000000"/>
	</radialGradient>
	<path class="st0" d="M61.2,18.8c-5.5-5.5-13.1-8.9-21.5-8.9c-8.4,0-16,3.4-21.5,8.9c-5.5,5.5-8.9,13.1-8.9,21.5
		C9.4,57,23,70.6,39.8,70.6c8.4,0,16-3.4,21.5-8.9c5.5-5.5,8.9-13.1,8.9-21.5C70.1,31.9,66.7,24.3,61.2,18.8z M32.3,53.8H26V33.5
		h6.3V53.8z M29.1,30.8c-2,0-3.7-1.7-3.7-3.8c0-2.1,1.7-3.7,3.7-3.7c2.1,0,3.7,1.7,3.7,3.7C32.9,29.2,31.2,30.8,29.1,30.8z
		 M55.8,53.8h-6.3c0,0,0-7.7,0-10.7c0-2.9-1.1-4.5-3.4-4.5c-2.5,0-3.8,1.7-3.8,4.5c0,3.1,0,10.7,0,10.7h-6V33.5h6v2.7
		c0,0,1.8-3.3,6.1-3.3c4.3,0,7.4,2.6,7.4,8.1S55.8,53.8,55.8,53.8z"/>
</g>
</svg>
