<?xml version="1.0" encoding="utf-8"?>
<!-- Generator: Adobe Illustrator 23.0.4, SVG Export Plug-In . SVG Version: 6.00 Build 0)  -->
<svg version="1.1" id="Camada_1" xmlns="http://www.w3.org/2000/svg" xmlns:xlink="http://www.w3.org/1999/xlink" x="0px" y="0px"
	 viewBox="0 0 591.3 623.5" style="enable-background:new 0 0 591.3 623.5;" xml:space="preserve">
<style type="text/css">
	.st0{fill:#202020;}
	.st1{fill:#334A8C;}
	.st2{fill:#7D96EE;}
	.st3{fill:#E78E11;}
	.st4{fill:#FFFFFF;}
	.st5{fill:#657BB5;}
	.st6{fill:#7416A8;}
	.st7{fill:#2C5EFB;}
	.st8{fill:#2FAD4C;}
	.st9{fill:#FCE22B;}
	.st10{fill:#F87316;}
	.st11{fill:#F7022D;}
</style>
<g>
	<g>
		<g id="XMLID_10_">
			<g>
				<path class="st0" d="M579.7,296.3c6.9,91-25.4,215.1-43,274.6l-14.9-20.2c-5.9-29.1-15-63.4-27.7-85.7c4-3.7,6.9-8.5,7.4-14.7
					c0.6-8.2-2.1-13.9-6.6-17.3c0.1-0.7,11.3-51.7-18.4-74.1c-8.8-6.6-17.1-11.3-25.1-14.1c-9.8-15.3-21.2-32.1-33.5-48.6
					c-37.7-50.2-23.8-114,28.4-125.7C498.4,159,570.3,172.4,579.7,296.3z M544.2,275.8c0,0,29.1-9.8,18.2-30.8
					c-11-21-23.6-10.3-28.1-7.8c-1.7,0.9-61.1-22.9-97.8,0c-36.7,22.9-20.7,42.3-7.4,59.1c13.3,16.8,45.3,64.2,80,49.7l-0.2,14.7
					l-0.3,25.7c0,0,7.7,4.4,16.7,0c9-4.4,12.2-6.6,13.1-17.9C539.3,357.3,544.2,275.8,544.2,275.8z"/>
				<polygon class="st1" points="551.9,591.5 564.9,605.6 562.4,605.6 551.9,591.5 				"/>
				<path class="st2" d="M516.1,288.1c-0.4,0.6-6.4,9.5-17.3,13.2c-19.2,6.5-16.7,16.7-29.2,22.3c-0.4,0.2,2.1,0.1,9.2-3.7
					c0,0,7.6,5.8,19.3-2c11.6-7.8,10.9-20.1,10.9-20.1C514.6,292,516,288.5,516.1,288.1z M562.4,245c11,21-18.2,30.8-18.2,30.8
					s-5,81.6-5.9,92.8c-0.9,11.3-4.1,13.5-13.1,17.9c-9,4.4-16.7,0-16.7,0l0.3-25.7c0,0,0,2.8,11.4-6.2c11.5-9.1,8.8-32.4,8.8-32.4
					c-6.2,19-20.1,24-20.1,24c-34.7,14.4-66.7-32.9-80-49.7c-13.3-16.8-29.3-36.3,7.4-59.1c36.7-22.9,96.1,0.9,97.8,0
					C538.8,234.7,551.4,224,562.4,245z M554.3,254.3l0.1-0.1c-0.9-1.1-2.1-1.9-3.5-2.3c-1.4-0.4-2.9-0.2-4.3,0.1
					c-1.4,0.3-2.7,0.9-3.9,1.6c-0.8,0.4-1.5,0.9-2.2,1.4c0.2-1,0.5-2,1-2.8c0.7-1.3,1.7-2.6,2.9-3.5c1.2-1,2.6-1.8,4.1-2.3
					c1.5-0.6,3-1,4.6-1.3l0-0.1c-1.6,0.1-3.2,0.5-4.7,1c-1.5,0.5-3,1.2-4.4,2.2c-1.4,1-2.5,2.2-3.4,3.7c-0.9,1.4-1.3,3.1-1.6,4.7
					l-0.3,1.5l1.3-1c1-0.8,2.2-1.5,3.3-2.1c1.2-0.6,2.3-1.1,3.6-1.5c1.2-0.4,2.5-0.6,3.8-0.5C551.9,253,553.2,253.5,554.3,254.3z
					 M503.2,244.9c1.2-0.2,2.5-0.2,3.7-0.3c-1.2-0.2-2.5-0.3-3.8-0.4c-1.3,0.1-2.5,0-3.8,0.3c-2.5,0.3-5,1.2-7.2,2.4
					c-2.3,1.2-4.3,2.9-5.9,4.8c-1.7,1.9-3,4.1-3.8,6.5c1.3-2.1,2.9-4,4.6-5.7c0,0,2.3,7.9,8.2,4.6c5-2.8,1.1-8.4-0.2-9.9
					c1.5-0.7,3-1.2,4.6-1.5C500.8,245.2,502,245.2,503.2,244.9z M489.4,240.7c8.8-2.9,15.6-2.9,14.5-5.5c-1.1-2.5-11.6-5.2-19.3-0.7
					c-7.7,4.5-10.9,13.2-9.7,16.8C475,252,480.6,243.7,489.4,240.7z M478.8,302.2c-4.3,1.6-9.2,0.8-12.8-1.7c-0.4-0.3-0.9-0.7-1.2-1
					c-0.1-0.1-0.1-0.2-0.2-0.2l0,0l0.1-0.1c0.1-0.1,0.1-0.2,0.2-0.3c0.7-0.8,1.5-1.6,2.3-2.4c1.6-1.6,3.3-3.2,4.7-5.2
					c0.3-0.5,0.7-1,0.7-2.1c-0.1-0.8-0.4-1.3-0.7-1.8c-0.5-1.1-1.1-2.1-1.7-3.1c-1.2-1.9-2.5-3.8-3.9-5.7c-2.7-3.7-5.5-7.3-8.5-10.8
					l7.6,11.5c1.2,1.9,2.5,3.8,3.6,5.8c0.6,1,1.2,2,1.6,2.9c0.2,0.5,0.5,1,0.5,1.4c0,0.1-0.2,0.7-0.5,1.1c-1.2,1.8-2.9,3.4-4.4,5
					c-0.8,0.8-1.6,1.6-2.3,2.6c-0.1,0.1-0.2,0.3-0.3,0.4l-0.1,0.2c-0.1,0.1-0.1,0.3-0.1,0.4c-0.1,0.2,0.1,0.7,0.2,0.8
					c0.1,0.1,0.2,0.3,0.3,0.4c0.5,0.5,1,0.8,1.5,1.1c2,1.3,4.3,2,6.7,2.2C474.4,303.7,476.7,303.3,478.8,302.2z M455.1,275.1
					c-1.2,0.1-2.4,0.3-3.7,0.5c-1.2,0.4-2.4,0.6-3.5,1.1c-2.4,0.8-4.5,2.2-6.4,3.9c-3.7,3.4-6,8.4-5.8,13.3c0.4-2.4,1.3-4.7,2.4-6.7
					c0.2-0.3,0.4-0.7,0.6-1c1.1,1.8,4.7,7,8.4,3.4c3.6-3.6,0.1-8.8-1.2-10.4c0.3-0.2,0.6-0.4,0.9-0.5c0.5-0.3,1.1-0.5,1.6-0.8
					c0.5-0.3,1.1-0.5,1.6-0.7l1.7-0.7C452.8,275.9,454,275.6,455.1,275.1z M439.9,273.8c7.3-5.2,13.6-5.6,12.5-7.6
					c-1.1-2-12.9-0.1-19,4.2c-6.1,4.3-10.7,11.1-8.3,14.1C426.6,286.5,432.6,279,439.9,273.8z"/>
				<path class="st1" d="M551.9,591.5l10.5,14.1h-31.7c0,0-0.4-3.9-1.3-10.5c0.5-1.7,1.2-3.7,1.8-5.8L551.9,591.5z"/>
				<path class="st1" d="M554.4,254.2l-0.1,0.1c-1.1-0.8-2.3-1.3-3.6-1.4c-1.3-0.1-2.5,0.1-3.8,0.5c-1.2,0.4-2.4,0.9-3.6,1.5
					c-1.1,0.6-2.3,1.3-3.3,2.1l-1.3,1l0.3-1.5c0.3-1.6,0.7-3.3,1.6-4.7c0.9-1.4,2-2.7,3.4-3.7c1.3-1,2.8-1.7,4.4-2.2
					c1.5-0.5,3.1-0.8,4.7-1l0,0.1c-1.6,0.2-3.1,0.7-4.6,1.3c-1.5,0.6-2.8,1.4-4.1,2.3c-1.2,1-2.2,2.2-2.9,3.5
					c-0.5,0.9-0.8,1.9-1,2.8c-0.4,0.3-0.8,0.6-1.3,1l1,0.5c0.1-0.5,0.1-1,0.2-1.5c0.7-0.5,1.4-1,2.2-1.4c1.2-0.7,2.5-1.3,3.9-1.6
					c1.4-0.3,2.9-0.4,4.3-0.1C552.3,252.3,553.5,253.1,554.4,254.2z"/>
				<path class="st2" d="M536.7,571l15.2,20.5l-20.8-2.2C532.7,584.2,534.6,578.1,536.7,571z"/>
				<path class="st1" d="M540.4,255c-0.1,0.5-0.2,1-0.2,1.5l-1-0.5C539.6,255.6,540,255.3,540.4,255z"/>
				<path class="st2" d="M521.8,550.8l14.9,20.2c-2.1,7.1-4,13.3-5.6,18.4l-2.7-0.3C527,579.1,524.8,565.6,521.8,550.8z"/>
				<path class="st1" d="M528.5,589l2.7,0.3c-0.7,2.1-1.3,4-1.8,5.8C529.1,593.3,528.8,591.2,528.5,589z"/>
				<path class="st1" d="M530.7,605.6h-4.8c0,0,1.3-3.7,3.5-10.5C530.2,601.7,530.7,605.6,530.7,605.6z"/>
				<path class="st1" d="M529.1,322.1c0,0,2.6,23.4-8.8,32.4c-11.5,9.1-11.4,6.2-11.4,6.2l0.2-14.7
					C509.1,346.1,522.9,341.2,529.1,322.1z"/>
				<path class="st1" d="M528.5,589c0.3,2.2,0.6,4.2,0.9,6c-2.2,6.8-3.5,10.5-3.5,10.5l-89.3-0.1l6-25.4L528.5,589z"/>
				<path class="st2" d="M528.5,589l-85.9-8.9l1.5-6.3c11.6-8.7,21.3-15.8,21.7-15.8c0.5,0-5.2-12.4-11.8-26.2l12.9-54.8l0.5,0.1
					l54.4,73.6C524.8,565.6,527,579.1,528.5,589z"/>
				<polygon class="st1" points="525.9,605.6 436.5,605.6 436.5,605.5 				"/>
				<path class="st1" d="M521.8,550.8l-54.4-73.6c0,0,16.6-2.7,26.7-12.1C506.8,487.4,515.9,521.7,521.8,550.8z"/>
				<path class="st1" d="M516.1,288.1c-0.1,0.3-1.5,3.8-7.2,9.7l-30.1,22.1l0,0c-7.1,3.8-9.6,3.9-9.2,3.7
					c12.5-5.6,10-15.8,29.2-22.3C509.7,297.6,515.7,288.7,516.1,288.1z"/>
				<path class="st1" d="M508.9,297.8c0,0,0.8,12.3-10.9,20.1c-11.6,7.8-19.3,2-19.3,2l0,0c3.8-2,8.8-5.1,15.4-9.8
					C500.9,305.3,505.6,301.2,508.9,297.8z"/>
				<path class="st1" d="M478.8,319.9l30.1-22.1c-3.3,3.4-8,7.5-14.7,12.3C487.7,314.8,482.6,317.9,478.8,319.9z"/>
				<path class="st1" d="M506.9,244.6c-1.3,0.2-2.5,0.1-3.7,0.3c-1.2,0.2-2.4,0.3-3.6,0.7c-1.6,0.3-3.1,0.9-4.6,1.5
					c-0.3-0.3-0.4-0.5-0.4-0.4c0.2,0.5-5.1,1.2-7.6,5.8c-1.7,1.7-3.3,3.6-4.6,5.7c0.8-2.4,2.1-4.6,3.8-6.5c1.7-1.9,3.7-3.6,5.9-4.8
					c2.3-1.2,4.7-2.1,7.2-2.4c1.2-0.3,2.5-0.2,3.8-0.3C504.4,244.3,505.7,244.4,506.9,244.6z"/>
				<path class="st1" d="M503.9,235.3c1.1,2.5-5.7,2.5-14.5,5.5c-8.8,2.9-14.4,11.3-14.5,10.7c-1.1-3.6,2-12.3,9.7-16.8
					C492.3,230,502.7,232.8,503.9,235.3z"/>
				<path class="st2" d="M494.9,433.1c4.5,3.4,7.2,9.2,6.6,17.3c-0.5,6.1-3.4,10.9-7.4,14.7c-0.5-0.9-1-1.7-1.5-2.5
					c-1.8-2.9-3.6-6-5.4-9.1c-0.4-1.1-1-2.2-1.8-3.1c-1.3-2.2-2.5-4.5-3.8-6.7c0.8,0.1,1.5,0.2,2.3,0.4c1,0.2,1.9,0.5,2.9,0.9
					c1,0.3,1.9,0.8,2.9,1v-0.1c-0.9-0.3-1.9-0.8-2.8-1.2c-1-0.4-1.9-0.7-2.9-1c-0.9-0.2-1.8-0.5-2.7-0.6c-1.5-2.7-3-5.4-4.5-8.1
					l1.2-5c5-0.9,9.7-0.5,13.7,1.2C492.7,431.8,493.7,432.4,494.9,433.1C494.8,433.1,494.8,433.1,494.9,433.1z"/>
				<path class="st1" d="M495.1,247.1c1.3,1.6,5.2,7.2,0.2,9.9c-6,3.3-8.2-4.6-8.2-4.6c1.7-1.7,3.7-3.2,5.8-4.3
					C493.6,247.8,494.3,247.5,495.1,247.1z"/>
				<path class="st1" d="M476.4,359c29.8,22.4,18.6,73.4,18.4,74.1c-1-0.7-2.1-1.4-3.2-1.9c-5-2.5-9.6-2.7-13.5-1.9l6.7-28.2
					c0,0-13.3-24.7-33.4-56.2C459.3,347.7,467.7,352.4,476.4,359z"/>
				<path class="st3" d="M494.9,433.1C494.8,433.1,494.8,433.1,494.9,433.1c-1.1-0.7-2.2-1.3-3.2-1.9
					C492.8,431.7,493.9,432.4,494.9,433.1z"/>
				<path class="st1" d="M494.7,246.7c0-0.1,0.1,0.1,0.4,0.4c-0.7,0.3-1.5,0.7-2.2,1.1c-2.1,1.1-4.1,2.6-5.8,4.3
					C489.5,247.9,494.9,247.2,494.7,246.7z"/>
				<path class="st2" d="M492.6,462.6c0.5,0.8,1,1.7,1.5,2.5c-10.1,9.4-26.7,12.1-26.7,12.1l-0.5-0.1l6.5-27.5
					c0.2-0.1,0.3-0.1,0.5-0.1c1.7-0.4,3.4-0.6,5.1-0.5c1.7,0,3.4,0.4,4.8,1.2c1.4,0.9,2.5,2.2,3.4,3.8l0.1-0.1
					c0-0.1-0.1-0.2-0.1-0.4C489,456.6,490.8,459.6,492.6,462.6z"/>
				<path class="st1" d="M489.7,445.8v0.1c-1-0.3-1.9-0.7-2.9-1c-1-0.3-1.9-0.6-2.9-0.9c-0.8-0.2-1.5-0.3-2.3-0.4
					c-0.1-0.2-0.2-0.4-0.4-0.7c0.9,0.1,1.8,0.4,2.7,0.6c1,0.3,2,0.7,2.9,1C487.8,445,488.8,445.6,489.7,445.8z"/>
				<path class="st1" d="M487.2,453.5c0.1,0.1,0.1,0.2,0.1,0.4l-0.1,0.1c-0.9-1.5-2-2.9-3.4-3.8c-1.5-0.8-3.1-1.2-4.8-1.2
					c-1.7-0.1-3.4,0.2-5.1,0.5c-0.2,0-0.3,0.1-0.5,0.1l0.4-1.6c1.7-0.4,3.5-0.6,5.3-0.4c1.8,0.2,3.7,0.7,5.3,1.8
					c0.4,0.3,0.8,0.7,1.2,1.1C486,451.5,486.6,452.5,487.2,453.5z"/>
				<path class="st1" d="M487.2,453.5c-0.6-1-1.2-2-1.8-3.1C486.2,451.3,486.8,452.4,487.2,453.5z"/>
				<path class="st2" d="M485.4,450.4c-0.3-0.4-0.7-0.8-1.2-1.1c-1.5-1.1-3.4-1.6-5.3-1.8c-1.8-0.2-3.6,0-5.3,0.4l0.8-3.2
					c1.1-0.6,2.2-0.9,3.4-1.1c1.2-0.2,2.5-0.1,3.7,0C482.9,446,484.2,448.2,485.4,450.4z"/>
				<path class="st1" d="M484.8,401.1l-6.7,28.2c-1.3,0.3-2.6,0.7-3.8,1.1c-17.9-32.5-36.4-65.5-58.6-74.6
					c-3.8-1.6-7.7-2.4-11.7-2.5c0,0,0,0,0,0c14.2-11.8,29.9-14.7,47.3-8.5C471.5,376.4,484.8,401.1,484.8,401.1z"/>
				<path class="st1" d="M491.6,431.2c-3.9-1.8-8.7-2.2-13.7-1.2l0.2-0.7C482.1,428.5,486.6,428.7,491.6,431.2z"/>
				<path class="st1" d="M481.3,443c0.1,0.2,0.2,0.4,0.4,0.7c-1.2-0.2-2.5-0.2-3.7,0c-1.2,0.2-2.4,0.5-3.4,1.1l0.2-1.1
					c1-0.4,2-0.7,3.1-0.8C479,442.8,480.1,442.9,481.3,443z"/>
				<path class="st2" d="M481.3,443c-1.1-0.2-2.3-0.2-3.4-0.1c-1.1,0.1-2.1,0.4-3.1,0.8l2.1-8.7C478.3,437.7,479.8,440.4,481.3,443z
					"/>
				<path class="st2" d="M478,430l-1.2,5c-0.8-1.4-1.5-2.8-2.3-4.1C475.7,430.5,476.8,430.2,478,430z"/>
				<path class="st2" d="M460.7,438.7c0.1-0.5,1-1.4,3.8-3c0,0,0,0,0,0c1.3-0.8,2.9-1.7,4.6-2.7c0,0,0,0,0.1,0
					c1.8-0.9,3.5-1.6,5.3-2.1c0.8,1.4,1.5,2.8,2.3,4.1l-2.1,8.7c-1,0.4-1.9,0.9-2.7,1.6c-1.6,1.2-2.8,2.9-3.8,4.6
					c-0.1,0.1-0.1,0.2-0.2,0.3l-1,1.6l1.8-0.7c1.4-0.6,3-1,4.5-1.4l-6.5,27.5l-12.9,54.8c-3.7-7.8-7.7-16-10.9-22.6
					c0,0,13.9-26.2,12.8-25.7c-1.1,0.5-19.3,12.4-19.3,12.4S404,506,392.2,507.1c-11.8,1.1-30.9-6.4-35.7-53.2
					c-1.8-17.6-0.3-33.7,3.9-47.7c0,0,0,0,0,0c0.4-0.4,7-7.3,17.8-6.1c7.4,0.8,12.9,4.1,15.9,6.3c0.7,0.5,1.6-0.2,1.3-1
					c-1.6-3.9-5.7-10.3-14.6-11.5c-9.7-1.2-15.2,2.1-17.4,3.9c7.5-18.2,20.1-32.2,36.3-40.5c-1.8,1.7,27.3-1.2,33.6,22.9
					C439.4,403,455.1,433.1,460.7,438.7z M460.7,438.7c-0.1,0.6,0.8,0.7,0.8,0.7C461.3,439.3,461,439,460.7,438.7z M442,421.4
					c-0.5-0.3-1-0.5-1.4-0.7c0-0.1,0-0.2,0-0.2s-0.6-0.3-1.8-0.6c0,0,0,0,0,0c-1.1-0.4-2.2-0.8-3.4-0.9l-0.9-0.2l-0.9-0.1
					c-0.6,0-1.2-0.1-1.8-0.1c-1.2,0-2.4,0.1-3.6,0.2c-4.7,0.7-9.3,2.5-12.9,5.6c2.1-1.1,4.3-1.9,6.4-2.6c1-0.3,2-0.6,3-0.8
					c-0.1,1.8-0.1,8.6,7.2,9.1c7.2,0.5,8.4-6.8,8.6-9C441,421.2,441.5,421.3,442,421.4z M429.1,405.6c10.2,1.4,12.4,2.6,12.4,2.6
					s-0.6-8.4-12.9-7.1c-8.4,0.9-12.4,3.1-13.7,5.4c-0.6,1,0.5,2.1,1.5,1.5C418.6,406.5,422.6,404.8,429.1,405.6z M425.7,459.6
					c15.1-2.1-24.4-6.3-35.4-8.8c-11-2.5-17,8.8-17,8.8s-0.5,12.1,16.8,11.3c17.3-0.9,28.3-10.1,27.6-10
					C422.3,460.2,425.3,459.7,425.7,459.6z M400.5,422.1c0.8-3.6,1-7.2,0.8-10.8c-0.2,1.8-0.4,3.6-0.8,5.3c-0.3,1.7-0.7,3.5-1.1,5.2
					c-0.5,1.7-1.1,3.4-1.9,4.8c-0.8,1.5-1.9,2.8-3.4,3.3c-0.4,0.1-0.7,0.2-1.1,0.2l-0.6,0l-0.7,0c-0.9,0-1.8-0.1-2.8,0
					c-0.9,0.1-1.9,0.2-2.8,0.5c-0.9,0.3-1.9,1-2.3,2.1c-0.4,1.1-0.1,2.1,0.1,3c0.3,0.9,0.7,1.7,1.1,2.5c0.9,1.6,1.9,3.1,3,4.5
					c-0.8-1.6-1.7-3.2-2.4-4.8c-0.3-0.8-0.7-1.6-0.8-2.5c-0.2-0.8-0.3-1.7,0-2.3c0.6-1.3,2.5-1.5,4.1-1.6c0.9,0,1.7,0,2.6,0l0.7,0
					l0.8,0c0.5,0,1-0.1,1.5-0.3c2-0.7,3.3-2.4,4.1-4C399.6,425.7,400.2,423.9,400.5,422.1z M387.4,419.6c-1.8-1.8-3.9-3.3-6.2-4.4
					c-2.3-1.1-4.9-1.7-7.5-1.7c-2.6,0-5.2,0.4-7.6,1.4c-1.2,0.4-2.3,1.2-3.4,1.8c-1.1,0.7-2,1.5-3,2.3c1.2-0.5,2.2-1.2,3.3-1.7
					c1.2-0.4,2.3-1,3.5-1.3c0.5-0.2,1-0.3,1.6-0.5c0,0-2.5,10.9,5.4,10.3c6.7-0.5,7.2-7.7,6.7-9.8
					C382.6,416.9,385.1,418.1,387.4,419.6z"/>
				<path class="st1" d="M474.7,443.7l-0.2,1.1c-0.7,0.3-1.3,0.8-1.9,1.2c-1.1,0.8-1.9,1.9-2.6,3.1c-0.6,0.2-1.1,0.5-1.7,0.7
					l-0.1-0.1c1-1.7,2.1-3.4,3.8-4.6C472.8,444.6,473.8,444.1,474.7,443.7z"/>
				<path class="st1" d="M464.6,299.2C464.6,299.2,464.6,299.2,464.6,299.2C464.6,299.2,464.6,299.2,464.6,299.2L464.6,299.2z
					 M464.6,299.2L464.6,299.2c0.1,0.1,0.1,0.2,0.2,0.3c0.3,0.4,0.7,0.7,1.2,1c3.6,2.5,8.5,3.3,12.8,1.7c-2,1.1-4.4,1.5-6.7,1.4
					c-2.3-0.2-4.6-0.9-6.7-2.2c-0.5-0.3-1-0.7-1.5-1.1c-0.1-0.1-0.2-0.3-0.3-0.4c-0.1-0.1-0.2-0.5-0.2-0.8c0-0.1,0.1-0.3,0.1-0.4
					l0.1-0.2c0.1-0.2,0.2-0.3,0.3-0.4c0.8-1,1.6-1.8,2.3-2.6c1.6-1.6,3.2-3.3,4.4-5c0.3-0.4,0.5-1,0.5-1.1c-0.1-0.4-0.3-0.9-0.5-1.4
					c-0.5-1-1.1-2-1.6-2.9c-1.1-2-2.4-3.8-3.6-5.8l-7.6-11.5c3,3.5,5.8,7.1,8.5,10.8c1.4,1.8,2.6,3.7,3.9,5.7c0.6,1,1.2,2,1.7,3.1
					c0.3,0.5,0.5,1,0.7,1.8c0,1.1-0.4,1.5-0.7,2.1c-1.4,2-3.1,3.6-4.7,5.2c-0.8,0.8-1.6,1.6-2.3,2.4c-0.1,0.1-0.2,0.2-0.2,0.3
					L464.6,299.2z"/>
				<path class="st3" d="M474.3,430.5c0.1,0.1,0.1,0.2,0.2,0.4c-1.8,0.5-3.6,1.3-5.3,2.1C470.7,432.1,472.4,431.2,474.3,430.5z"/>
				<path class="st2" d="M474.5,444.8l-0.8,3.2c-0.1,0-0.1,0-0.2,0.1c-1.2,0.3-2.3,0.6-3.5,1.1c0.7-1.2,1.5-2.3,2.6-3.1
					C473.2,445.5,473.8,445.1,474.5,444.8z"/>
				<path class="st1" d="M473.7,448l-0.4,1.6c-1.5,0.3-3.1,0.8-4.5,1.4l-1.8,0.7l1-1.6c0.1-0.1,0.1-0.2,0.2-0.3l0.1,0.1l0.8,0.8
					c0.3-0.5,0.6-1.1,0.9-1.6c1.1-0.5,2.3-0.8,3.5-1.1C473.6,448,473.6,448,473.7,448z"/>
				<path class="st1" d="M468.3,449.9c0.6-0.3,1.1-0.5,1.7-0.7c-0.3,0.5-0.6,1-0.9,1.6L468.3,449.9z"/>
				<path class="st1" d="M474.3,430.5c-1.9,0.7-3.6,1.6-5.1,2.5c0,0-0.1,0-0.1,0c-1.6,0.8-3.1,1.7-4.6,2.7c0,0,0,0,0,0
					c0,0-22.5-69-48.8-79.8l0-0.1C437.9,365,456.4,398,474.3,430.5z"/>
				<path class="st1" d="M453.9,531.8c6.6,13.7,12.4,26.2,11.8,26.2c-0.5,0-10.1,7.1-21.7,15.8L453.9,531.8z"/>
				<path class="st3" d="M464.5,435.7c1.5-1,3-1.9,4.6-2.7C467.4,434,465.9,434.9,464.5,435.7z"/>
				<path class="st3" d="M464.6,299.2L464.6,299.2C464.6,299.2,464.6,299.2,464.6,299.2C464.6,299.2,464.6,299.2,464.6,299.2z"/>
				<path class="st3" d="M460.7,438.7c0.3,0.3,0.6,0.5,0.8,0.7C461.5,439.4,460.6,439.4,460.7,438.7z"/>
				<path class="st1" d="M464.5,435.7c-2.8,1.6-3.7,2.5-3.8,3c-5.6-5.6-21.3-35.7-27.3-58.6c-6.4-24.1-35.4-21.2-33.6-22.9l0,0
					c0.7-0.4,1.5-0.7,2.2-1.1c4.6-2.2,9.2-2,13.7-0.2C442,366.7,464.5,435.7,464.5,435.7z"/>
				<path class="st1" d="M455.8,483.5c1.2-0.5-12.8,25.7-12.8,25.7l-1.4-2.9c-0.4-0.7-0.7-1.4-1-2.1l-4.1-8.3
					C436.5,495.9,454.7,483.9,455.8,483.5z"/>
				<path class="st1" d="M453.9,531.8l-9.9,42c-2.4,1.8-5,3.7-7.5,5.6l-0.1,0.1c-12.3,9.3-25.1,19-31,23.5c-0.5,0.4-0.9,0.7-1.3,1
					l-1.9,1.4h0l-47.9-0.1l-28.5-62.2l-1.1-2.5l-2-4.5c4.4-22.6,12.4-27,17.1-36.7c7.7-15.8,8.1-29.9,8.8-73.6
					c0.4-23.2,4.9-39.1,11.4-50.6c5.7-10.1,13-16.7,20.4-21.9c15.5-10.8,23.4-0.5,23.8,0c-1.4,1.2-2.9,2.5-4.3,3.8l0,0
					c-16.2,8.4-28.8,22.3-36.3,40.5c-0.7,0.6-1.1,1-1.1,1l-1.9,7.4c-4.3,14-5.8,30-3.9,47.7c4.9,46.8,24,54.4,35.7,53.2
					c11.8-1.1,44.3-11.3,44.3-11.3l4.1,8.3l1,2.1l1.4,2.9C446.2,515.8,450.2,524,453.9,531.8z"/>
				<path class="st1" d="M451.5,275.6c1.2-0.2,2.4-0.4,3.7-0.5c-1.2,0.4-2.3,0.8-3.5,1.2L450,277c-0.5,0.2-1.1,0.4-1.6,0.7
					c-0.5,0.3-1.1,0.6-1.6,0.8c-0.3,0.2-0.6,0.4-0.9,0.5c-0.3-0.3-0.5-0.5-0.5-0.5c-0.1,0.1-5,2.8-7,7c0,0,0.1,0.2,0.3,0.5
					c-0.2,0.3-0.4,0.7-0.6,1c-1.1,2.1-2,4.3-2.4,6.7c-0.2-4.9,2.1-9.9,5.8-13.3c1.9-1.6,4-3,6.4-3.9
					C449,276.2,450.3,276,451.5,275.6z"/>
				<path class="st1" d="M452.4,266.3c1.1,2-5.2,2.3-12.5,7.6c-7.3,5.2-13.3,12.7-14.9,10.7c-2.4-2.9,2.2-9.8,8.3-14.1
					C439.4,266.1,451.2,264.3,452.4,266.3z"/>
				<path class="st1" d="M445.9,279.1c1.3,1.6,4.8,6.9,1.2,10.4c-3.6,3.6-7.3-1.6-8.4-3.4c1-1.7,2.3-3.2,3.7-4.5
					c0.4-0.4,0.9-0.7,1.4-1.1l0.7-0.5l0.7-0.5C445.5,279.4,445.7,279.3,445.9,279.1z"/>
				<path class="st1" d="M445.9,279.1c-0.2,0.1-0.4,0.3-0.6,0.4l-0.7,0.5l-0.7,0.5c-0.4,0.4-0.9,0.7-1.4,1.1
					c-1.5,1.3-2.7,2.8-3.7,4.5c-0.2-0.3-0.3-0.5-0.3-0.5c1.9-4.2,6.8-7,7-7C445.5,278.6,445.7,278.8,445.9,279.1z"/>
				<path class="st2" d="M444,573.8l-1.5,6.3l-6-0.6C439,577.6,441.6,575.7,444,573.8z"/>
				<polygon class="st1" points="442.5,580.1 436.5,605.5 402.2,605.5 404.1,604 405.3,603.1 436.4,579.6 436.5,579.5 				"/>
				<path class="st1" d="M441.6,506.3l-1-2.1C440.9,504.9,441.2,505.6,441.6,506.3z"/>
				<path class="st1" d="M440.6,420.7c0.5,0.2,1,0.5,1.4,0.7c-0.5-0.1-1-0.3-1.5-0.4C440.6,420.9,440.6,420.8,440.6,420.7z"/>
				<path class="st1" d="M440.6,420.5c0,0,0,0.1,0,0.2c-0.6-0.3-1.2-0.5-1.7-0.8C440,420.2,440.6,420.5,440.6,420.5z"/>
				<path class="st1" d="M440.6,420.7c0,0.1,0,0.2,0,0.4c-1.8-0.5-3.5-0.9-5.3-1c-2.3-0.2-4.6-0.2-6.8,0.2c-1.2,0.2-2.5,0.4-3.7,0.7
					c0-0.3,0-0.4,0-0.4c5.9-2.2,11.3-1.3,14.1-0.6c0,0,0,0,0,0C439.4,420.1,440,420.4,440.6,420.7z"/>
				<path class="st1" d="M441.5,408.2c0,0-2.2-1.2-12.4-2.6c-6.5-0.9-10.5,0.9-12.6,2.3c-1,0.6-2.1-0.5-1.5-1.5
					c1.3-2.3,5.3-4.5,13.7-5.4C440.9,399.8,441.5,408.2,441.5,408.2z"/>
				<path class="st1" d="M436.5,605.5l0,0.1H402l0.2-0.1c0,0,0,0,0,0L436.5,605.5z"/>
				<path class="st4" d="M436.4,579.6l-31,23.5C411.3,598.6,424.1,588.8,436.4,579.6z"/>
				<path class="st1" d="M435.4,418.9c1.2,0.2,2.3,0.5,3.4,0.9c-2.7-0.7-8.2-1.7-14.1,0.6c0,0,0,0.2,0,0.4c-1,0.2-2,0.5-3,0.8
					c-2.2,0.7-4.3,1.6-6.4,2.6c3.6-3.1,8.2-4.9,12.9-5.6c1.2-0.2,2.4-0.2,3.6-0.2c0.6,0,1.2,0.1,1.8,0.1l0.9,0.1L435.4,418.9z"/>
				<path class="st1" d="M435.2,420.1c1.8,0.1,3.6,0.5,5.3,1c-0.2,2.1-1.5,9.5-8.6,9c-7.3-0.5-7.3-7.3-7.2-9.1
					c1.2-0.3,2.5-0.5,3.7-0.7C430.7,419.9,432.9,419.9,435.2,420.1z"/>
				<path class="st2" d="M430.5,80.9c20.5,14.4-17.3,53.4-17.3,53.4l-38.8,111.9c-0.2-1.4-0.7-2.7-1.5-4c-3.9-6-12.5-2.7-16.2-0.9
					c-0.6,0.3-1.3-0.3-1.1-0.9c0.8-3.2,2-9.8-1.9-13c-1.8-1.5-4.4-2.2-7-2.6l15-36.9l-1.4,4.2c0,0,5.8,6.9,20.2,0.9
					c14.5-6,18.8-34,18.8-34s-4.3,11.1-13.3,20.3c-9,9.2-24.3,8.6-24.3,8.6s-17.3,2.9-34.5-16.8l71.4-76.4l16.2-17.3
					C419.2,76.1,424.5,76.7,430.5,80.9z M424.8,103.5l0.1-0.1c-1.2-1.1-2.6-2.3-4.4-2.6c-1.7-0.4-3.6-0.1-5.3,0.5
					c-1.7,0.6-3.1,1.7-4.4,2.9c0,0-0.1,0.1-0.1,0.1c0.2-0.3,0.3-0.6,0.5-0.9c1-1.7,2.3-3.3,3.7-4.8c2.8-2.9,6.2-5.3,10-6.7l0-0.2
					c-2,0.6-3.9,1.4-5.6,2.5c-1.8,1.1-3.5,2.3-4.9,3.7c-1.5,1.4-2.9,3-4,4.8c-1.2,1.7-2,3.5-2.9,5.4c0,0-0.1,0.1-0.1,0.1l-2.6,5.8
					l3.8-5.2c0,0,0.1-0.1,0.1-0.1c0.9-1.3,2-2.4,3.2-3.5c1.2-1.1,2.5-2,3.9-2.7c1.4-0.7,3-1,4.5-0.9
					C421.9,101.9,423.3,102.7,424.8,103.5z M370,149.6c4.4-3.8,6.7-6.4,4.4-5.3c-6.9,3.4-12.5,2.8-18.4,3.7
					c-5.8,0.9-2.6,9.3-2.5,9.6c-0.4-0.2-7.2-3.9-9.1-3.6c-1.9,0.3-5,9.4-5,9.4c0.9,1,2.3,1.4,4,1.4c3,1.3,12.5,4.9,17.2,2
					C365.3,163.9,369,153.1,370,149.6z"/>
				<path class="st1" d="M390.3,450.8c11,2.5,50.4,6.7,35.4,8.8c-0.4,0.1-3.4,0.6-7.9,1.3c-0.1,0-0.6,0.1-1.4,0.2
					c-6.4,0.9-33,4.2-43-1.5C373.4,459.6,379.4,448.3,390.3,450.8z"/>
				<path class="st1" d="M424.9,103.4l-0.1,0.1c-1.5-0.8-2.9-1.7-4.5-1.8c-1.6-0.1-3.1,0.2-4.5,0.9c-1.4,0.7-2.7,1.7-3.9,2.7
					c-1.1,1-2.3,2.2-3.2,3.5l0,0c0.6-1.6,1.2-3.1,2.1-4.5c0,0,0.1-0.1,0.1-0.1c1.3-1.2,2.7-2.3,4.4-2.9c1.7-0.7,3.5-0.9,5.3-0.5
					C422.2,101.1,423.6,102.3,424.9,103.4z"/>
				<path class="st1" d="M424.8,91.8l0,0.2c-3.8,1.3-7.3,3.7-10,6.7c-1.4,1.5-2.6,3-3.7,4.8c-0.2,0.3-0.4,0.6-0.5,0.9
					c-1.3,1.2-2.3,2.5-3.3,3.9c0.8-1.9,1.7-3.7,2.9-5.4c1.1-1.8,2.5-3.3,4-4.8c1.5-1.4,3.2-2.7,4.9-3.7
					C420.9,93.2,422.8,92.4,424.8,91.8z"/>
				<path class="st1" d="M417.8,460.9c0.7-0.1-10.3,9.1-27.6,10c-17.3,0.9-16.8-11.3-16.8-11.3c3.9,6.4,29,3.6,43,1.5
					C417.2,461,417.7,460.9,417.8,460.9z"/>
				<path class="st1" d="M415.7,355.9L415.7,355.9c-4.5-1.8-9.1-1.9-13.8,0.3c-0.7,0.4-1.5,0.7-2.2,1.1c1.4-1.4,2.8-2.6,4.3-3.8
					c0,0,0,0,0,0C408.1,353.5,411.9,354.3,415.7,355.9z"/>
				<path class="st2" d="M414.8,77.5l-16.2,17.3l-0.1-0.1c0.1-0.1,0.1-0.3,0.1-0.6c0,0,0,0,0,0c1.3-2.7,6.4-12.6,14.7-16
					c0,0,0,0,0.1,0L414.8,77.5C414.8,77.5,414.8,77.5,414.8,77.5z"/>
				<path class="st3" d="M414.7,77.5l-1.4,0.5C413.8,77.8,414.3,77.6,414.7,77.5z"/>
				<path class="st1" d="M410.6,104.3c-0.8,1.4-1.5,3-2.1,4.5l-1.2-0.6C408.3,106.7,409.4,105.4,410.6,104.3z"/>
				<path class="st1" d="M408.6,108.8c0,0-0.1,0.1-0.1,0.1l-3.8,5.2l2.6-5.8c0,0,0-0.1,0.1-0.1L408.6,108.8L408.6,108.8z"/>
				<path class="st5" d="M352,363.3c-3.8,3.2-14.6,10.7-24.2,17.3l30.7-88.5c6,4.6,9.7,8.8,12.3,11.1c0.1,0.4,0.1,0.6,0.1,0.6
					c0.1-0.1,0.2-0.2,0.3-0.2c1.4,1.1,2.4,1.6,3.4,1.1c2.9-1.4,5.8-4.3,8.1-7.8c12.8-5,26.4-2.2,25.7,18.3
					c-1,27.1-32.5,28.6-39.9,38c-1.7,2.1-6.2,10-12.1,21C336.1,411.5,299,484.6,299,484.6l23.5,51.6c-0.3,1.7-0.6,3.4-0.9,5.3
					l-21.7,6.2l-16.3-40.1v0l42.6-122.8C338.4,375.1,349.2,365.7,352,363.3z M394.4,317.2V317c-2-0.9-4.1-1.7-6.3-2.2
					c-2.2-0.4-4.5-0.5-6.7,0c-2.2,0.5-4.4,1.4-6.2,2.7c-1,0.6-1.8,1.4-2.6,2.2c-0.7,0.7-1.4,1.5-2.1,2.2c-0.1,0.1-0.2,0.2-0.2,0.3
					c-0.2,0.2-0.2,0.4-0.1,0.7c0.1,0.4,0.5,0.5,0.8,0.4l0.1,0c1.3-0.4,2.8-0.7,4.2-0.7c1.4-0.1,2.9,0.1,4.2,0.5
					c1.4,0.4,2.6,1.2,3.6,2.2c1.1,1,1.8,2.3,2.6,3.6l0.1-0.1c-0.5-1.4-1-2.9-2.1-4.1c-0.5-0.7-1.1-1.2-1.7-1.7
					c-0.7-0.4-1.4-0.9-2.1-1.1c-1.5-0.6-3.1-0.8-4.7-0.8c-0.8,0-1.7,0.1-2.5,0.3c0.2-0.3,0.4-0.5,0.7-0.8c0.8-0.7,1.5-1.6,2.4-2.1
					c1.7-1.4,3.7-2.3,5.8-2.8c2.1-0.5,4.3-0.6,6.5-0.3C390.2,315.6,392.2,316.4,394.4,317.2z"/>
				<path class="st4" d="M405.3,603.1l-1.3,1C404.4,603.7,404.9,603.4,405.3,603.1z"/>
				<path class="st1" d="M402.2,605.5C402.2,605.5,402.2,605.5,402.2,605.5L402.2,605.5L402.2,605.5z"/>
				<path class="st1" d="M401.4,411.4c0.2,3.6-0.1,7.2-0.8,10.8c-0.4,1.8-0.9,3.5-1.8,5.2c-0.8,1.6-2.2,3.3-4.1,4
					c-0.5,0.2-1,0.3-1.5,0.3l-0.8,0l-0.7,0c-0.9,0-1.7-0.1-2.6,0c-1.7,0.1-3.6,0.3-4.1,1.6c-0.3,0.6-0.2,1.5,0,2.3
					c0.2,0.8,0.5,1.6,0.8,2.5c0.7,1.6,1.6,3.2,2.4,4.8c-1.1-1.4-2.1-2.9-3-4.5c-0.4-0.8-0.8-1.6-1.1-2.5c-0.3-0.9-0.5-1.9-0.1-3
					c0.4-1.1,1.4-1.8,2.3-2.1c1-0.3,1.9-0.4,2.8-0.5c0.9-0.1,1.8-0.1,2.8,0l0.7,0l0.6,0c0.4,0,0.8-0.1,1.1-0.2
					c1.5-0.5,2.6-1.8,3.4-3.3c0.8-1.5,1.4-3.2,1.9-4.8c0.5-1.7,0.8-3.4,1.1-5.2C400.9,414.9,401.1,413.1,401.4,411.4z"/>
				<path class="st0" d="M413.3,78c-8.3,3.4-13.5,13.3-14.7,16c-0.1-1.3-1.4-4.9-6.9-14.7c-4.4-8-12.8-18.2-20.3-26.5
					c1-2.5,1.5-4.5,1.7-5.6c0.7-5.8-26.4-40.4-70-11.3s-24.5,67.5-24.5,67.5c-0.2,0.3,1.9,2.4,6.1,4.3c2.8,5.4,6.2,10.7,9.9,16.1
					c7.8,11.3,16.6,22.6,23.1,33.8c3.1,5.4,6.3,9.8,9.5,13.4l0,0c0,0-48.2,27.1-48.6,27.3c-0.4,0.2-1.5-17.5-13.3-78.1
					C253.5,59.9,296.1,9.5,341.3,9.3C386.6,9.1,413.3,78,413.3,78z"/>
				<path class="st2" d="M398.6,94.8l-71.4,76.4c-3.2-3.6-6.4-8.1-9.5-13.4c-6.5-11.2-15.3-22.5-23.1-33.8l2.9-1.1
					c3.1,2.9,2.6,1.8,11.2-3c8.6-4.9,15.2-5.7,15.2-5.7s-2.3-5.3-11.5-2.5l-1-2.9c5.3-1.5,11.2-4.1,17.6-8.1
					c26-16.3,38.3-37.3,42.5-47.9c7.5,8.3,15.9,18.5,20.3,26.5c5.5,9.9,6.7,13.4,6.9,14.7c0,0,0,0,0,0c-0.2,0.4-0.3,0.7-0.3,0.7
					s0.1,0.1,0.2-0.1L398.6,94.8z M375.3,94.3c-3.3,0-6.7,0.7-9.7,2.2c-3.1,1.5-5.6,4-7.5,6.8c-1.8,2.9-3.1,6.1-3.7,9.4
					c-0.6,3.3-0.9,6.7-0.5,10c0.1-1.7,0.3-3.3,0.6-4.9c0.2-1.6,0.6-3.2,1-4.8c0.6-2.2,1.4-4.4,2.5-6.5c0.9,2.1,3.5,6.6,8.8,1.9
					c5.7-5,2.4-10.5,1-11.9c0.9-0.4,1.8-0.8,2.7-1.1C372.1,95,373.7,94.7,375.3,94.3z M366.6,83.8c8.9-2.7,3.1-7.3-6.4-4
					c-9.5,3.3-11.6,10.4-10.3,12.9C352.8,97.8,357.7,86.5,366.6,83.8z M343.4,139.6c0.1-0.2,0.2-0.5,0.2-0.7c0-0.8-0.2-1.2-0.4-1.7
					c-0.4-0.9-0.9-1.7-1.4-2.4c-1-1.5-2.1-2.9-3.3-4.3c-2.3-2.7-4.8-5.3-7.4-7.8l3.2,4.3c1.1,1.4,2.2,2.8,3.2,4.3
					c1,1.4,2.1,2.9,3,4.4c0.5,0.7,0.9,1.5,1.2,2.2c0.1,0.3,0.2,0.7,0.2,0.8c-0.1,0.1-0.3,0.1-0.5,0.2c-1.6,0.5-3.4,0.5-5.3,1.2
					c-0.5,0.2-1,0.4-1.4,0.9c-0.4,0.4-0.6,1.1-0.7,1.7c0,0.3,0.1,0.6,0.1,0.8l0.3,0.7c0.3,0.5,0.5,1,1,1.3c0.8,0.7,1.9,0.9,2.8,1
					c1,0,1.9-0.1,2.8-0.3c1.8-0.5,3.4-1.2,5-2.1c-1.7,0.6-3.4,1.1-5.1,1.3c-1.7,0.2-3.6,0.3-4.6-0.8c-0.3-0.2-0.4-0.6-0.6-0.9
					l-0.2-0.5c0-0.2,0-0.3-0.1-0.5c0-0.6,0.4-1,1.2-1.3c1.5-0.5,3.3-0.6,5.2-1.1c0.2-0.1,0.5-0.2,0.7-0.3
					C342.9,140.1,343.2,139.8,343.4,139.6z M326.6,131.9c-1-0.6-1.9-1.5-2.9-2.2c-1-0.7-2-1.4-3.1-2c-2.1-1.2-4.5-2.2-7-2.4
					c-1.3-0.1-2.6,0-3.8,0.4c-1.3,0.4-2.4,1.1-3.3,2c-1.9,1.8-2.8,4.2-3.4,6.5c1.1-2.2,2.4-4.2,4.2-5.6c0,0,1.6,6.8,6.1,6.2
					c4.5-0.7,5.4-5.7,3.4-7.2c0,0,0,0,0,0c1.1,0.4,2.3,0.8,3.4,1.3C322.3,129.7,324.3,131,326.6,131.9z"/>
				<path class="st3" d="M398.6,94.1c0,0.4,0,0.5-0.1,0.6c-0.1,0.1-0.2,0.1-0.2,0.1S398.3,94.5,398.6,94.1z"/>
				<path class="st1" d="M386,179.3c8.9-9.2,13.3-20.3,13.3-20.3s-4.3,28-18.8,34c-14.5,6-20.2-0.9-20.2-0.9l1.4-4.2
					C361.7,187.9,377,188.5,386,179.3z"/>
				<path class="st1" d="M395.4,405.4c0.3,0.8-0.6,1.5-1.3,1c-2.9-2.2-8.5-5.6-15.9-6.3c-10.8-1.1-17.5,5.7-17.8,6.1
					c0.9-2.9,1.9-5.7,3-8.4c2.2-1.7,7.7-5.1,17.4-3.9C389.8,395,393.8,401.5,395.4,405.4z"/>
				<path class="st1" d="M394.4,317v0.1c-2.1-0.8-4.2-1.5-6.4-1.8c-2.2-0.3-4.4-0.2-6.5,0.3c-2.1,0.5-4.1,1.4-5.8,2.8
					c-0.9,0.6-1.6,1.4-2.4,2.1c-0.2,0.2-0.5,0.5-0.7,0.8c-0.7,0.2-1.5,0.4-2.2,0.7l-0.1-0.1c0.7-0.7,1.3-1.5,2.1-2.2
					c0.9-0.7,1.7-1.6,2.6-2.2c1.8-1.3,4-2.2,6.2-2.7c2.2-0.5,4.5-0.4,6.7,0C390.3,315.3,392.4,316.2,394.4,317z"/>
				<path class="st1" d="M373.4,459.6c10,5.7,36.6,2.4,43,1.5C402.4,463.2,377.2,466,373.4,459.6z"/>
				<path class="st0" d="M388,279.4c0.8,4.8-1.6,11.8-5.3,17.4c-4.1,1.6-8,3.9-11.5,6.7c-0.1-0.1-0.3-0.2-0.4-0.4
					c-0.6-2.5-3.3-12.7-7.7-24.3l11.3-32.6c0.8,5-1.9,10.1-3.5,12.4c-0.4,0.5,0.1,1.2,0.7,1.2c2.5-0.1,7.3,0.5,10.5,5
					c2.5,3.6,1.3,7-0.3,9.2c-0.4,0.6,0.1,1.4,0.8,1.3C384.9,274.8,387.3,275.3,388,279.4z"/>
				<path class="st1" d="M385.8,328.7l-0.1,0.1c-0.8-1.3-1.5-2.6-2.6-3.6c-1-1-2.3-1.8-3.6-2.2c-1.3-0.4-2.8-0.6-4.2-0.5
					c-1.4,0.1-2.9,0.3-4.2,0.7l-0.1,0c-0.4,0.1-0.7-0.1-0.8-0.4c-0.1-0.2,0-0.5,0.1-0.7c0.1-0.1,0.2-0.2,0.2-0.3l0.1,0.1l0.8,1
					c0.5-0.5,0.9-1.1,1.4-1.7c0.8-0.2,1.6-0.3,2.5-0.3c1.6-0.1,3.2,0.1,4.7,0.8c0.8,0.3,1.4,0.7,2.1,1.1c0.6,0.5,1.2,1,1.7,1.7
					C384.7,325.8,385.3,327.3,385.8,328.7z"/>
				<path class="st1" d="M381.1,415.2c2.3,1.1,4.4,2.6,6.2,4.4c-2.3-1.4-4.7-2.7-7.2-3.5v0c-0.1-0.4-0.2-0.6-0.3-0.5
					c-0.8,0.2-6.4-3.5-11.9,0c-0.5,0.1-1.1,0.3-1.6,0.5c-1.2,0.3-2.3,0.9-3.5,1.3c-1.1,0.5-2.2,1.2-3.3,1.7c1-0.8,1.9-1.6,3-2.3
					c1.1-0.6,2.2-1.4,3.4-1.8c2.4-1.1,5-1.5,7.6-1.4C376.2,413.5,378.8,414.1,381.1,415.2z"/>
				<path class="st1" d="M380.1,416.1c0.5,2.1,0,9.3-6.7,9.8c-7.9,0.6-5.4-10.3-5.4-10.3c1.8-0.5,3.7-0.6,5.6-0.6
					C375.8,415,378,415.4,380.1,416.1L380.1,416.1z"/>
				<path class="st1" d="M379.8,415.5c0.1,0,0.2,0.2,0.3,0.5c-2.1-0.7-4.3-1.1-6.6-1.1c-1.9,0-3.8,0.1-5.6,0.6
					C373.4,412,379,415.7,379.8,415.5z"/>
				<path class="st1" d="M365.6,96.6c3-1.6,6.4-2.3,9.7-2.2c-1.6,0.4-3.2,0.7-4.8,1.3c-0.9,0.3-1.8,0.7-2.7,1.1
					c-0.2-0.3-0.4-0.4-0.5-0.4c-0.4,0.2-7,2-9.7,9.3c0,0,0.1,0.4,0.4,1c-1,2-1.8,4.2-2.5,6.5c-0.4,1.6-0.8,3.2-1,4.8
					c-0.3,1.6-0.5,3.2-0.6,4.9c-0.4-3.3-0.2-6.7,0.5-10c0.6-3.3,1.9-6.5,3.7-9.4C360,100.6,362.5,98.1,365.6,96.6z"/>
				<path class="st1" d="M374.4,144.4c2.3-1.1,0,1.5-4.4,5.3c0.2-0.7,0.3-1.1,0.3-1.1s-7,6.5-15.1,11.2l-1.7-2c0,0,0,0,0,0
					c-0.1-0.3-3.3-8.6,2.5-9.6C361.9,147.2,367.5,147.8,374.4,144.4z"/>
				<path class="st5" d="M382.7,296.8c-2.3,3.5-5.2,6.4-8.1,7.8c-1,0.5-2,0-3.4-1.1C374.7,300.7,378.7,298.4,382.7,296.8z"/>
				<path class="st0" d="M374.4,246.2l-11.3,32.6c-5.3-13.8-13.2-29.7-23.3-37.2l6.8-16.8c2.6,0.4,5.2,1.1,7,2.6
					c3.9,3.2,2.8,9.8,1.9,13c-0.2,0.7,0.5,1.2,1.1,0.9c3.6-1.8,12.3-5.1,16.2,0.9C373.7,243.5,374.2,244.8,374.4,246.2z"/>
				<path class="st0" d="M303.1,35.9c43.6-29.1,70.6,5.5,70,11.3c-0.1,1.1-0.7,3.1-1.7,5.6c-7.9-8.8-14.7-15.6-14.7-15.6
					s-30.9-19.1-65.8,16.2c-18,18.3-15.5,36.4-6.2,54.3c-4.2-1.9-6.3-4.1-6.1-4.3C278.6,103.5,259.5,65,303.1,35.9z"/>
				<path class="st1" d="M372.7,321.3c-0.5,0.6-0.9,1.2-1.4,1.7l-0.8-1C371.2,321.7,371.9,321.5,372.7,321.3z"/>
				<path class="st0" d="M356.6,37.3c0,0,6.8,6.8,14.7,15.6c-4.2,10.6-16.5,31.6-42.5,47.9c-6.4,4-12.3,6.6-17.6,8.1
					c-12.1,3.5-21.2,1.5-26.7-1c-9.4-17.9-11.8-36,6.2-54.3C325.7,18.2,356.6,37.3,356.6,37.3z"/>
				<path class="st1" d="M370.3,148.6c0,0-0.1,0.4-0.3,1.1c-7.1,6.1-19.5,14.9-26.6,15.2c-0.6-0.2-0.9-0.4-0.9-0.4
					c4-0.3,8.5-2.2,12.7-4.7C363.3,155.1,370.3,148.6,370.3,148.6z"/>
				<path class="st1" d="M367.9,96.7c1.4,1.4,4.7,6.8-1,11.9c-5.3,4.7-7.9,0.2-8.8-1.9c0.4-0.8,0.9-1.6,1.4-2.4c1.7-2.7,4-5,6.7-6.7
					C366.7,97.3,367.3,97,367.9,96.7z"/>
				<path class="st1" d="M370,149.6c-1.1,3.4-4.7,14.2-9.4,17.2c-4.7,2.9-14.3-0.7-17.2-2C350.5,164.6,362.9,155.7,370,149.6z"/>
				<path class="st1" d="M367.4,96.3c0.1,0,0.2,0.1,0.5,0.4c-0.6,0.3-1.1,0.6-1.7,0.9c-2.7,1.7-5,4-6.7,6.7c-0.5,0.8-1,1.6-1.4,2.4
					c-0.2-0.6-0.4-1-0.4-1C360.4,98.4,367,96.5,367.4,96.3z"/>
				<path class="st1" d="M360.3,79.8c9.5-3.3,15.2,1.3,6.4,4c-8.9,2.7-13.8,14-16.6,8.9C348.6,90.3,350.8,83.1,360.3,79.8z"/>
				<path class="st5" d="M363.1,278.8c4.4,11.6,7.1,21.8,7.7,24.3c-2.6-2.2-6.3-6.5-12.3-11.1L363.1,278.8z"/>
				<path class="st5" d="M363.1,278.8l-4.6,13.3c-6.9-5.3-16.9-10.9-31.9-14.2c14.5-1.4,16.7-0.8,17.1-2.7c0.8-3.6-3.3-5.7-14.5-7.6
					l10.6-25.9C350,249.1,357.8,264.9,363.1,278.8z"/>
				<path class="st1" d="M362.4,398.8c0,0,0.4-0.4,1.1-1c-1.1,2.7-2.1,5.5-3,8.4c0,0,0,0,0,0L362.4,398.8z"/>
				<path class="st5" d="M358.5,292.1l-30.7,88.5c-9.3,6.4-17.6,11.9-17.6,11.9l0,0c-0.3,0.2-5.5,3.5-10.7,4.9
					c-3.8,1-8.6-1.3-19.9-7.7l10-24.6c1.9-0.1,3.9-0.4,6-1c20.6-5.8,24.1-30,24.1-30s-7.1-3-15.6-4.6l13.1-32.1
					c1,1.4,2.7,2.2,5.1,1.7c6.5-1.3,5.5-8.1,5.1-9.9c1.3,0,2.7,0.1,4,0.2c-1.5-0.4-2.9-0.7-4.5-0.9c-1.5-0.1-3-0.4-4.6-0.3
					c-0.5,0-1,0-1.5,0L325,278c0.6-0.1,1.1-0.1,1.6-0.2C341.6,281.1,351.6,286.8,358.5,292.1z"/>
				<path class="st1" d="M353.5,157.7l1.7,2c-4.2,2.5-8.8,4.4-12.7,4.7c0,0,0.3,0.2,0.9,0.4c-1.7,0.1-3-0.4-4-1.4c0,0,3.1-9.1,5-9.4
					C346.2,153.8,353.1,157.5,353.5,157.7C353.5,157.7,353.5,157.7,353.5,157.7z"/>
				<polygon class="st4" points="354.3,605.4 354.3,605.5 354.2,605.5 354.1,605.4 				"/>
				<polygon class="st4" points="325.7,543.2 354.3,605.4 354.1,605.4 				"/>
				<polygon class="st5" points="354.2,605.5 354.2,605.6 280.7,605.6 317.3,605.5 				"/>
				<polygon class="st4" points="354.1,605.4 354.2,605.5 317.3,605.5 323.4,605.5 323.4,605.4 				"/>
				<path class="st4" d="M354.1,605.4l-30.7,0l-3.6-8.8c-0.9-25.1-0.1-42.5,1.8-55l2.9-0.8l1.1,2.5L354.1,605.4z"/>
				<path class="st0" d="M346.7,224.8l-6.8,16.8c-3.8-2.8-7.9-4.4-12.3-4.4c-27,0.5-92.3,5.7-98.3,48c-0.1-0.1-0.2-0.2-0.3-0.4
					c-1.5-3.7-8.8-22.8,0.3-29.3c10.1-7.2,13.7-6.2,14.1-8.9c0.4-2.7,0.8-8.7,8.6-11.7c5.4-2,9.3-1.2,11.1-0.5
					c0.5,0.2,1.1-0.2,1.1-0.8c-0.1-2.7,0.7-8.7,8.4-11.2c6.3-2,9.5,0.1,11,2c0.4,0.5,1.3,0.3,1.4-0.4c0.5-3.2,2.4-8.7,8.6-9.7
					c6.5-1.1,10.3,2,12,3.9c0.4,0.5,1.2,0.3,1.4-0.3c1-3.3,4.6-10.6,17-8.3c13.1,2.4,13.5,11.1,13.2,14.1c-0.1,0.5,0.4,0.9,0.9,0.9
					C339.7,224.6,343.2,224.3,346.7,224.8z"/>
				<path class="st0" d="M329.3,267.5c11.2,1.9,15.3,4,14.5,7.6c-0.4,1.9-2.7,1.3-17.1,2.7c-0.5-0.1-1-0.2-1.4-0.3L329.3,267.5z"/>
				<path class="st1" d="M342.1,138.8C342.1,138.8,342.1,138.8,342.1,138.8c0.1-0.1,0.1-0.1,0.1-0.1l0,0
					C342.1,138.7,342.1,138.7,342.1,138.8c0-0.2-0.1-0.6-0.2-0.9c-0.3-0.7-0.8-1.5-1.2-2.2c-0.9-1.5-2-2.9-3-4.4
					c-1-1.4-2.1-2.8-3.2-4.3l-3.2-4.3c2.6,2.4,5.1,5,7.4,7.8c1.2,1.4,2.3,2.8,3.3,4.3c0.5,0.8,1,1.5,1.4,2.4
					c0.2,0.5,0.4,0.9,0.4,1.7c0,0.2-0.1,0.5-0.2,0.7c-0.1,0.2-0.5,0.4-0.6,0.4c-0.2,0.1-0.5,0.2-0.7,0.3c-1.9,0.5-3.7,0.6-5.2,1.1
					c-0.7,0.3-1.2,0.7-1.2,1.3c0,0.2,0,0.3,0.1,0.5l0.2,0.5c0.2,0.3,0.3,0.7,0.6,0.9c1,1,3,1,4.6,0.8c1.7-0.2,3.4-0.7,5.1-1.3
					c-1.6,0.9-3.2,1.6-5,2.1c-0.9,0.2-1.8,0.3-2.8,0.3c-0.9,0-2-0.3-2.8-1c-0.5-0.3-0.7-0.8-1-1.3l-0.3-0.7
					c-0.1-0.3-0.1-0.5-0.1-0.8c0-0.6,0.2-1.3,0.7-1.7c0.4-0.5,0.9-0.7,1.4-0.9c1.9-0.7,3.7-0.7,5.3-1.2
					C341.8,138.9,341.9,138.8,342.1,138.8C342.1,138.8,342.1,138.8,342.1,138.8C342.1,138.8,342.1,138.8,342.1,138.8z"/>
				<path class="st4" d="M342.2,138.7C342.1,138.7,342.1,138.7,342.2,138.7c-0.1,0.1-0.1,0.1-0.1,0.1c0,0,0,0,0,0
					S342.1,138.8,342.2,138.7C342.1,138.7,342.1,138.7,342.2,138.7L342.2,138.7z"/>
				<path class="st5" d="M339.8,241.6l-10.6,25.9c-0.3-0.1-0.5-0.1-0.8-0.1c-11.7-1.9-32.8-2.5-34.7,7.7c-10,0.2-21.4,1.4-34.2,3.6
					c-6.6-1.6-20.5,0.2-27.3,6c-0.8,0.2-1.6,0.4-2.3,0.6c-0.2,0.1-0.5,0-0.6-0.1c6-42.3,71.2-47.5,98.3-48
					C332,237.1,336.1,238.8,339.8,241.6z"/>
				<path class="st1" d="M352,363.3c-2.8,2.5-13.6,11.8-25.7,21.6l1.5-4.3C337.5,374,348.2,366.5,352,363.3z"/>
				<path class="st0" d="M329.3,267.5l-4.1,10c-8.7-1.8-19.1-2.8-31.4-2.5c1.9-10.2,22.9-9.6,34.7-7.7
					C328.7,267.4,329,267.5,329.3,267.5z"/>
				<path class="st0" d="M331.4,289.4c-1.4-0.1-2.7-0.2-4-0.2c-0.1-0.3-0.1-0.4-0.1-0.4s-2.6-0.7-6.5-0.3l0.1-0.3c0.5,0,1,0,1.5,0
					c1.5-0.1,3.1,0.1,4.6,0.3C328.4,288.6,329.9,289,331.4,289.4z"/>
				<path class="st1" d="M327.8,380.6l-1.5,4.3c-7.1,5.7-14.6,11.6-21.2,16.2l5.2-8.6l0,0C310.2,392.5,318.5,386.9,327.8,380.6z"/>
				<path class="st0" d="M327.3,289.2c0.4,1.8,1.4,8.6-5.1,9.9c-2.5,0.5-4.1-0.3-5.1-1.7l3.2-7.9c0.7-0.1,1.4-0.2,2.1-0.2
					C324,289.1,325.7,289.1,327.3,289.2z"/>
				<path class="st0" d="M327.2,288.7c0,0,0,0.2,0.1,0.4c-1.7-0.1-3.3,0-4.9,0.1c-0.7,0-1.4,0.1-2.1,0.2l0.4-1
					C324.7,288.1,327.2,288.7,327.2,288.7z"/>
				<path class="st5" d="M326.3,384.9l-42.6,122.8l-17.2-42.2l38.5-64.4c0,0,0,0,0,0C311.7,396.4,319.2,390.6,326.3,384.9z"/>
				<path class="st0" d="M325.2,277.5c0.5,0.1,1,0.2,1.4,0.3c-0.5,0-1.1,0.1-1.6,0.2L325.2,277.5z"/>
				<path class="st0" d="M325.2,277.5L325,278c-0.2,0-0.4,0-0.6,0.1c-16.5,1.7-32.2,7.7-30.7-2.7c0-0.1,0-0.2,0.1-0.3
					C306.1,274.7,316.5,275.8,325.2,277.5z"/>
				<path class="st5" d="M228.9,300.8c0,0.1,0,0.2,0,0.3C228.9,301.1,228.9,301,228.9,300.8z M228.9,300.8c0.3-1.6,5.5-6.8,19.8-9.2
					c15.5-2.5,17.7-6.7,14-11.3c-0.6-0.7-1.7-1.3-3.1-1.6c12.8-2.3,24.2-3.4,34.2-3.6c0,0.1,0,0.2-0.1,0.3
					c-1.6,10.5,14.2,4.5,30.7,2.7c0.2,0,0.4,0,0.6-0.1l-4.1,10.2c-2.6,0.1-5.1,0.7-7.6,1.4c-2.9,0.9-5.8,2.3-8.3,4
					c-2.5,1.7-4.8,3.8-6.6,6.2c2.2-2.1,4.7-3.8,7.2-5.3c2.6-1.5,5.3-2.7,8.1-3.6c0.5-0.1,1-0.3,1.4-0.4c0.1,1.5,0.4,4.7,2,6.8
					l-13.1,32.1c-5.2-1-11-1.6-15.9-0.6c-13,2.5-25.5,21-25.5,21s9.9,16.2,26.9,15.2l-10,24.6c-4.8-2.7-10.9-6.2-18.5-10.5
					c-24.7-13.8-34.8-44.1-32.4-86.5C228.7,295.6,228.8,299.6,228.9,300.8z M281.7,312.5c0.2-0.7,0.2-1.2,0.1-1.7
					c-0.1-0.5-0.1-1-0.3-1.4c-0.2-0.9-0.5-1.8-0.9-2.6c-0.7-1.7-1.4-3.3-2.2-4.9c-1.6-3.2-3.4-6.3-5.4-9.3l2.2,4.9
					c0.7,1.6,1.5,3.2,2.2,4.9c0.7,1.6,1.4,3.3,2,4.9c0.3,0.8,0.6,1.6,0.8,2.5c0.1,0.4,0.2,0.8,0.2,1.2c0,0.4,0,0.8-0.1,1
					c0,0.1-0.1,0.1-0.1,0.1c0,0-0.2,0.1-0.2,0.1l-0.3,0.1l-1.3,0.5c-0.8,0.3-1.7,0.7-2.5,1.1c-1.6,0.8-3.3,1.7-4.6,3.1
					c-0.6,0.7-1.3,1.7-1,2.8c0.2,1.1,1.3,1.8,2.1,2c1.9,0.4,3.7,0.2,5.4-0.2c-1.8,0.1-3.6,0.2-5.2-0.5c-0.8-0.3-1.4-0.8-1.5-1.5
					c-0.1-0.7,0.4-1.3,1-1.9c1.2-1.1,2.8-1.9,4.3-2.6c0.8-0.4,1.6-0.7,2.4-1l1.2-0.5l0.3-0.1c0.1,0,0.2,0,0.4-0.2
					C281.3,313.2,281.6,312.8,281.7,312.5z M255.7,301.8c1-0.1,2-0.2,3-0.2c-4.6-1-9.5-0.5-13.8,1.6c-1.1,0.5-2.1,1.2-3.1,1.8
					c-0.9,0.8-1.9,1.5-2.6,2.4c-1.7,1.7-2.8,3.8-3.7,6c1.4-1.9,2.8-3.7,4.5-5.2c1.1-1.1,2.4-2,3.7-2.8c0.8,1.9,3.4,6.8,8.3,5.1
					C257.3,308.8,256.1,303.2,255.7,301.8z"/>
				<path class="st5" d="M322.5,536.3l2,4.5l-2.9,0.8C321.9,539.7,322.2,537.9,322.5,536.3z"/>
				<path class="st1" d="M323.7,129.7c1,0.7,1.9,1.6,2.9,2.2c-2.3-0.9-4.3-2.2-6.5-3.1c-1.1-0.5-2.2-0.9-3.4-1.3
					c-0.7-0.5-7.1-4.6-9.5,1c-1.8,1.4-3.1,3.5-4.2,5.6c0.5-2.3,1.5-4.7,3.4-6.5c0.9-0.9,2.1-1.6,3.3-2c1.3-0.4,2.6-0.5,3.8-0.4
					c2.6,0.3,4.9,1.2,7,2.4C321.7,128.3,322.8,129,323.7,129.7z"/>
				<path class="st4" d="M323.4,605.4l0.1,0.2l-6.1,0h-67.6l16.7-48.1l33.5-9.6l19.8,48.8c0.1,2.8,0.2,5.8,0.4,8.8H323.4z"/>
				<path class="st4" d="M319.8,596.6l3.6,8.8h-3.2C320,602.3,319.9,599.4,319.8,596.6z"/>
				<path class="st4" d="M300,547.8l21.7-6.2c-1.9,12.5-2.8,29.9-1.8,55L300,547.8z"/>
				<path class="st0" d="M320.9,288.2l-0.1,0.3c-1.7,0.2-3.6,0.5-5.6,1.2c0,0,0,0.3,0,0.8c-0.5,0.1-1,0.3-1.4,0.4
					c-2.8,0.8-5.5,2.1-8.1,3.6c-2.6,1.5-5,3.2-7.2,5.3c1.8-2.5,4.1-4.5,6.6-6.2c2.5-1.7,5.3-3.1,8.3-4
					C315.8,288.8,318.3,288.3,320.9,288.2z"/>
				<path class="st0" d="M320.8,288.5l-0.4,1c-1.8,0.2-3.5,0.6-5.2,1c0-0.5,0-0.8,0-0.8C317.2,289,319.1,288.6,320.8,288.5z"/>
				<path class="st0" d="M320.3,289.5l-3.2,7.9c-1.6-2.1-1.9-5.3-2-6.8C316.8,290.1,318.6,289.7,320.3,289.5z"/>
				<path class="st1" d="M323.7,114.1c0,0-6.6,0.8-15.2,5.7c-8.6,4.9-8,6-11.2,3c0,0-1.1-3.9,11.2-9.7c1.3-0.6,2.6-1.1,3.7-1.5
					C321.4,108.7,323.7,114.1,323.7,114.1z"/>
				<polygon class="st5" points="317.3,605.5 280.7,605.6 249.7,605.6 249.8,605.5 				"/>
				<path class="st1" d="M316.8,127.5c2,1.5,1,6.5-3.4,7.2c-4.5,0.7-6.1-6.2-6.1-6.2c1.7-1.4,4-2,6.2-1.7
					C314.6,126.9,315.7,127.1,316.8,127.5C316.8,127.5,316.8,127.5,316.8,127.5z"/>
				<path class="st0" d="M319.7,334c0,0-3.5,24.2-24.1,30c-2.1,0.6-4.1,0.9-6,1l8.5-20.8C311.8,339.3,319.7,334,319.7,334z"/>
				<path class="st1" d="M316.7,127.5c-1.1-0.3-2.2-0.6-3.2-0.7c-2.2-0.2-4.5,0.3-6.2,1.7C309.6,122.8,316.1,126.9,316.7,127.5z"/>
				<path class="st0" d="M319.7,334c0,0-7.8,5.2-21.6,10.2l0.6-1.4C312.1,338.2,319.7,334,319.7,334z"/>
				<path class="st0" d="M319.7,334c0,0-7.6,4.1-21,8.8l5.5-13.4C312.6,331.1,319.7,334,319.7,334z"/>
				<path class="st2" d="M311.3,108.8l1,2.9c-1.1,0.4-2.4,0.8-3.7,1.5c-12.3,5.8-11.2,9.7-11.2,9.7l-2.9,1.1
					c-3.7-5.3-7.1-10.7-9.9-16.1C290.1,110.3,299.2,112.2,311.3,108.8z"/>
				<path class="st2" d="M310.2,392.5l-5.2,8.6c0,0,0,0,0,0l-38.5,64.4l-0.5-1.2l-8.4-20.7l21.9-53.9c11.4,6.4,16.1,8.8,19.9,7.7
					C304.7,396,309.9,392.7,310.2,392.5z"/>
				<path class="st0" d="M304.1,329.4l-5.5,13.4c-2.4,0.8-5,1.7-7.7,2.5c-18.3,5.5-28.2,4.5-28.2,4.5s12.5-18.5,25.5-21
					C293.1,327.8,298.9,328.4,304.1,329.4z"/>
				<polygon class="st5" points="283.7,507.7 300,547.8 266.5,557.4 				"/>
				<path class="st0" d="M298.6,342.8l-0.6,1.4c-2.2,0.8-4.4,1.6-6.9,2.3c-18,5.5-28.5,3.2-28.5,3.2s10,1,28.2-4.5
					C293.7,344.5,296.2,343.6,298.6,342.8z"/>
				<path class="st0" d="M298,344.2l-8.5,20.8c-17,0.9-26.9-15.2-26.9-15.2s10.5,2.2,28.5-3.2C293.6,345.8,295.9,345,298,344.2z"/>
				<polygon class="st5" points="266.5,465.5 283.7,507.7 283.7,507.7 266.5,557.4 217.2,571.6 209,563 210.7,558.8 				"/>
				<path class="st0" d="M281.8,310.9c0.1,0.5,0.1,1-0.1,1.7c-0.1,0.3-0.4,0.7-0.8,0.9c-0.2,0.1-0.3,0.1-0.4,0.2l-0.3,0.1l-1.2,0.5
					c-0.8,0.3-1.6,0.7-2.4,1c-1.6,0.7-3.1,1.6-4.3,2.6c-0.6,0.6-1,1.2-1,1.9c0.1,0.7,0.7,1.2,1.5,1.5c1.6,0.6,3.4,0.6,5.2,0.5
					c-1.7,0.4-3.5,0.7-5.4,0.2c-0.9-0.2-1.9-0.9-2.1-2c-0.2-1.1,0.4-2.1,1-2.8c1.3-1.4,2.9-2.3,4.6-3.1c0.8-0.4,1.6-0.8,2.5-1.1
					l1.3-0.5l0.3-0.1c0.1,0,0.2-0.1,0.2-0.1c0,0,0,0,0.1-0.1c0.1-0.2,0.1-0.6,0.1-1c0-0.4-0.1-0.8-0.2-1.2c-0.2-0.8-0.5-1.7-0.8-2.5
					c-0.6-1.7-1.3-3.3-2-4.9c-0.7-1.6-1.4-3.2-2.2-4.9l-2.2-4.9c2,3,3.8,6.1,5.4,9.3c0.8,1.6,1.6,3.2,2.2,4.9
					c0.3,0.8,0.6,1.7,0.9,2.6C281.7,309.9,281.8,310.4,281.8,310.9z"/>
				<path class="st3" d="M280.7,605.6l-67.1,0.1c0,0,0-0.1,0-0.1h36.1H280.7z"/>
				<path class="st1" d="M266,464.2l0.5,1.2l-55.9,93.4l21.2-52C249.7,486.6,266,464.2,266,464.2z"/>
				<polygon class="st4" points="266.5,557.4 249.8,605.5 249.7,605.5 217.2,571.6 				"/>
				<path class="st2" d="M257.6,443.5l8.4,20.7c0,0-16.3,22.4-34.2,42.6L257.6,443.5z"/>
				<path class="st0" d="M262.7,280.3c3.7,4.7,1.5,8.8-14,11.3c-14.2,2.3-19.4,7.6-19.8,9.2c-0.1-1.2-0.2-5.2-0.2-8.1
					c0.1-1,0.1-2,0.2-3v0c0.6-1.9,1.8-3.5,3.4-5c9.8-2.5,18.8-4.5,27.3-6C261,279,262.1,279.6,262.7,280.3z"/>
				<path class="st1" d="M258.7,180.5c1.6,49.5-47.9,71.3-48,66.5c0,0,0-0.1,0-0.1c0-0.1,0-0.1,0-0.2c0,0,0,0,0,0
					c5.2-4.1,8.6-11.9,8.6-20.9c0-0.9,0-1.9-0.1-2.8c-0.5-6.7-2.8-12.9-6.5-17.4c-2.2-2.7-4.8-4.7-7.6-5.7c0-0.1,0-0.1,0-0.1
					c0,0,0,0,0,0s0-0.1,0-0.1c0,0,0,0,0,0c0-0.1,0-0.1-0.1-0.2c-0.4-1.8-0.8-3.5-1.5-5.2c-0.2-0.4-0.3-0.9-0.5-1.3
					c0-0.1,0-0.1-0.1-0.2c-0.1-0.2-0.2-0.4-0.2-0.6c0-0.1-0.1-0.2-0.1-0.2c-8-19.5-25.7-34.9-49.6-37.2c-6.3-0.6-13-0.3-20.1,1
					c-50.7,9.9-41.8,79.9-40.6,87.9l-0.2,0.1l0.3,0.6v0c0,0-0.1,0-0.1,0c-0.7-0.1-4.4-0.4-8.3,1.3c-0.1,0-0.2,0.1-0.2,0.1
					c-0.1,0-0.2,0.1-0.3,0.1c-1-1.3-51.4-63.7-23-109c28.6-45.8,66.1-23.7,66.1-23.7s18.5-48.2,74.5-38.4s25,60.5,25.4,60.1
					C226.9,134.3,257.1,130.6,258.7,180.5z"/>
				<path class="st2" d="M232.1,404c0-4.3-0.5-7.9-1.4-10.3c-1.1-3-2.9-6.1-5.1-9.3c0,0,0,0,0,0c0-0.2,0.4-2.4-0.9-6.4
					c0,0,1-11.3-4.1-24l0.5-0.2l36.5,89.8l-25.8,63.3c-2.4,2.7-4.7,5.3-7.1,7.9c-19.5,20.8-25.6-2.9-26.1-5.1c0-0.1,0-0.1,0-0.1
					c-0.4-2.5-0.8-4.9-1.2-7.4C215.6,488.9,232.3,431.1,232.1,404z"/>
				<path class="st0" d="M258.7,301.6c-1,0-2,0.1-3,0.2c-0.1-0.2-0.1-0.3-0.1-0.3c-7.5,0.3-12.2,3.3-12.2,3.3s0.1,0.3,0.3,0.7
					c-1.3,0.8-2.6,1.7-3.7,2.8c-1.7,1.5-3.1,3.3-4.5,5.2c0.9-2.1,2-4.3,3.7-6c0.8-0.9,1.7-1.6,2.6-2.4c1-0.7,2-1.3,3.1-1.8
					C249.2,301.2,254.2,300.6,258.7,301.6z"/>
				<path class="st0" d="M255.7,301.8c0.4,1.4,1.6,7-3.7,8.8c-4.9,1.7-7.5-3.2-8.3-5.1c0.6-0.4,1.2-0.7,1.8-1c2-1,4.2-1.7,6.4-2.1
					C253.1,302.1,254.4,301.9,255.7,301.8z"/>
				<path class="st0" d="M255.6,301.5c0,0,0,0.1,0.1,0.3c-1.3,0.1-2.5,0.3-3.8,0.6c-2.2,0.5-4.4,1.2-6.4,2.1c-0.6,0.3-1.2,0.6-1.8,1
					c-0.2-0.4-0.3-0.7-0.3-0.7S248,301.8,255.6,301.5z"/>
				<path class="st0" d="M232.3,284.7c6.7-5.8,20.7-7.6,27.3-6C251.1,280.1,242,282.1,232.3,284.7z"/>
				<polygon class="st5" points="249.8,605.5 249.7,605.6 249.7,605.5 				"/>
				<polygon class="st5" points="249.7,605.5 249.7,605.6 249.1,605.5 				"/>
				<path class="st4" d="M249.7,605.6h-36.1c0,0,0-0.1,0-0.1h17.8L249.7,605.6z"/>
				<polygon class="st4" points="249.7,605.6 231.4,605.5 249.1,605.5 				"/>
				<path class="st5" d="M217.2,571.6l32.5,34h-0.6l-35.9-4c-0.7-4.9-2.1-14-3.9-25.9l2.1-2.4L217.2,571.6z"/>
				<path class="st4" d="M249.1,605.5h-17.6l-17.8-0.1c0-0.6-0.2-1.9-0.5-4L249.1,605.5z"/>
				<path class="st5" d="M230,285.3c0.8-0.2,1.6-0.4,2.3-0.6c-1.6,1.4-2.8,3.1-3.4,5c0-0.5,0.1-1.1,0.1-1.7c0.1-1,0.2-1.9,0.3-2.8
					C229.5,285.3,229.7,285.3,230,285.3z"/>
				<path class="st5" d="M232.1,404c0.2,27.2-16.5,84.9-34.7,98.1c-1-6-1.9-12-2.9-18.2c9.6-6.7,16.6-23.7,16.8-24.3c0,0,0,0,0,0
					s-2.6-7-10.6-5.5c-2.4,0.4-5.9,2.9-10.2,5.8c-5.5-33.7-11-67.5-15.4-94.5c16.1-1.4,28.8,2,37.3,5.6c8,6.6,12.9,13,13.2,13.4
					c0,0,0,0,0,0c0,0,0,0,0,0s-12,5.7-17.9,8.7c-5.9,2.9-8.2,7.6-5.1,11c3.1,3.4,26.7-10.6,27.8-11l-4.8-8.7
					c2.2,3.2,3.9,6.3,5.1,9.3C231.6,396.1,232.1,399.7,232.1,404c-3.7,1.1-7.2,2.6-10.7,4.3c-3.5,1.7-6.9,3.4-10.1,5.6
					c3.2-1,6.3-2.2,9.4-3.6c0.3,2.1,1.5,7.6,5.2,6.6c3.9-1.1,3.1-8.7,2.8-10.6C229.8,405.5,230.9,404.7,232.1,404z M210.1,434.1
					c0.1-0.6,0.1-1.4-0.4-2.1c-0.5-0.7-1.3-0.9-1.9-1c-1.3-0.2-2.5,0.1-3.6,0.4c-1.1,0.3-2.2,0.7-3.3,1.2l-0.8,0.4
					c-0.2,0.1-0.3,0.1-0.4,0.1c-0.1,0.1-0.3-0.3-0.5-0.8c-0.3-0.9-0.4-2-0.4-3.1c-0.1-2.2,0.1-4.4,0.2-6.7c0.2-2.2,0.4-4.5,0.6-6.7
					c0.2-2.2,0.5-4.5,0.8-6.7c-1.1,4.4-1.9,8.8-2.5,13.3c-0.3,2.2-0.5,4.5-0.5,6.8c0,1.2,0.1,2.3,0.4,3.5c0.1,0.3,0.2,0.6,0.4,1
					c0.1,0.2,0.3,0.3,0.4,0.5c0.2,0.1,0.4,0.3,0.7,0.3c0.5,0.1,1-0.1,1.3-0.2l0.7-0.3c1-0.5,2-0.8,3.1-1.1c1-0.3,2.1-0.5,3-0.4
					c1,0.1,1.4,0.6,1.2,1.6c-0.2,0.9-0.6,2-1.1,3c-1,2-2.1,3.9-3.2,5.9c-1.1,2-2.3,3.9-3.5,5.8c2.8-3.5,5.5-7.1,7.7-11.1
					C209.3,436.4,209.9,435.4,210.1,434.1z"/>
				<path class="st1" d="M231.8,506.8l-21.2,52l-2.2,3.6l-1.7-1.8c-2.3-14.8-5.2-32.3-8.2-51c0.5,2.2,6.6,25.9,26.1,5.1
					C227.1,512.2,229.5,509.5,231.8,506.8z"/>
				<path class="st4" d="M231.4,605.5h-17.8c0,0,0-0.1,0-0.1L231.4,605.5z"/>
				<path class="st0" d="M225.6,384.3l4.8,8.7c-1.1,0.4-24.7,14.3-27.8,11c-3.1-3.4-0.8-8,5.1-11
					C213.6,390.1,225.6,384.3,225.6,384.3z"/>
				<path class="st0" d="M232.1,404c-1.1,0.8-2.3,1.5-3.5,2.2c0-0.3-0.1-0.5-0.1-0.5l-8,3.8c0,0,0,0.3,0.1,0.7
					c-3.1,1.4-6.1,2.7-9.4,3.6c3.2-2.2,6.7-3.9,10.1-5.6C224.9,406.6,228.4,405.1,232.1,404z"/>
				<path class="st0" d="M228.9,300.8c0,0.2,0,0.3,0,0.3C228.9,301,228.9,300.9,228.9,300.8z"/>
				<path class="st0" d="M228.9,289.6c-0.1,1-0.1,2-0.2,3C228.7,291.3,228.8,290.1,228.9,289.6z"/>
				<path class="st0" d="M228.6,406.1c0.3,2,1.2,9.5-2.8,10.6c-3.7,1-4.9-4.5-5.2-6.6c0.5-0.2,0.9-0.4,1.4-0.6
					C224.2,408.5,226.4,407.4,228.6,406.1z"/>
				<path class="st0" d="M228.5,405.7c0,0,0,0.2,0.1,0.5c-2.2,1.2-4.4,2.3-6.6,3.4c-0.5,0.2-0.9,0.4-1.4,0.6
					c-0.1-0.5-0.1-0.7-0.1-0.7L228.5,405.7z"/>
				<path class="st4" d="M224.7,377.9c1.3,3.9,0.9,6.2,0.9,6.4c0,0,0,0,0,0c-2.8-4.1-6.5-8.3-10.6-12.2
					C221.3,375.1,224.7,377.9,224.7,377.9z"/>
				<path class="st0" d="M220.6,353.9c5.1,12.7,4.1,24,4.1,24c-2.1-6.5-8.6-17.8-28.5-32.1c-8.3-6-17.1-9.8-26.1-11
					c-1-6.2-1.9-11.4-2.5-15.5C200.7,322.4,214.7,339.1,220.6,353.9z"/>
				<path class="st2" d="M193.9,286.6l27.3,67.1l-0.5,0.2c-5.9-14.8-19.9-31.5-53.1-34.6c-1-6.3-1.6-9.9-1.6-9.9s11.8,0.3,17.8-1.3
					C189.5,306.7,193.6,287.8,193.9,286.6C193.9,286.6,193.9,286.6,193.9,286.6z"/>
				<path class="st0" d="M219.3,222.9c0.1,0.9,0.1,1.9,0.1,2.8c0,9-3.4,16.8-8.6,20.9c0.1-0.7,0.1-1.3,0.1-2v0
					c4.8-4.4,7.6-12.6,6.9-21.6c-0.2-3.2-0.9-6.3-2-9.1s-2.5-5.3-4.2-7.5c-1.8-2.2-3.9-3.9-6.1-4.9c-0.1-0.6-0.2-1.1-0.3-1.7
					c2.7,1,5.3,2.9,7.6,5.7C216.4,210,218.7,216.2,219.3,222.9z"/>
				<path class="st2" d="M217.8,223c0.7,9-2.1,17.2-6.9,21.6c0-4.2-1.6-7.8-3.1-13.2c0,0,0,0,0,0c-0.9-4.8-1-10-1.2-15.3
					c-0.1-4.9-0.3-9.8-1.1-14.5c2.2,1,4.3,2.6,6.1,4.9c1.7,2.1,3.2,4.7,4.2,7.5S217.6,219.8,217.8,223z"/>
				<path class="st5" d="M209,563l8.2,8.6l-5.9,1.7l-2.1,2.4c-0.5-3-1-6.1-1.5-9.5L209,563z"/>
				<path class="st4" d="M224.7,377.9c0,0-3.4-2.8-9.8-5.9c0,0,0,0,0,0c-11.4-10.7-27-19.3-41.8-18.6c-1.1-6.9-2.2-13.1-3.1-18.6
					c9,1.3,17.8,5.1,26.1,11C216,360.1,222.6,371.4,224.7,377.9z"/>
				<path class="st4" d="M214.9,372.1c4.2,3.9,7.8,8.1,10.6,12.2c-0.3-0.4-5.2-6.8-13.2-13.4C213.3,371.3,214.1,371.7,214.9,372.1
					C214.9,372.1,214.9,372.1,214.9,372.1z"/>
				<path class="st3" d="M213.6,605.6c0,0.1,0,0.1,0,0.1L213.6,605.6L213.6,605.6z"/>
				<path class="st4" d="M213.6,605.5C213.6,605.6,213.6,605.6,213.6,605.5L213.6,605.5L213.6,605.5L213.6,605.5z"/>
				<path class="st4" d="M214.9,372.1c-0.8-0.4-1.6-0.8-2.5-1.1c-9.4-7.7-23.1-15.7-38.8-14.5c-0.2-1-0.3-2-0.5-2.9
					C187.9,352.8,203.5,361.4,214.9,372.1z"/>
				<path class="st4" d="M213.6,605.5C213.6,605.5,213.6,605.5,213.6,605.5L213.6,605.5L213.6,605.5L213.6,605.5z"/>
				<path class="st4" d="M213.6,605.5L213.6,605.5l-0.7-4l0.2,0C213.4,603.5,213.6,604.9,213.6,605.5z"/>
				<polygon class="st4" points="213.6,605.5 213.6,605.6 182.7,605.6 186.9,598.6 188.8,598.8 182.8,605.5 				"/>
				<polygon class="st4" points="213.6,605.5 213.6,605.5 182.8,605.5 188.8,598.8 194.2,599.4 191.7,605.4 				"/>
				<polygon class="st4" points="212.9,601.5 213.6,605.5 191.7,605.4 194.2,599.4 				"/>
				<path class="st5" d="M213.1,601.5l-0.2,0l-4-25.6l0.2-0.3C211,587.6,212.4,596.6,213.1,601.5z"/>
				<polygon class="st5" points="208.9,575.9 212.9,601.5 194.2,599.4 199.2,586.9 				"/>
				<path class="st1" d="M211.3,459.6C211.3,459.6,211.3,459.6,211.3,459.6c-7.1,4.3-13.6,7.2-19.3,9.2c-0.5-3-1-6-1.5-9
					c4.3-2.9,7.7-5.3,10.2-5.8C208.6,452.6,211.3,459.6,211.3,459.6z"/>
				<path class="st3" d="M210.8,244.7C210.9,244.7,210.9,244.6,210.8,244.7c0.1,0.5,0.1,1.2,0,1.9c0,0,0,0,0,0
					C210.8,246,210.8,245.3,210.8,244.7z"/>
				<path class="st0" d="M210.8,244.7c0,0.6,0,1.3,0,1.9c-2.2,1.7-4.6,2.8-7.3,3c-0.3,0-0.7,0-1,0c-6.6,0-12.7-5.2-16.1-12.9
					c-1.4-3.3-2.4-7-2.7-11c0-0.2,0-0.4,0-0.5c0,0,0.1,0,0.1,0.1c0,0-0.1-0.1-0.1-0.1c-0.5-8.6,2-16.3,6.4-21.1c0.3,0.4,0.7,0.7,1,1
					c-3,3.4-5.1,8.3-5.8,14c-0.2,0.2-0.4,0.3-0.6,0.5c0.2-0.1,0.4-0.2,0.5-0.3c-0.2,2-0.3,4.2-0.1,6.3c1,13.1,9.2,23.2,18.2,22.6
					C206.1,247.9,208.7,246.7,210.8,244.7z"/>
				<path class="st2" d="M210.8,246.6c0,0.1,0,0.1,0,0.2c0,0,0,0.1,0,0.1c-1.1,17.3-16.9,39.7-16.9,39.7s0,0,0,0.1
					c-0.4,1.2-6.8,20.2-28,22.8c0,0-45.6-3.8-60.9-31c0,0-31.7,15.6-31.7-10.8c0-13.8,5.2-19.5,10.2-21.9c0,0,0,0,0,0
					s0.1-0.1,0.3-0.1c0.1,0,0.2-0.1,0.2-0.1c1.2-0.5,4.4-1.5,8.3-1.3c0,0,0.1,0,0.1,0l0.3,0.7l19.5-9c0,0.1,0,0.2,0,0.3
					c0,15.3,11.2,27.8,25,27.8c13.8,0,25-12.4,25-27.8c0-1.4-0.1-2.9-0.3-4.2c1.1-1.9,2.2-3.7,3.5-5.5c0.5-0.7,1-1.3,1.6-1.9
					c-0.1,1.9-0.1,3.7,0,5.6c0.1,2.4,0.3,4.8,1.4,7.2c0.3,0.6,0.7,1.2,1.4,1.6c0.7,0.4,1.6,0.5,2.2,0.4c1.2-0.2,2.3-0.5,3.5-0.9
					c2.3-0.6,4.6-1.4,6.7-1.7c0.5,0,1.1-0.1,1.4,0.1c0.4,0.2,0.5,0.4,0.6,0.8c0.1,0.9-0.2,2.1-0.5,3.2c-0.6,2.2-1.5,4.4-2.5,6.6
					c-0.9,2.2-1.9,4.3-2.8,6.5c2.5-4.1,4.7-8.2,6.4-12.7c0.4-1.1,0.8-2.3,0.7-3.7c0-0.2-0.1-0.4-0.2-0.6l0.7-0.3
					c3.4,7.8,9.5,12.9,16.1,12.9c0.3,0,0.7,0,1,0C206.1,249.4,208.6,248.3,210.8,246.6z M195.3,266c0,0-6.2-4.7-13.6-6.7
					c-7.3-2-5.8,6.2-9.8,6.9c-4,0.7-3.3-2.9-7.6-3.5c-4.2-0.7-14.7,7.1-14.7,7.1c1.7,0.6,3.4,1,5.2,1.3c0,0-0.9,11.6,7.1,11.6
					c8,0,26.8,2.3,27-14.7C192.9,267,195.3,266,195.3,266z M102.1,262.3l1.3-0.2l-1-0.8c-1.4-1.1-2.8-2.2-4.6-2.6
					c-1.7-0.5-3.5-0.6-5.2-0.3c-1.7,0.3-3.3,0.9-4.9,1.7c-1.5,0.8-2.9,1.7-4.2,2.8l0.1,0.1c1.3-1,2.8-1.9,4.3-2.5
					c1.5-0.7,3.1-1.2,4.8-1.4c1.6-0.2,3.3,0,4.8,0.5c1.2,0.4,2.2,1,3.1,1.7c-1.2,0.2-2.3,0.6-3.4,1c-1.5,0.6-2.9,1.4-4.2,2.4
					c-1.3,1.1-2.3,2.3-3.1,3.8c-0.8,1.4-1,3.1-1.1,4.7l0.2,0c0.4-1.5,0.9-2.9,1.8-4.2c0.9-1.2,1.9-2.3,3.1-3.2
					c1.2-0.9,2.5-1.6,3.9-2.2C99.2,263.1,100.6,262.6,102.1,262.3z"/>
				<polygon class="st5" points="210.7,558.8 209,563 208.5,562.5 				"/>
				<path class="st0" d="M209.7,432c0.5,0.7,0.5,1.5,0.4,2.1c-0.3,1.3-0.8,2.3-1.4,3.3c-2.2,4-4.9,7.6-7.7,11.1
					c1.2-1.9,2.4-3.8,3.5-5.8c1.2-1.9,2.3-3.9,3.2-5.9c0.5-1,0.9-2,1.1-3c0.1-1-0.2-1.5-1.2-1.6c-0.9-0.1-2,0.1-3,0.4
					c-1,0.3-2.1,0.7-3.1,1.1l-0.7,0.3c-0.3,0.1-0.7,0.3-1.3,0.2c-0.2,0-0.5-0.2-0.7-0.3c-0.2-0.1-0.3-0.3-0.4-0.5
					c-0.2-0.3-0.4-0.7-0.4-1c-0.4-1.2-0.4-2.4-0.4-3.5c0-2.3,0.2-4.6,0.5-6.8c0.6-4.5,1.4-8.9,2.5-13.3c-0.3,2.2-0.6,4.5-0.8,6.7
					c-0.3,2.2-0.5,4.5-0.6,6.7c-0.1,2.2-0.3,4.5-0.2,6.7c0.1,1.1,0.1,2.2,0.4,3.1c0.1,0.5,0.4,0.8,0.5,0.8c0,0,0.1,0,0.4-0.1
					l0.8-0.4c1.1-0.5,2.1-0.9,3.3-1.2c1.1-0.3,2.3-0.6,3.6-0.4C208.5,431.1,209.2,431.3,209.7,432z"/>
				<path class="st2" d="M209.5,237.7c0.8,2.1,1.2,4.5,1.3,7c-2.2,2-4.7,3.2-7.5,3.4c-9,0.7-17.2-9.4-18.2-22.6
					c-0.2-2.2-0.1-4.3,0.1-6.3c1.5-0.7,3.1-1.2,4.7-1.7c0.4-0.1,0.7-0.2,1.1-0.3c-0.2,1.2,0.6,11.5,7,10.6c6.7-1,4.3-11.8,4.3-11.8
					c1.1,0,2.2,0,3.3,0c0.4,5.1,1.1,11.7,2.1,15.3c0,0,0,0,0,0C208.2,233.6,208.7,235.7,209.5,237.7z"/>
				<path class="st5" d="M209.2,575.7l-0.2,0.3l-1.4-9.3l0.2-0.4C208.2,569.5,208.7,572.7,209.2,575.7z"/>
				<path class="st5" d="M209,563l-1.3,3.2c-0.1-0.6-0.2-1.2-0.3-1.9l1.1-1.9L209,563z"/>
				<polygon class="st5" points="207.5,566.6 208.9,575.9 199.2,586.9 				"/>
				<path class="st5" d="M208.5,562.5l-1.1,1.9c-0.2-1.2-0.4-2.4-0.6-3.7L208.5,562.5z"/>
				<path class="st5" d="M207.4,564.3c0.1,0.6,0.2,1.2,0.3,1.9l-0.2,0.4l-0.3-2L207.4,564.3z"/>
				<polygon class="st5" points="207.2,564.7 207.5,566.6 199.2,586.9 188.8,598.8 186.9,598.6 				"/>
				<path class="st5" d="M207.4,564.3l-0.2,0.3l-0.7-4.3l0.3,0.3C207,561.9,207.2,563.1,207.4,564.3z"/>
				<path class="st5" d="M206.5,560.4l0.7,4.3l-20.3,33.9l-79.8-9l49.3-11l-39.8-90.9c6.2-4.5,9.9-8.1,9.9-8.1s-10.1-68.3,12.3-98.1
					c4.2-5.6,9.7-9.9,16.5-12.1c7.1-2.2,13.7-3.5,19.8-4c4.4,27,10,60.9,15.4,94.5c-9.7,6.5-23.8,14.9-40.6,6.2c0,0,6.8,5.9,18.1,7
					c0,0,7.6,15.4,20.4,13.5c2.1-0.3,4.1-1.3,6-2.6c1,6.1,2,12.2,2.9,18.2c-0.5,0.4-0.9,0.7-1.4,0.9c-21.7,12.9-44.3,0-44.3,0
					L206.5,560.4z M149.3,425.9c14.4-6.6,22.3-12.9,20.5-16.8c-1.8-4-20.6,3.4-30.6,8.8c-10,5.5-14.3,10.8-12.2,15.7
					C128.4,437,135,432.5,149.3,425.9z M169,424c0.8-0.5,1.5-1,2.3-1.4c-5.6,2.3-11,5-16.4,7.8c-5.3,2.8-10.6,5.8-15.7,9.1
					c5.6-2.3,11-5,16.4-7.8c1.3-0.7,2.6-1.4,3.9-2.1c0.4,2.1,1.9,7.8,6.8,5.8C171.6,433.1,169.5,425.4,169,424z"/>
				<path class="st3" d="M206.8,560.7l-0.3-0.3l-7.9-50.8c0,0,0,0.1,0,0.1C201.6,528.4,204.4,545.9,206.8,560.7z"/>
				<path class="st2" d="M206.6,216c0.2,5.3,0.3,10.5,1.2,15.3c-1-3.6-1.7-10.2-2.1-15.3C205.9,216,206.3,216,206.6,216z"/>
				<path class="st1" d="M206.6,216c-0.3,0-0.6,0-1,0c0-0.1,0-0.2,0-0.3C205.9,215.8,206.3,215.9,206.6,216z"/>
				<path class="st2" d="M206.6,216c-0.3-0.1-0.6-0.2-1-0.3c-0.3-3.8-0.5-6.6-0.5-6.6c-6.4,0.4-10.7-1.1-14.2-4.2
					c1-1.1,2.2-2.1,3.4-2.8c0,0,0,0,0,0c0.4-0.1,0.8-0.2,1.2-0.3c2.5-0.6,4.4-1,5.9-1.4c1.3,0.1,2.7,0.5,4,1.1
					C206.3,206.3,206.4,211.2,206.6,216z"/>
				<path class="st1" d="M205.6,215.8c0,0.1,0,0.2,0,0.3c-1.1,0-2.2,0-3.3,0c0,0-7.6-1.5-11.3,1.1c0,0,0,0.1,0,0.1
					c-0.4,0.1-0.7,0.2-1.1,0.3c-1.6,0.5-3.2,1-4.7,1.7c0-0.1,0-0.2,0-0.3c1.3-1.1,2.8-1.9,4.3-2.5c1.8-0.7,3.7-1.1,5.6-1.4
					c1.9-0.2,3.9-0.3,5.8-0.1c1,0.1,1.9,0.2,2.9,0.4C204.4,215.5,205,215.6,205.6,215.8z"/>
				<path class="st0" d="M205.2,199.8c0.1,0.6,0.2,1.1,0.3,1.7c-1.3-0.6-2.6-1-4-1.1c1.9-0.4,3-0.6,3.4-0.7
					C205,199.7,205.1,199.8,205.2,199.8z"/>
				<path class="st1" d="M205.2,199.7c0,0,0,0.1,0,0.1c-0.1,0-0.2-0.1-0.2-0.1C205,199.7,205.1,199.7,205.2,199.7z"/>
				<path class="st2" d="M205.2,209.1c0,0,0.1,2.8,0.5,6.6c-0.6-0.2-1.2-0.3-1.8-0.4c-0.9-0.1-1.9-0.3-2.9-0.4
					c-1.9-0.2-3.8-0.1-5.8,0.1c-1.9,0.3-3.8,0.7-5.6,1.4c-1.6,0.6-3.1,1.4-4.3,2.5c0.7-5.7,2.8-10.6,5.8-14
					C194.5,208,198.8,209.5,205.2,209.1z"/>
				<path class="st1" d="M205.2,199.7C205.2,199.7,205.2,199.7,205.2,199.7c0,0,0-0.1,0-0.1C205.2,199.6,205.2,199.7,205.2,199.7z"
					/>
				<path class="st1" d="M205.1,199.6c0,0,0,0.1,0,0.1c0,0-0.1,0-0.2,0c-1.8-0.6-3.6-0.9-5.5-0.7c-3.2,0.2-6.1,1.7-8.5,4
					c-0.5,0.1-1,0.2-1.6,0.4c-2-2.2-3.7-5-5.5-8.2c7.9-3.4,18.2-4.8,18.8-3.3c0,0.1,0.1,0.2,0.1,0.2c0.1,0.2,0.2,0.4,0.2,0.6
					c0,0.1,0,0.1,0.1,0.2c0.8,2.2,1.7,5.4,2,6.5C205.1,199.4,205.1,199.5,205.1,199.6C205.1,199.6,205.1,199.6,205.1,199.6z"/>
				<path class="st1" d="M205.1,199.3c0,0.1,0,0.1,0.1,0.2C205.1,199.5,205.1,199.4,205.1,199.3z"/>
				<path class="st1" d="M211.2,459.6c-0.2,0.6-7.2,17.6-16.8,24.3c-0.8-5-1.6-10-2.4-15C204.1,464.7,211,459.8,211.2,459.6z"/>
				<path class="st1" d="M205.1,199.3c-0.3-1.1-1.1-4.3-2-6.5c0.2,0.4,0.3,0.8,0.5,1.3C204.2,195.8,204.7,197.6,205.1,199.3z"/>
				<path class="st1" d="M211.2,459.6c-0.3,0.2-7.2,5-19.2,9.3c0,0,0-0.1,0-0.1C197.6,466.8,204.1,463.9,211.2,459.6z"/>
				<path class="st0" d="M204.9,199.7c-0.4,0.1-1.5,0.3-3.4,0.7c-0.4,0-0.7-0.1-1.1-0.1c-0.3,0-0.6,0-0.9,0
					c-1.8,0.1-3.6,0.7-5.2,1.7c0,0,0,0,0,0c-1,0.2-2.2,0.5-3.5,0.8c2.4-2.3,5.3-3.7,8.5-4C201.3,198.8,203.2,199.1,204.9,199.7z"/>
				<path class="st1" d="M203.1,192.7c-0.1-0.2-0.2-0.4-0.2-0.6C202.9,192.2,203,192.4,203.1,192.7z"/>
				<path class="st1" d="M202.3,216c0,0,2.4,10.8-4.3,11.8c-6.4,1-7.2-9.4-7-10.6c1.4-0.3,2.9-0.6,4.4-0.8c1.8-0.2,3.7-0.3,5.6-0.4
					C201.4,216.1,201.8,216,202.3,216z"/>
				<path class="st1" d="M202.3,216c-0.5,0-0.9,0-1.4,0c-1.9,0.1-3.7,0.2-5.6,0.4c-1.5,0.2-2.9,0.5-4.4,0.8c0-0.1,0-0.1,0-0.1
					C194.7,214.6,202.3,216,202.3,216z"/>
				<path class="st2" d="M200.5,200.4c0.4,0,0.7,0,1.1,0.1c-1.5,0.3-3.4,0.8-5.9,1.4c-0.4,0.1-0.8,0.2-1.2,0.3
					c1.6-1,3.3-1.5,5.2-1.7C199.9,200.4,200.2,200.4,200.5,200.4z"/>
				<path class="st1" d="M202.7,191.8c-0.7-1.5-10.9-0.1-18.8,3.3c-4.1-7.6-8.4-17.7-16.7-28.9c-4-5.4-9-7.9-14.3-8.4l0.3-3.2
					C177,156.8,194.7,172.3,202.7,191.8z"/>
				<polygon class="st5" points="199.2,586.9 194.2,599.4 188.8,598.8 				"/>
				<path class="st1" d="M192,468.9c0.8,5,1.6,10,2.4,15c-1.9,1.4-4,2.3-6,2.6c-12.8,1.9-20.4-13.5-20.4-13.5s0.2,0,0.5,0
					c3.8,0.3,8,0.1,12.7-1C185.2,471.2,188.8,470.1,192,468.9z"/>
				<path class="st1" d="M192,468.8c0,0,0,0.1,0,0.1c-3.2,1.1-6.8,2.2-10.8,3.2c-4.7,1.1-8.9,1.3-12.7,1
					C170.6,473.3,179.2,473.4,192,468.8z"/>
				<path class="st1" d="M181.8,259.4c7.3,2,13.6,6.7,13.6,6.7s-2.4,0.9-6.3,2c0,0,0,0,0,0c-0.9,0.2-17.7,4.6-29.9,3.6
					c-0.1,0-0.2,0-0.3,0c-1.2-0.1-2.5-0.3-3.7-0.5c-0.1,0-0.1,0-0.2,0c-1.8-0.3-3.5-0.8-5.2-1.3c0,0,10.5-7.8,14.7-7.1
					c4.2,0.7,3.6,4.2,7.6,3.5C176,265.6,174.4,257.4,181.8,259.4z"/>
				<path class="st0" d="M191,203c1.2-0.3,2.4-0.6,3.5-0.8c-1.2,0.7-2.4,1.7-3.4,2.8c-0.4-0.3-0.7-0.6-1-1
					C190.3,203.6,190.6,203.3,191,203z"/>
				<path class="st1" d="M193.9,286.6c-0.2,1.2-4.4,20-10.2,21.5c-6,1.6-17.8,1.3-17.8,1.3C187.1,306.9,193.5,287.8,193.9,286.6z"/>
				<path class="st1" d="M190.5,459.9c0.5,3,1,6,1.5,9c-12.8,4.5-21.3,4.4-23.5,4.3c-0.4,0-0.5,0-0.5,0c-11.3-1.1-18.1-7-18.1-7
					C166.8,474.8,180.8,466.4,190.5,459.9z"/>
				<path class="st1" d="M189.4,203.3c0.5-0.1,1.1-0.2,1.6-0.4c-0.3,0.3-0.7,0.7-1,1C189.8,203.8,189.6,203.6,189.4,203.3z"/>
				<path class="st2" d="M189.4,203.3c0.2,0.2,0.4,0.4,0.6,0.6c-4.4,4.8-6.9,12.6-6.4,21.1c-1.5-2-3.3-3.8-5.6-4.9
					c-1.2-0.5-2.5-0.8-3.9-0.8c-1.4,0-2.7,0.4-3.9,1c-0.8,0.4-1.5,0.9-2.2,1.5c0-2,0.1-3.9,0.2-5.9c-0.4,2.2-0.7,4.3-0.8,6.5
					c-1,1-1.9,2.1-2.6,3.3c-1.1,1.8-2,3.7-2.7,5.7c-1.6-10.7-8.8-19.3-18-22.1c1.6-1.7,1.1-3.4-0.7-4.9c-3.8-3-32.7-1.8-39.9,18.6
					c-1.2,3.3,5.3-0.1,14.1-3.7c-2.4,3.4-4,7.5-4.7,11.9c-0.2,1-0.3,1.9-0.3,2.9l-19.9,9.2c-0.2-6-0.4-44,17.4-64.6
					c0,0,23.7-23,42.9-21.1c5.3,0.5,10.3,3,14.3,8.4c8.3,11.2,12.6,21.3,16.7,28.9c-4.7,2.1-8.5,4.8-9,8.2
					C174.4,206.4,182.5,205,189.4,203.3z"/>
				<path class="st1" d="M189,268.1C189,268.1,189,268.1,189,268.1c-0.2,16.9-19,14.6-27,14.7c-8,0-7.1-11.6-7.1-11.6
					c0.1,0,0.1,0,0.2,0c1.1,0.2,2.4,0.4,3.7,0.5c0.1,0,0.2,0,0.3,0C170.2,272.7,182,270.1,189,268.1z"/>
				<polygon class="st4" points="186.9,598.6 182.7,605.6 35.3,605.6 107,589.6 107,589.6 				"/>
				<path class="st2" d="M186.4,236.7l-0.7,0.3c-0.2-0.5-0.7-1.1-1.2-1.3c-0.7-0.3-1.4-0.3-2.1-0.3c-2.5,0.3-4.7,1.1-7,1.7
					c-1.1,0.3-2.3,0.6-3.4,0.9c-0.5,0.1-0.8,0.1-1.2-0.1c-0.4-0.2-0.6-0.6-0.9-1.1c-1-1.9-1.3-4.3-1.5-6.6c-0.2-2.1-0.3-4.2-0.3-6.4
					c0.9-0.8,1.8-1.6,2.9-2.1c2-1.1,4.4-1.3,6.7-0.5c2.2,0.8,4.2,2.3,6.1,3.9c0,0.2,0,0.4,0,0.5C184,229.7,184.9,233.4,186.4,236.7z
					"/>
				<path class="st1" d="M185.8,237.5c0.1,1.5-0.3,2.6-0.7,3.7c-1.6,4.5-3.9,8.7-6.4,12.7c1-2.2,2-4.3,2.8-6.5
					c0.9-2.2,1.8-4.4,2.5-6.6c0.3-1.1,0.6-2.3,0.5-3.2c-0.1-0.4-0.3-0.7-0.6-0.8c-0.4-0.2-0.9-0.1-1.4-0.1c-2.2,0.2-4.5,1.1-6.7,1.7
					c-1.1,0.3-2.3,0.6-3.5,0.9c-0.7,0.2-1.6,0.1-2.2-0.4c-0.7-0.4-1-1-1.4-1.6c-1.1-2.4-1.3-4.8-1.4-7.2c-0.1-1.9-0.1-3.8,0-5.6
					c0.2-0.3,0.5-0.5,0.8-0.8c0,2.1,0.1,4.3,0.3,6.4c0.3,2.3,0.5,4.7,1.5,6.6c0.3,0.4,0.6,0.9,0.9,1.1c0.4,0.2,0.7,0.2,1.2,0.1
					c1.1-0.2,2.3-0.6,3.4-0.9c2.3-0.6,4.5-1.4,7-1.7c0.7,0,1.3-0.1,2.1,0.3c0.6,0.2,1,0.7,1.2,1.3
					C185.7,237.2,185.8,237.4,185.8,237.5z"/>
				<path class="st1" d="M185.2,219c0,0.1,0,0.2,0,0.3c-0.2,0.1-0.4,0.2-0.5,0.3C184.8,219.3,185,219.1,185.2,219z"/>
				<path class="st5" d="M212.4,370.9c-8.5-3.6-21.2-7.1-37.3-5.6c-0.5-3.1-1-6-1.5-8.9C189.3,355.2,203,363.2,212.4,370.9z"/>
				<path class="st1" d="M183.9,195.1c1.7,3.2,3.5,6,5.5,8.2c-6.9,1.6-15,3.1-14.5-0.1C175.3,199.9,179.2,197.1,183.9,195.1z"/>
				<path class="st3" d="M183.6,225.1c0,0,0.1,0.1,0.1,0.1C183.7,225.2,183.6,225.2,183.6,225.1
					C183.6,225.1,183.6,225.1,183.6,225.1z"/>
				<path class="st0" d="M183.6,225.1C183.6,225.1,183.6,225.1,183.6,225.1c-1.9-1.6-3.9-3-6.1-3.8c-2.2-0.8-4.6-0.7-6.7,0.5
					c-1,0.5-2,1.3-2.9,2.1c0-0.2,0-0.4,0-0.7c0-0.4,0-0.8,0-1.2c0.7-0.6,1.4-1.1,2.2-1.5c1.2-0.6,2.5-1,3.9-1c1.4,0,2.7,0.3,3.9,0.8
					C180.3,221.3,182.2,223.1,183.6,225.1z"/>
				<path class="st5" d="M173.6,356.4c0.5,2.9,1,5.8,1.5,8.9c-6.1,0.5-12.8,1.8-19.8,4c-6.9,2.1-12.3,6.4-16.5,12.1l-3-1.8
					c9.3-12.3,21.1-20.4,34.1-22.7C171.1,356.6,172.4,356.5,173.6,356.4z"/>
				<path class="st4" d="M173.1,353.5c0.1,1,0.3,2,0.5,2.9c-1.3,0.1-2.5,0.2-3.8,0.5c-13,2.2-24.8,10.4-34.1,22.7
					c-11.9,15.7-19.7,38.2-20.7,63.6c0.8-21,7.1-80.5,53.4-89.1C170,353.7,171.6,353.5,173.1,353.5z"/>
				<path class="st4" d="M170.1,334.8c0.9,5.5,1.9,11.8,3.1,18.6c-1.6,0.1-3.1,0.2-4.7,0.5c-46.3,8.6-52.6,68.1-53.4,89.1
					c0,0.4,0,0.7,0,1.1c0,0.7,0,1.3,0,1.9c-0.1,2.8,0,4.4,0,4.4l-0.1,0c-0.4-0.1-2.8-0.8-6-1.1c0.7,0.1-28.4-51.2,0-84.2
					C129.6,341,150.5,332,170.1,334.8z"/>
				<path class="st0" d="M169.8,409.1c1.8,4-6.2,10.2-20.5,16.8c-14.3,6.6-20.9,11.1-22.4,7.7c-2.1-4.9,2.3-10.3,12.2-15.7
					C149.2,412.4,168,405.1,169.8,409.1z"/>
				<path class="st0" d="M171.3,422.5c-0.8,0.5-1.5,1-2.3,1.4c0-0.1-0.1-0.2-0.1-0.2l-9.6,5c0,0,0,0.3,0.1,0.7
					c-1.3,0.7-2.6,1.4-3.9,2.1c-5.4,2.8-10.8,5.5-16.4,7.8c5.1-3.3,10.4-6.3,15.7-9.1C160.2,427.5,165.7,424.8,171.3,422.5z"/>
				<path class="st0" d="M169,424c0.5,1.4,2.6,9.1-2.7,11.3c-4.9,2-6.4-3.7-6.8-5.8C162.7,427.8,165.9,425.9,169,424z"/>
				<path class="st0" d="M168.9,423.8c0,0,0,0.1,0.1,0.2c-3.1,2-6.3,3.8-9.5,5.5c-0.1-0.4-0.1-0.7-0.1-0.7L168.9,423.8z"/>
				<path class="st3" d="M168,223.1c0,0.2,0,0.4,0,0.7c-0.3,0.3-0.5,0.5-0.8,0.8c0-0.7,0.1-1.4,0.1-2.1c0.2-0.2,0.4-0.4,0.7-0.6
					C168,222.3,168,222.7,168,223.1z"/>
				<path class="st1" d="M168.2,216c-0.1,2-0.2,3.9-0.2,5.9c-0.2,0.2-0.4,0.4-0.7,0.6C167.5,220.3,167.8,218.2,168.2,216z"/>
				<path class="st0" d="M167.5,319.3c0.7,4.1,1.5,9.3,2.5,15.5c-19.6-2.8-40.4,6.2-61.1,30.2c-28.4,33,0.7,84.3,0,84.2
					c-8.6-0.9-23.3,0.5-22.7,21.2c0.8,29.2,29.2,14.6,29.2,14.6l1.1,2.6c-18.4,13.4-59.1,34.5-92.4-8.1
					c-44.5-57,34.7-153.8,120.4-160.2C153.1,318.6,160.7,318.7,167.5,319.3z"/>
				<path class="st0" d="M167.4,222.5c-0.1,0.7-0.1,1.4-0.1,2.1c-0.6,0.6-1.1,1.2-1.6,1.9c-1.3,1.7-2.5,3.5-3.5,5.5
					c0-0.1-0.1-0.3-0.1-0.4c0.7-2,1.6-3.9,2.7-5.7C165.5,224.7,166.3,223.5,167.4,222.5z"/>
				<path class="st1" d="M189,268.1c-7,2-18.8,4.7-29.9,3.6C171.3,272.6,188.1,268.3,189,268.1z"/>
				<path class="st0" d="M162.1,231.9c0.2,1.4,0.3,2.8,0.3,4.2c0,15.3-11.2,27.8-25,27.8c-13.8,0-25-12.4-25-27.8c0-0.1,0-0.2,0-0.3
					l1.1-0.5l-0.6-1.3l-0.4,0.2c0.1-1,0.2-2,0.3-2.9l0.4,0.1c0.4-0.2,0.8-0.3,1.2-0.5c-0.3,1.7-0.5,3.5-0.5,5.3
					c0,14.5,10.6,26.3,23.6,26.3s23.6-11.8,23.6-26.3c0-12.5-7.8-23-18.3-25.6c0.6-0.4,1-0.8,1.4-1.1c9.3,2.8,16.4,11.4,18,22.1
					c-0.1,0.4-0.2,0.8-0.4,1.2C161.8,232.4,161.9,232.2,162.1,231.9z"/>
				<path class="st3" d="M162,231.5c0,0.1,0.1,0.3,0.1,0.4c-0.2,0.3-0.3,0.5-0.4,0.8C161.8,232.3,161.9,231.9,162,231.5z"/>
				<path class="st4" d="M155.1,271.1c1.2,0.2,2.4,0.4,3.7,0.5C157.5,271.6,156.2,271.4,155.1,271.1z"/>
				<path class="st2" d="M142.6,210.5c10.5,2.7,18.3,13.2,18.3,25.6c0,14.5-10.6,26.3-23.6,26.3s-23.6-11.8-23.6-26.3
					c0-1.8,0.2-3.6,0.5-5.3c2-0.8,4-1.6,6-2.3c2.1-0.8,4.2-1.5,6.3-2.2c0.1,2.4,0.8,9.4,6.9,9.4c6.6,0,5.9-10.1,5.7-12.1
					c1.1-0.1,2.1-0.2,3.2-0.2c-2.5-0.5-5.2-0.6-7.7-0.4c-2.6,0.3-5.1,0.8-7.6,1.5c-4.5,1.4-8.8,3.3-12.7,5.8
					c0.9-4.6,2.9-8.8,5.7-12.2c3.5-1.3,7.2-2.6,10.9-3.5C136.8,213.5,140.5,212,142.6,210.5z"/>
				<path class="st1" d="M153.2,154.5l-0.3,3.2c-19.2-1.9-42.9,21.1-42.9,21.1c-17.8,20.6-17.6,58.6-17.4,64.6l-0.1,0
					c-1.2-8.1-10.1-78.1,40.6-87.9C140.1,154.2,146.8,153.9,153.2,154.5z"/>
				<path class="st1" d="M143.3,204.5c1.8,1.5,2.3,3.2,0.7,4.9c-2.1-0.7-4.3-1-6.6-1c-8.1,0-15.3,4.3-19.9,10.9
					c-8.7,3.6-15.2,7-14.1,3.7C110.5,202.7,139.5,201.5,143.3,204.5z"/>
				<path class="st0" d="M144,209.4c-0.4,0.4-0.8,0.8-1.4,1.1c-1.7-0.4-3.5-0.7-5.3-0.7c-6.8,0-13,3.3-17.3,8.5
					c-0.9,0.4-1.8,0.7-2.6,1c4.6-6.7,11.8-10.9,19.9-10.9C139.7,208.4,141.9,208.8,144,209.4z"/>
				<path class="st1" d="M142.4,223.6c-1.1,0-2.2,0.1-3.2,0.2c0-0.2,0-0.3,0-0.3c-5.2-0.3-12.6,2.2-12.6,2.2s0,0.3,0,0.8
					c-2.1,0.7-4.2,1.4-6.3,2.2c-2,0.8-4,1.5-6,2.3c0-0.1,0-0.2,0.1-0.4c3.9-2.5,8.2-4.4,12.7-5.8c2.5-0.7,5-1.3,7.6-1.5
					C137.3,223,139.9,223.1,142.4,223.6z"/>
				<path class="st1" d="M139.2,223.8c0.2,2,0.9,12.1-5.7,12.1c-6.1,0-6.8-7.1-6.9-9.4c0.3-0.1,0.6-0.2,0.9-0.3
					c2.4-0.7,4.9-1.3,7.4-1.8C136.3,224.1,137.7,223.9,139.2,223.8z"/>
				<path class="st1" d="M139.2,223.4c0,0,0,0.1,0,0.3c-1.5,0.1-2.9,0.3-4.4,0.5c-2.5,0.5-4.9,1.1-7.4,1.8c-0.3,0.1-0.6,0.2-0.9,0.3
					c0-0.5,0-0.8,0-0.8S134,223.2,139.2,223.4z"/>
				<path class="st5" d="M135.7,379.5l3,1.8c-22.4,29.8-12.3,98.1-12.3,98.1s-3.7,3.6-9.9,8.1l-1.1-2.6c0,0-28.4,14.6-29.2-14.6
					c-0.6-20.7,14.1-22.1,22.7-21.2l6,1.1l0.1,0c0-1.5,0-2.9,0-4.4c0-0.6,0-1.3,0-1.9c0-0.4,0-0.7,0-1.1
					C116,417.8,123.8,395.3,135.7,379.5z M118.8,468.6l-0.5-1.1c-0.4-0.8-0.9-1.7-1.5-2.4c-0.6-0.7-1.4-1.3-2.2-1.7
					c-1.7-0.8-3.6-1-5.4-0.9c-1.8,0.1-3.5,0.6-5.2,1.1c-1.7,0.6-3.3,1.3-4.8,2.1l0.1,0.1c3.2-1.4,6.6-2.5,10-2.6
					c1.7,0,3.4,0.2,4.9,1c0.7,0.4,1.3,0.9,1.8,1.5c0.2,0.3,0.5,0.7,0.7,1c-0.9-0.1-1.9-0.2-2.8-0.1c-1.4,0.1-2.7,0.4-4,0.9
					c-1.3,0.5-2.5,1.3-3.4,2.3c-1,1-1.6,2.2-2,3.5l0.1,0.1c0.8-1.1,1.5-2.1,2.5-2.9c1-0.7,2-1.4,3.2-1.7c1.2-0.4,2.4-0.6,3.6-0.7
					c1.2-0.1,2.5-0.1,3.7,0.1L118.8,468.6z"/>
				<path class="st2" d="M137.4,209.9c1.8,0,3.6,0.2,5.3,0.7c-2.1,1.5-5.9,2.9-11.7,4.3c-3.7,0.9-7.4,2.2-10.9,3.5
					C124.4,213.1,130.5,209.9,137.4,209.9z"/>
				<path class="st1" d="M118.3,467.6l0.5,1.1l-1.3-0.2c-1.2-0.2-2.5-0.2-3.7-0.1c-1.2,0.1-2.5,0.3-3.6,0.7c-1.2,0.4-2.2,1-3.2,1.7
					c-1,0.8-1.7,1.8-2.5,2.9l-0.1-0.1c0.4-1.2,1-2.5,2-3.5c0.9-1,2.1-1.8,3.4-2.3c1.3-0.5,2.6-0.8,4-0.9c0.9,0,1.9,0,2.8,0.1
					c0.2,0.4,0.4,0.7,0.5,1.1l0.8-0.9c-0.4-0.1-0.8-0.2-1.3-0.2c-0.2-0.4-0.4-0.7-0.7-1c-0.5-0.6-1.1-1.1-1.8-1.5
					c-1.4-0.8-3.2-1-4.9-1c-3.4,0.1-6.8,1.1-10,2.6l-0.1-0.1c1.5-0.8,3.2-1.5,4.8-2.1c1.7-0.5,3.4-1,5.2-1.1c1.8-0.1,3.7,0,5.4,0.9
					c0.8,0.4,1.6,1,2.2,1.7C117.4,465.9,117.9,466.7,118.3,467.6z"/>
				<path class="st0" d="M117.5,219.4c0.8-0.3,1.7-0.7,2.6-1c-2.8,3.4-4.8,7.6-5.7,12.2c-0.4,0.3-0.8,0.5-1.2,0.8l-0.4-0.1
					C113.4,226.9,115.1,222.8,117.5,219.4z"/>
				<path class="st1" d="M117.8,467.2L117,468c-0.2-0.4-0.3-0.7-0.5-1.1C116.9,467,117.4,467.1,117.8,467.2z"/>
				<path class="st4" d="M115,444.1c0,0.6,0,1.3,0,1.9C115,445.4,115,444.8,115,444.1z"/>
				<path class="st4" d="M115,446c0,1.4,0,2.9,0,4.4C115,450.4,114.9,448.8,115,446z"/>
				<path class="st4" d="M114.9,450.4l-6-1.1C112.2,449.6,114.6,450.3,114.9,450.4z"/>
				<path class="st1" d="M113.1,231.4c0.4-0.3,0.8-0.6,1.2-0.8c0,0.1-0.1,0.2-0.1,0.4C113.9,231,113.5,231.2,113.1,231.4z"/>
				<path class="st3" d="M112.8,234l0.6,1.3l-1.1,0.5c0-0.6,0-1.1,0.1-1.6L112.8,234z"/>
				<path class="st0" d="M92.5,243.4l19.9-9.2c0,0.5-0.1,1.1-0.1,1.6l-19.5,9l-0.3-0.7v0c0,0,0-0.1,0-0.1
					C92.5,244,92.5,243.8,92.5,243.4z"/>
				<path class="st1" d="M103.4,262.1l-1.3,0.2c-1.4,0.3-2.9,0.8-4.3,1.3c-1.4,0.6-2.7,1.3-3.9,2.2c-1.2,0.8-2.2,2-3.1,3.2
					c-0.9,1.2-1.4,2.7-1.8,4.2l-0.2,0c0.1-1.6,0.3-3.2,1.1-4.7c0.7-1.4,1.8-2.7,3.1-3.8c1.3-1,2.7-1.8,4.2-2.4
					c1.1-0.4,2.2-0.8,3.4-1c0.3,0.3,0.6,0.5,1,0.8l0.3-1c-0.4,0.1-0.9,0.1-1.3,0.2c-0.9-0.7-1.9-1.4-3.1-1.7
					c-1.5-0.5-3.2-0.7-4.8-0.5c-1.6,0.2-3.2,0.7-4.8,1.4c-1.5,0.7-3,1.5-4.3,2.5l-0.1-0.1c1.3-1.1,2.7-2,4.2-2.8
					c1.5-0.8,3.2-1.4,4.9-1.7c1.7-0.3,3.5-0.2,5.2,0.3c1.7,0.4,3.2,1.5,4.6,2.6L103.4,262.1z"/>
				<path class="st3" d="M101.9,261.1l-0.3,1c-0.3-0.3-0.6-0.5-1-0.8C101.1,261.2,101.5,261.2,101.9,261.1z"/>
				<path class="st3" d="M92.5,244.2l-0.3-0.6l0.2-0.1C92.5,243.8,92.5,244,92.5,244.2C92.5,244.2,92.5,244.2,92.5,244.2z"/>
				<path class="st3" d="M92.5,243.4c0,0.3,0,0.6,0,0.7C92.5,244,92.5,243.8,92.5,243.4L92.5,243.4z"/>
				<path class="st1" d="M92.4,244.2c-4-0.3-7.1,0.8-8.3,1.3C88,243.8,91.7,244.1,92.4,244.2z"/>
				<path class="st1" d="M83.8,245.6c-0.2,0.1-0.3,0.1-0.3,0.1s0,0,0,0C83.6,245.7,83.7,245.6,83.8,245.6z"/>
			</g>
			<g>
			</g>
		</g>
	</g>
</g>
<g id="XMLID_813_">
	<g id="XMLID_453_">
		<g>
			<path id="XMLID_21_" class="st6" d="M356.6,320.1c-0.1,0-0.2-0.1-0.3-0.1c0,0,0.2,0,0.1-0.1c-0.1,0-0.5,0-0.6,0
				c-0.1,0-0.6,0-0.6-0.1c0-0.2,1.2,0,1.3-0.1c-0.1-0.1-0.4-0.1-0.6-0.1c0-0.1-0.1,0-0.2-0.1c0,0,0,0,0,0c-0.8,0-1.5,0-2.3-0.1
				c-0.3,0-0.5-0.2-0.9-0.2c-0.8-0.1-1.6-0.2-2.4-0.2c-0.4,0-0.9-0.1-1.2,0c-0.5,0-1.1,0-1.6,0c-0.4,0-0.8,0-1.2,0
				c-0.4,0-0.8,0-1.2,0.1c-0.2-0.1-0.4,0-0.6,0c-0.3,0-0.4,0-0.7,0c-0.4,0-0.8,0-1.2,0c-0.8,0.1-1.5,0-2.3,0c-0.3,0-0.6,0-1,0.1
				c-0.3,0-0.4,0-0.6,0c-0.2,0-0.5,0-0.7,0.1c-1.7,0.2-3.4,0-5.1,0.1c-0.4,0-0.7,0-1.1,0c-0.2,0-0.6,0-0.9,0.1
				c-0.4,0.1,0,0.3,0.2,0.4c0,0-0.1,0-0.1,0.1c0,0.1,0.1,0-0.1,0.1c-0.2,0.1-0.3,0-0.2,0.2c0,0,0.2,0.2,0.1,0.2c0,0-0.1,0.1-0.1,0.1
				c0,0-0.1,0-0.1,0c-0.1,0.1,0.1,0.1,0.1,0.1c0,0.1,0,0.1,0.1,0.2c0,0,0.1,0.2,0.1,0.2c0,0,0.2,0.1,0.2,0.2c0,0.1,0,0-0.1,0
				c-0.2,0-0.4-0.1-0.5,0c-0.1,0.1,0.1,0.1,0.1,0.2c0.1,0.1,0.2,0.2,0.2,0.2c0,0-0.1,0.1-0.1,0.2c0,0.1,0.2,0.1,0.3,0.1
				c0.3,0.2,0.6,0.2,1,0.3c0.3,0,0.5,0,0.8,0.1c0.1,0,0,0.1,0.1,0.1c0,0,0.5,0,0.5,0c0.3,0,0.4,0,0.8,0c0.2,0,0.5,0.1,0.7,0.1
				c0.3,0,0.7,0,1.1,0c0.1,0,0.2,0,0.3,0c0,0,0.2,0.1,0.1,0.1c-0.1,0,0.3,0,0.2,0c0.1,0,0,0,0.2,0.1c0.1,0,0.1,0,0.1-0.1
				c0.1,0,0.2,0.1,0.3,0.1c0.2,0,0.3-0.2,0.6-0.1c-0.1,0-0.2,0.1-0.1,0.1c0,0,0.4,0,0.4,0c0.3,0,0.4,0.2,0.5,0c0,0-0.3,0-0.1-0.1
				c0.1-0.1,0.1,0,0.2,0c0.1,0.1,0,0.1,0.2,0.1c0,0,0.2,0,0.3,0c0,0,0.1,0.1,0.1,0.1c0,0,0.2,0,0.2-0.1c0.1,0,0-0.2,0.1-0.1
				c0,0,0,0.1,0,0.1c0,0,0,0.1,0,0.1c0.1,0,0.2,0,0.3,0c0.1-0.1,0.1-0.1,0.2,0c0.1,0,0.1,0,0.3,0c0,0-0.2-0.1,0-0.1
				c0,0.1-0.1,0.1,0.1,0.2c0.1,0,0.2,0.1,0.4,0c0.1,0.1,0.1,0.1,0.2,0c0,0,0.2-0.1,0.2-0.1c0,0.2,0.6,0.1,0.7,0.1c0.1,0,0.4,0,0.6,0
				c0.6,0,1.2-0.1,1.7-0.1c1.1,0,2.3-0.2,3.3-0.3c0.6-0.1,1.2-0.1,1.8-0.2c0.3,0,0.6-0.1,0.8-0.1c0.3,0,0.6,0,0.8-0.1
				c0.2,0,0.3-0.1,0.4-0.1c0.1,0,0.1,0,0.1,0c0.1,0,0,0.1,0.2,0c0.1,0,0-0.1,0-0.1c0.3-0.1,0.6-0.1,0.9-0.1c0.5-0.1,0.9-0.1,1.3-0.2
				c0.1,0,0.3,0,0.5,0c0,0,0.2-0.1,0.2-0.1c0.1,0-0.1-0.1,0-0.1c0.1-0.1,0.2-0.1,0.3,0c0,0-0.1,0,0,0.1c0.5,0,0.1,0,0.1-0.1
				c0.1-0.1,0.4,0.1,0.2-0.1c0,0-0.2,0-0.2,0c0-0.1,0.2-0.1,0.2-0.1c0,0-0.1,0-0.1,0c0,0,0.2,0,0.2,0c0,0,0.1,0,0.1,0
				c0.1,0-0.1,0-0.1,0c0-0.2,0,0,0.1-0.1c-0.3-0.2,0.7-0.1,0.7-0.1c0,0-0.4,0-0.4,0c-0.1,0-0.3,0-0.5,0c-0.1,0,0-0.1-0.1-0.1
				c0,0-0.2,0-0.2,0c0,0,0.9-0.1,1-0.2c0.1-0.1,0-0.1,0-0.1c0-0.1,0.1,0,0.3-0.1c-0.1,0-0.2,0-0.2-0.1c0.2,0,0.2-0.1,0.3-0.1
				C356.2,320.1,356.6,320.2,356.6,320.1C356.6,320.1,356.6,320.1,356.6,320.1C356.6,320.1,356.6,320.1,356.6,320.1z"/>
		</g>
	</g>
	<path id="XMLID_482_" class="st7" d="M357.5,317.8c-0.1,0-0.3-0.1-0.4-0.1c-0.1,0-0.4,0-0.5-0.1c0.2-0.1,0.1-0.2-0.1-0.2
		c-0.1,0-0.3,0-0.4,0c-0.1,0-0.1-0.1-0.2-0.1c-0.1,0-0.6,0-0.6-0.1c0-0.1,0.4,0,0.5-0.1c0.1-0.1-0.7-0.2-0.8-0.2
		c-0.2,0-0.5,0-0.7-0.1c-0.1,0-0.1-0.1-0.2-0.1c0,0,0.1,0.1,0,0.1c0,0-0.4,0-0.4,0c-0.2-0.1,0.4-0.1,0.4-0.1c-0.1-0.1-0.3,0-0.4,0
		c-0.1,0-0.3-0.1-0.5-0.1c-0.4-0.1-0.8-0.1-1.2-0.2c-0.3,0-0.8-0.1-1.2-0.1c-0.1,0-0.2,0-0.2,0c0,0-0.1-0.1-0.1-0.1
		c-0.3,0-0.6,0-0.8,0c-0.9,0-2.1-0.1-3.1-0.2c-0.4,0-0.7-0.1-1.1-0.1c-0.3,0-0.4-0.1-0.7,0c0,0-0.1,0-0.1,0c-0.2,0-0.3,0-0.5,0
		c-0.2,0-0.5-0.1-0.6,0c-0.1,0-0.1,0.1-0.3,0.1c-0.1,0,0,0-0.1,0c-0.1,0-0.2,0-0.3,0c-0.1,0-0.3,0-0.4,0c0,0-0.1,0-0.1,0
		c-0.1,0-0.4,0-0.6,0c-0.1,0-0.1,0-0.2,0c-0.1,0-0.1-0.1-0.3,0c-0.1,0-0.5,0-0.6,0.1c-0.1,0-0.1,0.1-0.2,0.1c0,0-0.3,0-0.3,0
		c-0.3,0-0.6,0.1-1,0.1c-1,0-2.1,0-3.1,0c-1.1,0-2.1,0-3.1,0.2c-0.4,0.1-0.8,0.3-1,0.6c-0.2,0.2-0.4,0.2-0.8,0.3
		c-0.3,0.1-0.7,0.2-1,0.3c-0.1,0,0,0.1-0.1,0.1c-0.1,0-0.3,0-0.4,0c-0.3,0.1,0.1,0.2,0.1,0.3c-0.3,0-0.6,0.2-0.7,0.4
		c-0.1,0.2,0,0.3,0.1,0.5c0.1,0.2,0.1,0.4,0.6,0.4c0.1,0,0.2,0,0.2,0c0.3,0,0.4,0.3,0.6,0.3c0.5,0,1,0,1.5,0c0.1,0,0.3,0,0.4,0
		c0.3,0,0.3,0,0.6,0c0.3,0,0.6,0,0.9-0.1c0.1,0,0.1,0,0.3,0.1c0.1,0.1,0.2,0.2,0.3,0.2c0.4,0.1,1,0,1.4,0c0.6,0,1.2-0.3,1.9-0.3
		c1.2-0.1,2.2,0.1,3.3,0.2c2,0.2,4.3,0.2,6.3,0.1c0.6,0,1.3,0,1.9-0.1c0.1,0,0.3,0,0.3,0c0.1,0,0-0.1,0.1-0.1c0.1,0,0.1,0.1,0.1,0.1
		c0.1,0,0.2,0,0.3,0c0.1,0,0.4,0,0.5,0c0.1,0,0-0.2,0.1-0.2c0.2-0.1,0.2,0,0.3,0.1c0.1,0-0.2,0.3,0.4,0.1c0,0,0.3,0,0.2,0
		c0,0,0-0.1,0.1,0c0,0,0.2,0.1,0.2,0.1c0.1,0,0.4,0,0.5,0c0.2-0.1,0.1-0.1-0.1-0.1c0-0.3,0.3,0,0.4,0.1c0.1,0,0.8,0,0.9,0
		c0.1-0.1,0-0.2,0.1-0.2c-0.1,0,0.3,0.1,0.3,0.1c0.1,0,0.1-0.1,0.2-0.1c0,0,0.2,0,0.2,0c0,0,0,0,0.1-0.1c0.1,0.1,0.4,0,0.5-0.1
		c0.1,0,0.1-0.1,0.2-0.2c0.1,0,0.3,0,0.4,0c0.1,0,0.4-0.1,0.5-0.1c0.3-0.2-0.5,0-0.1-0.3c0.2-0.1,0.3,0,0.4-0.1c0,0,0.2-0.1,0.3-0.1
		c0.1,0,0.5,0.1,0.4-0.1c-0.1-0.2-1.5,0-1.2-0.4c0,0-0.2,0-0.2,0c0,0,0.1-0.1,0.1-0.1c0.3-0.1,0.1,0,0.2,0.1
		c0.1,0.1-0.1,0.1,0.1,0.1c0,0,0.2,0,0.2,0c0,0-0.1-0.1,0-0.1c0,0,0.1,0,0.1,0c0.1,0,0.2,0,0.3,0.1c0.1,0,0.1,0.1,0.3,0.1
		C357.4,317.9,357.7,317.9,357.5,317.8z"/>
	<g id="XMLID_458_">
		<g>
			<path id="XMLID_136_" class="st8" d="M356.8,315.5c-0.5,0-1.2,0-1.8,0c0,0,0.1-0.1,0.2-0.1c0.1,0,0.2,0,0.3-0.1
				c0,0-0.1-0.1,0-0.1c0,0,0.1,0,0.2-0.1c0,0,0.5-0.2,0.1-0.2c0-0.1,0.5,0,0.5-0.1c0,0-1.2,0-1.4,0c0-0.1,0.3,0,0.4,0
				c0.1-0.1-0.5,0-0.6-0.1c0.1-0.1,0.1,0,0-0.1c0.3-0.2,0.8-0.1,1.1-0.2c-0.1-0.1-0.5,0-0.7,0c-0.3,0-0.9,0.1-1.1-0.1
				c0.1-0.1,0.6,0,0.7-0.1c0-0.1-0.7,0-0.7-0.1c0.1,0,0.1-0.1,0.1-0.1c0,0-0.3,0-0.3,0c0.1,0,0.1,0,0.1,0c0,0-0.4-0.1-0.4-0.1
				c0-0.1,0.8-0.2,1-0.2c0.2,0,0.5,0,0.7-0.1c0.1,0,0.3,0,0.3,0c0.1,0,0.3,0,0.4,0c0.1,0,0,0,0,0c0,0,0.3-0.1,0.4-0.1
				c0.2,0,0.4,0,0.5-0.1c-0.1,0-0.7,0-0.8,0c-0.3,0-0.5,0-0.8,0c-0.5,0-0.9,0-1.4-0.1c-0.8-0.1-1.6-0.2-2.4-0.2
				c-0.9-0.1-1.9-0.1-2.8-0.1c-1.1,0-2.2-0.1-3.3-0.1c-1.5,0-3,0-4.4,0c-0.9,0-2,0-3,0.1c-1.8,0.1-3.7,0.1-5.5,0.3
				c-0.3,0-1.7,0.2-1.2,0.5c0.1,0,0.3,0,0.3,0.1c0,0,0.2,0.2,0.2,0.2c0,0.1,0.1,0,0,0.1c0,0-0.2,0-0.3,0c-0.1,0.1,0.3,0,0.4,0
				c0,0.1-0.4,0-0.4,0.1c0,0,0.8,0,0.8,0.1c0,0.1-0.4,0-0.5,0c0,0,0.4,0,0.4,0c0,0-0.7,0-0.8,0c0,0,0.1,0.1,0.1,0.1
				c0,0.1-0.5,0-0.4,0.1c0.1,0.1,0.4,0.1,0.5,0.1c-0.1,0.1-0.1,0-0.1,0.2c0,0.1,0.2,0,0,0.1c-0.1,0-0.5,0-0.6,0c-0.2,0-0.5,0-0.6,0
				c0,0-0.1,0.1-0.1,0.1c0,0,0,0.2,0,0.2c0.1,0,0.2,0,0.3,0c0.1,0.1,0,0.1,0.1,0.2c0,0,0.2,0.1,0.3,0.2c0,0,0.1,0.1,0.2,0.1
				c0.1,0.1,0,0.1,0.1,0.1c0.1,0.1,0.4,0.1,0.5,0.2c0.1,0.1,0.1,0.1,0.3,0.2c0.2,0.1-0.1,0.1,0.3,0.1c0,0,0.1,0,0.1,0
				c0.1,0,0.9,0.1,0.9,0.1c0,0,0.1,0,0.1,0c0.2,0,0.3,0.1,0.5,0.1c0.1,0,0.1,0,0.3,0c0.1,0,0.4,0,0.5,0c0.2,0,0.7,0.1,0.8,0
				c-0.2,0.1,0.5,0.1,0.5,0.1c0.1,0,0.7,0,0.7,0c0.1-0.1,0.7-0.1,0.9-0.1c0.2,0,0.5,0,0.7,0c0.3,0,0.6,0,0.9,0c0.2,0,0.6,0,0.7,0
				c0.2-0.1,0,0,0.2,0c0.2,0,0.3,0,0.4,0c0.5,0,1.1,0,1.6,0c0.6,0,1.3,0,1.8,0c0.3,0,0.5,0,0.8,0c0.3,0,0.6,0,0.8,0
				c1.4,0,2.9,0,4.5,0c0.7,0,1.7,0,2.3,0c0.2,0,2.2,0,2.2,0c0,0-0.5,0-0.5,0c-0.1,0-0.2,0-0.4,0c-0.1,0-0.3,0-0.5,0
				c-0.1,0-0.2,0-0.3,0c-0.1,0-0.1,0-0.2,0c-0.1,0-0.1,0.1-0.1,0c0,0,0,0,0,0c0-0.1,1.6,0,1.7,0c0.1,0,0.2,0,0.3,0
				c0.2,0,0.2,0,0.4,0c0.4,0,0.8,0,1.2,0c0.1,0,1.3-0.2,1-0.3c-0.1,0-0.2,0-0.3,0C356.5,316,356.9,315.5,356.8,315.5z"/>
			<path id="XMLID_135_" class="st8" d="M354.4,316.5C354.3,316.5,354.3,316.5,354.4,316.5C354.5,316.5,354.5,316.5,354.4,316.5
				C354.4,316.5,354.5,316.4,354.4,316.5z"/>
			<path id="XMLID_134_" class="st8" d="M354.8,316.5c0,0-0.2,0-0.2,0C354.5,316.5,354.9,316.5,354.8,316.5z"/>
			<path id="XMLID_133_" class="st8" d="M354.9,316.4C354.8,316.4,354.8,316.4,354.9,316.4C354.8,316.5,355,316.5,354.9,316.4
				C354.9,316.4,354.9,316.4,354.9,316.4z"/>
			<path id="XMLID_132_" class="st8" d="M355.3,316.5c-0.1,0-0.3-0.1-0.3,0c0,0,0.5,0.1,0.4,0C355.5,316.4,355.4,316.4,355.3,316.5
				C355.3,316.4,355.4,316.5,355.3,316.5z"/>
			<path id="XMLID_131_" class="st8" d="M331.1,314.4C331.1,314.4,331.1,314.4,331.1,314.4C331.1,314.4,331.1,314.4,331.1,314.4z"/>
			<path id="XMLID_130_" class="st8" d="M345.7,312.9C345.6,312.9,345.7,312.9,345.7,312.9L345.7,312.9z"/>
			<path id="XMLID_129_" class="st8" d="M355,316.2C355,316.2,355,316.2,355,316.2L355,316.2z"/>
			<path id="XMLID_128_" class="st8" d="M339.8,316.4C339.8,316.4,339.8,316.4,339.8,316.4L339.8,316.4z"/>
			<path id="XMLID_127_" class="st8" d="M351,316.2C351,316.2,351,316.2,351,316.2L351,316.2z"/>
		</g>
	</g>
	<g id="XMLID_653_">
		<g>
			<path id="XMLID_25_" class="st9" d="M328.2,312.6c0.1,0,0.3,0.1,0.4,0.1c0,0-0.2,0-0.1,0.1c0.1,0,0.5,0,0.7,0
				c0.1,0,0.7,0,0.7,0.1c0,0.2-1.4,0-1.5,0.1c0.2,0.1,0.4,0,0.7,0c0,0.1,0.1,0,0.2,0c0,0,0,0,0,0c0.9,0,1.7,0,2.5,0.1
				c0.4,0,0.6,0.2,1,0.2c0.9,0.1,1.8,0.2,2.6,0.2c0.5,0,1,0,1.4,0c0.5,0,1.2,0,1.8,0c0.4,0,0.9,0,1.3,0c0.4,0,0.9,0,1.4-0.1
				c0.2,0.1,0.5,0,0.6,0c0.3,0,0.5,0,0.8,0c0.4,0,0.9,0,1.3,0c0.8,0,1.7,0,2.6,0c0.3,0,0.7,0,1.1-0.1c0.3,0,0.5,0,0.7,0
				c0.3,0,0.5,0,0.8,0c1.9-0.2,3.8,0,5.7-0.1c0.4,0,0.8,0,1.2,0c0.3,0,0.7,0,1-0.1c0.5-0.1,0-0.2-0.2-0.4c0,0,0.1,0,0.1-0.1
				c0-0.1-0.1,0,0.1-0.1c0.2-0.1,0.4,0,0.2-0.2c0,0-0.2-0.1-0.2-0.2c0,0,0.1-0.1,0.1-0.1c0,0,0.1,0,0.1,0c0.1-0.1-0.1-0.1-0.1-0.1
				c0-0.1,0-0.1-0.1-0.2c0,0-0.2-0.2-0.1-0.2c0,0-0.2-0.1-0.2-0.1c0-0.1,0,0,0.2,0c0.2,0,0.4,0.1,0.6,0c0.1-0.1-0.1-0.1-0.1-0.1
				c-0.1-0.1-0.2-0.1-0.2-0.2c0,0,0.1-0.1,0.1-0.1c0-0.1-0.2-0.1-0.3-0.1c-0.4-0.1-0.7-0.2-1.2-0.2c-0.3,0-0.6,0-0.9-0.1
				c-0.1,0,0-0.1-0.1-0.1c-0.1,0-0.5,0-0.6,0c-0.3,0-0.5,0-0.9,0c-0.2,0-0.5-0.1-0.7-0.1c-0.3,0-0.8,0-1.2,0c-0.1,0-0.3,0-0.3,0
				c0,0-0.2,0-0.2,0c0.1,0-0.4,0-0.2,0c-0.1,0,0,0-0.2-0.1c-0.1,0-0.1,0-0.1,0.1c-0.1,0-0.2-0.1-0.3-0.1c-0.2,0-0.3,0.2-0.6,0.1
				c0.1,0,0.2-0.1,0.1-0.1c0,0-0.4,0-0.5,0c-0.4,0-0.5-0.2-0.5,0c0,0,0.3,0,0.1,0.1c-0.2,0-0.1,0-0.2,0c-0.2-0.1,0-0.1-0.2-0.1
				c0,0-0.3,0-0.4,0c0,0-0.1-0.1-0.1-0.1c-0.1,0-0.2,0-0.2,0.1c-0.1,0,0,0.1-0.1,0.1c0,0,0-0.1,0-0.1c0,0,0-0.1,0-0.1
				c-0.1,0-0.2,0-0.3,0c-0.1,0.1-0.1,0.1-0.2,0c-0.1,0-0.2,0-0.3,0c0,0,0.3,0.1,0,0.1c0-0.1,0.1-0.1-0.1-0.1c-0.1,0-0.3-0.1-0.4,0
				c-0.1,0-0.1,0-0.2,0c0,0-0.2,0.1-0.3,0.1c0-0.1-0.6-0.1-0.7-0.1c-0.1,0-0.5,0-0.7,0c-0.6,0-1.4,0-1.9,0.1c-1.3,0-2.5,0.1-3.7,0.3
				c-0.7,0.1-1.3,0.1-2,0.2c-0.3,0-0.6,0.1-0.9,0.1c-0.3,0-0.6,0-0.9,0c-0.2,0-0.3,0.1-0.5,0.1c-0.1,0-0.1,0-0.2,0
				c-0.1,0,0-0.1-0.2,0c-0.1,0,0,0.1-0.1,0.1c-0.3,0-0.7,0.1-1,0.1c-0.6,0-1,0.1-1.4,0.1c-0.1,0-0.3,0-0.6,0c0,0-0.2,0.1-0.2,0.1
				c-0.1,0,0.1,0,0.1,0.1c-0.1,0-0.2,0.1-0.3,0c0,0,0.1,0,0,0c-0.5,0-0.1,0-0.1,0.1c-0.1,0.1-0.4-0.1-0.3,0.1c0,0,0.2,0,0.2,0
				c0,0.1-0.3,0.1-0.3,0.1c0,0,0.1,0,0.1,0c0,0-0.2,0-0.2,0c0,0-0.2,0-0.1,0c-0.2,0,0.1,0,0.1,0c0,0.2,0,0-0.1,0.1
				c0.3,0.2-0.8,0-0.7,0.1c0,0,0.4,0,0.5,0c0.1,0,0.4,0,0.5,0c0.1,0,0,0.1,0.1,0.1c0,0,0.2,0,0.3,0c0,0-1,0.1-1.1,0.2
				c-0.2,0.1,0,0.1,0,0.1c0,0.1-0.1,0-0.3,0.1c0.1,0,0.2,0,0.2,0.1c-0.2,0-0.2,0.1-0.3,0.1C328.7,312.6,328.2,312.6,328.2,312.6
				C328.2,312.6,328.2,312.6,328.2,312.6C328.3,312.6,328.2,312.6,328.2,312.6z"/>
		</g>
	</g>
	<g id="XMLID_337_">
		<g>
			<path id="XMLID_78_" class="st10" d="M328.2,310.2c0.2,0,0.6,0,0.8,0c0.2,0,0.1,0.1,0.3,0.1c0.1,0.2,0.8-0.1,0.9,0.1
				c0,0-0.3,0.1-0.3,0.1c0.1,0,0.5,0,0.6,0c0.2,0,0.4,0,0.4,0.1c0,0,0.2,0,0.3,0c0.2,0-0.1,0,0.3,0.1c0.1,0,0.1,0,0.2,0c0,0,0,0,0,0
				c0.5,0,1.1,0,1.6,0c0.7,0.1,1.4,0.1,2.2,0.2c1.8,0.2,3.6,0.2,5.5,0.2c1.1,0,2.4,0,3.5,0c1.2,0,2.5-0.1,3.7-0.1
				c0.9,0,1.8,0.1,2.8,0.2c0.9,0,1.8,0.2,2.7,0.1c0.2,0,0.5-0.1,0.7-0.1c0.1,0,0.3,0,0.5,0c0.1,0,0.2-0.1,0.3-0.1
				c0.1,0,0.3,0,0.4-0.1c0.1-0.1,0-0.1,0.1-0.2c0,0,0.1-0.1,0.1-0.1c0,0,0.1-0.1,0.1-0.1c0-0.1-0.6-0.2-0.5-0.3c-0.1,0,0.2,0,0.2,0
				c-0.1-0.1-0.5-0.1-0.6-0.1c0-0.1,0.1,0,0.2-0.1c-0.2-0.2,0.8-0.1,0.9-0.1c0,0,0.8,0,0.8,0c0,0-0.2,0-0.2-0.1c0.1,0,0.7,0,0.8,0
				c0,0-0.5-0.1-0.5-0.1c0.1-0.1,0.8,0.1,0.9-0.1c0.1-0.1-0.1-0.1-0.2-0.2c0,0-0.1-0.1-0.2-0.1c-0.1,0-0.2,0-0.2-0.1
				c0.1-0.1,0.6,0,0.7-0.1c-0.1,0-0.5,0-0.6-0.1c-0.2,0-0.4-0.1-0.6-0.1c-0.3,0-0.5-0.1-0.8-0.2c-0.9-0.2-1.7-0.3-2.6-0.3
				c-0.4,0-1,0-1.3-0.2c-0.2-0.1-0.2-0.2-0.4-0.3c-0.2-0.1-0.3-0.1-0.5-0.1c-0.6-0.1-1.3-0.1-1.9-0.1c-0.7,0-1.3-0.1-1.9-0.1
				c-1.7-0.1-3.1-0.2-4.8-0.2c0-0.1,0.1-0.1-0.1-0.2c-0.1,0-0.2,0-0.3,0c-0.1,0-0.2,0-0.3,0c-0.1,0-0.2,0-0.3,0c-0.1,0-0.2,0-0.4,0
				c-0.2,0-0.3,0-0.6,0c-0.6,0-1.2,0-1.8,0c-0.4,0-0.8,0.1-1.1,0.1c-0.2,0-0.3,0.1-0.4,0.1c-0.2,0-0.3,0-0.4,0.1
				c-0.6,0.2-1.5,0-2.3,0c-0.6,0-1.2,0-1.8,0c-0.4,0-0.8,0.1-1.2,0.1c-0.2,0-0.3,0-0.5,0.1c0,0-0.1,0-0.2,0
				c-0.1,0.1,0.1,0.1,0.2,0.1c0,0.1-0.6,0.2-0.6,0.2c-0.1,0-0.4,0.1-0.5,0.2c0,0.1,0.3,0,0.4,0c0.2,0-0.1,0.1,0,0.1c0,0,0.1,0,0.2,0
				c-0.1,0.1-0.4,0-0.5,0.1c0,0,0.3,0,0.3,0c0.1,0.1-0.1,0.1-0.1,0.1c0,0.1-0.1,0,0.1,0c0.1,0,1-0.1,1.1,0c0.1,0.1-0.3,0.2-0.4,0.2
				c-0.2,0-0.4,0-0.6,0.1c-0.2,0-0.2,0.1-0.3,0.1c-0.1,0-0.4,0.1-0.5,0.1c-0.1,0,0.4,0,0.4,0c0,0.1-0.5,0.1-0.5,0.1
				c0,0,0.1,0.1,0,0.2c-0.1,0.1-0.2,0.1-0.4,0.1c-0.3,0.1,0,0.1,0,0.2C328.4,310.1,328.2,310.2,328.2,310.2
				C328.3,310.2,328.2,310.2,328.2,310.2z"/>
			<path id="XMLID_77_" class="st10" d="M329.2,308.4C329.2,308.4,329.2,308.4,329.2,308.4C329.1,308.4,329.1,308.4,329.2,308.4
				C329.2,308.4,329.2,308.4,329.2,308.4z"/>
			<path id="XMLID_76_" class="st10" d="M346.8,310.4C346.8,310.4,346.8,310.4,346.8,310.4L346.8,310.4z"/>
			<path id="XMLID_75_" class="st10" d="M345.8,309.3C345.9,309.3,345.8,309.3,345.8,309.3L345.8,309.3z"/>
		</g>
	</g>
	<g id="XMLID_444_">
		<g>
			<path id="XMLID_64_" class="st11" d="M357.5,305.2c-0.2-0.2-0.6-0.2-0.9-0.2c-0.6,0-1.3-0.1-1.8,0c-0.6,0-1.5,0-2.1,0
				c-1,0-2,0-3.1,0c-0.9,0-1.7-0.1-2.8-0.1c-2.3-0.1-4.6,0-6.9,0.1c-2.8,0.1-5.6,0.2-8.3,0.2c-0.3,0-1.4-0.1-1.5,0.2
				c-0.1,0.2,0.2,0,0.3,0.1c0.2,0.1-0.1,0.1-0.3,0.2c-0.5,0.1,0,0.4-0.4,0.5c-0.2,0-0.4,0-0.4,0.2c0,0.1,0.2,0.1,0.2,0.2
				c-0.1,0-0.1,0-0.2,0c0.1,0,0.1,0,0.2,0.1c0.1,0,0.2,0,0.3,0c0.1,0,0.1,0.1,0.2,0.1c0.3,0.1,0.6,0.1,0.9,0.2c0,0,0.1,0,0.1,0
				c0.1,0,0.1,0.1,0.2,0.1c0.2,0.1,0.5,0,0.6,0.1c0.1,0,0.1,0.1,0.1,0.2c0.1,0.1,0.2,0.1,0.3,0.2c0.4,0.2,0.9,0.3,1.4,0.3
				c0.2,0,0.5,0,0.8,0.1c0.1,0,0.2,0.1,0.3,0.1c0.5,0.1,1.1,0.1,1.7,0.1c0.5,0,1.1,0,1.6-0.1c0.3-0.1,0.7-0.1,1.1-0.1
				c1.1,0,2.2,0,3.3,0c0.3,0,0.7,0,1,0c0.2,0,0.3,0.1,0.5,0.1c0.5,0,1,0,1.5,0c0.8-0.1,1.7-0.1,2.6-0.2c0.4,0,0.9,0.1,1.4,0.1
				c0.5,0,1,0,1.5-0.1c0.4,0,0.7-0.1,1.1-0.1c0.2,0,0.8-0.1,0.9-0.2c0,0-0.2,0-0.2-0.1c0,0,0.2,0,0.2,0c0.3,0,0.4,0,0.5-0.1
				c0.2-0.1,0.1-0.1,0.4-0.1c0.1,0,0.6,0,0.7-0.1c0.1-0.1-0.3-0.1-0.3-0.1c0.1-0.1,0.7,0,0.3-0.1c-0.1,0-0.3,0-0.4,0
				c0,0-0.3,0-0.4,0c-0.2-0.1,0.2-0.1,0.2-0.1c0.1-0.1-0.1-0.1,0-0.2c0.1,0,0.4,0,0.5,0c0.2,0,1.1,0,1.2-0.1c0,0-0.7-0.1-0.8-0.1
				c-0.4,0-0.8,0-1.2-0.1c0,0,0.1-0.1,0.2-0.1c0.3-0.1,0.1,0,0.3,0c0.1,0,0.2,0,0.2,0c0,0,0.2,0,0.2,0c0.2,0,0.4,0,0.4-0.1
				c0.1-0.1-0.1-0.2,0.1-0.2c0.1,0,0.2,0,0.2,0c0.1,0,0.1-0.1,0.1-0.1c0.1-0.1,0.3-0.2,0.5-0.2C356.3,305.3,357.5,305.4,357.5,305.2
				C357.5,305.2,357.5,305.2,357.5,305.2z"/>
			<path id="XMLID_62_" class="st11" d="M357.6,305.1C357.6,305.1,357.6,305.1,357.6,305.1C357.6,305.1,357.7,305.1,357.6,305.1z"/>
			<path id="XMLID_50_" class="st11" d="M345,306.8C345,306.8,345,306.8,345,306.8L345,306.8z"/>
		</g>
	</g>
</g>
<g id="XMLID_1_">
	<g id="XMLID_63_">
		<g>
			<path id="XMLID_26_" class="st6" d="M260.5,335.7c-0.1,0-0.2,0-0.3,0.1c0,0,0.2-0.1,0.1-0.1c-0.1,0-0.4,0.2-0.5,0.2
				c-0.1,0-0.5,0.2-0.5,0.2c0-0.1,1-0.5,1-0.6c-0.1,0-0.3,0.1-0.5,0.2c0-0.1-0.1,0-0.2,0c0,0,0,0,0,0c-0.6,0.3-1.2,0.6-1.8,0.8
				c-0.3,0.1-0.5,0-0.8,0.2c-0.7,0.3-1.3,0.5-1.9,0.8c-0.3,0.2-0.7,0.3-1,0.5c-0.4,0.2-0.8,0.5-1.3,0.7c-0.3,0.1-0.6,0.3-0.9,0.5
				c-0.3,0.1-0.7,0.3-0.9,0.5c-0.2,0-0.3,0.2-0.5,0.2c-0.2,0.1-0.3,0.2-0.5,0.3c-0.3,0.2-0.7,0.3-0.9,0.5c-0.6,0.3-1.2,0.6-1.8,0.9
				c-0.2,0.1-0.5,0.3-0.7,0.4c-0.2,0.1-0.3,0.2-0.5,0.3c-0.2,0.1-0.4,0.2-0.6,0.3c-1.2,0.8-2.7,1.4-4,2.1c-0.3,0.2-0.6,0.3-0.9,0.5
				c-0.2,0.1-0.5,0.3-0.6,0.4c-0.3,0.3,0.1,0.2,0.3,0.2c0,0-0.1,0.1-0.1,0.1c0,0.1,0.1,0,0,0.1c-0.1,0.2-0.3,0.2-0.1,0.3
				c0,0,0.2,0.1,0.2,0.1c0,0-0.1,0.1-0.1,0.1c0,0-0.1,0.1-0.1,0.1c0,0.1,0.1,0,0.1,0.1c0.1,0.1,0.1,0.1,0.1,0.1c0,0,0.2,0.1,0.2,0.1
				c0,0,0.2,0,0.2,0c0,0.1,0,0-0.1,0.1c-0.1,0.1-0.4,0.1-0.4,0.2c-0.1,0.1,0.1,0.1,0.2,0.1c0.1,0,0.2,0,0.3,0.1c0,0-0.1,0.1,0,0.2
				c0.1,0,0.2,0,0.3,0c0.3,0,0.6-0.1,0.9-0.2c0.2-0.1,0.4-0.2,0.6-0.3c0.1,0,0,0.1,0.1,0c0,0,0.4-0.2,0.4-0.2
				c0.2-0.1,0.3-0.2,0.6-0.3c0.2-0.1,0.4-0.1,0.6-0.2c0.2-0.1,0.6-0.3,0.9-0.4c0,0,0.2-0.1,0.2-0.1c0,0,0.2,0,0.1,0
				c0,0,0.3-0.1,0.1-0.1c0.1,0,0,0,0.2,0c0.1,0,0.1-0.1,0.1-0.1c0,0,0.2,0,0.2,0c0.1-0.1,0.1-0.3,0.4-0.3c-0.1,0.1-0.1,0.1,0,0.2
				c0,0,0.3-0.2,0.3-0.2c0.3-0.1,0.4,0,0.4-0.2c0,0-0.2,0.1-0.1,0c0.1-0.1,0.1-0.1,0.2-0.1c0.2,0,0.1,0.1,0.2,0c0,0,0.2-0.1,0.3-0.1
				c0,0,0.1,0,0.1,0c0,0,0.1-0.1,0.1-0.1c0-0.1-0.1-0.1,0.1-0.1c0,0,0,0.1,0,0.1c0,0,0.1,0.1,0.1,0.1c0.1,0,0.1-0.1,0.2-0.1
				c0-0.1,0.1-0.1,0.1-0.1c0.1,0,0.1,0,0.2-0.1c0,0-0.2,0,0-0.1c0.1,0,0,0.1,0.1,0.1c0.1,0,0.2,0,0.3-0.1c0.1,0,0.1,0,0.2-0.1
				c0,0,0.1-0.1,0.2-0.2c0.1,0.1,0.5-0.2,0.6-0.2c0.1,0,0.3-0.1,0.5-0.2c0.4-0.2,0.9-0.5,1.3-0.7c0.9-0.5,1.7-1,2.5-1.6
				c0.4-0.3,0.9-0.6,1.3-0.8c0.2-0.1,0.4-0.3,0.6-0.4c0.2-0.1,0.5-0.2,0.6-0.4c0.1-0.1,0.2-0.2,0.3-0.2c0.1,0,0.1,0,0.1-0.1
				c0.1-0.1,0.1,0,0.2-0.1c0,0,0-0.1,0-0.1c0.2-0.2,0.4-0.3,0.6-0.5c0.4-0.2,0.7-0.4,0.9-0.6c0.1-0.1,0.2-0.1,0.4-0.2
				c0,0,0.1-0.1,0.1-0.1c0-0.1-0.1,0-0.1,0c0-0.1,0.1-0.1,0.2-0.1c0,0,0,0,0,0.1c0.4-0.2,0.1-0.1,0.1-0.1c0-0.1,0.3-0.1,0.1-0.2
				c0,0-0.2,0.1-0.2,0c0,0,0.2-0.1,0.2-0.1c0,0-0.1,0-0.1,0c0,0,0.1-0.1,0.1-0.1c0,0,0.1,0,0.1,0c0.1-0.1-0.1,0-0.1,0
				c-0.1-0.2,0,0,0.1-0.1c-0.3,0,0.5-0.3,0.5-0.4c0,0-0.3,0.1-0.3,0.1c-0.1,0-0.3,0.1-0.4,0.2c-0.1,0-0.1,0-0.1,0
				c0,0-0.2,0.1-0.2,0.1c0,0,0.6-0.5,0.7-0.6c0.1-0.1-0.1,0-0.1-0.1c0-0.1,0.1-0.1,0.2-0.2c-0.1,0-0.1,0.1-0.2,0
				c0.1-0.1,0.1-0.1,0.2-0.2C260.2,335.9,260.5,335.7,260.5,335.7C260.5,335.7,260.5,335.7,260.5,335.7
				C260.5,335.7,260.5,335.7,260.5,335.7z"/>
		</g>
	</g>
	<path id="XMLID_61_" class="st7" d="M260.3,333.6c-0.1,0-0.2,0-0.3,0.1c-0.1,0-0.3,0.1-0.4,0.1c0.1-0.2,0-0.2-0.2-0.1
		c-0.1,0-0.2,0.1-0.4,0.1c-0.1,0-0.1,0-0.2,0c-0.1,0-0.5,0.2-0.5,0.2c-0.1-0.1,0.3-0.2,0.4-0.3c0.1-0.1-0.6,0.2-0.7,0.2
		c-0.2,0.1-0.4,0.2-0.6,0.3c-0.1,0-0.2,0-0.2,0.1c0,0,0.1,0,0.1,0.1c0,0-0.3,0.2-0.4,0.1c-0.2,0,0.3-0.2,0.3-0.3
		c-0.1,0-0.2,0.1-0.3,0.1c-0.1,0-0.3,0-0.4,0.1c-0.3,0.1-0.7,0.2-1,0.4c-0.3,0.1-0.7,0.2-1,0.4c0,0-0.1,0.1-0.2,0.1c0,0-0.1,0-0.1,0
		c-0.2,0.1-0.4,0.2-0.6,0.3c-0.7,0.4-1.7,0.8-2.5,1.1c-0.3,0.1-0.6,0.2-0.9,0.4c-0.2,0.1-0.3,0.1-0.6,0.2c0,0-0.1,0.1,0,0
		c-0.1,0.1-0.2,0.1-0.4,0.2c-0.1,0.1-0.4,0.1-0.5,0.2c-0.1,0.1,0,0.1-0.2,0.2c0,0,0,0-0.1,0c-0.1,0-0.2,0.1-0.2,0.1
		c0,0-0.3,0.1-0.3,0.2c0,0-0.1,0.1-0.1,0.1c-0.1,0.1-0.3,0.2-0.5,0.3c-0.1,0-0.1,0.1-0.1,0.1c-0.1,0-0.1,0-0.3,0.1
		c-0.1,0.1-0.3,0.2-0.4,0.3c-0.1,0.1,0,0.1-0.1,0.2c0,0-0.3,0.1-0.3,0.1c-0.2,0.1-0.5,0.3-0.7,0.5c-0.8,0.4-1.6,0.8-2.5,1.2
		c-0.8,0.4-1.7,0.8-2.4,1.4c-0.3,0.3-0.5,0.5-0.6,0.8c-0.1,0.2-0.2,0.4-0.5,0.6c-0.2,0.2-0.5,0.4-0.6,0.6c0,0.1,0,0.1,0,0.1
		c-0.1,0.1-0.2,0.1-0.3,0.2c-0.1,0.2,0.2,0.1,0.2,0.2c-0.3,0.1-0.4,0.4-0.4,0.5c0,0.2,0.1,0.2,0.3,0.3c0.2,0.1,0.2,0.3,0.6,0
		c0.1,0,0.1-0.1,0.1-0.1c0.2-0.1,0.4,0.1,0.6,0c0.4-0.2,0.8-0.4,1.2-0.6c0.1-0.1,0.2-0.1,0.3-0.2c0.2-0.1,0.2-0.1,0.4-0.2
		c0.2-0.1,0.4-0.3,0.7-0.4c0.1-0.1,0.1-0.1,0.3-0.1c0.1,0,0.2,0,0.3,0c0.3-0.1,0.8-0.4,1.1-0.6c0.5-0.3,0.9-0.7,1.3-1
		c0.9-0.5,1.8-0.8,2.7-1.2c1.7-0.7,3.5-1.5,5-2.4c0.5-0.3,1-0.5,1.4-0.8c0.1,0,0.2-0.1,0.3-0.2c0-0.1,0-0.1,0.1-0.2c0,0,0.1,0,0.1,0
		c0.1,0,0.1,0,0.2-0.1c0.1,0,0.3-0.2,0.4-0.2c0-0.1-0.1-0.1,0-0.2c0.1-0.2,0.2,0,0.2,0c0.1,0-0.1,0.3,0.3,0c0,0,0.2-0.1,0.1-0.1
		c0,0,0,0,0-0.1c0,0,0.2,0,0.2,0c0.1,0,0.3-0.1,0.4-0.2c0.1-0.1,0-0.1-0.1-0.1c-0.1-0.2,0.2-0.1,0.4-0.1c0.1,0,0.7-0.3,0.7-0.4
		c0.1-0.1-0.1-0.1,0-0.2c0,0,0.2-0.1,0.2-0.1c0.1,0,0.1-0.1,0.2-0.2c0,0,0.1-0.1,0.2-0.1c0,0,0,0,0-0.1c0.1,0,0.3-0.2,0.4-0.3
		c0.1-0.1,0-0.1,0.1-0.2c0.1-0.1,0.2-0.1,0.3-0.2c0.1-0.1,0.3-0.2,0.3-0.3c0.1-0.2-0.4,0.2-0.2-0.1c0.1-0.1,0.2-0.2,0.3-0.2
		c0,0,0.1-0.1,0.2-0.2c0.1,0,0.4-0.1,0.3-0.2c-0.2-0.1-1.2,0.6-1.1,0.1c0,0-0.1,0-0.2,0c0,0,0.1-0.1,0.1-0.1c0.2-0.2,0.1-0.1,0.2,0
		c0.1,0,0,0.1,0.1,0c0,0,0.1-0.1,0.2-0.1c0,0-0.1,0-0.1-0.1c0,0,0.1,0,0.1,0c0.1,0,0.2-0.1,0.2-0.1c0.1,0,0.1,0,0.3,0
		C260.2,333.7,260.5,333.6,260.3,333.6z"/>
	<g id="XMLID_33_">
		<g>
			<path id="XMLID_146_" class="st8" d="M258.8,332c-0.4,0.2-0.9,0.5-1.4,0.7c0,0,0.1-0.1,0.1-0.2c0-0.1,0.1-0.1,0.2-0.2
				c0,0-0.1,0-0.1-0.1c0,0,0.1-0.1,0.1-0.1c0,0,0.3-0.3,0-0.2c0-0.1,0.4-0.2,0.3-0.3c0,0-1,0.5-1.1,0.5c0-0.1,0.3-0.1,0.3-0.2
				c0-0.1-0.4,0.2-0.5,0.2c0-0.1,0,0-0.1-0.1c0.2-0.3,0.6-0.4,0.8-0.6c-0.1,0-0.4,0.2-0.5,0.3c-0.2,0.1-0.7,0.4-0.9,0.4
				c0-0.1,0.5-0.3,0.5-0.3c0-0.1-0.5,0.3-0.6,0.2c0,0,0-0.1,0-0.1c0,0-0.2,0.1-0.2,0.1c0.1,0,0.1,0,0.1-0.1c0,0-0.3,0.1-0.4,0.1
				c0-0.1,0.6-0.5,0.7-0.5c0.2-0.1,0.4-0.2,0.6-0.3c0.1,0,0.2-0.1,0.3-0.1c0.1-0.1,0.2-0.1,0.3-0.2c0,0,0,0-0.1,0
				c0,0,0.2-0.2,0.2-0.3c0.1-0.1,0.3-0.2,0.4-0.3c-0.1,0-0.6,0.3-0.6,0.3c-0.2,0.1-0.4,0.2-0.6,0.3c-0.4,0.2-0.8,0.3-1.1,0.5
				c-0.6,0.3-1.3,0.5-2,0.8c-0.8,0.3-1.5,0.7-2.3,1c-0.8,0.4-1.8,0.8-2.6,1.2c-1.2,0.6-2.3,1.2-3.5,1.8c-0.7,0.4-1.6,0.8-2.3,1.2
				c-1.4,0.8-2.9,1.6-4.2,2.4c-0.2,0.1-1.3,0.9-0.7,0.8c0.1,0,0.2-0.1,0.3-0.1c0,0,0.2,0.1,0.2,0.1c0,0.1,0.1,0,0,0.1
				c0,0-0.2,0.1-0.2,0.1c0,0.1,0.2-0.1,0.3-0.1c0,0.1-0.3,0.2-0.3,0.2c0,0,0.6-0.4,0.6-0.2c0,0.1-0.3,0.1-0.3,0.2
				c0,0,0.3-0.1,0.3-0.1c0,0-0.5,0.3-0.6,0.3c0,0,0.1,0,0.1,0c0,0.1-0.4,0.2-0.2,0.3c0.1,0.1,0.3-0.1,0.5-0.1
				c-0.1,0.1-0.1,0.1,0,0.2c0,0,0.2-0.1,0.1,0.1c-0.1,0.1-0.4,0.2-0.5,0.3c-0.2,0.1-0.4,0.2-0.5,0.3c0,0-0.1,0.1-0.1,0.1
				c0,0,0.1,0.1,0.1,0.1c0.1,0,0.2-0.1,0.2-0.1c0.1,0,0,0.1,0.1,0.1c0,0,0.2,0,0.3,0c0,0,0.1,0,0.2,0c0.1,0,0.1,0.1,0.2,0.1
				c0.1,0,0.3-0.1,0.5-0.1c0.1,0,0.2,0,0.3,0c0.2,0,0,0.1,0.3,0c0,0,0-0.1,0-0.1c0.1-0.1,0.7-0.3,0.7-0.3c0,0,0.1-0.1,0.1-0.1
				c0.1-0.1,0.3-0.1,0.4-0.2c0.1,0,0.1-0.1,0.2-0.1c0,0,0.3-0.1,0.4-0.2c0.1-0.1,0.6-0.2,0.6-0.3c-0.1,0.2,0.4-0.2,0.4-0.1
				c0.1-0.1,0.5-0.3,0.6-0.3c0.1-0.1,0.6-0.3,0.7-0.4c0.2-0.1,0.4-0.2,0.5-0.3c0.2-0.2,0.5-0.2,0.7-0.3c0.1-0.1,0.5-0.2,0.5-0.3
				c0.1-0.1,0,0,0.2-0.1c0.2-0.1,0.2-0.1,0.3-0.2c0.4-0.2,0.9-0.5,1.2-0.6c0.4-0.2,1-0.5,1.5-0.7c0.2-0.1,0.4-0.2,0.6-0.3
				c0.2-0.1,0.4-0.2,0.6-0.4c1.1-0.6,2.3-1.2,3.5-1.8c0.5-0.3,1.3-0.7,1.8-0.9c0.2-0.1,1.7-0.8,1.7-0.9c0,0-0.4,0.2-0.4,0.2
				c-0.1,0-0.2,0.1-0.3,0.2c-0.1,0-0.3,0.1-0.4,0.2c-0.1,0-0.2,0.1-0.2,0.1c-0.1,0-0.1,0-0.2,0c-0.1,0,0,0.1-0.1,0.1c0,0,0,0,0,0
				c0-0.1,1.2-0.7,1.3-0.7c0.1,0,0.1-0.1,0.2-0.1c0.1-0.1,0.2-0.1,0.3-0.2c0.3-0.1,0.6-0.3,0.9-0.5c0,0,0.9-0.6,0.7-0.6
				c-0.1,0-0.1,0.1-0.2,0.1C258.8,332.5,258.8,332,258.8,332z"/>
			<path id="XMLID_145_" class="st8" d="M257.3,333.7C257.2,333.8,257.2,333.8,257.3,333.7C257.4,333.7,257.3,333.7,257.3,333.7
				C257.3,333.7,257.3,333.7,257.3,333.7z"/>
			<path id="XMLID_144_" class="st8" d="M257.6,333.6c0,0-0.2,0-0.2,0.1C257.4,333.8,257.7,333.6,257.6,333.6z"/>
			<path id="XMLID_143_" class="st8" d="M257.7,333.5C257.6,333.6,257.6,333.6,257.7,333.5C257.6,333.6,257.7,333.5,257.7,333.5
				C257.7,333.5,257.7,333.5,257.7,333.5z"/>
			<path id="XMLID_142_" class="st8" d="M258,333.4c-0.1,0-0.2,0.1-0.2,0.1c0,0,0.4-0.2,0.3-0.2C258.1,333.3,258.1,333.3,258,333.4
				C258,333.4,258.1,333.3,258,333.4z"/>
			<path id="XMLID_141_" class="st8" d="M238.1,341.5C238.1,341.4,238.1,341.5,238.1,341.5C238.1,341.5,238.1,341.5,238.1,341.5z"/>
			<path id="XMLID_140_" class="st8" d="M248.9,334.5C248.9,334.5,248.9,334.5,248.9,334.5L248.9,334.5z"/>
			<path id="XMLID_139_" class="st8" d="M257.7,333.3C257.7,333.3,257.7,333.3,257.7,333.3L257.7,333.3z"/>
			<path id="XMLID_138_" class="st8" d="M245.8,339.5C245.7,339.5,245.8,339.5,245.8,339.5L245.8,339.5z"/>
			<path id="XMLID_137_" class="st8" d="M254.5,334.9C254.5,335,254.5,335,254.5,334.9L254.5,334.9z"/>
		</g>
	</g>
	<g id="XMLID_4_">
		<g>
			<path id="XMLID_24_" class="st9" d="M235.1,341.2c0.1,0,0.2-0.1,0.3-0.1c0,0-0.2,0.1-0.1,0.1c0.1,0,0.4-0.2,0.6-0.3
				c0.1,0,0.6-0.3,0.6-0.2c0,0.1-1.1,0.5-1.1,0.6c0.1,0,0.4-0.1,0.5-0.2c0,0.1,0.1,0,0.2,0c0,0,0,0,0,0c0.7-0.3,1.4-0.7,2-1
				c0.3-0.1,0.5-0.1,0.9-0.2c0.7-0.3,1.5-0.6,2.2-0.9c0.4-0.2,0.8-0.3,1.1-0.5c0.4-0.2,0.9-0.5,1.4-0.7c0.3-0.2,0.7-0.4,1-0.5
				c0.3-0.2,0.7-0.4,1-0.6c0.2,0,0.4-0.2,0.5-0.2c0.2-0.1,0.4-0.2,0.6-0.3c0.3-0.2,0.7-0.4,1-0.5c0.6-0.4,1.3-0.6,2-1
				c0.2-0.1,0.5-0.3,0.8-0.5c0.2-0.1,0.3-0.2,0.5-0.3c0.2-0.1,0.4-0.2,0.6-0.4c1.4-0.9,3-1.5,4.4-2.3c0.3-0.2,0.7-0.3,1-0.5
				c0.2-0.1,0.6-0.3,0.7-0.4c0.3-0.3-0.1-0.2-0.3-0.2c0,0,0.1-0.1,0.1-0.1c0-0.1-0.1,0,0-0.1c0.1-0.2,0.3-0.2,0.1-0.3
				c0,0-0.2,0-0.2-0.1c0,0,0.1-0.1,0.1-0.1c0,0,0.1-0.1,0.1-0.1c0-0.1-0.1,0-0.2,0c-0.1,0-0.1-0.1-0.1-0.1c0,0-0.2-0.1-0.2-0.1
				c0,0-0.2,0-0.2,0c0-0.1,0,0,0.1-0.1c0.1-0.1,0.4-0.1,0.5-0.2c0.1-0.1-0.1,0-0.2-0.1c-0.1,0-0.2,0-0.3-0.1c0,0,0.1-0.1,0-0.2
				c-0.1,0-0.2,0-0.3,0c-0.4,0-0.6,0.1-1,0.3c-0.2,0.1-0.5,0.2-0.7,0.3c-0.1,0,0,0-0.1,0c0,0-0.4,0.2-0.5,0.2
				c-0.2,0.1-0.4,0.2-0.7,0.4c-0.2,0.1-0.4,0.2-0.6,0.3c-0.3,0.1-0.6,0.3-0.9,0.5c-0.1,0-0.2,0.1-0.3,0.1c0,0-0.2,0.1-0.1,0
				c0.1,0-0.3,0.1-0.1,0.1c-0.1,0,0,0-0.2,0c-0.1,0-0.1,0.1-0.1,0.1c-0.1,0-0.2,0-0.3,0.1c-0.2,0.1-0.2,0.3-0.5,0.3
				c0.1-0.1,0.2-0.1,0.1-0.1c0,0-0.3,0.2-0.4,0.2c-0.3,0.1-0.4,0.1-0.4,0.2c0,0,0.2-0.1,0.1,0c-0.1,0.1-0.1,0.1-0.2,0.1
				c-0.2,0-0.1-0.1-0.2,0c0,0-0.2,0.1-0.3,0.2c0,0-0.1,0-0.1,0c0,0-0.1,0.1-0.2,0.1c-0.1,0.1,0.1,0.1-0.1,0.1c0,0,0-0.1,0-0.1
				c0,0,0-0.1-0.1-0.1c-0.1,0-0.1,0.1-0.2,0.1c0,0.1-0.1,0.1-0.2,0.1c-0.1,0-0.1,0-0.2,0.1c0,0,0.2,0,0,0.1c-0.1,0,0.1-0.1-0.1-0.1
				c-0.1,0-0.2,0-0.3,0.1c-0.1,0-0.1,0-0.2,0.1c0,0-0.1,0.1-0.2,0.2c-0.1-0.1-0.5,0.2-0.6,0.2c-0.1,0-0.4,0.2-0.5,0.2
				c-0.5,0.2-1.1,0.6-1.5,0.8c-1,0.5-1.9,1.1-2.8,1.7c-0.5,0.3-1,0.6-1.5,0.9c-0.2,0.1-0.5,0.3-0.7,0.4c-0.2,0.1-0.5,0.3-0.7,0.4
				c-0.1,0.1-0.2,0.2-0.3,0.3c-0.1,0-0.1,0-0.1,0.1c-0.1,0.1-0.1,0-0.2,0.1c0,0,0,0,0,0.1c-0.2,0.2-0.5,0.3-0.7,0.5
				c-0.4,0.3-0.8,0.4-1.1,0.7c-0.1,0.1-0.3,0.1-0.4,0.2c0,0-0.2,0.1-0.2,0.1c0,0.1,0.1,0,0.1,0c-0.1,0.1-0.2,0.1-0.3,0.1
				c0,0,0,0,0-0.1c-0.4,0.2-0.1,0.1-0.1,0.1c-0.1,0.1-0.4,0.1-0.2,0.2c0,0,0.2-0.1,0.2-0.1c0,0-0.2,0.1-0.2,0.1c0,0,0.1,0,0.1,0
				c0,0-0.1,0.1-0.2,0.1c0,0-0.1,0-0.1,0c-0.1,0.1,0.1,0,0.1,0c0.1,0.1,0,0-0.1,0.1c0.3,0-0.6,0.4-0.5,0.4c0,0,0.4-0.1,0.4-0.2
				c0.1,0,0.3-0.2,0.4-0.2c0.1,0,0.1,0,0.1,0c0,0,0.2-0.1,0.2-0.1c0,0-0.7,0.5-0.8,0.6c-0.1,0.1,0.1,0,0.1,0.1
				c0,0.1-0.1,0.1-0.2,0.2c0.1,0,0.2-0.1,0.2,0c-0.2,0.1-0.1,0.1-0.2,0.2C235.5,341.1,235.1,341.2,235.1,341.2
				C235.1,341.2,235.1,341.2,235.1,341.2C235.1,341.2,235.1,341.2,235.1,341.2z"/>
		</g>
	</g>
	<g id="XMLID_16_">
		<g>
			<path id="XMLID_82_" class="st10" d="M234.1,339.4c0.2-0.1,0.4-0.3,0.6-0.3c0.2,0,0.1,0,0.3-0.1c0.1,0.1,0.6-0.4,0.7-0.3
				c0,0-0.2,0.2-0.2,0.2c0,0,0.4-0.2,0.5-0.2c0.2-0.1,0.3-0.1,0.4-0.1c0,0,0.2-0.1,0.2-0.1c0.1,0-0.1,0.1,0.2-0.1
				c0.1,0,0.1-0.1,0.2-0.1c0,0,0,0,0,0c0.4-0.2,0.8-0.4,1.3-0.6c0.6-0.3,1.2-0.5,1.8-0.7c1.5-0.6,2.9-1.3,4.4-2
				c0.8-0.4,1.9-1,2.8-1.4c0.9-0.5,1.9-1.1,2.9-1.5c0.7-0.3,1.5-0.6,2.3-1c0.7-0.3,1.5-0.6,2.1-1c0.2-0.1,0.3-0.2,0.5-0.3
				c0.1-0.1,0.3-0.1,0.4-0.2c0.1-0.1,0.1-0.1,0.2-0.2c0.1-0.1,0.3-0.2,0.3-0.2c0.1-0.1,0-0.1,0-0.2c0,0,0-0.1,0-0.1
				c0,0,0.1-0.1,0-0.1c-0.1-0.1-0.5,0.1-0.5,0c-0.1,0,0.2-0.1,0.1-0.1c-0.1,0-0.4,0.1-0.5,0.2c0-0.1,0.1-0.1,0.2-0.1
				c-0.2,0,0.6-0.4,0.6-0.4c0,0,0.6-0.3,0.6-0.3c0,0-0.2,0.1-0.2,0c0.1-0.1,0.5-0.2,0.6-0.3c-0.1,0-0.5,0.2-0.4,0.1
				c0.1-0.1,0.6-0.3,0.7-0.4c0-0.1-0.1-0.1-0.2-0.1c0,0-0.1,0-0.2,0c-0.1,0-0.2,0.1-0.2,0.1c0-0.1,0.5-0.2,0.5-0.3
				c-0.1,0-0.4,0.2-0.5,0.2c-0.2,0.1-0.3,0.1-0.5,0.2c-0.2,0.1-0.4,0.1-0.7,0.2c-0.7,0.2-1.5,0.5-2.2,0.8c-0.3,0.1-0.8,0.4-1.1,0.4
				c-0.2,0-0.2-0.1-0.4-0.1c-0.2,0-0.3,0.1-0.5,0.1c-0.5,0.2-1,0.4-1.6,0.7c-0.5,0.3-1,0.5-1.5,0.7c-1.3,0.6-2.5,1.1-3.9,1.8
				c0-0.1,0.1-0.1-0.1-0.1c-0.1,0-0.2,0.1-0.3,0.1c-0.1,0.1-0.2,0.1-0.3,0.1c-0.1,0-0.1,0.1-0.2,0.1c-0.1,0.1-0.2,0.1-0.3,0.2
				c-0.2,0.1-0.3,0.1-0.5,0.2c-0.5,0.2-0.9,0.4-1.4,0.7c-0.3,0.2-0.6,0.4-0.8,0.6c-0.1,0.1-0.2,0.2-0.3,0.2
				c-0.1,0.1-0.2,0.2-0.3,0.2c-0.4,0.4-1.2,0.6-1.8,0.9c-0.5,0.3-1,0.5-1.4,0.8c-0.3,0.2-0.6,0.4-0.9,0.6c-0.1,0.1-0.2,0.2-0.3,0.2
				c0,0-0.1,0.1-0.1,0.1c0,0.1,0.1,0,0.2,0c0,0-0.4,0.4-0.4,0.4c-0.1,0.1-0.3,0.3-0.3,0.4c0,0,0.2-0.1,0.3-0.1c0.2,0,0,0.1,0,0.1
				c0,0,0.1-0.1,0.2-0.1c-0.1,0.1-0.3,0.2-0.3,0.3c0,0,0.2-0.1,0.2-0.1c0.1,0,0,0.1,0,0.1c0,0.1-0.1,0.1,0.1,0
				c0.1,0,0.8-0.5,0.9-0.4c0.1,0.1-0.2,0.2-0.3,0.3c-0.2,0.1-0.3,0.2-0.4,0.3c-0.1,0.1-0.1,0.1-0.2,0.2c-0.1,0.1-0.3,0.2-0.3,0.3
				c0,0.1,0.3-0.1,0.3-0.2c0,0.1-0.3,0.3-0.3,0.3c0.1,0,0.1,0.1,0.1,0.1c0,0.1-0.2,0.1-0.3,0.3c-0.2,0.2,0,0.1,0.1,0.2
				C234.2,339.2,234.1,339.4,234.1,339.4C234.1,339.3,234.1,339.4,234.1,339.4z"/>
			<path id="XMLID_81_" class="st10" d="M234.1,337.7C234.2,337.6,234.2,337.6,234.1,337.7C234.1,337.6,234.1,337.7,234.1,337.7
				C234.2,337.6,234.1,337.7,234.1,337.7z"/>
			<path id="XMLID_80_" class="st10" d="M248.9,332.1C248.9,332.1,248.9,332.1,248.9,332.1L248.9,332.1z"/>
			<path id="XMLID_79_" class="st10" d="M247.6,331.6C247.6,331.6,247.6,331.6,247.6,331.6L247.6,331.6z"/>
		</g>
	</g>
	<g id="XMLID_3_">
		<g>
			<path id="XMLID_49_" class="st11" d="M255.2,323.8c-0.2-0.1-0.5,0.1-0.8,0.2c-0.5,0.2-1,0.5-1.5,0.7c-0.5,0.3-1.2,0.6-1.6,0.8
				c-0.8,0.4-1.6,0.8-2.4,1.2c-0.7,0.4-1.4,0.6-2.2,1c-1.8,0.8-3.6,1.8-5.4,2.8c-2.1,1.1-4.3,2.4-6.5,3.5c-0.3,0.1-1.2,0.5-1.1,0.7
				c0,0.2,0.1,0,0.3,0c0.2,0-0.1,0.2-0.1,0.2c-0.3,0.3,0.2,0.3-0.1,0.5c-0.1,0.1-0.3,0.2-0.2,0.3c0,0.1,0.2,0,0.2,0.1
				c-0.1,0-0.1,0-0.1,0.1c0.1,0,0.1,0,0.2,0c0.1,0,0.2-0.1,0.2-0.1c0.1,0,0.1,0,0.2,0c0.3-0.1,0.5-0.2,0.8-0.2c0,0,0.1,0,0.1,0
				c0.1,0,0.1,0.1,0.2,0c0.2,0,0.4-0.2,0.5-0.2c0.1,0,0.1,0.1,0.2,0.1c0.1,0,0.2,0,0.3,0c0.4,0,0.8-0.2,1.2-0.4
				c0.2-0.1,0.4-0.2,0.6-0.3c0.1,0,0.2,0,0.3-0.1c0.5-0.1,0.9-0.3,1.4-0.6c0.4-0.2,0.8-0.4,1.2-0.7c0.2-0.2,0.5-0.4,0.8-0.5
				c0.8-0.5,1.7-0.9,2.6-1.3c0.3-0.1,0.6-0.3,0.8-0.4c0.2-0.1,0.3-0.1,0.4-0.2c0.4-0.2,0.8-0.4,1.2-0.6c0.6-0.4,1.3-0.8,2-1.1
				c0.3-0.2,0.8-0.3,1.1-0.5c0.4-0.2,0.8-0.4,1.2-0.7c0.3-0.2,0.6-0.4,0.8-0.5c0.2-0.1,0.6-0.4,0.6-0.5c0,0-0.1,0-0.2,0
				c0,0,0.2-0.1,0.2-0.1c0.2-0.1,0.3-0.2,0.4-0.3c0.1-0.1,0.1-0.1,0.2-0.3c0.1,0,0.5-0.3,0.5-0.3c0-0.1-0.3,0-0.3,0
				c0-0.1,0.5-0.3,0.2-0.2c-0.1,0-0.2,0.1-0.3,0.1c0,0-0.2,0.2-0.3,0.2c-0.2,0,0.1-0.2,0.1-0.2c0-0.1-0.1-0.1-0.1-0.1
				c0-0.1,0.3-0.2,0.4-0.2c0.2-0.1,0.8-0.4,0.9-0.5c0,0-0.6,0.2-0.6,0.3c-0.3,0.1-0.6,0.3-0.9,0.4c0,0,0.1-0.1,0.1-0.1
				c0.2-0.2,0.1,0,0.2-0.1c0,0,0.1-0.1,0.2-0.1c0,0,0.1-0.1,0.1-0.1c0.1-0.1,0.3-0.2,0.3-0.2c0-0.1-0.1-0.1,0-0.2
				c0,0,0.2-0.1,0.2-0.1c0,0,0-0.1,0.1-0.1c0.1-0.1,0.1-0.2,0.3-0.3C254.3,324.4,255.3,324,255.2,323.8
				C255.2,323.8,255.2,323.8,255.2,323.8z"/>
			<path id="XMLID_48_" class="st11" d="M255.2,323.7C255.2,323.7,255.2,323.8,255.2,323.7C255.2,323.8,255.2,323.7,255.2,323.7z"/>
			<path id="XMLID_47_" class="st11" d="M246,330.1C246,330.1,246,330.1,246,330.1L246,330.1z"/>
		</g>
	</g>
</g>
</svg>
