<?xml version="1.0" encoding="utf-8"?>
<!-- Generator: Adobe Illustrator 23.0.4, SVG Export Plug-In . SVG Version: 6.00 Build 0)  -->
<svg version="1.1" id="Camada_1" xmlns="http://www.w3.org/2000/svg" xmlns:xlink="http://www.w3.org/1999/xlink" x="0px" y="0px"
	 viewBox="0 0 565.2 389.2" style="enable-background:new 0 0 565.2 389.2;" xml:space="preserve">
<style type="text/css">
	.st0{display:none;}
	.st1{display:inline;}
	.st2{fill:#F5F5F5;}
	.st3{fill:#202020;}
	.st4{fill:#334A8C;}
	.st5{fill:#7D96EE;}
	.st6{fill:#E78E11;}
	.st7{fill:#FFFFFF;}
	.st8{fill:#657BB5;}
	.st9{fill:#7416A8;}
	.st10{fill:#2C5EFB;}
	.st11{fill:#2FAD4C;}
	.st12{fill:#FCE22B;}
	.st13{fill:#F87316;}
	.st14{fill:#F7022D;}
</style>
<g id="Background_Simple" class="st0">
	<g class="st1">
		<g>
			<path class="st2" d="M312.6,125.3c25.5-2,32-4.6,57.3-8.2c31.7-4.5,47.5-8.5,78.9-2.5s62.3,24.6,74.5,54.2
				c15.3,37.2-3.6,81.7-34.7,107.1c-31.1,25.5-71.8,35.7-111.4,42.9c-34.4,6.2-69.3,10.6-104.2,8.8c-34.9-1.8-69.9-10.1-100-27.9
				c-37.5-22.1-65.3-57.6-86.7-95.5c-15.5-27.5-28.4-57.4-29.7-88.9s10.6-64.9,36.3-83.2c32.4-23,78.8-16.5,112,5.3
				c29.9,19.7,40.8,32.9,58.2,59.9c6.8,10.5,16.4,19,27.9,23.9C297.5,124.1,304.9,125.9,312.6,125.3z"/>
		</g>
	</g>
</g>
<g id="Windows">
</g>
<g>
	<g>
		<g id="XMLID_10_">
			<g>
				<path class="st3" d="M440.4,189.5c3.9,51.3-14.3,121.4-24.3,154.9l-8.4-11.4c-3.3-16.4-8.5-35.8-15.6-48.4
					c2.3-2.1,3.9-4.8,4.2-8.3c0.3-4.6-1.2-7.8-3.7-9.8c0.1-0.4,6.4-29.2-10.4-41.8c-5-3.7-9.6-6.4-14.2-8
					c-5.5-8.6-12-18.1-18.9-27.4c-21.3-28.3-13.4-64.3,16-70.9C394.6,112,435.1,119.6,440.4,189.5z M420.4,177.9
					c0,0,16.4-5.5,10.3-17.4c-6.2-11.8-13.3-5.8-15.9-4.4c-1,0.5-34.5-12.9-55.2,0s-11.7,23.9-4.2,33.3c7.5,9.5,25.6,36.2,45.1,28
					l-0.1,8.3l-0.2,14.5c0,0,4.3,2.5,9.4,0c5.1-2.5,6.9-3.7,7.4-10.1C417.6,223.9,420.4,177.9,420.4,177.9z"/>
				<polygon class="st4" points="424.7,356.1 432.1,364 430.7,364 				"/>
				<path class="st5" d="M404.5,184.9c-0.2,0.3-3.6,5.4-9.8,7.4c-10.8,3.7-9.4,9.4-16.5,12.6c-0.2,0.1,1.2,0.1,5.2-2.1
					c0,0,4.3,3.3,10.9-1.1c6.5-4.4,6.2-11.3,6.2-11.3C403.7,187.1,404.5,185.1,404.5,184.9z M430.7,160.6
					c6.2,11.8-10.3,17.4-10.3,17.4s-2.8,46-3.3,52.4c-0.5,6.4-2.3,7.6-7.4,10.1c-5.1,2.5-9.4,0-9.4,0l0.2-14.5c0,0,0,1.6,6.4-3.5
					c6.5-5.1,5-18.3,5-18.3c-3.5,10.7-11.3,13.5-11.3,13.5c-19.6,8.1-37.6-18.6-45.1-28c-7.5-9.5-16.5-20.5,4.2-33.3
					c20.7-12.9,54.2,0.5,55.2,0C417.3,154.7,424.5,148.7,430.7,160.6z M426.1,165.8L426.1,165.8c-0.5-0.7-1.1-1.1-1.9-1.4
					c-0.8-0.2-1.6-0.1-2.4,0.1c-0.8,0.2-1.5,0.5-2.2,0.9c-0.5,0.2-0.8,0.5-1.2,0.8c0.1-0.6,0.3-1.1,0.6-1.6c0.4-0.7,1-1.5,1.6-2
					c0.7-0.6,1.5-1,2.3-1.3c0.8-0.3,1.7-0.6,2.6-0.7v-0.1c-0.9,0.1-1.8,0.3-2.7,0.6c-0.8,0.3-1.7,0.7-2.5,1.2
					c-0.8,0.6-1.4,1.2-1.9,2.1c-0.5,0.8-0.7,1.7-0.9,2.7l-0.2,0.8l0.7-0.6c0.6-0.5,1.2-0.8,1.9-1.2c0.7-0.3,1.3-0.6,2-0.8
					c0.7-0.2,1.4-0.3,2.1-0.3C424.7,165.1,425.5,165.3,426.1,165.8z M397.3,160.5c0.7-0.1,1.4-0.1,2.1-0.2c-0.7-0.1-1.4-0.2-2.1-0.2
					c-0.7,0.1-1.4,0-2.1,0.2c-1.4,0.2-2.8,0.7-4.1,1.4c-1.3,0.7-2.4,1.6-3.3,2.7c-1,1.1-1.7,2.3-2.1,3.7c0.7-1.2,1.6-2.3,2.6-3.2
					c0,0,1.3,4.5,4.6,2.6c2.8-1.6,0.6-4.7-0.1-5.6c0.8-0.4,1.7-0.7,2.6-0.8C395.9,160.7,396.6,160.7,397.3,160.5z M389.5,158.1
					c5-1.6,8.8-1.6,8.2-3.1c-0.6-1.4-6.5-2.9-10.9-0.4c-4.3,2.5-6.2,7.4-5.5,9.5C381.3,164.5,384.5,159.8,389.5,158.1z M383.5,192.8
					c-2.4,0.9-5.2,0.5-7.2-1c-0.2-0.2-0.5-0.4-0.7-0.6c-0.1-0.1-0.1-0.1-0.1-0.1l0,0l0.1-0.1c0.1-0.1,0.1-0.1,0.1-0.2
					c0.4-0.5,0.8-0.9,1.3-1.4c0.9-0.9,1.9-1.8,2.7-2.9c0.2-0.3,0.4-0.6,0.4-1.2c-0.1-0.5-0.2-0.7-0.4-1c-0.3-0.6-0.6-1.2-1-1.7
					c-0.7-1.1-1.4-2.1-2.2-3.2c-1.5-2.1-3.1-4.1-4.8-6.1l4.3,6.5c0.7,1.1,1.4,2.1,2,3.3c0.3,0.6,0.7,1.1,0.9,1.6
					c0.1,0.3,0.3,0.6,0.3,0.8c0,0.1-0.1,0.4-0.3,0.6c-0.7,1-1.6,1.9-2.5,2.8c-0.5,0.5-0.9,0.9-1.3,1.5c-0.1,0.1-0.1,0.2-0.2,0.2
					l-0.1,0.1c-0.1,0.1-0.1,0.2-0.1,0.2c-0.1,0.1,0.1,0.4,0.1,0.5s0.1,0.2,0.2,0.2c0.3,0.3,0.6,0.5,0.8,0.6c1.1,0.7,2.4,1.1,3.8,1.2
					C381,193.7,382.3,193.4,383.5,192.8z M370.1,177.5c-0.7,0.1-1.4,0.2-2.1,0.3c-0.7,0.2-1.4,0.3-2,0.6c-1.4,0.5-2.5,1.2-3.6,2.2
					c-2.1,1.9-3.4,4.7-3.3,7.5c0.2-1.4,0.7-2.7,1.4-3.8c0.1-0.2,0.2-0.4,0.3-0.6c0.6,1,2.7,3.9,4.7,1.9c2-2,0.1-5-0.7-5.9
					c0.2-0.1,0.3-0.2,0.5-0.3c0.3-0.2,0.6-0.3,0.9-0.5c0.3-0.2,0.6-0.3,0.9-0.4l1-0.4C368.8,178,369.5,177.8,370.1,177.5z
					 M361.5,176.8c4.1-2.9,7.7-3.2,7.1-4.3s-7.3-0.1-10.7,2.4c-3.4,2.4-6,6.3-4.7,8C354,184,357.4,179.7,361.5,176.8z"/>
				<path class="st4" d="M424.7,356.1l5.9,8h-17.9c0,0-0.2-2.2-0.7-5.9c0.3-1,0.7-2.1,1-3.3L424.7,356.1z"/>
				<path class="st4" d="M426.1,165.7L426.1,165.7c-0.7-0.4-1.4-0.7-2.1-0.7c-0.7-0.1-1.4,0.1-2.1,0.3c-0.7,0.2-1.4,0.5-2,0.8
					c-0.6,0.3-1.3,0.7-1.9,1.2l-0.7,0.6l0.2-0.8c0.2-0.9,0.4-1.9,0.9-2.7c0.5-0.8,1.1-1.5,1.9-2.1c0.7-0.6,1.6-1,2.5-1.2
					c0.8-0.3,1.7-0.5,2.7-0.6v0.1c-0.9,0.1-1.7,0.4-2.6,0.7c-0.8,0.3-1.6,0.8-2.3,1.3c-0.7,0.6-1.2,1.2-1.6,2
					c-0.3,0.5-0.5,1.1-0.6,1.6c-0.2,0.2-0.5,0.3-0.7,0.6l0.6,0.3c0.1-0.3,0.1-0.6,0.1-0.8c0.4-0.3,0.8-0.6,1.2-0.8
					c0.7-0.4,1.4-0.7,2.2-0.9c0.8-0.2,1.6-0.2,2.4-0.1C425,164.7,425.6,165.1,426.1,165.7z"/>
				<path class="st5" d="M416.2,344.5l8.6,11.6l-11.7-1.2C413.9,351.9,415,348.5,416.2,344.5z"/>
				<path class="st4" d="M418.2,166.2c-0.1,0.3-0.1,0.6-0.1,0.8l-0.6-0.3C417.8,166.5,418,166.4,418.2,166.2z"/>
				<path class="st5" d="M407.8,333.1l8.4,11.4c-1.2,4-2.3,7.5-3.2,10.4l-1.5-0.2C410.7,349.1,409.4,341.4,407.8,333.1z"/>
				<path class="st4" d="M411.5,354.6l1.5,0.2c-0.4,1.2-0.7,2.3-1,3.3C411.9,357.1,411.7,355.9,411.5,354.6z"/>
				<path class="st4" d="M412.8,364h-2.7c0,0,0.7-2.1,2-5.9C412.5,361.8,412.8,364,412.8,364z"/>
				<path class="st4" d="M411.9,204.1c0,0,1.5,13.2-5,18.3c-6.5,5.1-6.4,3.5-6.4,3.5l0.1-8.3C400.6,217.6,408.4,214.8,411.9,204.1z"
					/>
				<path class="st4" d="M411.5,354.6c0.2,1.2,0.3,2.4,0.5,3.4c-1.2,3.8-2,5.9-2,5.9l-50.4-0.1l3.4-14.3L411.5,354.6z"/>
				<path class="st5" d="M411.5,354.6l-48.5-5l0.8-3.6c6.5-4.9,12-8.9,12.2-8.9c0.3,0-2.9-7-6.7-14.8l7.3-30.9l0.3,0.1l30.7,41.5
					C409.4,341.4,410.7,349.1,411.5,354.6z"/>
				<polygon class="st4" points="410.1,364 359.6,364 359.6,364 				"/>
				<path class="st4" d="M407.8,333.1l-30.7-41.5c0,0,9.4-1.5,15.1-6.8C399.3,297.3,404.4,316.7,407.8,333.1z"/>
				<path class="st4" d="M404.5,184.9c-0.1,0.2-0.8,2.1-4.1,5.5l-17,12.5l0,0c-4,2.1-5.4,2.2-5.2,2.1c7.1-3.2,5.6-8.9,16.5-12.6
					C400.9,190.2,404.3,185.2,404.5,184.9z"/>
				<path class="st4" d="M400.5,190.3c0,0,0.5,6.9-6.2,11.3c-6.5,4.4-10.9,1.1-10.9,1.1l0,0c2.1-1.1,5-2.9,8.7-5.5
					C396,194.6,398.6,192.3,400.5,190.3z"/>
				<path class="st4" d="M383.5,202.8l17-12.5c-1.9,1.9-4.5,4.2-8.3,6.9C388.5,199.9,385.6,201.7,383.5,202.8z"/>
				<path class="st4" d="M399.3,160.3c-0.7,0.1-1.4,0.1-2.1,0.2c-0.7,0.1-1.4,0.2-2,0.4c-0.9,0.2-1.7,0.5-2.6,0.8
					c-0.2-0.2-0.2-0.3-0.2-0.2c0.1,0.3-2.9,0.7-4.3,3.3c-1,1-1.9,2-2.6,3.2c0.5-1.4,1.2-2.6,2.1-3.7s2.1-2,3.3-2.7
					c1.3-0.7,2.7-1.2,4.1-1.4c0.7-0.2,1.4-0.1,2.1-0.2C397.9,160.2,398.7,160.2,399.3,160.3z"/>
				<path class="st4" d="M397.7,155.1c0.6,1.4-3.2,1.4-8.2,3.1c-5,1.6-8.1,6.4-8.2,6c-0.6-2,1.1-6.9,5.5-9.5
					C391.1,152.1,397,153.7,397.7,155.1z"/>
				<path class="st5" d="M392.6,266.7c2.5,1.9,4.1,5.2,3.7,9.8c-0.3,3.4-1.9,6.2-4.2,8.3c-0.3-0.5-0.6-1-0.8-1.4c-1-1.6-2-3.4-3-5.1
					c-0.2-0.6-0.6-1.2-1-1.7c-0.7-1.2-1.4-2.5-2.1-3.8c0.5,0.1,0.8,0.1,1.3,0.2c0.6,0.1,1.1,0.3,1.6,0.5c0.6,0.2,1.1,0.5,1.6,0.6
					v-0.1c-0.5-0.2-1.1-0.5-1.6-0.7c-0.6-0.2-1.1-0.4-1.6-0.6c-0.5-0.1-1-0.3-1.5-0.3c-0.8-1.5-1.7-3-2.5-4.6l0.7-2.8
					c2.8-0.5,5.5-0.3,7.7,0.7C391.3,266,391.9,266.3,392.6,266.7C392.5,266.7,392.5,266.7,392.6,266.7z"/>
				<path class="st4" d="M392.7,161.7c0.7,0.9,2.9,4.1,0.1,5.6c-3.4,1.9-4.6-2.6-4.6-2.6c1-1,2.1-1.8,3.3-2.4
					C391.8,162.1,392.2,162,392.7,161.7z"/>
				<path class="st4" d="M382.1,224.9c16.8,12.6,10.5,41.4,10.4,41.8c-0.6-0.4-1.2-0.8-1.8-1.1c-2.8-1.4-5.4-1.5-7.6-1.1l3.8-15.9
					c0,0-7.5-13.9-18.8-31.7C372.5,218.5,377.2,221.2,382.1,224.9z"/>
				<path class="st6" d="M392.6,266.7C392.5,266.7,392.5,266.7,392.6,266.7c-0.6-0.4-1.2-0.7-1.8-1.1
					C391.4,265.9,392,266.3,392.6,266.7z"/>
				<path class="st4" d="M392.5,161.5c0-0.1,0.1,0.1,0.2,0.2c-0.4,0.2-0.8,0.4-1.2,0.6c-1.2,0.6-2.3,1.5-3.3,2.4
					C389.5,162.2,392.6,161.8,392.5,161.5z"/>
				<path class="st5" d="M391.3,283.3c0.3,0.5,0.6,1,0.8,1.4c-5.7,5.3-15.1,6.8-15.1,6.8l-0.3-0.1l3.7-15.5c0.1-0.1,0.2-0.1,0.3-0.1
					c1-0.2,1.9-0.3,2.9-0.3c1,0,1.9,0.2,2.7,0.7c0.8,0.5,1.4,1.2,1.9,2.1l0.1-0.1c0-0.1-0.1-0.1-0.1-0.2
					C389.2,279.9,390.3,281.6,391.3,283.3z"/>
				<path class="st4" d="M389.6,273.8L389.6,273.8c-0.6-0.1-1.1-0.3-1.6-0.5c-0.6-0.2-1.1-0.3-1.6-0.5c-0.5-0.1-0.8-0.2-1.3-0.2
					c-0.1-0.1-0.1-0.2-0.2-0.4c0.5,0.1,1,0.2,1.5,0.3c0.6,0.2,1.1,0.4,1.6,0.6C388.6,273.4,389.1,273.7,389.6,273.8z"/>
				<path class="st4" d="M388.2,278.2c0.1,0.1,0.1,0.1,0.1,0.2l-0.1,0.1c-0.5-0.8-1.1-1.6-1.9-2.1c-0.8-0.5-1.7-0.7-2.7-0.7
					c-1-0.1-1.9,0.1-2.9,0.3c-0.1,0-0.2,0.1-0.3,0.1l0.2-0.9c1-0.2,2-0.3,3-0.2c1,0.1,2.1,0.4,3,1c0.2,0.2,0.5,0.4,0.7,0.6
					C387.6,277.1,387.9,277.6,388.2,278.2z"/>
				<path class="st4" d="M388.2,278.2c-0.3-0.6-0.7-1.1-1-1.7C387.7,277,388,277.6,388.2,278.2z"/>
				<path class="st5" d="M387.2,276.4c-0.2-0.2-0.4-0.5-0.7-0.6c-0.8-0.6-1.9-0.9-3-1c-1-0.1-2,0-3,0.2l0.5-1.8
					c0.6-0.3,1.2-0.5,1.9-0.6c0.7-0.1,1.4-0.1,2.1,0C385.8,274,386.5,275.2,387.2,276.4z"/>
				<path class="st4" d="M386.9,248.6l-3.8,15.9c-0.7,0.2-1.5,0.4-2.1,0.6c-10.1-18.3-20.5-37-33.1-42.1c-2.1-0.9-4.3-1.4-6.6-1.4
					l0,0c8-6.7,16.9-8.3,26.7-4.8C379.4,234.7,386.9,248.6,386.9,248.6z"/>
				<path class="st4" d="M390.7,265.6c-2.2-1-4.9-1.2-7.7-0.7l0.1-0.4C385.4,264.1,387.9,264.2,390.7,265.6z"/>
				<path class="st4" d="M384.9,272.3c0.1,0.1,0.1,0.2,0.2,0.4c-0.7-0.1-1.4-0.1-2.1,0c-0.7,0.1-1.4,0.3-1.9,0.6l0.1-0.6
					c0.6-0.2,1.1-0.4,1.7-0.5C383.6,272.2,384.2,272.2,384.9,272.3z"/>
				<path class="st5" d="M384.9,272.3c-0.6-0.1-1.3-0.1-1.9-0.1s-1.2,0.2-1.7,0.5l1.2-4.9C383.2,269.3,384.1,270.8,384.9,272.3z"/>
				<path class="st5" d="M383,264.9l-0.7,2.8c-0.5-0.8-0.8-1.6-1.3-2.3C381.7,265.2,382.4,265,383,264.9z"/>
				<path class="st5" d="M373.3,269.8c0.1-0.3,0.6-0.8,2.1-1.7l0,0c0.7-0.5,1.6-1,2.6-1.5c0,0,0,0,0.1,0c1-0.5,2-0.9,3-1.2
					c0.5,0.8,0.8,1.6,1.3,2.3l-1.2,4.9c-0.6,0.2-1.1,0.5-1.5,0.9c-0.9,0.7-1.6,1.6-2.1,2.6c-0.1,0.1-0.1,0.1-0.1,0.2l-0.6,0.9l1-0.4
					c0.8-0.3,1.7-0.6,2.5-0.8l-3.7,15.5l-7.3,30.9c-2.1-4.4-4.3-9-6.2-12.8c0,0,7.8-14.8,7.2-14.5c-0.6,0.3-10.9,7-10.9,7
					s-18.3,5.6-25,6.2c-6.7,0.6-17.4-3.6-20.1-30c-1-9.9-0.2-19,2.2-26.9l0,0c0.2-0.2,3.9-4.1,10-3.4c4.2,0.5,7.3,2.3,9,3.6
					c0.4,0.3,0.9-0.1,0.7-0.6c-0.9-2.2-3.2-5.8-8.2-6.5c-5.5-0.7-8.6,1.2-9.8,2.2c4.2-10.3,11.3-18.2,20.5-22.9
					c-1,1,15.4-0.7,19,12.9C361.3,249.7,370.1,266.7,373.3,269.8z M373.3,269.8c-0.1,0.3,0.5,0.4,0.5,0.4
					C373.6,270.2,373.4,270,373.3,269.8z M362.7,260.1c-0.3-0.2-0.6-0.3-0.8-0.4c0-0.1,0-0.1,0-0.1s-0.3-0.2-1-0.3l0,0
					c-0.6-0.2-1.2-0.5-1.9-0.5l-0.5-0.1l-0.5-0.1c-0.3,0-0.7-0.1-1-0.1c-0.7,0-1.4,0.1-2,0.1c-2.7,0.4-5.2,1.4-7.3,3.2
					c1.2-0.6,2.4-1.1,3.6-1.5c0.6-0.2,1.1-0.3,1.7-0.5c-0.1,1-0.1,4.9,4.1,5.1c4.1,0.3,4.7-3.8,4.9-5.1
					C362.2,260,362.4,260,362.7,260.1z M355.5,251.2c5.8,0.8,7,1.5,7,1.5s-0.3-4.7-7.3-4c-4.7,0.5-7,1.7-7.7,3
					c-0.3,0.6,0.3,1.2,0.8,0.8C349.5,251.7,351.8,250.7,355.5,251.2z M353.5,281.6c8.5-1.2-13.8-3.6-20-5s-9.6,5-9.6,5
					s-0.3,6.8,9.5,6.4c9.8-0.5,16-5.7,15.6-5.6C351.6,282,353.3,281.7,353.5,281.6z M339.3,260.5c0.5-2,0.6-4.1,0.5-6.1
					c-0.1,1-0.2,2-0.5,3c-0.2,1-0.4,2-0.6,2.9c-0.3,1-0.6,1.9-1.1,2.7c-0.5,0.8-1.1,1.6-1.9,1.9c-0.2,0.1-0.4,0.1-0.6,0.1h-0.3h-0.4
					c-0.5,0-1-0.1-1.6,0c-0.5,0.1-1.1,0.1-1.6,0.3s-1.1,0.6-1.3,1.2c-0.2,0.6-0.1,1.2,0.1,1.7c0.2,0.5,0.4,1,0.6,1.4
					c0.5,0.9,1.1,1.7,1.7,2.5c-0.5-0.9-1-1.8-1.4-2.7c-0.2-0.5-0.4-0.9-0.5-1.4c-0.1-0.5-0.2-1,0-1.3c0.3-0.7,1.4-0.8,2.3-0.9
					c0.5,0,1,0,1.5,0h0.4h0.5c0.3,0,0.6-0.1,0.8-0.2c1.1-0.4,1.9-1.4,2.3-2.3C338.8,262.5,339.1,261.5,339.3,260.5z M331.9,259.1
					c-1-1-2.2-1.9-3.5-2.5c-1.3-0.6-2.8-1-4.2-1s-2.9,0.2-4.3,0.8c-0.7,0.2-1.3,0.7-1.9,1c-0.6,0.4-1.1,0.8-1.7,1.3
					c0.7-0.3,1.2-0.7,1.9-1c0.7-0.2,1.3-0.6,2-0.7c0.3-0.1,0.6-0.2,0.9-0.3c0,0-1.4,6.2,3,5.8c3.8-0.3,4.1-4.3,3.8-5.5
					C329.2,257.5,330.6,258.2,331.9,259.1z"/>
				<path class="st4" d="M381.2,272.7l-0.1,0.6c-0.4,0.2-0.7,0.5-1.1,0.7c-0.6,0.5-1.1,1.1-1.5,1.7c-0.3,0.1-0.6,0.3-1,0.4l-0.1-0.1
					c0.6-1,1.2-1.9,2.1-2.6C380.1,273.2,380.7,272.9,381.2,272.7z"/>
				<path class="st4" d="M375.5,191.1L375.5,191.1L375.5,191.1L375.5,191.1z M375.5,191.1L375.5,191.1c0.1,0.1,0.1,0.1,0.1,0.2
					c0.2,0.2,0.4,0.4,0.7,0.6c2,1.4,4.8,1.9,7.2,1c-1.1,0.6-2.5,0.8-3.8,0.8c-1.3-0.1-2.6-0.5-3.8-1.2c-0.3-0.2-0.6-0.4-0.8-0.6
					c-0.1-0.1-0.1-0.2-0.2-0.2s-0.1-0.3-0.1-0.5c0-0.1,0.1-0.2,0.1-0.2l0.1-0.1c0.1-0.1,0.1-0.2,0.2-0.2c0.5-0.6,0.9-1,1.3-1.5
					c0.9-0.9,1.8-1.9,2.5-2.8c0.2-0.2,0.3-0.6,0.3-0.6c-0.1-0.2-0.2-0.5-0.3-0.8c-0.3-0.6-0.6-1.1-0.9-1.6c-0.6-1.1-1.4-2.1-2-3.3
					l-4.3-6.5c1.7,2,3.3,4,4.8,6.1c0.8,1,1.5,2.1,2.2,3.2c0.3,0.6,0.7,1.1,1,1.7c0.2,0.3,0.3,0.6,0.4,1c0,0.6-0.2,0.8-0.4,1.2
					c-0.8,1.1-1.7,2-2.7,2.9c-0.5,0.5-0.9,0.9-1.3,1.4C375.6,191,375.5,191.1,375.5,191.1L375.5,191.1z"/>
				<path class="st6" d="M381,265.2c0.1,0.1,0.1,0.1,0.1,0.2c-1,0.3-2,0.7-3,1.2C378.9,266.1,379.9,265.6,381,265.2z"/>
				<path class="st5" d="M381.1,273.3l-0.5,1.8c-0.1,0-0.1,0-0.1,0.1c-0.7,0.2-1.3,0.3-2,0.6c0.4-0.7,0.8-1.3,1.5-1.7
					C380.3,273.7,380.7,273.5,381.1,273.3z"/>
				<path class="st4" d="M380.6,275.1l-0.2,0.9c-0.8,0.2-1.7,0.5-2.5,0.8l-1,0.4l0.6-0.9c0.1-0.1,0.1-0.1,0.1-0.2l0.1,0.1l0.5,0.5
					c0.2-0.3,0.3-0.6,0.5-0.9c0.6-0.3,1.3-0.5,2-0.6C380.6,275.1,380.6,275.1,380.6,275.1z"/>
				<path class="st4" d="M377.6,276.2c0.3-0.2,0.6-0.3,1-0.4c-0.2,0.3-0.3,0.6-0.5,0.9L377.6,276.2z"/>
				<path class="st4" d="M381,265.2c-1.1,0.4-2,0.9-2.9,1.4H378c-0.9,0.5-1.7,1-2.6,1.5l0,0c0,0-12.7-38.9-27.5-45v-0.1
					C360.4,228.3,370.9,246.9,381,265.2z"/>
				<path class="st4" d="M369.4,322.4c3.7,7.7,7,14.8,6.7,14.8c-0.3,0-5.7,4-12.2,8.9L369.4,322.4z"/>
				<path class="st6" d="M375.4,268.2c0.8-0.6,1.7-1.1,2.6-1.5C377.1,267.2,376.2,267.7,375.4,268.2z"/>
				<path class="st6" d="M375.5,191.1L375.5,191.1L375.5,191.1L375.5,191.1z"/>
				<path class="st6" d="M373.3,269.8c0.2,0.2,0.3,0.3,0.5,0.4C373.7,270.2,373.2,270.2,373.3,269.8z"/>
				<path class="st4" d="M375.4,268.2c-1.6,0.9-2.1,1.4-2.1,1.7c-3.2-3.2-12-20.1-15.4-33.1c-3.6-13.6-20-12-19-12.9l0,0
					c0.4-0.2,0.8-0.4,1.2-0.6c2.6-1.2,5.2-1.1,7.7-0.1C362.7,229.2,375.4,268.2,375.4,268.2z"/>
				<path class="st4" d="M370.5,295.1c0.7-0.3-7.2,14.5-7.2,14.5l-0.8-1.6c-0.2-0.4-0.4-0.8-0.6-1.2l-2.3-4.7
					C359.6,302.1,369.9,295.3,370.5,295.1z"/>
				<path class="st4" d="M369.4,322.4l-5.6,23.7c-1.4,1-2.8,2.1-4.2,3.2l-0.1,0.1c-6.9,5.2-14.2,10.7-17.5,13.3
					c-0.3,0.2-0.5,0.4-0.7,0.6l-1.1,0.8l0,0l-27-0.1l-16.1-35.1l-0.6-1.4l-1.1-2.5c2.5-12.8,7-15.2,9.6-20.7
					c4.3-8.9,4.6-16.9,5-41.5c0.2-13.1,2.8-22.1,6.4-28.6c3.2-5.7,7.3-9.4,11.5-12.4c8.7-6.1,13.2-0.3,13.4,0
					c-0.8,0.7-1.6,1.4-2.4,2.1l0,0c-9.1,4.7-16.2,12.6-20.5,22.9c-0.4,0.3-0.6,0.6-0.6,0.6l-1.1,4.2c-2.4,7.9-3.3,16.9-2.2,26.9
					c2.8,26.4,13.5,30.7,20.1,30c6.7-0.6,25-6.4,25-6.4l2.3,4.7l0.6,1.2l0.8,1.6C365.1,313.3,367.4,318,369.4,322.4z"/>
				<path class="st4" d="M368.1,177.8c0.7-0.1,1.4-0.2,2.1-0.3c-0.7,0.2-1.3,0.5-2,0.7l-1,0.4c-0.3,0.1-0.6,0.2-0.9,0.4
					c-0.3,0.2-0.6,0.3-0.9,0.5c-0.2,0.1-0.3,0.2-0.5,0.3c-0.2-0.2-0.3-0.3-0.3-0.3c-0.1,0.1-2.8,1.6-3.9,3.9c0,0,0.1,0.1,0.2,0.3
					c-0.1,0.2-0.2,0.4-0.3,0.6c-0.6,1.2-1.1,2.4-1.4,3.8c-0.1-2.8,1.2-5.6,3.3-7.5c1.1-0.9,2.3-1.7,3.6-2.2
					C366.7,178.2,367.4,178,368.1,177.8z"/>
				<path class="st4" d="M368.6,172.6c0.6,1.1-2.9,1.3-7.1,4.3c-4.1,2.9-7.5,7.2-8.4,6c-1.4-1.6,1.2-5.5,4.7-8
					C361.3,172.5,367.9,171.4,368.6,172.6z"/>
				<path class="st4" d="M364.9,179.8c0.7,0.9,2.7,3.9,0.7,5.9c-2,2-4.1-0.9-4.7-1.9c0.6-1,1.3-1.8,2.1-2.5c0.2-0.2,0.5-0.4,0.8-0.6
					l0.4-0.3l0.4-0.3C364.7,180,364.8,179.9,364.9,179.8z"/>
				<path class="st4" d="M364.9,179.8c-0.1,0.1-0.2,0.2-0.3,0.2l-0.4,0.3l-0.4,0.3c-0.2,0.2-0.5,0.4-0.8,0.6
					c-0.8,0.7-1.5,1.6-2.1,2.5c-0.1-0.2-0.2-0.3-0.2-0.3c1.1-2.4,3.8-3.9,3.9-3.9C364.7,179.5,364.8,179.6,364.9,179.8z"/>
				<path class="st5" d="M363.9,346.1l-0.8,3.6l-3.4-0.3C361,348.2,362.5,347.1,363.9,346.1z"/>
				<polygon class="st4" points="363,349.6 359.6,364 340.3,364 341.3,363.1 342,362.6 359.6,349.3 359.6,349.3 				"/>
				<path class="st4" d="M362.5,308l-0.6-1.2C362.1,307.2,362.3,307.6,362.5,308z"/>
				<path class="st4" d="M361.9,259.7c0.3,0.1,0.6,0.3,0.8,0.4c-0.3-0.1-0.6-0.2-0.8-0.2C361.9,259.8,361.9,259.7,361.9,259.7z"/>
				<path class="st4" d="M361.9,259.6c0,0,0,0.1,0,0.1c-0.3-0.2-0.7-0.3-1-0.5C361.6,259.4,361.9,259.6,361.9,259.6z"/>
				<path class="st4" d="M361.9,259.7c0,0.1,0,0.1,0,0.2c-1-0.3-2-0.5-3-0.6c-1.3-0.1-2.6-0.1-3.8,0.1c-0.7,0.1-1.4,0.2-2.1,0.4
					c0-0.2,0-0.2,0-0.2c3.3-1.2,6.4-0.7,8-0.3l0,0C361.3,259.3,361.6,259.5,361.9,259.7z"/>
				<path class="st4" d="M362.4,252.6c0,0-1.2-0.7-7-1.5c-3.7-0.5-5.9,0.5-7.1,1.3c-0.6,0.3-1.2-0.3-0.8-0.8c0.7-1.3,3-2.5,7.7-3
					C362.1,247.9,362.4,252.6,362.4,252.6z"/>
				<path class="st4" d="M359.6,364L359.6,364l-19.5,0.1l0.1-0.1l0,0H359.6z"/>
				<path class="st7" d="M359.6,349.3l-17.5,13.3C345.4,360.1,352.6,354.5,359.6,349.3z"/>
				<path class="st4" d="M359,258.7c0.7,0.1,1.3,0.3,1.9,0.5c-1.5-0.4-4.6-1-8,0.3c0,0,0,0.1,0,0.2c-0.6,0.1-1.1,0.3-1.7,0.5
					c-1.2,0.4-2.4,0.9-3.6,1.5c2-1.7,4.6-2.8,7.3-3.2c0.7-0.1,1.4-0.1,2-0.1c0.3,0,0.7,0.1,1,0.1l0.5,0.1L359,258.7z"/>
				<path class="st4" d="M358.9,259.3c1,0.1,2,0.3,3,0.6c-0.1,1.2-0.8,5.4-4.9,5.1c-4.1-0.3-4.1-4.1-4.1-5.1
					c0.7-0.2,1.4-0.3,2.1-0.4C356.4,259.2,357.6,259.2,358.9,259.3z"/>
				<path class="st5" d="M356.2,68c11.6,8.1-9.8,30.1-9.8,30.1l-21.9,63.1c-0.1-0.8-0.4-1.5-0.8-2.3c-2.2-3.4-7.1-1.5-9.1-0.5
					c-0.3,0.2-0.7-0.2-0.6-0.5c0.5-1.8,1.1-5.5-1.1-7.3c-1-0.8-2.5-1.2-3.9-1.5l8.5-20.8l-0.8,2.4c0,0,3.3,3.9,11.4,0.5
					c8.2-3.4,10.6-19.2,10.6-19.2s-2.4,6.3-7.5,11.5c-5.1,5.2-13.7,4.9-13.7,4.9s-9.8,1.6-19.5-9.5l40.3-43.1l9.1-9.8
					C349.9,65.3,352.9,65.6,356.2,68z M353,80.7L353,80.7c-0.6-0.7-1.4-1.4-2.4-1.5c-1-0.2-2-0.1-3,0.3s-1.7,1-2.5,1.6l-0.1,0.1
					c0.1-0.2,0.2-0.3,0.3-0.5c0.6-1,1.3-1.9,2.1-2.7c1.6-1.6,3.5-3,5.6-3.8v-0.1c-1.1,0.3-2.2,0.8-3.2,1.4c-1,0.6-2,1.3-2.8,2.1
					c-0.8,0.8-1.6,1.7-2.3,2.7c-0.7,1-1.1,2-1.6,3l-0.1,0.1l-1.5,3.3l2.1-2.9l0.1-0.1c0.5-0.7,1.1-1.4,1.8-2
					c0.7-0.6,1.4-1.1,2.2-1.5s1.7-0.6,2.5-0.5C351.4,79.8,352.2,80.3,353,80.7z M322.1,106.7c2.5-2.1,3.8-3.6,2.5-3
					c-3.9,1.9-7.1,1.6-10.4,2.1c-3.3,0.5-1.5,5.2-1.4,5.4c-0.2-0.1-4.1-2.2-5.1-2c-1.1,0.2-2.8,5.3-2.8,5.3c0.5,0.6,1.3,0.8,2.3,0.8
					c1.7,0.7,7.1,2.8,9.7,1.1S321.5,108.7,322.1,106.7z"/>
				<path class="st4" d="M333.6,276.7c6.2,1.4,28.4,3.8,20,5c-0.2,0.1-1.9,0.3-4.5,0.7c-0.1,0-0.3,0.1-0.8,0.1
					c-3.6,0.5-18.6,2.4-24.3-0.8C324,281.6,327.4,275.3,333.6,276.7z"/>
				<path class="st4" d="M353.1,80.7L353.1,80.7c-0.9-0.4-1.7-0.9-2.6-1c-0.9-0.1-1.7,0.1-2.5,0.5c-0.8,0.4-1.5,1-2.2,1.5
					c-0.6,0.6-1.3,1.2-1.8,2l0,0c0.3-0.9,0.7-1.7,1.2-2.5l0.1-0.1c0.7-0.7,1.5-1.3,2.5-1.6c1-0.4,2-0.5,3-0.3
					C351.6,79.4,352.3,80,353.1,80.7z"/>
				<path class="st4" d="M353,74.1v0.1c-2.1,0.7-4.1,2.1-5.6,3.8c-0.8,0.8-1.5,1.7-2.1,2.7c-0.1,0.2-0.2,0.3-0.3,0.5
					c-0.7,0.7-1.3,1.4-1.9,2.2c0.5-1.1,1-2.1,1.6-3c0.6-1,1.4-1.9,2.3-2.7c0.8-0.8,1.8-1.5,2.8-2.1C350.8,74.9,351.9,74.5,353,74.1z
					"/>
				<path class="st4" d="M349.1,282.4c0.4-0.1-5.8,5.1-15.6,5.6c-9.8,0.5-9.5-6.4-9.5-6.4c2.2,3.6,16.4,2,24.3,0.8
					C348.7,282.4,349,282.4,349.1,282.4z"/>
				<path class="st4" d="M347.9,223.1L347.9,223.1c-2.5-1-5.1-1.1-7.8,0.2c-0.4,0.2-0.8,0.4-1.2,0.6c0.8-0.8,1.6-1.5,2.4-2.1l0,0
					C343.6,221.8,345.7,222.2,347.9,223.1z"/>
				<path class="st5" d="M347.4,66l-9.1,9.8l-0.1-0.1c0.1-0.1,0.1-0.2,0.1-0.3l0,0c0.7-1.5,3.6-7.1,8.3-9c0,0,0,0,0.1,0L347.4,66
					L347.4,66z"/>
				<path class="st6" d="M347.3,66l-0.8,0.3C346.8,66.2,347.1,66.1,347.3,66z"/>
				<path class="st4" d="M345,81.2c-0.5,0.8-0.8,1.7-1.2,2.5l-0.7-0.3C343.7,82.5,344.3,81.8,345,81.2z"/>
				<path class="st4" d="M343.9,83.7L343.9,83.7l-2.2,3l1.5-3.3c0,0,0-0.1,0.1-0.1L343.9,83.7L343.9,83.7z"/>
				<path class="st8" d="M311.9,227.3c-2.1,1.8-8.2,6-13.7,9.8l17.3-49.9c3.4,2.6,5.5,5,6.9,6.3c0.1,0.2,0.1,0.3,0.1,0.3
					c0.1-0.1,0.1-0.1,0.2-0.1c0.8,0.6,1.4,0.9,1.9,0.6c1.6-0.8,3.3-2.4,4.6-4.4c7.2-2.8,14.9-1.2,14.5,10.3
					c-0.6,15.3-18.3,16.1-22.5,21.4c-1,1.2-3.5,5.6-6.8,11.8c-11.5,21-32.4,62.3-32.4,62.3l13.3,29.1c-0.2,1-0.3,1.9-0.5,3
					l-12.2,3.5l-9.2-22.6l0,0l24-69.3C304.3,234,310.4,228.7,311.9,227.3z M335.9,201.3v-0.1c-1.1-0.5-2.3-1-3.6-1.2
					c-1.2-0.2-2.5-0.3-3.8,0c-1.2,0.3-2.5,0.8-3.5,1.5c-0.6,0.3-1,0.8-1.5,1.2c-0.4,0.4-0.8,0.8-1.2,1.2c-0.1,0.1-0.1,0.1-0.1,0.2
					c-0.1,0.1-0.1,0.2-0.1,0.4c0.1,0.2,0.3,0.3,0.5,0.2h0.1c0.7-0.2,1.6-0.4,2.4-0.4c0.8-0.1,1.6,0.1,2.4,0.3c0.8,0.2,1.5,0.7,2,1.2
					c0.6,0.6,1,1.3,1.5,2l0.1-0.1c-0.3-0.8-0.6-1.6-1.2-2.3c-0.3-0.4-0.6-0.7-1-1c-0.4-0.2-0.8-0.5-1.2-0.6
					c-0.8-0.3-1.7-0.5-2.7-0.5c-0.5,0-1,0.1-1.4,0.2c0.1-0.2,0.2-0.3,0.4-0.5c0.5-0.4,0.8-0.9,1.4-1.2c1-0.8,2.1-1.3,3.3-1.6
					c1.2-0.3,2.4-0.3,3.7-0.2C333.5,200.4,334.6,200.8,335.9,201.3z"/>
				<path class="st7" d="M342,362.6l-0.7,0.6C341.5,362.9,341.8,362.8,342,362.6z"/>
				<path class="st4" d="M340.3,364L340.3,364L340.3,364L340.3,364z"/>
				<path class="st4" d="M339.8,254.4c0.1,2-0.1,4.1-0.5,6.1c-0.2,1-0.5,2-1,2.9c-0.5,0.9-1.2,1.9-2.3,2.3c-0.3,0.1-0.6,0.2-0.8,0.2
					h-0.5h-0.4c-0.5,0-1-0.1-1.5,0c-1,0.1-2,0.2-2.3,0.9c-0.2,0.3-0.1,0.8,0,1.3s0.3,0.9,0.5,1.4c0.4,0.9,0.9,1.8,1.4,2.7
					c-0.6-0.8-1.2-1.6-1.7-2.5c-0.2-0.5-0.5-0.9-0.6-1.4c-0.2-0.5-0.3-1.1-0.1-1.7c0.2-0.6,0.8-1,1.3-1.2c0.6-0.2,1.1-0.2,1.6-0.3
					s1-0.1,1.6,0h0.4h0.3c0.2,0,0.5-0.1,0.6-0.1c0.8-0.3,1.5-1,1.9-1.9s0.8-1.8,1.1-2.7c0.3-1,0.5-1.9,0.6-2.9
					C339.5,256.4,339.7,255.4,339.8,254.4z"/>
				<path class="st3" d="M346.5,66.3c-4.7,1.9-7.6,7.5-8.3,9c-0.1-0.7-0.8-2.8-3.9-8.3c-2.5-4.5-7.2-10.3-11.5-15
					c0.6-1.4,0.8-2.5,1-3.2c0.4-3.3-14.9-22.8-39.5-6.4c-24.6,16.4-13.8,38.1-13.8,38.1c-0.1,0.2,1.1,1.4,3.4,2.4
					c1.6,3,3.5,6,5.6,9.1c4.4,6.4,9.4,12.8,13,19.1c1.7,3,3.6,5.5,5.4,7.6l0,0c0,0-27.2,15.3-27.4,15.4c-0.2,0.1-0.8-9.9-7.5-44.1
					c-6.7-34,17.4-62.5,42.9-62.6C331.5,27.4,346.5,66.3,346.5,66.3z"/>
				<path class="st5" d="M338.2,75.8L298,118.9c-1.8-2-3.6-4.6-5.4-7.6c-3.7-6.3-8.6-12.7-13-19.1l1.6-0.6c1.7,1.6,1.5,1,6.3-1.7
					c4.9-2.8,8.6-3.2,8.6-3.2s-1.3-3-6.5-1.4l-0.6-1.6c3-0.8,6.3-2.3,9.9-4.6c14.7-9.2,21.6-21,24-27c4.2,4.7,9,10.4,11.5,15
					c3.1,5.6,3.8,7.6,3.9,8.3l0,0c-0.1,0.2-0.2,0.4-0.2,0.4s0.1,0.1,0.1-0.1L338.2,75.8z M325.1,75.5c-1.9,0-3.8,0.4-5.5,1.2
					c-1.7,0.8-3.2,2.3-4.2,3.8c-1,1.6-1.7,3.4-2.1,5.3c-0.3,1.9-0.5,3.8-0.3,5.6c0.1-1,0.2-1.9,0.3-2.8c0.1-0.9,0.3-1.8,0.6-2.7
					c0.3-1.2,0.8-2.5,1.4-3.7c0.5,1.2,2,3.7,5,1.1c3.2-2.8,1.4-5.9,0.6-6.7c0.5-0.2,1-0.5,1.5-0.6C323.3,75.9,324.2,75.7,325.1,75.5
					z M320.2,69.6c5-1.5,1.7-4.1-3.6-2.3c-5.4,1.9-6.5,5.9-5.8,7.3C312.4,77.5,315.2,71.1,320.2,69.6z M307.1,101.1
					c0.1-0.1,0.1-0.3,0.1-0.4c0-0.5-0.1-0.7-0.2-1c-0.2-0.5-0.5-1-0.8-1.4c-0.6-0.8-1.2-1.6-1.9-2.4c-1.3-1.5-2.7-3-4.2-4.4L302,94
					c0.6,0.8,1.2,1.6,1.8,2.4c0.6,0.8,1.2,1.6,1.7,2.5c0.3,0.4,0.5,0.8,0.7,1.2c0.1,0.2,0.1,0.4,0.1,0.5c-0.1,0.1-0.2,0.1-0.3,0.1
					c-0.9,0.3-1.9,0.3-3,0.7c-0.3,0.1-0.6,0.2-0.8,0.5c-0.2,0.2-0.3,0.6-0.4,1c0,0.2,0.1,0.3,0.1,0.5l0.2,0.4
					c0.2,0.3,0.3,0.6,0.6,0.7c0.5,0.4,1.1,0.5,1.6,0.6c0.6,0,1.1-0.1,1.6-0.2c1-0.3,1.9-0.7,2.8-1.2c-1,0.3-1.9,0.6-2.9,0.7
					c-1,0.1-2,0.2-2.6-0.5c-0.2-0.1-0.2-0.3-0.3-0.5l-0.1-0.3c0-0.1,0-0.2-0.1-0.3c0-0.3,0.2-0.6,0.7-0.7c0.8-0.3,1.9-0.3,2.9-0.6
					c0.1-0.1,0.3-0.1,0.4-0.2C306.8,101.4,307,101.2,307.1,101.1z M297.6,96.7c-0.6-0.3-1.1-0.8-1.6-1.2c-0.6-0.4-1.1-0.8-1.7-1.1
					c-1.2-0.7-2.5-1.2-3.9-1.4c-0.7-0.1-1.5,0-2.1,0.2c-0.7,0.2-1.4,0.6-1.9,1.1c-1.1,1-1.6,2.4-1.9,3.7c0.6-1.2,1.4-2.4,2.4-3.2
					c0,0,0.9,3.8,3.4,3.5c2.5-0.4,3-3.2,1.9-4.1l0,0c0.6,0.2,1.3,0.5,1.9,0.7C295.2,95.5,296.3,96.2,297.6,96.7z"/>
				<path class="st6" d="M338.2,75.4c0,0.2,0,0.3-0.1,0.3c-0.1,0.1-0.1,0.1-0.1,0.1S338.1,75.6,338.2,75.4z"/>
				<path class="st4" d="M331.1,123.5c5-5.2,7.5-11.5,7.5-11.5s-2.4,15.8-10.6,19.2c-8.2,3.4-11.4-0.5-11.4-0.5l0.8-2.4
					C317.4,128.3,326.1,128.7,331.1,123.5z"/>
				<path class="st4" d="M336.4,251.1c0.2,0.5-0.3,0.8-0.7,0.6c-1.6-1.2-4.8-3.2-9-3.6c-6.1-0.6-9.9,3.2-10,3.4
					c0.5-1.6,1.1-3.2,1.7-4.7c1.2-1,4.3-2.9,9.8-2.2C333.3,245.2,335.5,248.9,336.4,251.1z"/>
				<path class="st4" d="M335.9,201.2L335.9,201.2c-1.2-0.4-2.4-0.8-3.6-1s-2.5-0.1-3.7,0.2c-1.2,0.3-2.3,0.8-3.3,1.6
					c-0.5,0.3-0.9,0.8-1.4,1.2c-0.1,0.1-0.3,0.3-0.4,0.5c-0.4,0.1-0.8,0.2-1.2,0.4l-0.1-0.1c0.4-0.4,0.7-0.8,1.2-1.2
					c0.5-0.4,1-0.9,1.5-1.2c1-0.7,2.3-1.2,3.5-1.5c1.2-0.3,2.5-0.2,3.8,0C333.6,200.2,334.7,200.7,335.9,201.2z"/>
				<path class="st4" d="M324,281.6c5.6,3.2,20.7,1.4,24.3,0.8C340.4,283.7,326.2,285.2,324,281.6z"/>
				<path class="st3" d="M332.3,180c0.5,2.7-0.9,6.7-3,9.8c-2.3,0.9-4.5,2.2-6.5,3.8c-0.1-0.1-0.2-0.1-0.2-0.2
					c-0.3-1.4-1.9-7.2-4.3-13.7l6.4-18.4c0.5,2.8-1.1,5.7-2,7c-0.2,0.3,0.1,0.7,0.4,0.7c1.4-0.1,4.1,0.3,5.9,2.8
					c1.4,2,0.7,3.9-0.2,5.2c-0.2,0.3,0.1,0.8,0.5,0.7C330.5,177.4,331.9,177.6,332.3,180z"/>
				<path class="st4" d="M331,207.8L331,207.8c-0.5-0.7-0.9-1.4-1.5-2c-0.6-0.6-1.3-1-2-1.2c-0.7-0.2-1.6-0.3-2.4-0.3
					c-0.8,0.1-1.6,0.2-2.4,0.4h-0.1c-0.2,0.1-0.4-0.1-0.5-0.2c-0.1-0.1,0-0.3,0.1-0.4c0.1-0.1,0.1-0.1,0.1-0.2l0.1,0.1l0.5,0.6
					c0.3-0.3,0.5-0.6,0.8-1c0.5-0.1,0.9-0.2,1.4-0.2c0.9-0.1,1.8,0.1,2.7,0.5c0.5,0.2,0.8,0.4,1.2,0.6c0.3,0.3,0.7,0.6,1,1
					C330.4,206.1,330.7,207,331,207.8z"/>
				<path class="st4" d="M328.4,256.6c1.3,0.6,2.5,1.5,3.5,2.5c-1.3-0.8-2.7-1.5-4.1-2l0,0c-0.1-0.2-0.1-0.3-0.2-0.3
					c-0.5,0.1-3.6-2-6.7,0c-0.3,0.1-0.6,0.2-0.9,0.3c-0.7,0.2-1.3,0.5-2,0.7c-0.6,0.3-1.2,0.7-1.9,1c0.6-0.5,1.1-0.9,1.7-1.3
					c0.6-0.3,1.2-0.8,1.9-1c1.4-0.6,2.8-0.8,4.3-0.8C325.6,255.6,327.1,256,328.4,256.6z"/>
				<path class="st4" d="M327.8,257.1c0.3,1.2,0,5.2-3.8,5.5c-4.5,0.3-3-5.8-3-5.8c1-0.3,2.1-0.3,3.2-0.3
					C325.4,256.5,326.6,256.7,327.8,257.1L327.8,257.1z"/>
				<path class="st4" d="M327.6,256.8c0.1,0,0.1,0.1,0.2,0.3c-1.2-0.4-2.4-0.6-3.7-0.6c-1.1,0-2.1,0.1-3.2,0.3
					C324,254.8,327.2,256.9,327.6,256.8z"/>
				<path class="st4" d="M319.6,76.8c1.7-0.9,3.6-1.3,5.5-1.2c-0.9,0.2-1.8,0.4-2.7,0.7c-0.5,0.2-1,0.4-1.5,0.6
					c-0.1-0.2-0.2-0.2-0.3-0.2c-0.2,0.1-3.9,1.1-5.5,5.2c0,0,0.1,0.2,0.2,0.6c-0.6,1.1-1,2.4-1.4,3.7c-0.2,0.9-0.5,1.8-0.6,2.7
					c-0.2,0.9-0.3,1.8-0.3,2.8c-0.2-1.9-0.1-3.8,0.3-5.6c0.3-1.9,1.1-3.7,2.1-5.3C316.5,79.1,317.9,77.7,319.6,76.8z"/>
				<path class="st4" d="M324.6,103.8c1.3-0.6,0,0.8-2.5,3c0.1-0.4,0.2-0.6,0.2-0.6s-3.9,3.7-8.5,6.3l-1-1.1l0,0
					c-0.1-0.2-1.9-4.9,1.4-5.4C317.5,105.4,320.7,105.7,324.6,103.8z"/>
				<path class="st8" d="M329.3,189.8c-1.3,2-2.9,3.6-4.6,4.4c-0.6,0.3-1.1,0-1.9-0.6C324.8,192,327,190.7,329.3,189.8z"/>
				<path class="st3" d="M324.6,161.2l-6.4,18.4c-3-7.8-7.4-16.8-13.1-21l3.8-9.5c1.5,0.2,2.9,0.6,3.9,1.5c2.2,1.8,1.6,5.5,1.1,7.3
					c-0.1,0.4,0.3,0.7,0.6,0.5c2-1,6.9-2.9,9.1,0.5C324.2,159.7,324.5,160.4,324.6,161.2z"/>
				<path class="st3" d="M284.4,42.6c24.6-16.4,39.8,3.1,39.5,6.4c-0.1,0.6-0.4,1.7-1,3.2c-4.5-5-8.3-8.8-8.3-8.8
					s-17.4-10.8-37.1,9.1c-10.2,10.3-8.7,20.5-3.5,30.6c-2.4-1.1-3.6-2.3-3.4-2.4C270.5,80.7,259.8,59,284.4,42.6z"/>
				<path class="st4" d="M323.6,203.6c-0.3,0.3-0.5,0.7-0.8,1l-0.5-0.6C322.8,203.8,323.2,203.7,323.6,203.6z"/>
				<path class="st3" d="M314.5,43.4c0,0,3.8,3.8,8.3,8.8c-2.4,6-9.3,17.8-24,27c-3.6,2.3-6.9,3.7-9.9,4.6c-6.8,2-12,0.8-15.1-0.6
					c-5.3-10.1-6.7-20.3,3.5-30.6C297.1,32.6,314.5,43.4,314.5,43.4z"/>
				<path class="st4" d="M322.3,106.2c0,0-0.1,0.2-0.2,0.6c-4,3.4-11,8.4-15,8.6c-0.3-0.1-0.5-0.2-0.5-0.2c2.3-0.2,4.8-1.2,7.2-2.7
					C318.3,109.8,322.3,106.2,322.3,106.2z"/>
				<path class="st4" d="M320.9,76.9c0.8,0.8,2.7,3.8-0.6,6.7c-3,2.7-4.5,0.1-5-1.1c0.2-0.5,0.5-0.9,0.8-1.4c1-1.5,2.3-2.8,3.8-3.8
					C320.2,77.2,320.6,77,320.9,76.9z"/>
				<path class="st4" d="M322.1,106.7c-0.6,1.9-2.7,8-5.3,9.7c-2.7,1.6-8.1-0.4-9.7-1.1C311.1,115.2,318.1,110.2,322.1,106.7z"/>
				<path class="st4" d="M320.6,76.7c0.1,0,0.1,0.1,0.3,0.2c-0.3,0.2-0.6,0.3-1,0.5c-1.5,1-2.8,2.3-3.8,3.8
					c-0.3,0.5-0.6,0.9-0.8,1.4c-0.1-0.3-0.2-0.6-0.2-0.6C316.7,77.8,320.4,76.8,320.6,76.7z"/>
				<path class="st4" d="M316.6,67.3c5.4-1.9,8.6,0.7,3.6,2.3c-5,1.5-7.8,7.9-9.4,5C310,73.3,311.3,69.2,316.6,67.3z"/>
				<path class="st8" d="M318.2,179.6c2.5,6.5,4,12.3,4.3,13.7c-1.5-1.2-3.6-3.7-6.9-6.3L318.2,179.6z"/>
				<path class="st8" d="M318.2,179.6l-2.6,7.5c-3.9-3-9.5-6.2-18-8c8.2-0.8,9.4-0.5,9.6-1.5c0.5-2-1.9-3.2-8.2-4.3l6-14.6
					C310.8,162.9,315.2,171.8,318.2,179.6z"/>
				<path class="st4" d="M317.8,247.3c0,0,0.2-0.2,0.6-0.6c-0.6,1.5-1.2,3.1-1.7,4.7l0,0L317.8,247.3z"/>
				<path class="st8" d="M315.6,187.1l-17.3,49.9c-5.2,3.6-9.9,6.7-9.9,6.7l0,0c-0.2,0.1-3.1,2-6,2.8c-2.1,0.6-4.9-0.7-11.2-4.3
					l5.6-13.9c1.1-0.1,2.2-0.2,3.4-0.6c11.6-3.3,13.6-16.9,13.6-16.9s-4-1.7-8.8-2.6l7.4-18.1c0.6,0.8,1.5,1.2,2.9,1
					c3.7-0.7,3.1-4.6,2.9-5.6c0.7,0,1.5,0.1,2.3,0.1c-0.8-0.2-1.6-0.4-2.5-0.5c-0.8-0.1-1.7-0.2-2.6-0.2c-0.3,0-0.6,0-0.8,0l2.4-5.8
					c0.3-0.1,0.6-0.1,0.9-0.1C306.1,180.9,311.7,184.1,315.6,187.1z"/>
				<path class="st4" d="M312.8,111.3l1,1.1c-2.4,1.4-5,2.5-7.2,2.7c0,0,0.2,0.1,0.5,0.2c-1,0.1-1.7-0.2-2.3-0.8
					c0,0,1.7-5.1,2.8-5.3C308.7,109.1,312.6,111.2,312.8,111.3L312.8,111.3z"/>
				<polygon class="st7" points="313.2,363.9 313.2,364 313.2,364 313.1,363.9 				"/>
				<polygon class="st7" points="297.1,328.8 313.2,363.9 313.1,363.9 				"/>
				<polygon class="st8" points="313.2,364 313.2,364 271.7,364 292.4,364 				"/>
				<polygon class="st7" points="313.1,363.9 313.2,364 292.4,364 295.8,364 295.8,363.9 				"/>
				<path class="st7" d="M313.1,363.9h-17.3l-2-5c-0.5-14.2-0.1-24,1-31l1.6-0.5l0.6,1.4L313.1,363.9z"/>
				<path class="st3" d="M309,149.2l-3.8,9.5c-2.1-1.6-4.5-2.5-6.9-2.5c-15.2,0.3-52.1,3.2-55.5,27.1c-0.1-0.1-0.1-0.1-0.2-0.2
					c-0.8-2.1-5-12.9,0.2-16.5c5.7-4.1,7.7-3.5,8-5s0.5-4.9,4.9-6.6c3-1.1,5.2-0.7,6.3-0.3c0.3,0.1,0.6-0.1,0.6-0.5
					c-0.1-1.5,0.4-4.9,4.7-6.3c3.6-1.1,5.4,0.1,6.2,1.1c0.2,0.3,0.7,0.2,0.8-0.2c0.3-1.8,1.4-4.9,4.9-5.5c3.7-0.6,5.8,1.1,6.8,2.2
					c0.2,0.3,0.7,0.2,0.8-0.2c0.6-1.9,2.6-6,9.6-4.7c7.4,1.4,7.6,6.3,7.4,8c-0.1,0.3,0.2,0.5,0.5,0.5C305,149,307,148.9,309,149.2z"
					/>
				<path class="st3" d="M299.1,173.2c6.3,1.1,8.6,2.3,8.2,4.3c-0.2,1.1-1.5,0.7-9.6,1.5c-0.3-0.1-0.6-0.1-0.8-0.2L299.1,173.2z"/>
				<path class="st4" d="M306.4,100.6L306.4,100.6C306.4,100.6,306.4,100.6,306.4,100.6L306.4,100.6
					C306.4,100.6,306.4,100.6,306.4,100.6c0-0.1-0.1-0.3-0.1-0.5c-0.2-0.4-0.5-0.8-0.7-1.2c-0.5-0.8-1.1-1.6-1.7-2.5
					c-0.6-0.8-1.2-1.6-1.8-2.4l-1.8-2.4c1.5,1.4,2.9,2.8,4.2,4.4c0.7,0.8,1.3,1.6,1.9,2.4c0.3,0.5,0.6,0.8,0.8,1.4
					c0.1,0.3,0.2,0.5,0.2,1c0,0.1-0.1,0.3-0.1,0.4c-0.1,0.1-0.3,0.2-0.3,0.2c-0.1,0.1-0.3,0.1-0.4,0.2c-1.1,0.3-2.1,0.3-2.9,0.6
					c-0.4,0.2-0.7,0.4-0.7,0.7c0,0.1,0,0.2,0.1,0.3l0.1,0.3c0.1,0.2,0.2,0.4,0.3,0.5c0.6,0.6,1.7,0.6,2.6,0.5c1-0.1,1.9-0.4,2.9-0.7
					c-0.9,0.5-1.8,0.9-2.8,1.2c-0.5,0.1-1,0.2-1.6,0.2c-0.5,0-1.1-0.2-1.6-0.6c-0.3-0.2-0.4-0.5-0.6-0.7l-0.2-0.4
					c-0.1-0.2-0.1-0.3-0.1-0.5c0-0.3,0.1-0.7,0.4-1c0.2-0.3,0.5-0.4,0.8-0.5c1.1-0.4,2.1-0.4,3-0.7
					C306.2,100.7,306.2,100.6,306.4,100.6L306.4,100.6L306.4,100.6z"/>
				<path class="st7" d="M306.4,100.6C306.4,100.6,306.4,100.6,306.4,100.6C306.4,100.6,306.4,100.6,306.4,100.6L306.4,100.6
					C306.4,100.6,306.4,100.6,306.4,100.6C306.4,100.6,306.4,100.6,306.4,100.6L306.4,100.6z"/>
				<path class="st8" d="M305.1,158.6l-6,14.6c-0.2-0.1-0.3-0.1-0.5-0.1c-6.6-1.1-18.5-1.4-19.6,4.3c-5.6,0.1-12.1,0.8-19.3,2
					c-3.7-0.9-11.6,0.1-15.4,3.4c-0.5,0.1-0.9,0.2-1.3,0.3c-0.1,0.1-0.3,0-0.3-0.1c3.4-23.9,40.2-26.8,55.5-27.1
					C300.7,156.1,303,157.1,305.1,158.6z"/>
				<path class="st4" d="M311.9,227.3c-1.6,1.4-7.7,6.7-14.5,12.2l0.8-2.4C303.8,233.3,309.8,229.1,311.9,227.3z"/>
				<path class="st3" d="M299.1,173.2l-2.3,5.6c-4.9-1-10.8-1.6-17.7-1.4c1.1-5.8,12.9-5.4,19.6-4.3
					C298.8,173.2,299,173.2,299.1,173.2z"/>
				<path class="st3" d="M300.3,185.6c-0.8-0.1-1.5-0.1-2.3-0.1c-0.1-0.2-0.1-0.2-0.1-0.2s-1.5-0.4-3.7-0.2l0.1-0.2
					c0.3,0,0.6,0,0.8,0c0.8-0.1,1.7,0.1,2.6,0.2C298.6,185.2,299.5,185.4,300.3,185.6z"/>
				<path class="st4" d="M298.3,237.1l-0.8,2.4c-4,3.2-8.2,6.5-12,9.1l2.9-4.9l0,0C288.4,243.8,293,240.6,298.3,237.1z"/>
				<path class="st3" d="M298,185.5c0.2,1,0.8,4.9-2.9,5.6c-1.4,0.3-2.3-0.2-2.9-1l1.8-4.5c0.4-0.1,0.8-0.1,1.2-0.1
					C296.2,185.4,297.1,185.4,298,185.5z"/>
				<path class="st3" d="M298,185.2c0,0,0,0.1,0.1,0.2c-1-0.1-1.9,0-2.8,0.1c-0.4,0-0.8,0.1-1.2,0.1l0.2-0.6
					C296.5,184.9,298,185.2,298,185.2z"/>
				<path class="st8" d="M297.4,239.5l-24,69.3l-9.7-23.8l21.7-36.3l0,0C289.2,246,293.4,242.7,297.4,239.5z"/>
				<path class="st3" d="M296.8,178.9c0.3,0.1,0.6,0.1,0.8,0.2c-0.3,0-0.6,0.1-0.9,0.1L296.8,178.9z"/>
				<path class="st3" d="M296.8,178.9l-0.1,0.3c-0.1,0-0.2,0-0.3,0.1c-9.3,1-18.2,4.3-17.3-1.5c0-0.1,0-0.1,0.1-0.2
					C286.1,177.3,291.9,177.9,296.8,178.9z"/>
				<path class="st8" d="M242.5,192c0,0.1,0,0.1,0,0.2C242.5,192.2,242.5,192.1,242.5,192z M242.5,192c0.2-0.9,3.1-3.8,11.2-5.2
					c8.7-1.4,10-3.8,7.9-6.4c-0.3-0.4-1-0.7-1.7-0.9c7.2-1.3,13.7-1.9,19.3-2c0,0.1,0,0.1-0.1,0.2c-0.9,5.9,8,2.5,17.3,1.5
					c0.1,0,0.2,0,0.3-0.1l-2.3,5.8c-1.5,0.1-2.9,0.4-4.3,0.8c-1.6,0.5-3.3,1.3-4.7,2.3c-1.4,1-2.7,2.1-3.7,3.5
					c1.2-1.2,2.7-2.1,4.1-3c1.5-0.8,3-1.5,4.6-2c0.3-0.1,0.6-0.2,0.8-0.2c0.1,0.8,0.2,2.7,1.1,3.8l-7.4,18.1c-2.9-0.6-6.2-0.9-9-0.3
					c-7.3,1.4-14.4,11.8-14.4,11.8s5.6,9.1,15.2,8.6l-5.6,13.9c-2.7-1.5-6.2-3.5-10.4-5.9c-13.9-7.8-19.6-24.9-18.3-48.8
					C242.4,189.1,242.4,191.4,242.5,192z M272.3,198.6c0.1-0.4,0.1-0.7,0.1-1s-0.1-0.6-0.2-0.8c-0.1-0.5-0.3-1-0.5-1.5
					c-0.4-1-0.8-1.9-1.2-2.8c-0.9-1.8-1.9-3.6-3-5.2l1.2,2.8c0.4,0.9,0.8,1.8,1.2,2.8c0.4,0.9,0.8,1.9,1.1,2.8
					c0.2,0.5,0.3,0.9,0.5,1.4c0.1,0.2,0.1,0.5,0.1,0.7c0,0.2,0,0.5-0.1,0.6c0,0.1-0.1,0.1-0.1,0.1l-0.1,0.1l-0.2,0.1l-0.7,0.3
					c-0.5,0.2-1,0.4-1.4,0.6c-0.9,0.5-1.9,1-2.6,1.7c-0.3,0.4-0.7,1-0.6,1.6c0.1,0.6,0.7,1,1.2,1.1c1.1,0.2,2.1,0.1,3-0.1
					c-1,0.1-2,0.1-2.9-0.3c-0.5-0.2-0.8-0.5-0.8-0.8c-0.1-0.4,0.2-0.7,0.6-1.1c0.7-0.6,1.6-1.1,2.4-1.5c0.5-0.2,0.9-0.4,1.4-0.6
					l0.7-0.3l0.2-0.1c0.1,0,0.1,0,0.2-0.1C272.1,199,272.2,198.8,272.3,198.6z M257.6,192.6c0.6-0.1,1.1-0.1,1.7-0.1
					c-2.6-0.6-5.4-0.3-7.8,0.9c-0.6,0.3-1.2,0.7-1.7,1c-0.5,0.5-1.1,0.8-1.5,1.4c-1,1-1.6,2.1-2.1,3.4c0.8-1.1,1.6-2.1,2.5-2.9
					c0.6-0.6,1.4-1.1,2.1-1.6c0.5,1.1,1.9,3.8,4.7,2.9C258.5,196.6,257.8,193.4,257.6,192.6z"/>
				<path class="st8" d="M295.3,324.9l1.1,2.5l-1.6,0.5C295,326.8,295.1,325.8,295.3,324.9z"/>
				<path class="st4" d="M296,95.5c0.6,0.4,1.1,0.9,1.6,1.2c-1.3-0.5-2.4-1.2-3.7-1.7c-0.6-0.3-1.2-0.5-1.9-0.7
					c-0.4-0.3-4-2.6-5.4,0.6c-1,0.8-1.7,2-2.4,3.2c0.3-1.3,0.8-2.7,1.9-3.7c0.5-0.5,1.2-0.9,1.9-1.1c0.7-0.2,1.5-0.3,2.1-0.2
					c1.5,0.2,2.8,0.7,3.9,1.4C294.9,94.7,295.5,95.1,296,95.5z"/>
				<path class="st7" d="M295.8,363.9l0.1,0.1h-3.4h-38.1l9.4-27.1l18.9-5.4l11.2,27.5c0.1,1.6,0.1,3.3,0.2,5L295.8,363.9
					L295.8,363.9z"/>
				<path class="st7" d="M293.8,358.9l2,5H294C293.9,362.2,293.8,360.5,293.8,358.9z"/>
				<path class="st7" d="M282.6,331.4l12.2-3.5c-1.1,7.1-1.6,16.9-1,31L282.6,331.4z"/>
				<path class="st3" d="M294.4,184.9l-0.1,0.2c-1,0.1-2,0.3-3.2,0.7c0,0,0,0.2,0,0.5c-0.3,0.1-0.6,0.2-0.8,0.2
					c-1.6,0.5-3.1,1.2-4.6,2c-1.5,0.8-2.8,1.8-4.1,3c1-1.4,2.3-2.5,3.7-3.5s3-1.7,4.7-2.3C291.5,185.3,292.9,185,294.4,184.9z"/>
				<path class="st3" d="M294.3,185.1l-0.2,0.6c-1,0.1-2,0.3-2.9,0.6c0-0.3,0-0.5,0-0.5C292.3,185.4,293.4,185.2,294.3,185.1z"/>
				<path class="st3" d="M294.1,185.7l-1.8,4.5c-0.9-1.2-1.1-3-1.1-3.8C292.1,186,293.1,185.8,294.1,185.7z"/>
				<path class="st4" d="M296,86.7c0,0-3.7,0.5-8.6,3.2c-4.9,2.8-4.5,3.4-6.3,1.7c0,0-0.6-2.2,6.3-5.5c0.7-0.3,1.5-0.6,2.1-0.8
					C294.7,83.6,296,86.7,296,86.7z"/>
				<polygon class="st8" points="292.4,364 271.7,364 254.2,364 254.3,364 				"/>
				<path class="st4" d="M292.1,94.3c1.1,0.8,0.6,3.7-1.9,4.1c-2.5,0.4-3.4-3.5-3.4-3.5c1-0.8,2.3-1.1,3.5-1
					C290.8,93.9,291.5,94,292.1,94.3L292.1,94.3z"/>
				<path class="st3" d="M293.7,210.8c0,0-2,13.7-13.6,16.9c-1.2,0.3-2.3,0.5-3.4,0.6l4.8-11.7C289.3,213.8,293.7,210.8,293.7,210.8
					z"/>
				<path class="st4" d="M292,94.3c-0.6-0.2-1.2-0.3-1.8-0.4c-1.2-0.1-2.5,0.2-3.5,1C288,91.6,291.7,93.9,292,94.3z"/>
				<path class="st3" d="M293.7,210.8c0,0-4.4,2.9-12.2,5.8l0.3-0.8C289.4,213.1,293.7,210.8,293.7,210.8z"/>
				<path class="st3" d="M293.7,210.8c0,0-4.3,2.3-11.8,5l3.1-7.6C289.7,209.1,293.7,210.8,293.7,210.8z"/>
				<path class="st5" d="M289,83.7l0.6,1.6c-0.6,0.2-1.4,0.5-2.1,0.8c-6.9,3.3-6.3,5.5-6.3,5.5l-1.6,0.6c-2.1-3-4-6-5.6-9.1
					C277,84.6,282.2,85.6,289,83.7z"/>
				<path class="st5" d="M288.4,243.8l-2.9,4.9l0,0L263.7,285l-0.3-0.7l-4.7-11.7l12.4-30.4c6.4,3.6,9.1,5,11.2,4.3
					C285.3,245.8,288.2,243.9,288.4,243.8z"/>
				<path class="st3" d="M284.9,208.2l-3.1,7.6c-1.4,0.5-2.8,1-4.3,1.4c-10.3,3.1-15.9,2.5-15.9,2.5s7.1-10.4,14.4-11.8
					C278.7,207.3,282,207.6,284.9,208.2z"/>
				<polygon class="st8" points="273.4,308.8 282.6,331.4 263.7,336.8 				"/>
				<path class="st3" d="M281.8,215.7l-0.3,0.8c-1.2,0.5-2.5,0.9-3.9,1.3c-10.2,3.1-16.1,1.8-16.1,1.8s5.6,0.6,15.9-2.5
					C279.1,216.7,280.5,216.2,281.8,215.7z"/>
				<path class="st3" d="M281.5,216.5l-4.8,11.7c-9.6,0.5-15.2-8.6-15.2-8.6s5.9,1.2,16.1-1.8C279,217.4,280.3,217,281.5,216.5z"/>
				<polygon class="st8" points="263.7,285 273.4,308.8 273.4,308.8 263.7,336.8 235.9,344.8 231.3,340 232.2,337.6 				"/>
				<path class="st3" d="M272.3,197.7c0.1,0.3,0.1,0.6-0.1,1c-0.1,0.2-0.2,0.4-0.5,0.5c-0.1,0.1-0.2,0.1-0.2,0.1l-0.2,0.1l-0.7,0.3
					c-0.5,0.2-0.9,0.4-1.4,0.6c-0.9,0.4-1.7,0.9-2.4,1.5c-0.3,0.3-0.6,0.7-0.6,1.1c0.1,0.4,0.4,0.7,0.8,0.8c0.9,0.3,1.9,0.3,2.9,0.3
					c-1,0.2-2,0.4-3,0.1c-0.5-0.1-1.1-0.5-1.2-1.1c-0.1-0.6,0.2-1.2,0.6-1.6c0.7-0.8,1.6-1.3,2.6-1.7c0.5-0.2,0.9-0.5,1.4-0.6
					l0.7-0.3l0.2-0.1c0.1,0,0.1-0.1,0.1-0.1s0,0,0.1-0.1c0.1-0.1,0.1-0.3,0.1-0.6s-0.1-0.5-0.1-0.7c-0.1-0.5-0.3-1-0.5-1.4
					c-0.3-1-0.7-1.9-1.1-2.8s-0.8-1.8-1.2-2.8l-1.2-2.8c1.1,1.7,2.1,3.4,3,5.2c0.5,0.9,0.9,1.8,1.2,2.8c0.2,0.5,0.3,1,0.5,1.5
					C272.3,197.2,272.3,197.5,272.3,197.7z"/>
				<path class="st6" d="M271.7,364l-37.9,0.1V364h20.4H271.7z"/>
				<path class="st4" d="M263.4,284.2l0.3,0.7l-31.5,52.7l12-29.3C254.2,296.9,263.4,284.2,263.4,284.2z"/>
				<polygon class="st7" points="263.7,336.8 254.3,364 254.2,364 235.9,344.8 				"/>
				<path class="st5" d="M258.7,272.6l4.7,11.7c0,0-9.2,12.6-19.3,24L258.7,272.6z"/>
				<path class="st3" d="M261.6,180.5c2.1,2.7,0.8,5-7.9,6.4c-8,1.3-10.9,4.3-11.2,5.2c-0.1-0.7-0.1-2.9-0.1-4.6
					c0.1-0.6,0.1-1.1,0.1-1.7l0,0c0.3-1.1,1-2,1.9-2.8c5.5-1.4,10.6-2.5,15.4-3.4C260.6,179.7,261.2,180.1,261.6,180.5z"/>
				<path class="st4" d="M259.3,124.2c0.9,27.9-27,40.2-27.1,37.5v-0.1c0-0.1,0-0.1,0-0.1l0,0c2.9-2.3,4.9-6.7,4.9-11.8
					c0-0.5,0-1.1-0.1-1.6c-0.3-3.8-1.6-7.3-3.7-9.8c-1.2-1.5-2.7-2.7-4.3-3.2c0-0.1,0-0.1,0-0.1l0,0V135l0,0c0-0.1,0-0.1-0.1-0.1
					c-0.2-1-0.5-2-0.8-2.9c-0.1-0.2-0.2-0.5-0.3-0.7c0-0.1,0-0.1-0.1-0.1c-0.1-0.1-0.1-0.2-0.1-0.3c0-0.1-0.1-0.1-0.1-0.1
					c-4.5-11-14.5-19.7-28-21c-3.6-0.3-7.3-0.2-11.3,0.6c-28.6,5.6-23.6,45.1-22.9,49.6l-0.1,0.1l0.2,0.3l0,0h-0.1
					c-0.4-0.1-2.5-0.2-4.7,0.7c-0.1,0-0.1,0.1-0.1,0.1c-0.1,0-0.1,0.1-0.2,0.1c-0.6-0.7-29-35.9-13-61.5
					c16.1-25.8,37.3-13.4,37.3-13.4s10.4-27.2,42-21.7c31.6,5.5,14.1,34.1,14.3,33.9C241.4,98.1,258.4,96,259.3,124.2z"/>
				<path class="st5" d="M244.3,250.3c0-2.4-0.3-4.5-0.8-5.8c-0.6-1.7-1.6-3.4-2.9-5.2l0,0c0-0.1,0.2-1.4-0.5-3.6
					c0,0,0.6-6.4-2.3-13.5l0.3-0.1l20.6,50.7l-14.6,35.7c-1.4,1.5-2.7,3-4,4.5c-11,11.7-14.4-1.6-14.7-2.9c0-0.1,0-0.1,0-0.1
					c-0.2-1.4-0.5-2.8-0.7-4.2C235,298.2,244.4,265.6,244.3,250.3z"/>
				<path class="st3" d="M259.3,192.5c-0.6,0-1.1,0.1-1.7,0.1c-0.1-0.1-0.1-0.2-0.1-0.2c-4.2,0.2-6.9,1.9-6.9,1.9s0.1,0.2,0.2,0.4
					c-0.7,0.5-1.5,1-2.1,1.6c-1,0.8-1.7,1.9-2.5,2.9c0.5-1.2,1.1-2.4,2.1-3.4c0.5-0.5,1-0.9,1.5-1.4c0.6-0.4,1.1-0.7,1.7-1
					C253.9,192.3,256.8,191.9,259.3,192.5z"/>
				<path class="st3" d="M257.6,192.6c0.2,0.8,0.9,3.9-2.1,5c-2.8,1-4.2-1.8-4.7-2.9c0.3-0.2,0.7-0.4,1-0.6c1.1-0.6,2.4-1,3.6-1.2
					C256.1,192.8,256.9,192.7,257.6,192.6z"/>
				<path class="st3" d="M257.6,192.4c0,0,0,0.1,0.1,0.2c-0.7,0.1-1.4,0.2-2.1,0.3c-1.2,0.3-2.5,0.7-3.6,1.2c-0.3,0.2-0.7,0.3-1,0.6
					c-0.1-0.2-0.2-0.4-0.2-0.4S253.3,192.6,257.6,192.4z"/>
				<path class="st3" d="M244.4,183c3.8-3.3,11.7-4.3,15.4-3.4C255,180.4,249.9,181.5,244.4,183z"/>
				<polygon class="st8" points="254.3,364 254.2,364 254.2,364 				"/>
				<polygon class="st8" points="254.2,364 254.2,364 253.9,364 				"/>
				<path class="st7" d="M254.2,364h-20.4V364h10L254.2,364z"/>
				<polygon class="st7" points="254.2,364 243.9,364 253.9,364 				"/>
				<path class="st8" d="M235.9,344.8l18.3,19.2h-0.3l-20.3-2.3c-0.4-2.8-1.2-7.9-2.2-14.6l1.2-1.4L235.9,344.8z"/>
				<path class="st7" d="M253.9,364H244l-10-0.1c0-0.3-0.1-1.1-0.3-2.3L253.9,364z"/>
				<path class="st8" d="M243.1,183.3c0.5-0.1,0.9-0.2,1.3-0.3c-0.9,0.8-1.6,1.7-1.9,2.8c0-0.3,0.1-0.6,0.1-1
					c0.1-0.6,0.1-1.1,0.2-1.6C242.8,183.3,242.9,183.3,243.1,183.3z"/>
				<path class="st8" d="M244.3,250.3c0.1,15.3-9.3,47.9-19.6,55.4c-0.6-3.4-1.1-6.8-1.6-10.3c5.4-3.8,9.4-13.4,9.5-13.7l0,0
					c0,0-1.5-3.9-6-3.1c-1.4,0.2-3.3,1.6-5.8,3.3c-3.1-19-6.2-38.1-8.7-53.3c9.1-0.8,16.2,1.1,21,3.2c4.5,3.7,7.3,7.3,7.4,7.6l0,0
					l0,0c0,0-6.8,3.2-10.1,4.9c-3.3,1.6-4.6,4.3-2.9,6.2c1.7,1.9,15.1-6,15.7-6.2l-2.7-4.9c1.2,1.8,2.2,3.6,2.9,5.2
					C244,245.8,244.3,247.8,244.3,250.3c-2.1,0.6-4.1,1.5-6,2.4c-2,1-3.9,1.9-5.7,3.2c1.8-0.6,3.6-1.2,5.3-2
					c0.2,1.2,0.8,4.3,2.9,3.7c2.2-0.6,1.7-4.9,1.6-6C243,251.1,243.6,250.7,244.3,250.3z M231.9,267.2c0.1-0.3,0.1-0.8-0.2-1.2
					s-0.7-0.5-1.1-0.6c-0.7-0.1-1.4,0.1-2,0.2c-0.6,0.2-1.2,0.4-1.9,0.7l-0.5,0.2c-0.1,0.1-0.2,0.1-0.2,0.1
					c-0.1,0.1-0.2-0.2-0.3-0.5c-0.2-0.5-0.2-1.1-0.2-1.7c-0.1-1.2,0.1-2.5,0.1-3.8c0.1-1.2,0.2-2.5,0.3-3.8c0.1-1.2,0.3-2.5,0.5-3.8
					c-0.6,2.5-1.1,5-1.4,7.5c-0.2,1.2-0.3,2.5-0.3,3.8c0,0.7,0.1,1.3,0.2,2c0.1,0.2,0.1,0.3,0.2,0.6c0.1,0.1,0.2,0.2,0.2,0.3
					c0.1,0.1,0.2,0.2,0.4,0.2c0.3,0.1,0.6-0.1,0.7-0.1l0.4-0.2c0.6-0.3,1.1-0.5,1.7-0.6c0.6-0.2,1.2-0.3,1.7-0.2
					c0.6,0.1,0.8,0.3,0.7,0.9c-0.1,0.5-0.3,1.1-0.6,1.7c-0.6,1.1-1.2,2.2-1.8,3.3c-0.6,1.1-1.3,2.2-2,3.3c1.6-2,3.1-4,4.3-6.3
					C231.4,268.5,231.8,268,231.9,267.2z"/>
				<path class="st4" d="M244.1,308.3l-12,29.3l-1.2,2l-1-1c-1.3-8.4-2.9-18.2-4.6-28.8c0.3,1.2,3.7,14.6,14.7,2.9
					C241.5,311.3,242.8,309.8,244.1,308.3z"/>
				<path class="st7" d="M243.9,364h-10v-0.1L243.9,364z"/>
				<path class="st3" d="M240.6,239.1l2.7,4.9c-0.6,0.2-13.9,8.1-15.7,6.2c-1.7-1.9-0.5-4.5,2.9-6.2
					C233.9,242.4,240.6,239.1,240.6,239.1z"/>
				<path class="st3" d="M244.3,250.3c-0.6,0.5-1.3,0.8-2,1.2c0-0.2-0.1-0.3-0.1-0.3l-4.5,2.1c0,0,0,0.2,0.1,0.4
					c-1.7,0.8-3.4,1.5-5.3,2c1.8-1.2,3.8-2.2,5.7-3.2C240.2,251.7,242.2,250.9,244.3,250.3z"/>
				<path class="st3" d="M242.5,192c0,0.1,0,0.2,0,0.2C242.5,192.1,242.5,192.1,242.5,192z"/>
				<path class="st3" d="M242.5,185.7c-0.1,0.6-0.1,1.1-0.1,1.7C242.4,186.7,242.4,186,242.5,185.7z"/>
				<path class="st3" d="M242.3,251.4c0.2,1.1,0.7,5.4-1.6,6c-2.1,0.6-2.8-2.5-2.9-3.7c0.3-0.1,0.5-0.2,0.8-0.3
					C239.8,252.8,241.1,252.2,242.3,251.4z"/>
				<path class="st3" d="M242.3,251.2c0,0,0,0.1,0.1,0.3c-1.2,0.7-2.5,1.3-3.7,1.9c-0.3,0.1-0.5,0.2-0.8,0.3
					c-0.1-0.3-0.1-0.4-0.1-0.4L242.3,251.2z"/>
				<path class="st7" d="M240.1,235.5c0.7,2.2,0.5,3.5,0.5,3.6l0,0c-1.6-2.3-3.7-4.7-6-6.9C238.2,234,240.1,235.5,240.1,235.5z"/>
				<path class="st3" d="M237.8,222c2.9,7.2,2.3,13.5,2.3,13.5c-1.2-3.7-4.9-10-16.1-18.1c-4.7-3.4-9.6-5.5-14.7-6.2
					c-0.6-3.5-1.1-6.4-1.4-8.7C226.6,204.2,234.5,213.6,237.8,222z"/>
				<path class="st5" d="M222.7,184l15.4,37.9l-0.3,0.1c-3.3-8.4-11.2-17.8-30-19.5c-0.6-3.6-0.9-5.6-0.9-5.6s6.7,0.2,10-0.7
					C220.3,195.4,222.6,184.7,222.7,184L222.7,184z"/>
				<path class="st3" d="M237.1,148.1c0.1,0.5,0.1,1.1,0.1,1.6c0,5.1-1.9,9.5-4.9,11.8c0.1-0.4,0.1-0.7,0.1-1.1l0,0
					c2.7-2.5,4.3-7.1,3.9-12.2c-0.1-1.8-0.5-3.6-1.1-5.1c-0.6-1.6-1.4-3-2.4-4.2c-1-1.2-2.2-2.2-3.4-2.8c-0.1-0.3-0.1-0.6-0.2-1
					c1.5,0.6,3,1.6,4.3,3.2C235.4,140.8,236.7,144.3,237.1,148.1z"/>
				<path class="st5" d="M236.2,148.1c0.4,5.1-1.2,9.7-3.9,12.2c0-2.4-0.9-4.4-1.7-7.4l0,0c-0.5-2.7-0.6-5.6-0.7-8.6
					c-0.1-2.8-0.2-5.5-0.6-8.2c1.2,0.6,2.4,1.5,3.4,2.8c1,1.2,1.8,2.7,2.4,4.2C235.7,144.6,236.1,146.3,236.2,148.1z"/>
				<path class="st8" d="M231.3,340l4.6,4.9l-3.3,1l-1.2,1.4c-0.3-1.7-0.6-3.4-0.8-5.4L231.3,340z"/>
				<path class="st7" d="M240.1,235.5c0,0-1.9-1.6-5.5-3.3l0,0c-6.4-6-15.2-10.9-23.6-10.5c-0.6-3.9-1.2-7.4-1.7-10.5
					c5.1,0.7,10,2.9,14.7,6.2C235.2,225.5,238.9,231.9,240.1,235.5z"/>
				<path class="st7" d="M234.6,232.3c2.4,2.2,4.4,4.6,6,6.9c-0.2-0.2-2.9-3.8-7.4-7.6C233.7,231.8,234.1,232,234.6,232.3
					L234.6,232.3z"/>
				<path class="st6" d="M233.9,364C233.9,364.1,233.9,364.1,233.9,364L233.9,364L233.9,364z"/>
				<path class="st7" d="M233.9,364C233.9,364,233.9,364,233.9,364L233.9,364L233.9,364L233.9,364z"/>
				<path class="st7" d="M234.6,232.3c-0.5-0.2-0.9-0.5-1.4-0.6c-5.3-4.3-13-8.9-21.9-8.2c-0.1-0.6-0.2-1.1-0.3-1.6
					C219.4,221.4,228.2,226.2,234.6,232.3z"/>
				<path class="st7" d="M233.9,364L233.9,364L233.9,364L233.9,364L233.9,364z"/>
				<path class="st7" d="M233.9,364L233.9,364l-0.4-2.3h0.1C233.7,362.8,233.9,363.6,233.9,364z"/>
				<polygon class="st7" points="233.9,364 233.9,364 216.4,364 218.8,360.1 219.9,360.2 216.5,364 				"/>
				<polygon class="st7" points="233.9,364 233.9,364 216.5,364 219.9,360.2 222.9,360.5 221.5,363.9 				"/>
				<polygon class="st7" points="233.5,361.7 233.9,364 221.5,363.9 222.9,360.5 				"/>
				<path class="st8" d="M233.6,361.7h-0.1l-2.3-14.4l0.1-0.2C232.4,353.9,233.2,358.9,233.6,361.7z"/>
				<polygon class="st8" points="231.2,347.3 233.5,361.7 222.9,360.5 225.7,353.5 				"/>
				<path class="st4" d="M232.6,281.6L232.6,281.6c-4,2.4-7.7,4.1-10.9,5.2c-0.3-1.7-0.6-3.4-0.8-5.1c2.4-1.6,4.3-3,5.8-3.3
					C231,277.7,232.6,281.6,232.6,281.6z"/>
				<path class="st6" d="M232.3,160.4C232.3,160.4,232.3,160.3,232.3,160.4c0.1,0.3,0.1,0.7,0,1.1l0,0
					C232.3,161.1,232.3,160.7,232.3,160.4z"/>
				<path class="st3" d="M232.3,160.4c0,0.3,0,0.7,0,1.1c-1.2,1-2.6,1.6-4.1,1.7c-0.2,0-0.4,0-0.6,0c-3.7,0-7.2-2.9-9.1-7.3
					c-0.8-1.9-1.4-3.9-1.5-6.2c0-0.1,0-0.2,0-0.3c0,0,0.1,0,0.1,0.1l-0.1-0.1c-0.3-4.9,1.1-9.2,3.6-11.9c0.2,0.2,0.4,0.4,0.6,0.6
					c-1.7,1.9-2.9,4.7-3.3,7.9c-0.1,0.1-0.2,0.2-0.3,0.3c0.1-0.1,0.2-0.1,0.3-0.2c-0.1,1.1-0.2,2.4-0.1,3.6
					c0.6,7.4,5.2,13.1,10.3,12.8C229.6,162.2,231.1,161.5,232.3,160.4z"/>
				<path class="st5" d="M232.3,161.5c0,0.1,0,0.1,0,0.1v0.1c-0.6,9.8-9.5,22.4-9.5,22.4s0,0,0,0.1c-0.2,0.7-3.8,11.4-15.8,12.9
					c0,0-25.7-2.1-34.4-17.5c0,0-17.9,8.8-17.9-6.1c0-7.8,2.9-11,5.8-12.4l0,0c0,0,0.1-0.1,0.2-0.1c0.1,0,0.1-0.1,0.1-0.1
					c0.7-0.3,2.5-0.8,4.7-0.7h0.1l0.2,0.4l11-5.1c0,0.1,0,0.1,0,0.2c0,8.6,6.3,15.7,14.1,15.7c7.8,0,14.1-7,14.1-15.7
					c0-0.8-0.1-1.6-0.2-2.4c0.6-1.1,1.2-2.1,2-3.1c0.3-0.4,0.6-0.7,0.9-1.1c-0.1,1.1-0.1,2.1,0,3.2c0.1,1.4,0.2,2.7,0.8,4.1
					c0.2,0.3,0.4,0.7,0.8,0.9c0.4,0.2,0.9,0.3,1.2,0.2c0.7-0.1,1.3-0.3,2-0.5c1.3-0.3,2.6-0.8,3.8-1c0.3,0,0.6-0.1,0.8,0.1
					c0.2,0.1,0.3,0.2,0.3,0.5c0.1,0.5-0.1,1.2-0.3,1.8c-0.3,1.2-0.8,2.5-1.4,3.7c-0.5,1.2-1.1,2.4-1.6,3.7c1.4-2.3,2.7-4.6,3.6-7.2
					c0.2-0.6,0.5-1.3,0.4-2.1c0-0.1-0.1-0.2-0.1-0.3l0.4-0.2c1.9,4.4,5.4,7.3,9.1,7.3c0.2,0,0.4,0,0.6,0
					C229.6,163,231,162.4,232.3,161.5z M223.5,172.4c0,0-3.5-2.7-7.7-3.8c-4.1-1.1-3.3,3.5-5.5,3.9c-2.3,0.4-1.9-1.6-4.3-2
					c-2.4-0.4-8.3,4-8.3,4c1,0.3,1.9,0.6,2.9,0.7c0,0-0.5,6.5,4,6.5s15.1,1.3,15.2-8.3C222.2,173,223.5,172.4,223.5,172.4z
					 M170.9,170.3l0.7-0.1l-0.6-0.5c-0.8-0.6-1.6-1.2-2.6-1.5c-1-0.3-2-0.3-2.9-0.2c-1,0.2-1.9,0.5-2.8,1c-0.8,0.5-1.6,1-2.4,1.6
					l0.1,0.1c0.7-0.6,1.6-1.1,2.4-1.4c0.8-0.4,1.7-0.7,2.7-0.8c0.9-0.1,1.9,0,2.7,0.3c0.7,0.2,1.2,0.6,1.7,1
					c-0.7,0.1-1.3,0.3-1.9,0.6c-0.8,0.3-1.6,0.8-2.4,1.4c-0.7,0.6-1.3,1.3-1.7,2.1c-0.5,0.8-0.6,1.7-0.6,2.7h0.1
					c0.2-0.8,0.5-1.6,1-2.4c0.5-0.7,1.1-1.3,1.7-1.8c0.7-0.5,1.4-0.9,2.2-1.2C169.3,170.8,170.1,170.5,170.9,170.3z"/>
				<polygon class="st8" points="232.2,337.6 231.3,340 231,339.7 				"/>
				<path class="st3" d="M231.7,266.1c0.3,0.4,0.3,0.8,0.2,1.2c-0.2,0.7-0.5,1.3-0.8,1.9c-1.2,2.3-2.8,4.3-4.3,6.3
					c0.7-1.1,1.4-2.1,2-3.3c0.7-1.1,1.3-2.2,1.8-3.3c0.3-0.6,0.5-1.1,0.6-1.7c0.1-0.6-0.1-0.8-0.7-0.9c-0.5-0.1-1.1,0.1-1.7,0.2
					c-0.6,0.2-1.2,0.4-1.7,0.6l-0.4,0.2c-0.2,0.1-0.4,0.2-0.7,0.1c-0.1,0-0.3-0.1-0.4-0.2s-0.2-0.2-0.2-0.3
					c-0.1-0.2-0.2-0.4-0.2-0.6c-0.2-0.7-0.2-1.4-0.2-2c0-1.3,0.1-2.6,0.3-3.8c0.3-2.5,0.8-5,1.4-7.5c-0.2,1.2-0.3,2.5-0.5,3.8
					c-0.2,1.2-0.3,2.5-0.3,3.8c-0.1,1.2-0.2,2.5-0.1,3.8c0.1,0.6,0.1,1.2,0.2,1.7c0.1,0.3,0.2,0.5,0.3,0.5c0,0,0.1,0,0.2-0.1
					l0.5-0.2c0.6-0.3,1.2-0.5,1.9-0.7c0.6-0.2,1.3-0.3,2-0.2C231,265.6,231.4,265.7,231.7,266.1z"/>
				<path class="st5" d="M231.5,156.4c0.5,1.2,0.7,2.5,0.7,3.9c-1.2,1.1-2.7,1.8-4.2,1.9c-5.1,0.4-9.7-5.3-10.3-12.8
					c-0.1-1.2-0.1-2.4,0.1-3.6c0.8-0.4,1.7-0.7,2.7-1c0.2-0.1,0.4-0.1,0.6-0.2c-0.1,0.7,0.3,6.5,3.9,6c3.8-0.6,2.4-6.7,2.4-6.7
					c0.6,0,1.2,0,1.9,0c0.2,2.9,0.6,6.6,1.2,8.6l0,0C230.8,154.1,231.1,155.3,231.5,156.4z"/>
				<path class="st8" d="M231.4,347.1l-0.1,0.2l-0.8-5.2l0.1-0.2C230.8,343.6,231.1,345.5,231.4,347.1z"/>
				<path class="st8" d="M231.3,340l-0.7,1.8c-0.1-0.3-0.1-0.7-0.2-1.1l0.6-1.1L231.3,340z"/>
				<polygon class="st8" points="230.4,342 231.2,347.3 225.7,353.5 				"/>
				<path class="st8" d="M231,339.7l-0.6,1.1c-0.1-0.7-0.2-1.4-0.3-2.1L231,339.7z"/>
				<path class="st8" d="M230.4,340.7c0.1,0.3,0.1,0.7,0.2,1.1l-0.1,0.2l-0.2-1.1L230.4,340.7z"/>
				<polygon class="st8" points="230.2,340.9 230.4,342 225.7,353.5 219.9,360.2 218.8,360.1 				"/>
				<path class="st8" d="M230.4,340.7l-0.1,0.2l-0.4-2.4l0.2,0.2C230.1,339.4,230.2,340,230.4,340.7z"/>
				<path class="st8" d="M229.9,338.5l0.4,2.4l-11.5,19.1l-45-5.1l27.8-6.2l-22.5-51.3c3.5-2.5,5.6-4.6,5.6-4.6s-5.7-38.5,6.9-55.4
					c2.4-3.2,5.5-5.6,9.3-6.8c4-1.2,7.7-2,11.2-2.3c2.5,15.2,5.6,34.4,8.7,53.3c-5.5,3.7-13.4,8.4-22.9,3.5c0,0,3.8,3.3,10.2,3.9
					c0,0,4.3,8.7,11.5,7.6c1.2-0.2,2.3-0.7,3.4-1.5c0.6,3.4,1.1,6.9,1.6,10.3c-0.3,0.2-0.5,0.4-0.8,0.5c-12.2,7.3-25,0-25,0
					L229.9,338.5z M197.6,262.6c8.1-3.7,12.6-7.3,11.6-9.5c-1-2.3-11.6,1.9-17.3,5c-5.6,3.1-8.1,6.1-6.9,8.9
					C185.8,268.9,189.5,266.3,197.6,262.6z M208.7,261.5c0.5-0.3,0.8-0.6,1.3-0.8c-3.2,1.3-6.2,2.8-9.3,4.4c-3,1.6-6,3.3-8.9,5.1
					c3.2-1.3,6.2-2.8,9.3-4.4c0.7-0.4,1.5-0.8,2.2-1.2c0.2,1.2,1.1,4.4,3.8,3.3C210.2,266.7,209,262.3,208.7,261.5z"/>
				<path class="st6" d="M230,338.7l-0.2-0.2l-4.5-28.7v0.1C227.1,320.5,228.7,330.3,230,338.7z"/>
				<path class="st5" d="M229.9,144.2c0.1,3,0.2,5.9,0.7,8.6c-0.6-2-1-5.8-1.2-8.6C229.5,144.2,229.7,144.2,229.9,144.2z"/>
				<path class="st4" d="M229.9,144.2c-0.2,0-0.3,0-0.6,0c0-0.1,0-0.1,0-0.2C229.5,144.1,229.7,144.1,229.9,144.2z"/>
				<path class="st5" d="M229.9,144.2c-0.2-0.1-0.3-0.1-0.6-0.2c-0.2-2.1-0.3-3.7-0.3-3.7c-3.6,0.2-6-0.6-8-2.4
					c0.6-0.6,1.2-1.2,1.9-1.6l0,0c0.2-0.1,0.5-0.1,0.7-0.2c1.4-0.3,2.5-0.6,3.3-0.8c0.7,0.1,1.5,0.3,2.3,0.6
					C229.7,138.7,229.8,141.5,229.9,144.2z"/>
				<path class="st4" d="M229.3,144.1c0,0.1,0,0.1,0,0.2c-0.6,0-1.2,0-1.9,0c0,0-4.3-0.8-6.4,0.6v0.1c-0.2,0.1-0.4,0.1-0.6,0.2
					c-0.9,0.3-1.8,0.6-2.7,1c0-0.1,0-0.1,0-0.2c0.7-0.6,1.6-1.1,2.4-1.4c1-0.4,2.1-0.6,3.2-0.8c1.1-0.1,2.2-0.2,3.3-0.1
					c0.6,0.1,1.1,0.1,1.6,0.2C228.7,143.9,229,144,229.3,144.1z"/>
				<path class="st3" d="M229.1,135c0.1,0.3,0.1,0.6,0.2,1c-0.7-0.3-1.5-0.6-2.3-0.6c1.1-0.2,1.7-0.3,1.9-0.4
					C229,135,229.1,135,229.1,135z"/>
				<path class="st4" d="M229.1,135L229.1,135c-0.1,0.1-0.1,0-0.1,0S229.1,135,229.1,135z"/>
				<path class="st5" d="M229.1,140.3c0,0,0.1,1.6,0.3,3.7c-0.3-0.1-0.7-0.2-1-0.2c-0.5-0.1-1.1-0.2-1.6-0.2
					c-1.1-0.1-2.1-0.1-3.3,0.1c-1.1,0.2-2.1,0.4-3.2,0.8c-0.9,0.3-1.7,0.8-2.4,1.4c0.4-3.2,1.6-6,3.3-7.9
					C223.1,139.7,225.5,140.5,229.1,140.3z"/>
				<path class="st4" d="M229.1,135L229.1,135L229.1,135C229.1,134.9,229.1,135,229.1,135z"/>
				<path class="st4" d="M229.1,134.9L229.1,134.9c0,0.1-0.1,0.1-0.1,0.1c-1-0.3-2-0.5-3.1-0.4c-1.8,0.1-3.4,1-4.8,2.3
					c-0.3,0.1-0.6,0.1-0.9,0.2c-1.1-1.2-2.1-2.8-3.1-4.6c4.5-1.9,10.3-2.7,10.6-1.9c0,0.1,0.1,0.1,0.1,0.1c0.1,0.1,0.1,0.2,0.1,0.3
					c0,0.1,0,0.1,0.1,0.1c0.5,1.2,1,3,1.1,3.7C229.1,134.8,229.1,134.9,229.1,134.9L229.1,134.9z"/>
				<path class="st4" d="M229.1,134.8c0,0.1,0,0.1,0.1,0.1C229.1,134.9,229.1,134.8,229.1,134.8z"/>
				<path class="st4" d="M232.5,281.6c-0.1,0.3-4.1,9.9-9.5,13.7c-0.5-2.8-0.9-5.6-1.4-8.5C228.5,284.5,232.4,281.7,232.5,281.6z"/>
				<path class="st4" d="M229.1,134.8c-0.2-0.6-0.6-2.4-1.1-3.7c0.1,0.2,0.2,0.5,0.3,0.7C228.6,132.8,228.8,133.8,229.1,134.8z"/>
				<path class="st4" d="M232.5,281.6c-0.2,0.1-4.1,2.8-10.8,5.2v-0.1C224.8,285.7,228.5,284.1,232.5,281.6z"/>
				<path class="st3" d="M229,135c-0.2,0.1-0.8,0.2-1.9,0.4c-0.2,0-0.4-0.1-0.6-0.1c-0.2,0-0.3,0-0.5,0c-1,0.1-2,0.4-2.9,1l0,0
					c-0.6,0.1-1.2,0.3-2,0.5c1.4-1.3,3-2.1,4.8-2.3C226.9,134.5,228,134.7,229,135z"/>
				<path class="st4" d="M227.9,131c-0.1-0.1-0.1-0.2-0.1-0.3C227.8,130.8,227.9,130.9,227.9,131z"/>
				<path class="st4" d="M227.5,144.2c0,0,1.4,6.1-2.4,6.7c-3.6,0.6-4.1-5.3-3.9-6c0.8-0.2,1.6-0.3,2.5-0.5c1-0.1,2.1-0.2,3.2-0.2
					C227,144.2,227.2,144.2,227.5,144.2z"/>
				<path class="st4" d="M227.5,144.2c-0.3,0-0.5,0-0.8,0c-1.1,0.1-2.1,0.1-3.2,0.2c-0.8,0.1-1.6,0.3-2.5,0.5c0-0.1,0-0.1,0-0.1
					C223.2,143.4,227.5,144.2,227.5,144.2z"/>
				<path class="st5" d="M226.5,135.4c0.2,0,0.4,0,0.6,0.1c-0.8,0.2-1.9,0.5-3.3,0.8c-0.2,0.1-0.5,0.1-0.7,0.2
					c0.9-0.6,1.9-0.8,2.9-1C226.1,135.4,226.3,135.4,226.5,135.4z"/>
				<path class="st4" d="M227.7,130.5c-0.4-0.8-6.2-0.1-10.6,1.9c-2.3-4.3-4.7-10-9.4-16.3c-2.3-3-5.1-4.5-8.1-4.7l0.2-1.8
					C213.2,110.8,223.2,119.5,227.7,130.5z"/>
				<polygon class="st8" points="225.7,353.5 222.9,360.5 219.9,360.2 				"/>
				<path class="st4" d="M221.7,286.9c0.5,2.8,0.9,5.6,1.4,8.5c-1.1,0.8-2.3,1.3-3.4,1.5c-7.2,1.1-11.5-7.6-11.5-7.6s0.1,0,0.3,0
					c2.1,0.2,4.5,0.1,7.2-0.6C217.8,288.2,219.9,287.6,221.7,286.9z"/>
				<path class="st4" d="M221.7,286.8L221.7,286.8c-1.8,0.7-3.8,1.3-6.1,1.9c-2.7,0.6-5,0.7-7.2,0.6
					C209.6,289.4,214.4,289.4,221.7,286.8z"/>
				<path class="st4" d="M215.9,168.7c4.1,1.1,7.7,3.8,7.7,3.8s-1.4,0.5-3.6,1.1l0,0c-0.5,0.1-10,2.6-16.9,2c-0.1,0-0.1,0-0.2,0
					c-0.7-0.1-1.4-0.2-2.1-0.3c-0.1,0-0.1,0-0.1,0c-1-0.2-2-0.5-2.9-0.7c0,0,5.9-4.4,8.3-4c2.4,0.4,2,2.4,4.3,2
					C212.6,172.2,211.7,167.5,215.9,168.7z"/>
				<path class="st3" d="M221.1,136.9c0.7-0.2,1.4-0.3,2-0.5c-0.7,0.4-1.4,1-1.9,1.6c-0.2-0.2-0.4-0.3-0.6-0.6
					C220.7,137.2,220.9,137,221.1,136.9z"/>
				<path class="st4" d="M222.7,184c-0.1,0.7-2.5,11.3-5.8,12.1c-3.4,0.9-10,0.7-10,0.7C218.9,195.5,222.5,184.7,222.7,184z"/>
				<path class="st4" d="M220.8,281.8c0.3,1.7,0.6,3.4,0.8,5.1c-7.2,2.5-12,2.5-13.3,2.4c-0.2,0-0.3,0-0.3,0
					c-6.4-0.6-10.2-3.9-10.2-3.9C207.5,290.2,215.4,285.5,220.8,281.8z"/>
				<path class="st4" d="M220.2,137c0.3-0.1,0.6-0.1,0.9-0.2c-0.2,0.2-0.4,0.4-0.6,0.6C220.4,137.3,220.3,137.2,220.2,137z"/>
				<path class="st5" d="M220.2,137c0.1,0.1,0.2,0.2,0.3,0.3c-2.5,2.7-3.9,7.1-3.6,11.9c-0.8-1.1-1.9-2.1-3.2-2.8
					c-0.7-0.3-1.4-0.5-2.2-0.5c-0.8,0-1.5,0.2-2.2,0.6c-0.5,0.2-0.8,0.5-1.2,0.8c0-1.1,0.1-2.2,0.1-3.3c-0.2,1.2-0.4,2.4-0.5,3.7
					c-0.6,0.6-1.1,1.2-1.5,1.9c-0.6,1-1.1,2.1-1.5,3.2c-0.9-6-5-10.9-10.2-12.5c0.9-1,0.6-1.9-0.4-2.8c-2.1-1.7-18.5-1-22.5,10.5
					c-0.7,1.9,3-0.1,8-2.1c-1.4,1.9-2.3,4.2-2.7,6.7c-0.1,0.6-0.2,1.1-0.2,1.6l-11.2,5.2c-0.1-3.4-0.2-24.8,9.8-36.4
					c0,0,13.4-13,24.2-11.9c3,0.3,5.8,1.7,8.1,4.7c4.7,6.3,7.1,12,9.4,16.3c-2.7,1.2-4.8,2.7-5.1,4.6
					C211.7,138.8,216.3,138,220.2,137z"/>
				<path class="st4" d="M220,173.6L220,173.6c-0.1,9.5-10.7,8.2-15.2,8.3c-4.5,0-4-6.5-4-6.5c0.1,0,0.1,0,0.1,0
					c0.6,0.1,1.4,0.2,2.1,0.3c0.1,0,0.1,0,0.2,0C209.4,176.2,216,174.7,220,173.6z"/>
				<polygon class="st7" points="218.8,360.1 216.4,364 133.3,364 173.7,355 173.7,355 				"/>
				<path class="st5" d="M218.5,155.9l-0.4,0.2c-0.1-0.3-0.4-0.6-0.7-0.7c-0.4-0.2-0.8-0.2-1.2-0.2c-1.4,0.2-2.7,0.6-3.9,1
					c-0.6,0.2-1.3,0.3-1.9,0.5c-0.3,0.1-0.5,0.1-0.7-0.1c-0.2-0.1-0.3-0.3-0.5-0.6c-0.6-1.1-0.7-2.4-0.8-3.7
					c-0.1-1.2-0.2-2.4-0.2-3.6c0.5-0.5,1-0.9,1.6-1.2c1.1-0.6,2.5-0.7,3.8-0.3c1.2,0.5,2.4,1.3,3.4,2.2c0,0.1,0,0.2,0,0.3
					C217.2,151.9,217.7,154,218.5,155.9z"/>
				<path class="st4" d="M218.2,156.3c0.1,0.8-0.2,1.5-0.4,2.1c-0.9,2.5-2.2,4.9-3.6,7.2c0.6-1.2,1.1-2.4,1.6-3.7
					c0.5-1.2,1-2.5,1.4-3.7c0.2-0.6,0.3-1.3,0.3-1.8c-0.1-0.2-0.2-0.4-0.3-0.5c-0.2-0.1-0.5-0.1-0.8-0.1c-1.2,0.1-2.5,0.6-3.8,1
					c-0.6,0.2-1.3,0.3-2,0.5c-0.4,0.1-0.9,0.1-1.2-0.2c-0.4-0.2-0.6-0.6-0.8-0.9c-0.6-1.4-0.7-2.7-0.8-4.1c-0.1-1.1-0.1-2.1,0-3.2
					c0.1-0.2,0.3-0.3,0.5-0.5c0,1.2,0.1,2.4,0.2,3.6c0.2,1.3,0.3,2.7,0.8,3.7c0.2,0.2,0.3,0.5,0.5,0.6c0.2,0.1,0.4,0.1,0.7,0.1
					c0.6-0.1,1.3-0.3,1.9-0.5c1.3-0.3,2.5-0.8,3.9-1c0.4,0,0.7-0.1,1.2,0.2c0.3,0.1,0.6,0.4,0.7,0.7
					C218.1,156.2,218.2,156.3,218.2,156.3z"/>
				<path class="st4" d="M217.8,145.9c0,0.1,0,0.1,0,0.2c-0.1,0.1-0.2,0.1-0.3,0.2C217.6,146.1,217.7,145.9,217.8,145.9z"/>
				<path class="st8" d="M233.2,231.6c-4.8-2-12-4-21-3.2c-0.3-1.7-0.6-3.4-0.8-5C220.1,222.7,227.9,227.2,233.2,231.6z"/>
				<path class="st4" d="M217.1,132.4c1,1.8,2,3.4,3.1,4.6c-3.9,0.9-8.5,1.7-8.2-0.1C212.2,135.1,214.4,133.5,217.1,132.4z"/>
				<path class="st6" d="M216.9,149.3L216.9,149.3C217,149.4,216.9,149.4,216.9,149.3L216.9,149.3z"/>
				<path class="st3" d="M216.9,149.3L216.9,149.3c-1.1-0.9-2.2-1.7-3.4-2.1s-2.6-0.4-3.8,0.3c-0.6,0.3-1.1,0.7-1.6,1.2
					c0-0.1,0-0.2,0-0.4c0-0.2,0-0.5,0-0.7c0.4-0.3,0.8-0.6,1.2-0.8c0.7-0.3,1.4-0.6,2.2-0.6c0.8,0,1.5,0.2,2.2,0.5
					C215.1,147.2,216.1,148.2,216.9,149.3z"/>
				<path class="st8" d="M211.3,223.4c0.3,1.6,0.6,3.3,0.8,5c-3.4,0.3-7.2,1-11.2,2.3c-3.9,1.2-6.9,3.6-9.3,6.8l-1.7-1
					c5.2-6.9,11.9-11.5,19.2-12.8C209.9,223.5,210.6,223.5,211.3,223.4z"/>
				<path class="st7" d="M211,221.8c0.1,0.6,0.2,1.1,0.3,1.6c-0.7,0.1-1.4,0.1-2.1,0.3c-7.3,1.2-14,5.9-19.2,12.8
					c-6.7,8.9-11.1,21.6-11.7,35.9c0.5-11.8,4-45.4,30.1-50.3C209.3,221.9,210.2,221.8,211,221.8z"/>
				<path class="st7" d="M209.3,211.2c0.5,3.1,1.1,6.7,1.7,10.5c-0.9,0.1-1.7,0.1-2.7,0.3c-26.1,4.9-29.7,38.4-30.1,50.3
					c0,0.2,0,0.4,0,0.6c0,0.4,0,0.7,0,1.1c-0.1,1.6,0,2.5,0,2.5h-0.1c-0.2-0.1-1.6-0.5-3.4-0.6c0.4,0.1-16-28.9,0-47.5
					C186.5,214.7,198.3,209.6,209.3,211.2z"/>
				<path class="st3" d="M209.1,253.1c1,2.3-3.5,5.8-11.6,9.5s-11.8,6.3-12.6,4.3c-1.2-2.8,1.3-5.8,6.9-8.9
					C197.5,255,208.1,250.9,209.1,253.1z"/>
				<path class="st3" d="M210,260.7c-0.5,0.3-0.8,0.6-1.3,0.8c0-0.1-0.1-0.1-0.1-0.1l-5.4,2.8c0,0,0,0.2,0.1,0.4
					c-0.7,0.4-1.5,0.8-2.2,1.2c-3,1.6-6.1,3.1-9.3,4.4c2.9-1.9,5.9-3.6,8.9-5.1C203.7,263.5,206.8,262,210,260.7z"/>
				<path class="st3" d="M208.7,261.5c0.3,0.8,1.5,5.1-1.5,6.4c-2.8,1.1-3.6-2.1-3.8-3.3C205.1,263.7,206.9,262.6,208.7,261.5z"/>
				<path class="st3" d="M208.6,261.4c0,0,0,0.1,0.1,0.1c-1.7,1.1-3.6,2.1-5.4,3.1c-0.1-0.2-0.1-0.4-0.1-0.4L208.6,261.4z"/>
				<path class="st6" d="M208.1,148.2c0,0.1,0,0.2,0,0.4c-0.2,0.2-0.3,0.3-0.5,0.5c0-0.4,0.1-0.8,0.1-1.2c0.1-0.1,0.2-0.2,0.4-0.3
					C208.1,147.7,208.1,148,208.1,148.2z"/>
				<path class="st4" d="M208.2,144.2c-0.1,1.1-0.1,2.2-0.1,3.3c-0.1,0.1-0.2,0.2-0.4,0.3C207.8,146.6,208,145.4,208.2,144.2z"/>
				<path class="st3" d="M207.8,202.5c0.4,2.3,0.8,5.2,1.4,8.7c-11.1-1.6-22.8,3.5-34.5,17c-16,18.6,0.4,47.6,0,47.5
					c-4.9-0.5-13.1,0.3-12.8,12c0.5,16.5,16.5,8.2,16.5,8.2l0.6,1.5c-10.4,7.6-33.3,19.5-52.1-4.6c-25.1-32.2,19.6-86.8,67.9-90.4
					C199.7,202.1,204,202.1,207.8,202.5z"/>
				<path class="st3" d="M207.8,147.9c-0.1,0.4-0.1,0.8-0.1,1.2c-0.3,0.3-0.6,0.7-0.9,1.1c-0.7,1-1.4,2-2,3.1c0-0.1-0.1-0.2-0.1-0.2
					c0.4-1.1,0.9-2.2,1.5-3.2C206.7,149.1,207.2,148.4,207.8,147.9z"/>
				<path class="st4" d="M220,173.6c-3.9,1.1-10.6,2.7-16.9,2C210,176.1,219.5,173.7,220,173.6z"/>
				<path class="st3" d="M204.8,153.2c0.1,0.8,0.2,1.6,0.2,2.4c0,8.6-6.3,15.7-14.1,15.7s-14.1-7-14.1-15.7c0-0.1,0-0.1,0-0.2
					l0.6-0.3l-0.3-0.7l-0.2,0.1c0.1-0.6,0.1-1.1,0.2-1.6l0.2,0.1c0.2-0.1,0.5-0.2,0.7-0.3c-0.2,1-0.3,2-0.3,3
					c0,8.2,6,14.8,13.3,14.8s13.3-6.7,13.3-14.8c0-7.1-4.4-13-10.3-14.4c0.3-0.2,0.6-0.5,0.8-0.6c5.2,1.6,9.3,6.4,10.2,12.5
					c-0.1,0.2-0.1,0.5-0.2,0.7C204.6,153.4,204.7,153.3,204.8,153.2z"/>
				<path class="st6" d="M204.7,152.9c0,0.1,0.1,0.2,0.1,0.2c-0.1,0.2-0.2,0.3-0.2,0.5C204.6,153.4,204.7,153.2,204.7,152.9z"/>
				<path class="st7" d="M200.9,175.3c0.7,0.1,1.4,0.2,2.1,0.3C202.2,175.6,201.5,175.4,200.9,175.3z"/>
				<path class="st5" d="M193.8,141.1c5.9,1.5,10.3,7.4,10.3,14.4c0,8.2-6,14.8-13.3,14.8s-13.3-6.7-13.3-14.8c0-1,0.1-2,0.3-3
					c1.1-0.5,2.3-0.9,3.4-1.3c1.2-0.5,2.4-0.8,3.6-1.2c0.1,1.4,0.5,5.3,3.9,5.3c3.7,0,3.3-5.7,3.2-6.8c0.6-0.1,1.2-0.1,1.8-0.1
					c-1.4-0.3-2.9-0.3-4.3-0.2c-1.5,0.2-2.9,0.5-4.3,0.8c-2.5,0.8-5,1.9-7.2,3.3c0.5-2.6,1.6-5,3.2-6.9c2-0.7,4.1-1.5,6.2-2
					C190.5,142.8,192.6,141.9,193.8,141.1z"/>
				<path class="st4" d="M199.8,109.5l-0.2,1.8c-10.8-1.1-24.2,11.9-24.2,11.9c-10,11.6-9.9,33.1-9.8,36.4h-0.1
					c-0.7-4.6-5.7-44.1,22.9-49.6C192.4,109.3,196.2,109.2,199.8,109.5z"/>
				<path class="st4" d="M194.2,137.7c1,0.8,1.3,1.8,0.4,2.8c-1.2-0.4-2.4-0.6-3.7-0.6c-4.6,0-8.6,2.4-11.2,6.2
					c-4.9,2-8.6,3.9-8,2.1C175.7,136.7,192,136,194.2,137.7z"/>
				<path class="st3" d="M194.6,140.5c-0.2,0.2-0.5,0.5-0.8,0.6c-1-0.2-2-0.4-3-0.4c-3.8,0-7.3,1.9-9.8,4.8c-0.5,0.2-1,0.4-1.5,0.6
					c2.6-3.8,6.7-6.2,11.2-6.2C192.2,139.9,193.4,140.1,194.6,140.5z"/>
				<path class="st4" d="M193.7,148.5c-0.6,0-1.2,0.1-1.8,0.1c0-0.1,0-0.2,0-0.2c-2.9-0.2-7.1,1.2-7.1,1.2s0,0.2,0,0.5
					c-1.2,0.4-2.4,0.8-3.6,1.2c-1.1,0.5-2.3,0.8-3.4,1.3c0-0.1,0-0.1,0.1-0.2c2.2-1.4,4.6-2.5,7.2-3.3c1.4-0.4,2.8-0.7,4.3-0.8
					C190.8,148.1,192.3,148.2,193.7,148.5z"/>
				<path class="st4" d="M191.9,148.6c0.1,1.1,0.5,6.8-3.2,6.8c-3.4,0-3.8-4-3.9-5.3c0.2-0.1,0.3-0.1,0.5-0.2c1.4-0.4,2.8-0.7,4.2-1
					C190.2,148.8,191,148.6,191.9,148.6z"/>
				<path class="st4" d="M191.9,148.4c0,0,0,0.1,0,0.2c-0.8,0.1-1.6,0.2-2.5,0.3c-1.4,0.3-2.8,0.6-4.2,1c-0.2,0.1-0.3,0.1-0.5,0.2
					c0-0.3,0-0.5,0-0.5S188.9,148.3,191.9,148.4z"/>
				<path class="st8" d="M189.9,236.4l1.7,1c-12.6,16.8-6.9,55.4-6.9,55.4s-2.1,2-5.6,4.6l-0.6-1.5c0,0-16,8.2-16.5-8.2
					c-0.3-11.7,8-12.5,12.8-12l3.4,0.6h0.1c0-0.8,0-1.6,0-2.5c0-0.3,0-0.7,0-1.1c0-0.2,0-0.4,0-0.6
					C178.8,258.1,183.2,245.4,189.9,236.4z M180.4,286.7l-0.3-0.6c-0.2-0.5-0.5-1-0.8-1.4c-0.3-0.4-0.8-0.7-1.2-1
					c-1-0.5-2-0.6-3-0.5c-1,0.1-2,0.3-2.9,0.6c-1,0.3-1.9,0.7-2.7,1.2l0.1,0.1c1.8-0.8,3.7-1.4,5.6-1.5c1,0,1.9,0.1,2.8,0.6
					c0.4,0.2,0.7,0.5,1,0.8c0.1,0.2,0.3,0.4,0.4,0.6c-0.5-0.1-1.1-0.1-1.6-0.1c-0.8,0.1-1.5,0.2-2.3,0.5c-0.7,0.3-1.4,0.7-1.9,1.3
					c-0.6,0.6-0.9,1.2-1.1,2l0.1,0.1c0.5-0.6,0.8-1.2,1.4-1.6c0.6-0.4,1.1-0.8,1.8-1c0.7-0.2,1.4-0.3,2-0.4c0.7-0.1,1.4-0.1,2.1,0.1
					L180.4,286.7z"/>
				<path class="st5" d="M190.9,140.7c1,0,2,0.1,3,0.4c-1.2,0.8-3.3,1.6-6.6,2.4c-2.1,0.5-4.2,1.2-6.2,2
					C183.5,142.6,187,140.7,190.9,140.7z"/>
				<path class="st4" d="M180.1,286.2l0.3,0.6l-0.7-0.1c-0.7-0.1-1.4-0.1-2.1-0.1s-1.4,0.2-2,0.4c-0.7,0.2-1.2,0.6-1.8,1
					c-0.6,0.5-1,1-1.4,1.6l-0.1-0.1c0.2-0.7,0.6-1.4,1.1-2c0.5-0.6,1.2-1,1.9-1.3c0.7-0.3,1.5-0.5,2.3-0.5c0.5,0,1.1,0,1.6,0.1
					c0.1,0.2,0.2,0.4,0.3,0.6l0.5-0.5c-0.2-0.1-0.5-0.1-0.7-0.1c-0.1-0.2-0.2-0.4-0.4-0.6c-0.3-0.3-0.6-0.6-1-0.8
					c-0.8-0.5-1.8-0.6-2.8-0.6c-1.9,0.1-3.8,0.6-5.6,1.5l-0.1-0.1c0.8-0.5,1.8-0.8,2.7-1.2c1-0.3,1.9-0.6,2.9-0.6c1-0.1,2.1,0,3,0.5
					c0.5,0.2,0.9,0.6,1.2,1C179.6,285.2,179.9,285.6,180.1,286.2z"/>
				<path class="st3" d="M179.6,146.1c0.5-0.2,1-0.4,1.5-0.6c-1.6,1.9-2.7,4.3-3.2,6.9c-0.2,0.2-0.5,0.3-0.7,0.5l-0.2-0.1
					C177.3,150.3,178.3,148,179.6,146.1z"/>
				<path class="st4" d="M179.8,285.9l-0.5,0.5c-0.1-0.2-0.2-0.4-0.3-0.6C179.3,285.8,179.6,285.9,179.8,285.9z"/>
				<path class="st7" d="M178.2,272.9c0,0.3,0,0.7,0,1.1C178.2,273.6,178.2,273.3,178.2,272.9z"/>
				<path class="st7" d="M178.2,274c0,0.8,0,1.6,0,2.5C178.2,276.4,178.2,275.5,178.2,274z"/>
				<path class="st7" d="M178.2,276.4l-3.4-0.6C176.6,276,178,276.4,178.2,276.4z"/>
				<path class="st4" d="M177.2,152.9c0.2-0.2,0.5-0.3,0.7-0.5c0,0.1-0.1,0.1-0.1,0.2C177.6,152.7,177.4,152.8,177.2,152.9z"/>
				<path class="st6" d="M177,154.3l0.3,0.7l-0.6,0.3c0-0.3,0-0.6,0.1-0.9L177,154.3z"/>
				<path class="st3" d="M165.5,159.6l11.2-5.2c0,0.3-0.1,0.6-0.1,0.9l-11,5.1l-0.2-0.4l0,0V160C165.5,160,165.5,159.9,165.5,159.6z
					"/>
				<path class="st4" d="M171.7,170.2l-0.7,0.1c-0.8,0.2-1.6,0.5-2.4,0.7c-0.8,0.3-1.5,0.7-2.2,1.2c-0.7,0.5-1.2,1.1-1.7,1.8
					c-0.5,0.7-0.8,1.5-1,2.4h-0.1c0.1-0.9,0.2-1.8,0.6-2.7c0.4-0.8,1-1.5,1.7-2.1c0.7-0.6,1.5-1,2.4-1.4c0.6-0.2,1.2-0.5,1.9-0.6
					c0.2,0.2,0.3,0.3,0.6,0.5l0.2-0.6c-0.2,0.1-0.5,0.1-0.7,0.1c-0.5-0.4-1.1-0.8-1.7-1c-0.8-0.3-1.8-0.4-2.7-0.3s-1.8,0.4-2.7,0.8
					c-0.8,0.4-1.7,0.8-2.4,1.4l-0.1-0.1c0.7-0.6,1.5-1.1,2.4-1.6c0.8-0.5,1.8-0.8,2.8-1c1-0.2,2-0.1,2.9,0.2c1,0.2,1.8,0.8,2.6,1.5
					L171.7,170.2z"/>
				<path class="st6" d="M170.8,169.6l-0.2,0.6c-0.2-0.2-0.3-0.3-0.6-0.5C170.4,169.7,170.6,169.7,170.8,169.6z"/>
				<path class="st6" d="M165.5,160.1l-0.2-0.3l0.1-0.1C165.5,159.9,165.5,160,165.5,160.1L165.5,160.1z"/>
				<path class="st6" d="M165.5,159.6c0,0.2,0,0.3,0,0.4C165.5,160,165.5,159.9,165.5,159.6L165.5,159.6z"/>
				<path class="st4" d="M165.5,160.1c-2.3-0.2-4,0.5-4.7,0.7C163,159.9,165.1,160,165.5,160.1z"/>
				<path class="st4" d="M160.6,160.9c-0.1,0.1-0.2,0.1-0.2,0.1l0,0C160.5,160.9,160.6,160.9,160.6,160.9z"/>
			</g>
		</g>
	</g>
</g>
<g id="XMLID_813_">
	<g id="XMLID_453_">
		<g>
			<path id="XMLID_21_" class="st9" d="M329.2,212.6c-0.1,0-0.1-0.1-0.2-0.1c0,0,0.1,0,0.1-0.1c-0.1,0-0.3,0-0.3,0s-0.3,0-0.3-0.1
				c0-0.1,0.7,0,0.7-0.1c-0.1-0.1-0.2-0.1-0.3-0.1c0-0.1-0.1,0-0.1-0.1l0,0c-0.5,0-0.8,0-1.3-0.1c-0.2,0-0.3-0.1-0.5-0.1
				c-0.5-0.1-0.9-0.1-1.4-0.1c-0.2,0-0.5-0.1-0.7,0c-0.3,0-0.6,0-0.9,0c-0.2,0-0.5,0-0.7,0c-0.2,0-0.5,0-0.7,0.1
				c-0.1-0.1-0.2,0-0.3,0c-0.2,0-0.2,0-0.4,0c-0.2,0-0.5,0-0.7,0c-0.5,0.1-0.8,0-1.3,0c-0.2,0-0.3,0-0.6,0.1c-0.2,0-0.2,0-0.3,0
				s-0.3,0-0.4,0.1c-1,0.1-1.9,0-2.9,0.1c-0.2,0-0.4,0-0.6,0c-0.1,0-0.3,0-0.5,0.1c-0.2,0.1,0,0.2,0.1,0.2c0,0-0.1,0-0.1,0.1
				c0,0.1,0.1,0-0.1,0.1s-0.2,0-0.1,0.1c0,0,0.1,0.1,0.1,0.1l-0.1,0.1h-0.1c-0.1,0.1,0.1,0.1,0.1,0.1c0,0.1,0,0.1,0.1,0.1l0.1,0.1
				c0,0,0.1,0.1,0.1,0.1s0,0-0.1,0c-0.1,0-0.2-0.1-0.3,0s0.1,0.1,0.1,0.1c0.1,0.1,0.1,0.1,0.1,0.1s-0.1,0.1-0.1,0.1s0.1,0.1,0.2,0.1
				c0.2,0.1,0.3,0.1,0.6,0.2c0.2,0,0.3,0,0.5,0.1c0.1,0,0,0.1,0.1,0.1h0.3c0.2,0,0.2,0,0.5,0c0.1,0,0.3,0.1,0.4,0.1
				c0.2,0,0.4,0,0.6,0c0.1,0,0.1,0,0.2,0c0,0,0.1,0.1,0.1,0.1s0.2,0,0.1,0c0.1,0,0,0,0.1,0.1c0.1,0,0.1,0,0.1-0.1
				c0.1,0,0.1,0.1,0.2,0.1c0.1,0,0.2-0.1,0.3-0.1c-0.1,0-0.1,0.1-0.1,0.1h0.2c0.2,0,0.2,0.1,0.3,0c0,0-0.2,0-0.1-0.1
				c0.1-0.1,0.1,0,0.1,0c0.1,0.1,0,0.1,0.1,0.1c0,0,0.1,0,0.2,0l0.1,0.1c0,0,0.1,0,0.1-0.1c0.1,0,0-0.1,0.1-0.1v0.1v0.1
				c0.1,0,0.1,0,0.2,0c0.1-0.1,0.1-0.1,0.1,0c0.1,0,0.1,0,0.2,0c0,0-0.1-0.1,0-0.1c0,0.1-0.1,0.1,0.1,0.1c0.1,0,0.1,0.1,0.2,0
				c0.1,0.1,0.1,0.1,0.1,0l0.1-0.1c0,0.1,0.3,0.1,0.4,0.1s0.2,0,0.3,0c0.3,0,0.7-0.1,1-0.1c0.6,0,1.3-0.1,1.9-0.2
				c0.3-0.1,0.7-0.1,1-0.1c0.2,0,0.3-0.1,0.5-0.1c0.2,0,0.3,0,0.5-0.1c0.1,0,0.2-0.1,0.2-0.1s0.1,0,0.1,0c0.1,0,0,0.1,0.1,0
				c0.1,0,0-0.1,0-0.1c0.2-0.1,0.3-0.1,0.5-0.1c0.3-0.1,0.5-0.1,0.7-0.1c0.1,0,0.2,0,0.3,0l0.1-0.1c0.1,0-0.1-0.1,0-0.1
				c0.1-0.1,0.1-0.1,0.2,0c0,0-0.1,0,0,0.1c0.3,0,0.1,0,0.1-0.1c0.1-0.1,0.2,0.1,0.1-0.1h-0.1c0-0.1,0.1-0.1,0.1-0.1h-0.1h0.1h0.1
				c0.1,0-0.1,0-0.1,0c0-0.1,0,0,0.1-0.1c-0.2-0.1,0.4-0.1,0.4-0.1h-0.2c-0.1,0-0.2,0-0.3,0c-0.1,0,0-0.1-0.1-0.1h-0.1
				c0,0,0.5-0.1,0.6-0.1s0-0.1,0-0.1c0-0.1,0.1,0,0.2-0.1c-0.1,0-0.1,0-0.1-0.1c0.1,0,0.1-0.1,0.2-0.1
				C329,212.6,329.2,212.7,329.2,212.6L329.2,212.6L329.2,212.6z"/>
		</g>
	</g>
	<path id="XMLID_482_" class="st10" d="M329.7,211.3c-0.1,0-0.2-0.1-0.2-0.1s-0.2,0-0.3-0.1c0.1-0.1,0.1-0.1-0.1-0.1
		c-0.1,0-0.2,0-0.2,0s-0.1-0.1-0.1-0.1s-0.3,0-0.3-0.1s0.2,0,0.3-0.1s-0.4-0.1-0.5-0.1c-0.1,0-0.3,0-0.4-0.1c-0.1,0-0.1-0.1-0.1-0.1
		c0,0,0.1,0.1,0,0.1h-0.2c-0.1-0.1,0.2-0.1,0.2-0.1c-0.1-0.1-0.2,0-0.2,0s-0.2-0.1-0.3-0.1c-0.2-0.1-0.5-0.1-0.7-0.1
		c-0.2,0-0.5-0.1-0.7-0.1c-0.1,0-0.1,0-0.1,0l-0.1-0.1c-0.2,0-0.3,0-0.5,0c-0.5,0-1.2-0.1-1.7-0.1c-0.2,0-0.4-0.1-0.6-0.1
		c-0.2,0-0.2-0.1-0.4,0h-0.1c-0.1,0-0.2,0-0.3,0s-0.3-0.1-0.3,0c-0.1,0-0.1,0.1-0.2,0.1c-0.1,0,0,0-0.1,0s-0.1,0-0.2,0s-0.2,0-0.2,0
		h-0.1c-0.1,0-0.2,0-0.3,0c-0.1,0-0.1,0-0.1,0s-0.1-0.1-0.2,0c-0.1,0-0.3,0-0.3,0.1c-0.1,0-0.1,0.1-0.1,0.1h-0.2
		c-0.2,0-0.3,0.1-0.6,0.1c-0.6,0-1.2,0-1.7,0c-0.6,0-1.2,0-1.7,0.1c-0.2,0.1-0.5,0.2-0.6,0.3c-0.1,0.1-0.2,0.1-0.5,0.2
		c-0.2,0.1-0.4,0.1-0.6,0.2c-0.1,0,0,0.1-0.1,0.1s-0.2,0-0.2,0c-0.2,0.1,0.1,0.1,0.1,0.2c-0.2,0-0.3,0.1-0.4,0.2
		c-0.1,0.1,0,0.2,0.1,0.3s0.1,0.2,0.3,0.2c0.1,0,0.1,0,0.1,0c0.2,0,0.2,0.2,0.3,0.2c0.3,0,0.6,0,0.8,0c0.1,0,0.2,0,0.2,0
		c0.2,0,0.2,0,0.3,0c0.2,0,0.3,0,0.5-0.1c0.1,0,0.1,0,0.2,0.1c0.1,0.1,0.1,0.1,0.2,0.1c0.2,0.1,0.6,0,0.8,0c0.3,0,0.7-0.2,1.1-0.2
		c0.7-0.1,1.2,0.1,1.9,0.1c1.1,0.1,2.4,0.1,3.6,0.1c0.3,0,0.7,0,1.1-0.1c0.1,0,0.2,0,0.2,0c0.1,0,0-0.1,0.1-0.1s0.1,0.1,0.1,0.1
		c0.1,0,0.1,0,0.2,0s0.2,0,0.3,0s0-0.1,0.1-0.1c0.1-0.1,0.1,0,0.2,0.1c0.1,0-0.1,0.2,0.2,0.1c0,0,0.2,0,0.1,0c0,0,0-0.1,0.1,0
		l0.1,0.1c0.1,0,0.2,0,0.3,0c0.1-0.1,0.1-0.1-0.1-0.1c0-0.2,0.2,0,0.2,0.1c0.1,0,0.5,0,0.5,0c0.1-0.1,0-0.1,0.1-0.1
		c-0.1,0,0.2,0.1,0.2,0.1c0.1,0,0.1-0.1,0.1-0.1h0.1c0,0,0,0,0.1-0.1c0.1,0.1,0.2,0,0.3-0.1c0.1,0,0.1-0.1,0.1-0.1
		c0.1,0,0.2,0,0.2,0s0.2-0.1,0.3-0.1c0.2-0.1-0.3,0-0.1-0.2c0.1-0.1,0.2,0,0.2-0.1c0,0,0.1-0.1,0.2-0.1s0.3,0.1,0.2-0.1
		s-0.8,0-0.7-0.2h-0.1l0.1-0.1c0.2-0.1,0.1,0,0.1,0.1s-0.1,0.1,0.1,0.1h0.1c0,0-0.1-0.1,0-0.1h0.1c0.1,0,0.1,0,0.2,0.1
		c0.1,0,0.1,0.1,0.2,0.1C329.6,211.4,329.8,211.4,329.7,211.3z"/>
	<g id="XMLID_458_">
		<g>
			<path id="XMLID_136_" class="st11" d="M329.3,210c-0.3,0-0.7,0-1,0c0,0,0.1-0.1,0.1-0.1s0.1,0,0.2-0.1c0,0-0.1-0.1,0-0.1
				c0,0,0.1,0,0.1-0.1c0,0,0.3-0.1,0.1-0.1c0-0.1,0.3,0,0.3-0.1c0,0-0.7,0-0.8,0c0-0.1,0.2,0,0.2,0c0.1-0.1-0.3,0-0.3-0.1
				c0.1-0.1,0.1,0,0-0.1c0.2-0.1,0.5-0.1,0.6-0.1c-0.1-0.1-0.3,0-0.4,0c-0.2,0-0.5,0.1-0.6-0.1c0.1-0.1,0.3,0,0.4-0.1
				c0-0.1-0.4,0-0.4-0.1c0.1,0,0.1-0.1,0.1-0.1h-0.2c0.1,0,0.1,0,0.1,0l-0.2-0.1c0-0.1,0.5-0.1,0.6-0.1s0.3,0,0.4-0.1
				c0.1,0,0.2,0,0.2,0c0.1,0,0.2,0,0.2,0s0,0,0,0s0.2-0.1,0.2-0.1c0.1,0,0.2,0,0.3-0.1c-0.1,0-0.4,0-0.5,0c-0.2,0-0.3,0-0.5,0
				c-0.3,0-0.5,0-0.8-0.1c-0.5-0.1-0.9-0.1-1.4-0.1c-0.5-0.1-1.1-0.1-1.6-0.1c-0.6,0-1.2-0.1-1.9-0.1c-0.8,0-1.7,0-2.5,0
				c-0.5,0-1.1,0-1.7,0.1c-1,0.1-2.1,0.1-3.1,0.2c-0.2,0-1,0.1-0.7,0.3c0.1,0,0.2,0,0.2,0.1l0.1,0.1c0,0.1,0.1,0,0,0.1
				c0,0-0.1,0-0.2,0c-0.1,0.1,0.2,0,0.2,0c0,0.1-0.2,0-0.2,0.1c0,0,0.5,0,0.5,0.1s-0.2,0-0.3,0h0.2c0,0-0.4,0-0.5,0l0.1,0.1
				c0,0.1-0.3,0-0.2,0.1s0.2,0.1,0.3,0.1c-0.1,0.1-0.1,0-0.1,0.1c0,0.1,0.1,0,0,0.1c-0.1,0-0.3,0-0.3,0c-0.1,0-0.3,0-0.3,0l-0.1,0.1
				v0.1c0.1,0,0.1,0,0.2,0c0.1,0.1,0,0.1,0.1,0.1c0,0,0.1,0.1,0.2,0.1c0,0,0.1,0.1,0.1,0.1c0.1,0.1,0,0.1,0.1,0.1
				c0.1,0.1,0.2,0.1,0.3,0.1s0.1,0.1,0.2,0.1c0.1,0.1-0.1,0.1,0.2,0.1h0.1c0.1,0,0.5,0.1,0.5,0.1h0.1c0.1,0,0.2,0.1,0.3,0.1
				c0.1,0,0.1,0,0.2,0c0.1,0,0.2,0,0.3,0c0.1,0,0.4,0.1,0.5,0c-0.1,0.1,0.3,0.1,0.3,0.1c0.1,0,0.4,0,0.4,0c0.1-0.1,0.4-0.1,0.5-0.1
				c0.1,0,0.3,0,0.4,0c0.2,0,0.3,0,0.5,0c0.1,0,0.3,0,0.4,0c0.1-0.1,0,0,0.1,0s0.2,0,0.2,0c0.3,0,0.6,0,0.9,0c0.3,0,0.7,0,1,0
				c0.2,0,0.3,0,0.5,0c0.2,0,0.3,0,0.5,0c0.8,0,1.6,0,2.5,0c0.4,0,1,0,1.3,0c0.1,0,1.2,0,1.2,0h-0.3c-0.1,0-0.1,0-0.2,0
				c-0.1,0-0.2,0-0.3,0c-0.1,0-0.1,0-0.2,0c-0.1,0-0.1,0-0.1,0s-0.1,0.1-0.1,0l0,0c0-0.1,0.9,0,1,0s0.1,0,0.2,0c0.1,0,0.1,0,0.2,0
				c0.2,0,0.5,0,0.7,0c0.1,0,0.7-0.1,0.6-0.2c-0.1,0-0.1,0-0.2,0C329.1,210.3,329.4,210,329.3,210z"/>
			<path id="XMLID_135_" class="st11" d="M327.9,210.6C327.9,210.6,327.9,210.6,327.9,210.6S328,210.6,327.9,210.6
				C327.9,210.6,328,210.5,327.9,210.6z"/>
			<path id="XMLID_134_" class="st11" d="M328.2,210.6h-0.1C328,210.6,328.2,210.6,328.2,210.6z"/>
			<path id="XMLID_133_" class="st11" d="M328.2,210.5C328.2,210.5,328.2,210.5,328.2,210.5C328.2,210.6,328.3,210.6,328.2,210.5
				L328.2,210.5z"/>
			<path id="XMLID_132_" class="st11" d="M328.4,210.6c-0.1,0-0.2-0.1-0.2,0C328.3,210.6,328.6,210.6,328.4,210.6
				C328.6,210.5,328.5,210.5,328.4,210.6C328.4,210.5,328.5,210.6,328.4,210.6z"/>
			<path id="XMLID_131_" class="st11" d="M314.8,209.4L314.8,209.4L314.8,209.4z"/>
			<path id="XMLID_130_" class="st11" d="M323,208.5C323,208.5,323,208.5,323,208.5L323,208.5z"/>
			<path id="XMLID_129_" class="st11" d="M328.3,210.4L328.3,210.4L328.3,210.4z"/>
			<path id="XMLID_128_" class="st11" d="M319.7,210.5L319.7,210.5L319.7,210.5z"/>
			<path id="XMLID_127_" class="st11" d="M326,210.4L326,210.4L326,210.4z"/>
		</g>
	</g>
	<g id="XMLID_653_">
		<g>
			<path id="XMLID_25_" class="st12" d="M313.2,208.4c0.1,0,0.2,0.1,0.2,0.1c0,0-0.1,0-0.1,0.1c0.1,0,0.3,0,0.4,0
				c0.1,0,0.4,0,0.4,0.1c0,0.1-0.8,0-0.8,0.1c0.1,0.1,0.2,0,0.4,0c0,0.1,0.1,0,0.1,0l0,0c0.5,0,1,0,1.4,0.1c0.2,0,0.3,0.1,0.6,0.1
				c0.5,0.1,1,0.1,1.5,0.1c0.3,0,0.6,0,0.8,0c0.3,0,0.7,0,1,0c0.2,0,0.5,0,0.7,0c0.2,0,0.5,0,0.8-0.1c0.1,0.1,0.3,0,0.3,0
				c0.2,0,0.3,0,0.5,0c0.2,0,0.5,0,0.7,0c0.5,0,1,0,1.5,0c0.2,0,0.4,0,0.6-0.1c0.2,0,0.3,0,0.4,0c0.2,0,0.3,0,0.5,0
				c1.1-0.1,2.1,0,3.2-0.1c0.2,0,0.5,0,0.7,0c0.2,0,0.4,0,0.6-0.1c0.3-0.1,0-0.1-0.1-0.2c0,0,0.1,0,0.1-0.1s-0.1,0,0.1-0.1
				s0.2,0,0.1-0.1c0,0-0.1-0.1-0.1-0.1l0.1-0.1h0.1c0.1-0.1-0.1-0.1-0.1-0.1c0-0.1,0-0.1-0.1-0.1c0,0-0.1-0.1-0.1-0.1l-0.1-0.1
				c0-0.1,0,0,0.1,0s0.2,0.1,0.3,0c0.1-0.1-0.1-0.1-0.1-0.1c-0.1-0.1-0.1-0.1-0.1-0.1l0.1-0.1c0-0.1-0.1-0.1-0.2-0.1
				c-0.2-0.1-0.4-0.1-0.7-0.1c-0.2,0-0.3,0-0.5-0.1c-0.1,0,0-0.1-0.1-0.1s-0.3,0-0.3,0c-0.2,0-0.3,0-0.5,0c-0.1,0-0.3-0.1-0.4-0.1
				c-0.2,0-0.5,0-0.7,0c-0.1,0-0.2,0-0.2,0H326c0.1,0-0.2,0-0.1,0c-0.1,0,0,0-0.1-0.1c-0.1,0-0.1,0-0.1,0.1c-0.1,0-0.1-0.1-0.2-0.1
				c-0.1,0-0.2,0.1-0.3,0.1c0.1,0,0.1-0.1,0.1-0.1c0,0-0.2,0-0.3,0c-0.2,0-0.3-0.1-0.3,0c0,0,0.2,0,0.1,0.1c-0.1,0-0.1,0-0.1,0
				c-0.1-0.1,0-0.1-0.1-0.1c0,0-0.2,0-0.2,0l-0.1-0.1c-0.1,0-0.1,0-0.1,0.1c-0.1,0,0,0.1-0.1,0.1v-0.1V207c-0.1,0-0.1,0-0.2,0
				c-0.1,0.1-0.1,0.1-0.1,0c-0.1,0-0.1,0-0.2,0c0,0,0.2,0.1,0,0.1c0-0.1,0.1-0.1-0.1-0.1c-0.1,0-0.2-0.1-0.2,0c-0.1,0-0.1,0-0.1,0
				c0,0-0.1,0.1-0.2,0.1c0-0.1-0.3-0.1-0.4-0.1s-0.3,0-0.4,0c-0.3,0-0.8,0-1.1,0.1c-0.7,0-1.4,0.1-2.1,0.2c-0.4,0.1-0.7,0.1-1.1,0.1
				c-0.2,0-0.3,0.1-0.5,0.1c-0.2,0-0.3,0-0.5,0c-0.1,0-0.2,0.1-0.3,0.1c-0.1,0-0.1,0-0.1,0s0-0.1-0.1,0c-0.1,0,0,0.1-0.1,0.1
				c-0.2,0-0.4,0.1-0.6,0.1c-0.3,0-0.6,0.1-0.8,0.1c-0.1,0-0.2,0-0.3,0l-0.1,0.1c-0.1,0,0.1,0,0.1,0.1c-0.1,0-0.1,0.1-0.2,0
				c0,0,0.1,0,0,0c-0.3,0-0.1,0-0.1,0.1c-0.1,0.1-0.2-0.1-0.2,0.1h0.1c0,0.1-0.2,0.1-0.2,0.1h0.1h-0.1c0,0-0.1,0-0.1,0
				c-0.1,0,0.1,0,0.1,0c0,0.1,0,0-0.1,0.1c0.2,0.1-0.5,0-0.4,0.1c0,0,0.2,0,0.3,0s0.2,0,0.3,0s0,0.1,0.1,0.1c0,0,0.1,0,0.2,0
				c0,0-0.6,0.1-0.6,0.1c-0.1,0.1,0,0.1,0,0.1c0,0.1-0.1,0-0.2,0.1c0.1,0,0.1,0,0.1,0.1c-0.1,0-0.1,0.1-0.2,0.1
				C313.4,208.4,313.2,208.4,313.2,208.4L313.2,208.4C313.2,208.4,313.2,208.4,313.2,208.4z"/>
		</g>
	</g>
	<g id="XMLID_337_">
		<g>
			<path id="XMLID_78_" class="st13" d="M313.2,207c0.1,0,0.3,0,0.5,0c0.1,0,0.1,0.1,0.2,0.1c0.1,0.1,0.5-0.1,0.5,0.1l-0.2,0.1
				c0.1,0,0.3,0,0.3,0c0.1,0,0.2,0,0.2,0.1c0,0,0.1,0,0.2,0c0.1,0-0.1,0,0.2,0.1c0.1,0,0.1,0,0.1,0l0,0c0.3,0,0.6,0,0.9,0
				c0.4,0.1,0.8,0.1,1.2,0.1c1,0.1,2,0.1,3.1,0.1c0.6,0,1.4,0,2,0c0.7,0,1.4-0.1,2.1-0.1c0.5,0,1,0.1,1.6,0.1c0.5,0,1,0.1,1.5,0.1
				c0.1,0,0.3-0.1,0.4-0.1c0.1,0,0.2,0,0.3,0c0.1,0,0.1-0.1,0.2-0.1c0.1,0,0.2,0,0.2-0.1s0-0.1,0.1-0.1l0.1-0.1l0.1-0.1
				c0-0.1-0.3-0.1-0.3-0.2c-0.1,0,0.1,0,0.1,0c-0.1-0.1-0.3-0.1-0.3-0.1c0-0.1,0.1,0,0.1-0.1c-0.1-0.1,0.5-0.1,0.5-0.1h0.5
				c0,0-0.1,0-0.1-0.1c0.1,0,0.4,0,0.5,0l-0.3-0.1c0.1-0.1,0.5,0.1,0.5-0.1c0.1-0.1-0.1-0.1-0.1-0.1c0,0-0.1-0.1-0.1-0.1
				s-0.1,0-0.1-0.1c0.1-0.1,0.3,0,0.4-0.1c-0.1,0-0.3,0-0.3-0.1c-0.1,0-0.2-0.1-0.3-0.1c-0.2,0-0.3-0.1-0.5-0.1
				c-0.5-0.1-1-0.2-1.5-0.2c-0.2,0-0.6,0-0.7-0.1c-0.1-0.1-0.1-0.1-0.2-0.2c-0.1-0.1-0.2-0.1-0.3-0.1c-0.3-0.1-0.7-0.1-1.1-0.1
				c-0.4,0-0.7-0.1-1.1-0.1c-1-0.1-1.7-0.1-2.7-0.1c0-0.1,0.1-0.1-0.1-0.1c-0.1,0-0.1,0-0.2,0c-0.1,0-0.1,0-0.2,0s-0.1,0-0.2,0
				c-0.1,0-0.1,0-0.2,0c-0.1,0-0.2,0-0.3,0c-0.3,0-0.7,0-1,0c-0.2,0-0.5,0.1-0.6,0.1c-0.1,0-0.2,0.1-0.2,0.1c-0.1,0-0.2,0-0.2,0.1
				c-0.3,0.1-0.8,0-1.3,0c-0.3,0-0.7,0-1,0c-0.2,0-0.5,0.1-0.7,0.1c-0.1,0-0.2,0-0.3,0.1c0,0-0.1,0-0.1,0c-0.1,0.1,0.1,0.1,0.1,0.1
				c0,0.1-0.3,0.1-0.3,0.1c-0.1,0-0.2,0.1-0.3,0.1c0,0.1,0.2,0,0.2,0c0.1,0-0.1,0.1,0,0.1c0,0,0.1,0,0.1,0c-0.1,0.1-0.2,0-0.3,0.1
				h0.2c0.1,0.1-0.1,0.1-0.1,0.1c0,0.1-0.1,0,0.1,0c0.1,0,0.6-0.1,0.6,0s-0.2,0.1-0.2,0.1c-0.1,0-0.2,0-0.3,0.1
				c-0.1,0-0.1,0.1-0.2,0.1c-0.1,0-0.2,0.1-0.3,0.1s0.2,0,0.2,0c0,0.1-0.3,0.1-0.3,0.1s0.1,0.1,0,0.1s-0.1,0.1-0.2,0.1
				c-0.2,0.1,0,0.1,0,0.1C313.3,207,313.2,207,313.2,207C313.2,207,313.2,207,313.2,207z"/>
			<path id="XMLID_77_" class="st13" d="M313.7,206L313.7,206C313.7,206,313.7,206,313.7,206L313.7,206z"/>
			<path id="XMLID_76_" class="st13" d="M323.7,207.1L323.7,207.1L323.7,207.1z"/>
			<path id="XMLID_75_" class="st13" d="M323.1,206.5C323.1,206.5,323.1,206.5,323.1,206.5L323.1,206.5z"/>
		</g>
	</g>
	<g id="XMLID_444_">
		<g>
			<path id="XMLID_64_" class="st14" d="M329.7,204.2c-0.1-0.1-0.3-0.1-0.5-0.1c-0.3,0-0.7-0.1-1,0c-0.3,0-0.8,0-1.2,0
				c-0.6,0-1.1,0-1.7,0c-0.5,0-1-0.1-1.6-0.1c-1.3-0.1-2.6,0-3.9,0.1c-1.6,0.1-3.2,0.1-4.7,0.1c-0.2,0-0.8-0.1-0.8,0.1
				c-0.1,0.1,0.1,0,0.2,0.1c0.1,0.1-0.1,0.1-0.2,0.1c-0.3,0.1,0,0.2-0.2,0.3c-0.1,0-0.2,0-0.2,0.1c0,0.1,0.1,0.1,0.1,0.1
				c-0.1,0-0.1,0-0.1,0c0.1,0,0.1,0,0.1,0.1c0.1,0,0.1,0,0.2,0c0.1,0,0.1,0.1,0.1,0.1c0.2,0.1,0.3,0.1,0.5,0.1h0.1
				c0.1,0,0.1,0.1,0.1,0.1c0.1,0.1,0.3,0,0.3,0.1c0.1,0,0.1,0.1,0.1,0.1c0.1,0.1,0.1,0.1,0.2,0.1c0.2,0.1,0.5,0.2,0.8,0.2
				c0.1,0,0.3,0,0.5,0.1c0.1,0,0.1,0.1,0.2,0.1c0.3,0.1,0.6,0.1,1,0.1c0.3,0,0.6,0,0.9-0.1c0.2-0.1,0.4-0.1,0.6-0.1
				c0.6,0,1.2,0,1.9,0c0.2,0,0.4,0,0.6,0c0.1,0,0.2,0.1,0.3,0.1c0.3,0,0.6,0,0.8,0c0.5-0.1,1-0.1,1.5-0.1c0.2,0,0.5,0.1,0.8,0.1
				c0.3,0,0.6,0,0.8-0.1c0.2,0,0.4-0.1,0.6-0.1c0.1,0,0.5-0.1,0.5-0.1c0,0-0.1,0-0.1-0.1h0.1c0.2,0,0.2,0,0.3-0.1
				c0.1-0.1,0.1-0.1,0.2-0.1c0.1,0,0.3,0,0.4-0.1s-0.2-0.1-0.2-0.1c0.1-0.1,0.4,0,0.2-0.1c-0.1,0-0.2,0-0.2,0c0,0-0.2,0-0.2,0
				c-0.1-0.1,0.1-0.1,0.1-0.1c0.1-0.1-0.1-0.1,0-0.1c0.1,0,0.2,0,0.3,0c0.1,0,0.6,0,0.7-0.1c0,0-0.4-0.1-0.5-0.1
				c-0.2,0-0.5,0-0.7-0.1c0,0,0.1-0.1,0.1-0.1c0.2-0.1,0.1,0,0.2,0c0.1,0,0.1,0,0.1,0h0.1c0.1,0,0.2,0,0.2-0.1
				c0.1-0.1-0.1-0.1,0.1-0.1c0.1,0,0.1,0,0.1,0c0.1,0,0.1-0.1,0.1-0.1c0.1-0.1,0.2-0.1,0.3-0.1C329,204.3,329.7,204.3,329.7,204.2
				L329.7,204.2z"/>
			<path id="XMLID_62_" class="st14" d="M329.7,204.1L329.7,204.1C329.7,204.1,329.8,204.1,329.7,204.1z"/>
			<path id="XMLID_50_" class="st14" d="M322.6,205.1L322.6,205.1L322.6,205.1z"/>
		</g>
	</g>
</g>
<g id="XMLID_1_">
	<g id="XMLID_63_">
		<g>
			<path id="XMLID_26_" class="st9" d="M275,221.4c-0.1,0-0.1,0-0.2,0.1c0,0,0.1-0.1,0.1-0.1s-0.2,0.1-0.3,0.1s-0.3,0.1-0.3,0.1
				c0-0.1,0.6-0.3,0.6-0.3c-0.1,0-0.2,0.1-0.3,0.1c0-0.1-0.1,0-0.1,0l0,0c-0.3,0.2-0.7,0.3-1,0.5c-0.2,0.1-0.3,0-0.5,0.1
				c-0.4,0.2-0.7,0.3-1.1,0.5c-0.2,0.1-0.4,0.2-0.6,0.3c-0.2,0.1-0.5,0.3-0.7,0.4c-0.2,0.1-0.3,0.2-0.5,0.3
				c-0.2,0.1-0.4,0.2-0.5,0.3c-0.1,0-0.2,0.1-0.3,0.1c-0.1,0.1-0.2,0.1-0.3,0.2c-0.2,0.1-0.4,0.2-0.5,0.3c-0.3,0.2-0.7,0.3-1,0.5
				c-0.1,0.1-0.3,0.2-0.4,0.2c-0.1,0.1-0.2,0.1-0.3,0.2c-0.1,0.1-0.2,0.1-0.3,0.2c-0.7,0.5-1.5,0.8-2.3,1.2
				c-0.2,0.1-0.3,0.2-0.5,0.3c-0.1,0.1-0.3,0.2-0.3,0.2c-0.2,0.2,0.1,0.1,0.2,0.1l-0.1,0.1c0,0.1,0.1,0,0,0.1
				c-0.1,0.1-0.2,0.1-0.1,0.2l0.1,0.1l-0.1,0.1l-0.1,0.1c0,0.1,0.1,0,0.1,0.1c0.1,0.1,0.1,0.1,0.1,0.1l0.1,0.1h0.1
				c0,0.1,0,0-0.1,0.1s-0.2,0.1-0.2,0.1c-0.1,0.1,0.1,0.1,0.1,0.1s0.1,0,0.2,0.1c0,0-0.1,0.1,0,0.1c0.1,0,0.1,0,0.2,0
				c0.2,0,0.3-0.1,0.5-0.1c0.1-0.1,0.2-0.1,0.3-0.2c0.1,0,0,0.1,0.1,0l0.2-0.1c0.1-0.1,0.2-0.1,0.3-0.2c0.1-0.1,0.2-0.1,0.3-0.1
				c0.1-0.1,0.3-0.2,0.5-0.2l0.1-0.1c0,0,0.1,0,0.1,0c0,0,0.2-0.1,0.1-0.1c0.1,0,0,0,0.1,0c0.1,0,0.1-0.1,0.1-0.1h0.1
				c0.1-0.1,0.1-0.2,0.2-0.2c-0.1,0.1-0.1,0.1,0,0.1l0.2-0.1c0.2-0.1,0.2,0,0.2-0.1c0,0-0.1,0.1-0.1,0s0.1-0.1,0.1-0.1
				c0.1,0,0.1,0.1,0.1,0c0,0,0.1-0.1,0.2-0.1h0.1l0.1-0.1c0-0.1-0.1-0.1,0.1-0.1v0.1l0.1,0.1c0.1,0,0.1-0.1,0.1-0.1
				c0-0.1,0.1-0.1,0.1-0.1c0.1,0,0.1,0,0.1-0.1c0,0-0.1,0,0-0.1c0.1,0,0,0.1,0.1,0.1s0.1,0,0.2-0.1c0.1,0,0.1,0,0.1-0.1
				c0,0,0.1-0.1,0.1-0.1c0.1,0.1,0.3-0.1,0.3-0.1s0.2-0.1,0.3-0.1c0.2-0.1,0.5-0.3,0.7-0.4c0.5-0.3,1-0.6,1.4-0.9
				c0.2-0.2,0.5-0.3,0.7-0.5c0.1-0.1,0.2-0.2,0.3-0.2s0.3-0.1,0.3-0.2c0.1-0.1,0.1-0.1,0.2-0.1s0.1,0,0.1-0.1c0.1-0.1,0.1,0,0.1-0.1
				v-0.1c0.1-0.1,0.2-0.2,0.3-0.3c0.2-0.1,0.4-0.2,0.5-0.3c0.1-0.1,0.1-0.1,0.2-0.1l0.1-0.1c0-0.1-0.1,0-0.1,0
				c0-0.1,0.1-0.1,0.1-0.1c0,0,0,0,0,0.1c0.2-0.1,0.1-0.1,0.1-0.1c0-0.1,0.2-0.1,0.1-0.1c0,0-0.1,0.1-0.1,0l0.1-0.1h-0.1l0.1-0.1
				h0.1c0.1-0.1-0.1,0-0.1,0c-0.1-0.1,0,0,0.1-0.1c-0.2,0,0.3-0.2,0.3-0.2l-0.2,0.1c-0.1,0-0.2,0.1-0.2,0.1c-0.1,0-0.1,0-0.1,0
				l-0.1,0.1c0,0,0.3-0.3,0.4-0.3s-0.1,0-0.1-0.1s0.1-0.1,0.1-0.1c-0.1,0-0.1,0.1-0.1,0c0.1-0.1,0.1-0.1,0.1-0.1
				C274.8,221.5,275,221.4,275,221.4L275,221.4L275,221.4z"/>
		</g>
	</g>
	<path id="XMLID_61_" class="st10" d="M274.8,220.2c-0.1,0-0.1,0-0.2,0.1c-0.1,0-0.2,0.1-0.2,0.1c0.1-0.1,0-0.1-0.1-0.1
		c-0.1,0-0.1,0.1-0.2,0.1c-0.1,0-0.1,0-0.1,0s-0.3,0.1-0.3,0.1c-0.1-0.1,0.2-0.1,0.2-0.2c0.1-0.1-0.3,0.1-0.4,0.1
		c-0.1,0.1-0.2,0.1-0.3,0.2c-0.1,0-0.1,0-0.1,0.1c0,0,0.1,0,0.1,0.1c0,0-0.2,0.1-0.2,0.1c-0.1,0,0.2-0.1,0.2-0.2
		c-0.1,0-0.1,0.1-0.2,0.1s-0.2,0-0.2,0.1c-0.2,0.1-0.4,0.1-0.6,0.2c-0.2,0.1-0.4,0.1-0.6,0.2c0,0-0.1,0.1-0.1,0.1h-0.1
		c-0.1,0.1-0.2,0.1-0.3,0.2c-0.4,0.2-1,0.5-1.4,0.6c-0.2,0.1-0.3,0.1-0.5,0.2c-0.1,0.1-0.2,0.1-0.3,0.1c0,0-0.1,0.1,0,0
		c-0.1,0.1-0.1,0.1-0.2,0.1c-0.1,0.1-0.2,0.1-0.3,0.1s0,0.1-0.1,0.1c0,0,0,0-0.1,0s-0.1,0.1-0.1,0.1s-0.2,0.1-0.2,0.1l-0.1,0.1
		c-0.1,0.1-0.2,0.1-0.3,0.2c-0.1,0-0.1,0.1-0.1,0.1c-0.1,0-0.1,0-0.2,0.1c-0.1,0.1-0.2,0.1-0.2,0.2c-0.1,0.1,0,0.1-0.1,0.1l-0.2,0.1
		c-0.1,0.1-0.3,0.2-0.4,0.3c-0.5,0.2-0.9,0.5-1.4,0.7c-0.5,0.2-1,0.5-1.4,0.8c-0.2,0.2-0.3,0.3-0.3,0.5c-0.1,0.1-0.1,0.2-0.3,0.3
		c-0.1,0.1-0.3,0.2-0.3,0.3c0,0.1,0,0.1,0,0.1c-0.1,0.1-0.1,0.1-0.2,0.1c-0.1,0.1,0.1,0.1,0.1,0.1c-0.2,0.1-0.2,0.2-0.2,0.3
		c0,0.1,0.1,0.1,0.2,0.2c0.1,0.1,0.1,0.2,0.3,0c0.1,0,0.1-0.1,0.1-0.1c0.1-0.1,0.2,0.1,0.3,0c0.2-0.1,0.5-0.2,0.7-0.3
		c0.1-0.1,0.1-0.1,0.2-0.1c0.1-0.1,0.1-0.1,0.2-0.1s0.2-0.2,0.4-0.2c0.1-0.1,0.1-0.1,0.2-0.1c0.1,0,0.1,0,0.2,0
		c0.2-0.1,0.5-0.2,0.6-0.3c0.3-0.2,0.5-0.4,0.7-0.6c0.5-0.3,1-0.5,1.5-0.7c1-0.4,2-0.8,2.8-1.4c0.3-0.2,0.6-0.3,0.8-0.5
		c0.1,0,0.1-0.1,0.2-0.1c0-0.1,0-0.1,0.1-0.1h0.1c0.1,0,0.1,0,0.1-0.1c0.1,0,0.2-0.1,0.2-0.1c0-0.1-0.1-0.1,0-0.1
		c0.1-0.1,0.1,0,0.1,0c0.1,0-0.1,0.2,0.2,0c0,0,0.1-0.1,0.1-0.1c0,0,0,0,0-0.1h0.1c0.1,0,0.2-0.1,0.2-0.1s0-0.1-0.1-0.1
		c-0.1-0.1,0.1-0.1,0.2-0.1c0.1,0,0.4-0.2,0.4-0.2c0.1-0.1-0.1-0.1,0-0.1l0.1-0.1c0.1,0,0.1-0.1,0.1-0.1c0,0,0.1-0.1,0.1-0.1
		c0,0,0,0,0-0.1c0.1,0,0.2-0.1,0.2-0.2c0.1-0.1,0-0.1,0.1-0.1s0.1-0.1,0.2-0.1s0.2-0.1,0.2-0.2c0.1-0.1-0.2,0.1-0.1-0.1
		c0.1-0.1,0.1-0.1,0.2-0.1c0,0,0.1-0.1,0.1-0.1c0.1,0,0.2-0.1,0.2-0.1c-0.1-0.1-0.7,0.3-0.6,0.1c0,0-0.1,0-0.1,0l0.1-0.1
		c0.1-0.1,0.1-0.1,0.1,0c0.1,0,0,0.1,0.1,0c0,0,0.1-0.1,0.1-0.1c0,0-0.1,0-0.1-0.1h0.1c0.1,0,0.1-0.1,0.1-0.1c0.1,0,0.1,0,0.2,0
		C274.8,220.3,275,220.2,274.8,220.2z"/>
	<g id="XMLID_33_">
		<g>
			<path id="XMLID_146_" class="st11" d="M274,219.3c-0.2,0.1-0.5,0.3-0.8,0.4c0,0,0.1-0.1,0.1-0.1s0.1-0.1,0.1-0.1
				c0,0-0.1,0-0.1-0.1l0.1-0.1c0,0,0.2-0.2,0-0.1c0-0.1,0.2-0.1,0.2-0.2c0,0-0.6,0.3-0.6,0.3c0-0.1,0.2-0.1,0.2-0.1
				s-0.2,0.1-0.3,0.1c0-0.1,0,0-0.1-0.1c0.1-0.2,0.3-0.2,0.5-0.3c-0.1,0-0.2,0.1-0.3,0.2c-0.1,0.1-0.4,0.2-0.5,0.2
				c0-0.1,0.3-0.2,0.3-0.2c0-0.1-0.3,0.2-0.3,0.1v-0.1l-0.1,0.1c0.1,0,0.1,0,0.1-0.1c0,0-0.2,0.1-0.2,0.1c0-0.1,0.3-0.3,0.4-0.3
				c0.1-0.1,0.2-0.1,0.3-0.2c0.1,0,0.1-0.1,0.2-0.1c0.1-0.1,0.1-0.1,0.2-0.1c0,0,0,0-0.1,0c0,0,0.1-0.1,0.1-0.2
				c0.1-0.1,0.2-0.1,0.2-0.2c-0.1,0-0.3,0.2-0.3,0.2c-0.1,0.1-0.2,0.1-0.3,0.2c-0.2,0.1-0.5,0.2-0.6,0.3c-0.3,0.2-0.7,0.3-1.1,0.5
				c-0.5,0.2-0.8,0.4-1.3,0.6c-0.5,0.2-1,0.5-1.5,0.7c-0.7,0.3-1.3,0.7-2,1c-0.4,0.2-0.9,0.5-1.3,0.7c-0.8,0.5-1.6,0.9-2.4,1.4
				c-0.1,0.1-0.7,0.5-0.4,0.5c0.1,0,0.1-0.1,0.2-0.1l0.1,0.1c0,0.1,0.1,0,0,0.1l-0.1,0.1c0,0.1,0.1-0.1,0.2-0.1
				c0,0.1-0.2,0.1-0.2,0.1s0.3-0.2,0.3-0.1c0,0.1-0.2,0.1-0.2,0.1l0.2-0.1c0,0-0.3,0.2-0.3,0.2h0.1c0,0.1-0.2,0.1-0.1,0.2
				c0.1,0.1,0.2-0.1,0.3-0.1c-0.1,0.1-0.1,0.1,0,0.1c0,0,0.1-0.1,0.1,0.1c-0.1,0.1-0.2,0.1-0.3,0.2c-0.1,0.1-0.2,0.1-0.3,0.2
				l-0.1,0.1l0.1,0.1c0.1,0,0.1-0.1,0.1-0.1c0.1,0,0,0.1,0.1,0.1c0,0,0.1,0,0.2,0c0,0,0.1,0,0.1,0s0.1,0.1,0.1,0.1s0.2-0.1,0.3-0.1
				c0.1,0,0.1,0,0.2,0c0.1,0,0,0.1,0.2,0v-0.1c0.1-0.1,0.4-0.2,0.4-0.2l0.1-0.1c0.1-0.1,0.2-0.1,0.2-0.1c0.1,0,0.1-0.1,0.1-0.1
				c0,0,0.2-0.1,0.2-0.1s0.3-0.1,0.3-0.2c-0.1,0.1,0.2-0.1,0.2-0.1c0.1-0.1,0.3-0.2,0.3-0.2c0.1-0.1,0.3-0.2,0.4-0.2
				c0.1-0.1,0.2-0.1,0.3-0.2c0.1-0.1,0.3-0.1,0.4-0.2c0.1-0.1,0.3-0.1,0.3-0.2c0.1-0.1,0,0,0.1-0.1c0.1-0.1,0.1-0.1,0.2-0.1
				c0.2-0.1,0.5-0.3,0.7-0.3c0.2-0.1,0.6-0.3,0.8-0.4c0.1-0.1,0.2-0.1,0.3-0.2c0.1-0.1,0.2-0.1,0.3-0.2c0.6-0.3,1.3-0.7,2-1
				c0.3-0.2,0.7-0.4,1-0.5c0.1-0.1,1-0.5,1-0.5l-0.2,0.1c-0.1,0-0.1,0.1-0.2,0.1c-0.1,0-0.2,0.1-0.2,0.1c-0.1,0-0.1,0.1-0.1,0.1
				c-0.1,0-0.1,0-0.1,0c-0.1,0,0,0.1-0.1,0.1l0,0c0-0.1,0.7-0.4,0.7-0.4s0.1-0.1,0.1-0.1c0.1-0.1,0.1-0.1,0.2-0.1
				c0.2-0.1,0.3-0.2,0.5-0.3c0,0,0.5-0.3,0.4-0.3c-0.1,0-0.1,0.1-0.1,0.1C274,219.6,274,219.3,274,219.3z"/>
			<path id="XMLID_145_" class="st11" d="M273.2,220.3C273.1,220.3,273.1,220.3,273.2,220.3C273.2,220.3,273.2,220.3,273.2,220.3
				L273.2,220.3z"/>
			<path id="XMLID_144_" class="st11" d="M273.3,220.2c0,0-0.1,0-0.1,0.1C273.2,220.3,273.4,220.2,273.3,220.2z"/>
			<path id="XMLID_143_" class="st11" d="M273.4,220.2C273.3,220.2,273.3,220.2,273.4,220.2C273.3,220.2,273.4,220.2,273.4,220.2
				L273.4,220.2z"/>
			<path id="XMLID_142_" class="st11" d="M273.5,220.1c-0.1,0-0.1,0.1-0.1,0.1S273.7,220.1,273.5,220.1
				C273.6,220.1,273.6,220.1,273.5,220.1C273.5,220.1,273.6,220.1,273.5,220.1z"/>
			<path id="XMLID_141_" class="st11" d="M262.3,224.7C262.3,224.6,262.3,224.7,262.3,224.7L262.3,224.7z"/>
			<path id="XMLID_140_" class="st11" d="M268.4,220.7L268.4,220.7L268.4,220.7z"/>
			<path id="XMLID_139_" class="st11" d="M273.4,220.1L273.4,220.1L273.4,220.1z"/>
			<path id="XMLID_138_" class="st11" d="M266.7,223.6C266.6,223.6,266.7,223.6,266.7,223.6L266.7,223.6z"/>
			<path id="XMLID_137_" class="st11" d="M271.6,221C271.6,221,271.6,221,271.6,221L271.6,221z"/>
		</g>
	</g>
	<g id="XMLID_4_">
		<g>
			<path id="XMLID_24_" class="st12" d="M260.6,224.5c0.1,0,0.1-0.1,0.2-0.1c0,0-0.1,0.1-0.1,0.1s0.2-0.1,0.3-0.2
				c0.1,0,0.3-0.2,0.3-0.1c0,0.1-0.6,0.3-0.6,0.3c0.1,0,0.2-0.1,0.3-0.1c0,0.1,0.1,0,0.1,0l0,0c0.4-0.2,0.8-0.4,1.1-0.6
				c0.2-0.1,0.3-0.1,0.5-0.1c0.4-0.2,0.8-0.3,1.2-0.5c0.2-0.1,0.5-0.2,0.6-0.3c0.2-0.1,0.5-0.3,0.8-0.4c0.2-0.1,0.4-0.2,0.6-0.3
				c0.2-0.1,0.4-0.2,0.6-0.3c0.1,0,0.2-0.1,0.3-0.1c0.1-0.1,0.2-0.1,0.3-0.2c0.2-0.1,0.4-0.2,0.6-0.3c0.3-0.2,0.7-0.3,1.1-0.6
				c0.1-0.1,0.3-0.2,0.5-0.3c0.1-0.1,0.2-0.1,0.3-0.2c0.1-0.1,0.2-0.1,0.3-0.2c0.8-0.5,1.7-0.8,2.5-1.3c0.2-0.1,0.4-0.2,0.6-0.3
				c0.1-0.1,0.3-0.2,0.4-0.2c0.2-0.2-0.1-0.1-0.2-0.1l0.1-0.1c0-0.1-0.1,0,0-0.1c0.1-0.1,0.2-0.1,0.1-0.2c0,0-0.1,0-0.1-0.1l0.1-0.1
				l0.1-0.1c0-0.1-0.1,0-0.1,0s-0.1-0.1-0.1-0.1l-0.1-0.1H273c0-0.1,0,0,0.1-0.1s0.2-0.1,0.3-0.1s-0.1,0-0.1-0.1
				c-0.1,0-0.1,0-0.2-0.1c0,0,0.1-0.1,0-0.1c-0.1,0-0.1,0-0.2,0c-0.2,0-0.3,0.1-0.6,0.2c-0.1,0.1-0.3,0.1-0.4,0.2c-0.1,0,0,0-0.1,0
				c0,0-0.2,0.1-0.3,0.1c-0.1,0.1-0.2,0.1-0.4,0.2c-0.1,0.1-0.2,0.1-0.3,0.2c-0.2,0.1-0.3,0.2-0.5,0.3c-0.1,0-0.1,0.1-0.2,0.1
				c0,0-0.1,0.1-0.1,0c0.1,0-0.2,0.1-0.1,0.1c-0.1,0,0,0-0.1,0c-0.1,0-0.1,0.1-0.1,0.1c-0.1,0-0.1,0-0.2,0.1
				c-0.1,0.1-0.1,0.2-0.3,0.2c0.1-0.1,0.1-0.1,0.1-0.1c0,0-0.2,0.1-0.2,0.1c-0.2,0.1-0.2,0.1-0.2,0.1c0,0,0.1-0.1,0.1,0
				C269,219,269,219,269,219c-0.1,0-0.1-0.1-0.1,0c0,0-0.1,0.1-0.2,0.1h-0.1c0,0-0.1,0.1-0.1,0.1c-0.1,0.1,0.1,0.1-0.1,0.1v-0.1
				c0,0,0-0.1-0.1-0.1s-0.1,0.1-0.1,0.1c0,0.1-0.1,0.1-0.1,0.1c-0.1,0-0.1,0-0.1,0.1c0,0,0.1,0,0,0.1c-0.1,0,0.1-0.1-0.1-0.1
				c-0.1,0-0.1,0-0.2,0.1c-0.1,0-0.1,0-0.1,0.1c0,0-0.1,0.1-0.1,0.1c-0.1-0.1-0.3,0.1-0.3,0.1s-0.2,0.1-0.3,0.1
				c-0.3,0.1-0.6,0.3-0.8,0.5c-0.6,0.3-1.1,0.6-1.6,1c-0.3,0.2-0.6,0.3-0.8,0.5c-0.1,0.1-0.3,0.2-0.4,0.2c-0.1,0.1-0.3,0.2-0.4,0.2
				c-0.1,0.1-0.1,0.1-0.2,0.2c-0.1,0-0.1,0-0.1,0.1c-0.1,0.1-0.1,0-0.1,0.1c0,0,0,0,0,0.1c-0.1,0.1-0.3,0.2-0.4,0.3
				c-0.2,0.2-0.5,0.2-0.6,0.4c-0.1,0.1-0.2,0.1-0.2,0.1l-0.1,0.1c0,0.1,0.1,0,0.1,0c-0.1,0.1-0.1,0.1-0.2,0.1c0,0,0,0,0-0.1
				c-0.2,0.1-0.1,0.1-0.1,0.1c-0.1,0.1-0.2,0.1-0.1,0.1l0.1-0.1l-0.1,0.1h0.1c0,0-0.1,0.1-0.1,0.1h-0.1c-0.1,0.1,0.1,0,0.1,0
				c0.1,0.1,0,0-0.1,0.1c0.2,0-0.3,0.2-0.3,0.2c0,0,0.2-0.1,0.2-0.1c0.1,0,0.2-0.1,0.2-0.1c0.1,0,0.1,0,0.1,0l0.1-0.1
				c0,0-0.4,0.3-0.5,0.3s0.1,0,0.1,0.1s-0.1,0.1-0.1,0.1c0.1,0,0.1-0.1,0.1,0c-0.1,0.1-0.1,0.1-0.1,0.1
				C260.9,224.5,260.6,224.5,260.6,224.5L260.6,224.5L260.6,224.5z"/>
		</g>
	</g>
	<g id="XMLID_16_">
		<g>
			<path id="XMLID_82_" class="st13" d="M260.1,223.5c0.1-0.1,0.2-0.2,0.3-0.2s0.1,0,0.2-0.1c0.1,0.1,0.3-0.2,0.4-0.2l-0.1,0.1
				c0,0,0.2-0.1,0.3-0.1c0.1-0.1,0.2-0.1,0.2-0.1l0.1-0.1c0.1,0-0.1,0.1,0.1-0.1c0.1,0,0.1-0.1,0.1-0.1l0,0c0.2-0.1,0.5-0.2,0.7-0.3
				c0.3-0.2,0.7-0.3,1-0.4c0.8-0.3,1.6-0.7,2.5-1.1c0.5-0.2,1.1-0.6,1.6-0.8c0.5-0.3,1.1-0.6,1.6-0.8c0.4-0.2,0.8-0.3,1.3-0.6
				c0.4-0.2,0.8-0.3,1.2-0.6c0.1-0.1,0.2-0.1,0.3-0.2c0.1-0.1,0.2-0.1,0.2-0.1s0.1-0.1,0.1-0.1c0.1-0.1,0.2-0.1,0.2-0.1
				c0.1-0.1,0-0.1,0-0.1v-0.1c0,0,0.1-0.1,0-0.1c-0.1-0.1-0.3,0.1-0.3,0c-0.1,0,0.1-0.1,0.1-0.1c-0.1,0-0.2,0.1-0.3,0.1
				c0-0.1,0.1-0.1,0.1-0.1c-0.1,0,0.3-0.2,0.3-0.2l0.3-0.2c0,0-0.1,0.1-0.1,0c0.1-0.1,0.3-0.1,0.3-0.2c-0.1,0-0.3,0.1-0.2,0.1
				s0.3-0.2,0.4-0.2c0-0.1-0.1-0.1-0.1-0.1c0,0-0.1,0-0.1,0s-0.1,0.1-0.1,0.1c0-0.1,0.3-0.1,0.3-0.2c-0.1,0-0.2,0.1-0.3,0.1
				c-0.1,0.1-0.2,0.1-0.3,0.1c-0.1,0.1-0.2,0.1-0.4,0.1c-0.4,0.1-0.8,0.3-1.2,0.5c-0.2,0.1-0.5,0.2-0.6,0.2c-0.1,0-0.1-0.1-0.2-0.1
				s-0.2,0.1-0.3,0.1c-0.3,0.1-0.6,0.2-0.9,0.4c-0.3,0.2-0.6,0.3-0.8,0.4c-0.7,0.3-1.4,0.6-2.2,1c0-0.1,0.1-0.1-0.1-0.1
				c-0.1,0-0.1,0.1-0.2,0.1c-0.1,0.1-0.1,0.1-0.2,0.1s-0.1,0.1-0.1,0.1c-0.1,0.1-0.1,0.1-0.2,0.1c-0.1,0.1-0.2,0.1-0.3,0.1
				c-0.3,0.1-0.5,0.2-0.8,0.4c-0.2,0.1-0.3,0.2-0.5,0.3c-0.1,0.1-0.1,0.1-0.2,0.1c-0.1,0.1-0.1,0.1-0.2,0.1c-0.2,0.2-0.7,0.3-1,0.5
				c-0.3,0.2-0.6,0.3-0.8,0.5c-0.2,0.1-0.3,0.2-0.5,0.3c-0.1,0.1-0.1,0.1-0.2,0.1l-0.1,0.1c0,0.1,0.1,0,0.1,0l-0.2,0.2
				c-0.1,0.1-0.2,0.2-0.2,0.2c0,0,0.1-0.1,0.2-0.1c0.1,0,0,0.1,0,0.1s0.1-0.1,0.1-0.1c-0.1,0.1-0.2,0.1-0.2,0.2l0.1-0.1
				c0.1,0,0,0.1,0,0.1c0,0.1-0.1,0.1,0.1,0c0.1,0,0.5-0.3,0.5-0.2c0.1,0.1-0.1,0.1-0.2,0.2c-0.1,0.1-0.2,0.1-0.2,0.2
				c-0.1,0.1-0.1,0.1-0.1,0.1c-0.1,0.1-0.2,0.1-0.2,0.2c0,0.1,0.2-0.1,0.2-0.1c0,0.1-0.2,0.2-0.2,0.2c0.1,0,0.1,0.1,0.1,0.1
				c0,0.1-0.1,0.1-0.2,0.2c-0.1,0.1,0,0.1,0.1,0.1C260.1,223.4,260.1,223.5,260.1,223.5C260.1,223.4,260.1,223.5,260.1,223.5z"/>
			<path id="XMLID_81_" class="st13" d="M260.1,222.5C260.1,222.5,260.1,222.5,260.1,222.5C260.1,222.5,260.1,222.5,260.1,222.5
				C260.1,222.5,260.1,222.5,260.1,222.5z"/>
			<path id="XMLID_80_" class="st13" d="M268.4,219.4L268.4,219.4L268.4,219.4z"/>
			<path id="XMLID_79_" class="st13" d="M267.7,219.1L267.7,219.1L267.7,219.1z"/>
		</g>
	</g>
	<g id="XMLID_3_">
		<g>
			<path id="XMLID_49_" class="st14" d="M272,214.7c-0.1-0.1-0.3,0.1-0.5,0.1c-0.3,0.1-0.6,0.3-0.8,0.4c-0.3,0.2-0.7,0.3-0.9,0.5
				c-0.5,0.2-0.9,0.5-1.4,0.7c-0.4,0.2-0.8,0.3-1.2,0.6c-1,0.5-2,1-3,1.6c-1.2,0.6-2.4,1.4-3.7,2c-0.2,0.1-0.7,0.3-0.6,0.4
				c0,0.1,0.1,0,0.2,0c0.1,0-0.1,0.1-0.1,0.1c-0.2,0.2,0.1,0.2-0.1,0.3c-0.1,0.1-0.2,0.1-0.1,0.2c0,0.1,0.1,0,0.1,0.1
				c-0.1,0-0.1,0-0.1,0.1c0.1,0,0.1,0,0.1,0c0.1,0,0.1-0.1,0.1-0.1c0.1,0,0.1,0,0.1,0c0.2-0.1,0.3-0.1,0.5-0.1h0.1
				c0.1,0,0.1,0.1,0.1,0c0.1,0,0.2-0.1,0.3-0.1s0.1,0.1,0.1,0.1s0.1,0,0.2,0c0.2,0,0.5-0.1,0.7-0.2c0.1-0.1,0.2-0.1,0.3-0.2
				c0.1,0,0.1,0,0.2-0.1c0.3-0.1,0.5-0.2,0.8-0.3c0.2-0.1,0.5-0.2,0.7-0.4c0.1-0.1,0.3-0.2,0.5-0.3c0.5-0.3,1-0.5,1.5-0.7
				c0.2-0.1,0.3-0.2,0.5-0.2c0.1-0.1,0.2-0.1,0.2-0.1c0.2-0.1,0.5-0.2,0.7-0.3c0.3-0.2,0.7-0.5,1.1-0.6c0.2-0.1,0.5-0.2,0.6-0.3
				c0.2-0.1,0.5-0.2,0.7-0.4c0.2-0.1,0.3-0.2,0.5-0.3c0.1-0.1,0.3-0.2,0.3-0.3c0,0-0.1,0-0.1,0l0.1-0.1c0.1-0.1,0.2-0.1,0.2-0.2
				c0.1-0.1,0.1-0.1,0.1-0.2c0.1,0,0.3-0.2,0.3-0.2c0-0.1-0.2,0-0.2,0c0-0.1,0.3-0.2,0.1-0.1c-0.1,0-0.1,0.1-0.2,0.1
				c0,0-0.1,0.1-0.2,0.1c-0.1,0,0.1-0.1,0.1-0.1c0-0.1-0.1-0.1-0.1-0.1c0-0.1,0.2-0.1,0.2-0.1c0.1-0.1,0.5-0.2,0.5-0.3
				c0,0-0.3,0.1-0.3,0.2c-0.2,0.1-0.3,0.2-0.5,0.2l0.1-0.1c0.1-0.1,0.1,0,0.1-0.1c0,0,0.1-0.1,0.1-0.1l0.1-0.1
				c0.1-0.1,0.2-0.1,0.2-0.1c0-0.1-0.1-0.1,0-0.1l0.1-0.1c0,0,0-0.1,0.1-0.1c0.1-0.1,0.1-0.1,0.2-0.2C271.5,215,272,214.8,272,214.7
				L272,214.7z"/>
			<path id="XMLID_48_" class="st14" d="M272,214.6C272,214.6,272,214.7,272,214.6C272,214.7,272,214.6,272,214.6z"/>
			<path id="XMLID_47_" class="st14" d="M266.8,218.3L266.8,218.3L266.8,218.3z"/>
		</g>
	</g>
</g>
</svg>
