<?xml version="1.0" encoding="utf-8"?>
<!-- Generator: Adobe Illustrator 23.0.4, SVG Export Plug-In . SVG Version: 6.00 Build 0)  -->
<svg version="1.1" id="Camada_1" xmlns="http://www.w3.org/2000/svg" xmlns:xlink="http://www.w3.org/1999/xlink" x="0px" y="0px"
	 viewBox="0 0 596 597.5" style="enable-background:new 0 0 596 597.5;" xml:space="preserve">
<style type="text/css">
	.st0{fill:#334A8C;}
	.st1{fill:#7D96EE;}
	.st2{fill:#F5F5F3;}
	.st3{fill:#202020;}
	.st4{fill:#657BB5;}
	.st5{fill:none;stroke:#000000;stroke-linecap:round;stroke-linejoin:round;stroke-miterlimit:10;}
	.st6{fill:#FFFFFF;stroke:#334A8C;stroke-width:6;stroke-miterlimit:10;}
</style>
<g>
	<g>
		<g id="XMLID_15_">
			<g>
				<path class="st0" d="M577.4,436.1h-78.6h-7.2h-80.1c0-33.8,39.1-53.6,39.1-53.6s11.7,7.7,44,7.7c21.7,0,40.7-7.1,42.1-7.7
					C538.5,383.4,577.4,403,577.4,436.1z"/>
				<path class="st0" d="M552.5,292.4c26.3,30.9,34.1,78.5-22.3,88.4c-7.5-2.2-18.9-6.4-20.1-12v-15.2c0.3-0.6,0.5-1.3,0.6-2
					l-0.6-2.9v-2.4c9.2-6.2,13.9-17.6,16.3-28.7l-0.5,2.4c2.6,3.6,7.7,1.3,10.7-3.5c3-4.7,4.3-14.2,0-16.8c-4.3-2.6-8,2.7-8,2.7
					s-0.2,2-0.5,4.5c0.2-1.9,0.3-3.7,0.5-5.4c0-0.4,0.1-0.8,0.1-1.1c0.3-5.3,0.3-9.9,0.1-14c0,0,0,0,0,0c0-2.9-0.3-8.4-2.2-14.2
					c0,0,0-0.1,0-0.1c-0.1-0.5-0.3-1-0.4-1.5l1.7,0.5c-0.7-4.9-6.4-13.3-15.4-19l0.2-0.3c0,0,17.1-6,22.3,8.8
					C539.6,274.2,545.4,284,552.5,292.4z"/>
				<path class="st1" d="M527.6,311c0.2-1.1,0.3-2.2,0.4-3.3c0-0.3,0.1-0.5,0.1-0.8c0.3-2.5,0.5-4.5,0.5-4.5s3.7-5.3,8-2.7
					c4.3,2.6,3,12,0,16.8c-3,4.7-8.1,7.1-10.7,3.5l0.5-2.4l0.4-2c0-0.2,0.1-0.5,0.2-0.7c0-0.3,0.1-0.6,0.2-0.9c0-0.2,0-0.3,0.1-0.5
					C527.3,312.6,527.4,311.8,527.6,311z"/>
				<path class="st2" d="M536.9,382.5C536.9,382.5,536.9,382.5,536.9,382.5c-0.1,0-0.2,0-0.2,0h-22.9c0.9-0.1,1.7-0.1,2.6-0.2
					c5-0.3,9.6-0.8,13.8-1.6C534,381.9,536.9,382.5,536.9,382.5z"/>
				<path class="st2" d="M536.7,382.5C536.7,382.5,536.8,382.5,536.7,382.5c-1.4,0.6-20.4,7.7-42.1,7.7c-32.3,0-44-7.7-44-7.7h22.7
					c6.7,0.9,13.8,1.3,21,1.1c0,0,10.9-0.6,19.4-1.1H536.7z"/>
				<path class="st3" d="M528.7,286.3c0.3,4.1,0.3,8.7-0.1,14c0.4-7.1,0-12,0-12S528.7,287.6,528.7,286.3z"/>
				<path class="st2" d="M528.7,286.3c0-0.3,0-0.6-0.1-0.9c-0.1-2.9-0.5-7.5-1.8-11.8c-0.1-0.5-0.2-1-0.4-1.5
					C528.4,277.9,528.7,283.4,528.7,286.3z"/>
				<path class="st0" d="M528.6,285.4c0,0.3,0,0.6,0.1,0.9c0,0,0,0,0,0c0,1.3-0.1,2-0.1,2s0.3,4.9,0,12c0,0.4,0,0.8-0.1,1.1
					c0,0-5.3-6.6-7.9-17.2c-8.3-5.8-11.4-13.9-12.4-17.8c-7.7,7.6-22.8,18.8-42.5,15.5c-1.5,8.7-5.9,15.6-7.5,17.8
					c-0.5-6.8-0.2-11.4-0.2-11.4s-1.9-37.2,37.3-37.2c19.7,0,27.9,10.9,31.2,20.8c0,0,0,0.1,0,0.1c0.1,0.5,0.3,0.9,0.4,1.5
					C528.1,277.9,528.5,282.5,528.6,285.4z"/>
				<path class="st1" d="M527.5,311c-0.1,0.9-0.2,1.7-0.4,2.5c0,0.2,0,0.3-0.1,0.5c0,0.3-0.1,0.6-0.2,0.9c-0.1,0.3-0.1,0.5-0.2,0.7
					l-0.4,2c-2.4,11.1-7.1,22.5-16.3,28.7c0,0,0,0,0,0l-32.5-0.1h0c-14.6-9.8-18.4-32.5-19.4-46.3v0c1.6-2.2,6.1-9.1,7.5-17.8
					c19.7,3.3,34.8-7.8,42.5-15.5c1,3.8,4.1,11.9,12.4,17.8c2.5,10.7,7.9,17.2,7.9,17.2c-0.1,1.7-0.3,3.5-0.5,5.4
					c0,0.3-0.1,0.5-0.1,0.8C527.8,308.7,527.7,309.9,527.5,311z M500.5,289.9l17.8,1.9l-4.2-3.1c-1.1-0.7-2.3-1.2-3.6-1.4l-11-1.7
					C499.7,285.9,500.5,289.9,500.5,289.9z M512.5,299.8c0-1.8-1.4-3.2-3.2-3.2c-1.8,0-3.2,1.5-3.2,3.2c0,1.8,1.4,3.2,3.2,3.2
					C511.1,303,512.5,301.5,512.5,299.8z M486.9,285.6l-11,1.7c-1.3,0.3-2.5,0.7-3.6,1.4l-4.2,3.1l17.8-1.9
					C485.9,289.9,486.7,285.9,486.9,285.6z M482.3,299.8c0-1.8-1.4-3.2-3.2-3.2c-1.8,0-3.2,1.5-3.2,3.2c0,1.8,1.5,3.2,3.2,3.2
					C480.9,303,482.3,301.5,482.3,299.8z"/>
				<path class="st0" d="M527.7,271l-1.7-0.5c0.2,0.5,0.3,0.9,0.4,1.5c-3.3-10-11.5-20.8-31.2-20.8c-39.2,0-37.3,37.2-37.3,37.2
					s-0.2,4.7,0.2,11.4v0c-0.1,0.2-0.2,0.3-0.3,0.4l-0.2,1.4c-0.1-0.1-0.1-0.2-0.2-0.3c0,0,0,0,0,0c-1.3-5.2-8.2-37.9,17.9-51
					c14.6-7.3,27.6-4.3,37,1.6C521.3,257.7,527,266.1,527.7,271z"/>
				<path class="st1" d="M528,307.6c-0.1,1.1-0.3,2.2-0.4,3.3c0,0,0,0,0,0.1C527.7,309.9,527.8,308.7,528,307.6z"/>
				<path class="st1" d="M527.5,311C527.5,311,527.5,311,527.5,311c-0.1,0.8-0.2,1.6-0.4,2.5C527.3,312.7,527.4,311.9,527.5,311z"/>
				<path class="st3" d="M526.9,314.8c0-0.3,0.1-0.6,0.2-0.9C527,314.3,527,314.6,526.9,314.8z"/>
				<path class="st1" d="M510,368.8c1.2,5.6,12.6,9.8,20.1,12c-4.2,0.7-8.8,1.3-13.8,1.6c-0.8,0-1.7,0.1-2.6,0.2h-40.4
					c-4.5-0.6-8.9-1.4-13-2.5c12.3-4.4,17.2-11.2,17.2-11.2v-22.7h0c4.4,3,9.8,4.7,16.3,4.7c6.5,0,11.8-1.7,16.2-4.7c0,0,0,0,0,0
					v2.4l-0.3-1.4c0,0-12.3,8.8-31.6,0c0,0,6.7,15.1,20.4,14.1c0,0,8.3-0.1,11.4-7.8V368.8z"/>
				<path class="st0" d="M518.3,291.8l-17.8-1.9c0,0-0.8-4-1-4.3l11,1.7c1.3,0.3,2.5,0.7,3.6,1.4L518.3,291.8z"/>
				<path class="st1" d="M473.4,382.5h40.4c-8.5,0.5-19.4,1.1-19.4,1.1C487.2,383.8,480.1,383.4,473.4,382.5z"/>
				<path class="st0" d="M459.3,311c-0.6-4-1.1-8.6-1.1-8.6s-0.2-0.3-0.6-0.8l0.2-1.4c0.1-0.1,0.2-0.3,0.3-0.4
					c0.9,13.9,4.7,36.6,19.4,46.3v22.7c0,0-4.9,6.8-17.2,11.2c-32.6-8.4-53.1-30.5-38.4-58.6c11-20.9,25.2-23.8,25.7-41.9
					s7.9-33.3,29.3-39.7s35.6,11.9,35.6,11.9l-0.2,0.3c-9.4-6-22.4-8.9-37-1.6c-26.1,13.1-19.2,45.7-17.9,51
					c-1.3-1.4-4.1-3.5-7.1-1.7c-4.3,2.6-3,12,0,16.8c3,4.7,8.1,7.1,10.7,3.5l-0.9-4.4C459.9,314.5,459.6,312.8,459.3,311z"/>
				<circle class="st0" cx="509.3" cy="299.8" r="3.2"/>
				<path class="st3" d="M510,348.6l0.6,2.9c-0.2,0.7-0.4,1.4-0.6,2V348.6z"/>
				<path class="st0" d="M510,348.6v5c-3.1,7.7-11.4,7.8-11.4,7.8c-13.7,1-20.4-14.1-20.4-14.1c19.3,8.8,31.6,0,31.6,0L510,348.6z"
					/>
				<path class="st1" d="M477.5,346.1l32.5,0.1c-4.3,2.9-9.6,4.7-16.2,4.7C487.3,350.8,481.9,349.1,477.5,346.1z"/>
				<path class="st0" d="M475.9,287.3l11-1.7c-0.2,0.3-1,4.3-1,4.3l-17.8,1.9l4.2-3.1C473.4,288.1,474.6,287.6,475.9,287.3z"/>
				<circle class="st0" cx="479.1" cy="299.8" r="3.2"/>
				<path class="st2" d="M473.4,382.5h-22.7c3.7-0.6,6.9-1.5,9.7-2.5C464.5,381,468.9,381.9,473.4,382.5z"/>
				<path class="st1" d="M459.3,311c0.3,1.8,0.5,3.5,0.8,4.6l0.9,4.4c-2.6,3.6-7.7,1.3-10.7-3.5c-3-4.7-4.3-14.2,0-16.8
					c3.1-1.8,5.8,0.3,7.1,1.7c0,0,0,0,0,0c0.1,0.5,0.2,0.7,0.2,0.7l0.1-0.4c0.4,0.5,0.6,0.8,0.6,0.8S458.8,307,459.3,311z"/>
				<path class="st1" d="M457.6,301.6l-0.1,0.4c0,0-0.1-0.2-0.2-0.7C457.5,301.5,457.6,301.6,457.6,301.6z"/>
			</g>
			<g>
				<path class="st0" d="M490.7,307.2v6c0,0.5,0.1,1,0.3,1.5l0,0c0.6,1.5,2.1,2.4,3.7,2.4c0.4,0,0.7,0,1.1-0.1l0,0l1.8-0.5
					c0.4-0.1,0.7-0.6,0.6-1c-0.1-0.4-0.6-0.7-1-0.6l-1.8,0.5l0,0c-0.2,0.1-0.4,0.1-0.7,0.1c-0.9,0-1.8-0.5-2.1-1.3l0,0
					c-0.1-0.3-0.2-0.6-0.2-0.9v-6c0-0.5-0.4-0.8-0.8-0.8C491.1,306.4,490.7,306.8,490.7,307.2L490.7,307.2z"/>
				<path class="st0" d="M484.7,303.3l-8.1,5.3c-0.2,0.1-0.3,0.4-0.1,0.6c0.1,0.2,0.4,0.3,0.6,0.1l8.1-5.3c0.2-0.1,0.3-0.4,0.1-0.6
					C485.2,303.2,484.9,303.1,484.7,303.3"/>
				<path class="st0" d="M503.9,303.9l7.1,5.4c0.2,0.1,0.5,0.1,0.6-0.1c0.1-0.2,0.1-0.5-0.1-0.6l-7.1-5.4c-0.2-0.1-0.5-0.1-0.6,0.1
					C503.7,303.5,503.7,303.8,503.9,303.9"/>
				<path class="st0" d="M482.8,323.6c0.1,0,5.1,3.2,11.8,3.2c6.7,0,11.7-3.1,11.8-3.2c0.4-0.2,0.5-0.7,0.3-1.1
					c-0.2-0.4-0.7-0.5-1.1-0.3l0,0c-0.5,0.3-5.1,2.9-10.9,2.9c-3.1,0-5.8-0.7-7.8-1.5c-1-0.4-1.8-0.7-2.3-1
					c-0.3-0.1-0.5-0.3-0.6-0.3l-0.2-0.1l0,0c-0.4-0.2-0.9-0.1-1.1,0.3C482.3,322.8,482.4,323.3,482.8,323.6L482.8,323.6z"/>
				<path class="st0" d="M527.8,311.4l0.1-0.2l0-0.1l0,0c2.3-4.6,5.3-5.3,6.9-5.3c0.4,0,0.7,0,0.9,0.1l0.2,0l0.1,0l0,0
					c0.2,0.1,0.5-0.1,0.5-0.3c0.1-0.2-0.1-0.5-0.3-0.5c0,0-0.6-0.2-1.4-0.2c-1.9,0-5.2,0.8-7.7,5.8l0,0l0,0.1l0,0L527,311
					c-0.1,0.2,0,0.5,0.2,0.6C527.5,311.7,527.7,311.6,527.8,311.4L527.8,311.4z"/>
				<path class="st0" d="M529.9,308l0.1,0.1c0.3,0.2,1,0.6,1.6,1.3c0.6,0.7,1.1,1.5,1.1,2.5c0,0.8-0.3,1.6-1.1,2.6
					c-0.2,0.2-0.1,0.5,0.1,0.6c0.2,0.2,0.5,0.1,0.6-0.1c0.9-1.1,1.3-2.2,1.3-3.2c0-1.5-0.8-2.6-1.6-3.4c-0.8-0.8-1.6-1.2-1.6-1.2
					c-0.2-0.1-0.5,0-0.6,0.2C529.6,307.7,529.7,307.9,529.9,308L529.9,308z"/>
				<path class="st0" d="M459.8,311l-0.1-0.2l0,0c-2.4-4.9-5.8-5.8-7.7-5.8c-0.8,0-1.4,0.2-1.4,0.2c-0.2,0.1-0.4,0.3-0.3,0.5
					c0.1,0.2,0.3,0.4,0.5,0.3l0,0c0.1,0,0.5-0.1,1.1-0.1c1.6,0,4.6,0.6,6.9,5.3l0,0l0.1,0.2c0.1,0.2,0.4,0.3,0.6,0.2
					C459.8,311.5,459.9,311.2,459.8,311L459.8,311z"/>
				<path class="st0" d="M456.5,307.3c0,0-0.8,0.4-1.6,1.2c-0.8,0.8-1.6,1.9-1.6,3.4c0,1,0.4,2.1,1.3,3.2c0.2,0.2,0.4,0.2,0.6,0.1
					c0.2-0.2,0.2-0.4,0.1-0.6c-0.8-1-1.1-1.9-1.1-2.6c0-1.1,0.7-2.1,1.4-2.8c0.4-0.3,0.7-0.6,1-0.8l0.3-0.2l0.1-0.1
					c0.2-0.1,0.3-0.4,0.2-0.6C457,307.2,456.7,307.2,456.5,307.3L456.5,307.3z"/>
			</g>
		</g>
	</g>
</g>
<g>
	<g id="XMLID_13_">
		<g>
			<path class="st0" d="M496.8,475v0.9h-0.9c0-0.3,0-0.6,0-0.9H496.8z"/>
			<path class="st0" d="M495.8,475H304.6c0.1-3.9,0.6-7.6,1.6-11.1c0-0.1,0-0.2,0-0.2h187.9c0,0.1,0,0.2,0.1,0.2
				C495.1,467.1,495.6,470.5,495.8,475z"/>
			<path class="st0" d="M490.6,454.1l4.5,9.4h-1c-0.9-3.3-2.2-6.5-3.6-9.4H490.6z"/>
			<path class="st0" d="M490.5,454.1H310c2.2-4.4,5-8.5,8-12.1c0.2-0.2,0.3-0.4,0.5-0.6H482c0.2,0.2,0.3,0.4,0.5,0.6
				C485.5,445.7,488.3,449.7,490.5,454.1z"/>
			<path class="st0" d="M473.6,432.7c0.4,0.3,0.9,0.3,1.2-0.1l8.5,8.8H482C479.3,438.2,476.4,435.3,473.6,432.7L473.6,432.7z"/>
			<path class="st0" d="M474.2,432L474.2,432l-0.9,0c0-0.2,0.1-0.4,0.2-0.6c0.3-0.4,0.9-0.4,1.3-0.1h0c0.3,0.3,0.4,0.9,0,1.3
				c0,0,0,0,0,0L474.2,432z"/>
			<path class="st0" d="M474.8,432.6c-0.3,0.3-0.8,0.4-1.2,0.1c0,0,0,0,0,0c-0.2-0.2-0.3-0.4-0.3-0.7h0.9l0,0L474.8,432.6z"/>
			<path class="st2" d="M473.6,432.7c2.9,2.6,5.7,5.5,8.5,8.7H318.4c3.1-3.6,5.8-6.3,8.5-8.7c0,0,0,0,0,0l0,0
				c0.3-0.2,0.5-0.5,0.8-0.7h145C473,432.2,473.3,432.4,473.6,432.7C473.5,432.7,473.6,432.7,473.6,432.7L473.6,432.7z"/>
			<path class="st0" d="M472.7,432h0.5c0,0.3,0.1,0.5,0.3,0.7C473.3,432.4,473,432.2,472.7,432z"/>
			<path class="st0" d="M454.7,418.2v0.9h-0.3c-0.1-0.1-0.2-0.1-0.2-0.1L454.7,418.2z"/>
			<path class="st0" d="M453.2,419.1h1.2c0.1,0,0.1,0.1,0.2,0.1c1.9,1,9.7,5.4,18.1,12.7h-145c4.7-4.1,9.2-7.3,12.6-9.5
				c1.8-1.2,3.3-2,4.3-2.6c0.5-0.3,0.9-0.5,1.2-0.7c0.3-0.1,0.4-0.2,0.4-0.2c0.3-0.2,0.5-0.5,0.5-0.8h105.5
				C452.3,418.7,452.7,419.1,453.2,419.1z"/>
			<path class="st0" d="M453.2,418.2c0,0-0.3-0.1-0.9-0.2c0.1-0.4,0.5-0.7,0.9-0.7h1.5c0.1,0,0.3,0,0.4,0.1c0,0,9.6,4.9,19.7,13.9
				c0,0,0,0,0,0c-0.4-0.3-1-0.3-1.3,0.1c-0.1,0.2-0.2,0.4-0.2,0.6h-0.5c-8.4-7.3-16.2-11.7-18.1-12.7c-0.1,0-0.2-0.1-0.2-0.1h0.3
				v-0.9l-0.4,0.8c0,0,0.1,0,0.2,0.1h-1.2c-0.5,0-0.9-0.4-0.9-0.9H453.2z"/>
			<path class="st0" d="M453.2,418.2h-0.9c0-0.1,0-0.1,0-0.2C452.9,418.1,453.2,418.2,453.2,418.2z"/>
			<path class="st0" d="M439.8,337c0.8,0.8,1.8,2.1,1.8,3.7c0,1.1-0.4,2.2-1.4,3.4c-0.2,0.2-0.5,0.2-0.7,0.1
				c-0.2-0.2-0.2-0.5-0.1-0.7c0.9-1.1,1.2-2,1.2-2.8c0-1.1-0.6-2-1.2-2.7c-0.5-0.6-1.1-1-1.5-1.2c0.1-0.1,0.2-0.2,0.2-0.3
				c0.1-0.2,0.3-0.3,0.4-0.4C438.9,336.2,439.3,336.5,439.8,337z"/>
			<path class="st0" d="M437.4,335.9c0-0.1,0.1-0.1,0.2-0.2c0.1-0.1,0.3-0.1,0.4,0c0,0,0.2,0.1,0.5,0.3c-0.1,0.1-0.3,0.2-0.4,0.4
				c-0.1,0.1-0.2,0.2-0.2,0.3c-0.1,0-0.1-0.1-0.2-0.1l-0.1-0.1C437.4,336.4,437.3,336.1,437.4,335.9z"/>
			<path class="st0" d="M442.9,334.2c-1.1,0-2.7,0.3-4.3,1.8c-0.3-0.2-0.5-0.3-0.5-0.3c-0.1-0.1-0.3-0.1-0.4,0l0,0
				c2-2,4-2.4,5.3-2.4c0.9,0,1.4,0.2,1.5,0.2c0.2,0.1,0.4,0.3,0.3,0.6s-0.3,0.4-0.6,0.3h0l0,0l-0.2,0
				C443.6,334.2,443.3,334.2,442.9,334.2z"/>
			<path class="st3" d="M435.9,326.3c0.2-0.1,0.2-0.4,0.1-0.6l0.3-0.3c0,0.5,0,1.1,0,1.6C436.2,326.9,436,326.6,435.9,326.3
				L435.9,326.3z"/>
			<path class="st1" d="M433.7,349.4c0.7-3.1,1.1-6.1,1.5-9c0.2,0,0.4-0.1,0.4-0.3l0-0.1h0c0.7-1.4,1.4-2.5,2.2-3.3
				c0.4,0.2,0.9,0.7,1.5,1.2c0.7,0.7,1.2,1.6,1.2,2.7c0,0.8-0.3,1.8-1.2,2.8c-0.2,0.2-0.1,0.5,0.1,0.7c0.2,0.2,0.5,0.1,0.7-0.1
				c1-1.2,1.4-2.4,1.4-3.4c0-1.6-0.9-2.8-1.8-3.7c-0.4-0.4-0.9-0.7-1.2-1c1.7-1.5,3.3-1.8,4.3-1.8c0.4,0,0.7,0,0.9,0.1l0.2,0l0,0h0
				c0.2,0.1,0.5,0,0.6-0.3s0-0.5-0.3-0.6c0,0-0.6-0.2-1.5-0.2c-1.3,0-3.4,0.4-5.3,2.4c0,0-0.1,0-0.1,0.1c-0.5,0.5-1,1.1-2,2.8
				c0.3-2.9,0.5-5.6,0.7-8.1h0c0,0,3.9-5.7,8.6-2.9c4.7,2.8,3.2,12.9,0,18C441.6,350.6,436.6,353.1,433.7,349.4z"/>
			<path class="st3" d="M436,325.7c0.1,0.2,0.1,0.5-0.1,0.6l0,0c-0.1-0.1-0.1-0.3-0.2-0.4L436,325.7z"/>
			<path class="st3" d="M435.8,326.4l-6,4.7c0,0,0-0.1,0-0.1c0-0.2,0.1-0.4,0.1-0.5l5.6-4.4C435.7,326.1,435.8,326.2,435.8,326.4z"
				/>
			<path class="st3" d="M435.4,325.6c0.2-0.1,0.4,0,0.6,0.1l-0.3,0.3C435.6,325.8,435.5,325.7,435.4,325.6z"/>
			<path class="st3" d="M435.6,326l-5.6,4.4l0.1-0.7l5.2-4.1c0,0,0,0,0.1,0C435.5,325.7,435.6,325.8,435.6,326z"/>
			<path class="st0" d="M435.7,340.1c-0.1,0.2-0.3,0.3-0.4,0.3c0-0.2,0-0.4,0.1-0.5c0-0.4,0.1-0.8,0.1-1.3c1.1-1.7,1.5-2.3,2-2.8
				c0,0,0.1-0.1,0.1-0.1l0,0c-0.1,0-0.1,0.1-0.2,0.2c-0.1,0.2,0,0.5,0.2,0.6l0.1,0.1c0,0,0.1,0.1,0.2,0.1
				C437.2,337.5,436.4,338.6,435.7,340.1L435.7,340.1L435.7,340.1z"/>
			<path class="st0" d="M434.9,339.6l0.6-1.1c0,0.4-0.1,0.8-0.1,1.3c0,0.2,0,0.4-0.1,0.5c-0.1,0-0.1,0-0.2,0
				C434.8,340.2,434.7,339.9,434.9,339.6L434.9,339.6z"/>
			<path class="st3" d="M429.6,330.1l0.5-0.4l-0.1,0.7l-0.5,0.4h0C429.5,330.6,429.6,330.4,429.6,330.1z"/>
			<path class="st3" d="M429.9,330.9c0,0,0,0.1,0,0.1l-0.1,0.1c-0.1,0.1-0.3,0.1-0.4,0.1c0-0.1,0.1-0.3,0.1-0.4h0l0.5-0.4
				C430,330.6,429.9,330.7,429.9,330.9z"/>
			<path class="st3" d="M429.1,331.1c-0.1-0.1-0.1-0.3,0-0.5c0,0,0.1-0.1,0.1-0.1l0.4-0.3c0,0.2-0.1,0.4-0.2,0.7
				c0,0.1-0.1,0.3-0.1,0.4C429.2,331.2,429.2,331.2,429.1,331.1z"/>
			<path class="st1" d="M430.4,326.9c0-7.1-4.9-13-11.5-14.6h8.9l0.7-0.3c2.7,5.9,5.4,11,6.9,13.6c0,0,0,0-0.1,0l-5.2,4.1
				C430.4,327.9,430.4,327.4,430.4,326.9z"/>
			<path class="st1" d="M373.7,375c0,0,7.6,15,19.8,22c8.9,5.1,20.4,3.1,26.4-5.1c1.9-2.6,3.5-6,4.5-10.5v22.1
				c1.7,8.1,23.3,13.4,28,14.5c0,0.1,0,0.1,0,0.2H346.7c0,0,0-0.1,0-0.2c20.3-3.8,26.4-14.6,26.4-14.6V375H373.7z"/>
			<path class="st3" d="M430,326.9c0-8.1-6.5-14.6-14.6-14.6h3.5c6.6,1.6,11.5,7.5,11.5,14.6c0,0.6,0,1.1-0.3,2.9l-0.5,0.4
				C429.9,329.1,430,328,430,326.9z"/>
			<path class="st0" d="M415.5,306.8c1.9,0.2,3.8,0.7,5.5,1.6l6.8,3.9h-8.9c-1.1-0.3-2.3-0.4-3.6-0.4s-2.4,0.1-3.6,0.4h-4.1
				c0,0-1.8-5.8-2.1-6.2L415.5,306.8z"/>
			<circle class="st0" cx="415.4" cy="326" r="3.5"/>
			<path class="st3" d="M415.4,311.8c1.2,0,2.4,0.1,3.6,0.4h-3.5h0V311.8z"/>
			<path class="st3" d="M415.4,312.2c8.1,0,14.6,6.5,14.6,14.6c0,1.1-0.1,2.2-0.4,3.3l-0.4,0.3c0,0-0.1,0.1-0.1,0.1h0
				c0.3-1.2,0.5-2.4,0.5-3.7c0-3.9-1.6-7.5-4.2-10c-2.6-2.6-6.1-4.2-10-4.2L415.4,312.2L415.4,312.2z"/>
			<path class="st3" d="M415.4,312.2h-3.6c1.1-0.3,2.3-0.4,3.6-0.4V312.2z"/>
			<path class="st1" d="M411.9,326c0,1.9,1.5,3.5,3.5,3.5c1.9,0,3.5-1.6,3.5-3.5s-1.6-3.5-3.5-3.5C413.4,322.5,411.9,324,411.9,326z
				 M415.4,341.1c-3.9,0-7.5-1.6-10-4.2c-2.6-2.6-4.2-6.1-4.2-10c0-3.9,1.6-7.5,4.2-10c2.6-2.6,6.1-4.2,10-4.2c3.9,0,7.5,1.6,10,4.2
				c2.6,2.6,4.2,6.1,4.2,10c0,1.3-0.2,2.6-0.5,3.7c0,0,0,0,0,0.1c-0.8,3-2.6,5.6-5,7.4C421.6,340,418.6,341.1,415.4,341.1z
				 M417.8,335.5l-7.7-5.8c-0.2-0.1-0.5-0.1-0.7,0.1c-0.1,0.2-0.1,0.5,0.1,0.7l7.7,5.8c0.2,0.2,0.5,0.1,0.7-0.1
				C418.1,335.9,418,335.6,417.8,335.5z"/>
			<path class="st0" d="M410.1,329.7l7.7,5.8c0.2,0.2,0.2,0.5,0.1,0.7c-0.2,0.2-0.5,0.3-0.7,0.1l-7.7-5.8c-0.2-0.1-0.2-0.4-0.1-0.7
				C409.7,329.6,409.9,329.6,410.1,329.7z"/>
			<path class="st3" d="M400.8,326.3c0.3-7.8,6.7-14.1,14.6-14.1v0.4c-3.9,0-7.5,1.6-10,4.2c-2.6,2.6-4.2,6.1-4.2,10h0
				c0-0.1,0-0.2-0.1-0.3C401,326.5,400.9,326.4,400.8,326.3z"/>
			<path class="st3" d="M401.2,326.9c0,3.9,1.6,7.5,4.2,10c2.6,2.6,6.1,4.2,10,4.2c3.3,0,6.3-1.1,8.6-2.9c2.4-1.8,4.2-4.4,5-7.4
				c0,0,0,0,0-0.1h0c-0.1,0.1,0,0.3,0,0.5c0,0.1,0.1,0.1,0.2,0.1c-1.8,5.9-7.4,10.3-13.9,10.3c-7.9,0-14.4-6.3-14.6-14.2
				c0.1,0,0.2,0,0.3-0.1C401.1,327.1,401.2,327,401.2,326.9L401.2,326.9z"/>
			<path class="st3" d="M401.1,326.6c0.1,0.1,0.1,0.2,0.1,0.3c0,0.1,0,0.2-0.1,0.3c-0.1,0.1-0.2,0.1-0.3,0.1c0-0.1,0-0.3,0-0.4
				c0-0.2,0-0.4,0-0.6C400.9,326.4,401,326.5,401.1,326.6z"/>
			<path class="st3" d="M400.3,325.9c0.4-6.7,5.2-12.2,11.5-13.7h3.6c-7.9,0-14.3,6.2-14.6,14.1
				C400.6,326.2,400.5,326.1,400.3,325.9z"/>
			<path class="st3" d="M415.4,341.9c-8.3,0-15-6.6-15.1-14.9c0,0,0.1,0.1,0.1,0.1c0.1,0.1,0.2,0.1,0.3,0.1
				c0.2,7.9,6.7,14.2,14.6,14.2c6.5,0,12.1-4.3,13.9-10.3c0.1,0,0.3,0,0.4-0.1l0.1-0.1C428,337.3,422.2,341.9,415.4,341.9z"/>
			<path class="st3" d="M400.7,326.9c-0.1-0.1-0.3-0.3-0.4-0.4c0-0.2,0-0.4,0-0.5c0.1,0.1,0.3,0.2,0.4,0.4
				C400.7,326.5,400.7,326.7,400.7,326.9z"/>
			<path class="st3" d="M400.3,326.5c0.1,0.1,0.3,0.2,0.4,0.4c0,0.1,0,0.3,0,0.4c-0.1,0-0.2,0-0.3-0.1c0,0-0.1-0.1-0.1-0.1
				c0-0.1,0-0.1,0-0.2C400.3,326.7,400.3,326.6,400.3,326.5z"/>
			<path class="st3" d="M397.4,344.7C397.4,344.7,397.4,344.7,397.4,344.7l-0.8,0.3L397.4,344.7z"/>
			<path class="st0" d="M395.7,345.3c-0.2-0.5-0.3-1-0.3-1.6v-14.6c0-0.5,0.4-0.9,0.9-0.9s0.9,0.4,0.9,0.9v14.6c0,0.3,0.1,0.6,0.2,1
				l-0.8,0.3l0.8-0.3c0.4,0.9,1.3,1.4,2.3,1.4c0.2,0,0.5,0,0.7-0.1l3.5-0.9c0.5-0.1,1,0.2,1.1,0.6c0.1,0.5-0.1,1-0.6,1.1l-3.5,0.9
				c-0.4,0.1-0.8,0.1-1.2,0.1C398,347.9,396.4,347,395.7,345.3L395.7,345.3z"/>
			<path class="st3" d="M400.3,326.5c-2.4-2-4.9-0.7-5.8,0.1c0-0.2,0-0.4,0-0.5c0.7-0.5,1.8-1,3.1-1c0.9,0,1.8,0.3,2.8,0.9
				C400.3,326.1,400.3,326.3,400.3,326.5z"/>
			<path class="st3" d="M394.5,326.5c1-0.7,3.4-2.1,5.8-0.1c0,0.1,0,0.3,0,0.4c0,0.1,0,0.1,0,0.2c-1-0.9-1.9-1.2-2.7-1.2
				c-1.4,0-2.7,0.9-3.1,1.2c0-0.1,0-0.1,0-0.2C394.5,326.8,394.5,326.7,394.5,326.5z"/>
			<path class="st3" d="M394.5,326.5c0,0.1,0,0.2,0,0.3h-0.4C394.1,326.9,394.2,326.7,394.5,326.5z"/>
			<path class="st3" d="M394.1,327.3c0-0.1,0-0.3,0-0.4h0.4c0,0.1,0,0.1,0,0.2c0,0-0.1,0-0.1,0.1l-0.1,0
				C394.3,327.3,394.2,327.3,394.1,327.3z"/>
			<path class="st3" d="M394.1,326.3c0.1-0.1,0.3-0.2,0.4-0.3c0,0.2,0,0.4,0,0.5c-0.3,0.2-0.4,0.3-0.4,0.3
				C394.1,326.7,394.1,326.5,394.1,326.3z"/>
			<path class="st3" d="M394.1,326.3c0,0.2,0,0.4,0,0.6h-0.4c0-0.1,0-0.2,0.1-0.3C393.8,326.6,393.9,326.5,394.1,326.3z"/>
			<path class="st3" d="M394.1,326.9c0,0.1,0,0.3,0,0.4c-0.1,0-0.2,0-0.3-0.1c-0.1-0.1-0.1-0.2-0.1-0.3v0H394.1z"/>
			<path class="st0" d="M380.8,335.6c-0.2,0.1-0.5,0.1-0.7-0.1c-0.1-0.2-0.1-0.5,0.1-0.7l8.7-5.7c0.2-0.1,0.5-0.1,0.7,0.1
				c0.1,0.2,0.1,0.5-0.1,0.6L380.8,335.6z"/>
			<path class="st0" d="M400,358.9c-7.3,0-13.1-4.1-13.2-4.1c-0.4-0.3-0.5-0.8-0.2-1.2c0.3-0.4,0.8-0.5,1.2-0.2l0,0l0.2,0.1
				c0.2,0.1,0.4,0.3,0.7,0.4c0.6,0.4,1.5,0.8,2.6,1.3c2.2,1,5.3,1.9,8.6,1.9c6.2,0,10.7-3.4,11.1-3.7l0,0c0.4-0.3,0.9-0.3,1.3,0.1
				c0.3,0.4,0.3,0.9-0.1,1.2C412.2,354.8,407.3,358.9,400,358.9z"/>
			<path class="st1" d="M393.6,326.9c0,3.9-1.6,7.5-4.2,10c-2.6,2.6-6.1,4.2-10,4.2c-6.5,0-12-4.4-13.6-10.3c0,0,0-0.1,0-0.1
				c-0.4-1.2-0.5-2.5-0.5-3.8c0-3.9,1.6-7.5,4.2-10c2.6-2.6,6.1-4.2,10-4.2s7.5,1.6,10,4.2C392.1,319.4,393.6,323,393.6,326.9
				L393.6,326.9z M382.9,329.4c1.9,0,3.5-1.6,3.5-3.5s-1.6-3.5-3.5-3.5c-1.9,0-3.5,1.6-3.5,3.5S381,329.4,382.9,329.4z M388.9,329.1
				l-8.7,5.7c-0.2,0.1-0.3,0.4-0.1,0.7c0.1,0.2,0.4,0.3,0.7,0.1l8.7-5.7c0.2-0.1,0.3-0.4,0.1-0.6C389.4,329,389.2,328.9,388.9,329.1
				z"/>
			<path class="st3" d="M394.1,326.3c-0.3-7.8-6.7-14.1-14.6-14.1h3.5c6.3,1.5,11.1,7.1,11.5,13.8
				C394.3,326.1,394.2,326.2,394.1,326.3z"/>
			<circle class="st0" cx="382.9" cy="326" r="3.5"/>
			<path class="st3" d="M375.9,312.2c1.1-0.3,2.3-0.4,3.6-0.4c1.2,0,2.4,0.1,3.6,0.4h-3.5h0H375.9z"/>
			<path class="st0" d="M383,312.2c-1.1-0.3-2.3-0.4-3.6-0.4c-1.2,0-2.4,0.1-3.6,0.4h-5.1l6.8-3.9c1.7-0.9,3.6-1.4,5.5-1.6l9.9-0.8
				c-0.3,0.5-2.1,6.2-2.1,6.2H383z"/>
			<path class="st0" d="M393.5,397c-12.2-7-19.8-22-19.8-22s1.6,1.5,4.4,3.5l0.1,0c5.1,4.6,11.7,7.6,20.2,7.7c0.2,0,0.4,0,0.6,0
				c0.6,0,1.2,0,1.8,0c1.8-0.1,3.6-0.3,5.2-0.7h0c0.4-0.1,0.7-0.2,1-0.3c5-1.3,9.2-3.7,12.6-7c3.5-2.9,5.5-5.5,5.5-5.5
				c0,3.2-0.3,6.1-0.8,8.6c-0.9,4.4-2.5,7.8-4.5,10.5C413.8,400.1,402.3,402.1,393.5,397z"/>
			<path class="st3" d="M379.4,341.5c-6.6,0-12.1-4.3-13.9-10.3c0.1,0,0.1,0,0.2-0.1c0.1-0.1,0.1-0.3,0.1-0.4
				c1.7,6,7.1,10.3,13.6,10.3c3.9,0,7.5-1.6,10-4.2c2.6-2.6,4.2-6.1,4.2-10c0,0.1,0,0.2,0.1,0.3c0.1,0.1,0.2,0.1,0.3,0.1
				C393.8,335.2,387.4,341.5,379.4,341.5z"/>
			<path class="st3" d="M379.4,341.9c-6.9,0-12.7-4.6-14.5-10.9l0.1,0.1c0.1,0.1,0.2,0.1,0.3,0.1c0,0,0.1,0,0.1,0
				c1.8,6,7.4,10.3,13.9,10.3c7.9,0,14.4-6.3,14.6-14.2c0.1,0,0.2,0,0.3-0.1l0.1,0c0,0,0,0,0.1-0.1
				C394.4,335.3,387.7,341.9,379.4,341.9z"/>
			<path class="st3" d="M365.7,330.5c0,0,0.1,0.1,0.1,0.1c0,0,0,0.1,0,0.1c0,0.1,0,0.3-0.1,0.4c0,0-0.1,0.1-0.2,0.1
				c-0.1-0.1-0.1-0.3-0.1-0.4c-0.1-0.2-0.1-0.4-0.2-0.7L365.7,330.5L365.7,330.5L365.7,330.5z"/>
			<path class="st3" d="M365.3,326.9c0,1.3,0.1,2.5,0.5,3.8c0,0,0-0.1-0.1-0.1l0,0l0,0l-0.4-0.3c-0.3-1.1-0.4-2.1-0.4-3.3
				c0-8.1,6.5-14.6,14.6-14.6h0c7.9,0,14.3,6.3,14.6,14.1c-0.2,0.1-0.3,0.2-0.3,0.2c-0.1,0.1-0.1,0.2-0.1,0.3c0-3.9-1.6-7.5-4.2-10
				c-2.6-2.6-6.1-4.2-10-4.2s-7.5,1.6-10,4.2C366.8,319.4,365.3,323,365.3,326.9z"/>
			<path class="st3" d="M365.1,331.1L365.1,331.1c-0.1-0.1-0.1-0.2-0.1-0.2c0-0.2-0.1-0.4-0.1-0.6l0.6,0.4c0,0.1,0.1,0.3,0.1,0.4
				c0,0-0.1,0-0.1,0C365.3,331.3,365.1,331.2,365.1,331.1z"/>
			<path class="st3" d="M364.7,329.7l0.5,0.4c0,0.2,0.1,0.4,0.2,0.7l-0.6-0.4C364.7,330.1,364.7,329.9,364.7,329.7z"/>
			<path class="st3" d="M364.8,326.9c0,1.1,0.1,2.2,0.4,3.3l-0.5-0.4c-0.2-0.9-0.3-1.9-0.3-2.8c0-7.1,4.9-13,11.5-14.6h3.6
				C371.4,312.2,364.8,318.8,364.8,326.9z"/>
			<path class="st1" d="M364.7,329.7l-3.5-2.7c0,0,0,0-0.1,0c1.9-4.2,5.3-12.8,4.3-19.5c29.1-3.3,55.2-19.3,55.3-19.4
				c0.9,7.3,4.4,16.3,7.8,23.9l-0.7,0.3l-6.8-3.9c-1.7-0.9-3.6-1.4-5.5-1.6l-9.9-0.8c0.3,0.5,2.1,6.2,2.1,6.2h4.1
				c-6.3,1.5-11.1,7-11.5,13.7c-0.9-0.7-1.9-0.9-2.8-0.9c-1.3,0-2.4,0.6-3.1,1c-0.4-6.7-5.2-12.2-11.5-13.8h7.8c0,0,1.8-5.8,2.1-6.2
				l-9.9,0.8c-1.9,0.2-3.8,0.7-5.5,1.6l-6.8,3.9h5.1c-6.6,1.6-11.5,7.5-11.5,14.6C364.4,327.8,364.5,328.8,364.7,329.7z"/>
			<path class="st0" d="M361.5,340.3c-0.1-0.5-0.2-1-0.2-1.5c0.1,0.3,0.3,0.6,0.4,0.9C361.9,339.9,361.8,340.2,361.5,340.3z"/>
			<path class="st3" d="M360.9,327.3l3.9,3c0,0.2,0.1,0.4,0.1,0.6c0,0,0,0.1,0,0.2l-4.3-3.3C360.8,327.6,360.9,327.5,360.9,327.3z"
				/>
			<path class="st3" d="M364.8,330.4l-3.9-3v0c0-0.1,0.1-0.2,0.2-0.4c0,0,0,0,0.1,0l3.5,2.7C364.7,329.9,364.7,330.1,364.8,330.4z"
				/>
			<path class="st1" d="M397.2,329.1c0-0.5-0.4-0.9-0.9-0.9s-0.9,0.4-0.9,0.9v14.6c0,0.6,0.1,1.1,0.3,1.6l0,0
				c0.7,1.6,2.3,2.5,3.9,2.5c0.4,0,0.8,0,1.2-0.1l3.5-0.9c0.5-0.1,0.7-0.6,0.6-1.1c-0.1-0.5-0.6-0.7-1.1-0.6l-3.5,0.9
				c-0.2,0.1-0.5,0.1-0.7,0.1c-1,0-1.9-0.5-2.3-1.4c0,0,0,0,0,0c-0.1-0.3-0.2-0.7-0.2-1V329.1z M361.3,338.8c-0.4-3-0.7-5.8-0.9-8.4
				c0-0.6-0.1-1.2-0.1-1.8c0.1-0.2,0.3-0.5,0.4-0.9l4.3,3.3c1.8,6.3,7.6,10.9,14.5,10.9c8.3,0,15-6.6,15.1-14.9
				c0.4-0.3,1.6-1.2,3.1-1.2c0.8,0,1.8,0.3,2.7,1.2c0.1,8.2,6.8,14.9,15.1,14.9c6.8,0,12.6-4.6,14.4-10.9l6-4.7
				c0.2,0.3,0.3,0.5,0.4,0.7c0,1.1-0.1,2.2-0.1,3.4c-0.1,2.5-0.4,5.2-0.7,8.1l-0.6,1.1l0,0.1c-0.1,0.2,0,0.5,0.2,0.6
				c0.1,0,0.1,0,0.2,0c-0.4,2.9-0.9,6-1.5,9c-2.3,10.7-6.4,21.7-14.1,28.9c-3.1,2.6-7.4,5.4-12.6,7c-0.3,0.1-0.7,0.2-1,0.3h0
				c-2.2,0.5-4.6,0.7-7.1,0.7c-0.2,0-0.4,0-0.6,0c-8.3-0.4-15.7-4.5-20.2-7.7l-0.1,0c-8-7.2-12.4-18.4-14.9-29.3
				c-0.7-3-1.2-6-1.6-8.9c0.2-0.1,0.3-0.4,0.2-0.6C361.6,339.4,361.4,339.1,361.3,338.8z M412.3,354.7c0.4-0.3,0.4-0.9,0.1-1.2
				c-0.3-0.4-0.9-0.4-1.3-0.1l0,0c-0.5,0.4-5,3.8-11.1,3.7c-3.3,0-6.4-0.9-8.6-1.9c-1.1-0.5-2-1-2.6-1.3c-0.3-0.2-0.6-0.3-0.7-0.4
				l-0.2-0.1l0,0c-0.4-0.3-0.9-0.2-1.2,0.2c-0.3,0.4-0.2,1,0.2,1.2c0.1,0,5.9,4.1,13.2,4.1C407.3,358.9,412.2,354.8,412.3,354.7z"/>
			<path class="st3" d="M361.1,326.9c-0.1,0.1-0.1,0.3-0.2,0.4l-0.3-0.3C360.7,326.9,360.9,326.9,361.1,326.9z"/>
			<path class="st0" d="M360.2,326.8c-0.3-6.1-0.1-10-0.1-10s-2-41.4,40.1-41.4c39.2,0,35.9,41.4,35.9,41.4s0.2,3.4,0.1,8.7
				l-0.3,0.3c-0.1-0.2-0.4-0.2-0.6-0.1c-1.5-2.6-4.2-7.7-6.9-13.6c-3.4-7.6-6.9-16.6-7.8-23.9c-0.1,0.1-26.2,16.1-55.3,19.4
				c1,6.6-2.4,15.3-4.3,19.5c-0.2-0.1-0.4,0-0.5,0.1L360.2,326.8L360.2,326.8z"/>
			<path class="st3" d="M360.9,327.3L360.9,327.3c-0.1,0.2-0.1,0.3-0.2,0.4l-0.1-0.1c-0.2-0.1-0.2-0.4-0.1-0.6l0,0L360.9,327.3z"/>
			<path class="st3" d="M360.3,328.6c0-0.6-0.1-1.3-0.1-1.8l0.4,0.3l0,0c-0.1,0.2-0.1,0.5,0.1,0.6l0.1,0.1
				C360.6,328.1,360.4,328.4,360.3,328.6z"/>
			<path class="st0" d="M359.9,329.4c-7.8-27.6-13-62.5,38.3-62.5c54.2,0,46.1,34.9,38.4,60.6c0,0-0.1-0.2-0.3-0.5
				c0-0.6,0-1.1,0-1.6c0.1-5.3-0.1-8.7-0.1-8.7s3.3-41.4-35.9-41.4c-42.1,0-40.1,41.4-40.1,41.4s-0.2,4,0.1,10h0
				c0,0.6,0,1.2,0.1,1.8C360,329.2,359.9,329.4,359.9,329.4z"/>
			<path class="st0" d="M359.2,335.8c0.7,0.8,1.4,1.7,2.1,3c0,0.5,0.1,1,0.2,1.5c-0.2,0.1-0.5,0-0.6-0.2c-0.7-1.5-1.5-2.6-2.2-3.4
				l0.2-0.1l0.1-0.1C359.2,336.4,359.3,336.1,359.2,335.8L359.2,335.8z"/>
			<path class="st0" d="M358.9,336.6l-0.2,0.1c-0.1-0.1-0.2-0.2-0.2-0.3h0c-0.1-0.1-0.3-0.3-0.4-0.4c0.3-0.2,0.5-0.3,0.5-0.3
				c0.2-0.1,0.5,0,0.6,0.2c0.1,0.2,0,0.5-0.2,0.6L358.9,336.6z"/>
			<path class="st0" d="M358.4,336.4c0.1,0.1,0.2,0.2,0.2,0.3l-0.2,0.1c-0.3,0.2-0.7,0.5-1.1,0.9c-0.8,0.7-1.5,1.8-1.5,3
				c0,0.8,0.3,1.7,1.2,2.8c0.2,0.2,0.1,0.5-0.1,0.7c-0.2,0.2-0.5,0.1-0.7-0.1c-1-1.2-1.4-2.4-1.4-3.4c0-1.6,0.9-2.9,1.8-3.7
				c0.4-0.4,0.9-0.7,1.2-1C358.1,336.1,358.3,336.3,358.4,336.4L358.4,336.4z"/>
			<path class="st0" d="M358,336c-1.7-1.5-3.3-1.8-4.3-1.8c-0.7,0-1.1,0.1-1.2,0.1h0c-0.2,0.1-0.5,0-0.6-0.3c-0.1-0.2,0-0.5,0.3-0.6
				c0,0,0.6-0.2,1.5-0.2c0.7,0,1.5,0.1,2.5,0.5c0.9,0.4,2,1,3,2c0,0,0.1,0.1,0.1,0.1l0,0c-0.1-0.2-0.4-0.3-0.6-0.2
				C358.5,335.7,358.3,335.8,358,336z"/>
			<path class="st1" d="M353.6,334.2c1.1,0,2.7,0.3,4.3,1.8c-0.3,0.2-0.7,0.6-1.2,1c-0.8,0.8-1.8,2.1-1.8,3.7c0,1,0.4,2.2,1.4,3.4
				c0.2,0.2,0.5,0.2,0.7,0.1c0.2-0.2,0.2-0.5,0.1-0.7c-0.9-1.1-1.2-2-1.2-2.8c0-1.2,0.7-2.3,1.5-3c0.4-0.4,0.8-0.7,1.1-0.9l0.2-0.1
				c0.7,0.8,1.5,1.9,2.2,3.4c0.1,0.2,0.4,0.3,0.6,0.2c0.4,2.9,0.9,5.9,1.6,8.9l-0.2,0c-2.8,3.9-8,1.4-11.2-3.7
				c-3.2-5.1-4.7-15.3,0-18c4.7-2.8,8.6,2.9,8.6,2.9h0c0.2,2.6,0.5,5.4,0.9,8.4c-0.7-1.2-1.4-2.2-2.1-3c0,0-0.1-0.1-0.1-0.1
				c-1-1-2-1.7-3-2c-0.9-0.4-1.8-0.5-2.5-0.5c-0.9,0-1.4,0.2-1.5,0.2c-0.2,0.1-0.4,0.3-0.3,0.6c0.1,0.2,0.3,0.4,0.6,0.3h0
				C352.5,334.3,353,334.2,353.6,334.2z"/>
			<path class="st0" d="M346.7,418c0,0,0,0.1,0,0.2h-0.9C346.1,418.2,346.4,418.1,346.7,418z"/>
			<path class="st0" d="M327.7,432c-0.3,0.2-0.5,0.5-0.8,0.7c0.2-0.2,0.3-0.4,0.3-0.7H327.7z"/>
			<path class="st0" d="M325.7,431.3c10.1-9,19.6-13.9,19.7-13.9c0.5-0.2,1,0,1.3,0.4c0,0.1,0.1,0.2,0.1,0.3c-0.3,0-0.6,0.1-0.9,0.2
				h0.9c0,0.3-0.2,0.7-0.5,0.8c0,0-0.1,0.1-0.4,0.2c-0.3,0.1-0.7,0.4-1.2,0.7c-1,0.6-2.5,1.4-4.3,2.6c-3.4,2.2-7.9,5.3-12.6,9.5
				h-0.6c0-0.2-0.1-0.4-0.2-0.6C326.6,431,326,431,325.7,431.3C325.7,431.3,325.7,431.3,325.7,431.3z"/>
			<path class="st0" d="M325.7,432.6l0.6-0.6l0,0h0.9c0,0.3-0.1,0.5-0.3,0.7l0,0C326.5,433,326,433,325.7,432.6z"/>
			<path class="st0" d="M326.9,432.7c-2.7,2.4-5.4,5.1-8.5,8.7h-1.2l8.5-8.8C326,433,326.5,433,326.9,432.7
				C326.9,432.7,326.9,432.7,326.9,432.7z"/>
			<path class="st0" d="M326.3,432l-0.6,0.6c0,0,0,0,0,0c-0.3-0.4-0.3-0.9,0-1.3h0c0.4-0.3,1-0.3,1.3,0.1c0.1,0.2,0.2,0.4,0.2,0.6
				L326.3,432L326.3,432z"/>
			<path class="st0" d="M305.9,461.6L305.9,461.6l3.5-7.4h0.6c-1.2,2.5-2.3,5-3.1,7.7c-0.1,0.5-0.7,0.8-1.1,0.6
				C305.8,462.2,305.8,461.9,305.9,461.6z"/>
			<path class="st0" d="M306.3,463.6h-0.9c0.1-0.3,0.2-0.6,0.3-0.9C306,462.8,306.3,463.2,306.3,463.6z"/>
			<path class="st0" d="M305.9,461.6c-0.1,0.3-0.2,0.6-0.3,0.9h0c0,0-0.1,0-0.1-0.1L305.9,461.6z"/>
			<path class="st0" d="M309.9,450.3c2-3.4,4.2-6.6,6.6-9.5c2.9-3.6,6-6.7,9.2-9.5c-0.3,0.3-0.4,0.9,0,1.3c0,0,0,0,0,0l-8.5,8.8h1.2
				c-0.2,0.2-0.3,0.4-0.5,0.6c-3,3.6-5.7,7.7-8,12.1h-0.6l-3.5,7.4v0l-0.4,0.8c-0.4-0.2-0.6-0.7-0.5-1.1
				C306.3,457.4,307.9,453.7,309.9,450.3z"/>
			<path class="st2" d="M306.8,461.9c0.8-2.7,1.9-5.2,3.1-7.7h180.5c1.5,3,2.7,6.1,3.6,9.4H306.3c0-0.4-0.3-0.8-0.7-0.9
				c0-0.1,0-0.2,0.1-0.2C306.2,462.6,306.7,462.4,306.8,461.9z"/>
			<path d="M305.4,462.7l0.1-0.3c0,0,0.1,0,0.1,0.1h0c0,0.1,0,0.1-0.1,0.2h0C305.5,462.7,305.5,462.7,305.4,462.7z"/>
			<path class="st0" d="M305,463.6l0.4-0.9c0.1,0,0.1,0,0.2,0h0c-0.1,0.3-0.2,0.6-0.3,0.9H305z"/>
			<path class="st0" d="M304.6,475c0,0.3,0,0.6,0,0.9h-0.9V475H304.6z"/>
			<path class="st0" d="M496.8,476.8H303.7c-0.2,0-0.5-0.1-0.7-0.3c-0.2-0.2-0.3-0.4-0.3-0.7c0-4.4,0.6-8.6,1.7-12.6
				c0.1-0.4,0.5-0.7,1-0.7l-0.4,0.9h0.4h0.9c0,0.1,0,0.2,0,0.2c-1,3.5-1.5,7.2-1.6,11.1h-0.9v0.9h0.9c0-0.3,0-0.6,0-0.9h191.2
				c0,0.3,0,0.6,0,0.9h0.9V475h-0.9c-0.2-4.5-0.7-7.9-1.6-11.1c0-0.1,0-0.2-0.1-0.2h1l-4.5-9.4h-0.1c-2.2-4.4-5-8.5-8-12.1
				c-0.2-0.2-0.3-0.4-0.5-0.6h1.2l-8.5-8.8c0,0,0,0,0,0c0.3-0.4,0.3-0.9,0-1.3c3.1,2.8,6.2,5.9,9.2,9.5c2.6,3.2,5,6.6,7.1,10.4
				c2.1,3.8,3.8,7.8,4.9,12.1c1.1,4,1.7,8.2,1.7,12.6c0,0.2-0.1,0.5-0.3,0.7C497.2,476.7,497,476.8,496.8,476.8z"/>
		</g>
		<g>
		</g>
	</g>
</g>
<g>
	<g id="XMLID_14_">
		<g>
			<path class="st0" d="M370.6,444c0,0,43.7,22.1,43.7,59.9H213.9c0-37.8,43.7-59.9,43.7-59.9l0.9,0.4c-0.1,0.2-0.1,0.4-0.1,0.6
				c0.1,0.5,0.6,0.9,1.1,0.8c0.5-0.1,0.9-0.2,1.4-0.3l51.7,21.5l55-21.7c0.5,0.1,1,0.3,1.3,0.3c0.5,0.1,1-0.2,1.2-0.7
				c0.1-0.2,0-0.4-0.1-0.6L370.6,444z"/>
			<path class="st3" d="M370.2,444.7c-0.1,0.5-0.7,0.8-1.2,0.7c-0.3-0.1-0.8-0.2-1.3-0.3l1.6-0.6l0.9-0.4
				C370.3,444.3,370.3,444.5,370.2,444.7z"/>
			<path class="st0" d="M354.8,360.6c-0.6-0.6-1.2-1-1.6-1.3c0.1-0.1,0.2-0.2,0.3-0.3v0c0.2-0.2,0.3-0.3,0.4-0.4
				c0.3,0.2,0.8,0.6,1.2,1c0.9,0.9,1.8,2.1,1.8,3.8c0,1.1-0.4,2.3-1.5,3.5c-0.2,0.2-0.5,0.2-0.7,0.1c-0.2-0.2-0.2-0.5-0.1-0.7
				c0.9-1.1,1.2-2.1,1.2-2.9C356,362.3,355.5,361.3,354.8,360.6z"/>
			<path class="st1" d="M349.9,372.2c0.7-3.6,1.2-6.6,1.6-9.6c0.1-0.4,0.1-0.8,0.1-1.1c0.5-0.9,1.1-1.6,1.6-2.2
				c0.4,0.2,1,0.7,1.6,1.3c0.7,0.7,1.2,1.7,1.2,2.8c0,0.8-0.3,1.8-1.2,2.9c-0.2,0.2-0.1,0.5,0.1,0.7c0.2,0.2,0.5,0.2,0.7-0.1
				c1-1.2,1.5-2.5,1.5-3.5c0-1.7-0.9-2.9-1.8-3.8c-0.5-0.4-0.9-0.8-1.2-1c1.8-1.6,3.4-1.9,4.5-1.9c0.4,0,0.7,0,0.9,0.1l0.2,0.1
				l0.1,0h0c0.3,0.1,0.5-0.1,0.6-0.3c0-0.1,0-0.1,0-0.2l2.1-0.1c0,0.3,0,0.6,0,0.9c0,3.7-1.3,8.1-2.9,10.8c-1,1.7-2.3,3-3.5,4
				c-1.3,0.9-2.5,1.4-3.6,1.4C351.5,373.4,350.7,373.1,349.9,372.2z"/>
			<path class="st0" d="M352.9,359.1c-0.2-0.1-0.3-0.4-0.2-0.7c0-0.1,0.1-0.1,0.1-0.1c0.1-0.2,0.4-0.2,0.5-0.1c0,0,0.2,0.1,0.6,0.3
				c-0.1,0.1-0.3,0.3-0.4,0.4v0c-0.1,0.1-0.2,0.2-0.3,0.3c-0.1-0.1-0.1-0.1-0.2-0.1L352.9,359.1z"/>
			<path class="st0" d="M352.8,358.3c2.1-2.2,4.3-2.6,5.6-2.6c0.9,0,1.5,0.2,1.5,0.2c0.2,0.1,0.3,0.3,0.3,0.5c0,0.1,0,0.1,0,0.2
				c-0.1,0.3-0.4,0.4-0.6,0.3h0l-0.1,0l-0.2-0.1c-0.2,0-0.5-0.1-0.9-0.1c-1.1,0-2.8,0.3-4.5,1.9c-0.3-0.2-0.5-0.3-0.6-0.3
				C353.2,358.2,353,358.2,352.8,358.3L352.8,358.3z"/>
			<path class="st1" d="M351.6,351.1C351.6,351.1,351.6,351.1,351.6,351.1c0.3-0.3,0.6-0.6,1-1c1.2-1,2.9-2.1,5.1-2.1
				c1,0,2.1,0.3,3.2,0.9c1.3,0.8,2.2,2,2.8,3.5c0.6,1.4,0.8,3.1,0.8,4.8c0,4.1-1.3,8.7-3.2,11.8l0,0c-1.2,1.8-2.5,3.4-4,4.5
				s-3.1,1.8-4.7,1.8c0,0,0,0-0.1,0c-0.4,0-0.9-0.1-2.9-0.9c0.1-0.4,0.2-0.7,0.2-1c3,2.6,7.7-0.1,10.7-4.8c3.3-5.3,4.9-15.9,0-18.7
				c-3.5-2-6.6,0.4-8,2l-0.8,0C351.6,351.5,351.6,351.3,351.6,351.1z"/>
			<path class="st1" d="M352.8,358.3c-0.3,0.3-0.6,0.7-0.9,1.1c0.2-2.2,0.4-4.3,0.5-6.2c0.3-0.3,0.9-1,1.7-1.7
				c1-0.8,2.3-1.5,3.6-1.5c0.7,0,1.4,0.2,2.2,0.7v0c0.9,0.5,1.5,1.4,2,2.5c0.4,0.9,0.6,2,0.6,3.2l-2.1,0.1c0-0.2-0.1-0.4-0.3-0.5
				c0,0-0.6-0.2-1.5-0.2C357.1,355.7,354.9,356.2,352.8,358.3z"/>
			<path class="st1" d="M351.4,352.8c0,0,0.3-0.5,0.9-1.1h0.1c0,0.4,0,0.7-0.1,1.1c0,0.1,0,0.2,0,0.3c-0.1,0.1-0.1,0.1-0.1,0.1l0,0
				L351.4,352.8z"/>
			<path class="st0" d="M353.2,359.3c-0.5,0.6-1.1,1.3-1.6,2.2c0.1-0.7,0.2-1.4,0.2-2.1c0.3-0.4,0.6-0.8,0.9-1.1l0,0
				c0,0-0.1,0.1-0.1,0.1c-0.1,0.2,0,0.5,0.2,0.7l0.1,0.1C353.1,359.2,353.2,359.3,353.2,359.3z"/>
			<path class="st3" d="M351.5,351.7C351.5,351.7,351.5,351.7,351.5,351.7L351.5,351.7L351.5,351.7z"/>
			<path class="st3" d="M351.5,351.2c0,0,0.1-0.1,0.1-0.1c0,0.2,0,0.4-0.1,0.6h-0.1v0C351.5,351.5,351.5,351.4,351.5,351.2z"/>
			<path class="st1" d="M351.4,352.8l0.8,0.6l0,0c0,0,0.1-0.1,0.1-0.1c-0.1,2-0.3,4-0.5,6.2c-0.4,0.5-0.8,1.1-1.2,1.8
				C351,358.2,351.3,355.4,351.4,352.8L351.4,352.8L351.4,352.8z"/>
			<path class="st1" d="M352.3,351.7c-0.6,0.6-0.9,1.1-0.9,1.1h0l0,0c0-0.4,0-0.7,0.1-1.1l0.1,0.1c0,0,0-0.1,0-0.1L352.3,351.7z"/>
			<path class="st1" d="M351.3,351.4c0.1-0.1,0.1-0.1,0.2-0.2c0,0.2,0,0.3,0,0.4C351.4,351.6,351.4,351.5,351.3,351.4z"/>
			<path class="st1" d="M351.1,351.7c0.1-0.1,0.1-0.2,0.2-0.3c0.1,0.1,0.1,0.2,0.1,0.3H351.1z"/>
			<polygon class="st3" points="351.4,352.8 351.4,352.8 351.4,352.8 			"/>
			<path class="st1" d="M351.5,351.7c0,0.4,0,0.7-0.1,1.1l-0.8-0.5c0,0,0.2-0.3,0.5-0.6L351.5,351.7L351.5,351.7z"/>
			<path class="st0" d="M351.6,361.5c-0.2,0.4-0.4,0.8-0.7,1.2h0l0,0l-0.2-0.1l-0.2-0.1c0.1-0.5,0.1-0.9,0.2-1.3
				c0.4-0.7,0.8-1.3,1.2-1.8C351.8,360.1,351.7,360.8,351.6,361.5z"/>
			<polygon class="st3" points="351,362.7 351,362.7 350.8,362.6 			"/>
			<path class="st3" d="M350.8,362.6l0.2,0.1l0,0.1c-0.1,0.2-0.3,0.3-0.5,0.3c0-0.2,0.1-0.4,0.1-0.6L350.8,362.6z"/>
			<path class="st0" d="M350.7,361.2c0,0.4-0.1,0.9-0.2,1.3c0,0.2-0.1,0.4-0.1,0.6c-0.1,0-0.1,0-0.2,0c-0.2-0.1-0.4-0.4-0.3-0.6
				l0-0.1l0,0C350.3,361.9,350.5,361.5,350.7,361.2z"/>
			<path class="st1" d="M352.3,351.7c1.5-1.6,4.5-4,8-2c4.9,2.9,3.3,13.4,0,18.7c-3,4.8-7.6,7.4-10.7,4.8c0.1-0.2,0.1-0.4,0.2-0.6
				l0.1-0.5c0.7,0.8,1.6,1.1,2.5,1.2c1.1,0,2.3-0.5,3.6-1.4c1.3-0.9,2.5-2.3,3.5-4c1.7-2.7,3-7.1,2.9-10.8c0-0.3,0-0.6,0-0.9
				c-0.1-1.2-0.3-2.3-0.6-3.2c-0.5-1.2-1.1-2-2-2.5v0c-0.8-0.5-1.5-0.7-2.2-0.7c-1.3,0-2.6,0.7-3.6,1.5c-0.8,0.7-1.4,1.4-1.7,1.7
				c0-0.1,0-0.2,0-0.3C352.4,352.5,352.4,352.1,352.3,351.7L352.3,351.7z"/>
			<path class="st1" d="M349.9,372.2l-0.1,0.5c-0.1,0.2-0.1,0.4-0.2,0.6c-0.3-0.2-0.5-0.5-0.8-0.8c0-0.1,0-0.2,0.1-0.3l0.6-0.5
				l0.1,0.2C349.7,372,349.8,372.1,349.9,372.2z"/>
			<path class="st1" d="M351.5,362.6c-0.4,2.9-0.8,6-1.6,9.6c-0.1-0.1-0.2-0.2-0.3-0.3l-0.1-0.2l-0.6,0.5c0.7-3.1,1.2-6.2,1.5-9.1
				c0.2,0,0.4-0.1,0.5-0.3l0-0.1h0c0.2-0.4,0.4-0.9,0.7-1.2C351.6,361.9,351.6,362.3,351.5,362.6z"/>
			<path class="st1" d="M348.9,372.5c0.3,0.3,0.5,0.6,0.8,0.8c-0.1,0.4-0.1,0.7-0.2,1c-0.3-0.2-0.6-0.5-0.8-0.7
				C348.7,373.3,348.8,372.9,348.9,372.5z"/>
			<path class="st1" d="M348.9,372.2c0,0.1,0,0.2-0.1,0.3c-0.1,0.4-0.2,0.8-0.3,1.2c-0.2-0.2-0.3-0.4-0.5-0.6l-0.1-0.2L348.9,372.2z
				"/>
			<path class="st0" d="M351.5,351.2c-0.1,0.1-0.1,0.1-0.2,0.2c-1.3-2.4-8.3-16.8-5.6-29c0.8-3.8,0.3-7.9-1.7-11.2l0.9-0.4
				c7.7,12.4,6.5,27.7,6.5,27.7S351.8,343.7,351.5,351.2z"/>
			<path class="st3" d="M340.1,428.5v0.1h-1L340.1,428.5C340.1,428.5,340.1,428.5,340.1,428.5z"/>
			<path class="st1" d="M339.1,428.7v-23c0.1-0.3,0.1-0.6,0.2-0.9c0.4,0.1,0.8,0.5,0.8,0.9v22.8c0,0,0-0.1,0-0.1L339.1,428.7z"/>
			<path class="st1" d="M369.3,444.5c-4.7-1.1-28.3-7.3-30.2-15.8h1v-0.1c0.4,1.7,2,3.6,4.4,5.3c2.5,1.7,5.7,3.3,9,4.7
				c6.6,2.7,13.7,4.5,16,5.1c0.3,0.1,0.6,0.3,0.7,0.6L369.3,444.5z"/>
			<path class="st1" d="M357.9,442.2c-5-1.7-10.5-4-14.5-6.8c-2.6-1.9-4.7-4-5.2-6.5l0-0.2v-19.3c0.4-1.1,0.7-2.3,1-3.6v23
				c1.8,8.5,25.5,14.7,30.2,15.8l-1.6,0.6C365.5,444.6,361.9,443.5,357.9,442.2z"/>
			<path class="st0" d="M339.1,405.7c-0.3,1.3-0.6,2.5-1,3.6v-3.6c0-0.5,0.4-1,1-1c0.1,0,0.1,0,0.2,0
				C339.3,405.1,339.2,405.4,339.1,405.7z"/>
			<path class="st0" d="M335.7,329.9l7.1,4h-20.9c0,0-1.9-6-2.2-6.5l10.2,0.9C332,328.5,333.9,329,335.7,329.9z"/>
			<path class="st1" d="M340,396.8c0,0-2.1,2.7-5.8,5.8c7.7-7.2,12-18.1,14.4-28.9c0.3,0.3,0.5,0.5,0.8,0.7
				c-1.2,5.1-2.8,10.2-4.9,15l-4.5,8C340,397.2,340,397,340,396.8z"/>
			<circle class="st0" cx="329.9" cy="348.2" r="3.6"/>
			<path class="st0" d="M324.4,352.1l7.9,6c0.2,0.2,0.3,0.5,0.1,0.7c-0.2,0.2-0.5,0.3-0.7,0.1l-7.9-6c-0.2-0.2-0.3-0.5-0.1-0.7
				C323.9,351.9,324.2,351.9,324.4,352.1z"/>
			<path class="st1" d="M320.1,410c5.8-1.5,10.7-4.6,14.1-7.4C330.4,406.1,325.8,408.8,320.1,410z"/>
			<path class="st1" d="M334.2,402.6c-3.4,2.9-8.3,6-14.1,7.4v-1h0H320c5.4-1.2,9.9-3.7,13.5-7.2v0c3.9-3.6,6.9-8.2,9.2-13.3
				c2.3-5.1,4-10.7,5.2-16.3c0.7-3.4,1.2-6.7,1.6-9.9c0.4-3.4,0.7-6.7,0.9-9.6c0-0.4,0-0.7,0.1-1.1l0.6,0c-0.3,0.3-0.4,0.6-0.5,0.6
				l0.8,0.5v0c-0.1,2.6-0.4,5.4-0.7,8.4c-0.2,0.4-0.4,0.7-0.6,1.1l0,0l0,0.1c-0.1,0.2,0,0.5,0.3,0.6c0.1,0,0.1,0,0.2,0
				c-0.4,2.9-0.9,6-1.5,9.1l-0.9,0.7l0.1,0.2c0.2,0.2,0.3,0.4,0.5,0.6C346.2,384.5,341.9,395.4,334.2,402.6L334.2,402.6z"/>
			<polygon class="st1" points="320.3,411 320.2,411 320.1,411 320.1,411 320.1,410 			"/>
			<path class="st1" d="M320.1,410l-0.2-0.9c0,0,0,0,0,0l0.1,0h0.1h0V410z"/>
			<path class="st1" d="M334.9,403.3c-3.9,3.7-8.7,6.4-14.5,7.7h0l-0.2-0.9h0c5.6-1.2,10.3-3.9,14.1-7.4l0,0
				c3.7-3.1,5.8-5.8,5.8-5.8c0,0.2,0,0.4,0,0.6L334.9,403.3z"/>
			<path class="st1" d="M286.9,399.9c1.7,3.2,9.1,15.8,20.2,22.1c9.2,5.3,21.1,3.2,27.4-5.3c1.4-2,2.7-4.3,3.7-7.3v19.3l0,0.2
				c0.6,2.5,2.6,4.7,5.2,6.5c4,2.8,9.5,5.1,14.5,6.8c4,1.4,7.7,2.4,9.9,2.9l-55,21.7L261,445.4c19.8-4.4,25.8-16.1,25.8-16.3
				l0.1-0.4V399.9z"/>
			<path class="st1" d="M312.8,410.8c2.6,0,5.1-0.3,7.3-0.8c-1.7,0.4-3.5,0.7-5.4,0.8C314,410.8,313.4,410.8,312.8,410.8z"/>
			<path class="st1" d="M314.6,397.7c0.1-0.3,0.3-0.4,0.6-0.3c0.3,0.1,0.4,0.4,0.3,0.6l-1.4,4.5c-0.1,0.3-0.3,0.4-0.6,0.3
				c-0.3-0.1-0.4-0.4-0.3-0.6L314.6,397.7z"/>
			<path class="st1" d="M320.2,411c-2.3,0.5-4.8,0.8-7.5,0.8h-0.1c-0.1,0-0.3,0-0.5,0l0-0.9v0c0.2,0,0.3,0,0.5,0h0.1h0
				c0.6,0,1.3,0,1.9,0c1.9-0.1,3.7-0.4,5.4-0.8h0v1h0H320.2z"/>
			<path class="st1" d="M312.2,410.8l0,0.9c0,0-0.1,0-0.1,0L312.2,410.8z"/>
			<polygon class="st3" points="311.2,367.6 310.3,367.9 311.2,367.6 			"/>
			<path class="st0" d="M314.3,369l3.6-1c0.5-0.1,1,0.2,1.1,0.6c0.1,0.5-0.2,1-0.6,1.1l-3.6,1c-0.4,0.1-0.8,0.2-1.2,0.2
				c-1.7,0-3.4-0.9-4.1-2.7l0,0c-0.2-0.5-0.3-1-0.3-1.7v-15.1c0-0.5,0.4-0.9,0.9-0.9c0.5,0,0.9,0.4,0.9,0.9v15.1
				c0,0.4,0.1,0.7,0.2,1l0,0l-0.8,0.3l0.9-0.3c0.4,0.9,1.3,1.5,2.4,1.5C313.8,369.1,314.1,369.1,314.3,369z"/>
			<path class="st0" d="M296.3,328.3l10.2-0.9c-0.3,0.5-2.2,6.5-2.2,6.5h-20.9l7.1-4C292.4,329,294.3,328.5,296.3,328.3z"/>
			<path class="st0" d="M326.7,376.4c-0.1,0.1-5.2,4.4-12.8,4.4c-7.6,0-13.6-4.3-13.7-4.3c-0.4-0.3-0.5-0.9-0.2-1.3
				c0.3-0.4,0.8-0.5,1.3-0.2l0.1,0l0.2,0.1c0.2,0.1,0.4,0.3,0.7,0.5c0.6,0.4,1.6,0.9,2.7,1.4c2.3,1,5.5,2,8.9,2
				c6.4,0,11.1-3.5,11.6-3.9l0,0c0.4-0.3,1-0.3,1.3,0.1C327.1,375.5,327,376,326.7,376.4z"/>
			<circle class="st0" cx="296.1" cy="348.2" r="3.6"/>
			<path class="st0" d="M293.4,357.3l9-6c0.2-0.1,0.5-0.1,0.7,0.2c0.1,0.2,0.1,0.5-0.1,0.7l-9,6c-0.2,0.2-0.5,0.1-0.7-0.1
				C293.1,357.8,293.2,357.5,293.4,357.3z"/>
			<path class="st1" d="M292.5,348.2c0,2,1.6,3.6,3.6,3.6s3.6-1.6,3.6-3.6c0-2-1.6-3.6-3.6-3.6S292.5,346.2,292.5,348.2z
				 M283.5,333.9h20.9c0,0,1.9-6,2.2-6.5l-10.2,0.9c-2,0.2-3.9,0.7-5.7,1.6L283.5,333.9z M342.8,333.9l-7.1-4
				c-1.8-0.9-3.7-1.4-5.8-1.6l-10.2-0.9c0.3,0.5,2.2,6.5,2.2,6.5H342.8z M332.4,358.1l-7.9-6c-0.2-0.2-0.5-0.1-0.7,0.1
				c-0.2,0.2-0.1,0.5,0.1,0.7l7.9,6c0.2,0.2,0.5,0.1,0.7-0.1C332.6,358.5,332.6,358.2,332.4,358.1z M326.2,348.2
				c0,2,1.6,3.6,3.6,3.6c2,0,3.6-1.6,3.6-3.6c0-2-1.6-3.6-3.6-3.6C327.8,344.5,326.2,346.2,326.2,348.2z M302.4,351.4l-9,6
				c-0.2,0.2-0.3,0.5-0.1,0.7c0.2,0.2,0.5,0.3,0.7,0.1l9-6c0.2-0.2,0.3-0.4,0.1-0.7C302.9,351.3,302.6,351.2,302.4,351.4z
				 M283.5,309.3c3-3.3,6.3-5.5,9.3-7c2.1,6,7.8,14.6,23.7,18.1c-0.6-0.4-10.6-7.2-16.3-15.3c5.1,4.9,15.9,11.3,38,12.8
				c0,0,0.7-5.9-0.4-12.9c1.5,1.1,3.1,2.4,4.5,4l0.1,0.1c0.6,0.7,1.2,1.4,1.6,2.2c2,3.3,2.5,7.3,1.7,11.2c-2.7,12.2,4.3,26.6,5.6,29
				c-0.1,0.1-0.2,0.2-0.2,0.3l-0.6,0c0,0.4,0,0.7-0.1,1.1c-0.2,3-0.4,6.2-0.9,9.6c-0.4,3.2-0.9,6.5-1.6,9.9
				c-1.2,5.5-2.8,11.1-5.2,16.3c-2.4,5.1-5.4,9.7-9.2,13.3v0c-3.7,3.4-8.1,6-13.5,7.2l-0.1,0c0,0,0,0,0,0h0
				c-2.2,0.5-4.6,0.8-7.2,0.8h-0.1l-0.4,0h-0.1h-0.1c-8.5-0.1-15.1-3-20.3-7.7l0,0l0,0l-0.1-0.1c-8-7.2-12.6-18.7-15.1-29.9v0
				c-1.6-6.9-2.4-13.7-2.8-19.3c-0.1-0.7-0.1-1.3-0.1-1.9l-1,0.1c1.8-3.8,8.3-18.5,6.8-28.1c-0.6-3.9,0-7.9,2.2-11.2l0.1-0.1
				C282.3,310.7,282.9,309.9,283.5,309.3z M326.7,376.4c0.4-0.3,0.4-0.9,0.1-1.3c-0.3-0.4-0.9-0.4-1.3-0.1l0,0
				c-0.5,0.4-5.2,3.9-11.6,3.9c-3.4,0-6.6-1-8.9-2c-1.2-0.5-2.1-1-2.7-1.4c-0.3-0.2-0.6-0.3-0.7-0.5l-0.2-0.1l-0.1,0
				c-0.4-0.3-1-0.2-1.3,0.2c-0.3,0.4-0.2,1,0.2,1.3c0.1,0,6.1,4.3,13.7,4.3C321.4,380.7,326.6,376.4,326.7,376.4z M318.4,369.8
				c0.5-0.1,0.8-0.6,0.6-1.1c-0.1-0.5-0.6-0.8-1.1-0.6l-3.6,1c-0.2,0.1-0.5,0.1-0.7,0.1c-1.1,0-2-0.6-2.4-1.5
				c-0.1-0.3-0.2-0.7-0.2-1v-15.1c0-0.5-0.4-0.9-0.9-0.9c-0.5,0-0.9,0.4-0.9,0.9v15.1c0,0.6,0.1,1.2,0.3,1.7l0,0
				c0.7,1.7,2.4,2.7,4.1,2.7c0.4,0,0.8-0.1,1.2-0.2L318.4,369.8z M315.5,398c0.1-0.3-0.1-0.5-0.3-0.6c-0.3-0.1-0.5,0.1-0.6,0.3
				l-1.4,4.5c-0.1,0.3,0.1,0.5,0.3,0.6c0.3,0.1,0.5-0.1,0.6-0.3L315.5,398z"/>
			<path class="st1" d="M291.8,402.1c5.2,4.7,11.8,7.6,20.3,7.7h0.1h0.1l0.4,0h0.1c2.6,0,4.9-0.3,7.2-0.8h0l0.2,0.9h0h0
				c-2.3,0.5-4.7,0.8-7.3,0.8h0h-0.1c-0.2,0-0.3,0-0.5,0c0,0-0.1,0-0.1,0c-8.5-0.4-16.2-4.7-20.8-7.9c0,0,0,0,0,0c0,0,0,0,0,0
				l-0.1-0.1L291.8,402.1L291.8,402.1L291.8,402.1z"/>
			<polygon class="st1" points="291.1,402.8 291.7,402 291.8,402.1 			"/>
			<path class="st1" d="M312.1,410.8c-8.7-0.1-15.5-3.1-20.8-7.9C295.9,406.1,303.6,410.3,312.1,410.8z"/>
			<path class="st1" d="M291.2,402.8C291.3,402.9,291.3,402.9,291.2,402.8C291.3,402.9,291.3,402.9,291.2,402.8z"/>
			<path class="st1" d="M291.3,402.9c5.3,4.8,12.1,7.8,20.8,7.9c0,0,0.1,0,0.1,0v0l-0.1,0.9c-8.9-0.1-16-3.2-21.4-8.1L291.3,402.9
				C291.2,402.8,291.2,402.8,291.3,402.9C291.3,402.9,291.3,402.9,291.3,402.9z"/>
			<polygon class="st1" points="291.2,402.8 290.6,403.6 290.6,403.6 290.6,403.6 			"/>
			<path class="st1" d="M286.9,398.2c1.3,1.6,2.7,3.1,4.2,4.5c-2.1-1.4-3.5-2.7-4.2-3.2v-0.4V398.2
				C286.9,398.3,286.9,398.2,286.9,398.2z"/>
			<path class="st1" d="M291.2,402.8l-0.6,0.7l0,0l0,0c-1.3-1.2-2.5-2.4-3.6-3.7v-0.3c0.6,0.6,2.1,1.8,4.2,3.2
				C291.1,402.8,291.1,402.8,291.2,402.8L291.2,402.8z"/>
			<path class="st0" d="M334.5,416.6c-6.3,8.6-18.2,10.6-27.4,5.3c-11-6.3-18.4-18.9-20.2-22.1v-0.1c1.1,1.3,2.3,2.6,3.6,3.7l0,0
				l0,0l0.1,0.1h0c5.4,4.9,12.5,8.1,21.4,8.1c0,0,0.1,0,0.1,0c0.2,0,0.4,0,0.5,0h0.1c2.7,0,5.1-0.3,7.5-0.8l0.1,0h0
				c5.8-1.3,10.6-4,14.5-7.7l5.1-5.9c0,2.7-0.3,5.2-0.7,7.4c-0.1,0-0.1,0-0.2,0c-0.5,0-1,0.4-1,1v3.6
				C337.2,412.2,335.9,414.6,334.5,416.6z"/>
			<path class="st0" d="M286.9,399.8v0.1c-0.1-0.1-0.1-0.2-0.2-0.3C286.8,399.6,286.9,399.7,286.9,399.8z"/>
			<path class="st1" d="M286.7,399.5c-0.1-0.1-0.2-0.3-0.3-0.4h0.1C286.5,399.1,286.6,399.3,286.7,399.5z"/>
			<path class="st1" d="M286.9,398.2c-0.2-0.3-0.4-0.5-0.6-0.8C286.6,397.5,286.9,397.9,286.9,398.2z"/>
			<path class="st1" d="M286.5,399.1c0,0,0.1,0.1,0.4,0.4v0.3c-0.1-0.1-0.1-0.1-0.2-0.2c0,0,0,0,0-0.1
				C286.6,399.3,286.5,399.1,286.5,399.1z"/>
			<path class="st1" d="M286.9,399.1v0.4c-0.3-0.2-0.4-0.4-0.4-0.4h-0.1c-0.4-0.5-0.8-1-1.2-1.5c0.2-0.2,0.4-0.3,0.7-0.3
				c0.1,0,0.2,0,0.3,0.1c0.2,0.3,0.4,0.6,0.6,0.8c0,0,0,0.1,0,0.1V399.1z"/>
			<path class="st1" d="M286,428.7h-1v-0.3c0-0.1,0.1-0.1,0.1-0.2l0,0L286,428.7z"/>
			<path class="st1" d="M285.3,397.7c0.4,0.5,0.7,1,1.2,1.5H286v29.5l-0.9-0.4l0,0c0,0-0.1,0.1-0.1,0.2v-29.3v-0.8
				C285,398.1,285.1,397.8,285.3,397.7z"/>
			<path class="st0" d="M292.8,302.2c-3.1,1.5-6.3,3.7-9.3,7c-0.6,0.7-1.2,1.4-1.8,2.2l-1.1-0.8c5.9-8.2,16.1-15.1,33.5-15.1
				c16.4,0,25.6,6.9,30.8,15.2l-0.9,0.4c-0.5-0.8-1-1.5-1.6-2.2l-0.1-0.1c-1.5-1.6-3-2.9-4.5-4c1.1,7.1,0.4,12.9,0.4,12.9
				c-22-1.5-32.9-7.9-38-12.8c5.7,8.1,15.7,14.9,16.3,15.3C300.7,316.8,294.9,308.2,292.8,302.2z"/>
			<path class="st1" d="M276.2,372.9c-0.1,0.2-0.2,0.3-0.3,0.4c-0.1-0.3-0.1-0.6-0.2-0.8L276.2,372.9z"/>
			<path class="st1" d="M275.9,373.4c2,8.6,5.3,17.2,10.4,24.1c-0.1-0.1-0.2-0.1-0.3-0.1c-0.3,0-0.5,0.1-0.7,0.3
				c-1.9-2.5-3.5-5.3-4.9-8.2c-1.8-3.8-3.3-7.9-5.3-15.3C275.4,373.9,275.6,373.7,275.9,373.4z"/>
			<path class="st1" d="M275.7,372.5c0.1,0.3,0.1,0.6,0.2,0.8c-0.3,0.3-0.5,0.6-0.8,0.8c-0.1-0.4-0.2-0.7-0.3-1.1
				c0.2-0.2,0.4-0.5,0.6-0.7L275.7,372.5z"/>
			<path class="st1" d="M275.4,372.4l0.2-0.1c0,0.1,0,0.2,0.1,0.2L275.4,372.4z"/>
			<path class="st1" d="M274.7,371.8l0.8,0.6c-0.2,0.3-0.4,0.5-0.6,0.7c-0.1-0.2-0.1-0.4-0.1-0.6c-0.1-0.2-0.1-0.4-0.1-0.6
				C274.6,371.9,274.6,371.8,274.7,371.8z"/>
			<path class="st0" d="M273.9,363c-0.1-0.5-0.2-1-0.2-1.5c0.2,0.3,0.3,0.6,0.5,0.9C274.3,362.6,274.2,362.9,273.9,363z"/>
			<path class="st1" d="M291.7,402l-0.6,0.8c0,0,0,0,0,0c-1.5-1.4-2.9-2.9-4.2-4.5c0-0.4-0.3-0.7-0.6-0.8
				c-5.1-6.8-8.4-15.5-10.4-24.1c0.1-0.1,0.2-0.3,0.3-0.4l-0.5-0.4c0-0.1,0-0.2-0.1-0.2c-0.7-3.1-1.3-6.3-1.7-9.3
				c0.3-0.1,0.4-0.4,0.2-0.6c-0.2-0.3-0.3-0.6-0.5-0.9c-0.4-3.1-0.7-6-0.9-8.7v0l0.8-0.5c0,0-0.3-0.5-0.9-1.1c0-0.1,0-0.2,0-0.3
				l1-0.1c0,0.6,0.1,1.3,0.1,1.9c0.4,5.6,1.2,12.4,2.8,19.3v0C279.1,383.3,283.7,394.8,291.7,402z"/>
			<path class="st1" d="M273.9,363c0.4,3,1,6.1,1.7,9.3l-0.2,0.1l-0.8-0.6c0,0.1-0.1,0.1-0.1,0.1c-0.8-3.5-1.4-6.8-1.8-10.1
				c0.2,0.3,0.4,0.6,0.5,1C273.4,363.1,273.7,363.2,273.9,363z"/>
			<path class="st1" d="M273.6,352.3l-0.8,0.5c-0.1-0.6-0.1-1.1-0.1-1.6C273.2,351.8,273.5,352.2,273.6,352.3z"/>
			<path class="st0" d="M273.7,361.5c0.1,0.5,0.1,1,0.2,1.5c-0.2,0.1-0.5,0-0.6-0.2c-0.2-0.4-0.3-0.7-0.5-1
				c-0.1-0.8-0.2-1.5-0.3-2.2C272.9,360.2,273.3,360.8,273.7,361.5z"/>
			<polygon class="st3" points="272.8,352.8 272.8,352.8 272.8,352.8 			"/>
			<path class="st1" d="M272.8,352.8c0.2,2.7,0.5,5.6,0.9,8.7c-0.4-0.7-0.8-1.4-1.2-1.9c-0.3-2.2-0.5-4.4-0.6-6.4l0.1,0.1l0,0
				L272.8,352.8L272.8,352.8L272.8,352.8z"/>
			<path class="st0" d="M281.6,311.6c-2.2,3.2-2.8,7.3-2.2,11.2c1.5,9.6-5,24.3-6.8,28.1c-0.4-7.3-0.2-12.3-0.2-12.3
				s-0.8-15.5,8.1-27.9l1.1,0.8L281.6,311.6z"/>
			<path class="st1" d="M272.7,350.9c0,0.1,0,0.2,0,0.3c0,0-0.1-0.1-0.1-0.1C272.6,351,272.6,350.9,272.7,350.9z"/>
			<path class="st0" d="M272.7,350.9c0,0.1-0.1,0.1-0.1,0.2c-0.1-0.1-0.1-0.1-0.2-0.2L272.7,350.9z"/>
			<path class="st0" d="M272.6,351.1c-0.2,0.5-0.3,0.7-0.3,0.7c-0.1-0.3-0.1-0.6-0.1-0.9l0.3,0C272.4,350.9,272.5,351,272.6,351.1z"
				/>
			<path class="st0" d="M272,350.5c-0.1-1.1-0.2-2.3-0.3-3.5V347c-0.1-1.7-0.1-3.5,0-5.4v-25.8c0-6.8,4-13,10.2-15.8l9.9-5.2
				c1.9-8.5,10.3-12.2,14.4-13.6c1.3-0.4,2.7-0.7,4-0.7c14.7-0.4,21.9,7.3,25.2,15.7l7.2,3.8c6.2,2.8,10.2,9,10.2,15.8l-0.9,32.2
				c0-0.4,0-1.8,0-4c0,2.5-0.1,4.9-0.4,7.1c0,0,0,0,0,0c-0.1,0-0.1,0.1-0.1,0.1c0.3-7.5,0-12.7,0-12.7s1.2-15.4-6.5-27.7
				c-5.2-8.3-14.4-15.2-30.8-15.2c-17.5,0-27.6,6.8-33.5,15.1c-8.9,12.4-8.1,27.9-8.1,27.9s-0.2,5,0.2,12.3l-0.3,0
				C272.3,350.8,272.2,350.7,272,350.5C272.1,350.5,272.1,350.5,272,350.5z"/>
			<path class="st0" d="M272.1,350.6c0.1,0.1,0.2,0.2,0.3,0.3l-0.3,0C272.1,350.8,272.1,350.7,272.1,350.6z"/>
			<path class="st1" d="M272.7,351.2c0,0.5,0.1,1,0.1,1.6l0,0h0c0,0-0.4-0.5-1-1.2c0-0.2,0-0.5-0.1-0.7l0.4,0
				c0.1,0.3,0.1,0.6,0.1,0.9c0,0,0.1-0.3,0.3-0.7C272.6,351.1,272.7,351.2,272.7,351.2z"/>
			<path class="st1" d="M271.8,351.6c0.6,0.7,1,1.2,1,1.2l-0.8,0.6l0,0l-0.1-0.1v0c0-0.1,0-0.2,0-0.3
				C271.8,352.4,271.8,352,271.8,351.6z"/>
			<path class="st0" d="M272.8,361.8c-0.6-1-1.2-1.9-1.8-2.5l0.2-0.1l0.1-0.1c0.2-0.1,0.3-0.4,0.2-0.7l0,0c0.3,0.3,0.6,0.7,1,1.2
				C272.5,360.3,272.7,361.1,272.8,361.8z"/>
			<path class="st0" d="M270.7,359c-0.1-0.2-0.3-0.3-0.4-0.4c0.3-0.2,0.5-0.3,0.5-0.3c0.2-0.1,0.5,0,0.7,0.2c0.1,0.2,0,0.5-0.2,0.7
				l-0.1,0.1l-0.2,0.1C270.9,359.2,270.8,359.1,270.7,359L270.7,359z"/>
			<path class="st0" d="M268.7,366.9c-1-1.2-1.5-2.5-1.5-3.5c0-1.7,0.9-2.9,1.8-3.8c0.5-0.4,0.9-0.8,1.2-1c0.1,0.1,0.3,0.3,0.4,0.4
				h0c0.1,0.1,0.2,0.2,0.3,0.3l-0.2,0.1c-0.3,0.2-0.7,0.5-1.1,0.9c-0.8,0.8-1.5,1.8-1.5,3.1c0,0.8,0.3,1.8,1.2,2.9
				c0.2,0.2,0.1,0.5-0.1,0.7C269.2,367.2,268.8,367.2,268.7,366.9z"/>
			<path class="st0" d="M270.3,358.6c-1.8-1.6-3.5-1.9-4.5-1.9c-0.7,0-1.1,0.1-1.2,0.1h0c-0.3,0.1-0.5-0.1-0.6-0.3
				c0-0.1,0-0.1,0-0.2c0-0.2,0.1-0.4,0.3-0.5c0,0,0.6-0.2,1.5-0.2c0.7,0,1.6,0.1,2.6,0.5c1,0.4,2,1,3.1,2.1c0,0,0.1,0.1,0.1,0.1l0,0
				c-0.1-0.2-0.4-0.3-0.7-0.2C270.8,358.3,270.6,358.4,270.3,358.6z"/>
			<path class="st1" d="M271.4,358.3c-1-1.1-2.1-1.7-3.1-2.1c-1-0.4-1.9-0.5-2.6-0.5c-0.9,0-1.5,0.2-1.5,0.2
				c-0.2,0.1-0.3,0.3-0.3,0.5l-2.1-0.1c0.1-1.2,0.3-2.3,0.6-3.2c0.4-1.2,1.1-2,2-2.5v0c0.8-0.5,1.5-0.7,2.2-0.7
				c1.4,0,2.8,0.8,3.8,1.7c0.5,0.4,0.9,0.9,1.2,1.2c0.1,0.2,0.2,0.3,0.3,0.4v0c0.1,2,0.3,4.1,0.6,6.4c-0.3-0.4-0.6-0.8-1-1.2
				C271.5,358.4,271.4,358.4,271.4,358.3z"/>
			<path class="st1" d="M265.7,356.7c1.1,0,2.8,0.3,4.5,1.9c-0.3,0.2-0.8,0.6-1.2,1c-0.9,0.9-1.8,2.1-1.8,3.8c0,1.1,0.4,2.3,1.5,3.5
				c0.2,0.2,0.5,0.2,0.7,0.1c0.2-0.2,0.2-0.5,0.1-0.7c-0.9-1.1-1.2-2.1-1.2-2.9c0-1.3,0.7-2.3,1.5-3.1c0.4-0.4,0.8-0.7,1.1-0.9
				l0.2-0.1c0.6,0.7,1.2,1.5,1.8,2.5c0.4,3.2,1,6.6,1.8,10.1c-0.8,1.1-1.7,1.4-2.8,1.5c-1.1,0-2.3-0.5-3.6-1.4
				c-1.3-0.9-2.5-2.3-3.6-4c-0.8-1.3-1.6-3.1-2.1-5c-0.5-1.9-0.8-3.9-0.8-5.8c0-0.3,0-0.6,0-0.9l2.1,0.1c0,0.1,0,0.1,0,0.2
				c0.1,0.3,0.4,0.4,0.6,0.3h0C264.6,356.8,265.1,356.7,265.7,356.7z"/>
			<path class="st1" d="M286.9,428.7l-0.1,0.4c-0.1,0.2-6,11.9-25.8,16.3l-1.6-0.7c20.6-4.1,26.6-16,26.6-16v-29.5h0.4
				c0.1,0.1,0.2,0.3,0.3,0.4c0,0,0,0,0,0.1c0.1,0.1,0.1,0.2,0.2,0.3V428.7z"/>
			<path class="st1" d="M286,428.7c0,0-5.9,11.9-26.6,16l-0.9-0.4c0.1-0.3,0.4-0.5,0.7-0.6c18.7-3.7,25-13.9,25.8-15.3v0.3H286z"/>
			<path class="st1" d="M263.8,349.8c3.4-2,6.4,0.3,7.9,1.8c0,0.4,0.1,0.8,0.1,1.3c0,0.1,0,0.2,0,0.3c-0.1-0.1-0.2-0.2-0.3-0.4
				c-0.3-0.3-0.7-0.8-1.2-1.2c-1-0.9-2.4-1.7-3.8-1.7c-0.7,0-1.4,0.2-2.2,0.7v0c-0.9,0.5-1.5,1.4-2,2.5c-0.4,0.9-0.6,2-0.6,3.2
				c0,0.3,0,0.6,0,0.9c0,1.9,0.3,3.9,0.8,5.8c0.5,1.9,1.3,3.7,2.1,5c1,1.7,2.3,3,3.6,4c1.3,0.9,2.5,1.4,3.6,1.4c1,0,1.9-0.4,2.8-1.5
				c0.1,0.2,0.1,0.4,0.1,0.6c0.1,0.2,0.1,0.4,0.1,0.6c-3,3-7.9,0.4-11-4.6C260.5,363.2,259,352.6,263.8,349.8z"/>
			<path class="st1" d="M263,369c-1.9-3.1-3.2-7.7-3.2-11.8c0-1.7,0.2-3.4,0.8-4.8c0.6-1.4,1.5-2.7,2.8-3.5c1.1-0.6,2.2-0.9,3.2-0.9
				c2.1,0,3.9,1.1,5.1,2.1c0.2,0.1,0.3,0.3,0.4,0.4c0,0,0,0,0,0c0,0.1,0,0.2,0,0.3l-0.4,0c0,0.2,0,0.5,0.1,0.7
				c-1.5-1.6-4.5-3.8-7.9-1.8c-4.9,2.9-3.3,13.4,0,18.7c3.1,4.9,7.9,7.6,11,4.6c0.1,0.4,0.2,0.7,0.3,1.1c-1,0.8-2.1,1.2-3.3,1.2
				c-1.6,0-3.2-0.7-4.7-1.8C265.5,372.4,264.2,370.9,263,369z"/>
			<path class="st3" d="M259.6,445.7c-0.5,0.1-1-0.2-1.1-0.8c0-0.2,0-0.4,0.1-0.6l0.9,0.4l1.6,0.7
				C260.5,445.5,260.1,445.6,259.6,445.7z"/>
		</g>
		<g>
		</g>
	</g>
</g>
<g>
	<g>
		<g id="XMLID_12_">
			<g>
				<path class="st3" d="M274.2,358.3c0,33.2-22.2,71.7-43.2,71.7c-5.4,0-10.5-1.8-15.1-5c-1-4.2-3.2-7.9-6.1-10.3
					c5.7-6.2,9.3-15.3,9.3-25.5c0-13.9-6.7-25.8-16.4-31.1c6.9-10.8,17.7-20.3,33.5-24.3c10.8-2.7,12.7-10.2,8.7-16.9
					C260.7,321.3,274.2,333,274.2,358.3z"/>
				<path class="st3" d="M245,317.1c4,6.7,2.1,14.2-8.7,16.9c-15.9,3.9-26.6,13.5-33.5,24.3c-2.7-1.5-5.6-2.4-8.6-2.8
					c3.9-24.8,18-40.2,35.8-40.2C234.9,315.2,240.1,315.8,245,317.1z"/>
				<path class="st3" d="M245,317.1c-4.9-1.3-10-1.9-15-1.9c-17.8,0-31.9,15.3-35.8,40.2c-0.9-0.1-1.8-0.2-2.7-0.2
					c-7.6,0-14.4,3.8-19.4,9.8c-1.8-15.5,1-32.3,12.8-43.3C212.3,296,237.9,305.2,245,317.1z"/>
				<path class="st3" d="M215.9,425.1c0.4,1.8,0.7,3.6,0.7,5.6c0,10.6-7,19.2-15.6,19.2c-5.8,0-10.9-4-13.6-9.8
					c7.3-1.5,12.9-9.2,13.1-18.5c2.5-1.1,4.9-2.6,7-4.5C210.1,420.3,212.9,423,215.9,425.1z"/>
				<path class="st3" d="M209.8,414.8c2.9,2.4,5.1,6.1,6.1,10.3c-3-2.1-5.9-4.8-8.4-8C208.3,416.3,209.1,415.6,209.8,414.8z"/>
				<path class="st3" d="M202.8,358.2c9.6,5.3,16.4,17.2,16.4,31.1c0,10.1-3.6,19.2-9.3,25.5c-1.8-1.5-3.8-2.6-6-3.1
					c-5.3-8.6-8.9-19.6-10.2-31.9C195.3,372.9,198.2,365.3,202.8,358.2z"/>
				<path class="st3" d="M209.8,414.8c-0.7,0.8-1.5,1.6-2.3,2.3c-1.3-1.7-2.6-3.4-3.7-5.4C206,412.2,208,413.2,209.8,414.8z"/>
				<path class="st3" d="M203.8,411.7c1.1,1.9,2.4,3.7,3.7,5.4c-2.1,1.9-4.5,3.4-7,4.5c0-0.2,0-0.3,0-0.5c0-3.4-0.7-6.6-2-9.4
					c0.8-0.2,1.7-0.3,2.5-0.3C202,411.4,202.9,411.5,203.8,411.7z"/>
				<path class="st3" d="M203.8,411.7c-0.9-0.2-1.8-0.3-2.8-0.3c-0.9,0-1.7,0.1-2.5,0.3c-1.9-4.2-5.1-7.5-9-9l0.5-0.9
					c1.1,0.5,2.1,0.7,3.2,0.7c-1.9-2.4-2.3-11.6,0.5-22.7C194.9,392.1,198.5,403.1,203.8,411.7z"/>
				<path class="st3" d="M200.5,421c0,0.2,0,0.3,0,0.5c-2.8,1.2-5.8,1.9-9,1.9c-1.6,0-3.2-0.2-4.8-0.5c2.1-5.8,6.5-10.2,11.8-11.2
					C199.8,414.4,200.5,417.6,200.5,421z"/>
				<path class="st3" d="M189.5,402.7c3.8,1.5,7,4.7,9,9c-5.3,1-9.7,5.4-11.8,11.2c-6.2-1.3-11.7-5.2-15.7-10.7
					c2.6-6.1,7.8-10.4,13.9-10.4C186.5,401.8,188,402.1,189.5,402.7z"/>
				<path class="st3" d="M200.5,421.5c-0.2,9.4-5.8,17.1-13.1,18.5c-1.3-2.8-2-6-2-9.4c0-2.8,0.5-5.4,1.3-7.8
					c1.6,0.3,3.1,0.5,4.8,0.5C194.6,423.4,197.7,422.7,200.5,421.5z"/>
				<path class="st3" d="M194.2,355.4c3,0.4,5.9,1.3,8.6,2.8c-4.5,7-7.5,14.6-9.2,21.5c-0.4-3.2-0.5-6.5-0.5-9.9
					C193.1,364.8,193.5,359.9,194.2,355.4z"/>
				<path class="st3" d="M193.1,402.4c-1,0-2.1-0.2-3.2-0.7c-7.8-3.4-15.8-19.1-17.9-36.6c5-6.1,11.8-9.8,19.4-9.8
					c0.9,0,1.8,0.1,2.7,0.2c-0.7,4.5-1.1,9.3-1.1,14.4c0,3.4,0.2,6.7,0.5,9.9C190.9,390.8,191.2,400,193.1,402.4z"/>
				<path class="st3" d="M190,401.7l-0.5,0.9c-1.5-0.6-3-0.9-4.6-0.9c-6,0-11.3,4.2-13.9,10.4c-4.4-6-7.1-14.1-7.1-22.9
					c0-9.5,3.1-18,8.2-24.2C174.1,382.6,182.1,398.3,190,401.7z"/>
				<path class="st3" d="M187.4,440c-0.8,0.2-1.7,0.3-2.5,0.3c-8.6,0-15.6-8.6-15.6-19.2c0-3.2,0.6-6.2,1.8-8.9
					c4,5.5,9.5,9.4,15.7,10.7c-0.9,2.4-1.3,5-1.3,7.8C185.4,434.1,186.1,437.3,187.4,440z"/>
			</g>
			<g>
			</g>
		</g>
	</g>
	<g>
		<g id="XMLID_11_">
			<g>
				<path class="st0" d="M325.2,523c0,0.3-0.1,0.5-0.3,0.7c-0.2,0.2-0.4,0.3-0.7,0.3c0,0-1.3,0-3.7-0.1c-2.4,0-5.9-0.1-10.2-0.1
					c-8.7-0.1-20.9-0.2-34.7-0.3c-27.8-0.2-62.5-0.5-90-0.5c-11.2,0-21.3,0.1-29.2,0.1c-7.9,0.1-13.7,0.3-16.4,0.5
					c-0.5,0-1,0.1-1.2,0.1c0,0,0.1,0,0.1-0.1c0.1-0.1,0.2-0.2,0.2-0.4c0-0.1,0-0.1,0.1-0.2c0,0,0,0,0,0c0-0.1,0-0.1,0-0.2v-0.1
					c0-0.1,0-0.2,0-0.2c13.8-1.6,170.3,0.1,184.1,0.3v0h1c0,0,0,0,0,0l0-1c0,0,0,0,0,0c-0.6-31.8-31.9-52.3-41.3-57.7
					c-0.7-0.4-1.5-0.6-2.2-0.6c0,0,0,0,0,0c0.1-0.4-0.1-0.7-0.3-0.9c0,0,0.1,0,0.1,0c1,0,2,0.3,2.9,0.8l0,0
					c4.8,2.8,15.2,9.4,24.4,19.5C317.1,492.9,325.2,506.5,325.2,523z"/>
				<path class="st0" d="M324.3,522l0,1C324.3,522.6,324.3,522.3,324.3,522C324.3,522,324.3,522,324.3,522z"/>
				<path class="st0" d="M324.3,522c0,0.3,0,0.6,0,1c0,0,0,0,0,0c-0.1,0-0.4,0-1,0c0-0.3,0-0.6,0-1C323.8,522,324.1,522,324.3,522z"
					/>
				<path class="st0" d="M324.3,523h-1v0C323.9,523,324.2,523,324.3,523z"/>
				<path class="st0" d="M324.3,522c-0.1,0-0.4,0-1,0c-0.3-15.4-8-28.1-16.8-37.8c-4.5-4.9-9.3-9-13.6-12.2c-4.3-3.2-8-5.5-10.3-6.9
					c-0.6-0.3-1.3-0.5-1.9-0.5c-0.2,0-0.4,0-0.5,0c-0.5,0.1-1,0.3-1.4,0.5h0c-6.3,3.9-24.6,14-48.4,14c-7.2,0-14.8-0.9-22.8-3.2
					c-8-2.3-16.2-5.9-24.5-11.4c-0.2-0.1-0.4-0.2-0.5-0.2h0l0.2,0c0.5-0.1,0.9-0.2,1.4-0.3c43.7,28.3,84.3,6.5,94.2,0.3
					c0.2-0.1,0.3-0.2,0.5-0.3c0.7,0.2,1.1,0.2,1.1,0.2c0.5,0.1,1-0.2,1.1-0.7c0.8,0,1.6,0.3,2.2,0.6
					C292.4,469.7,323.6,490.2,324.3,522z"/>
				<path class="st0" d="M323.3,522c0,0.3,0,0.6,0,1c-13.8-0.2-170.3-1.9-184.1-0.3c0-0.3,0-0.6,0-1c0.7-0.1,1.6-0.1,2.7-0.2
					c2.4-0.1,5.8-0.2,10-0.3c8.4-0.1,20.2-0.2,33.7-0.2C237.2,521,313.6,521.9,323.3,522z"/>
				<path class="st0" d="M306.5,484.2c8.8,9.6,16.5,22.4,16.8,37.8c-9.6-0.1-86.1-1-137.7-1c-13.5,0-25.2,0.1-33.7,0.2
					c-4.2,0.1-7.6,0.2-10,0.3c-1.1,0.1-2,0.1-2.7,0.2c0.4-16,8.8-29.1,18.1-38.9c9.6-10,20.1-16.3,23.8-18.4h0
					c0.2-0.1,0.5-0.2,0.7-0.2l0.2,0c0.1,0,0.2,0,0.2,0c0.2,0.1,0.4,0.1,0.5,0.2c8.3,5.5,16.6,9.1,24.5,11.4c8,2.3,15.6,3.2,22.8,3.2
					c23.8,0,42.1-10.1,48.4-14h0c0.4-0.3,0.9-0.5,1.4-0.5c0.2,0,0.3,0,0.5,0c0.7,0,1.4,0.2,1.9,0.5c2.3,1.4,6.1,3.7,10.3,6.9
					C297.1,475.2,302,479.3,306.5,484.2z"/>
				<path class="st4" d="M281.8,372.6c0.6,1.5,0.8,3.1,0.8,4.8c0,4.2-1.3,8.7-3.2,11.8c-1.2,1.9-2.6,3.4-4.2,4.5
					c-1.6,1.1-3.2,1.8-4.9,1.8c-1.2,0-2.3-0.4-3.3-1.1c0.1-0.4,0.2-0.7,0.3-1.1c3.1,2.9,8.2,0.2,11.3-4.7c3.3-5.3,4.9-15.9,0-18.8
					c-3.4-2-6.4,0.3-7.9,1.8c0.1-0.4,0.3-1,0.4-1.7c0.4-0.3,0.8-0.6,1.3-0.9c1-0.6,2.2-1,3.5-1c1,0,2.1,0.3,3.2,0.9
					C280.4,369.9,281.3,371.2,281.8,372.6z"/>
				<path class="st0" d="M280.5,462.6c0.3,0.2,0.4,0.6,0.3,0.9c0,0,0,0,0,0c-0.3,0-0.6,0-0.9,0l-0.1-0.3c0,0-0.5-0.1-1.3-0.3
					c0.4-0.2,0.8-0.3,1.3-0.4C280,462.7,280.2,462.6,280.5,462.6z"/>
				<path class="st0" d="M279.9,463.7c0.3,0,0.6-0.1,0.9,0c-0.1,0.5-0.6,0.8-1.1,0.7c0,0-0.4-0.1-1.1-0.2
					C279,463.9,279.5,463.7,279.9,463.7z"/>
				<path class="st4" d="M280.5,462.6c-0.2,0-0.5,0-0.7,0.1c-0.4,0.1-0.9,0.2-1.3,0.4c-2.1-0.5-6.3-1.6-11-3.2c0-0.2,0-0.3-0.1-0.5
					c-0.2-0.5-0.8-0.7-1.3-0.5c-0.2,0.1-0.4,0.2-0.7,0.3c-7.7-2.8-15.7-6.8-16.8-11.7h1v-0.1c0.2,1,0.9,2.1,1.9,3.1
					c1,1.1,2.4,2.1,4,3.1c3.2,2,7.4,3.7,11.3,5.1c5.2,1.8,10,3,12,3.5c0.7,0.2,1.1,0.3,1.1,0.3C280.2,462.5,280.3,462.5,280.5,462.6
					z"/>
				<path class="st4" d="M280.7,377.4c0-1.6-0.2-3-0.7-4.1c-0.4-1.1-1.1-2-2-2.5c-0.8-0.5-1.6-0.7-2.2-0.7c-0.9,0-1.8,0.3-2.5,0.7
					c-0.8,0.5-1.5,1-2,1.6l-0.7-0.7c1.5-1.6,4.5-3.8,7.9-1.8c4.9,2.9,3.3,13.5,0,18.8c-3.1,4.9-8.2,7.6-11.3,4.7
					c0.1-0.2,0.1-0.4,0.2-0.6l0.1,0l0.1-0.5c0.8,0.9,1.7,1.3,2.7,1.3c1.1,0,2.5-0.5,3.8-1.4c1.3-0.9,2.6-2.3,3.6-4
					C279.4,385.6,280.7,381.2,280.7,377.4z"/>
				<path class="st4" d="M270.6,371.8l0.7,0.7c0.5-0.5,1.2-1.1,2-1.6c0.8-0.4,1.6-0.7,2.5-0.7c0.7,0,1.4,0.2,2.2,0.7
					c0.9,0.5,1.5,1.4,2,2.5c0.4,1.1,0.7,2.6,0.7,4.1c0,3.7-1.3,8.1-3,10.8c-1,1.7-2.3,3-3.6,4c-1.3,0.9-2.7,1.4-3.8,1.4
					c-1,0-1.9-0.4-2.7-1.3l0.4-2l0.5-2.4c0,0,0-0.1,0-0.1c0.1-0.5,0.2-1.1,0.3-1.7v0c0.1-0.3,0.1-0.7,0.2-1c0,0,0,0,0,0
					c0.1-0.7,0.2-1.5,0.3-2.2v0c0.1-0.4,0.1-0.8,0.2-1.1c0.6-0.9,1.1-1.7,1.7-2.3h0c0.3,0.2,1.1,0.7,1.7,1.4
					c0.7,0.7,1.3,1.7,1.3,2.8c0,0.8-0.3,1.8-1.2,2.9c-0.2,0.2-0.2,0.5,0.1,0.7c0.2,0.2,0.5,0.2,0.7-0.1c1-1.3,1.5-2.5,1.5-3.6
					c0-1.7-0.9-3-1.8-3.8c-0.5-0.5-1.1-0.9-1.4-1.1c1.8-1.5,3.5-1.8,4.6-1.8c0.4,0,0.7,0,1,0.1l0.3,0.1l0.1,0h0
					c0.3,0.1,0.5-0.1,0.6-0.3c0.1-0.3-0.1-0.5-0.3-0.6c0,0-0.6-0.2-1.6-0.2c-1.7,0-4.4,0.6-6.8,3.6c0-0.2,0.1-0.4,0.1-0.6
					c0.1-0.6,0.1-1.2,0.2-1.7c0.1-1.2,0.3-2.2,0.4-3c0.1-0.4,0.1-0.7,0.1-0.9c0.1-0.1,0.3-0.3,0.5-0.6l-0.5-0.5
					C270.5,372.2,270.5,372,270.6,371.8L270.6,371.8z"/>
				<path class="st0" d="M279.9,463.4l0.1,0.3c-0.5,0.1-0.9,0.2-1.3,0.4c-0.4-0.1-0.8-0.2-1.4-0.3c0.1-0.1,0.3-0.2,0.4-0.2
					c0.3-0.2,0.6-0.3,0.9-0.5C279.4,463.3,279.9,463.4,279.9,463.4z"/>
				<path class="st0" d="M278.6,464.1c-0.2,0.1-0.3,0.2-0.5,0.3c-9.9,6.2-50.5,28-94.2-0.3c0.5-0.1,0.9-0.2,1.4-0.3
					c15.9,10.1,31.3,13.5,45,13.5c11.6,0,21.9-2.5,30.1-5.4c7.9-2.8,13.8-6.1,16.9-8.1C277.8,463.9,278.2,464,278.6,464.1z"/>
				<path class="st3" d="M278.1,376.1c0.3,0.1,0.4,0.4,0.3,0.6c-0.1,0.3-0.3,0.4-0.6,0.3h0l-0.1,0l-0.3-0.1c-0.2-0.1-0.6-0.1-1-0.1
					c-1.1,0-2.9,0.3-4.6,1.8c-0.2-0.2-0.4-0.2-0.4-0.2c-0.2-0.1-0.5,0-0.6,0.2c-0.1,0.2-0.1,0.5,0.2,0.7l0.1,0.1
					c-0.6,0.6-1.1,1.3-1.7,2.3c0.1-0.7,0.2-1.4,0.3-2.1c2.4-3,5.1-3.6,6.8-3.6C277.5,376,278.1,376.1,278.1,376.1z"/>
				<path class="st0" d="M278.5,463.1c-0.3,0.1-0.6,0.3-0.9,0.5c-0.1,0.1-0.2,0.2-0.4,0.2c-2.4-0.6-6.2-1.6-10.3-3.1c0,0,0,0,0.1,0
					c0.3-0.2,0.5-0.5,0.6-0.8C272.2,461.4,276.4,462.6,278.5,463.1z"/>
				<path class="st0" d="M266.9,460.7c4.1,1.4,7.9,2.5,10.3,3.1c-3.1,2-9,5.2-16.9,8.1c-8.2,3-18.5,5.4-30.1,5.4
					c-13.6,0-29.1-3.4-45-13.5c3.7-0.8,7-1.8,9.9-3c1.3,0.7,14.7,8,35,8C240.7,468.7,253.3,466.7,266.9,460.7z"/>
				<path class="st3" d="M275.1,383.6c0,1.1-0.4,2.3-1.5,3.6c-0.2,0.2-0.5,0.2-0.7,0.1c-0.2-0.2-0.2-0.5-0.1-0.7
					c0.9-1.1,1.2-2.1,1.2-2.9c0-1.1-0.6-2.1-1.3-2.8c-0.7-0.7-1.4-1.2-1.7-1.4c0.2-0.3,0.5-0.5,0.7-0.7c0.3,0.2,0.9,0.6,1.4,1.1
					C274.2,380.7,275.1,382,275.1,383.6z"/>
				<path class="st3" d="M271.5,378.5c0,0,0.2,0.1,0.4,0.2c-0.3,0.2-0.5,0.4-0.7,0.7h0l-0.1-0.1c-0.2-0.1-0.3-0.4-0.2-0.7
					C271,378.4,271.3,378.3,271.5,378.5z"/>
				<path class="st1" d="M250.7,312.1c28.2,14.1,22.6,48.3,20.3,58c-0.4,0.3-0.7,0.6-1,0.9l-0.4-1.6v0c0.3-7.2,0-12.1,0-12.1
					s3.4-41.7-37.5-41.7c-43.9,0-41.8,41.7-41.8,41.7s-0.3,5.2,0.3,12.9l-0.9,0.1c0,0.6,0.1,1.3,0.1,1.9
					c-1.5-5.3-11.4-44.6,19.4-59.9c7.4-3.7,14.4-5.1,20.8-4.8C236.3,307.1,243.2,308.4,250.7,312.1z"/>
				<path class="st4" d="M270.5,372.3l0.5,0.5c-0.2,0.3-0.4,0.5-0.5,0.6c0-0.2,0-0.3,0-0.3l-0.2,0c0-0.2,0-0.3,0-0.5
					C270.4,372.6,270.4,372.5,270.5,372.3z"/>
				<path class="st1" d="M271,370.1c-0.2,0.7-0.3,1.3-0.4,1.7l-0.2-0.2c0-0.1,0-0.3,0-0.4l-0.4,0l0,0l0,0l0-0.2
					C270.3,370.7,270.6,370.4,271,370.1z"/>
				<path class="st4" d="M270.6,371.8L270.6,371.8l-0.2,0.2c0-0.1,0-0.2,0-0.4L270.6,371.8z"/>
				<path class="st1" d="M270.6,371.8c-0.1,0.2-0.1,0.4-0.1,0.5l-0.1-0.1c0-0.1,0-0.2,0-0.3L270.6,371.8z"/>
				<path class="st4" d="M270.3,373.1l0.2,0c0,0,0,0.1,0,0.3c0,0.1-0.1,0.1-0.1,0.2l0,0.1l-0.1,0
					C270.3,373.4,270.3,373.3,270.3,373.1z"/>
				<path class="st1" d="M270.5,371.3c0,0.1,0,0.2,0,0.4l-0.4-0.4L270.5,371.3z"/>
				<path class="st4" d="M270.4,373.5c0,0,0.1-0.1,0.1-0.2c0,0.2-0.1,0.5-0.1,0.9c-0.1,0.7-0.2,1.8-0.4,3c-0.1,0.6-0.1,1.1-0.2,1.7
					c0,0.2-0.1,0.4-0.1,0.6c-0.4,0.5-0.8,1.1-1.2,1.7c0.1-0.8,0.2-1.6,0.3-2.4c0.1-0.6,0.1-1.2,0.2-1.7l0.9,0.1
					C270.1,376,270.2,374.7,270.4,373.5L270.4,373.5L270.4,373.5z"/>
				<path class="st1" d="M270.4,372.3L270.4,372.3c0,0.2,0,0.3,0,0.3C270.4,372.5,270.4,372.4,270.4,372.3z"/>
				<path class="st1" d="M270.1,371.2l0.4,0.4c0,0.1,0,0.2,0,0.4l-0.2,0.2L270.1,371.2L270.1,371.2L270.1,371.2z"/>
				<path class="st1" d="M270.4,372c0,0.1,0,0.2,0,0.3l-0.2-0.1v0L270.4,372z"/>
				<path class="st1" d="M270.4,372.3c0,0.1,0,0.2,0,0.3l-0.1-0.5L270.4,372.3z"/>
				<path class="st4" d="M270.4,372.6c0,0.2,0,0.3,0,0.5l-0.8-0.1c0,0,0.3-0.4,0.7-0.8L270.4,372.6z"/>
				<path class="st4" d="M270.3,373.1c0,0.1,0,0.3,0,0.4l-0.7-0.5L270.3,373.1z"/>
				<path class="st4" d="M269.6,373l0.7,0.5c-0.1,1.2-0.2,2.4-0.3,3.7l-0.9-0.1c0-0.1,0-0.1,0-0.2C269.4,374.7,269.6,373,269.6,373z
					"/>
				<path class="st3" d="M270,371.2l0.2,0.9l-0.7-0.6c0,0,0,0,0,0c0-0.1,0-0.1,0-0.2c0-0.1,0-0.1,0-0.2L270,371.2z"/>
				<path class="st3" d="M270.3,372.2L270.3,372.2c-0.4,0.5-0.7,0.9-0.7,0.9s-0.2,1.7-0.5,4c0.2-1.9,0.3-3.7,0.4-5.4c0,0,0,0,0-0.1
					c0,0,0,0,0,0L270.3,372.2z"/>
				<polygon class="st1" points="270,371.2 270.1,371.2 270,371.2 				"/>
				<polygon class="st3" points="270,371.2 270,371.2 269.9,371.1 269.9,371.1 				"/>
				<path class="st3" d="M270,371l0,0.2L270,371C270,371.1,270,371,270,371z"/>
				<path class="st3" d="M269.6,357.2c0,0,0.3,4.9,0,12.1v0c0,0.6,0,1.2-0.1,1.8l-0.6,0c-1.6-2.3-6.3-8.9-8.1-19.1h-62.2
					c-2,8.9-6.4,15.7-8.1,18c-0.5-7.6-0.3-12.9-0.3-12.9s-2.1-41.7,41.8-41.7C273,315.6,269.6,357.2,269.6,357.2z"/>
				<path class="st4" d="M269.8,379.6c-0.1,0.7-0.2,1.4-0.3,2.1c-0.2,0.4-0.4,0.7-0.6,1.2l0,0.1l-0.1,0.2c-0.1,0.2-0.3,0.3-0.4,0.3
					c0-0.3,0.1-0.5,0.1-0.8c0.1-0.5,0.1-0.9,0.2-1.3C269,380.6,269.3,380.1,269.8,379.6z"/>
				<path class="st3" d="M269.5,371.2c0,0.1,0,0.2,0,0.2c0,0.1,0,0.1,0,0.2c-0.1,0.1-0.1,0.1-0.2,0.2c-0.1-0.1-0.2-0.3-0.4-0.6
					L269.5,371.2z"/>
				<path class="st1" d="M269.5,371.4c0,0.1,0,0.1,0,0.2C269.5,371.5,269.5,371.5,269.5,371.4z"/>
				<path class="st3" d="M269.5,371.6C269.5,371.6,269.5,371.6,269.5,371.6c0,0.2,0,0.3,0,0.4c0-0.1-0.1-0.1-0.1-0.2
					C269.4,371.7,269.4,371.6,269.5,371.6z"/>
				<path class="st4" d="M269.5,372c0-0.1,0-0.2,0-0.4c-0.1,1.7-0.2,3.5-0.4,5.4c0,0.1,0,0.1,0,0.2l-0.9-0.1c0-0.2,0.1-0.5,0.1-0.7
					c0-0.1,0-0.1,0-0.2c0.2-1.9,0.4-3.3,0.4-3.3l0-0.3l0.1-0.2c0,0,0.2-0.3,0.6-0.7C269.4,371.9,269.4,371.9,269.5,372z"/>
				<path class="st4" d="M269.5,381.7c-0.1,0.4-0.1,0.8-0.2,1.1v0c-0.1,0.7-0.2,1.5-0.3,2.2l-0.8-0.1l-0.2,0
					c0.1-0.4,0.1-0.7,0.2-1.1c0,0,0,0,0,0c0-0.2,0.1-0.3,0.1-0.4c0.2,0,0.3-0.1,0.4-0.3l0.1-0.2l0-0.1
					C269,382.4,269.3,382,269.5,381.7z"/>
				<path class="st4" d="M269.1,377.2c-0.1,0.6-0.1,1.1-0.2,1.7c-0.1,0.8-0.2,1.6-0.3,2.4c-0.2,0.3-0.4,0.7-0.6,1.1l0,0.1l-0.1,0.2
					h0l-0.4-0.1c0.2-1.3,0.4-2.6,0.5-3.8c0.1-0.6,0.1-1.2,0.2-1.7c0-0.2,0.1-0.5,0.1-0.7c0,0.2-0.1,0.5-0.1,0.7L269.1,377.2z"/>
				<path class="st3" d="M269,385C269,385.1,269,385.1,269,385l-0.8-0.1L269,385z"/>
				<path class="st4" d="M268.2,384.9l0.8,0.2c-0.1,0.4-0.1,0.7-0.2,1v0c-0.1,0.7-0.2,1.2-0.3,1.7v-0.1v0c0.1-0.5,0.2-1.1,0.3-1.6
					l-0.9-0.2c0.1-0.3,0.1-0.7,0.2-1.1L268.2,384.9z"/>
				<path class="st4" d="M268.9,371.2c0.2,0.2,0.3,0.4,0.4,0.6c-0.4,0.4-0.6,0.7-0.6,0.7l-0.1,0.2l0,0.3c0,0-0.2,1.4-0.4,3.3
					c0.2-1.8,0.3-3.4,0.4-5L268.9,371.2z"/>
				<path class="st4" d="M268.9,371.2l-0.4,0c-0.1,1.6-0.2,3.3-0.4,5c0,0.1,0,0.1,0,0.2c0,0.2-0.1,0.4-0.1,0.7
					c-0.1,0.6-0.1,1.1-0.2,1.7c-0.2,1.2-0.3,2.5-0.5,3.8v0c-0.1,0.8-0.2,1.5-0.3,2.2v0v0c-0.1,0.3-0.1,0.7-0.2,1c0,0,0,0,0,0
					c-0.1,0.5-0.2,0.9-0.2,1.3c0,0.1-0.1,0.3-0.1,0.4l0,0.1v0l-0.5,2.3l-0.1,0.6c-2.7,12-7.9,24.2-17.7,30.7c-0.1,0-0.2,0.1-0.2,0.1
					c0,0,0,0,0,0c-4.7,3.1-10.4,5-17.5,5c-7.1,0-12.9-1.9-17.6-5c-0.1-0.1-0.1-0.1-0.2-0.2c-3.9-2.6-7.2-6.2-9.8-10.2
					s-4.7-8.7-6.4-13.5c-3.2-9.6-4.5-19.7-5.1-27.5l-0.9,0.1c1.6-2.3,6.1-9.1,8.1-18h62.2C262.7,362.2,267.4,368.9,268.9,371.2z"/>
				<path class="st1" d="M268.9,378.9c-0.1,0.8-0.2,1.6-0.3,2.4c0,0,0,0,0,0.1C268.7,380.5,268.8,379.7,268.9,378.9z"/>
				<path class="st4" d="M268.8,386.1c-0.1,0.5-0.2,1.1-0.3,1.6h-1c0.1-0.4,0.2-0.9,0.3-1.5c0-0.1,0-0.2,0.1-0.3L268.8,386.1z"/>
				<path class="st1" d="M268.6,381.3c-0.1,0.4-0.1,0.9-0.2,1.3l0,0.1C268.4,382.2,268.5,381.8,268.6,381.3
					C268.6,381.3,268.6,381.3,268.6,381.3z"/>
				<path class="st4" d="M268.6,381.3c-0.1,0.5-0.1,0.9-0.2,1.4l-0.3,0l-0.2,0l0.1-0.2l0-0.1C268.1,382,268.3,381.7,268.6,381.3z"/>
				<path class="st3" d="M268.5,387.8v0.1c0,0,0,0.1,0,0.1l-0.8-0.2l0.7,0.2C268.5,387.9,268.5,387.8,268.5,387.8z"/>
				<path class="st4" d="M268.5,387.7L268.5,387.7c0,0.1,0,0.1,0,0.2l-0.7-0.2l-0.2,0H268.5z"/>
				<path class="st4" d="M268.5,388l-0.5,2.4l-0.4,2c0,0,0,0-0.1-0.1c0.2-0.7,0.3-1.3,0.5-2l-0.9-0.2l0.5-2.4v0l0.2,0L268.5,388z"/>
				<path class="st1" d="M268.4,382.6c0,0.3-0.1,0.5-0.1,0.8h0C268.3,383.2,268.3,382.9,268.4,382.6L268.4,382.6z"/>
				<path class="st4" d="M268.4,382.7c0,0.2-0.1,0.5-0.1,0.7c-0.1,0-0.2,0-0.2-0.1c-0.2-0.1-0.3-0.4-0.2-0.7l0-0.1h0l0.2,0
					L268.4,382.7z"/>
				<path class="st1" d="M268.3,383.4c0,0.1-0.1,0.3-0.1,0.4C268.2,383.7,268.2,383.5,268.3,383.4L268.3,383.4z"/>
				<path class="st4" d="M268.3,383.4c0,0.2-0.1,0.3-0.1,0.4c0,0,0,0,0,0c-0.1,0.4-0.1,0.7-0.2,1.1c-0.1,0.4-0.1,0.7-0.2,1.1h0
					l-0.1,0l-0.9-0.2c0.1-0.4,0.1-0.7,0.2-1v0v0c0.1-0.7,0.2-1.4,0.3-2.2l0.4,0.1l0,0.1c-0.1,0.3,0,0.5,0.2,0.7
					C268.1,383.4,268.2,383.4,268.3,383.4z"/>
				<path class="st4" d="M268,390.4c-0.1,0.6-0.3,1.3-0.5,2c-0.1-0.1-0.1-0.2-0.2-0.3l-0.8,0.6l0.5-2.5L268,390.4z"/>
				<path class="st4" d="M267.9,386c0,0.1,0,0.2-0.1,0.3c-0.1,0.5-0.2,1-0.3,1.5l-0.9-0.2c0-0.1,0.1-0.3,0.1-0.4
					c0.1-0.5,0.2-0.9,0.3-1.3l0.7,0.1L267.9,386L267.9,386z"/>
				<polygon class="st3" points="267.8,382.6 267.4,382.6 267.4,382.5 				"/>
				<polygon class="st3" points="267.8,386 267.6,385.9 267.8,386 				"/>
				<path class="st3" d="M267.5,387.7c0.1-0.5,0.2-1,0.3-1.5C267.7,386.8,267.6,387.3,267.5,387.7z"/>
				<path class="st3" d="M267.8,386l-0.2,0l-0.7-0.1v0h0c0,0,0,0,0,0L267.8,386z"/>
				<polygon class="st4" points="267.6,385.9 266.9,385.8 266.9,385.8 				"/>
				<path class="st4" d="M267.6,392.4l-0.1,0.5l-0.1,0C267.4,392.7,267.5,392.5,267.6,392.4C267.5,392.4,267.5,392.4,267.6,392.4z"
					/>
				<path class="st0" d="M267.5,459.4c0.1,0.2,0.1,0.3,0.1,0.5c-0.3-0.1-0.6-0.2-0.9-0.3c-0.4-0.1-0.7-0.3-1.1-0.4
					c0.2-0.1,0.4-0.2,0.7-0.3C266.7,458.7,267.3,458.9,267.5,459.4z"/>
				<path class="st4" d="M267.5,387.7L267.5,387.7l-0.5,2.4l-0.9-0.2c0,0.2-0.1,0.4-0.1,0.6l0.1-0.6l0.5-2.3v0l0-0.1
					c0-0.1,0.1-0.3,0.1-0.4c0,0.1,0,0.3-0.1,0.4L267.5,387.7z"/>
				<path class="st0" d="M266.6,459.5c0.3,0.1,0.6,0.2,0.9,0.3c0,0.3-0.2,0.6-0.6,0.8c0,0,0,0-0.1,0c-0.2-0.1-0.4-0.1-0.6-0.2
					c-0.3-0.1-0.5-0.2-0.8-0.3c0.3-0.1,0.7-0.3,1-0.4L266.6,459.5z"/>
				<path class="st4" d="M267.3,392.1c0.1,0.1,0.2,0.2,0.2,0.3c0,0.2-0.1,0.3-0.1,0.5l-0.9-0.2L267.3,392.1z"/>
				<path class="st4" d="M267.4,392.9c-0.1,0.2-0.1,0.4-0.2,0.6c-0.3-0.2-0.5-0.5-0.7-0.8L267.4,392.9z"/>
				<path class="st4" d="M267.2,393.4c-0.1,0.4-0.2,0.7-0.3,1.1c-0.3-0.2-0.6-0.5-0.8-0.7c0.3-1.2,0.6-2.4,0.9-3.6l-0.5,2.5
					C266.7,393,267,393.2,267.2,393.4z"/>
				<path class="st4" d="M266.1,390l0.9,0.2c-0.3,1.2-0.5,2.4-0.9,3.6c-0.2-0.2-0.3-0.3-0.4-0.5l-0.3-0.3l0.5-2.3
					C266,390.4,266.1,390.2,266.1,390z"/>
				<path class="st3" d="M266.9,385.8c-0.1,0.4-0.2,0.9-0.3,1.3C266.7,386.8,266.8,386.3,266.9,385.8L266.9,385.8z"/>
				<path class="st0" d="M266.3,460.5c0.2,0.1,0.4,0.1,0.6,0.2c-13.6,6-26.2,8.1-36.8,8.1c-20.2,0-33.7-7.2-35-8
					c0.2-0.1,0.4-0.2,0.7-0.3c0.2-0.1,0.3-0.1,0.5-0.2c4.9,2.6,33.1,15.5,69.3-0.1C265.8,460.3,266.1,460.4,266.3,460.5z"/>
				<path class="st0" d="M266.6,459.5l-0.1,0.2c-0.3,0.2-0.7,0.3-1,0.4c-0.4-0.2-0.9-0.3-1.3-0.5c0.4-0.2,0.9-0.4,1.3-0.6
					C265.9,459.3,266.3,459.4,266.6,459.5z"/>
				<path class="st4" d="M266.2,393.8c0.2,0.3,0.5,0.5,0.8,0.7c-1.3,4.9-3.1,9.7-5.4,14.2c-2.9,5.5-6.8,10.4-11.8,13.9v-0.5v0
					c0-0.2-0.1-0.4-0.2-0.6C258.3,415.3,263.3,404.6,266.2,393.8z"/>
				<path class="st4" d="M265.7,393.2c0.1,0.2,0.3,0.4,0.4,0.5c-2.8,10.8-7.9,21.5-16.6,27.8h0c-0.2-0.2-0.4-0.4-0.8-0.4
					c-0.2,0-0.3,0.1-0.5,0.1c9.7-6.5,15-18.7,17.7-30.7l-0.5,2.3L265.7,393.2z"/>
				<path class="st0" d="M264.2,459.7c0.4,0.2,0.9,0.3,1.3,0.5c-36.2,15.6-64.3,2.6-69.3,0.1c0.4-0.2,0.8-0.3,1.1-0.5
					c0.3,0.1,0.6,0.3,0.9,0.4c1.6,0.7,3.9,1.7,6.9,2.7c5.9,1.9,14.5,3.9,24.8,3.9C240,466.8,251.6,465,264.2,459.7z"/>
				<path class="st4" d="M265.5,459.1c-0.4,0.2-0.9,0.4-1.3,0.6c-5.4-2-10.9-4.6-14-7.9c-1.2-1.2-2.1-2.6-2.4-4.1l0-0.2l0-16
					c0.4-0.8,0.7-1.7,1-2.6v18.7C249.8,452.3,257.9,456.4,265.5,459.1z"/>
				<path class="st4" d="M250.2,451.8c3.2,3.3,8.6,5.9,14,7.9c-12.6,5.3-24.2,7.1-34.1,7.1c-10.4,0-18.9-2-24.8-3.9
					c-3-1-5.3-2-6.9-2.7c-0.4-0.2-0.7-0.3-0.9-0.4c5.3-2.4,9.1-5.1,11.6-7.4c2.8-2.4,4-4.3,4.1-4.4c0.1-0.2,0.2-0.4,0.2-0.5V425
					c2.3,4.2,9.7,15.2,22.1,14.3c0,0,8.7-0.1,12.4-7.8l0,16l0,0.2C248.1,449.2,249,450.5,250.2,451.8z"/>
				<path class="st3" d="M249.7,447.3v0.1h-1L249.7,447.3C249.7,447.3,249.7,447.3,249.7,447.3z"/>
				<path class="st4" d="M249.7,428.8v18.5c0,0,0-0.1,0-0.1l-0.9,0.2v-18.7c0-0.1,0.1-0.2,0.1-0.3c0.3,0,0.5-0.2,0.7-0.4
					C249.6,428.4,249.7,428.6,249.7,428.8z"/>
				<path class="st0" d="M249.7,422.6v5c0,0.2-0.1,0.5-0.2,0.6c-0.1-0.2-0.4-0.3-0.7-0.4l-0.1-0.3v-4.3c0.2-0.1,0.4-0.2,0.5-0.3
					C249.4,422.8,249.6,422.7,249.7,422.6z"/>
				<path class="st4" d="M249.7,422.1v0.5c-0.2,0.1-0.3,0.2-0.4,0.3c-0.2,0.1-0.3,0.2-0.5,0.3v-1.1c0.3-0.2,0.5-0.4,0.8-0.6h0
					C249.6,421.7,249.7,421.9,249.7,422.1L249.7,422.1z"/>
				<path class="st4" d="M249.5,421.5c-0.3,0.2-0.5,0.4-0.8,0.6c-0.3,0.2-0.6,0.4-1,0.6v-0.6l0,0c0-0.3,0.1-0.5,0.3-0.7c0,0,0,0,0,0
					c0.1,0,0.1-0.1,0.1-0.1c0,0,0.1,0,0.1-0.1c0.1-0.1,0.3-0.1,0.5-0.1C249.1,421.1,249.4,421.3,249.5,421.5z"/>
				<path class="st0" d="M248.8,427.9c0.3,0,0.5,0.2,0.7,0.4c-0.2,0.2-0.4,0.3-0.7,0.4c0-0.1,0.1-0.2,0.1-0.3L248.8,427.9z"/>
				<path class="st0" d="M248.8,427.9l0.1,0.4c0,0.1-0.1,0.2-0.1,0.3c0,0-0.1,0-0.1,0L248.8,427.9
					C248.8,427.9,248.8,427.9,248.8,427.9z"/>
				<path class="st3" d="M248.8,428.6c0,0.1-0.1,0.2-0.1,0.3L248.8,428.6C248.8,428.6,248.8,428.6,248.8,428.6z"/>
				<path class="st3" d="M248.8,427.9C248.8,427.9,248.8,427.9,248.8,427.9l-0.1-0.3L248.8,427.9z"/>
				<path class="st0" d="M248.8,428.6v0.3c-0.3,1-0.6,1.8-1,2.6v-2.6c0-0.2,0.1-0.4,0.2-0.6C248.2,428.4,248.4,428.6,248.8,428.6z"
					/>
				<path class="st0" d="M248.8,427.9v0.7c-0.3,0-0.6-0.1-0.7-0.4C248.2,428,248.4,427.9,248.8,427.9z"/>
				<path class="st0" d="M248.8,427.6v0.3c-0.3,0-0.6,0.1-0.7,0.4c-0.2-0.2-0.2-0.4-0.2-0.6v-3.8c0.1,0,0.1-0.1,0.1-0.1L248.8,427.6
					z"/>
				<path class="st0" d="M248.8,423.2v4.3l-0.8-3.8C248.2,423.6,248.5,423.4,248.8,423.2z"/>
				<path class="st4" d="M248.8,422.1v1.1c-0.3,0.2-0.6,0.4-0.8,0.5l-0.1-0.4c0,0,0,0-0.1,0v-0.7
					C248.1,422.5,248.4,422.3,248.8,422.1z"/>
				<path class="st4" d="M248.3,421.3C248.3,421.3,248.2,421.3,248.3,421.3c-0.1,0.1-0.2,0.1-0.2,0.1
					C248.1,421.3,248.2,421.3,248.3,421.3z"/>
				<path class="st4" d="M247.8,423.4l0.1,0.4c0,0-0.1,0.1-0.1,0.1L247.8,423.4C247.8,423.4,247.8,423.4,247.8,423.4z"/>
				<path class="st4" d="M248.1,421.4c-0.2,0.2-0.3,0.4-0.3,0.7l0,0v0.6c-4.7,2.9-10.3,4.6-17.2,4.6c-6.9,0-12.6-1.7-17.4-4.7v0V422
					c0-0.3-0.1-0.5-0.3-0.7c4.7,3.1,10.5,5,17.6,5C237.7,426.4,243.4,424.5,248.1,421.4z"/>
				<path class="st0" d="M248,428.2c-0.1,0.2-0.2,0.4-0.2,0.6v2.6c-3.7,7.7-12.4,7.8-12.4,7.8c-12.5,0.9-19.8-10.1-22.1-14.3v-1.2
					c4.8,2.8,10.6,4.5,17.4,4.5c6.8,0,12.4-1.7,17.2-4.5v3.8C247.8,427.8,247.9,428,248,428.2z"/>
				<path class="st4" d="M247.8,423.4v0.4c-4.7,2.8-10.4,4.5-17.2,4.5c-6.8,0-12.6-1.7-17.4-4.5v0
					C233.6,432.7,246.9,424.1,247.8,423.4z"/>
				<path class="st4" d="M247.8,422.7v0.7c-0.9,0.6-14.1,9.2-34.5,0.3v-1.1c4.7,2.9,10.5,4.7,17.4,4.7
					C237.4,427.3,243.1,425.6,247.8,422.7z"/>
				<path class="st4" d="M213.2,425v22.5c0,0.2-0.1,0.4-0.2,0.5c-0.1,0.1-1.3,1.9-4.1,4.4c-2.5,2.2-6.3,5-11.6,7.4
					c-0.4-0.2-0.6-0.3-0.8-0.4c-0.1-0.1-0.2-0.1-0.3-0.1c11.4-5,15.9-11.7,15.9-11.7v-24.3c0.3,0.2,0.5,0.3,0.8,0.5
					c-0.2-0.1-0.4-0.2-0.6-0.3C212.4,423.4,212.7,424,213.2,425z"/>
				<path class="st0" d="M213.2,423.8v1.2c-0.5-1-0.8-1.6-0.8-1.6c0.2,0.1,0.4,0.2,0.6,0.3C213.1,423.7,213.2,423.7,213.2,423.8z"/>
				<path class="st3" d="M213.2,423.7L213.2,423.7c-0.1,0-0.1,0-0.2-0.1C213.1,423.7,213.2,423.7,213.2,423.7z"/>
				<path class="st4" d="M213.2,422.7v1.1c-0.1,0-0.1-0.1-0.2-0.1c-0.3-0.2-0.5-0.3-0.8-0.5V422
					C212.6,422.3,212.9,422.5,213.2,422.7L213.2,422.7z"/>
				<path class="st4" d="M213.2,422v0.6c-0.3-0.2-0.6-0.4-1-0.6c-0.3-0.2-0.5-0.4-0.8-0.6c0.2-0.2,0.5-0.4,0.8-0.4
					c0.2,0,0.4,0.1,0.5,0.1c0.1,0.1,0.1,0.1,0.2,0.2C213.1,421.5,213.2,421.8,213.2,422z"/>
				<path class="st4" d="M212.8,421.2c-0.1-0.1-0.3-0.1-0.5-0.1c-0.3,0-0.6,0.2-0.8,0.4c-15.7-11.2-19.9-36.1-20.9-51.4l0.9-0.1
					c0.5,7.7,1.9,17.9,5.1,27.5c1.6,4.8,3.7,9.4,6.4,13.5S208.8,418.6,212.8,421.2z"/>
				<path class="st4" d="M212.3,423.2v24.3l-0.8-0.5v0c0,0-0.1,0.1-0.2,0.2v-24.7c0.1,0.1,0.3,0.2,0.4,0.3
					C211.9,423,212.1,423.1,212.3,423.2z"/>
				<path class="st4" d="M212.3,422v1.1c-0.2-0.1-0.4-0.2-0.5-0.4c-0.2-0.1-0.3-0.2-0.4-0.3V422c0-0.2,0.1-0.4,0.2-0.6
					C211.7,421.7,212,421.9,212.3,422z"/>
				<path class="st3" d="M212.3,447.5h-1v-0.3c0.1-0.1,0.2-0.2,0.2-0.2v0L212.3,447.5z"/>
				<path class="st4" d="M211.3,447.5h1c0,0-4.5,6.7-15.9,11.7c-0.1-0.1-0.2-0.1-0.2-0.1L196,459c-0.5-0.3-1.1-0.1-1.3,0.3
					c-0.1,0.2-0.1,0.4-0.1,0.6c-3,1.2-6.5,2.2-10.5,3.1c0,0-0.1-0.1-0.1-0.1c0,0,0,0,0,0c-0.4-0.3-0.9-0.5-1.4-0.5c0,0,0,0-0.1,0
					c-0.1,0-0.1,0-0.1,0c4.9-0.9,9.1-2.2,12.7-3.6c10.5-4.3,15.3-10.2,16.3-11.5V447.5z"/>
				<path class="st4" d="M211.5,421.5c-0.1,0.2-0.2,0.4-0.2,0.6v0.5c-8.2-5.7-13.3-14.8-16.5-24.4c-3-9-4.4-18.5-5-26.1
					c0.1,0.4,0.2,0.6,0.2,0.6l0.2-1.9c0.1-0.1,0.3-0.4,0.5-0.6C191.6,385.4,195.8,410.3,211.5,421.5z"/>
				<path class="st0" d="M196.6,459.3c0.2,0.1,0.5,0.3,0.8,0.4c-0.4,0.2-0.8,0.3-1.1,0.5c-0.5-0.3-0.8-0.4-0.8-0.4l-0.1-0.3
					c0.3-0.1,0.6-0.3,0.9-0.4C196.4,459.2,196.5,459.3,196.6,459.3z"/>
				<path class="st0" d="M196.3,459.2c-0.3,0.1-0.6,0.3-0.9,0.4c-0.3,0.1-0.6,0.2-0.9,0.3c0-0.2,0-0.4,0.1-0.6
					c0.3-0.5,0.9-0.6,1.3-0.3l0.1,0.1C196.2,459.1,196.3,459.1,196.3,459.2z"/>
				<path class="st0" d="M196.3,460.3c-0.2,0.1-0.3,0.2-0.5,0.2c-0.2,0.1-0.4,0.2-0.7,0.3c-0.1-0.1-0.1-0.1-0.1-0.1
					c-0.3-0.2-0.5-0.5-0.5-0.8c0.3-0.1,0.6-0.2,0.9-0.3l0.1,0.3C195.5,459.8,195.8,460,196.3,460.3z"/>
				<path class="st0" d="M195,460.7c0,0,0,0,0.1,0.1c-2.9,1.1-6.2,2.2-9.9,3c-0.4-0.2-0.8-0.5-1.2-0.7c4-0.8,7.4-1.9,10.5-3.1
					C194.6,460.2,194.8,460.5,195,460.7z"/>
				<path class="st3" d="M189.6,370.2l0.9-0.1c-0.2,0.3-0.4,0.5-0.5,0.6l-0.2,1.9c0,0-0.1-0.2-0.2-0.6
					C189.7,371.4,189.6,370.8,189.6,370.2z"/>
				<path class="st0" d="M184.1,463c0.4,0.3,0.8,0.5,1.2,0.7c-0.4,0.1-0.9,0.2-1.4,0.3c-0.2-0.1-0.3-0.2-0.5-0.3l0.5-0.7
					C184,463,184.1,463,184.1,463z"/>
				<path class="st0" d="M184.1,463c-0.1,0-0.1,0-0.2,0l0.1-0.1C184,462.9,184.1,463,184.1,463z"/>
				<path class="st0" d="M184,462.9l-0.1,0.1c0,0,0,0,0,0L184,462.9C184,462.9,184,462.9,184,462.9z"/>
				<path class="st0" d="M184,462.9l-0.1,0.1c-0.5,0.1-1,0.2-1.5,0.3l0.2-0.9C183.1,462.4,183.5,462.6,184,462.9z"/>
				<path class="st0" d="M183.9,463l-0.5,0.7L183.9,463C183.9,463,183.9,463,183.9,463z"/>
				<path class="st0" d="M183.9,464c-0.4,0.1-0.9,0.2-1.4,0.3l-0.2,0h0c-0.1,0-0.2,0-0.2,0c-0.4-0.1-0.8-0.5-0.8-0.9
					c0.3-0.1,0.7-0.1,1,0c0.4,0.1,0.7,0.2,1,0.4C183.6,463.8,183.8,463.9,183.9,464z"/>
				<path class="st0" d="M183.9,463l-0.4,0.7c-0.3-0.2-0.7-0.4-1-0.4C182.9,463.2,183.4,463.1,183.9,463z"/>
				<path class="st0" d="M182.5,462.3C182.5,462.3,182.6,462.3,182.5,462.3C182.6,462.4,182.5,462.4,182.5,462.3L182.5,462.3z"/>
				<path class="st0" d="M182.6,462.4l-0.2,0.9L182.6,462.4C182.5,462.4,182.6,462.4,182.6,462.4z"/>
				<path class="st0" d="M182.5,462.3L182.5,462.3l-0.1,1v-1h0v0h0C182.4,462.3,182.5,462.3,182.5,462.3z"/>
				<path class="st0" d="M182.4,462.3v1l-0.2-0.9c0,0,0,0,0.1,0C182.3,462.3,182.3,462.3,182.4,462.3L182.4,462.3z"/>
				<path class="st0" d="M182.2,462.4l0.2,0.9c-0.3-0.1-0.7-0.1-1,0v0C181.4,462.8,181.8,462.4,182.2,462.4z"/>
				<path class="st0" d="M182.4,462.3L182.4,462.3C182.3,462.3,182.3,462.3,182.4,462.3c-0.1,0-0.1,0-0.1,0
					c-0.5,0.1-0.8,0.5-0.8,0.9v0c-0.2,0.1-0.5,0.2-0.7,0.3l-0.1-0.1l-0.4-0.7c0.5-0.3,1.1-0.5,1.7-0.5
					C182.1,462.3,182.2,462.3,182.4,462.3z"/>
				<path class="st0" d="M182.1,464.3l-0.2,0c-0.3,0-0.5,0.1-0.7,0.2h0c-3.7,2.1-14.3,8.4-23.8,18.4c-9.3,9.7-17.7,22.9-18.1,38.9
					c0,0-0.1,0-0.1,0c-0.3,0-0.6,0.1-0.8,0.1l-0.1,0c0.7-33.2,35-54.1,42.4-58.3c0.2-0.1,0.5-0.2,0.7-0.3
					C181.4,463.8,181.7,464.2,182.1,464.3z"/>
				<path class="st0" d="M180.6,463.4l0.1,0.1c-7.5,4.2-41.7,25.1-42.4,58.3l-0.3,0.1l-0.1,0.1l-0.2,0.1c-0.1,0-0.1,0.1-0.2,0.1
					c0,0,0,0,0,0c-0.1,0.1-0.1,0.2-0.2,0.3c0,0.1-0.1,0.1-0.1,0.2c0,0,0,0,0,0c0,0.1,0,0.1,0,0.2c0-17.2,8.9-31.3,18.7-41.4
					c9.7-10.2,20.4-16.6,24.3-18.7L180.6,463.4z"/>
				<path class="st0" d="M180.2,462.7l0.4,0.7L180.2,462.7C180.2,462.8,180.2,462.8,180.2,462.7z"/>
				<path class="st0" d="M139.2,521.7c0,0.3,0,0.6,0,1c0,0,0,0,0,0c0-0.2-0.1-0.3-0.2-0.5c-0.2-0.2-0.4-0.3-0.6-0.3v0
					c0,0-0.1,0-0.1,0c0,0,0-0.1,0-0.1l0.1,0C138.5,521.8,138.8,521.7,139.2,521.7C139.2,521.7,139.2,521.7,139.2,521.7z"/>
				<path class="st0" d="M139.2,522.7c0,0.1,0,0.2,0,0.2C139.2,522.8,139.2,522.8,139.2,522.7C139.2,522.7,139.2,522.7,139.2,522.7z
					"/>
				<path class="st0" d="M138.3,523l0.1,0.2l0.2,0.4l0.1,0.1v0.1h0l0,0.1c-0.1,0.1-0.1,0.1-0.2,0.1c0,0,0,0-0.1,0c0,0-0.1,0-0.1,0
					c0,0-0.1,0-0.1,0h0c-0.1,0-0.2,0-0.3,0c-0.1,0-0.1,0-0.1-0.1h0c-0.1,0-0.1-0.1-0.1-0.1c0,0,0,0,0,0c0,0-0.1,0-0.1-0.1
					c0,0,0,0,0,0c0,0-0.1-0.1-0.1-0.1c0,0,0,0,0,0h0c-0.1-0.1-0.1-0.1-0.1-0.2c0,0,0,0,0-0.1c0,0,0,0,0-0.1c0,0,0,0,0,0c0,0,0,0,0,0
					c0-0.1,0-0.1,0-0.2v-0.1h1c0-0.1,0.4-0.2,0.9-0.2c0,0.1,0,0.2,0,0.2v0.1c0,0.1,0,0.1,0,0.2c0,0,0,0,0,0c0,0.1,0,0.1-0.1,0.2
					c0,0,0,0,0,0L138.3,523z"/>
				<path class="st0" d="M139.1,523.3C139.1,523.3,139.1,523.3,139.1,523.3c0,0.1-0.1,0.2-0.2,0.3c0,0-0.1,0.1-0.1,0.1c0,0,0,0,0,0
					c0,0-0.1,0-0.1,0c0,0,0,0,0,0c0,0,0,0,0.1-0.1c0.1,0,0.1-0.1,0.1-0.1c0,0,0,0,0,0s0.1-0.1,0.1-0.1
					C139.1,523.4,139.1,523.4,139.1,523.3z"/>
				<path class="st0" d="M139.1,523.3c0,0.1-0.1,0.1-0.1,0.1c0,0.1-0.1,0.1-0.1,0.1s0,0,0,0c0,0.1-0.1,0.1-0.1,0.1l-0.1-0.2
					l-0.1-0.2l-0.2-0.2l-0.1-0.2L139.1,523.3z"/>
				<path class="st0" d="M138.9,522.2c0.1,0.1,0.2,0.3,0.2,0.5c-0.6,0.1-0.9,0.1-0.9,0.2c0-0.3,0-0.6,0-1c0,0,0.1,0,0.1,0v0
					C138.5,522,138.8,522.1,138.9,522.2z"/>
				<path class="st0" d="M138.8,523.7C138.8,523.7,138.8,523.7,138.8,523.7C138.8,523.7,138.8,523.7,138.8,523.7L138.8,523.7z"/>
				<polygon class="st0" points="138.7,523.5 138.8,523.7 138.8,523.7 138.7,523.7 138.7,523.7 138.7,523.6 138.6,523.5 
					138.4,523.1 138.6,523.3 				"/>
				<path class="st3" d="M138.7,523.7C138.8,523.7,138.8,523.7,138.7,523.7c-0.1,0.1-0.3,0.2-0.5,0.2c-0.3,0-0.5-0.1-0.7-0.3
					c-0.1-0.1-0.2-0.3-0.2-0.5c0,0,0,0.1,0,0.1c0,0,0,0,0,0.1c0,0.1,0.1,0.1,0.1,0.2h0c0,0,0,0,0,0c0,0,0.1,0.1,0.1,0.1c0,0,0,0,0,0
					c0,0,0.1,0.1,0.1,0.1c0,0,0,0,0,0c0,0,0.1,0.1,0.1,0.1h0c0,0,0.1,0,0.1,0.1c0.1,0,0.2,0,0.3,0h0c0,0,0.1,0,0.1,0
					c0,0,0.1,0,0.1,0c0,0,0.1,0,0.1,0C138.6,523.8,138.6,523.8,138.7,523.7C138.7,523.8,138.7,523.8,138.7,523.7z"/>
				<path class="st0" d="M138.7,523.7l0.1-0.1C138.8,523.7,138.8,523.7,138.7,523.7C138.8,523.7,138.8,523.7,138.7,523.7
					C138.7,523.8,138.7,523.8,138.7,523.7L138.7,523.7z"/>
				<polygon class="st0" points="138.7,523.7 138.7,523.7 138.7,523.8 				"/>
				<polygon class="st0" points="138.7,523.6 138.7,523.7 138.7,523.7 				"/>
				<path class="st0" d="M138.4,523.9c0.1,0,0.1,0,0.1,0C138.4,523.9,138.4,523.9,138.4,523.9z"/>
				<path class="st0" d="M138.3,521.9C138.3,521.9,138.3,521.9,138.3,521.9L138.3,521.9c-0.2,0.1-0.3,0.1-0.4,0.2l0.1-0.1
					L138.3,521.9z"/>
				<path class="st0" d="M138.3,521.9c0,0.3,0,0.6,0,1h-1c0-0.1,0-0.1,0-0.2c0,0,0,0,0,0c0-0.1,0-0.1,0.1-0.2
					c0.1-0.1,0.1-0.2,0.2-0.3c0,0,0,0,0,0c0.1-0.1,0.2-0.2,0.3-0.2C138,522,138.1,521.9,138.3,521.9L138.3,521.9z"/>
				<path class="st0" d="M137.7,522.1l0.2-0.1c-0.1,0.1-0.2,0.1-0.3,0.2C137.6,522.2,137.6,522.1,137.7,522.1z"/>
				<path class="st0" d="M137.5,522.3c-0.1,0.1-0.1,0.2-0.2,0.3C137.4,522.4,137.4,522.3,137.5,522.3z"/>
				<path class="st0" d="M137.4,522.5c0,0.1-0.1,0.1-0.1,0.2C137.3,522.7,137.3,522.6,137.4,522.5z"/>
				<path class="st0" d="M137.3,523.2C137.3,523.2,137.3,523.2,137.3,523.2C137.3,523.1,137.3,523.1,137.3,523.2
					C137.3,523.1,137.3,523.2,137.3,523.2z"/>
				<path class="st3" d="M137.3,523.1C137.3,523.2,137.3,523.2,137.3,523.1C137.3,523.2,137.3,523.2,137.3,523.1
					C137.3,523.2,137.3,523.2,137.3,523.1z"/>
			</g>
			<g>
			</g>
		</g>
	</g>
	<g>
		<g>
			<path class="st5" d="M237.7,389.1c-0.6,1.8-5.2,3.1-7.2,3.2c-1.5,0.1-5.7-0.7-6.9-2.9"/>
		</g>
	</g>
	<g>
		<g>
			<path class="st3" d="M263,364.8c-1.8-0.9-7-2.9-9.3-3.2c-3.9-0.5-13.2-1.4-13.2-1.4c-1.9-1.5-2.4-4-1.8-3.8
				c2.5,1,16.6,2.1,18.6,3C258.3,360,263.4,364.5,263,364.8z"/>
		</g>
	</g>
	<g>
		<g>
			<path class="st3" d="M199.1,363.5c1.8-0.8,7.1-2.6,9.5-2.8c3.9-0.4,13.2-0.8,13.2-0.8c1.9-1.4,2.6-3.9,2-3.7
				c-3.4,1-16.7,1.3-18.7,2.2C203.9,358.9,198.7,363.1,199.1,363.5z"/>
		</g>
	</g>
	<path class="st3" d="M238.9,377.8C238.9,377.7,238.9,377.7,238.9,377.8c1.5-3.1,4.5-4.9,10.1-5.4c4.1-0.3,7.8,1.6,7.8,1.6
		c-1.2,0.2-1.9,0.9-2.1,1.3c1.8-1.2,3.5-0.6,4.4,0c0,0-2.6,0.4-3.4,1.6C247.3,372.8,238.9,377.8,238.9,377.8z"/>
	<path class="st3" d="M223.4,377.8C223.4,377.7,223.4,377.7,223.4,377.8c-1.5-3.1-4.5-4.9-10.1-5.4c-4.1-0.3-7.8,1.6-7.8,1.6
		c1.2,0.2,1.9,0.9,2.2,1.3c-1.8-1.2-3.5-0.6-4.4,0c0,0,2.6,0.4,3.4,1.6C215,372.8,223.4,377.8,223.4,377.8z"/>
	<ellipse class="st3" cx="189.4" cy="448.2" rx="15.6" ry="19.2"/>
	<path class="st3" d="M212.2,455.2c0,8.1-5.3,14.7-11.9,14.7c-6.6,0-11.9-6.6-11.9-14.7c0-8.1,5.3-14.7,11.9-14.7
		C206.9,440.5,212.2,447.1,212.2,455.2z"/>
	<ellipse class="st3" cx="193.2" cy="474.5" rx="9.3" ry="11.4"/>
	<path class="st3" d="M200.6,493.1c0,6.3-7.5,21.4-7.5,21.4s-6.9-15.1-6.9-21.4c0-6.3,3.2-11.4,7.2-11.4
		C197.4,481.6,200.6,486.8,200.6,493.1z"/>
	<path class="st2" d="M236.2,409.1l-9.2,1.7c-2.2,0-7.5-5.5-7.5-5.5c0-2.2,0.8-3.6,3-3.6h16.6c2.2,0,3.4,1.3,3.4,3.5
		C242.5,405.1,238.4,409.1,236.2,409.1z"/>
	<g>
		<g>
			<path class="st3" d="M244.9,402.8c-1.8-0.1-8.9-4.1-11.2-3.2c-1.3,0.5-3.2,0.8-4.7,0c-1.5-0.9-10.3,3.3-10.7,4
				c4.3,0,8.8-1.3,13.1-1.2C236.6,402.4,241.5,403.8,244.9,402.8z"/>
		</g>
	</g>
	<g>
		<g>
			<path class="st3" d="M230.9,414.5c4.5-0.2,10.4-4.7,13.4-11.5c-4.2,0.8-8.1,6.9-13.7,6.9c-6.3,0-9.9-6.1-12.9-6.1
				C221.8,411.7,226.3,414.6,230.9,414.5z"/>
		</g>
	</g>
</g>
<g>
	<g>
		<g>
			<path class="st3" d="M161.1,360.8c0,0,1,27.5,14.8,41.8c18,18.5,20.8,68-39.5,64l8.9-115L161.1,360.8z"/>
			<path class="st3" d="M132.5,371.7c7.5,2.7,13.9,7.4,18.1,14.2c0.3,0.5,0.6,1,0.9,1.5c5.9-5.8,9.6-13.9,9.6-22.9
				c0-17.8-14.4-32.2-32.2-32.2s-32.2,14.4-32.2,32.2c0,1.9,0.2,3.8,0.5,5.6C109.1,368.4,121.3,367.8,132.5,371.7z"/>
		</g>
		<path class="st3" d="M81.3,413.1c0,0-12.2-42.6,20.2-58.8c32.4-16.2,58,12,59.7,23.5l-45.8-12.1l-19.2,10.1
			c0,0-4.4,11.6-11.7,14.8L81.3,413.1"/>
		<path class="st1" d="M162.2,399.1c0,0,4.9,71.2-39.6,71.2c-44.5,0-40.9-71.2-40.9-71.2s-2.1-42.3,42.4-42.3
			C165.6,356.8,162.2,399.1,162.2,399.1z"/>
		<g>
			<circle class="st0" cx="105.8" cy="412.1" r="3.7"/>
			<circle class="st0" cx="140.1" cy="412.1" r="3.7"/>
			<path class="st0" d="M114.6,396c-0.2,0.4-1.1,4.9-1.1,4.9l-20.3,2.2l4.8-3.5c1.2-0.8,2.6-1.3,4.1-1.6L114.6,396z"/>
			<path class="st3" d="M129,396c0.2,0.4,1.1,4.9,1.1,4.9l20.3,2.2l-4.8-3.5c-1.2-0.8-2.6-1.3-4.1-1.6L129,396z"/>
		</g>
		<g>
			<path class="st1" d="M159.1,435.1c3,4.1,8.8,1.4,12.2-4c3.4-5.4,4.9-16.2,0-19.1c-4.9-2.9-9.1,3.1-9.1,3.1s-1.2,10.9-2.1,15
				L159.1,435.1z"/>
			<g>
				<g>
					<g>
						<path class="st0" d="M160.8,425.7c-0.1,0-0.1,0-0.2,0c-0.2-0.1-0.3-0.4-0.2-0.7c4.1-8.5,10.4-6.7,10.5-6.6
							c0.3,0.1,0.4,0.4,0.3,0.6c-0.1,0.3-0.4,0.4-0.6,0.3c-0.2-0.1-5.6-1.6-9.3,6.1C161.2,425.6,161,425.7,160.8,425.7z"/>
					</g>
				</g>
				<g>
					<path class="st0" d="M165.9,429.7c-0.1,0-0.2,0-0.3-0.1c-0.2-0.2-0.2-0.5-0.1-0.7c1-1.2,1.4-2.5,1.2-3.7
						c-0.5-2.3-3.1-3.7-3.1-3.7c-0.2-0.1-0.3-0.4-0.2-0.7c0.1-0.2,0.4-0.3,0.7-0.2c0.1,0.1,3.1,1.7,3.6,4.4c0.3,1.5-0.2,3-1.4,4.5
						C166.2,429.7,166.1,429.7,165.9,429.7z"/>
				</g>
			</g>
		</g>
		<g>
			<path class="st1" d="M84.7,435.1c-3,4.1-8.4,1.5-11.8-3.9c-3.4-5.4-4.9-16.2,0-19.1c4.9-2.9,9.1,3.1,9.1,3.1"/>
			<g>
				<g>
					<path class="st0" d="M119,420.6v6.9c0,0.6,0.1,1.2,0.3,1.7c0.7,1.7,2.4,2.7,4.2,2.7c0.4,0,0.8-0.1,1.2-0.2l2-0.5
						c0.5-0.1,0.8-0.6,0.7-1.1c-0.1-0.5-0.6-0.8-1.1-0.7l-2,0.5c-0.2,0.1-0.5,0.1-0.7,0.1c-1.1,0-2.1-0.6-2.4-1.5
						c-0.1-0.3-0.2-0.7-0.2-1v-6.9c0-0.5-0.4-0.9-0.9-0.9C119.5,419.7,119,420.1,119,420.6L119,420.6z"/>
					<path class="st0" d="M112.2,416.1l-9.2,6.1c-0.2,0.1-0.3,0.5-0.1,0.7c0.1,0.2,0.5,0.3,0.7,0.1l9.2-6.1c0.2-0.1,0.3-0.5,0.1-0.7
						C112.7,416.1,112.4,416,112.2,416.1"/>
					<path class="st0" d="M134,416.9l8.1,6.1c0.2,0.2,0.5,0.1,0.7-0.1c0.2-0.2,0.1-0.5-0.1-0.7l-8.1-6.1c-0.2-0.2-0.5-0.1-0.7,0.1
						C133.8,416.4,133.8,416.7,134,416.9"/>
					<path class="st0" d="M110,439.2c0.1,0,5.8,3.6,13.4,3.6c7.6,0,13.3-3.6,13.4-3.6c0.4-0.3,0.6-0.8,0.3-1.3
						c-0.3-0.4-0.8-0.6-1.3-0.3l0,0c-0.6,0.3-5.8,3.3-12.4,3.3c-3.5,0-6.6-0.8-8.9-1.7c-1.1-0.4-2-0.8-2.6-1.2
						c-0.3-0.2-0.5-0.3-0.7-0.4l-0.2-0.1l0,0c-0.4-0.3-1-0.1-1.3,0.3C109.4,438.4,109.5,439,110,439.2L110,439.2z"/>
					<path class="st0" d="M73.6,419.3L73.6,419.3c0.1,0,0.6-0.2,1.3-0.2c1.8,0,5,0.7,7.7,6.2c0.1,0.2,0.4,0.3,0.7,0.2
						c0.2-0.1,0.3-0.4,0.2-0.7c-2.8-5.8-6.5-6.8-8.6-6.8c-0.9,0-1.5,0.2-1.6,0.2c-0.3,0.1-0.4,0.4-0.3,0.6
						C73,419.2,73.3,419.4,73.6,419.3L73.6,419.3z"/>
					<path class="st0" d="M80,420.7c0,0-0.9,0.5-1.8,1.4c-0.9,0.9-1.9,2.2-1.9,3.9c0,1.1,0.4,2.3,1.5,3.6c0.2,0.2,0.5,0.2,0.7,0.1
						c0.2-0.2,0.2-0.5,0.1-0.7c-0.9-1.1-1.3-2.1-1.3-3c0-1.3,0.8-2.4,1.6-3.2c0.4-0.4,0.8-0.7,1.1-0.9l0.4-0.2l0.1-0.1
						c0.2-0.1,0.3-0.4,0.2-0.7C80.5,420.7,80.2,420.6,80,420.7L80,420.7z"/>
				</g>
			</g>
		</g>
		<g>
			<path class="st3" d="M81.3,413.1c0,0-12.2-42.6,20.2-58.8c32.4-16.2,58,12,59.7,23.5l-45.8-12.1l-19.2,10.1
				c0,0-4.4,11.6-11.7,14.8L81.3,413.1"/>
			<path class="st3" d="M81.3,413.1c0,0,17-21.4,6.3-42.9C87.6,370.2,79.7,396.4,81.3,413.1z"/>
			<path class="st3" d="M162,414.1c0,0-14.7-16.6-7.4-43.9C154.7,370.2,163.6,397.5,162,414.1z"/>
			<path class="st3" d="M92.4,366.8c0,0,33.8,51.8,74.9,36.3C167.3,403.1,133.5,349.4,92.4,366.8z"/>
			<path class="st3" d="M103.5,373.1c-0.1,0.5,3.1,21.4,23,29.4c0,0-28.6-1.4-36.7-27.2L103.5,373.1z"/>
			<path class="st0" d="M166.4,384.1v14.7c0,0.6-0.8,0.9-1.1,0.4c-4.1-5.3-19.1-22.2-44.1-21.3c-24.9,0.9-37.6,17-41.1,22.2
				c-0.3,0.4-1,0.2-1-0.3v-14.1c0-1.5,0.4-3,1.2-4.4c3.9-6.6,17.3-22.5,40.9-22.5c29.1,0,42.6,17.4,44.9,22.1
				C166.3,381.4,166.4,383.6,166.4,384.1z"/>
		</g>
	</g>
	<g>
		<path class="st1" d="M104,464.9v25.8c0,0-8.4,11.7-30.6,15.6h98.2c0,0-28.5-5.9-30.6-15.6V465"/>
		<path class="st3" d="M104,465.7c0,0,7.7,17.2,23.3,16.1c0,0,11.1-0.1,13.8-11.2l-1.1-4.9C139.9,465.7,125.9,475.7,104,465.7z"/>
		<path class="st0" d="M173.1,506.3h-44.9H120H73.4c0,0-44.5,22.5-44.5,61.1H120h8.3h89.4C217.7,528.9,173.1,506.3,173.1,506.3z"/>
	</g>
</g>
<path class="st6" d="M150.7,267.5"/>
</svg>
