<?xml version="1.0" encoding="utf-8"?>
<!-- Generator: Adobe Illustrator 23.0.4, SVG Export Plug-In . SVG Version: 6.00 Build 0)  -->
<svg version="1.1" id="Camada_1" xmlns="http://www.w3.org/2000/svg" xmlns:xlink="http://www.w3.org/1999/xlink" x="0px" y="0px"
	 viewBox="0 0 464 412.9" style="enable-background:new 0 0 464 412.9;" xml:space="preserve">
<style type="text/css">
	.st0{fill:#4578D7;}
	.st1{fill:#4E0174;}
	.st2{fill:#DA3267;}
	.st3{fill:#EBB450;}
	.st4{fill:#334A8C;}
	.st5{fill:#202020;}
	.st6{fill:#7D96EE;}
	.st7{fill:#F5F5F3;}
	.st8{fill:#657BB5;}
	.st9{fill:none;stroke:#000000;stroke-linecap:round;stroke-linejoin:round;stroke-miterlimit:10;}
</style>
<g>
	<g>
		<g>
			<g>
				<g>
					<g>
						<path class="st0" d="M234.4,290.2c-16.8,0-33.1-3.3-48.4-9.8c-14.8-6.3-28.1-15.2-39.5-26.7C135,242.3,126,229,119.7,214.2
							c-6.5-15.3-9.8-31.6-9.8-48.4s3.3-33.1,9.8-48.4c6.3-14.8,15.2-28.1,26.7-39.5s24.7-20.4,39.5-26.7
							c15.3-6.5,31.6-9.8,48.4-9.8s33.1,3.3,48.4,9.8c14.8,6.3,28.1,15.2,39.5,26.7s20.4,24.7,26.7,39.5c6.5,15.3,9.8,31.6,9.8,48.4
							s-3.3,33.1-9.8,48.4c-6.3,14.8-15.2,28.1-26.7,39.5c-11.4,11.4-24.7,20.4-39.5,26.7C267.5,286.9,251.2,290.2,234.4,290.2z
							 M234.4,42.3c-16.7,0-32.8,3.3-48.1,9.7c-14.7,6.2-27.9,15.1-39.3,26.5s-20.2,24.5-26.5,39.3c-6.4,15.2-9.7,31.4-9.7,48.1
							s3.3,32.8,9.7,48.1c6.2,14.7,15.1,27.9,26.5,39.3c11.3,11.3,24.5,20.2,39.3,26.5c15.2,6.4,31.4,9.7,48.1,9.7
							s32.8-3.3,48.1-9.7c14.7-6.2,27.9-15.1,39.3-26.5c11.3-11.3,20.2-24.5,26.5-39.3c6.4-15.2,9.7-31.4,9.7-48.1
							s-3.3-32.8-9.7-48.1c-6.2-14.7-15.1-27.9-26.5-39.3c-11.3-11.3-24.5-20.2-39.3-26.5C267.2,45.5,251,42.3,234.4,42.3z"/>
					</g>
					<g>
						<path class="st0" d="M311.4,203.1l-0.1-0.9c1.5-0.2,3.1-0.3,4.6-0.5l0.1,0.9C314.5,202.8,312.9,203,311.4,203.1z M320.5,202.1
							l-0.1-0.9c2.4-0.3,4.9-0.6,7.3-0.9l0.1,0.9C325.5,201.5,323,201.8,320.5,202.1z M332.4,200.5l-0.1-0.9
							c2.5-0.4,4.9-0.7,7.2-1.1l0.1,0.9C337.3,199.7,334.8,200.1,332.4,200.5z M344.2,198.6l-0.2-0.9c2.5-0.4,4.9-0.9,7.2-1.4
							l0.2,0.9C349.1,197.7,346.6,198.1,344.2,198.6z M355.9,196.3l-0.2-0.9c2.5-0.5,4.9-1.1,7.1-1.6l0.2,0.9
							C360.8,195.2,358.4,195.8,355.9,196.3z M367.5,193.5l-0.2-0.9c2.5-0.7,4.8-1.3,7-2l0.3,0.9C372.4,192.2,370,192.8,367.5,193.5
							z M378.9,190l-0.3-0.9c2.5-0.9,4.7-1.8,6.8-2.6l0.4,0.8C383.7,188.2,381.4,189.1,378.9,190z M390,185.4l-0.4-0.8
							c2.4-1.3,4.5-2.5,6.1-3.8l0.6,0.7C394.6,182.8,392.5,184.1,390,185.4z M399.6,178.1l-0.7-0.6c1.3-1.7,1.9-3.4,1.9-5.1
							c0-0.5,0-0.9-0.1-1.4l0.9-0.2c0.1,0.5,0.2,1,0.2,1.6C401.7,174.4,401,176.3,399.6,178.1z M398.8,167.3
							c-1.2-1.6-3.1-3.1-5.4-4.6l0.5-0.8c2.4,1.6,4.3,3.2,5.6,4.8L398.8,167.3z M389.4,160.4c-2-1-4.2-2-6.7-3l0.3-0.9
							c2.5,1,4.7,2,6.7,3L389.4,160.4z M378.5,155.8c-2.2-0.8-4.5-1.5-7-2.2l0.3-0.9c2.5,0.7,4.8,1.5,7,2.2L378.5,155.8z
							 M367.1,152.4c-2.3-0.6-4.7-1.2-7.1-1.8l0.2-0.9c2.5,0.6,4.9,1.2,7.1,1.8L367.1,152.4z M355.5,149.6c-2.3-0.5-4.7-1-7.2-1.5
							l0.2-0.9c2.5,0.5,4.9,1,7.2,1.5L355.5,149.6z M343.8,147.3c-2.3-0.4-4.8-0.8-7.2-1.2l0.1-0.9c2.5,0.4,4.9,0.8,7.2,1.2
							L343.8,147.3z M332.1,145.4c-2.4-0.3-4.8-0.7-7.3-1l0.1-0.9c2.5,0.3,4.9,0.7,7.3,1L332.1,145.4z M320.2,143.9
							c-2.4-0.3-4.8-0.6-7.3-0.8l0.1-0.9c2.5,0.3,4.9,0.5,7.3,0.8L320.2,143.9z M308.4,142.5c-2.4-0.2-4.9-0.5-7.3-0.7l0.1-0.9
							c2.5,0.2,4.9,0.4,7.3,0.7L308.4,142.5z M296.5,141.5c-2.4-0.2-4.9-0.4-7.3-0.6l0.1-0.9c2.4,0.2,4.9,0.4,7.3,0.6L296.5,141.5z
							 M284.6,140.6c-2.4-0.2-4.9-0.3-7.3-0.4v-0.9c2.5,0.1,4.9,0.3,7.3,0.4V140.6z M272.7,140c-2.4-0.1-4.9-0.2-7.3-0.3v-0.9
							c2.4,0.1,4.9,0.2,7.3,0.3V140z"/>
					</g>
					<g>
						<path class="st0" d="M210.8,237.8c-37.4-1.4-71.5-5.5-96.1-11.6c-12.2-3-21.8-6.4-28.4-10c-7-3.8-10.5-7.9-10.5-12.2
							c0-5.2,5.3-10.2,15.9-14.8l0.4,0.8c-10,4.4-15.3,9.2-15.3,13.9c0,7.7,13.6,15.3,38.2,21.3c24.5,6,58.6,10.1,95.9,11.5
							L210.8,237.8z"/>
					</g>
					<g>
						<g>
							<g>
								<g>
									<path class="st0" d="M330.8,191.7c-0.6-1-1.2-2.1-1.8-3.2l0.8-0.5c0.6,1.1,1.2,2.2,1.8,3.2L330.8,191.7z"/>
								</g>
								<g>
									<path class="st0" d="M317.3,243.8L317.3,243.8c-0.9,0-1.8,0-2.8-0.1v-0.9c0.9,0,1.8,0.1,2.7,0.1l0,0c1.6,0,3.1-0.1,4.5-0.2
										l0.1,0.9C320.5,243.8,318.9,243.8,317.3,243.8z M309.9,243.3c-2.3-0.3-4.8-0.7-7.3-1.3l0.2-0.9c2.5,0.6,4.9,1,7.2,1.3
										L309.9,243.3z M326.6,242.8l-0.2-0.9c2.5-0.6,4.7-1.6,6.6-2.9l0.5,0.8C331.5,241.1,329.1,242.1,326.6,242.8z M298.2,240.9
										c-2.3-0.6-4.7-1.3-7.1-2.1l0.3-0.9c2.4,0.8,4.7,1.5,7,2.1L298.2,240.9z M286.7,237.3c-2.2-0.8-4.5-1.7-6.9-2.7l0.4-0.8
										c2.3,1,4.6,1.9,6.8,2.7L286.7,237.3z M337,236.7l-0.7-0.6c0.1-0.1,0.2-0.2,0.3-0.3c1.4-1.7,2.5-3.7,3.2-5.9l0.9,0.3
										c-0.7,2.4-1.9,4.5-3.3,6.2C337.1,236.5,337,236.6,337,236.7z M275.7,232.7c-2.2-1-4.4-2.1-6.7-3.2l0.4-0.8
										c2.2,1.1,4.5,2.2,6.6,3.1L275.7,232.7z M264.9,227.4c-2.1-1.1-4.3-2.3-6.5-3.5l0.4-0.8c2.2,1.2,4.3,2.4,6.5,3.5
										L264.9,227.4z M341.5,225.5l-0.9-0.1c0.1-0.9,0.1-1.9,0.1-2.8c0-1.4-0.1-2.9-0.3-4.4l0.9-0.1c0.2,1.6,0.3,3.1,0.3,4.5
										C341.6,223.6,341.6,224.6,341.5,225.5z M254.4,221.6c-2.1-1.2-4.2-2.5-6.3-3.8l0.5-0.8c2.1,1.3,4.2,2.6,6.3,3.8
										L254.4,221.6z M244.2,215.4c-2-1.3-4.1-2.7-6.1-4.1l0.5-0.8c2,1.4,4.1,2.7,6.1,4.1L244.2,215.4z M339.6,213.7
										c-0.5-2.2-1.2-4.6-2-7l0.9-0.3c0.9,2.5,1.6,4.8,2.1,7.1L339.6,213.7z M234.3,208.7c-2-1.4-4-2.8-6-4.3l0.5-0.7
										c2,1.5,4,2.9,6,4.3L234.3,208.7z M336,202.4c-0.9-2.2-1.9-4.4-3.1-6.7l0.8-0.4c1.1,2.3,2.2,4.5,3.1,6.7L336,202.4z
										 M224.6,201.6c-1.9-1.5-3.9-3-5.8-4.5l0.6-0.7c1.9,1.5,3.9,3,5.8,4.5L224.6,201.6z M215.2,194.2c-0.9-0.7-1.9-1.5-2.8-2.3
										c-1-0.8-1.9-1.6-2.9-2.4l0.6-0.7c0.9,0.8,1.9,1.6,2.9,2.4c0.9,0.8,1.9,1.5,2.8,2.3L215.2,194.2z M206,186.5
										c-1.8-1.6-3.7-3.3-5.5-4.9l0.6-0.7c1.8,1.6,3.6,3.3,5.5,4.9L206,186.5z M197.1,178.5c-1.8-1.7-3.6-3.4-5.3-5.1l0.6-0.7
										c1.7,1.7,3.5,3.4,5.3,5.1L197.1,178.5z M188.6,170.1c-1.7-1.8-3.5-3.5-5.1-5.3l0.7-0.6c1.7,1.8,3.4,3.5,5.1,5.3
										L188.6,170.1z M180.3,161.4c-1.7-1.8-3.3-3.7-4.9-5.5l0.7-0.6c1.6,1.8,3.2,3.7,4.9,5.5L180.3,161.4z M172.4,152.4
										c-1.6-1.9-3.1-3.8-4.6-5.7l0.7-0.6c1.5,1.9,3,3.8,4.6,5.7L172.4,152.4z M165,143c-1.5-2-3-4-4.3-6l0.8-0.5
										c1.4,2,2.8,4,4.3,5.9L165,143z M158.1,133.2c-1.4-2.1-2.7-4.2-3.9-6.2l0.8-0.5c1.2,2,2.5,4.1,3.9,6.2L158.1,133.2z
										 M151.8,123c-1.2-2.2-2.4-4.4-3.4-6.6l0.8-0.4c1,2.1,2.1,4.3,3.4,6.5L151.8,123z M146.6,112.2c-1-2.4-1.9-4.7-2.6-6.9
										l0.9-0.3c0.7,2.2,1.6,4.5,2.6,6.9L146.6,112.2z M142.7,100.8c-0.6-2.6-1-5-1.2-7.3l0.9-0.1c0.2,2.2,0.5,4.7,1.1,7.2
										L142.7,100.8z M230,93.9c-2.1-1.3-4.3-2.5-6.4-3.7l0.4-0.8c2.1,1.2,4.3,2.4,6.4,3.7L230,93.9z M142.5,88.9l-0.9-0.1
										c0.2-2.7,0.8-5.1,1.7-7.3l0.8,0.4C143.2,84,142.7,86.3,142.5,88.9z M219.6,88.1c-2.2-1.2-4.4-2.3-6.5-3.4l0.4-0.8
										c2.2,1.1,4.4,2.2,6.6,3.4L219.6,88.1z M209,82.7c-2.3-1.1-4.5-2.1-6.7-3l0.4-0.8c2.2,0.9,4.5,1.9,6.7,3L209,82.7z
										 M146.4,78.1l-0.7-0.6c0.1-0.1,0.1-0.1,0.2-0.2c1.5-1.8,3.4-3.3,5.7-4.5l0.4,0.8c-2.1,1.1-3.9,2.5-5.4,4.3
										C146.5,78,146.5,78.1,146.4,78.1z M198,78c-2.3-0.9-4.7-1.7-6.9-2.5l0.3-0.9c2.3,0.7,4.6,1.6,6.9,2.5L198,78z M186.7,74.2
										c-2.4-0.7-4.8-1.3-7.1-1.8l0.2-0.9c2.3,0.5,4.7,1.1,7.2,1.8L186.7,74.2z M156.1,72l-0.3-0.9c2.2-0.6,4.7-1,7.3-1.2l0.1,0.9
										C160.7,71,158.3,71.4,156.1,72z M175.1,71.6c-2.5-0.4-5-0.6-7.3-0.7V70c2.3,0.1,4.8,0.3,7.4,0.8L175.1,71.6z"/>
								</g>
								<g>
									<path class="st0" d="M237,98.3c-1-0.7-2.1-1.3-3.1-1.9l0.5-0.8c1,0.6,2.1,1.3,3.1,2L237,98.3z"/>
								</g>
							</g>
						</g>
					</g>
					<g>
						<path class="st1" d="M234.7,192.4c-33.1,0-64.3-2.2-87.7-6.1c-11.4-1.9-20.4-4.1-26.7-6.6c-6.7-2.6-10-5.5-10-8.5
							s3.4-5.9,10-8.5c6.3-2.5,15.2-4.7,26.7-6.6c23.4-3.9,54.6-6.1,87.7-6.1v0.9c-33.1,0-64.2,2.2-87.6,6.1
							c-22.8,3.8-35.9,9-35.9,14.3c0,5.2,13.1,10.4,35.9,14.3c23.4,3.9,54.5,6.1,87.6,6.1L234.7,192.4L234.7,192.4z"/>
					</g>
					<g>
						<path class="st2" d="M236.5,290.2v-0.9c0.3,0,0.6,0,0.9,0v0.9C237.2,290.2,236.9,290.2,236.5,290.2z M242.1,289.8l-0.1-0.9
							c2.4-0.3,4.8-0.8,7.1-1.5l0.3,0.9C246.9,289,244.5,289.5,242.1,289.8z M229.2,289.6c-1.5-0.2-3-0.5-4.5-0.9l0.2-0.9
							c1.5,0.4,3,0.7,4.4,0.9L229.2,289.6z M223.8,288.5c-2.3-0.6-4.7-1.5-7-2.5l0.4-0.8c2.2,1,4.5,1.8,6.8,2.4L223.8,288.5z
							 M250.2,288l-0.3-0.9c1.4-0.4,2.9-1,4.3-1.5l0.3,0.8C253.1,287.1,251.7,287.6,250.2,288z M212.6,284c-0.3-0.1-0.5-0.3-0.8-0.4
							l0.4-0.8c0.3,0.1,0.5,0.3,0.8,0.4L212.6,284z M261.2,283.2l-0.5-0.8c0.3-0.2,0.5-0.3,0.8-0.5l0.5,0.8
							C261.7,282.9,261.5,283.1,261.2,283.2z M265.9,280.2l-0.5-0.7c1.9-1.4,3.9-2.9,5.7-4.5l0.6,0.7
							C269.8,277.3,267.8,278.8,265.9,280.2z M205.6,279.5c-1.2-0.9-2.4-1.8-3.6-2.8l0.6-0.7c1.2,1,2.4,1.9,3.6,2.8L205.6,279.5z
							 M201.3,276.1c-1.8-1.6-3.6-3.3-5.3-5.1l0.7-0.6c1.7,1.8,3.5,3.5,5.3,5L201.3,276.1z M272.4,275l-0.6-0.7
							c1.1-1,2.2-2.1,3.3-3.1l0.7,0.6C274.6,273,273.5,274,272.4,275z M192.9,267.6c-0.2-0.2-0.4-0.5-0.6-0.7l0.7-0.6
							c0.2,0.2,0.4,0.5,0.6,0.7L192.9,267.6z M280.6,266.4l-0.7-0.6c0.2-0.2,0.4-0.5,0.6-0.7l0.7,0.6
							C281,265.9,280.8,266.1,280.6,266.4z M284.1,262l-0.7-0.5c1.4-1.9,2.8-3.9,4.1-6l0.8,0.5C286.9,258.1,285.5,260.1,284.1,262z
							 M187.7,261.1c-0.9-1.2-1.8-2.5-2.6-3.8l0.8-0.5c0.8,1.3,1.7,2.5,2.6,3.8L187.7,261.1z M184.6,256.5c-1.3-2-2.6-4.1-3.8-6.3
							l0.8-0.4c1.2,2.2,2.5,4.3,3.8,6.3L184.6,256.5z M178.6,246.2c-0.1-0.3-0.3-0.5-0.4-0.8l0.8-0.4c0.1,0.3,0.3,0.5,0.4,0.8
							L178.6,246.2z M175.1,238.7c-0.6-1.4-1.2-2.8-1.8-4.2l0.9-0.3c0.6,1.4,1.2,2.8,1.8,4.2L175.1,238.7z M172.9,233.6
							c-0.9-2.2-1.7-4.6-2.5-6.9l0.9-0.3c0.8,2.3,1.6,4.6,2.5,6.9L172.9,233.6z M169,222.3c-0.1-0.3-0.2-0.6-0.3-0.9l0.9-0.3
							c0.1,0.3,0.2,0.6,0.3,0.9L169,222.3z M166.7,214.3c-0.4-1.5-0.7-3-1.1-4.5l0.9-0.2c0.3,1.5,0.7,3,1.1,4.4L166.7,214.3z
							 M165.4,209c-0.5-2.4-1-4.8-1.5-7.2l0.9-0.2c0.4,2.4,0.9,4.8,1.5,7.2L165.4,209z M163.2,197.2c0-0.3-0.1-0.6-0.1-0.9l0.9-0.1
							c0,0.3,0.1,0.6,0.1,0.9L163.2,197.2z M162.1,189c-0.2-1.5-0.3-3.1-0.5-4.6l0.9-0.1c0.1,1.5,0.3,3,0.5,4.6L162.1,189z
							 M161.5,183.5c-0.2-2.4-0.4-4.9-0.5-7.3h0.9c0.1,2.4,0.3,4.9,0.5,7.3H161.5z M160.8,171.6c0-0.3,0-0.6,0-0.9h0.9
							c0,0.3,0,0.6,0,0.9H160.8z M161.7,163.4h-0.9c0-1.5,0.1-3.1,0.1-4.6h0.9C161.7,160.3,161.7,161.8,161.7,163.4z M161.8,157.9
							h-0.9c0.1-2.4,0.2-4.9,0.4-7.3l0.9,0.1C162.1,153,161.9,155.4,161.8,157.9z M162.6,146l-0.9-0.1c0-0.3,0.1-0.6,0.1-0.9
							l0.9,0.1C162.7,145.4,162.7,145.7,162.6,146z M163.6,137.8l-0.9-0.1c0.2-1.5,0.4-3,0.7-4.5l0.9,0.1
							C164,134.8,163.8,136.3,163.6,137.8z M164.4,132.4l-0.9-0.2c0.4-2.4,0.9-4.9,1.4-7.2l0.9,0.2
							C165.3,127.6,164.8,130,164.4,132.4z M166.8,120.7l-0.9-0.2c0.1-0.3,0.1-0.6,0.2-0.9l0.9,0.2
							C166.9,120.1,166.9,120.4,166.8,120.7z M168.9,112.8l-0.9-0.3c0.4-1.5,0.9-3,1.3-4.4l0.9,0.3
							C169.7,109.8,169.3,111.3,168.9,112.8z M170.5,107.5l-0.9-0.3c0.8-2.3,1.6-4.7,2.4-6.9l0.9,0.3
							C172,102.9,171.2,105.2,170.5,107.5z M174.6,96.4l-0.8-0.3c0.1-0.3,0.2-0.6,0.4-0.8l0.8,0.4C174.8,95.8,174.7,96.1,174.6,96.4
							z M177.9,88.8l-0.8-0.4c0.7-1.4,1.4-2.8,2.1-4.1l0.8,0.4C179.3,86.1,178.6,87.5,177.9,88.8z M180.4,84l-0.8-0.4
							c1.2-2.2,2.4-4.3,3.7-6.4l0.8,0.5C182.8,79.6,181.6,81.8,180.4,84z M289,78.6c-0.2-0.3-0.3-0.5-0.5-0.8l0.8-0.5
							c0.2,0.3,0.3,0.5,0.5,0.8L289,78.6z M286.1,74c-1.4-2.1-2.8-4-4.3-5.9l0.7-0.6c1.5,1.9,2.9,3.9,4.3,6L286.1,74z M186.5,73.8
							l-0.8-0.5c0.2-0.3,0.3-0.5,0.5-0.8L187,73C186.9,73.3,186.7,73.5,186.5,73.8z M281.2,67.3c-1-1.2-1.9-2.4-2.9-3.5l0.7-0.6
							c1,1.1,2,2.3,3,3.5L281.2,67.3z M191.4,67.1l-0.7-0.6c1-1.2,2-2.4,3-3.5l0.7,0.6C193.3,64.8,192.3,66,191.4,67.1z M194.9,63
							l-0.7-0.6c1.7-1.9,3.4-3.6,5.2-5.2l0.6,0.7C198.3,59.4,196.6,61.1,194.9,63z M273.3,58.6c-0.2-0.2-0.4-0.4-0.7-0.6l0.6-0.7
							c0.2,0.2,0.4,0.4,0.7,0.6L273.3,58.6z M269.2,55c-1.9-1.6-3.9-3-5.9-4.3l0.5-0.8c2,1.3,4,2.8,6,4.4L269.2,55z M203.5,54.8
							l-0.6-0.7c0.2-0.2,0.5-0.4,0.7-0.6l0.6,0.7C204,54.4,203.7,54.6,203.5,54.8z M262.5,50.2c-1.3-0.8-2.6-1.6-3.9-2.3l0.4-0.8
							c1.3,0.7,2.7,1.5,4,2.3L262.5,50.2z M210.1,50.1l-0.5-0.8c1.3-0.8,2.7-1.6,4-2.3l0.4,0.8C212.8,48.5,211.4,49.3,210.1,50.1z
							 M214.9,47.4l-0.4-0.8c2.2-1.1,4.5-2.1,6.8-2.8l0.3,0.9C219.4,45.4,217.1,46.3,214.9,47.4z M251.9,45
							c-0.3-0.1-0.6-0.2-0.9-0.3l0.3-0.9c0.3,0.1,0.6,0.2,0.9,0.3L251.9,45z M246.7,43.5c-2.4-0.6-4.8-0.9-7.2-1.1l0.1-0.9
							c2.4,0.2,4.9,0.5,7.3,1.1L246.7,43.5z M226,43.4l-0.2-0.9c0.3-0.1,0.6-0.1,0.9-0.2l0.2,0.9C226.6,43.3,226.3,43.4,226,43.4z
							 M238.6,42.3c-0.8,0-1.6-0.1-2.4-0.1l0,0c-0.7,0-1.4,0-2.2,0.1v-0.9c0.7,0,1.5-0.1,2.2-0.1l0,0c0.8,0,1.6,0,2.4,0.1V42.3z"/>
					</g>
					<g>
						<g>
							<circle class="st1" cx="265.4" cy="139.2" r="4"/>
						</g>
						<g>
							<circle class="st1" cx="202.7" cy="45.2" r="4"/>
						</g>
						<g>
							<circle class="st1" cx="90.2" cy="189.7" r="4"/>
						</g>
						<g>
							<circle class="st3" cx="238.4" cy="97.9" r="4"/>
						</g>
						<g>
							<circle class="st3" cx="311.1" cy="202.9" r="4"/>
						</g>
						<g>
							<ellipse class="st3" cx="146.9" cy="76.2" rx="4" ry="4"/>
						</g>
						<g>
							<circle class="st3" cx="234.4" cy="191.9" r="4"/>
						</g>
						<g>
							<ellipse class="st3" cx="110.4" cy="171.2" rx="4" ry="4"/>
						</g>
						<g>
							<circle class="st3" cx="302.5" cy="61.5" r="4"/>
						</g>
						<g>
							<circle class="st2" cx="337.4" cy="234.9" r="4"/>
						</g>
						<g>
							
								<ellipse transform="matrix(0.1602 -0.9871 0.9871 0.1602 -57.237 407.3663)" class="st2" cx="210.8" cy="237.3" rx="4" ry="4"/>
						</g>
						<g>
							<circle class="st2" cx="291.9" cy="83.2" r="4"/>
						</g>
						<g>
							<circle class="st0" cx="329.3" cy="187.7" r="4"/>
						</g>
						<g>
							<circle class="st0" cx="234.7" cy="150.3" r="4"/>
						</g>
						<g>
							<ellipse class="st0" cx="237.1" cy="42" rx="4" ry="4"/>
						</g>
						<g>
							<ellipse class="st0" cx="114.3" cy="131.8" rx="4" ry="4"/>
						</g>
						<g>
							<circle class="st0" cx="287.8" cy="255.7" r="4"/>
						</g>
					</g>
				</g>
				<g>
					<g>
						<g>
							<path class="st2" d="M283.1,278.3c-4.2,0-8.8-1.3-13.7-4c-7.3-3.9-15-10.6-23-19.7c-16.4-18.8-32-46.2-43.8-77.2
								c-11.9-30.9-18.7-61.7-19.1-86.7c-0.2-12.2,1.1-22.3,3.9-30.1c2.9-8.1,7.3-13.4,13.1-15.6c9.1-3.5,20.6,0.8,33.4,12.4
								c12.5,11.3,25.1,28.5,36.6,49.9l-0.6,0.3c-23.6-43.9-51.4-68.8-69.1-62c-5.6,2.1-9.9,7.3-12.7,15.2
								c-2.8,7.7-4.1,17.7-3.9,29.8c0.4,24.9,7.2,55.6,19.1,86.4c22.4,58.2,56.6,100.4,79.9,100.4c2.2,0,4.3-0.4,6.2-1.1
								c5.6-2.1,9.9-7.3,12.7-15.2c2.8-7.7,4.1-17.7,3.9-29.8h0.7c0.2,12.2-1.1,22.3-3.9,30.1c-2.9,8.1-7.3,13.4-13.1,15.6
								C287.6,277.9,285.4,278.3,283.1,278.3z"/>
						</g>
						<g>
							<path class="st3" d="M199.7,280.9c-8.9,0-17.1-2-24.4-6.1c-8.9-5-15.9-12.7-20.9-22.9c-4.8-9.9-7.4-21.6-7.9-35
								c-0.4-13.3,1.3-27.6,5.2-42.3c4.1-15.3,10.3-30.4,18.5-45.1c8.2-14.6,17.9-27.8,28.8-39.3c10.5-11.1,21.8-20,33.4-26.6
								s23-10.5,33.9-11.6c11.3-1.1,21.5,0.8,30.5,5.8c9.5,5.3,16.8,13.7,21.8,24.9c4.8,10.8,7.1,23.7,7,38.3h-0.7
								c0.2-14.5-2.2-27.3-6.9-38c-5-11-12.2-19.3-21.6-24.5c-8.8-4.9-18.9-6.8-30-5.7c-10.8,1.1-22.1,4.9-33.6,11.5
								c-11.5,6.5-22.7,15.4-33.2,26.5c-10.9,11.4-20.5,24.6-28.7,39.1c-8.2,14.6-14.4,29.7-18.4,44.9c-3.9,14.7-5.7,28.9-5.2,42.1
								c0.4,13.2,3.1,24.9,7.8,34.7c4.9,10.1,11.8,17.7,20.6,22.6c16.7,9.4,38.5,7.8,61.3-4.4l0.3,0.6
								C224.2,277.3,211.4,280.9,199.7,280.9z"/>
						</g>
					</g>
					<g>
						<g>
							<circle class="st3" cx="271.1" cy="108.2" r="4"/>
						</g>
						<g>
							<ellipse class="st1" cx="162.6" cy="139.6" rx="2" ry="2"/>
						</g>
						<g>
							
								<ellipse transform="matrix(0.6981 -0.716 0.716 0.6981 0.7852 300.6256)" class="st3" cx="356.9" cy="149.4" rx="2.7" ry="2.7"/>
						</g>
						<g>
							<ellipse class="st3" cx="194.2" cy="151.4" rx="2.7" ry="2.7"/>
						</g>
						<g>
							<path class="st2" d="M328.5,123.4c-1.1,2-3.6,2.6-5.5,1.6c-2-1.1-2.6-3.6-1.6-5.5c1.1-2,3.6-2.6,5.5-1.6
								C328.9,119,329.6,121.5,328.5,123.4z"/>
						</g>
						<g>
							<circle class="st0" cx="184.7" cy="108.2" r="2.2"/>
						</g>
						<g>
							<path class="st0" d="M175.7,236c-0.6,1.1-1.9,1.4-3,0.8c-1.1-0.6-1.4-1.9-0.8-3c0.6-1.1,1.9-1.4,3-0.8
								C175.9,233.6,176.3,234.9,175.7,236z"/>
						</g>
						<g>
							<path class="st0" d="M151.4,187.4c-0.6,1.1-1.9,1.4-3,0.8c-1.1-0.6-1.4-1.9-0.8-3c0.6-1.1,1.9-1.4,3-0.8
								C151.6,185,151.9,186.3,151.4,187.4z"/>
						</g>
						<g>
							<circle class="st2" cx="354.2" cy="196.2" r="2.3"/>
						</g>
						<g>
							<ellipse class="st2" cx="148.4" cy="232.2" rx="2.3" ry="2.3"/>
						</g>
						<g>
							<ellipse class="st0" cx="306.5" cy="230.9" rx="4" ry="4"/>
						</g>
						<g>
							<circle class="st0" cx="237.1" cy="270" r="4"/>
						</g>
					</g>
				</g>
			</g>
		</g>
	</g>
</g>
<g>
	<g id="XMLID_9_">
		<g>
			<path class="st4" d="M74.5,301.5c0.1,0.4,0.5,0.7,0.9,0.6s0.8-0.2,1.1-0.2l42.9,17.8l45.6-18c0.4,0.1,0.8,0.2,1.1,0.3
				c0.4,0.1,0.9-0.2,1-0.6c0-0.2,0-0.3-0.1-0.5l0.4-0.2c0,0,36.2,18.3,36.2,49.7h-166c0-31.3,36.2-49.7,36.2-49.7l0.8,0.3
				C74.5,301.2,74.5,301.3,74.5,301.5z"/>
			<path class="st5" d="M167.1,300.9c0.1,0.1,0.1,0.3,0.1,0.5c-0.1,0.4-0.5,0.7-1,0.6c-0.3-0.1-0.7-0.2-1.1-0.3l1.3-0.5L167.1,300.9
				z"/>
			<path class="st4" d="M154.4,236.4c0.8-0.9,1-1.7,1-2.4c0-0.9-0.5-1.7-1-2.3c-0.5-0.5-1-0.9-1.3-1.1c0.1-0.1,0.1-0.2,0.2-0.2l0,0
				c0.1-0.1,0.2-0.2,0.4-0.4c0.3,0.2,0.6,0.5,1,0.8c0.7,0.7,1.5,1.8,1.5,3.1c0,0.9-0.4,1.9-1.2,2.9c-0.1,0.2-0.4,0.2-0.6,0.1
				C154.3,236.8,154.2,236.5,154.4,236.4z"/>
			<path class="st6" d="M150.3,241.3c0.6-3,1-5.5,1.3-7.9c0-0.3,0.1-0.6,0.1-0.9c0.4-0.7,0.9-1.3,1.3-1.8c0.3,0.2,0.8,0.6,1.3,1.1
				c0.6,0.6,1,1.4,1,2.3c0,0.7-0.3,1.5-1,2.4c-0.1,0.2-0.1,0.4,0.1,0.6c0.2,0.1,0.4,0.1,0.6-0.1c0.9-1,1.2-2,1.2-2.9
				c0-1.4-0.8-2.4-1.5-3.1c-0.4-0.4-0.7-0.6-1-0.8c1.5-1.3,2.8-1.6,3.8-1.6c0.3,0,0.6,0,0.8,0.1h0.2l0,0l0,0c0.2,0.1,0.4,0,0.5-0.3
				v-0.1l1.8-0.1c0,0.2,0,0.5,0,0.7c0,3.1-1,6.7-2.4,8.9l0,0c-0.9,1.4-1.9,2.5-2.9,3.3s-2.1,1.2-3,1.2
				C151.6,242.2,151,242,150.3,241.3z"/>
			<path class="st4" d="M153.2,229.7c-0.2-0.1-0.4-0.1-0.5,0.1c1.7-1.8,3.5-2.2,4.7-2.2c0.8,0,1.2,0.2,1.3,0.2
				c0.2,0.1,0.3,0.2,0.3,0.4v0.1c-0.1,0.2-0.3,0.3-0.5,0.3l0,0l0,0h-0.2c-0.2,0-0.4-0.1-0.8-0.1c-0.9,0-2.3,0.3-3.8,1.6
				C153.4,229.8,153.2,229.7,153.2,229.7z"/>
			<path class="st4" d="M152.8,230.4c-0.2-0.1-0.3-0.4-0.2-0.5c0,0,0-0.1,0.1-0.1l0,0c0.1-0.1,0.3-0.2,0.5-0.1c0,0,0.2,0.1,0.5,0.3
				c-0.1,0.1-0.2,0.2-0.4,0.4l0,0c-0.1,0.1-0.1,0.1-0.2,0.2C153,230.5,153,230.5,152.8,230.4L152.8,230.4z"/>
			<path class="st6" d="M151.7,223.8c0.2-0.2,0.5-0.5,0.8-0.8c1-0.9,2.4-1.8,4.2-1.8c0,0,0,0,0.1,0c0.8,0,1.7,0.2,2.6,0.8
				c1.1,0.6,1.8,1.7,2.3,2.9s0.6,2.6,0.7,4c0,1.7-0.3,3.5-0.7,5.2c-0.5,1.7-1.1,3.3-1.9,4.6l0,0c-1,1.5-2.1,2.8-3.3,3.7
				s-2.6,1.5-3.9,1.5l0,0c-0.4,0-0.7,0-2.4-0.8c0.1-0.3,0.1-0.6,0.2-0.9c2.5,2.1,6.4,0,8.9-4c2.7-4.4,4-13.1,0-15.5
				c-2.9-1.7-5.4,0.3-6.6,1.6H152C151.7,224.1,151.7,223.9,151.7,223.8L151.7,223.8z"/>
			<path class="st6" d="M151.9,230.7c0.3-3.4,0.3-4.1,0.4-5.2c0.2-0.3,0.7-0.9,1.4-1.4c0.8-0.7,1.9-1.3,3-1.3c0.6,0,1.2,0.1,1.8,0.5
				c0.7,0.4,1.2,1.1,1.6,2.1c0.3,0.8,0.5,1.7,0.5,2.7l-1.8,0.1c0-0.2-0.1-0.3-0.3-0.4c0,0-0.5-0.2-1.3-0.2c-1.1,0-2.9,0.4-4.7,2.2
				l0,0c0,0-0.1,0-0.1,0.1C152.4,230.1,152.2,230.4,151.9,230.7z"/>
			<path class="st6" d="M151.6,225.2c0,0,0.3-0.4,0.8-0.9l0,0c0,0.3,0,0.6,0,0.9l0,0c0,0.1,0,0.2,0,0.3s-0.1,0.1-0.1,0.1l0,0
				L151.6,225.2z"/>
			<path class="st4" d="M153.1,230.5c-0.4,0.5-0.9,1.1-1.3,1.8l0.2-1.7c0.2-0.3,0.5-0.6,0.7-0.8c-0.1,0.2,0,0.4,0.2,0.5l0.1,0.1
				C153,230.5,153,230.5,153.1,230.5z"/>
			<path class="st5" d="M151.6,224.2c0-0.1,0-0.2,0-0.4l0.1-0.1C151.7,223.9,151.7,224.1,151.6,224.2L151.6,224.2L151.6,224.2z"/>
			<path class="st5" d="M151.7,224.2C151.7,224.3,151.6,224.3,151.7,224.2L151.7,224.2L151.7,224.2z"/>
			<path class="st6" d="M151,232.1c0.3-2.5,0.5-4.8,0.6-6.9l0,0l0.7,0.5l0,0c0,0,0-0.1,0.1-0.1c-0.1,1-0.1,1.8-0.4,5.2
				C151.6,231.1,151.3,231.6,151,232.1z"/>
			<path class="st6" d="M152.4,224.3c-0.5,0.5-0.8,0.9-0.8,0.9l0,0c0-0.3,0-0.6,0-0.9v0.1v-0.1H152.4z"/>
			<path class="st6" d="M151.6,223.9c0,0.1,0,0.2,0,0.4c0,0-0.1-0.1-0.1-0.2S151.6,223.9,151.6,223.9z"/>
			<path class="st6" d="M151.6,224.2h-0.3c0-0.1,0.1-0.1,0.2-0.2C151.5,224.1,151.6,224.2,151.6,224.2z"/>
			<path class="st5" d="M151.6,225.2L151.6,225.2L151.6,225.2z"/>
			<path class="st6" d="M151.3,224.2h0.3l0,0c0,0.3,0,0.6,0,0.9l-0.6-0.4C150.9,224.7,151.1,224.5,151.3,224.2z"/>
			<path class="st4" d="M151,232.1c0.3-0.5,0.6-1,1-1.5l-0.2,1.7c-0.2,0.3-0.4,0.6-0.5,1l-0.2-0.1l-0.2-0.1
				C150.9,232.8,150.9,232.5,151,232.1z"/>
			<path class="st5" d="M151.2,233.4L151.2,233.4l-0.2-0.1L151.2,233.4z"/>
			<path class="st5" d="M151.2,233.4L151.2,233.4c-0.1,0.2-0.3,0.3-0.4,0.3c0-0.2,0-0.3,0.1-0.5L151.2,233.4L151.2,233.4z"/>
			<path class="st4" d="M151,232.1c0,0.4-0.1,0.7-0.1,1.1c0,0.2,0,0.3-0.1,0.5h-0.1c-0.2-0.1-0.3-0.3-0.2-0.5v-0.1l0,0
				C150.6,232.7,150.8,232.4,151,232.1z"/>
			<path class="st6" d="M150.3,241.3c0.6,0.7,1.3,0.9,2.1,1c0.9,0,1.9-0.4,3-1.2s2.1-1.9,2.9-3.3l0,0c1.4-2.2,2.5-5.9,2.4-8.9
				c0-0.3,0-0.5,0-0.7c0-1-0.2-1.9-0.5-2.7c-0.4-0.9-0.9-1.6-1.6-2.1c-0.7-0.4-1.3-0.5-1.8-0.5c-1.1,0-2.2,0.6-3,1.3
				c-0.7,0.5-1.2,1.2-1.4,1.4c0-0.1,0-0.2,0-0.3l0,0c0-0.3,0-0.6,0-0.9l0,0c1.2-1.3,3.8-3.3,6.6-1.6c4,2.4,2.7,11.1,0,15.5
				c-2.5,4-6.3,6.1-8.9,4c0.1-0.2,0.1-0.4,0.1-0.5L150.3,241.3z"/>
			<path class="st6" d="M149.5,241.5c0-0.1,0-0.2,0-0.2l0.5-0.4l0.1,0.1c0.1,0.1,0.2,0.2,0.2,0.3l-0.1,0.4c0,0.2-0.1,0.4-0.1,0.5
				C149.9,242,149.7,241.8,149.5,241.5z"/>
			<path class="st6" d="M150,240.9l-0.5,0.4c0.5-2.6,1-5.1,1.3-7.6c0.2,0,0.3-0.1,0.4-0.2l0,0l0,0c0.2-0.4,0.4-0.7,0.5-1
				c0,0.3-0.1,0.6-0.1,0.9c-0.3,2.4-0.7,5-1.3,7.9C150.2,241.2,150.1,241.1,150,240.9L150,240.9z"/>
			<path class="st6" d="M149.3,242.5c0.1-0.3,0.1-0.6,0.2-1c0.2,0.3,0.4,0.5,0.7,0.7c-0.1,0.3-0.1,0.6-0.2,0.9
				C149.7,242.9,149.5,242.7,149.3,242.5z"/>
			<path class="st6" d="M149.5,241.3c0,0.1,0,0.2,0,0.2c-0.1,0.3-0.1,0.6-0.2,1c-0.2-0.1-0.3-0.3-0.4-0.5l-0.1-0.1L149.5,241.3z"/>
			<path class="st4" d="M146.2,190.4c6.4,10.2,5.4,23,5.4,23s0.3,4.3,0,10.5c0,0.1-0.1,0.1-0.1,0.1c-1.1-2-6.9-14-4.6-24
				c0.7-3.2,0.2-6.5-1.4-9.2L146.2,190.4z"/>
			<path class="st5" d="M142.2,287.9v0.1h-0.8L142.2,287.9L142.2,287.9z"/>
			<path class="st6" d="M142.2,269v18.9c0,0,0,0,0-0.1l-0.8,0.2v-19c0.1-0.3,0.1-0.5,0.2-0.8C141.9,268.3,142.2,268.6,142.2,269z"/>
			<path class="st6" d="M166.4,301.2c-3.9-0.9-23.5-6-25-13.1h0.8V288c0.3,1.4,1.7,2.9,3.7,4.4c2,1.4,4.7,2.7,7.5,3.9
				c5.5,2.3,11.4,3.8,13.3,4.2c0.3,0.1,0.5,0.3,0.5,0.5L166.4,301.2z"/>
			<path class="st6" d="M141.4,288c1.5,7.1,21.1,12.2,25,13.1l-1.3,0.5c-1.8-0.5-4.9-1.3-8.2-2.4c-4.1-1.4-8.7-3.3-12-5.6
				c-2.2-1.6-3.9-3.3-4.3-5.4V288v-16c0.3-0.9,0.6-1.9,0.8-3V288z"/>
			<path class="st4" d="M141.4,268.2c0.1,0,0.1,0,0.2,0c0,0.3-0.1,0.5-0.2,0.8c-0.2,1.1-0.5,2.1-0.8,3v-3
				C140.6,268.6,140.9,268.2,141.4,268.2z"/>
			<path class="st4" d="M138.6,206.2l5.9,3.3h-17.3c0,0-1.6-5-1.8-5.4l8.5,0.7C135.5,205,137.1,205.5,138.6,206.2z"/>
			<path class="st6" d="M142.1,261.6c0,0-1.7,2.3-4.8,4.8c6.3-5.9,9.9-15,11.9-23.9c0.2,0.2,0.4,0.4,0.7,0.6
				c-1,4.2-2.3,8.5-4.1,12.4l-3.8,6.6C142.1,261.9,142.1,261.8,142.1,261.6z"/>
			<circle class="st4" cx="133.7" cy="221.3" r="3"/>
			<path class="st4" d="M129.2,224.5l6.6,5c0.2,0.1,0.2,0.4,0.1,0.6c-0.1,0.2-0.4,0.2-0.6,0.1l-6.6-5c-0.2-0.1-0.2-0.4-0.1-0.6
				C128.8,224.4,129,224.4,129.2,224.5z"/>
			<path class="st6" d="M125.6,272.6c4.8-1.2,8.8-3.8,11.6-6.1C134.1,269.4,130.3,271.6,125.6,272.6z"/>
			<path class="st6" d="M125.6,272.6v-0.8l0,0h-0.1c4.5-1,8.2-3.1,11.2-6c3.2-3,5.7-6.8,7.6-11c1.9-4.2,3.3-8.9,4.3-13.5
				c0.6-2.8,1-5.5,1.3-8.2c0.4-2.8,0.6-5.5,0.7-8c0-0.3,0-0.6,0-0.9h0.5c-0.3,0.3-0.4,0.5-0.4,0.5l0.6,0.4l0,0
				c-0.1,2.1-0.3,4.5-0.6,6.9c-0.2,0.3-0.3,0.6-0.5,0.9l0,0v0.1c-0.1,0.2,0,0.4,0.2,0.5h0.1c-0.3,2.4-0.7,5-1.3,7.6l-0.8,0.6
				l0.1,0.1c0.1,0.2,0.3,0.3,0.4,0.5c-2,8.9-5.6,18-11.9,23.9l0,0l0,0C134.4,268.8,130.4,271.4,125.6,272.6z"/>
			<polygon class="st6" points="125.8,273.4 125.7,273.4 125.6,273.4 125.6,273.4 125.6,272.6 			"/>
			<path class="st6" d="M125.6,271.8v0.8l-0.2-0.8l0,0H125.6L125.6,271.8L125.6,271.8z"/>
			<path class="st6" d="M137.9,267c-3.2,3-7.2,5.3-12.1,6.4l0,0l-0.2-0.8l0,0c4.7-1,8.5-3.2,11.6-6.1l0,0l0,0c3-2.5,4.8-4.8,4.8-4.8
				c0,0.2,0,0.3,0,0.5L137.9,267z"/>
			<path class="st6" d="M114.8,282.5c7.6,4.4,17.5,2.7,22.7-4.4c1.2-1.6,2.2-3.6,3-6v16v0.2c0.5,2.1,2.1,3.8,4.3,5.4
				c3.3,2.3,7.8,4.2,12,5.6c3.3,1.1,6.4,2,8.2,2.4l-45.6,18l-42.9-17.8c16.4-3.6,21.4-13.3,21.4-13.5L98,288v-23.9
				C99.6,266.8,105.7,277.3,114.8,282.5z"/>
			<path class="st6" d="M119.6,273.2c2.2,0,4.2-0.2,6.1-0.6c-1.4,0.4-2.9,0.6-4.5,0.6C120.6,273.2,120.1,273.2,119.6,273.2z"/>
			<path class="st6" d="M121.6,262.1c0.2,0.1,0.3,0.3,0.3,0.5l-1.1,3.7c-0.1,0.2-0.3,0.3-0.5,0.3c-0.2-0.1-0.3-0.3-0.3-0.5l1.1-3.7
				C121.1,262.1,121.4,262,121.6,262.1z"/>
			<path class="st6" d="M119.4,273.2L119.4,273.2C119.5,273.2,119.5,273.2,119.4,273.2c0.6,0,1.1,0,1.7,0c1.6-0.1,3.1-0.3,4.5-0.6
				l0,0v0.8l0,0h0.1c-1.9,0.4-4,0.6-6.2,0.6h-0.1c-0.1,0-0.3,0-0.4,0v-0.8l0,0C119.2,273.2,119.3,273.2,119.4,273.2z"/>
			<path class="st6" d="M119,273.2v0.8c0,0,0,0-0.1,0L119,273.2z"/>
			<path class="st5" d="M118.2,237.4l-0.7,0.3L118.2,237.4z"/>
			<path class="st4" d="M118.2,237.4c0.3,0.8,1.1,1.2,2,1.2c0.2,0,0.4,0,0.6-0.1l3-0.8c0.4-0.1,0.8,0.1,0.9,0.5s-0.1,0.8-0.5,0.9
				l-3,0.8c-0.3,0.1-0.7,0.1-1,0.1c-1.4,0-2.8-0.8-3.4-2.2l0,0c-0.2-0.4-0.3-0.9-0.3-1.4v-12.5c0-0.4,0.3-0.8,0.8-0.8
				c0.4,0,0.8,0.3,0.8,0.8v12.5C118.1,236.9,118.1,237.2,118.2,237.4L118.2,237.4l-0.7,0.3L118.2,237.4z"/>
			<path class="st4" d="M105.9,204.9l8.5-0.7c-0.3,0.4-1.8,5.4-1.8,5.4H95.3l5.9-3.3C102.7,205.5,104.3,205,105.9,204.9z"/>
			<path class="st4" d="M110.2,243.6c0.1,0.1,0.4,0.2,0.6,0.4c0.5,0.3,1.3,0.7,2.3,1.1c1.9,0.8,4.5,1.7,7.4,1.7
				c5.3,0,9.2-2.9,9.6-3.3l0,0c0.3-0.3,0.8-0.2,1.1,0.1s0.2,0.8-0.1,1.1c-0.1,0.1-4.3,3.6-10.6,3.6c-6.3,0-11.3-3.5-11.3-3.6
				c-0.4-0.2-0.4-0.7-0.2-1.1c0.2-0.4,0.7-0.4,1.1-0.2l0,0L110.2,243.6z"/>
			<circle class="st4" cx="105.7" cy="221.3" r="3"/>
			<path class="st4" d="M111.4,224.7l-7.5,4.9c-0.2,0.1-0.4,0.1-0.6-0.1c-0.1-0.2-0.1-0.4,0.1-0.6l7.5-4.9c0.2-0.1,0.4-0.1,0.6,0.1
				C111.6,224.3,111.6,224.5,111.4,224.7z"/>
			<path class="st6" d="M95.3,209.5h17.3c0,0,1.6-5,1.8-5.4l-8.5,0.7c-1.7,0.1-3.3,0.6-4.8,1.3L95.3,209.5z M144.4,209.5l-5.9-3.3
				c-1.5-0.7-3.1-1.2-4.8-1.3l-8.5-0.7c0.3,0.4,1.8,5.4,1.8,5.4L144.4,209.5L144.4,209.5z M130.7,221.3c0,1.7,1.3,3,3,3s3-1.3,3-3
				s-1.3-3-3-3S130.7,219.7,130.7,221.3z M135.8,229.5l-6.6-5c-0.2-0.1-0.4-0.1-0.6,0.1c-0.1,0.2-0.1,0.4,0.1,0.6l6.6,5
				c0.2,0.1,0.4,0.1,0.6-0.1C136,229.9,136,229.7,135.8,229.5z M111,224l-7.5,4.9c-0.2,0.1-0.2,0.4-0.1,0.6c0.1,0.2,0.4,0.2,0.6,0.1
				l7.5-4.9c0.2-0.1,0.2-0.4,0.1-0.6C111.4,223.9,111.1,223.9,111,224z M103,183.3c1.7,5,6.5,12.1,19.7,15c-0.5-0.4-8.8-6-13.5-12.7
				c4.2,4,13.2,9.4,31.5,10.6c0,0,0.6-4.9-0.3-10.7c1.3,0.9,2.5,2,3.7,3.3v0.1c0.5,0.6,1,1.2,1.3,1.8c1.6,2.7,2.1,6.1,1.4,9.2
				c-2.2,10.1,3.6,22,4.6,24c-0.1,0.1-0.1,0.1-0.2,0.2h-0.5c0,0.3,0,0.6,0,0.9c-0.1,2.5-0.4,5.1-0.7,8c-0.3,2.6-0.7,5.4-1.3,8.2
				c-1,4.6-2.4,9.2-4.3,13.5c-1.9,4.2-4.4,8.1-7.6,11c-3,2.8-6.7,4.9-11.2,6l0,0l0,0l0,0c-1.8,0.4-3.8,0.6-5.9,0.6h-0.1h-0.3l0,0
				l0,0c-7.1-0.1-12.6-2.5-16.8-6.4l0,0l0,0h-0.1c-6.6-6-10.4-15.5-12.5-24.8c-1.3-5.7-2-11.3-2.3-16c0-0.6-0.1-1.1-0.1-1.6h-0.8
				c1.5-3.1,6.8-15.3,5.6-23.3c-0.5-3.2,0-6.6,1.8-9.3l0.1-0.1c0.5-0.7,1-1.3,1.5-1.8C97.8,186.4,100.5,184.5,103,183.3z
				 M105.7,224.3c1.7,0,3-1.3,3-3s-1.3-3-3-3s-3,1.3-3,3S104.1,224.3,105.7,224.3z M131.1,244.7c0.3-0.3,0.4-0.7,0.1-1.1
				c-0.3-0.3-0.8-0.4-1.1-0.1l0,0c-0.4,0.3-4.3,3.3-9.6,3.3c-2.8,0-5.5-0.8-7.4-1.7c-1-0.4-1.7-0.8-2.3-1.1
				c-0.3-0.2-0.5-0.3-0.6-0.4l-0.2-0.1l0,0c-0.4-0.3-0.8-0.2-1.1,0.2c-0.3,0.3-0.2,0.8,0.2,1.1c0.1,0,5.1,3.6,11.3,3.6
				C126.7,248.3,131,244.7,131.1,244.7z M124.2,239.2c0.4-0.1,0.6-0.5,0.5-0.9s-0.5-0.6-0.9-0.5l-3,0.8c-0.2,0-0.4,0.1-0.6,0.1
				c-0.9,0-1.7-0.5-2-1.2c-0.1-0.3-0.2-0.6-0.2-0.8v-12.5c0-0.4-0.3-0.8-0.8-0.8c-0.4,0-0.8,0.3-0.8,0.8v12.5c0,0.5,0.1,1,0.3,1.4
				l0,0c0.6,1.4,2,2.2,3.4,2.2c0.3,0,0.7,0,1-0.1L124.2,239.2z M121.8,262.6c0.1-0.2-0.1-0.4-0.3-0.5c-0.2-0.1-0.4,0-0.5,0.3
				l-1.1,3.7c-0.1,0.2,0.1,0.4,0.3,0.5c0.2,0.1,0.4-0.1,0.5-0.3L121.8,262.6z"/>
			<path class="st6" d="M102.2,266c4.3,3.9,9.8,6.3,16.8,6.4l0,0l0,0h0.3h0.1c2.1,0,4.1-0.2,5.9-0.6l0,0l0.2,0.8l0,0l0,0
				c-1.9,0.4-3.9,0.6-6.1,0.6l0,0h-0.1c-0.1,0-0.3,0-0.4,0c-7.1-0.4-13.4-3.9-17.3-6.5c0,0,0,0-0.1,0h-0.1L102.2,266L102.2,266
				L102.2,266z"/>
			<polygon class="st6" points="101.6,266.6 102.1,265.9 102.2,266 			"/>
			<path class="st6" d="M119,273.2c-7.2-0.1-12.9-2.6-17.3-6.5C105.6,269.3,111.9,272.9,119,273.2z"/>
			<path class="st6" d="M101.7,266.7c4.4,4,10.1,6.5,17.3,6.5l0,0v0.8c-7.4-0.1-13.2-2.7-17.8-6.7L101.7,266.7
				C101.7,266.6,101.7,266.6,101.7,266.7z"/>
			<path class="st6" d="M101.7,266.6l-0.5,0.6c0,0,0,0-0.1-0.1L101.7,266.6z"/>
			<path class="st6" d="M98.1,262.8c1,1.3,2.2,2.6,3.4,3.7c-1.7-1.2-2.9-2.2-3.4-2.7v-0.3V262.8C98.1,262.9,98.1,262.8,98.1,262.8z"
				/>
			<path class="st6" d="M101.5,266.5C101.6,266.5,101.6,266.6,101.5,266.5l0.1,0.1l-0.5,0.6l0,0l0,0c-1.1-1-2-2-3-3.1v-0.2
				C98.7,264.3,99.9,265.3,101.5,266.5z"/>
			<path class="st4" d="M101.2,267.3c4.5,4.1,10.4,6.7,17.8,6.7c0,0,0,0,0.1,0c0.2,0,0.3,0,0.4,0h0.1c2.2,0,4.3-0.2,6.2-0.6h0.1l0,0
				c4.8-1.1,8.8-3.3,12.1-6.4l4.2-4.9c0,2.3-0.2,4.3-0.6,6.1c-0.1,0-0.1,0-0.2,0c-0.4,0-0.8,0.4-0.8,0.8v3c-0.8,2.4-1.8,4.4-3,6
				c-5.2,7.1-15.1,8.8-22.7,4.4c-9.2-5.2-15.3-15.6-16.7-18.3V264c0.9,1.1,1.9,2.1,3,3.1V267.3L101.2,267.3
				C101.2,267.2,101.2,267.2,101.2,267.3z"/>
			<path class="st4" d="M98.1,264.1L98.1,264.1c-0.1,0-0.1-0.1-0.1-0.2C98,264,98.1,264,98.1,264.1z"/>
			<path class="st6" d="M98,263.9c-0.1-0.1-0.2-0.2-0.3-0.3h0.1C97.8,263.6,97.9,263.7,98,263.9z"/>
			<path class="st6" d="M98.1,262.8c-0.2-0.2-0.4-0.5-0.5-0.7C97.9,262.2,98.1,262.5,98.1,262.8z"/>
			<path class="st6" d="M97.8,263.6c0,0,0.1,0.1,0.3,0.3v0.2C98,264,98,264,98,263.9l0,0C97.9,263.7,97.8,263.6,97.8,263.6z"/>
			<path class="st6" d="M98.1,263.6v0.3c-0.2-0.2-0.3-0.3-0.3-0.3h-0.1c-0.4-0.4-0.7-0.8-1-1.2c0.2-0.2,0.4-0.2,0.6-0.2
				c0.1,0,0.2,0,0.3,0c0.2,0.2,0.4,0.5,0.5,0.7l0,0V263.6z"/>
			<path class="st6" d="M97.3,288h-0.8v-0.2c0-0.1,0.1-0.1,0.1-0.1l0,0L97.3,288z"/>
			<path class="st6" d="M96.5,262.9c0-0.2,0.1-0.4,0.2-0.6c0.3,0.4,0.6,0.8,1,1.2h-0.4V288l-0.7-0.4l0,0c0,0,0,0.1-0.1,0.1v-24.3
				V262.9z"/>
			<path class="st4" d="M122.7,198.3c-13.2-3-17.9-10-19.7-15c-2.6,1.3-5.2,3.1-7.7,5.8c-0.5,0.6-1,1.2-1.5,1.8l-0.9-0.7
				c4.9-6.8,13.3-12.5,27.8-12.5c13.6,0,21.2,5.7,25.5,12.6l-0.7,0.3c-0.4-0.6-0.8-1.2-1.3-1.8v-0.1c-1.2-1.3-2.5-2.4-3.7-3.3
				c0.9,5.9,0.3,10.7,0.3,10.7c-18.3-1.3-27.2-6.6-31.5-10.6C113.9,192.3,122.2,197.9,122.7,198.3z"/>
			<path class="st6" d="M89.3,241.8c-0.1,0.1-0.2,0.3-0.3,0.4c-0.1-0.2-0.1-0.5-0.2-0.7L89.3,241.8z"/>
			<path class="st6" d="M89,242.2c1.7,7.1,4.4,14.3,8.6,19.9c-0.1,0-0.2,0-0.3,0c-0.2,0-0.4,0.1-0.6,0.2c-1.6-2.1-2.9-4.4-4.1-6.8
				c-1.5-3.2-2.7-6.6-4.4-12.7l0,0C88.5,242.7,88.8,242.4,89,242.2z"/>
			<path class="st6" d="M88.8,241.5c0.1,0.2,0.1,0.5,0.2,0.7c-0.2,0.2-0.4,0.5-0.7,0.6c-0.1-0.3-0.2-0.6-0.2-0.9
				c0.2-0.2,0.4-0.4,0.5-0.6L88.8,241.5z"/>
			<path class="st6" d="M88.6,241.4h0.2c0,0.1,0,0.1,0,0.2L88.6,241.4z"/>
			<path class="st6" d="M88.6,241.4c-0.2,0.2-0.3,0.4-0.5,0.6c0-0.2-0.1-0.3-0.1-0.5s-0.1-0.3-0.1-0.5l0.1-0.1L88.6,241.4z"/>
			<path class="st4" d="M87.4,233.7c-0.1-0.4-0.1-0.9-0.2-1.3c0.1,0.2,0.3,0.5,0.4,0.7C87.6,233.3,87.6,233.6,87.4,233.7z"/>
			<path class="st6" d="M102.1,265.9l-0.5,0.6c0,0,0,0-0.1-0.1c-1.2-1.1-2.4-2.4-3.4-3.7c0-0.3-0.2-0.6-0.5-0.7
				c-4.2-5.6-6.9-12.8-8.6-19.9c0.1-0.1,0.2-0.2,0.3-0.4l-0.4-0.3c0-0.1,0-0.1,0-0.2c-0.6-2.6-1.1-5.2-1.4-7.7
				c0.2-0.1,0.3-0.3,0.2-0.5c-0.1-0.3-0.3-0.5-0.4-0.7c-0.3-2.6-0.6-5-0.7-7.2l0,0l0.6-0.4c0,0-0.3-0.4-0.7-0.9c0-0.1,0-0.2,0-0.3
				h0.8c0,0.5,0.1,1,0.1,1.6c0.3,4.7,1,10.3,2.3,16C91.7,250.4,95.5,259.9,102.1,265.9z"/>
			<path class="st6" d="M88,240.9l-0.1,0.1l-1.5-8.4l0.4,0.8c0.1,0.2,0.3,0.3,0.5,0.2c0.4,2.5,0.8,5.1,1.4,7.7h-0.2L88,240.9z"/>
			<path class="st6" d="M86.3,223.8c0.5,0.5,0.7,0.9,0.7,0.9l-0.6,0.4C86.4,224.7,86.4,224.3,86.3,223.8z"/>
			<path class="st6" d="M86.1,230.8l-0.5-5.3l0.1,0.1l0,0l0.7-0.4l0,0c0.2,2.2,0.4,4.7,0.7,7.2C86.8,231.8,86.5,231.2,86.1,230.8z"
				/>
			<path class="st5" d="M86.4,225.2L86.4,225.2L86.4,225.2L86.4,225.2z"/>
			<path class="st4" d="M86.3,223.6c-0.4-6.1-0.2-10.2-0.2-10.2s-0.6-12.9,6.7-23.1l0.9,0.7l-0.1,0.1c-1.8,2.7-2.3,6-1.8,9.3
				C93.2,208.3,87.8,220.4,86.3,223.6z"/>
			<path class="st6" d="M86.3,223.6c0,0.1,0,0.2,0,0.3l-0.1-0.1C86.3,223.7,86.3,223.6,86.3,223.6z"/>
			<path class="st4" d="M86.3,223.6c0,0.1-0.1,0.1-0.1,0.2c-0.1-0.1-0.1-0.1-0.2-0.2H86.3z"/>
			<path class="st4" d="M87.2,232.4c0.1,0.4,0.1,0.8,0.2,1.3c-0.2,0.1-0.4,0-0.5-0.2l-0.4-0.8l-0.2-1.9
				C86.5,231.2,86.8,231.8,87.2,232.4z"/>
			<path class="st4" d="M86,224.3c0-0.2-0.1-0.5-0.1-0.7h0.2c0.1,0,0.1,0.1,0.2,0.2C86.1,224.1,86,224.3,86,224.3z"/>
			<path class="st4" d="M146.2,190.4c-4.3-6.9-12-12.6-25.5-12.6c-14.5,0-22.9,5.7-27.8,12.5c-7.4,10.3-6.7,23.1-6.7,23.1
				s-0.2,4.1,0.2,10.2h-0.2c-0.1-0.1-0.2-0.2-0.3-0.3l0,0c-0.1-0.9-0.2-1.9-0.2-2.9l0,0c-0.1-1.4-0.1-2.9,0-4.4v-21.3
				c0-5.6,3.3-10.8,8.5-13.1l8.2-4.3c1.6-7,8.5-10.1,11.9-11.3c1.1-0.4,2.2-0.6,3.3-0.6c12.2-0.3,18.1,6,20.9,13l6,3.2
				c5.2,2.3,8.5,7.4,8.5,13.1l-0.8,26.7c0-0.3,0-1.5,0-3.3c0,2.1-0.1,4.1-0.4,5.8l0,0l-0.1,0.1c0.3-6.2,0-10.5,0-10.5
				S152.6,200.7,146.2,190.4z"/>
			<path class="st4" d="M85.8,223.3c0.1,0.1,0.2,0.2,0.3,0.3h-0.2C85.8,223.5,85.8,223.4,85.8,223.3z"/>
			<path class="st6" d="M85.6,224.2c0-0.2,0-0.4,0-0.6h0.3c0,0.3,0.1,0.5,0.1,0.7c0,0,0.1-0.2,0.3-0.6l0.1,0.1
				c0,0.4,0.1,0.9,0.1,1.3l0,0C86.4,225.2,86.1,224.7,85.6,224.2z"/>
			<path class="st4" d="M86.4,232.6c-0.7-1.1-1-1.5-1.5-2.1l0.2-0.1l0.1-0.1c0.2-0.1,0.3-0.4,0.2-0.5c0.3,0.3,0.6,0.6,0.8,0.9
				L86.4,232.6z"/>
			<path class="st6" d="M85.6,225.2c0-0.4-0.1-0.7-0.1-1.1c0.5,0.6,0.8,1,0.8,1l-0.7,0.4l0,0l-0.1-0.1l0,0
				C85.6,225.4,85.6,225.3,85.6,225.2z"/>
			<path class="st4" d="M85.2,229.7c0.1,0,0.1,0.1,0.2,0.2c0.1,0.2,0,0.4-0.2,0.5l-0.1,0.1l-0.2,0.1c-0.1-0.1-0.1-0.2-0.2-0.2
				c-0.1-0.1-0.3-0.2-0.4-0.4c0.3-0.2,0.4-0.3,0.5-0.3C84.9,229.6,85.1,229.6,85.2,229.7z"/>
			<path class="st4" d="M81.8,233.9c0-1.4,0.8-2.4,1.5-3.1c0.4-0.4,0.7-0.6,1-0.8c0.1,0.1,0.2,0.2,0.4,0.4c0.1,0.1,0.1,0.2,0.2,0.2
				l-0.1,0.1c-0.3,0.2-0.6,0.4-0.9,0.7c-0.7,0.6-1.3,1.5-1.3,2.6c0,0.7,0.3,1.5,1,2.4c0.1,0.2,0.1,0.4-0.1,0.6
				c-0.2,0.1-0.4,0.1-0.6-0.1C82.2,235.8,81.8,234.8,81.8,233.9z"/>
			<path class="st4" d="M80.6,227.6c0.6,0,1.3,0.1,2.1,0.4c0.7,0.3,1.5,0.8,2.5,1.7c-0.1-0.1-0.3-0.1-0.4,0c0,0-0.2,0.1-0.5,0.3
				c-1.5-1.3-2.9-1.6-3.8-1.6c-0.6,0-0.9,0.1-1,0.1l0,0c-0.2,0.1-0.4,0-0.5-0.3v-0.1c0-0.2,0.1-0.3,0.3-0.4
				C79.3,227.7,79.8,227.6,80.6,227.6z"/>
			<path class="st6" d="M79.4,223.3c0.7-0.4,1.3-0.5,1.8-0.5c1.2,0,2.3,0.7,3.2,1.4c0.4,0.4,0.8,0.7,1,1c0.1,0.1,0.2,0.2,0.3,0.3
				l0,0l0.5,5.3c-0.3-0.4-0.5-0.7-0.8-0.9c0-0.1-0.1-0.1-0.2-0.2c-1-0.9-1.8-1.4-2.5-1.7c-0.8-0.3-1.6-0.4-2.1-0.4
				c-0.8,0-1.2,0.2-1.3,0.2c-0.2,0.1-0.3,0.2-0.3,0.4l-1.8-0.1c0.1-1,0.2-1.9,0.5-2.6C78.1,224.5,78.7,223.8,79.4,223.3z"/>
			<path class="st6" d="M80.6,228.4c0.9,0,2.3,0.3,3.8,1.6c-0.3,0.2-0.6,0.5-1,0.8c-0.7,0.7-1.5,1.8-1.5,3.1c0,0.9,0.4,1.9,1.2,2.9
				c0.1,0.2,0.4,0.2,0.6,0.1c0.2-0.1,0.2-0.4,0.1-0.6c-0.8-0.9-1-1.7-1-2.4c0-1,0.6-1.9,1.3-2.6c0.3-0.3,0.6-0.6,0.9-0.7l0.1-0.1
				c0.5,0.6,0.8,1,1.5,2.1l1.5,8.4c-0.7,0.9-1.4,1.2-2.3,1.2s-1.9-0.4-3-1.2s-2.1-1.9-2.9-3.3l0,0c-1.4-2.2-2.4-5.8-2.4-8.9
				c0-0.3,0-0.5,0-0.8l1.8,0.1v0.1c0.1,0.2,0.3,0.3,0.5,0.3l0,0C79.6,228.5,80,228.4,80.6,228.4z"/>
			<path class="st6" d="M98,288.4c-0.1,0.2-5,9.8-21.4,13.5l-1.3-0.5c17.1-3.4,22-13.3,22-13.3v-24.5h0.4c0.1,0.1,0.2,0.2,0.3,0.3
				l0,0c0,0.1,0.1,0.2,0.1,0.3V288L98,288.4z"/>
			<path class="st6" d="M75.2,300.5c15.5-3.1,20.7-11.5,21.4-12.7v0.2h0.8c0,0-4.9,9.9-22,13.3l-0.7-0.3
				C74.7,300.8,74.9,300.6,75.2,300.5z"/>
			<path class="st6" d="M84.4,224.2c-0.8-0.7-2-1.4-3.2-1.4c-0.6,0-1.2,0.1-1.8,0.5c-0.7,0.4-1.3,1.1-1.6,2.1
				c-0.3,0.8-0.5,1.7-0.5,2.6c0,0.3,0,0.5,0,0.8c0,3.1,1,6.7,2.4,8.9l0,0c0.9,1.4,1.9,2.5,2.9,3.3s2.1,1.2,3,1.2s1.6-0.3,2.3-1.2
				c0,0.2,0.1,0.3,0.1,0.5s0.1,0.3,0.1,0.5c-2.5,2.5-6.5,0.3-9.1-3.8c-2.7-4.4-4-13.1,0-15.5c2.8-1.7,5.3,0.2,6.6,1.5
				c0,0.4,0,0.7,0.1,1.1c0,0.1,0,0.2,0,0.3c-0.1-0.1-0.1-0.2-0.3-0.3C85.2,224.9,84.8,224.6,84.4,224.2z"/>
			<path class="st6" d="M78.6,222c0.9-0.5,1.8-0.8,2.7-0.8c1.8,0,3.2,0.9,4.2,1.8c0.1,0.1,0.2,0.2,0.3,0.3l0,0c0,0.1,0,0.2,0,0.3
				h-0.3c0,0.2,0,0.4,0,0.6c-1.3-1.3-3.8-3.2-6.6-1.5c-4,2.4-2.7,11.1,0,15.5c2.6,4.1,6.6,6.3,9.1,3.8c0.1,0.3,0.1,0.6,0.2,0.9l0,0
				c-0.8,0.6-1.8,1-2.7,1c-1.4,0-2.7-0.6-3.9-1.5c-1.2-0.9-2.4-2.2-3.3-3.7l0,0c-1.6-2.6-2.7-6.3-2.7-9.8c0-1.4,0.2-2.8,0.6-4
				C76.7,223.6,77.5,222.6,78.6,222z"/>
			<path class="st5" d="M74.6,301l0.7,0.3l1.3,0.5c-0.4,0.1-0.8,0.2-1.1,0.2c-0.4,0.1-0.9-0.2-0.9-0.6
				C74.5,301.3,74.5,301.2,74.6,301z"/>
		</g>
	</g>
</g>
<g>
	<g>
		<g id="XMLID_8_">
			<g>
				<path class="st4" d="M424.2,347.3v0.8h-0.8c0-0.3,0-0.5,0-0.8H424.2z"/>
				<path class="st4" d="M423.4,347.3H258.9c0.1-3.3,0.5-6.6,1.4-9.6c0-0.1,0-0.1,0-0.2H422c0,0.1,0,0.1,0.1,0.2
					C422.8,340.5,423.2,343.5,423.4,347.3z"/>
				<path class="st4" d="M418.9,329.4l3.9,8.1H422C421.2,334.6,420.2,331.9,418.9,329.4L418.9,329.4z"/>
				<path class="st4" d="M418.8,329.4H263.5c1.9-3.8,4.3-7.3,6.8-10.4c0.1-0.2,0.3-0.3,0.4-0.5h140.8c0.1,0.2,0.3,0.3,0.4,0.5
					C414.5,322.1,416.9,325.6,418.8,329.4z"/>
				<path class="st4" d="M404.8,310.4L404.8,310.4H404c0-0.2,0.1-0.4,0.2-0.5c0.3-0.3,0.8-0.4,1.1-0.1l0,0c0.3,0.3,0.3,0.8,0,1.1
					c0,0,0,0-0.1,0L404.8,310.4z"/>
				<path class="st4" d="M404.7,310.3L404.7,310.3l0.5,0.6c-0.3,0.3-0.8,0.3-1.1,0l0,0c-0.2-0.2-0.2-0.4-0.2-0.6H404.7z"/>
				<path class="st4" d="M404.2,310.9c0.3,0.3,0.8,0.3,1.1,0l7.3,7.6h-1C409.2,315.7,406.7,313.2,404.2,310.9
					C404.2,311,404.2,311,404.2,310.9z"/>
				<path class="st7" d="M404.3,311c2.5,2.2,5,4.7,7.3,7.5H270.7c2.6-3.1,5-5.4,7.3-7.5c0,0,0,0,0-0.1l0,0c0.2-0.2,0.4-0.4,0.7-0.6
					h124.8C403.8,310.5,404,310.7,404.3,311L404.3,311C404.2,311,404.2,311,404.3,311z"/>
				<path class="st4" d="M403.5,310.3h0.4c0,0.2,0.1,0.4,0.2,0.6C404,310.7,403.8,310.5,403.5,310.3z"/>
				<path class="st4" d="M388,298.5v0.8h-0.2c-0.1-0.1-0.2-0.1-0.2-0.1L388,298.5z"/>
				<path class="st4" d="M387.8,299.3c0.1,0,0.1,0.1,0.2,0.1c1.6,0.9,8.4,4.6,15.6,11H278.7c4-3.5,7.9-6.3,10.8-8.1
					c1.6-1,2.8-1.8,3.7-2.2c0.4-0.3,0.8-0.4,1-0.6c0.2-0.1,0.4-0.2,0.4-0.2c0.3-0.1,0.4-0.4,0.4-0.7h90.8c0,0.4,0.4,0.8,0.8,0.8
					L387.8,299.3L387.8,299.3z"/>
				<path class="st4" d="M386.7,299.3c-0.4,0-0.8-0.4-0.8-0.8h0.8c0,0-0.3-0.1-0.8-0.2c0.1-0.4,0.4-0.6,0.8-0.6h1.3
					c0.1,0,0.3,0,0.4,0.1c0,0,8.3,4.2,16.9,12l0,0c-0.3-0.3-0.8-0.3-1.1,0.1c-0.1,0.1-0.2,0.3-0.2,0.5h-0.4
					c-7.2-6.3-14-10.1-15.6-11c-0.1,0-0.1-0.1-0.2-0.1h0.2v-0.8l-0.4,0.7c0,0,0.1,0,0.2,0.1L386.7,299.3L386.7,299.3z"/>
				<path class="st4" d="M386.7,298.5h-0.8c0-0.1,0-0.1,0-0.2C386.4,298.4,386.7,298.5,386.7,298.5z"/>
				<path class="st4" d="M375.9,231.7c0-0.9-0.5-1.7-1-2.3c-0.5-0.5-1-0.9-1.3-1.1l0.2-0.2l0.4-0.4c0.3,0.2,0.6,0.5,1,0.8
					c0.7,0.7,1.5,1.8,1.5,3.2c0,0.9-0.4,1.9-1.2,2.9c-0.1,0.2-0.4,0.2-0.6,0.1c-0.2-0.1-0.2-0.4-0.1-0.6
					C375.6,233.2,375.9,232.4,375.9,231.7z"/>
				<path class="st4" d="M374.1,227.7l-0.4,0.4l-0.2,0.2c-0.1,0-0.1-0.1-0.2-0.1l-0.1-0.1c-0.2-0.1-0.3-0.4-0.2-0.5
					c0,0,0-0.1,0.1-0.1c0.1-0.1,0.3-0.2,0.5-0.1C373.7,227.5,373.9,227.5,374.1,227.7z"/>
				<path class="st4" d="M376,226.5c-0.4,0.2-0.8,0.4-1.9,1.2c-0.3-0.2-0.4-0.3-0.4-0.3c-0.2-0.1-0.4-0.1-0.5,0.1
					c1.7-1.8,3.5-2.2,4.7-2.2c0.8,0,1.2,0.2,1.3,0.2c0.2,0.1,0.3,0.3,0.3,0.5c-0.1,0.2-0.3,0.3-0.5,0.3l0,0l0,0h-0.2
					c-0.2,0-0.4-0.1-0.8-0.1C377.4,226.2,376.7,226.2,376,226.5z"/>
				<path class="st5" d="M372.2,218.6c0,0.4,0,0.9,0,1.4c-0.1-0.2-0.2-0.4-0.4-0.6h0.1c0.2-0.1,0.2-0.4,0.1-0.5L372.2,218.6z"/>
				<path class="st6" d="M374.9,234.7c0.2,0.1,0.4,0.1,0.6-0.1c0.9-1,1.2-2,1.2-2.9c0-1.4-0.8-2.4-1.5-3.2c-0.4-0.4-0.7-0.6-1-0.8
					c1.1-0.9,1.5-1.1,1.9-1.2c0.7-0.3,1.3-0.4,1.8-0.4c0.3,0,0.6,0,0.8,0.1h0.2l0,0l0,0c0.2,0.1,0.4,0,0.5-0.3
					c0.1-0.2,0-0.4-0.3-0.5c0,0-0.5-0.2-1.3-0.2c-1.1,0-2.9,0.4-4.7,2.2l0,0c-0.4,0.4-0.8,1-1.8,2.4c0.3-2.5,0.5-4.8,0.6-7l0,0
					c0,0,3.4-4.9,7.4-2.5s2.7,11.1,0,15.5c-2.7,4.3-7.1,6.5-9.5,3.3c0.6-2.6,1-5.3,1.3-7.8c0.2,0,0.3-0.1,0.4-0.2V231
					c0.5-1.1,1.1-2,1.9-2.9c0.3,0.2,0.8,0.6,1.3,1.1c0.6,0.6,1,1.4,1,2.3c0,0.7-0.3,1.5-1,2.4C374.7,234.3,374.7,234.6,374.9,234.7z
					"/>
				<path class="st5" d="M371.8,219.4c-0.1-0.1-0.1-0.2-0.2-0.3l0.3-0.2C372,219,372,219.3,371.8,219.4L371.8,219.4z"/>
				<path class="st5" d="M371.8,219.4l-5.2,4.1v-0.1c0-0.2,0.1-0.3,0.1-0.5l4.8-3.8C371.7,219.2,371.7,219.3,371.8,219.4z"/>
				<path class="st5" d="M371.4,218.8c0.2-0.1,0.4-0.1,0.5,0.1l-0.3,0.2C371.5,219,371.5,218.9,371.4,218.8z"/>
				<path class="st5" d="M371.6,219.1l-4.8,3.8l0.1-0.6l4.5-3.5c0,0,0,0,0.1,0C371.5,218.9,371.5,219,371.6,219.1z"/>
				<path class="st4" d="M373.4,228.2c0,0,0.1,0.1,0.2,0.1c-0.8,0.9-1.3,1.8-1.9,2.9v0.1c-0.1,0.1-0.2,0.2-0.4,0.2
					c0-0.2,0-0.3,0.1-0.5c0-0.4,0.1-0.7,0.1-1.1c0.9-1.4,1.3-1.9,1.8-2.4l0,0l-0.1,0.1C373,227.8,373.1,228.1,373.4,228.2
					L373.4,228.2z"/>
				<path class="st4" d="M371.3,231c0,0.2,0,0.3-0.1,0.5c-0.1,0-0.1,0-0.2,0c-0.2-0.1-0.3-0.4-0.2-0.5v-0.1c0.2-0.3,0.3-0.6,0.5-0.9
					C371.4,230.3,371.3,230.6,371.3,231z"/>
				<path class="st5" d="M366.9,222.3l-0.1,0.6l-0.5,0.4l0,0c0.1-0.2,0.1-0.4,0.1-0.6L366.9,222.3z"/>
				<path class="st5" d="M366.5,223.6c-0.1,0.1-0.2,0.1-0.4,0.1c0-0.1,0.1-0.2,0.1-0.4l0,0l0.5-0.4c0,0.2-0.1,0.3-0.1,0.5
					C366.6,223.4,366.6,223.5,366.5,223.6L366.5,223.6z"/>
				<path class="st5" d="M366.3,223.3c0,0.1-0.1,0.2-0.1,0.4c-0.1,0-0.1-0.1-0.2-0.1c-0.1-0.1-0.1-0.3,0-0.4l0.1-0.1l0.4-0.3
					C366.4,222.9,366.3,223.1,366.3,223.3z"/>
				<path class="st6" d="M367.1,219.9c0-6.1-4.2-11.2-9.8-12.6h7.6l0.6-0.3c2.3,5.1,4.7,9.5,5.9,11.7c0,0,0,0-0.1,0l-4.5,3.5
					C367.1,220.8,367.1,220.3,367.1,219.9z"/>
				<path class="st6" d="M385.9,298.5h-90.8v-0.1c17.5-3.3,22.7-12.5,22.7-12.5v-24.5h0.5c0,0,6.5,12.9,17,18.9
					c7.6,4.4,17.5,2.7,22.7-4.4c1.7-2.3,3-5.2,3.8-9v19c1.5,7,20,11.6,24.1,12.5C385.9,298.4,385.9,298.4,385.9,298.5z"/>
				<path class="st5" d="M357.3,207.3c5.6,1.4,9.8,6.5,9.8,12.6c0,0.5,0,0.9-0.3,2.5l-0.4,0.4c0.2-0.9,0.3-1.8,0.3-2.8
					c0-7-5.6-12.6-12.6-12.6L357.3,207.3L357.3,207.3z"/>
				<path class="st4" d="M357.3,207.3c-1-0.3-2-0.4-3.1-0.4s-2.1,0.1-3.1,0.4h-3.4c0,0-1.6-5-1.8-5.4l8.5,0.7
					c1.7,0.1,3.3,0.6,4.8,1.3l5.9,3.3L357.3,207.3L357.3,207.3z"/>
				<circle class="st4" cx="354.2" cy="219.1" r="3"/>
				<path class="st5" d="M354.2,206.9c1.1,0,2.1,0.1,3.1,0.4h-3.1l0,0V206.9z"/>
				<path class="st5" d="M365.9,223.1c0.3-1,0.4-2.1,0.4-3.2c0-3.4-1.4-6.4-3.6-8.6c-2.2-2.2-5.3-3.6-8.6-3.6v-0.4l0,0
					c6.9,0,12.6,5.6,12.6,12.6c0,1-0.1,1.9-0.3,2.8L366,223C366,223,366,223.1,365.9,223.1L365.9,223.1z"/>
				<path class="st5" d="M354.2,207.3h-3.1c1-0.3,2-0.4,3.1-0.4V207.3z"/>
				<path class="st6" d="M351.2,219.1c0,1.7,1.3,3,3,3s3-1.3,3-3s-1.3-3-3-3S351.2,217.4,351.2,219.1z M356.3,227.3l-6.6-5
					c-0.2-0.1-0.4-0.1-0.6,0.1c-0.1,0.2-0.1,0.4,0.1,0.6l6.6,5c0.2,0.1,0.4,0.1,0.6-0.1C356.5,227.7,356.5,227.4,356.3,227.3z
					 M354.2,232.1c-3.4,0-6.4-1.4-8.6-3.6c-2.2-2.2-3.6-5.3-3.6-8.6s1.4-6.4,3.6-8.6c2.2-2.2,5.3-3.6,8.6-3.6c3.4,0,6.4,1.4,8.6,3.6
					c2.2,2.2,3.6,5.3,3.6,8.6c0,1.1-0.2,2.2-0.4,3.2c0,0,0,0,0,0.1c-0.7,2.6-2.3,4.8-4.3,6.4C359.5,231.1,357,232.1,354.2,232.1z"/>
				<path class="st4" d="M349.7,222.3l6.6,5c0.2,0.1,0.2,0.4,0.1,0.6c-0.1,0.2-0.4,0.2-0.6,0.1l-6.6-5c-0.2-0.1-0.2-0.4-0.1-0.6
					S349.5,222.2,349.7,222.3z"/>
				<path class="st5" d="M341.6,219.4c0.3-6.7,5.8-12.1,12.6-12.1v0.4c-3.4,0-6.4,1.4-8.6,3.6c-2.2,2.2-3.6,5.3-3.6,8.6l0,0
					c0-0.1,0-0.2-0.1-0.3C341.8,219.5,341.7,219.4,341.6,219.4z"/>
				<path class="st5" d="M366,223.5c0,0.1,0.1,0.1,0.2,0.1c-1.6,5.1-6.4,8.8-12,8.8c-6.8,0-12.4-5.4-12.6-12.2c0.1,0,0.2,0,0.3-0.1
					c0.1-0.1,0.1-0.2,0.1-0.3l0,0c0,3.4,1.4,6.4,3.6,8.6c2.2,2.2,5.3,3.6,8.6,3.6c2.8,0,5.4-1,7.4-2.5c2.1-1.6,3.6-3.8,4.3-6.4
					c0,0,0,0,0-0.1l0,0C365.9,223.2,365.9,223.4,366,223.5z"/>
				<path class="st5" d="M341.6,219.9c0-0.2,0-0.3,0-0.5c0.1,0.1,0.2,0.2,0.3,0.2c0.1,0.1,0.1,0.2,0.1,0.3s0,0.2-0.1,0.3
					s-0.2,0.1-0.3,0.1C341.6,220.1,341.6,220,341.6,219.9z"/>
				<path class="st5" d="M354.2,207.3c-6.8,0-12.3,5.4-12.6,12.1c-0.1-0.1-0.2-0.2-0.4-0.3c0.4-5.7,4.4-10.4,9.8-11.8H354.2z"/>
				<path class="st5" d="M366.2,223.6c0.1,0,0.3,0,0.4-0.1l0.1-0.1c-1.6,5.4-6.6,9.3-12.4,9.3c-7.1,0-12.9-5.7-13-12.8l0.1,0.1
					c0.1,0.1,0.2,0.1,0.3,0.1c0.2,6.8,5.7,12.2,12.6,12.2C359.8,232.5,364.6,228.7,366.2,223.6z"/>
				<path class="st5" d="M341.6,219.4c0,0.2,0,0.3,0,0.5c-0.1-0.1-0.2-0.2-0.4-0.3c0-0.2,0-0.3,0-0.5
					C341.4,219.2,341.5,219.3,341.6,219.4z"/>
				<path class="st5" d="M341.6,219.9c0,0.1,0,0.3,0,0.4c-0.1,0-0.2,0-0.3-0.1l-0.1-0.1c0-0.1,0-0.1,0-0.2c0-0.1,0-0.2,0-0.3
					C341.3,219.7,341.5,219.8,341.6,219.9z"/>
				<path class="st5" d="M338.7,235.2L338.7,235.2l-0.7,0.3L338.7,235.2z"/>
				<path class="st4" d="M337,221.8c0-0.4,0.3-0.8,0.8-0.8c0.4,0,0.8,0.3,0.8,0.8v12.6c0,0.3,0.1,0.5,0.2,0.8l-0.7,0.3l0.7-0.3
					c0.3,0.7,1.1,1.2,2,1.2c0.2,0,0.4,0,0.6-0.1l3-0.8c0.4-0.1,0.8,0.1,0.9,0.5s-0.1,0.8-0.5,0.9l-3,0.8c-0.3,0.1-0.7,0.1-1,0.1
					c-1.4,0-2.8-0.8-3.4-2.2l0,0c-0.1-0.4-0.3-0.9-0.3-1.4v-12.4H337z"/>
				<path class="st5" d="M338.9,218.3c0.7,0,1.6,0.2,2.4,0.8c0,0.2,0,0.3,0,0.5c-2.1-1.7-4.2-0.6-5,0.1c0-0.2,0-0.3,0-0.5
					C336.8,218.7,337.7,218.3,338.9,218.3z"/>
				<path class="st5" d="M336.2,219.6c0.8-0.6,2.9-1.8,5-0.1c0,0.1,0,0.2,0,0.3s0,0.1,0,0.2c-0.8-0.8-1.6-1-2.3-1
					c-1.2,0-2.3,0.8-2.6,1c0-0.1,0-0.1,0-0.2C336.2,219.8,336.2,219.7,336.2,219.6z"/>
				<path class="st5" d="M336.2,219.6c0,0.1,0,0.2,0,0.3h-0.4C335.8,219.9,336,219.8,336.2,219.6z"/>
				<path class="st5" d="M335.8,219.4c0.1-0.1,0.2-0.2,0.4-0.3c0,0.2,0,0.3,0,0.5c-0.2,0.2-0.4,0.3-0.4,0.3
					C335.8,219.7,335.8,219.6,335.8,219.4z"/>
				<path class="st5" d="M335.8,219.9h0.4c0,0.1,0,0.1,0,0.2c0,0-0.1,0-0.1,0.1H336c-0.1,0.1-0.2,0.1-0.3,0.1
					C335.8,220.1,335.8,220,335.8,219.9z"/>
				<path class="st5" d="M335.8,219.9h-0.4c0-0.1,0-0.2,0.1-0.3c0,0,0.1-0.1,0.2-0.2C335.8,219.6,335.8,219.7,335.8,219.9z"/>
				<path class="st5" d="M335.8,220.3c-0.1,0-0.2-0.1-0.3-0.1c-0.1-0.1-0.1-0.2-0.1-0.3h0.4C335.8,220,335.8,220.1,335.8,220.3z"/>
				<path class="st4" d="M324,226.7l7.5-4.9c0.2-0.1,0.4-0.1,0.6,0.1s0.1,0.4-0.1,0.6l-7.5,4.9c-0.2,0.1-0.4,0.1-0.6-0.1
					C323.7,227,323.8,226.8,324,226.7z"/>
				<path class="st4" d="M340.9,247.5c-6.3,0-11.3-3.5-11.3-3.6c-0.3-0.2-0.4-0.7-0.2-1.1c0.2-0.4,0.7-0.4,1.1-0.2l0,0l0.2,0.1
					c0.1,0.1,0.4,0.2,0.6,0.4c0.5,0.3,1.3,0.7,2.3,1.1c1.9,0.8,4.5,1.7,7.4,1.7c5.3,0,9.2-2.9,9.6-3.2l0,0c0.3-0.3,0.8-0.2,1.1,0.1
					c0.3,0.3,0.2,0.8-0.1,1.1C351.4,243.9,347.2,247.4,340.9,247.5z"/>
				<path class="st5" d="M335.8,219.4c-0.3-6.7-5.8-12.1-12.6-12.1h3.1c5.4,1.3,9.5,6.1,9.8,11.8C336,219.2,335.9,219.3,335.8,219.4
					z"/>
				<path class="st6" d="M335.5,219.9c0,3.4-1.4,6.4-3.6,8.6c-2.2,2.2-5.3,3.6-8.6,3.6c-5.6,0-10.3-3.7-11.7-8.8c0,0,0-0.1,0-0.2
					c-0.3-1.1-0.4-2.1-0.4-3.2c0-3.4,1.4-6.4,3.6-8.6s5.3-3.6,8.6-3.6s6.4,1.4,8.6,3.6C334.1,213.5,335.5,216.5,335.5,219.9z
					 M326.2,222.1c1.7,0,3-1.3,3-3s-1.3-3-3-3s-3,1.3-3,3S324.6,222.1,326.2,222.1z M331.4,221.8l-7.5,4.9c-0.2,0.1-0.2,0.4-0.1,0.6
					c0.1,0.2,0.4,0.2,0.6,0.1l7.5-4.9c0.2-0.1,0.2-0.4,0.1-0.6S331.6,221.6,331.4,221.8z"/>
				<circle class="st4" cx="326.2" cy="219.1" r="3"/>
				<path class="st5" d="M320.1,207.3c1-0.3,2-0.4,3.1-0.4s2.1,0.1,3.1,0.4h-3.1l0,0H320.1z"/>
				<path class="st4" d="M323.3,206.9c-1.1,0-2.1,0.1-3.1,0.4h-4.4l5.9-3.3c1.5-0.7,3.1-1.2,4.8-1.3l8.5-0.7
					c-0.3,0.4-1.8,5.4-1.8,5.4h-6.7C325.4,207,324.3,206.9,323.3,206.9z"/>
				<path class="st4" d="M335.3,280.2c-10.5-6-17-18.9-17-18.9s1.4,1.3,3.8,3h0.1c4.4,4,10.1,6.5,17.4,6.6c0.2,0,0.3,0,0.5,0
					c0.5,0,1.1,0,1.6,0c1.6-0.1,3.1-0.3,4.5-0.6l0,0c4.7-1,8.6-3.2,11.7-6.2c3-2.5,4.7-4.8,4.7-4.8c0,2.8-0.3,5.2-0.7,7.4
					c-0.8,3.8-2.2,6.8-3.8,9C352.8,282.9,342.9,284.6,335.3,280.2z"/>
				<path class="st5" d="M323.3,232.5c-5.6,0-10.4-3.7-12-8.8c0.1,0,0.1,0,0.2-0.1s0.1-0.2,0.1-0.3c1.5,5.1,6.2,8.8,11.7,8.8
					c3.4,0,6.4-1.4,8.6-3.6c2.2-2.2,3.6-5.3,3.6-8.6c0,0.1,0,0.2,0.1,0.3s0.2,0.1,0.3,0.1C335.6,227,330.1,232.5,323.3,232.5z"/>
				<path class="st5" d="M311.1,223.3c-0.1-0.2-0.1-0.4-0.1-0.6l0.4,0.3l0,0l0,0l0.1,0.1c0,0.1,0,0.1,0,0.2c0,0.1,0,0.2-0.1,0.3
					c0,0.1-0.1,0.1-0.2,0.1C311.2,223.5,311.2,223.4,311.1,223.3z"/>
				<path class="st5" d="M310.9,223.5L310.9,223.5L310.9,223.5c-0.1-0.1-0.1-0.1-0.1-0.2c0-0.2-0.1-0.3-0.1-0.5l0.5,0.4
					c0,0.1,0.1,0.3,0.1,0.4C311.1,223.7,311,223.7,310.9,223.5z"/>
				<path class="st5" d="M311,219.9c0,1.1,0.1,2.2,0.4,3.2c0,0,0-0.1-0.1-0.1l0,0l0,0l-0.4-0.3c-0.2-0.9-0.3-1.8-0.3-2.8
					c0-7,5.6-12.6,12.6-12.6l0,0c6.8,0,12.3,5.4,12.6,12.1c-0.2,0.1-0.2,0.2-0.2,0.2c-0.1,0.1-0.1,0.2-0.1,0.3
					c0-3.4-1.4-6.4-3.6-8.6c-2.2-2.2-5.3-3.6-8.6-3.6s-6.4,1.4-8.6,3.6S311,216.5,311,219.9z"/>
				<path class="st5" d="M315.3,230.2c-2.1-1.6-3.7-3.8-4.5-6.7l0.1,0.1l0,0c0.1,0.1,0.2,0.1,0.4,0.1c1.6,5.1,6.3,8.8,12,8.8
					c6.8,0,12.4-5.4,12.6-12.2c0.1,0,0.2,0,0.3-0.1h0.1c0,0,0,0,0.1-0.1c-0.1,7.1-5.9,12.8-13,12.8
					C320.3,232.8,317.5,231.8,315.3,230.2z"/>
				<path class="st5" d="M310.5,222.3l0.5,0.4c0,0.2,0.1,0.4,0.1,0.6l-0.5-0.4C310.6,222.7,310.6,222.5,310.5,222.3z"/>
				<path class="st5" d="M310.3,219.9c0-6.1,4.2-11.2,9.9-12.6h3.1c-7,0-12.6,5.6-12.6,12.6c0,1,0.1,1.9,0.3,2.8l-0.5-0.4
					C310.4,221.5,310.3,220.7,310.3,219.9z"/>
				<path class="st6" d="M310.5,222.3l-3-2.3h-0.1c1.7-3.6,4.6-11.1,3.7-16.8c25-2.8,47.5-16.6,47.6-16.7c0.8,6.3,3.8,14.1,6.7,20.6
					l-0.6,0.3L359,204c-1.5-0.7-3.1-1.2-4.8-1.3l-8.5-0.7c0.3,0.4,1.8,5.4,1.8,5.4h3.4c-5.4,1.3-9.5,6.1-9.8,11.8
					c-0.8-0.6-1.6-0.8-2.4-0.8c-1.1,0-2.1,0.5-2.7,0.9c-0.3-5.8-4.4-10.5-9.8-11.8h6.7c0,0,1.6-5,1.8-5.4l-8.5,0.7
					c-1.7,0.1-3.3,0.6-4.8,1.3l-5.9,3.3h4.4c-5.7,1.4-9.9,6.5-9.9,12.6C310.3,220.7,310.4,221.5,310.5,222.3z"/>
				<path class="st5" d="M307.6,220l3,2.3c0,0.2,0.1,0.4,0.1,0.6l-3.3-2.6l0,0C307.4,220.2,307.4,220.1,307.6,220
					C307.5,219.9,307.5,220,307.6,220z"/>
				<path class="st4" d="M308,230.9c0.1,0.2,0,0.4-0.2,0.5c-0.1-0.4-0.1-0.9-0.2-1.3C307.8,230.4,307.9,230.6,308,230.9z"/>
				<path class="st5" d="M310.8,223.5l-3.7-2.9c0.1-0.1,0.1-0.2,0.2-0.3l3.3,2.6c0,0.2,0.1,0.3,0.1,0.5
					C310.8,223.4,310.8,223.4,310.8,223.5z"/>
				<path class="st5" d="M307.5,219.9c-0.1,0.1-0.1,0.2-0.2,0.3L307,220C307.1,219.9,307.3,219.9,307.5,219.9z"/>
				<path class="st5" d="M307.1,220.6c-0.2-0.1-0.2-0.4-0.1-0.5l0.3,0.2l0,0C307.3,220.4,307.2,220.5,307.1,220.6L307.1,220.6z"/>
				<path class="st6" d="M338.5,221.8c0-0.4-0.3-0.8-0.8-0.8c-0.4,0-0.8,0.3-0.8,0.8v12.6c0,0.5,0.1,1,0.3,1.4l0,0
					c0.6,1.4,2,2.2,3.4,2.2c0.3,0,0.7,0,1-0.1l3-0.8c0.4-0.1,0.6-0.5,0.5-0.9s-0.5-0.6-0.9-0.5l-3,0.8c-0.2,0.1-0.4,0.1-0.6,0.1
					c-0.9,0-1.6-0.5-2-1.2l0,0c-0.1-0.3-0.2-0.6-0.2-0.8v-12.8H338.5z M306.9,223c0-0.5-0.1-1.1-0.1-1.6c0.1-0.2,0.2-0.5,0.4-0.8
					l3.7,2.9c0.9,2.8,2.5,5.1,4.5,6.7c2.2,1.7,4.9,2.7,7.9,2.7c7.1,0,12.9-5.7,13-12.8c0.4-0.3,1.4-1,2.6-1c0.7,0,1.5,0.2,2.3,1
					c0.1,7.1,5.9,12.8,13,12.8c5.9,0,10.9-3.9,12.4-9.3l5.2-4.1c0.1,0.3,0.3,0.5,0.4,0.6c0,0.9-0.1,1.9-0.1,2.9
					c-0.1,2.1-0.3,4.5-0.6,7c-0.2,0.3-0.3,0.6-0.5,0.9v0.1c-0.1,0.2,0,0.4,0.2,0.5c0.1,0,0.1,0,0.2,0c-0.3,2.5-0.7,5.1-1.3,7.8
					c-1.9,9.2-5.5,18.7-12.1,24.9c-2.8,2.4-6.9,5-11.7,6.2l0,0c-1.9,0.4-3.9,0.6-6.1,0.6c-0.2,0-0.3,0-0.5,0
					c-7.1-0.4-13.5-3.9-17.4-6.6h-0.1c-6.9-6.2-10.7-15.9-12.8-25.3c-0.6-2.6-1.1-5.2-1.4-7.7c0.2-0.1,0.3-0.3,0.2-0.5
					c-0.1-0.3-0.3-0.5-0.4-0.7C307.3,227.6,307,225.2,306.9,223z M351.5,243.9c0.3-0.3,0.4-0.8,0.1-1.1s-0.8-0.4-1.1-0.1l0,0
					c-0.4,0.3-4.3,3.3-9.6,3.2c-2.8,0-5.5-0.8-7.4-1.7c-1-0.4-1.7-0.8-2.3-1.1c-0.3-0.2-0.5-0.3-0.6-0.4l-0.2-0.1l0,0
					c-0.4-0.3-0.8-0.2-1.1,0.2c-0.3,0.4-0.2,0.8,0.2,1.1c0.1,0,5.1,3.6,11.3,3.6C347.2,247.4,351.4,243.9,351.5,243.9z"/>
				<path class="st4" d="M306.7,219.8c-0.2-5.2-0.1-8.6-0.1-8.6s-1.8-35.6,34.5-35.6c33.7,0,30.9,35.6,30.9,35.6s0.2,2.9,0.1,7.5
					l-0.3,0.2c-0.1-0.1-0.3-0.2-0.5-0.1c-1.2-2.3-3.6-6.6-5.9-11.7c-2.9-6.5-5.9-14.3-6.7-20.6c-0.1,0.1-22.6,13.9-47.6,16.7
					c0.9,5.7-2.1,13.1-3.7,16.8c-0.2-0.1-0.3,0-0.4,0.1L306.7,219.8L306.7,219.8z"/>
				<path class="st5" d="M306.8,221.4c0-0.5-0.1-1.1-0.1-1.6l0.3,0.3c-0.1,0.2-0.1,0.4,0.1,0.5h0.1
					C307,220.9,306.9,221.2,306.8,221.4z"/>
				<path class="st4" d="M306.6,211.1c0,0-0.2,3.4,0.1,8.6l0,0c0,0.5,0,1,0.1,1.6c-0.2,0.5-0.4,0.7-0.4,0.7
					c-6.7-23.8-11.2-53.8,32.9-53.8c46.6,0,39.7,30,33,52.1c0,0-0.1-0.1-0.2-0.4c0-0.5,0-1,0-1.4c0.1-4.6-0.1-7.5-0.1-7.5
					s2.8-35.6-30.9-35.6C304.9,175.6,306.6,211.1,306.6,211.1z"/>
				<path class="st4" d="M305.8,227.6c0.6,0.7,1.3,1.5,1.8,2.6c0.1,0.4,0.1,0.8,0.2,1.3c-0.2,0.1-0.4,0-0.5-0.2
					c-0.5-1.1-1.1-2-1.9-2.9l0.2-0.1l0.1-0.1C305.8,228.1,305.9,227.8,305.8,227.6z"/>
				<path class="st4" d="M305.8,227.6c0.1,0.2,0,0.4-0.2,0.5l-0.1,0.1l-0.2,0.1c-0.1-0.1-0.1-0.2-0.2-0.2c-0.1-0.1-0.3-0.2-0.4-0.4
					c0.3-0.2,0.4-0.3,0.5-0.3c0.1-0.1,0.3-0.1,0.4,0C305.7,227.5,305.8,227.5,305.8,227.6z"/>
				<path class="st4" d="M302.3,231.7c0-1.4,0.8-2.4,1.5-3.2c0.4-0.4,0.7-0.6,1-0.8c0.1,0.1,0.2,0.2,0.4,0.4
					c0.1,0.1,0.1,0.1,0.2,0.2l-0.1,0.1c-0.3,0.2-0.6,0.4-0.9,0.7c-0.7,0.6-1.3,1.5-1.3,2.6c0,0.7,0.3,1.5,1,2.4
					c0.1,0.2,0.1,0.4-0.1,0.6c-0.2,0.1-0.4,0.1-0.6-0.1C302.6,233.6,302.3,232.6,302.3,231.7z"/>
				<path class="st4" d="M299.5,226c-0.1-0.2,0-0.4,0.3-0.5c0,0,0.5-0.2,1.3-0.2c0,0,0,0,0.1,0c1.1,0,2.8,0.4,4.5,2.1
					c-0.1-0.1-0.3-0.1-0.4,0c0,0-0.2,0.1-0.5,0.3c-1.5-1.3-2.8-1.6-3.8-1.6c-0.6,0-1,0.1-1,0.1l0,0
					C299.8,226.4,299.6,226.2,299.5,226z"/>
				<path class="st6" d="M299.5,236c-2.7-4.4-4-13.2,0-15.5c4-2.4,7.4,2.5,7.4,2.5l0,0c0.2,2.2,0.4,4.6,0.7,7.2
					c-0.6-1.1-1.2-1.9-1.8-2.6c0-0.1-0.1-0.1-0.2-0.2c-1.7-1.7-3.4-2.1-4.5-2.1c0,0,0,0-0.1,0c-0.8,0-1.2,0.2-1.3,0.2
					c-0.2,0.1-0.3,0.3-0.3,0.5c0.1,0.2,0.3,0.3,0.5,0.3l0,0c0.1,0,0.4-0.1,1-0.1c0.9,0,2.3,0.3,3.8,1.6c-0.3,0.2-0.6,0.5-1,0.8
					c-0.7,0.7-1.5,1.8-1.5,3.2c0,0.9,0.4,1.9,1.2,2.9c0.1,0.2,0.4,0.2,0.6,0.1c0.2-0.1,0.2-0.4,0.1-0.6c-0.8-0.9-1-1.7-1-2.4
					c0-1.1,0.6-1.9,1.3-2.6c0.3-0.3,0.7-0.6,0.9-0.7l0.1-0.1c0.8,0.9,1.4,1.8,1.9,2.9c0.1,0.2,0.3,0.3,0.5,0.2
					c0.4,2.5,0.8,5.1,1.4,7.7H309C306.6,242.5,302.2,240.3,299.5,236z"/>
				<path class="st4" d="M295.1,298.3v0.1h-0.8C294.6,298.4,294.8,298.4,295.1,298.3z"/>
				<path class="st4" d="M278.1,310.9c0.2-0.2,0.2-0.4,0.2-0.6h0.4C278.5,310.5,278.3,310.7,278.1,310.9z"/>
				<path class="st4" d="M295.1,298.5c0,0.3-0.2,0.6-0.4,0.7c0,0-0.1,0.1-0.4,0.2c-0.2,0.1-0.6,0.3-1,0.6c-0.9,0.5-2.2,1.2-3.7,2.2
					c-2.9,1.9-6.8,4.6-10.8,8.1h-0.4c0-0.2-0.1-0.4-0.2-0.5c-0.3-0.3-0.8-0.4-1.1-0.1l0,0c8.7-7.8,16.9-12,16.9-12
					c0.4-0.2,0.9,0,1.1,0.4c0,0.1,0.1,0.1,0.1,0.2c-0.3,0-0.5,0.1-0.8,0.1L295.1,298.5L295.1,298.5z"/>
				<path class="st4" d="M278.3,310.3c0,0.2-0.1,0.4-0.2,0.6l0,0c-0.3,0.3-0.8,0.3-1.1,0l0.5-0.5l0,0h0.8V310.3z"/>
				<path class="st4" d="M277,310.9c0.3,0.3,0.8,0.3,1.1,0c0,0,0,0,0,0.1c-2.3,2.1-4.7,4.4-7.3,7.5h-1L277,310.9z"/>
				<path class="st4" d="M278.1,309.8c0.1,0.1,0.2,0.3,0.2,0.5h-0.8l0,0l-0.5,0.5c0,0,0,0-0.1,0c-0.3-0.3-0.3-0.8,0-1.1l0,0
					C277.3,309.5,277.8,309.5,278.1,309.8z"/>
				<path class="st4" d="M260.8,336c-0.1,0.4-0.6,0.7-1,0.5c0.1-0.3,0.1-0.5,0.2-0.7l0,0l3-6.4h0.5
					C262.4,331.5,261.5,333.7,260.8,336z"/>
				<path class="st4" d="M260.3,337.5h-0.8c0.1-0.3,0.1-0.5,0.2-0.8C260.1,336.9,260.3,337.2,260.3,337.5z"/>
				<path class="st7" d="M259.8,336.6c0.4,0.1,0.9-0.1,1-0.5c0.7-2.3,1.6-4.5,2.7-6.6h155.4c1.3,2.6,2.4,5.3,3.1,8.1H260.3
					c0-0.4-0.2-0.7-0.6-0.8C259.7,336.7,259.7,336.6,259.8,336.6z"/>
				<path class="st4" d="M260,335.8c-0.1,0.3-0.2,0.5-0.2,0.7l0,0h-0.1L260,335.8z"/>
				<path class="st4" d="M259.2,335.6c1.1-3.3,2.5-6.5,4.2-9.4s3.6-5.6,5.7-8.2c2.5-3.1,5.2-5.8,7.9-8.2c-0.3,0.3-0.3,0.8,0,1.1
					c0,0,0,0,0.1,0l-7.3,7.6h1c-0.1,0.2-0.3,0.3-0.4,0.5c-2.6,3.1-4.9,6.6-6.8,10.4H263l-3,6.4l0,0l-0.3,0.7
					C259.3,336.4,259.1,335.9,259.2,335.6z"/>
				<path d="M259.8,336.6c0,0.1,0,0.1-0.1,0.2l0,0c0,0-0.1,0-0.2,0l0.1-0.2C259.7,336.5,259.7,336.5,259.8,336.6L259.8,336.6z"/>
				<path class="st4" d="M259.2,337.5l0.4-0.8c0.1,0,0.1,0,0.2,0l0,0c-0.1,0.3-0.2,0.5-0.2,0.8H259.2z"/>
				<path class="st4" d="M258.9,347.3c0,0.3,0,0.5,0,0.8h-0.8v-0.8H258.9z"/>
				<path class="st4" d="M424.2,348.1v-0.8h-0.8c-0.1-3.9-0.6-6.8-1.4-9.6c0-0.1,0-0.1-0.1-0.2h0.8l-3.9-8.1h-0.1
					c-1.9-3.8-4.3-7.3-6.9-10.4c-0.1-0.2-0.3-0.3-0.4-0.5h1l-7.3-7.6c0,0,0,0,0.1,0c0.3-0.3,0.3-0.8,0-1.1c2.7,2.4,5.4,5.1,7.9,8.2
					c2.2,2.7,4.3,5.7,6.1,8.9c1.8,3.2,3.3,6.7,4.2,10.4c0.9,3.4,1.4,7,1.4,10.8c0,0.2-0.1,0.4-0.2,0.6s-0.4,0.2-0.6,0.2H258.1
					c-0.2,0-0.4-0.1-0.6-0.2s-0.2-0.4-0.2-0.6c0-3.8,0.5-7.4,1.4-10.8c0.1-0.4,0.5-0.6,0.8-0.6l-0.4,0.8h0.3h0.8c0,0.1,0,0.1,0,0.2
					c-0.8,3-1.3,6.2-1.4,9.6H258v0.8h0.8c0-0.3,0-0.5,0-0.8h164.5c0,0.3,0,0.5,0,0.8L424.2,348.1L424.2,348.1z"/>
			</g>
		</g>
	</g>
	<g>
		<g id="XMLID_7_">
			<g>
				<path class="st5" d="M274.2,222.3c0,27.6-18.4,59.5-35.8,59.5c-4.5,0-8.7-1.5-12.5-4.1c-0.9-3.5-2.7-6.5-5.1-8.5
					c4.7-5.2,7.7-12.7,7.7-21.1c0-11.5-5.6-21.4-13.6-25.8c5.7-9,14.6-16.9,27.8-20.1c8.9-2.2,10.5-8.5,7.2-14
					C263,191.5,274.2,201.3,274.2,222.3z"/>
				<path class="st5" d="M249.9,188c3.3,5.5,1.7,11.8-7.2,14c-13.2,3.3-22.1,11.2-27.8,20.1c-2.2-1.2-4.6-2-7.1-2.3
					c3.3-20.6,15-33.4,29.7-33.4C241.6,186.5,245.8,186.9,249.9,188z"/>
				<path class="st5" d="M249.9,188c-4.1-1.1-8.3-1.6-12.5-1.6c-14.7,0-26.4,12.7-29.7,33.4c-0.7-0.1-1.5-0.1-2.2-0.1
					c-6.3,0-12,3.1-16.1,8.2c-1.5-12.8,0.9-26.8,10.6-36C222.8,170.6,244,178.2,249.9,188z"/>
				<path class="st5" d="M225.8,277.6c0.4,1.5,0.6,3,0.6,4.6c0,8.8-5.8,16-12.9,16c-4.8,0-9.1-3.3-11.3-8.2
					c6.1-1.2,10.7-7.6,10.8-15.4c2.1-0.9,4.1-2.1,5.8-3.7C220.9,273.6,223.3,275.9,225.8,277.6z"/>
				<path class="st5" d="M220.7,269.1c2.4,2,4.2,5,5.1,8.5c-2.5-1.7-4.9-4-7-6.6C219.5,270.4,220.1,269.7,220.7,269.1z"/>
				<path class="st5" d="M214.9,222.2c8,4.4,13.6,14.3,13.6,25.8c0,8.4-3,15.9-7.7,21.1c-1.5-1.3-3.2-2.1-5-2.6
					c-4.4-7.1-7.4-16.3-8.5-26.5C208.7,234.3,211.1,228,214.9,222.2z"/>
				<path class="st5" d="M220.7,269.1c-0.6,0.7-1.3,1.3-1.9,1.9c-1.1-1.4-2.1-2.9-3.1-4.4C217.6,266.9,219.3,267.8,220.7,269.1z"/>
				<path class="st5" d="M218.8,271c-1.8,1.6-3.7,2.8-5.8,3.7c0-0.1,0-0.3,0-0.4c0-2.8-0.6-5.5-1.7-7.8c0.7-0.1,1.4-0.2,2.1-0.2
					c0.8,0,1.6,0.1,2.3,0.3C216.7,268.1,217.7,269.6,218.8,271z"/>
				<path class="st5" d="M213,274.3c0,0.1,0,0.3,0,0.4c-2.3,1-4.8,1.5-7.5,1.5c-1.3,0-2.7-0.1-3.9-0.4c1.7-4.8,5.4-8.4,9.7-9.3
					C212.4,268.8,213,271.4,213,274.3z"/>
				<path class="st5" d="M203.9,259c3.2,1.2,5.8,3.9,7.4,7.4c-4.4,0.9-8,4.4-9.7,9.3c-5.1-1.1-9.7-4.3-13-8.9
					c2.2-5.1,6.5-8.6,11.5-8.6C201.4,258.3,202.7,258.6,203.9,259z"/>
				<path class="st5" d="M213,274.7c-0.2,7.8-4.8,14.2-10.8,15.4c-1.1-2.3-1.7-5-1.7-7.8c0-2.3,0.4-4.5,1.1-6.5
					c1.3,0.3,2.6,0.4,3.9,0.4C208.1,276.2,210.7,275.7,213,274.7z"/>
				<path class="st5" d="M207.8,219.8c2.5,0.3,4.9,1.1,7.1,2.3c-3.8,5.8-6.2,12.1-7.6,17.8c-0.3-2.7-0.4-5.4-0.4-8.2
					C206.9,227.6,207.2,223.6,207.8,219.8z"/>
				<path class="st5" d="M207.3,240c-2.3,9.2-2,16.8-0.4,18.8c-0.9,0-1.8-0.2-2.6-0.6c-6.5-2.9-13.1-15.9-14.8-30.4
					c4.1-5,9.8-8.2,16.1-8.2c0.7,0,1.5,0,2.2,0.1c-0.6,3.7-0.9,7.8-0.9,12C206.9,234.6,207,237.3,207.3,240z"/>
				<path class="st5" d="M204.3,258.3c0.9,0.4,1.8,0.6,2.6,0.6c-1.6-2-1.9-9.7,0.4-18.8c1.1,10.2,4.1,19.4,8.5,26.5
					c-0.8-0.2-1.5-0.3-2.3-0.3c-0.7,0-1.4,0.1-2.1,0.2c-1.6-3.5-4.3-6.2-7.4-7.4L204.3,258.3z"/>
				<path class="st5" d="M202.1,290c-0.7,0.1-1.4,0.2-2.1,0.2c-7.2,0-12.9-7.1-12.9-16c0-2.7,0.5-5.2,1.5-7.4
					c3.4,4.6,7.9,7.8,13,8.9c-0.7,2-1.1,4.2-1.1,6.5C200.5,285.1,201.1,287.7,202.1,290z"/>
				<path class="st5" d="M189.4,227.9c1.7,14.5,8.3,27.5,14.8,30.4l-0.4,0.8c-1.2-0.5-2.5-0.7-3.9-0.7c-5,0-9.3,3.5-11.5,8.6
					c-3.7-5-5.9-11.7-5.9-19C182.6,240.1,185.2,233,189.4,227.9z"/>
			</g>
		</g>
	</g>
	<g>
		<g id="XMLID_6_">
			<g>
				<path class="st4" d="M315.7,358v0.8C315.7,358.6,315.7,358.3,315.7,358L315.7,358z"/>
				<path class="st4" d="M315.7,358.8h-0.8l0,0C315.4,358.8,315.6,358.8,315.7,358.8z"/>
				<path class="st4" d="M314.9,358.8c0-0.3,0-0.5,0-0.8c0.4,0,0.7,0,0.8,0c0,0.3,0,0.5,0,0.8l0,0
					C315.6,358.8,315.4,358.8,314.9,358.8z"/>
				<path class="st4" d="M277.8,310c0.4-0.2,0.7-0.3,1.1-0.4c0.2,0,0.5,0,0.7,0c-0.1,0.4-0.5,0.7-0.9,0.6
					C278.7,310.2,278.4,310.1,277.8,310z"/>
				<path class="st4" d="M278.8,309.4c0,0-0.4-0.1-1.1-0.3c0.9-0.3,1-0.3,1.1-0.3c0.2,0,0.4,0,0.6,0c0.2,0.2,0.3,0.5,0.3,0.8l0,0
					c-0.2,0-0.5,0-0.7,0L278.8,309.4z"/>
				<path class="st4" d="M277,309.5l0.7-0.4l0,0c0.7,0.2,1.1,0.3,1.1,0.3l0.1,0.2c-0.4,0.1-0.7,0.2-1.1,0.4
					c-0.3-0.1-0.7-0.2-1.1-0.3C276.8,309.6,276.9,309.6,277,309.5z"/>
				<path class="st4" d="M237.7,320.9c-11.3,0-24.1-2.8-37.3-11.2c3.1-0.7,5.8-1.5,8.2-2.5c1.1,0.6,12.2,6.6,29,6.6
					c8.8,0,19.2-1.7,30.5-6.7c3.4,1.2,6.6,2,8.6,2.5C271.3,313,256.5,320.9,237.7,320.9z"/>
				<path class="st5" d="M273.1,240.9c-0.5-0.6-1.2-1-1.4-1.2c0.2-0.2,0.4-0.4,0.6-0.6c0.3,0.2,0.7,0.5,1.1,0.9
					c0.7,0.7,1.5,1.8,1.5,3.2c0,0.9-0.4,1.9-1.2,2.9c-0.1,0.2-0.4,0.2-0.6,0.1c-0.2-0.1-0.2-0.4-0.1-0.6c0.8-0.9,1-1.8,1-2.4
					C274.1,242.3,273.7,241.5,273.1,240.9z"/>
				<path class="st5" d="M271.5,239.7c-0.2-0.1-0.3-0.4-0.2-0.5c0.1-0.2,0.4-0.3,0.5-0.2c0,0,0.1,0.1,0.3,0.2
					c-0.2,0.2-0.4,0.4-0.6,0.6l0,0L271.5,239.7z"/>
				<path class="st8" d="M271.2,233.4l0.2,0.2L271.2,233.4z"/>
				<path class="st6" d="M271,233.3c0-0.1,0-0.2,0-0.3h-0.3l0,0v-0.1c0.2-0.2,0.5-0.5,0.8-0.8c-0.1,0.6-0.2,1.1-0.3,1.4L271,233.3
					L271,233.3z"/>
				<path class="st8" d="M271.5,234.3c-0.2,0.2-0.3,0.4-0.4,0.5c0-0.2,0-0.2,0-0.2h-0.2c0-0.1,0-0.3,0-0.4c0,0,0-0.1,0.1-0.2
					L271.5,234.3z"/>
				<path class="st6" d="M271,233.3L271,233.3L271,233.3C271.1,233.3,271,233.3,271,233.3z"/>
				<path class="st8" d="M271.1,233.4L271.1,233.4L271.1,233.4l-0.1,0.2C271,233.5,271,233.4,271.1,233.4L271.1,233.4z"/>
				<path class="st6" d="M271.2,233.4c0,0.2-0.1,0.3-0.1,0.4l0,0c0-0.1,0-0.2,0-0.3L271.2,233.4z"/>
				<path class="st8" d="M270.9,234.9c0-0.1,0-0.2,0-0.4h0.2c0,0,0,0.1,0,0.2C271,234.8,271,234.8,270.9,234.9L270.9,234.9
					L270.9,234.9z"/>
				<path class="st6" d="M271.1,233c0,0.1,0,0.2,0,0.3l-0.1-0.1l-0.3-0.3L271.1,233z"/>
				<path class="st6" d="M271,233.6c0,0.1,0,0.2,0,0.3l-0.1-0.1L271,233.6z"/>
				<path class="st6" d="M271.1,233.9c0,0.1-0.1,0.2-0.1,0.2C271,234,271,233.9,271.1,233.9L271.1,233.9z"/>
				<path class="st6" d="M271,233.2L271,233.2L271,233.2z"/>
				<path class="st6" d="M271,233.8c0,0.1,0,0.2,0,0.3l-0.1-0.4l0,0L271,233.8z"/>
				<path class="st8" d="M270.9,234.9l-0.6-0.4l0.6,0.1C271,234.6,270.9,234.8,270.9,234.9z"/>
				<path class="st8" d="M271,234.1c0,0.1,0,0.3,0,0.4l-0.6-0.1c0,0,0.2-0.3,0.6-0.7V234.1z"/>
				<polygon class="st6" points="271,233.2 270.7,233 270.7,232.9 270.7,233 				"/>
				<path class="st6" d="M271,233.3c0,0.1,0,0.2,0,0.3l-0.1,0.1l-0.2-0.8L271,233.3L271,233.3C271,233.3,271.1,233.3,271,233.3z"/>
				<path class="st6" d="M270.7,232.9v0.1V232.9z"/>
				<path class="st5" d="M270.9,233.7l-0.6-0.5l0,0v-0.1c0-0.1,0-0.1,0-0.2h0.4l0,0L270.9,233.7z"/>
				<path class="st8" d="M269.9,237.7c0.2-1.9,0.4-3.3,0.4-3.3l0.6,0.4c-0.1,1-0.2,2-0.3,3.1L269.9,237.7
					C269.9,237.8,269.9,237.8,269.9,237.7z"/>
				<path class="st5" d="M270.7,232.8v0.1V232.8C270.6,232.8,270.6,232.8,270.7,232.8z"/>
				<polygon class="st5" points="270.6,232.8 270.7,232.9 270.7,232.9 270.6,232.9 				"/>
				<path class="st8" d="M269.7,245.3c0-0.3,0.1-0.5,0.1-0.9l0,0c0.1-0.6,0.2-1.2,0.3-1.8l0,0c0-0.3,0.1-0.6,0.1-1
					c0.5-0.8,0.9-1.4,1.4-1.9l0,0c0.2,0.2,0.9,0.6,1.4,1.2c0.6,0.6,1,1.4,1,2.3c0,0.7-0.3,1.5-1,2.4c-0.1,0.2-0.1,0.4,0.1,0.6
					c0.2,0.1,0.4,0.1,0.6-0.1c0.9-1,1.2-2,1.2-2.9c0-1.4-0.8-2.5-1.5-3.2c-0.4-0.4-0.9-0.7-1.1-0.9c1.5-1.2,2.9-1.5,3.8-1.5
					c0.3,0,0.6,0,0.8,0.1h0.2h0.1l0,0c0.2,0.1,0.4,0,0.5-0.3c0.1-0.2,0-0.4-0.3-0.5c0,0-0.5-0.2-1.3-0.2c-1.4,0-3.6,0.5-5.6,3
					l0.1-0.5l0,0c0.1-0.5,0.1-1,0.2-1.4c0.1-1,0.2-1.8,0.3-2.5c0-0.3,0.1-0.6,0.1-0.8c0.1-0.1,0.2-0.3,0.4-0.5l-0.4-0.4
					c0-0.1,0.1-0.3,0.1-0.4l0,0l0.2,0.2l0.4,0.4c0.4-0.4,1-0.9,1.6-1.3c0.6-0.4,1.4-0.6,2.1-0.6c0.6,0,1.2,0.2,1.9,0.5
					c0.7,0.4,1.3,1.1,1.6,2.1c0.4,1,0.5,2.1,0.5,3.4c0,3.1-1.1,6.7-2.5,9c-0.9,1.4-1.9,2.5-3,3.3s-2.2,1.2-3.2,1.2
					c-0.9,0-1.6-0.3-2.2-1l0.4-1.7l0.4-2v-0.1l0,0C269.5,246.3,269.6,245.9,269.7,245.3L269.7,245.3L269.7,245.3z"/>
				<path class="st5" d="M270.5,239.9c2-2.5,4.3-3,5.6-3c0.8,0,1.3,0.2,1.3,0.2c0.2,0.1,0.3,0.3,0.3,0.5c-0.1,0.2-0.3,0.3-0.5,0.3
					l0,0h-0.1h-0.2c-0.2,0-0.5-0.1-0.8-0.1c-0.9,0-2.4,0.2-3.8,1.5c-0.2-0.1-0.3-0.2-0.3-0.2c-0.2-0.1-0.4,0-0.5,0.2s0,0.4,0.2,0.5
					l0.1,0.1c-0.5,0.5-1,1.1-1.4,1.9C270.4,240.6,270.4,240.5,270.5,239.9L270.5,239.9z"/>
				<path class="st6" d="M270.3,233.1v0.1l0,0C270.3,233.2,270.3,233.2,270.3,233.1z"/>
				<path class="st5" d="M270.1,233.4c-0.1-0.1-0.2-0.3-0.4-0.5h0.5c0,0.1,0,0.1,0,0.2v0.1C270.2,233.3,270.2,233.3,270.1,233.4z"/>
				<path class="st6" d="M270.3,233.2c0,0.1,0,0.2,0,0.3C270.2,233.4,270.3,233.3,270.3,233.2z"/>
				<path class="st5" d="M270.2,233.6c0,0-0.1-0.1-0.1-0.2c0,0,0.1-0.1,0.1-0.2C270.3,233.3,270.2,233.4,270.2,233.6
					C270.2,233.5,270.2,233.6,270.2,233.6z"/>
				<path class="st5" d="M269.9,237.7c0.1-1.5,0.2-2.9,0.3-4.2c0-0.1,0-0.2,0-0.3l0,0l0,0l0.6,0.5l0,0c-0.4,0.4-0.6,0.7-0.6,0.7
					S270.2,235.8,269.9,237.7z"/>
				<polygon class="st5" points="269.2,244.3 269.8,244.4 269.8,244.4 				"/>
				<path class="st8" d="M270.5,239.9c-0.3,0.4-0.7,0.9-1,1.4c0.1-0.5,0.1-1,0.2-1.5c0-0.2,0.1-0.4,0.1-0.5c0.1-0.5,0.1-1,0.2-1.4
					l0.8,0.1c0.1-1.1,0.2-2.1,0.3-3.1l0,0l0,0c0,0,0-0.1,0.1-0.1c0,0.2,0,0.4-0.1,0.8c-0.1,0.6-0.2,1.5-0.3,2.5
					c-0.1,0.5-0.1,0.9-0.2,1.4l0,0L270.5,239.9L270.5,239.9z"/>
				<path class="st6" d="M269.7,239.8c0-0.2,0-0.4,0.1-0.5C269.7,239.5,269.7,239.7,269.7,239.8z"/>
				<path class="st8" d="M269.6,242.8c-0.1,0.1-0.2,0.2-0.4,0.2c0-0.2,0.1-0.4,0.1-0.6c0.1-0.4,0.1-0.7,0.2-1.1c0.3-0.5,0.6-1,1-1.4
					c-0.1,0.6-0.1,0.7-0.2,1.7c-0.2,0.3-0.4,0.6-0.5,1v0.1L269.6,242.8z"/>
				<path class="st6" d="M269.7,239.8c0,0.5-0.1,1-0.2,1.5l0,0C269.5,240.8,269.6,240.3,269.7,239.8z"/>
				<path class="st8" d="M269.2,244.3l0.7,0.1c0,0.3-0.1,0.6-0.1,0.9l0,0l0,0c-0.1,0.5-0.2,1-0.3,1.4v-0.1c0.1-0.4,0.2-0.9,0.3-1.3
					l-0.8-0.1C269,244.9,269.1,244.6,269.2,244.3L269.2,244.3z"/>
				<path class="st5" d="M269.4,246.8L269.4,246.8L269.4,246.8C269.4,246.8,269.4,246.7,269.4,246.8L269.4,246.8L269.4,246.8z"/>
				<path class="st8" d="M269.5,234.3c0,0-0.1,1.1-0.3,2.7c0.1-1.5,0.2-2.9,0.3-4.2h0.3c0.1,0.2,0.3,0.4,0.4,0.5
					c-0.3,0.4-0.5,0.6-0.5,0.6l-0.1,0.2L269.5,234.3z"/>
				<path class="st8" d="M269.4,246.8l-0.8-0.2h0.8C269.4,246.7,269.4,246.8,269.4,246.8z"/>
				<path class="st8" d="M269.8,244.4l-0.7-0.1H269l0,0c0.1-0.3,0.1-0.6,0.1-0.9c0-0.1,0.1-0.3,0.1-0.4c0.1,0,0.3-0.1,0.4-0.2
					l0.1-0.2v-0.1c0.2-0.4,0.4-0.7,0.5-1c0,0.3-0.1,0.6-0.1,1l0,0C270,243.2,269.9,243.8,269.8,244.4z"/>
				<path class="st6" d="M269.3,242.5c0.1-0.4,0.1-0.7,0.2-1.1l0,0C269.4,241.7,269.4,242,269.3,242.5L269.3,242.5z"/>
				<path class="st6" d="M269.3,242.4c0,0.2-0.1,0.4-0.1,0.6l0,0C269.3,242.9,269.3,242.7,269.3,242.4L269.3,242.4z"/>
				<path class="st6" d="M269.2,243c0,0.1,0,0.2-0.1,0.4C269.2,243.3,269.2,243.2,269.2,243L269.2,243z"/>
				<path class="st8" d="M269.1,237.8c0-0.2,0-0.4,0.1-0.6c0-0.1,0-0.1,0-0.2c0.2-1.6,0.3-2.7,0.3-2.7v-0.2l0.1-0.2
					c0,0,0.2-0.3,0.5-0.6c0,0.1,0.1,0.2,0.1,0.2v-0.1c-0.1,1.3-0.2,2.8-0.3,4.2v0.1L269.1,237.8z"/>
				<path class="st8" d="M269,243c-0.2-0.1-0.3-0.4-0.2-0.5l0,0h0.1h0.1h0.2c0,0.2-0.1,0.4-0.1,0.6C269.2,243,269.1,243,269,243z"/>
				<path class="st5" d="M269,242.4h0.1H269z"/>
				<path class="st8" d="M269,242.2c0.2-0.3,0.3-0.6,0.5-0.9c-0.1,0.4-0.1,0.8-0.2,1.1h-0.2H269h-0.1L269,242.2L269,242.2z"/>
				<polygon class="st6" points="269,242.4 268.9,242.4 268.9,242.4 				"/>
				<path class="st4" d="M268.2,307.1c0.3-0.1,0.4-0.4,0.5-0.6c3.9,1.3,7.4,2.2,9.1,2.6l-0.7,0.4c-0.1,0.1-0.2,0.1-0.3,0.2
					C274.7,309.2,271.5,308.3,268.2,307.1C268.1,307.1,268.1,307.1,268.2,307.1z"/>
				<path class="st8" d="M268.5,242.3c0.1-1,0.3-2.1,0.4-3.1c0.1-0.5,0.1-1,0.2-1.4c0-0.2,0-0.4,0.1-0.5c0,0.2,0,0.4-0.1,0.6
					l0.8,0.1c-0.1,0.5-0.1,0.9-0.2,1.4c0,0.2,0,0.4-0.1,0.5c-0.1,0.5-0.1,1-0.2,1.5c-0.2,0.3-0.3,0.6-0.5,0.9v0.1l-0.1,0.1l0,0h-0.2
					L268.5,242.3z"/>
				<path class="st8" d="M268.9,245.2L268.9,245.2L268.9,245.2z"/>
				<path class="st5" d="M268.9,245.2c-0.1,0.5-0.2,0.9-0.3,1.3C268.7,246.1,268.8,245.6,268.9,245.2z"/>
				<path class="st6" d="M268.9,242.4L268.9,242.4L268.9,242.4z"/>
				<path class="st8" d="M267.8,246.5c0.1-0.5,0.2-1,0.3-1.4l0.4,0.1l0.4,0.1l0,0l0,0c-0.1,0.4-0.2,0.9-0.3,1.3c0,0.1,0,0.1,0,0.2
					L267.8,246.5z"/>
				<path class="st8" d="M268.2,248.7l0.4-2l0,0l0.8,0.2l0,0l-0.4,2l-0.4,1.7c0,0,0,0,0-0.1c0.1-0.5,0.3-1.1,0.4-1.6L268.2,248.7z"
					/>
				<path class="st8" d="M277.8,247.5c-2.5,4.1-6.8,6.3-9.4,3.9c0-0.2,0.1-0.3,0.1-0.5h0.1l0.1-0.4c0.7,0.8,1.4,1,2.2,1
					c0.9,0,2.1-0.4,3.2-1.2s2.2-1.9,3-3.3c1.4-2.2,2.5-5.9,2.5-9c0-1.3-0.2-2.5-0.5-3.4c-0.4-1-0.9-1.7-1.6-2.1
					c-0.7-0.4-1.3-0.5-1.9-0.5c-0.7,0-1.5,0.3-2.1,0.6c-0.6,0.4-1.2,0.9-1.6,1.3l-0.4-0.4l-0.2-0.2c1.3-1.3,3.8-3.2,6.6-1.5
					C281.8,234.3,280.5,243.1,277.8,247.5z"/>
				<polygon class="st5" points="268.7,242.4 268.5,242.4 268.5,242.3 				"/>
				<path class="st8" d="M268.6,246.5c0.1-0.4,0.2-0.8,0.3-1.3l0.8,0.1c-0.1,0.5-0.2,0.9-0.3,1.3h-0.8
					C268.6,246.6,268.6,246.6,268.6,246.5z"/>
				<path class="st8" d="M268.5,250.9c0-0.1,0.1-0.3,0.1-0.4c0,0,0,0,0,0.1L268.5,250.9L268.5,250.9z"/>
				<path class="st8" d="M268.2,252.2c0.1-0.3,0.2-0.6,0.2-0.9c2.6,2.4,6.8,0.2,9.4-3.9c2.7-4.4,4-13.2,0-15.6
					c-2.8-1.7-5.3,0.2-6.6,1.5c0.1-0.4,0.2-0.8,0.3-1.4c0.3-0.3,0.7-0.5,1.1-0.7c0.8-0.5,1.8-0.8,2.9-0.8c0.9,0,1.8,0.2,2.7,0.8l0,0
					c1.1,0.7,1.9,1.7,2.3,2.9c0.5,1.2,0.6,2.6,0.7,4c0,3.4-1.1,7.3-2.7,9.8c-1,1.5-2.2,2.8-3.5,3.8c-1.3,0.9-2.7,1.5-4.1,1.5
					C269.9,253.2,269,252.9,268.2,252.2L268.2,252.2z"/>
				<path class="st8" d="M268.5,250.9l-0.7-0.1l0.6-0.5c0.1,0.1,0.1,0.1,0.2,0.2C268.6,250.6,268.5,250.8,268.5,250.9z"/>
				<path class="st8" d="M268.1,245.1h0.4H268.1z"/>
				<path class="st8" d="M268.2,244.2c0.1-0.6,0.2-1.2,0.3-1.8h0.2h0.2l0,0l0,0c-0.1,0.2,0,0.4,0.2,0.5c0.1,0,0.1,0,0.2,0
					c0,0.1,0,0.3-0.1,0.4c0,0.3-0.1,0.6-0.1,0.9l0,0c0,0.3-0.1,0.6-0.1,0.9l0,0l-0.4-0.1l-0.4-0.1l0,0
					C268.1,244.8,268.2,244.5,268.2,244.2L268.2,244.2L268.2,244.2z"/>
				<path class="st8" d="M268.5,250.9c0,0.2-0.1,0.3-0.1,0.5c-0.2-0.2-0.4-0.4-0.6-0.6L268.5,250.9z"/>
				<polygon class="st5" points="268.1,245.1 268.1,245.1 268.1,245.1 				"/>
				<path class="st8" d="M268.4,250.3l-0.6,0.5l0.4-2l0.8,0.2c-0.1,0.5-0.2,1.1-0.4,1.6C268.5,250.4,268.5,250.3,268.4,250.3z"/>
				<path class="st4" d="M267,306.8c0.3-0.1,0.6-0.2,0.8-0.4l0.1-0.2c0.3,0.1,0.5,0.2,0.7,0.3c0,0.3-0.2,0.5-0.5,0.6c0,0,0,0-0.1,0
					c-0.2-0.1-0.3-0.1-0.5-0.2C267.4,306.9,267.2,306.8,267,306.8z"/>
				<path class="st8" d="M267.4,248.5c0,0.2-0.1,0.4-0.1,0.6L267.4,248.5l0.4-1.9l0,0v-0.1c0.1-0.4,0.2-0.9,0.3-1.4l0,0
					c-0.1,0.5-0.2,1-0.3,1.4l0.8,0.2l0,0l-0.4,2L267.4,248.5z"/>
				<path class="st4" d="M266.9,305.9c0.2-0.1,0.4-0.2,0.6-0.2c0.4-0.2,0.9,0,1.1,0.4c0.1,0.1,0.1,0.3,0,0.4
					c-0.2-0.1-0.5-0.2-0.7-0.3C267.6,306.1,267.3,306,266.9,305.9z"/>
				<path class="st8" d="M267.5,251.7c0.3-1,0.5-2,0.7-3l-0.4,2c0.2,0.3,0.4,0.5,0.6,0.6c-0.1,0.3-0.1,0.6-0.2,0.9
					C267.9,252.1,267.7,251.9,267.5,251.7z"/>
				<path class="st8" d="M268.2,248.7c-0.2,1-0.4,2-0.7,3c-0.1-0.1-0.2-0.3-0.4-0.4l-0.2-0.3l0.4-1.8c0.1-0.2,0.1-0.4,0.1-0.6
					L268.2,248.7z"/>
				<path class="st8" d="M263,217.1c1.6,8.4,5.4,13.9,6.7,15.8h-0.3c-0.1,1.3-0.2,2.7-0.3,4.2c0,0.1,0,0.1,0,0.2
					c0,0.2-0.1,0.4-0.1,0.5c-0.1,0.5-0.1,0.9-0.2,1.4c-0.1,1-0.3,2.1-0.4,3.1l0,0c-0.1,0.7-0.2,1.3-0.3,1.8l0,0l0,0
					c0,0.3-0.1,0.6-0.1,0.9l0,0c-0.1,0.5-0.2,1-0.3,1.4v0.1l0,0l-0.4,1.9l-0.1,0.6c-2.2,9.9-6.6,19.8-14.5,25.3l0,0
					c-0.1,0-0.2,0.1-0.3,0.2l0,0c-2.1,1.4-4.2,2.3-6.4,3c-2.4,0.7-5.1,1.1-8.1,1.1c-5.9,0-10.7-1.5-14.6-4.1
					c-0.1-0.1-0.2-0.1-0.3-0.2c-3.5-2.5-6-5.3-8.1-8.4c-2.2-3.4-3.9-7.2-5.3-11.2c-2.7-7.9-3.8-16.4-4.2-22.8l-0.8,0.1
					c1.4-1.9,5-7.6,6.7-14.9H263z"/>
				<path class="st4" d="M267.8,306.4c-0.3,0.1-0.6,0.3-0.8,0.4c-0.4-0.1-0.7-0.3-1.1-0.4c0.4-0.1,0.7-0.3,1.1-0.5
					c0.3,0.1,0.6,0.2,0.9,0.3L267.8,306.4z"/>
				<path class="st8" d="M268.2,252.2L268.2,252.2c-1.1,4.1-2.5,8.1-4.5,11.8c-2.3,4.3-5.2,8.2-9.8,11.6v-0.4l0,0
					c0-0.2-0.1-0.3-0.1-0.4c7.3-5.2,11.4-14.1,13.8-23.1C267.7,251.9,267.9,252.1,268.2,252.2z"/>
				<path class="st5" d="M253.8,296.1v0.1H253L253.8,296.1L253.8,296.1z"/>
				<path class="st8" d="M253.8,275.2v0.4c-0.1,0.1-0.2,0.2-0.4,0.3c-0.1,0.1-0.3,0.2-0.4,0.3v-0.9c0.2-0.2,0.4-0.3,0.7-0.5
					C253.8,274.8,253.8,275,253.8,275.2L253.8,275.2z"/>
				<path class="st4" d="M253.8,279.7c0,0.2-0.1,0.4-0.2,0.5c-0.1-0.2-0.3-0.3-0.6-0.3v-0.2v-3.6c0.1-0.1,0.3-0.2,0.4-0.3
					c0.1-0.1,0.2-0.2,0.4-0.3L253.8,279.7L253.8,279.7z"/>
				<path class="st8" d="M253.8,280.7v15.4c0,0,0,0,0-0.1l-0.8,0.2v-15.5c0-0.1,0-0.2,0.1-0.2c0.2,0,0.4-0.1,0.6-0.3
					C253.8,280.4,253.8,280.5,253.8,280.7z"/>
				<path class="st8" d="M268.6,306.1c-0.2-0.4-0.7-0.6-1.1-0.4c-0.2,0.1-0.4,0.2-0.6,0.2c-6.3-2.3-13-5.7-13.9-9.7h0.8v-0.1
					c0.2,0.8,0.7,1.7,1.6,2.6c0.8,0.9,2,1.8,3.3,2.6c2.7,1.6,6.1,3.1,9.4,4.2c4.3,1.5,8.3,2.5,10,2.9c0.6,0.1,0.9,0.2,0.9,0.2
					c0.1,0,0.3,0.1,0.4,0.2c-0.2,0-0.4,0-0.6,0c-0.1,0-0.2,0-1.1,0.3l0,0c-1.7-0.4-5.2-1.3-9.1-2.6
					C268.6,306.4,268.6,306.2,268.6,306.1z"/>
				<path class="st8" d="M267.1,251.2c0.1,0.2,0.2,0.3,0.4,0.4c-2.4,9-6.5,17.8-13.8,23.1c-0.1-0.2-0.4-0.4-0.7-0.4
					c-0.1,0-0.2,0-0.3,0.1c8-5.4,12.3-15.4,14.5-25.3l-0.4,1.8L267.1,251.2z"/>
				<path class="st4" d="M253.1,279.9c0.2,0,0.4,0.1,0.6,0.3c-0.1,0.2-0.3,0.3-0.6,0.3c0-0.1,0-0.2,0.1-0.2L253.1,279.9z"/>
				<path class="st4" d="M253.1,279.9l0.1,0.4c0,0.1,0,0.2-0.1,0.2c0,0,0,0-0.1,0L253.1,279.9L253.1,279.9z"/>
				<path class="st5" d="M253.1,280.5c0,0.1,0,0.2-0.1,0.2L253.1,280.5L253.1,280.5z"/>
				<path class="st5" d="M253,279.7v0.2l0,0V279.7z"/>
				<path class="st8" d="M253,296.2c0.9,4,7.6,7.4,13.9,9.7c-0.4,0.2-0.7,0.3-1.1,0.5c-4.5-1.7-9-3.9-11.6-6.6c-1-1-1.7-2.2-2-3.4
					v-0.2v-13.3c0.3-0.7,0.6-1.4,0.8-2.2L253,296.2L253,296.2z"/>
				<path class="st4" d="M253,280.5v0.2c-0.2,0.8-0.5,1.5-0.8,2.2v-2.2c0-0.2,0.1-0.4,0.2-0.5C252.6,280.4,252.8,280.5,253,280.5z"
					/>
				<path class="st4" d="M253,279.9v0.6c-0.3,0-0.5-0.1-0.6-0.3C252.6,280,252.8,279.9,253,279.9z"/>
				<path class="st4" d="M253,276.1v3.6l-0.7-3.2C252.6,276.4,252.8,276.3,253,276.1z"/>
				<path class="st8" d="M253,275.2v0.9c-0.2,0.2-0.5,0.3-0.7,0.4l-0.1-0.3l0,0v-0.6C252.5,275.5,252.8,275.3,253,275.2z"/>
				<path class="st4" d="M253,279.7v0.2c-0.3,0-0.5,0.1-0.6,0.3c-0.1-0.1-0.2-0.3-0.2-0.5v-3.1c0,0,0.1,0,0.1-0.1L253,279.7z"/>
				<path class="st8" d="M252.7,274.4l-0.1,0.1l-0.1,0.1C252.6,274.5,252.6,274.5,252.7,274.4z"/>
				<path class="st8" d="M252.3,276.2l0.1,0.3c0,0-0.1,0-0.1,0.1V276.2L252.3,276.2z"/>
				<path class="st8" d="M253,274.3c0.3,0,0.5,0.1,0.7,0.4c-0.2,0.2-0.4,0.3-0.7,0.5s-0.5,0.4-0.8,0.5v-0.5l0,0
					c0-0.2,0.1-0.4,0.2-0.5l0,0c0,0,0.1,0,0.1-0.1l0.1-0.1l0,0C252.8,274.4,252.9,274.3,253,274.3z"/>
				<path class="st8" d="M210.5,306.4c5.6-2.9,8-4.6,9.6-6.1c2.3-2,3.3-3.6,3.4-3.6c0.1-0.1,0.1-0.3,0.1-0.4v-18.7
					c1.9,3.5,8,12.6,18.3,11.8c0,0,7.2-0.1,10.3-6.5v13.3v0.2c0.3,1.2,1,2.4,2,3.4c2.6,2.7,7.1,4.9,11.6,6.6
					c-10.5,4.4-20.1,5.9-28.3,5.9c-8.6,0-15.7-1.6-20.6-3.2c-2.5-0.8-4.4-1.6-5.7-2.2C211,306.6,210.7,306.5,210.5,306.4z"/>
				<path class="st8" d="M223.4,274.6c3.9,2.6,8.7,4.1,14.6,4.1c3,0,5.6-0.4,8.1-1.1c2.2-0.7,4.3-1.6,6.4-3
					c-0.1,0.1-0.2,0.3-0.2,0.5l0,0v0.5c-3.9,2.4-8.6,3.8-14.3,3.8s-10.5-1.4-14.4-3.9l0,0V275C223.6,274.9,223.5,274.7,223.4,274.6z
					"/>
				<path class="st8" d="M223.6,275.6c3.9,2.4,8.7,3.9,14.4,3.9s10.4-1.4,14.3-3.8v0.6c-0.6,0.4-11.6,7.7-28.7,0.3V275.6z"/>
				<path class="st8" d="M238,280.3c-5.6,0-10.4-1.4-14.4-3.7l0,0c17,7.4,28.1,0.1,28.7-0.3v0.3C248.3,278.9,243.6,280.3,238,280.3z
					"/>
				<path class="st4" d="M223.6,276.6c4,2.4,8.8,3.7,14.4,3.7c5.6,0,10.3-1.4,14.3-3.7v3.1c0,0.2,0.1,0.4,0.2,0.5
					c-0.1,0.1-0.2,0.3-0.2,0.5v2.2c-3.1,6.4-10.3,6.5-10.3,6.5c-10.3,0.7-16.4-8.4-18.3-11.8L223.6,276.6L223.6,276.6z"/>
				<path class="st5" d="M223.6,276.5L223.6,276.5c-0.1,0-0.1,0-0.2-0.1C223.5,276.5,223.5,276.5,223.6,276.5z"/>
				<path class="st8" d="M222.8,275.1c0.3,0.2,0.5,0.4,0.8,0.5l0,0v0.9c0,0-0.1,0-0.2-0.1c-0.2-0.1-0.4-0.3-0.6-0.4V275.1z"/>
				<path class="st8" d="M223.4,274.6c0.1,0.2,0.2,0.3,0.2,0.6v0.5c-0.3-0.2-0.5-0.3-0.8-0.5c-0.2-0.1-0.4-0.3-0.6-0.5
					c0.1-0.2,0.4-0.3,0.6-0.3c0.1,0,0.2,0,0.3,0.1C223.2,274.4,223.3,274.5,223.4,274.6z"/>
				<path class="st4" d="M223.6,276.6v1c-0.4-0.8-0.7-1.3-0.7-1.3c0.2,0.1,0.4,0.2,0.5,0.2C223.5,276.5,223.5,276.5,223.6,276.6z"/>
				<path class="st5" d="M222.8,296.2H222v-0.3c0.1-0.1,0.1-0.2,0.1-0.2l0,0L222.8,296.2z"/>
				<path class="st8" d="M222.1,274.7c0.2,0.2,0.4,0.3,0.6,0.5v1c-0.2-0.1-0.3-0.2-0.4-0.3c-0.1-0.1-0.2-0.2-0.4-0.3v-0.4
					C222,275,222,274.8,222.1,274.7z"/>
				<path class="st8" d="M222.3,275.8c0.2,0.1,0.3,0.2,0.4,0.3v20.1l-0.7-0.4l0,0c0,0-0.1,0.1-0.1,0.2v-20.4
					C222.1,275.6,222.2,275.7,222.3,275.8z"/>
				<path class="st8" d="M223.6,296.2c0,0.2,0,0.3-0.1,0.4c0,0-1.1,1.6-3.4,3.6c-1.7,1.5-4,3.2-9.6,6.1c-0.3-0.1-0.5-0.3-0.7-0.4
					c-0.1,0-0.2-0.1-0.2-0.1c9.5-4.1,13.2-9.7,13.2-9.7V276c0.2,0.1,0.4,0.3,0.6,0.4c-0.2-0.1-0.4-0.1-0.5-0.2c0,0,0.2,0.5,0.7,1.3
					V296.2z"/>
				<path class="st4" d="M216.9,309c4.9,1.6,12,3.2,20.6,3.2c8.2,0,17.8-1.5,28.3-5.9c0.4,0.1,0.7,0.3,1.1,0.4
					c-30,12.9-53.4,2.2-57.5,0.1l1-0.4c0.2,0.1,0.5,0.2,0.8,0.4C212.6,307.4,214.5,308.2,216.9,309z"/>
				<path class="st4" d="M209.5,306.8c4.1,2.1,27.4,12.9,57.5-0.1c0.2,0.1,0.4,0.2,0.6,0.2c0.2,0.1,0.3,0.1,0.5,0.2
					c-11.3,5-21.7,6.7-30.5,6.7c-16.8,0-27.9-6-29-6.6c0.2-0.1,0.4-0.2,0.5-0.2C209.2,306.9,209.4,306.9,209.5,306.8z"/>
				<path class="st4" d="M209.8,306c0.2,0.1,0.4,0.2,0.7,0.4l-1,0.4c-0.4-0.2-0.6-0.4-0.6-0.4l-0.1-0.2c0.3-0.1,0.5-0.2,0.8-0.3
					C209.6,306,209.7,306,209.8,306z"/>
				<path class="st4" d="M209.5,306.8c-0.1,0.1-0.3,0.1-0.4,0.2c-0.2,0.1-0.4,0.2-0.5,0.2s-0.1-0.1-0.1-0.1
					c-0.2-0.1-0.4-0.4-0.4-0.6c0.2-0.1,0.5-0.2,0.7-0.3l0.1,0.2C208.9,306.5,209.1,306.6,209.5,306.8z"/>
				<path class="st4" d="M209.4,305.8c0,0,0.1,0.1,0.2,0.1c-0.3,0.1-0.5,0.2-0.8,0.3c-0.2,0.1-0.5,0.2-0.7,0.3c0-0.2,0-0.3,0.1-0.5
					c0.2-0.4,0.7-0.5,1.1-0.3L209.4,305.8z"/>
				<path class="st5" d="M204.8,232c-0.4-6.3-0.2-10.7-0.2-10.7s-1.8-34.6,34.7-34.6c33.9,0,31.1,34.6,31.1,34.6s0.3,4.1,0,10l0,0
					c0,0.5,0,1-0.1,1.5h-0.5c-1.3-1.9-5.2-7.4-6.7-15.8h-51.6C209.8,224.4,206.1,230.1,204.8,232z"/>
				<path class="st8" d="M215,265.9c2.1,3.2,4.6,5.9,8.1,8.4c-0.1,0-0.2-0.1-0.3-0.1c-0.3,0-0.5,0.1-0.6,0.3
					c-13.1-9.3-16.5-29.9-17.4-42.6l0.8-0.1c0.4,6.4,1.5,14.9,4.2,22.8C211.1,258.7,212.8,262.5,215,265.9z"/>
				<path class="st8" d="M204.8,232c0.9,12.7,4.3,33.3,17.4,42.6c-0.1,0.1-0.2,0.3-0.2,0.5v0.4c-6.8-4.7-11-12.3-13.7-20.3
					c-2.5-7.5-3.7-15.4-4.2-21.6c0.1,0.3,0.1,0.5,0.1,0.5l0.1-1.6C204.5,232.4,204.6,232.3,204.8,232z"/>
				<path class="st5" d="M204.8,232c-0.2,0.2-0.3,0.4-0.4,0.5l-0.1,1.6c0,0-0.1-0.2-0.1-0.5c0-0.5-0.1-1.1-0.1-1.6H204.8z"/>
				<path class="st6" d="M204.1,233.6c-1.2-4.4-9.4-37,16.1-49.7c6.2-3.1,12-4.2,17.3-4c5.3-0.2,11.1,0.9,17.3,4
					c23.4,11.7,18.7,40.1,16.9,48.1c-0.3,0.3-0.6,0.5-0.8,0.8l-0.3-1.4l0,0c0.3-6,0-10,0-10s2.8-34.6-31.1-34.6
					c-36.4,0-34.7,34.6-34.7,34.6s-0.2,4.3,0.2,10.7l-0.8,0.1C204,232.6,204,233.1,204.1,233.6z"/>
				<path class="st4" d="M277.4,310.2c-8.2,5.1-41.9,23.2-78.1-0.3c0.4-0.1,0.8-0.2,1.1-0.2c13.2,8.4,26,11.2,37.3,11.2
					c18.9,0,33.6-7.9,39-11.2c0.4,0.1,0.8,0.2,1.1,0.3C277.7,310,277.5,310.1,277.4,310.2z"/>
				<path class="st4" d="M208.5,307.2L208.5,307.2c-2.3,1-5,1.9-8.1,2.5c-0.3-0.2-0.6-0.4-1-0.6c3.3-0.7,6.2-1.5,8.7-2.5
					C208.1,306.8,208.3,307,208.5,307.2z"/>
				<path class="st4" d="M200.4,309.7c-0.4,0.1-0.7,0.2-1.1,0.2c-0.1-0.1-0.3-0.2-0.4-0.3l0.4-0.6c0.1,0,0.1,0,0.2,0
					C199.7,309.3,200.1,309.5,200.4,309.7z"/>
				<path class="st4" d="M199.2,309.1L199.2,309.1c0.1-0.1,0.1,0,0.2,0C199.4,309.1,199.3,309.1,199.2,309.1z"/>
				<polygon class="st4" points="199.2,309.1 199.3,309 199.3,309 				"/>
				<path class="st4" d="M198.9,309.7l0.4-0.6l0,0L198.9,309.7z"/>
				<path class="st4" d="M198.9,309.7c-0.3-0.2-0.6-0.3-0.9-0.3c0.4-0.1,0.8-0.2,1.2-0.2L198.9,309.7z"/>
				<path class="st4" d="M199.3,309L199.3,309C199.2,309.1,199.2,309.1,199.3,309c-0.5,0.2-0.9,0.3-1.3,0.3l0.2-0.8
					C198.6,308.6,198.9,308.8,199.3,309z"/>
				<path class="st8" d="M222.8,296.2c0,0-3.7,5.6-13.2,9.7c-0.1,0-0.1-0.1-0.2-0.1l-0.1-0.1c-0.4-0.2-0.9-0.1-1.1,0.3
					c-0.1,0.2-0.1,0.3-0.1,0.5c-2.5,1-5.4,1.9-8.7,2.5c0,0-0.1,0-0.1-0.1l0,0c-0.4-0.2-0.7-0.4-1.1-0.4c0,0,0,0-0.1,0H198l0,0
					c4.1-0.8,7.6-1.8,10.5-3c8.8-3.6,12.8-8.6,13.5-9.6v0.3L222.8,296.2L222.8,296.2z"/>
				<path class="st4" d="M198.2,308.6l-0.2,0.8L198.2,308.6C198.1,308.5,198.1,308.6,198.2,308.6z"/>
				<path class="st4" d="M198.1,308.5l-0.1,0.8v-0.8H198.1z"/>
				<path class="st4" d="M198,309.3l-0.1-0.8l0,0c0,0,0,0,0.1,0l0,0l0,0V309.3z"/>
				<path class="st4" d="M237.7,322.5c-11.9,0-25.4-3.1-39.3-12.1l0,0c-0.2-0.1-0.3-0.2-0.5-0.2c0,0,0,0,0.1,0l0,0h0.1
					c0.4-0.1,0.8-0.1,1.1-0.2c36.3,23.5,69.9,5.4,78.1,0.3c0.1-0.1,0.3-0.2,0.4-0.2c0.6,0.1,0.9,0.2,0.9,0.2
					c0.4,0.1,0.8-0.2,0.9-0.6c0.6,0,1.3,0.2,1.8,0.5c7.8,4.5,33.7,21.5,34.2,47.9c-0.1,0-0.4,0-0.8,0c-0.3-12.8-6.6-23.3-14-31.3
					c-7.5-8.2-16-13.6-19.9-15.9c-0.5-0.3-1.1-0.4-1.6-0.4c-0.1,0-0.3,0-0.4,0c-0.4,0.1-0.8,0.2-1.2,0.4l0,0
					C272.6,314.1,257.4,322.5,237.7,322.5z"/>
				<path class="st4" d="M198,309.3c0.3,0,0.6,0.2,0.9,0.3c0.1,0.1,0.3,0.2,0.4,0.3c-0.4,0.1-0.7,0.1-1.1,0.2H198l0,0c0,0,0,0-0.1,0
					h-0.1c-0.4-0.1-0.6-0.4-0.6-0.8C197.4,309.3,197.7,309.3,198,309.3z"/>
				<path class="st4" d="M197.2,309.3c0-0.4,0.3-0.8,0.7-0.8l0.1,0.8C197.7,309.3,197.4,309.3,197.2,309.3L197.2,309.3z"/>
				<path class="st4" d="M314.9,358c-7.9-0.1-71.4-0.8-114.2-0.8c-11.2,0-20.9,0.1-27.9,0.2c-3.5,0.1-6.3,0.1-8.3,0.2
					c-0.9,0-1.7,0.1-2.2,0.2c0.3-13.3,7.3-24.2,15-32.2c7.9-8.3,16.7-13.5,19.8-15.3l0,0c0.2-0.1,0.4-0.2,0.6-0.2h0.2h0.1
					c0.2,0,0.4,0.1,0.5,0.2l0,0c13.8,9.1,27.4,12.1,39.3,12.1c19.7,0,34.9-8.4,40.1-11.6l0,0c0.4-0.2,0.8-0.4,1.2-0.4
					c0.1,0,0.3,0,0.4,0c0.5,0,1.1,0.1,1.6,0.4c3.9,2.2,12.4,7.7,19.9,15.9C308.3,334.7,314.6,345.2,314.9,358z"/>
				<path class="st4" d="M196.2,308.9c0.4-0.3,0.9-0.4,1.4-0.4c0.1,0,0.2,0,0.4,0c0,0,0,0-0.1,0l0,0c-0.4,0-0.7,0.4-0.7,0.8l0,0
					c-0.2,0-0.4,0.1-0.6,0.2v-0.1v-0.1l-0.1-0.2l0,0l-0.1-0.2L196.2,308.9z"/>
				<polygon class="st4" points="196.3,309.1 196.2,308.9 196.2,308.9 				"/>
				<path class="st4" d="M314.9,358.8c-11.4-0.1-141.3-1.6-152.7-0.2c0-0.3,0-0.5,0-0.8c0.5-0.1,1.3-0.1,2.2-0.2
					c2-0.1,4.8-0.2,8.3-0.2c7-0.1,16.8-0.2,27.9-0.2c42.8,0,106.3,0.7,114.2,0.8C314.9,358.3,314.9,358.5,314.9,358.8z"/>
				<path class="st4" d="M162.2,358.6c0,0.1,0,0.1,0,0.2C162.2,358.7,162.1,358.7,162.2,358.6C162.1,358.6,162.1,358.6,162.2,358.6z
					"/>
				<path class="st4" d="M161.9,359.3C162,359.3,162,359.3,161.9,359.3C162,359.3,162,359.3,161.9,359.3
					C162,359.3,162,359.3,161.9,359.3z"/>
				<path class="st4" d="M161.9,359.4L161.9,359.4L161.9,359.4C162,359.3,162,359.3,161.9,359.4
					C161.9,359.3,161.9,359.4,161.9,359.4z"/>
				<path class="st4" d="M162.2,358.6c11.4-1.3,141.3,0.1,152.7,0.2l0,0h0.8l0,0V358l0,0c-0.5-26.3-26.5-43.4-34.2-47.9
					c-0.6-0.3-1.2-0.5-1.8-0.5l0,0c0.1-0.3,0-0.6-0.3-0.8h0.1c0.8,0,1.7,0.2,2.4,0.6l0,0c4,2.3,12.6,7.8,20.3,16.2
					c7.7,8.3,14.4,19.6,14.4,33.2c0,0.2-0.1,0.4-0.2,0.6c-0.2,0.2-0.4,0.2-0.6,0.2c0,0-1.1,0-3.1,0s-4.9-0.1-8.5-0.1
					c-7.2-0.1-17.3-0.2-28.8-0.3c-23-0.2-51.8-0.4-74.7-0.4c-9.3,0-17.6,0-24.2,0.1c-6.6,0.1-11.4,0.2-13.6,0.4
					c-0.4,0-0.8,0.1-1,0.1c0,0,0,0,0.1,0c0.1-0.1,0.1-0.2,0.2-0.3l0,0V359l0,0v-0.1l0,0C162.2,358.7,162.2,358.7,162.2,358.6z"/>
				<path class="st4" d="M161.9,359.4L161.9,359.4L161.9,359.4L161.9,359.4z"/>
				<path class="st4" d="M161.9,359.4L161.9,359.4L161.9,359.4z"/>
				<path class="st4" d="M161.9,359.4L161.9,359.4L161.9,359.4L161.9,359.4L161.9,359.4z"/>
				<path class="st4" d="M162.1,359.1c0,0,0-0.1,0.1-0.1C162.1,359.1,162.1,359.1,162.1,359.1L162.1,359.1c0,0.1-0.1,0.2-0.2,0.3
					c0,0,0,0-0.1,0l0,0l0,0c0,0,0,0-0.1,0l0,0l0,0l0,0l0,0c0,0,0,0,0.1-0.1l0,0C162,359.2,162.1,359.2,162.1,359.1z"/>
				<polygon class="st4" points="161.8,359.4 161.8,359.4 161.8,359.4 				"/>
				<path class="st4" d="M161.8,359.5C161.8,359.5,161.8,359.4,161.8,359.5L161.8,359.5z"/>
				<path class="st4" d="M161.8,359.5L161.8,359.5L161.8,359.5z"/>
				<polygon class="st4" points="161.7,359.5 161.7,359.4 161.8,359.5 				"/>
				<path class="st4" d="M161.6,359.2l-0.1-0.2L161.6,359.2L161.6,359.2L161.6,359.2l0.1,0.2l0,0l0,0l0,0l0,0l0,0l0,0L161.6,359.2
					L161.6,359.2L161.6,359.2L161.6,359.2z"/>
				<path class="st4" d="M161.6,359.6h0.1C161.7,359.5,161.6,359.6,161.6,359.6z"/>
				<path class="st4" d="M161.5,359.6C161.5,359.6,161.6,359.6,161.5,359.6C161.6,359.6,161.5,359.6,161.5,359.6z"/>
				<polygon class="st4" points="161.6,359 161.5,359 161.5,359 				"/>
				<path class="st4" d="M162.1,358.5c0,0.1,0,0.1,0,0.2c-0.5,0.1-0.7,0.1-0.8,0.2c0-0.3,0-0.5,0-0.8c0,0,0,0,0.1,0l0,0
					c0.2,0,0.4,0.1,0.5,0.2C162,358.3,162,358.3,162.1,358.5C162,358.4,162.1,358.4,162.1,358.5z"/>
				<path class="st4" d="M161.5,359l-0.1-0.1l0.6,0.3c0,0.1-0.1,0.1-0.1,0.2l0,0l0,0l0,0l0,0l0,0l0,0v-0.1l0,0l0,0L161.5,359
					L161.5,359z"/>
				<path class="st4" d="M161.4,358.8L161.4,358.8L161.4,358.8z"/>
				<path class="st4" d="M162.1,358.6c0-0.1,0-0.1,0-0.2c0,0,0-0.1-0.1-0.1l-0.1-0.1c-0.1-0.1-0.3-0.2-0.5-0.2l0,0c0,0,0,0-0.1,0
					c0,0,0,0,0-0.1l0,0c0.2-0.1,0.4-0.1,0.7-0.1c0,0,0,0,0.1,0C162.2,358.1,162.2,358.3,162.1,358.6L162.1,358.6z"/>
				<path class="st4" d="M177.2,325.5c-7.7,8.1-14.7,19-15,32.2c0,0,0,0-0.1,0c-0.3,0-0.5,0.1-0.7,0.1l0,0
					c0.6-27.6,29-44.9,35.2-48.4c0.2-0.1,0.4-0.2,0.6-0.2c0,0.4,0.3,0.7,0.6,0.8h-0.2c-0.2,0-0.4,0.1-0.6,0.2l0,0
					C193.9,312,185.1,317.3,177.2,325.5z"/>
				<path class="st4" d="M161.1,358l0.3-0.1c0,0,0,0,0,0.1l0,0c-0.2,0-0.3,0.1-0.4,0.1L161.1,358z"/>
				<path class="st4" d="M160.9,358.1l-0.1,0.1C160.8,358.2,160.9,358.2,160.9,358.1z"/>
				<path class="st4" d="M160.9,359.4L160.9,359.4L160.9,359.4z"/>
				<path class="st4" d="M160.8,359.4L160.8,359.4L160.8,359.4z"/>
				<path class="st5" d="M160.7,359.3L160.7,359.3C160.7,359.3,160.8,359.3,160.7,359.3c0.1,0.1,0.1,0.1,0.1,0.1l0,0l0,0l0,0l0,0
					l0,0l0,0l0,0c0,0,0.1,0,0.2,0.1s0.1,0,0.2,0s0.1,0,0.2,0l0,0l0,0l0,0h0.1l0,0l0,0l0,0l0,0c0,0,0,0,0.1,0
					c-0.1,0.1-0.3,0.2-0.5,0.2s-0.4-0.1-0.6-0.2c-0.1-0.1-0.2-0.2-0.2-0.4l0,0C160.6,359.1,160.6,359.2,160.7,359.3
					C160.7,359.2,160.7,359.2,160.7,359.3L160.7,359.3L160.7,359.3z"/>
				<path class="st4" d="M160.7,359.2L160.7,359.2L160.7,359.2z"/>
				<path class="st4" d="M160.6,359c0,0.1,0,0.1,0.1,0.2C160.6,359.2,160.6,359.1,160.6,359z"/>
				<path class="st5" d="M160.6,359L160.6,359L160.6,359L160.6,359z"/>
				<path class="st4" d="M160.6,359L160.6,359L160.6,359L160.6,359z"/>
				<path class="st4" d="M160.6,358.6c0-0.2,0.1-0.3,0.2-0.4l0.1-0.1c0.1-0.1,0.3-0.1,0.4-0.1l0,0c0,0.3,0,0.5,0,0.8h-0.8
					C160.6,358.7,160.6,358.7,160.6,358.6L160.6,358.6z"/>
				<path class="st5" d="M160.6,358.8C160.6,358.9,160.6,358.9,160.6,358.8C160.6,358.9,160.6,358.9,160.6,358.8z"/>
				<path class="st4" d="M161,359.5L161,359.5L161,359.5L161,359.5c-0.1,0-0.1-0.1-0.1-0.1l0,0l0,0l0,0l0,0c0,0-0.1,0-0.1-0.1l0,0
					l0,0l0,0l0,0c0,0-0.1-0.1-0.1-0.2l0,0l0,0l0,0l0,0V359l0,0h0.8c0-0.1,0.3-0.1,0.8-0.2c0,0.1,0,0.1,0,0.2l0,0v0.1l0,0
					c0,0.1,0,0.1-0.1,0.1l-0.6-0.3l0,0l0,0l0,0l0.1,0.1l0,0l0,0l0.1,0.2l0.1,0.1l0,0v0.1v0.1l0,0l0,0h-0.1l0,0l0,0l0,0
					c-0.1,0-0.1,0-0.2,0s-0.1,0-0.2,0S161.1,359.6,161,359.5z"/>
				<path class="st4" d="M196.6,309.6c-6.2,3.5-34.6,20.8-35.2,48.4l-0.3,0.1l-0.2,0.1l-0.1,0.1c-0.1,0.1-0.2,0.3-0.2,0.4l0,0
					c0,0,0,0.1,0,0.2c0-14.3,7.4-25.9,15.5-34.4c8.1-8.4,16.9-13.7,20.1-15.5l0.1,0.2l0.1,0.2l0,0L196.6,309.6L196.6,309.6
					L196.6,309.6z"/>
			</g>
		</g>
	</g>
	<g>
		<g>
			<path class="st9" d="M243.9,247.8c-0.5,1.5-4.3,2.6-6,2.7c-1.3,0.1-4.7-0.6-5.7-2.4"/>
		</g>
	</g>
	<g>
		<g>
			<path class="st5" d="M264.9,227.6c-1.5-0.7-5.8-2.4-7.8-2.7c-3.2-0.5-11-1.1-11-1.1c-1.5-1.2-2-3.3-1.5-3.1
				c2.1,0.8,13.8,1.7,15.5,2.5C261,223.7,265.2,227.4,264.9,227.6z"/>
		</g>
	</g>
	<g>
		<g>
			<path class="st5" d="M211.8,226.5c1.5-0.7,5.9-2.2,7.9-2.4c3.2-0.3,11-0.7,11-0.7c1.6-1.1,2.2-3.2,1.7-3.1
				c-2.8,0.9-13.8,1.1-15.5,1.9C215.9,222.7,211.5,226.2,211.8,226.5z"/>
		</g>
	</g>
	<path class="st5" d="M244.9,238.4C244.9,238.4,244.9,238.3,244.9,238.4c1.2-2.6,3.7-4.1,8.4-4.5c3.4-0.3,6.5,1.3,6.5,1.3
		c-1,0.2-1.6,0.7-1.8,1c1.5-1,2.9-0.5,3.6,0c0,0-2.2,0.3-2.8,1.3C251.9,234.2,244.9,238.4,244.9,238.4z"/>
	<path class="st5" d="M232,238.4C232,238.4,232,238.3,232,238.4c-1.2-2.6-3.7-4.1-8.4-4.5c-3.4-0.3-6.5,1.3-6.5,1.3
		c1,0.2,1.6,0.7,1.8,1c-1.5-1-2.9-0.5-3.6,0c0,0,2.2,0.3,2.8,1.3C225.1,234.2,232,238.4,232,238.4z"/>
	<ellipse class="st5" cx="203.8" cy="296.8" rx="13" ry="16"/>
	<path class="st5" d="M222.7,302.7c0,6.7-4.4,12.2-9.9,12.2s-9.9-5.5-9.9-12.2s4.4-12.2,9.9-12.2S222.7,295.9,222.7,302.7z"/>
	<ellipse class="st5" cx="206.9" cy="318.6" rx="7.7" ry="9.5"/>
	<path class="st5" d="M213.1,334c0,5.2-6.2,17.8-6.2,17.8s-5.7-12.5-5.7-17.8c0-5.2,2.7-9.5,6-9.5
		C210.5,324.6,213.1,328.8,213.1,334z"/>
	<path class="st7" d="M242.6,264.4l-7.6,1.4c-1.8,0-6.2-4.6-6.2-4.6c0-1.8,0.6-3,2.5-3H245c1.8,0,2.8,1,2.8,2.9
		C247.9,261.1,244.4,264.4,242.6,264.4z"/>
	<g>
		<g>
			<path class="st5" d="M249.8,259.2c-1.5-0.1-7.4-3.4-9.3-2.7c-1,0.4-2.7,0.7-3.9,0c-1.3-0.7-8.6,2.7-8.9,3.3c3.5,0,7.3-1.1,10.9-1
				C243,258.8,247,260,249.8,259.2z"/>
		</g>
	</g>
	<g>
		<g>
			<path class="st5" d="M238.2,268.8c3.7-0.1,8.6-3.9,11.1-9.5c-3.5,0.6-6.7,5.7-11.4,5.7c-5.3,0-8.2-5.1-10.7-5.1
				C230.7,266.5,234.5,269,238.2,268.8z"/>
		</g>
	</g>
</g>
</svg>
