<?xml version="1.0" encoding="utf-8"?>
<!-- Generator: Adobe Illustrator 23.0.4, SVG Export Plug-In . SVG Version: 6.00 Build 0)  -->
<svg version="1.1" id="Camada_1" xmlns="http://www.w3.org/2000/svg" xmlns:xlink="http://www.w3.org/1999/xlink" x="0px" y="0px"
	 viewBox="0 0 464 412.9" style="enable-background:new 0 0 464 412.9;" xml:space="preserve">
<style type="text/css">
	.st0{fill:#0D0D0D;}
	.st1{fill:#4E0174;}
	.st2{fill:#EBB450;}
	.st3{fill:#DA3267;}
	.st4{fill:#4578D7;}
	.st5{fill:#334A8C;}
	.st6{fill:#F5F5F3;}
	.st7{fill:#202020;}
	.st8{fill:#7D96EE;}
	.st9{fill:#657BB5;}
	.st10{fill:none;stroke:#000000;stroke-linecap:round;stroke-linejoin:round;stroke-miterlimit:10;}
</style>
<g>
	<path class="st0" d="M95.3,51.1c0-3,0.6-5.4,1.7-7c1.1-1.6,2.7-2.5,4.7-2.5c2,0,3.6,0.9,4.7,2.6c1.1,1.7,1.6,4,1.6,6.9
		c0,3-0.6,5.3-1.7,7c-1.1,1.7-2.7,2.5-4.6,2.5c-2.1,0-3.6-0.9-4.7-2.6C95.8,56.2,95.3,53.9,95.3,51.1z M98,51.1
		c0,2.6,0.3,4.5,0.9,5.6c0.6,1.1,1.5,1.7,2.7,1.7c1.2,0,2.1-0.6,2.7-1.7c0.6-1.1,0.9-3,0.9-5.6c0-2.7-0.3-4.5-1-5.7
		c-0.6-1.1-1.5-1.7-2.7-1.7c-1.3,0-2.3,0.6-2.8,1.9C98.3,46.9,98,48.7,98,51.1z"/>
	<path class="st0" d="M128.8,58V44.1h-2.5v-2.2h5V58h2.4v2.2h-7.4V58H128.8z"/>
	<path class="st0" d="M151.5,51.1c0-3,0.6-5.4,1.7-7c1.1-1.6,2.7-2.5,4.7-2.5c2,0,3.6,0.9,4.7,2.6c1.1,1.7,1.6,4,1.6,6.9
		c0,3-0.6,5.3-1.7,7c-1.1,1.7-2.7,2.5-4.6,2.5c-2.1,0-3.6-0.9-4.7-2.6C152,56.2,151.5,53.9,151.5,51.1z M154.2,51.1
		c0,2.6,0.3,4.5,0.9,5.6c0.6,1.1,1.5,1.7,2.7,1.7c1.2,0,2.1-0.6,2.7-1.7c0.6-1.1,0.9-3,0.9-5.6c0-2.7-0.3-4.5-1-5.7
		c-0.6-1.1-1.5-1.7-2.7-1.7c-1.3,0-2.3,0.6-2.8,1.9C154.5,46.9,154.2,48.7,154.2,51.1z"/>
	<path class="st0" d="M185,58V44.1h-2.5v-2.2h5V58h2.4v2.2h-7.4V58H185z"/>
	<path class="st1" d="M207.7,51.1c0-3,0.6-5.4,1.7-7c1.1-1.6,2.7-2.5,4.7-2.5c2,0,3.6,0.9,4.7,2.6c1.1,1.7,1.6,4,1.6,6.9
		c0,3-0.6,5.3-1.7,7c-1.1,1.7-2.7,2.5-4.6,2.5c-2.1,0-3.6-0.9-4.7-2.6C208.2,56.2,207.7,53.9,207.7,51.1z M210.4,51.1
		c0,2.6,0.3,4.5,0.9,5.6c0.6,1.1,1.5,1.7,2.7,1.7c1.2,0,2.1-0.6,2.7-1.7c0.6-1.1,0.9-3,0.9-5.6c0-2.7-0.3-4.5-1-5.7
		c-0.6-1.1-1.5-1.7-2.7-1.7c-1.3,0-2.3,0.6-2.8,1.9C210.6,46.9,210.4,48.7,210.4,51.1z"/>
	<path class="st1" d="M241.2,58V44.1h-2.5v-2.2h5V58h2.4v2.2h-7.4V58H241.2z"/>
	<path class="st2" d="M263.9,51.1c0-3,0.6-5.4,1.7-7c1.1-1.6,2.7-2.5,4.7-2.5c2,0,3.6,0.9,4.7,2.6c1.1,1.7,1.6,4,1.6,6.9
		c0,3-0.6,5.3-1.7,7c-1.1,1.7-2.7,2.5-4.6,2.5c-2.1,0-3.6-0.9-4.7-2.6C264.4,56.2,263.9,53.9,263.9,51.1z M266.5,51.1
		c0,2.6,0.3,4.5,0.9,5.6c0.6,1.1,1.5,1.7,2.7,1.7c1.2,0,2.1-0.6,2.7-1.7c0.6-1.1,0.9-3,0.9-5.6c0-2.7-0.3-4.5-1-5.7
		c-0.6-1.1-1.5-1.7-2.7-1.7c-1.3,0-2.3,0.6-2.8,1.9C266.8,46.9,266.5,48.7,266.5,51.1z"/>
	<path class="st2" d="M297.4,58V44.1h-2.5v-2.2h5V58h2.4v2.2h-7.4V58H297.4z"/>
	<path class="st3" d="M320,51.1c0-3,0.6-5.4,1.7-7c1.1-1.6,2.7-2.5,4.7-2.5c2,0,3.6,0.9,4.7,2.6c1.1,1.7,1.6,4,1.6,6.9
		c0,3-0.6,5.3-1.7,7c-1.1,1.7-2.7,2.5-4.6,2.5c-2.1,0-3.6-0.9-4.7-2.6C320.6,56.2,320,53.9,320,51.1z M322.7,51.1
		c0,2.6,0.3,4.5,0.9,5.6c0.6,1.1,1.5,1.7,2.7,1.7c1.2,0,2.1-0.6,2.7-1.7c0.6-1.1,1-3,1-5.6c0-2.7-0.3-4.5-1-5.7
		c-0.6-1.1-1.5-1.7-2.7-1.7c-1.3,0-2.3,0.6-2.8,1.9C323,46.9,322.7,48.7,322.7,51.1z"/>
	<path class="st4" d="M353.6,58V44.1h-2.5v-2.2h5V58h2.4v2.2h-7.4V58H353.6z"/>
	<path class="st0" d="M106.6,79.7c0-3,0.6-5.4,1.7-7c1.1-1.6,2.7-2.5,4.7-2.5c2,0,3.6,0.9,4.7,2.6c1.1,1.7,1.6,4,1.6,6.9
		c0,3-0.6,5.3-1.7,7c-1.1,1.6-2.7,2.5-4.6,2.5c-2.1,0-3.6-0.9-4.7-2.6C107.1,84.9,106.6,82.6,106.6,79.7z M109.3,79.7
		c0,2.6,0.3,4.5,0.9,5.6c0.6,1.1,1.5,1.7,2.7,1.7c1.2,0,2.1-0.6,2.7-1.7c0.6-1.1,0.9-3,0.9-5.6c0-2.7-0.3-4.5-1-5.7
		c-0.6-1.1-1.5-1.7-2.7-1.7c-1.3,0-2.3,0.6-2.8,1.9C109.6,75.6,109.3,77.4,109.3,79.7z"/>
	<path class="st0" d="M140.1,86.7V72.8h-2.5v-2.2h5v16.1h2.4v2.2h-7.4v-2.2H140.1z"/>
	<path class="st0" d="M162.8,79.7c0-3,0.6-5.4,1.7-7c1.1-1.6,2.7-2.5,4.7-2.5c2,0,3.6,0.9,4.7,2.6c1.1,1.7,1.6,4,1.6,6.9
		c0,3-0.6,5.3-1.7,7c-1.1,1.6-2.7,2.5-4.6,2.5c-2.1,0-3.6-0.9-4.7-2.6C163.3,84.9,162.8,82.6,162.8,79.7z M165.5,79.7
		c0,2.6,0.3,4.5,0.9,5.6c0.6,1.1,1.5,1.7,2.7,1.7c1.2,0,2.1-0.6,2.7-1.7c0.6-1.1,0.9-3,0.9-5.6c0-2.7-0.3-4.5-1-5.7
		c-0.6-1.1-1.5-1.7-2.7-1.7c-1.3,0-2.3,0.6-2.8,1.9C165.7,75.6,165.5,77.4,165.5,79.7z"/>
	<path class="st0" d="M196.3,86.7V72.8h-2.5v-2.2h5v16.1h2.4v2.2h-7.4v-2.2H196.3z"/>
	<path class="st1" d="M219,79.7c0-3,0.6-5.4,1.7-7c1.1-1.6,2.7-2.5,4.7-2.5c2,0,3.6,0.9,4.7,2.6c1.1,1.7,1.6,4,1.6,6.9
		c0,3-0.6,5.3-1.7,7c-1.1,1.6-2.7,2.5-4.6,2.5c-2.1,0-3.6-0.9-4.7-2.6C219.5,84.9,219,82.6,219,79.7z M221.6,79.7
		c0,2.6,0.3,4.5,0.9,5.6c0.6,1.1,1.5,1.7,2.7,1.7c1.2,0,2.1-0.6,2.7-1.7c0.6-1.1,0.9-3,0.9-5.6c0-2.7-0.3-4.5-1-5.7
		c-0.6-1.1-1.5-1.7-2.7-1.7c-1.3,0-2.3,0.6-2.8,1.9C221.9,75.6,221.6,77.4,221.6,79.7z"/>
	<path class="st2" d="M252.5,86.7V72.8H250v-2.2h5v16.1h2.4v2.2H250v-2.2H252.5z"/>
	<path class="st2" d="M275.1,79.7c0-3,0.6-5.4,1.7-7c1.1-1.6,2.7-2.5,4.7-2.5c2,0,3.6,0.9,4.7,2.6c1.1,1.7,1.6,4,1.6,6.9
		c0,3-0.6,5.3-1.7,7c-1.1,1.6-2.7,2.5-4.6,2.5c-2.1,0-3.6-0.9-4.7-2.6C275.7,84.9,275.1,82.6,275.1,79.7z M277.8,79.7
		c0,2.6,0.3,4.5,0.9,5.6c0.6,1.1,1.5,1.7,2.7,1.7c1.2,0,2.1-0.6,2.7-1.7c0.6-1.1,0.9-3,0.9-5.6c0-2.7-0.3-4.5-1-5.7
		c-0.6-1.1-1.5-1.7-2.7-1.7c-1.3,0-2.3,0.6-2.8,1.9C278.1,75.6,277.8,77.4,277.8,79.7z"/>
	<path class="st3" d="M308.7,86.7V72.8h-2.5v-2.2h5v16.1h2.4v2.2h-7.4v-2.2H308.7z"/>
	<path class="st3" d="M331.3,79.7c0-3,0.6-5.4,1.7-7c1.1-1.6,2.7-2.5,4.7-2.5c2,0,3.6,0.9,4.7,2.6c1.1,1.7,1.6,4,1.6,6.9
		c0,3-0.6,5.3-1.7,7c-1.1,1.6-2.7,2.5-4.6,2.5c-2.1,0-3.6-0.9-4.7-2.6C331.9,84.9,331.3,82.6,331.3,79.7z M334,79.7
		c0,2.6,0.3,4.5,0.9,5.6c0.6,1.1,1.5,1.7,2.7,1.7c1.2,0,2.1-0.6,2.7-1.7c0.6-1.1,0.9-3,0.9-5.6c0-2.7-0.3-4.5-1-5.7
		c-0.6-1.1-1.5-1.7-2.7-1.7c-1.3,0-2.3,0.6-2.8,1.9C334.3,75.6,334,77.4,334,79.7z"/>
	<path class="st4" d="M364.9,86.7V72.8h-2.5v-2.2h5v16.1h2.4v2.2h-7.4v-2.2H364.9z"/>
	<path class="st0" d="M88.5,109.4c0-3,0.6-5.4,1.7-7c1.1-1.6,2.7-2.5,4.7-2.5c2,0,3.6,0.9,4.7,2.6c1.1,1.7,1.6,4,1.6,6.9
		c0,3-0.6,5.3-1.7,7c-1.1,1.7-2.7,2.5-4.6,2.5c-2.1,0-3.6-0.9-4.7-2.6C89,114.6,88.5,112.3,88.5,109.4z M91.2,109.4
		c0,2.6,0.3,4.5,0.9,5.6c0.6,1.1,1.5,1.7,2.7,1.7c1.2,0,2.1-0.6,2.7-1.7c0.6-1.1,0.9-3,0.9-5.6c0-2.7-0.3-4.5-1-5.7
		c-0.6-1.1-1.5-1.7-2.7-1.7c-1.3,0-2.3,0.6-2.8,1.9C91.5,105.2,91.2,107,91.2,109.4z"/>
	<path class="st0" d="M122,116.3v-13.9h-2.5v-2.2h5v16.1h2.4v2.2h-7.4v-2.2H122z"/>
	<path class="st0" d="M144.7,109.4c0-3,0.6-5.4,1.7-7c1.1-1.6,2.7-2.5,4.7-2.5c2,0,3.6,0.9,4.7,2.6c1.1,1.7,1.6,4,1.6,6.9
		c0,3-0.6,5.3-1.7,7c-1.1,1.7-2.7,2.5-4.6,2.5c-2.1,0-3.6-0.9-4.7-2.6C145.2,114.6,144.7,112.3,144.7,109.4z M147.4,109.4
		c0,2.6,0.3,4.5,0.9,5.6c0.6,1.1,1.5,1.7,2.7,1.7c1.2,0,2.1-0.6,2.7-1.7c0.6-1.1,0.9-3,0.9-5.6c0-2.7-0.3-4.5-1-5.7
		c-0.6-1.1-1.5-1.7-2.7-1.7c-1.3,0-2.3,0.6-2.8,1.9C147.7,105.2,147.4,107,147.4,109.4z"/>
	<path class="st0" d="M178.2,116.3v-13.9h-2.5v-2.2h5v16.1h2.4v2.2h-7.4v-2.2H178.2z"/>
	<path class="st1" d="M200.9,109.4c0-3,0.6-5.4,1.7-7c1.1-1.6,2.7-2.5,4.7-2.5c2,0,3.6,0.9,4.7,2.6c1.1,1.7,1.6,4,1.6,6.9
		c0,3-0.6,5.3-1.7,7c-1.1,1.7-2.7,2.5-4.6,2.5c-2.1,0-3.6-0.9-4.7-2.6C201.4,114.6,200.9,112.3,200.9,109.4z M203.6,109.4
		c0,2.6,0.3,4.5,0.9,5.6c0.6,1.1,1.5,1.7,2.7,1.7c1.2,0,2.1-0.6,2.7-1.7s0.9-3,0.9-5.6c0-2.7-0.3-4.5-1-5.7s-1.5-1.7-2.7-1.7
		c-1.3,0-2.3,0.6-2.8,1.9C203.8,105.2,203.6,107,203.6,109.4z"/>
	<path class="st1" d="M234.4,116.3v-13.9h-2.5v-2.2h5v16.1h2.4v2.2h-7.4v-2.2H234.4z"/>
	<path class="st2" d="M257.1,109.4c0-3,0.6-5.4,1.7-7c1.1-1.6,2.7-2.5,4.7-2.5c2,0,3.6,0.9,4.7,2.6c1.1,1.7,1.6,4,1.6,6.9
		c0,3-0.6,5.3-1.7,7c-1.1,1.7-2.7,2.5-4.6,2.5c-2.1,0-3.6-0.9-4.7-2.6C257.6,114.6,257.1,112.3,257.1,109.4z M259.7,109.4
		c0,2.6,0.3,4.5,0.9,5.6c0.6,1.1,1.5,1.7,2.7,1.7c1.2,0,2.1-0.6,2.7-1.7c0.6-1.1,0.9-3,0.9-5.6c0-2.7-0.3-4.5-1-5.7
		c-0.6-1.1-1.5-1.7-2.7-1.7c-1.3,0-2.3,0.6-2.8,1.9C260,105.2,259.7,107,259.7,109.4z"/>
	<path class="st2" d="M290.6,116.3v-13.9h-2.5v-2.2h5v16.1h2.4v2.2h-7.4v-2.2H290.6z"/>
	<path class="st3" d="M313.2,109.4c0-3,0.6-5.4,1.7-7c1.1-1.6,2.7-2.5,4.7-2.5c2,0,3.6,0.9,4.7,2.6c1.1,1.7,1.6,4,1.6,6.9
		c0,3-0.6,5.3-1.7,7c-1.1,1.7-2.7,2.5-4.6,2.5c-2.1,0-3.6-0.9-4.7-2.6C313.8,114.6,313.2,112.3,313.2,109.4z M315.9,109.4
		c0,2.6,0.3,4.5,0.9,5.6c0.6,1.1,1.5,1.7,2.7,1.7c1.2,0,2.1-0.6,2.7-1.7c0.6-1.1,1-3,1-5.6c0-2.7-0.3-4.5-1-5.7
		c-0.6-1.1-1.5-1.7-2.7-1.7c-1.3,0-2.3,0.6-2.8,1.9C316.2,105.2,315.9,107,315.9,109.4z"/>
	<path class="st4" d="M346.8,116.3v-13.9h-2.5v-2.2h5v16.1h2.4v2.2h-7.4v-2.2H346.8z"/>
	<path class="st0" d="M99.8,138c0-3,0.6-5.4,1.7-7c1.1-1.6,2.7-2.5,4.7-2.5c2,0,3.6,0.9,4.7,2.6c1.1,1.7,1.6,4,1.6,6.9
		c0,3-0.6,5.3-1.7,7c-1.1,1.7-2.7,2.5-4.6,2.5c-2.1,0-3.6-0.9-4.7-2.6C100.3,143.2,99.8,140.9,99.8,138z M102.5,138
		c0,2.6,0.3,4.5,0.9,5.6c0.6,1.1,1.5,1.7,2.7,1.7c1.2,0,2.1-0.6,2.7-1.7c0.6-1.1,0.9-3,0.9-5.6c0-2.7-0.3-4.5-1-5.7
		c-0.6-1.1-1.5-1.7-2.7-1.7c-1.3,0-2.3,0.6-2.8,1.9C102.8,133.9,102.5,135.7,102.5,138z"/>
	<path class="st0" d="M133.3,145v-13.9h-2.5v-2.2h5V145h2.4v2.2h-7.4V145H133.3z"/>
	<path class="st0" d="M156,138c0-3,0.6-5.4,1.7-7c1.1-1.6,2.7-2.5,4.7-2.5c2,0,3.6,0.9,4.7,2.6c1.1,1.7,1.6,4,1.6,6.9
		c0,3-0.6,5.3-1.7,7c-1.1,1.7-2.7,2.5-4.6,2.5c-2.1,0-3.6-0.9-4.7-2.6C156.5,143.2,156,140.9,156,138z M158.7,138
		c0,2.6,0.3,4.5,0.9,5.6c0.6,1.1,1.5,1.7,2.7,1.7c1.2,0,2.1-0.6,2.7-1.7c0.6-1.1,0.9-3,0.9-5.6c0-2.7-0.3-4.5-1-5.7
		c-0.6-1.1-1.5-1.7-2.7-1.7c-1.3,0-2.3,0.6-2.8,1.9C158.9,133.9,158.7,135.7,158.7,138z"/>
	<path class="st0" d="M189.5,145v-13.9H187v-2.2h5V145h2.4v2.2H187V145H189.5z"/>
	<path class="st1" d="M212.2,138c0-3,0.6-5.4,1.7-7c1.1-1.6,2.7-2.5,4.7-2.5c2,0,3.6,0.9,4.7,2.6c1.1,1.7,1.6,4,1.6,6.9
		c0,3-0.6,5.3-1.7,7c-1.1,1.7-2.7,2.5-4.6,2.5c-2.1,0-3.6-0.9-4.7-2.6C212.7,143.2,212.2,140.9,212.2,138z M214.8,138
		c0,2.6,0.3,4.5,0.9,5.6c0.6,1.1,1.5,1.7,2.7,1.7c1.2,0,2.1-0.6,2.7-1.7c0.6-1.1,0.9-3,0.9-5.6c0-2.7-0.3-4.5-1-5.7
		c-0.6-1.1-1.5-1.7-2.7-1.7c-1.3,0-2.3,0.6-2.8,1.9C215.1,133.9,214.8,135.7,214.8,138z"/>
	<path class="st2" d="M245.7,145v-13.9h-2.5v-2.2h5V145h2.4v2.2h-7.4V145H245.7z"/>
	<path class="st2" d="M268.3,138c0-3,0.6-5.4,1.7-7c1.1-1.6,2.7-2.5,4.7-2.5c2,0,3.6,0.9,4.7,2.6c1.1,1.7,1.6,4,1.6,6.9
		c0,3-0.6,5.3-1.7,7c-1.1,1.7-2.7,2.5-4.6,2.5c-2.1,0-3.6-0.9-4.7-2.6C268.9,143.2,268.3,140.9,268.3,138z M271,138
		c0,2.6,0.3,4.5,0.9,5.6c0.6,1.1,1.5,1.7,2.7,1.7c1.2,0,2.1-0.6,2.7-1.7c0.6-1.1,0.9-3,0.9-5.6c0-2.7-0.3-4.5-1-5.7
		c-0.6-1.1-1.5-1.7-2.7-1.7c-1.3,0-2.3,0.6-2.8,1.9C271.3,133.9,271,135.7,271,138z"/>
	<path class="st3" d="M301.9,145v-13.9h-2.5v-2.2h5V145h2.4v2.2h-7.4V145H301.9z"/>
	<path class="st3" d="M324.5,138c0-3,0.6-5.4,1.7-7c1.1-1.6,2.7-2.5,4.7-2.5c2,0,3.6,0.9,4.7,2.6c1.1,1.7,1.6,4,1.6,6.9
		c0,3-0.6,5.3-1.7,7c-1.1,1.7-2.7,2.5-4.6,2.5c-2.1,0-3.6-0.9-4.7-2.6C325.1,143.2,324.5,140.9,324.5,138z M327.2,138
		c0,2.6,0.3,4.5,0.9,5.6c0.6,1.1,1.5,1.7,2.7,1.7c1.2,0,2.1-0.6,2.7-1.7c0.6-1.1,0.9-3,0.9-5.6c0-2.7-0.3-4.5-1-5.7
		c-0.6-1.1-1.5-1.7-2.7-1.7c-1.3,0-2.3,0.6-2.8,1.9C327.5,133.9,327.2,135.7,327.2,138z"/>
	<path class="st4" d="M358.1,145v-13.9h-2.5v-2.2h5V145h2.4v2.2h-7.4V145H358.1z"/>
	<path class="st0" d="M81.7,167.7c0-3,0.6-5.4,1.7-7c1.1-1.6,2.7-2.5,4.7-2.5c2,0,3.6,0.9,4.7,2.6c1.1,1.7,1.6,4,1.6,6.9
		c0,3-0.6,5.3-1.7,7c-1.1,1.7-2.7,2.5-4.6,2.5c-2.1,0-3.6-0.9-4.7-2.6C82.2,172.9,81.7,170.6,81.7,167.7z M84.4,167.7
		c0,2.6,0.3,4.5,0.9,5.6c0.6,1.1,1.5,1.7,2.7,1.7c1.2,0,2.1-0.6,2.7-1.7c0.6-1.1,0.9-3,0.9-5.6c0-2.7-0.3-4.5-1-5.7
		c-0.6-1.1-1.5-1.7-2.7-1.7c-1.3,0-2.3,0.6-2.8,1.9C84.7,163.5,84.4,165.3,84.4,167.7z"/>
	<path class="st0" d="M115.2,174.6v-13.9h-2.5v-2.2h5v16.1h2.4v2.2h-7.4v-2.2H115.2z"/>
	<path class="st0" d="M137.9,167.7c0-3,0.6-5.4,1.7-7c1.1-1.6,2.7-2.5,4.7-2.5c2,0,3.6,0.9,4.7,2.6c1.1,1.7,1.6,4,1.6,6.9
		c0,3-0.6,5.3-1.7,7c-1.1,1.7-2.7,2.5-4.6,2.5c-2.1,0-3.6-0.9-4.7-2.6C138.4,172.9,137.9,170.6,137.9,167.7z M140.6,167.7
		c0,2.6,0.3,4.5,0.9,5.6c0.6,1.1,1.5,1.7,2.7,1.7c1.2,0,2.1-0.6,2.7-1.7c0.6-1.1,1-3,1-5.6c0-2.7-0.3-4.5-1-5.7
		c-0.6-1.1-1.5-1.7-2.7-1.7c-1.3,0-2.3,0.6-2.8,1.9C140.8,163.5,140.6,165.3,140.6,167.7z"/>
	<path class="st0" d="M171.4,174.6v-13.9h-2.5v-2.2h5v16.1h2.4v2.2h-7.4v-2.2H171.4z"/>
	<path class="st0" d="M194.1,167.7c0-3,0.6-5.4,1.7-7c1.1-1.6,2.7-2.5,4.7-2.5c2,0,3.6,0.9,4.7,2.6c1.1,1.7,1.6,4,1.6,6.9
		c0,3-0.6,5.3-1.7,7s-2.7,2.5-4.6,2.5c-2.1,0-3.6-0.9-4.7-2.6C194.6,172.9,194.1,170.6,194.1,167.7z M196.8,167.7
		c0,2.6,0.3,4.5,0.9,5.6c0.6,1.1,1.5,1.7,2.7,1.7c1.2,0,2.1-0.6,2.7-1.7c0.6-1.1,0.9-3,0.9-5.6c0-2.7-0.3-4.5-1-5.7
		c-0.6-1.1-1.5-1.7-2.7-1.7c-1.3,0-2.3,0.6-2.8,1.9C197,163.5,196.8,165.3,196.8,167.7z"/>
	<path class="st1" d="M227.6,174.6v-13.9h-2.5v-2.2h5v16.1h2.4v2.2h-7.4v-2.2H227.6z"/>
	<path class="st2" d="M250.2,167.7c0-3,0.6-5.4,1.7-7c1.1-1.6,2.7-2.5,4.7-2.5c2,0,3.6,0.9,4.7,2.6c1.1,1.7,1.6,4,1.6,6.9
		c0,3-0.6,5.3-1.7,7c-1.1,1.7-2.7,2.5-4.6,2.5c-2.1,0-3.6-0.9-4.7-2.6C250.8,172.9,250.2,170.6,250.2,167.7z M252.9,167.7
		c0,2.6,0.3,4.5,0.9,5.6c0.6,1.1,1.5,1.7,2.7,1.7c1.2,0,2.1-0.6,2.7-1.7c0.6-1.1,0.9-3,0.9-5.6c0-2.7-0.3-4.5-1-5.7
		c-0.6-1.1-1.5-1.7-2.7-1.7c-1.3,0-2.3,0.6-2.8,1.9C253.2,163.5,252.9,165.3,252.9,167.7z"/>
	<path class="st2" d="M283.8,174.6v-13.9h-2.5v-2.2h5v16.1h2.4v2.2h-7.4v-2.2H283.8z"/>
	<path class="st3" d="M306.4,167.7c0-3,0.6-5.4,1.7-7c1.1-1.6,2.7-2.5,4.7-2.5c2,0,3.6,0.9,4.7,2.6c1.1,1.7,1.6,4,1.6,6.9
		c0,3-0.6,5.3-1.7,7c-1.1,1.7-2.7,2.5-4.6,2.5c-2.1,0-3.6-0.9-4.7-2.6C307,172.9,306.4,170.6,306.4,167.7z M309.1,167.7
		c0,2.6,0.3,4.5,0.9,5.6c0.6,1.1,1.5,1.7,2.7,1.7c1.2,0,2.1-0.6,2.7-1.7c0.6-1.1,0.9-3,0.9-5.6c0-2.7-0.3-4.5-1-5.7
		c-0.6-1.1-1.5-1.7-2.7-1.7c-1.3,0-2.3,0.6-2.8,1.9C309.4,163.5,309.1,165.3,309.1,167.7z"/>
	<path class="st4" d="M340,174.6v-13.9h-2.5v-2.2h5v16.1h2.4v2.2h-7.4v-2.2H340z"/>
	<path class="st0" d="M93,196.3c0-3,0.6-5.4,1.7-7c1.1-1.6,2.7-2.5,4.7-2.5c2,0,3.6,0.9,4.7,2.6c1.1,1.7,1.6,4,1.6,6.9
		c0,3-0.6,5.3-1.7,7c-1.1,1.7-2.7,2.5-4.6,2.5c-2.1,0-3.6-0.9-4.7-2.6C93.5,201.5,93,199.2,93,196.3z M95.7,196.3
		c0,2.6,0.3,4.5,0.9,5.6c0.6,1.1,1.5,1.7,2.7,1.7c1.2,0,2.1-0.6,2.7-1.7c0.6-1.1,0.9-3,0.9-5.6c0-2.7-0.3-4.5-1-5.7
		c-0.6-1.1-1.5-1.7-2.7-1.7c-1.3,0-2.3,0.6-2.8,1.9C96,192.2,95.7,194,95.7,196.3z"/>
	<path class="st0" d="M126.5,203.3v-13.9H124v-2.2h5v16.1h2.4v2.2H124v-2.2H126.5z"/>
	<path class="st0" d="M149.2,196.3c0-3,0.6-5.4,1.7-7c1.1-1.6,2.7-2.5,4.7-2.5c2,0,3.6,0.9,4.7,2.6c1.1,1.7,1.6,4,1.6,6.9
		c0,3-0.6,5.3-1.7,7c-1.1,1.7-2.7,2.5-4.6,2.5c-2.1,0-3.6-0.9-4.7-2.6C149.7,201.5,149.2,199.2,149.2,196.3z M151.9,196.3
		c0,2.6,0.3,4.5,0.9,5.6c0.6,1.1,1.5,1.7,2.7,1.7c1.2,0,2.1-0.6,2.7-1.7c0.6-1.1,0.9-3,0.9-5.6c0-2.7-0.3-4.5-1-5.7
		c-0.6-1.1-1.5-1.7-2.7-1.7c-1.3,0-2.3,0.6-2.8,1.9C152.1,192.2,151.9,194,151.9,196.3z"/>
	<path class="st0" d="M182.7,203.3v-13.9h-2.5v-2.2h5v16.1h2.4v2.2h-7.4v-2.2H182.7z"/>
	<path class="st1" d="M205.4,196.3c0-3,0.6-5.4,1.7-7c1.1-1.6,2.7-2.5,4.7-2.5c2,0,3.6,0.9,4.7,2.6c1.1,1.7,1.6,4,1.6,6.9
		c0,3-0.6,5.3-1.7,7c-1.1,1.7-2.7,2.5-4.6,2.5c-2.1,0-3.6-0.9-4.7-2.6C205.9,201.5,205.4,199.2,205.4,196.3z M208,196.3
		c0,2.6,0.3,4.5,0.9,5.6c0.6,1.1,1.5,1.7,2.7,1.7s2.1-0.6,2.7-1.7c0.6-1.1,0.9-3,0.9-5.6c0-2.7-0.3-4.5-1-5.7
		c-0.6-1.1-1.5-1.7-2.7-1.7c-1.3,0-2.3,0.6-2.8,1.9C208.3,192.2,208,194,208,196.3z"/>
	<path class="st1" d="M238.9,203.3v-13.9h-2.5v-2.2h5v16.1h2.4v2.2h-7.4v-2.2H238.9z"/>
	<path class="st2" d="M261.5,196.3c0-3,0.6-5.4,1.7-7c1.1-1.6,2.7-2.5,4.7-2.5c2,0,3.6,0.9,4.7,2.6c1.1,1.7,1.6,4,1.6,6.9
		c0,3-0.6,5.3-1.7,7c-1.1,1.7-2.7,2.5-4.6,2.5c-2.1,0-3.6-0.9-4.7-2.6C262.1,201.5,261.5,199.2,261.5,196.3z M264.2,196.3
		c0,2.6,0.3,4.5,0.9,5.6c0.6,1.1,1.5,1.7,2.7,1.7c1.2,0,2.1-0.6,2.7-1.7c0.6-1.1,0.9-3,0.9-5.6c0-2.7-0.3-4.5-1-5.7
		c-0.6-1.1-1.5-1.7-2.7-1.7c-1.3,0-2.3,0.6-2.8,1.9C264.5,192.2,264.2,194,264.2,196.3z"/>
	<path class="st2" d="M295.1,203.3v-13.9h-2.5v-2.2h5v16.1h2.4v2.2h-7.4v-2.2H295.1z"/>
	<path class="st3" d="M317.7,196.3c0-3,0.6-5.4,1.7-7c1.1-1.6,2.7-2.5,4.7-2.5c2,0,3.6,0.9,4.7,2.6c1.1,1.7,1.6,4,1.6,6.9
		c0,3-0.6,5.3-1.7,7c-1.1,1.7-2.7,2.5-4.6,2.5c-2.1,0-3.6-0.9-4.7-2.6C318.3,201.5,317.7,199.2,317.7,196.3z M320.4,196.3
		c0,2.6,0.3,4.5,0.9,5.6c0.6,1.1,1.5,1.7,2.7,1.7c1.2,0,2.1-0.6,2.7-1.7c0.6-1.1,0.9-3,0.9-5.6c0-2.7-0.3-4.5-1-5.7
		c-0.6-1.1-1.5-1.7-2.7-1.7c-1.3,0-2.3,0.6-2.8,1.9C320.7,192.2,320.4,194,320.4,196.3z"/>
	<path class="st4" d="M351.3,203.3v-13.9h-2.5v-2.2h5v16.1h2.4v2.2h-7.4v-2.2H351.3z"/>
</g>
<g>
	<g>
		<g id="XMLID_5_">
			<g>
				<path class="st5" d="M380.7,358.2v0.9h-0.9c0-0.3,0-0.6,0-0.9H380.7z"/>
				<path class="st5" d="M379.8,358.2H196.3c0.1-3.7,0.6-7.3,1.5-10.7c0-0.1,0-0.2,0-0.2h180.3c0,0.1,0,0.2,0.1,0.2
					C379.1,350.7,379.6,353.9,379.8,358.2z"/>
				<path class="st5" d="M374.8,338.3l4.3,9.1h-0.9c-0.9-3.2-2.1-6.2-3.5-9.1H374.8z"/>
				<path class="st5" d="M374.7,338.3H201.4c2.1-4.3,4.8-8.1,7.6-11.6c0.2-0.2,0.3-0.4,0.5-0.6h157c0.2,0.2,0.3,0.4,0.5,0.6
					C369.9,330.1,372.6,334,374.7,338.3z"/>
				<path class="st5" d="M359.6,317.6L359,317l0,0h-0.8c0-0.2,0.1-0.4,0.2-0.5c0.3-0.4,0.9-0.4,1.3-0.1l0,0
					C360,316.7,360,317.2,359.6,317.6C359.6,317.6,359.6,317.6,359.6,317.6z"/>
				<path class="st5" d="M359,317l0.6,0.6c-0.3,0.3-0.9,0.3-1.2,0l0,0c-0.2-0.2-0.3-0.4-0.2-0.6L359,317L359,317z"/>
				<path class="st5" d="M358.4,317.6c0.3,0.3,0.9,0.3,1.2,0l8.1,8.4h-1.2C364,323,361.2,320.2,358.4,317.6
					C358.4,317.7,358.4,317.7,358.4,317.6z"/>
				<path class="st6" d="M358.4,317.7c2.8,2.5,5.5,5.3,8.1,8.3h-157c2.9-3.4,5.5-6,8.1-8.3c0,0,0,0,0-0.1c0,0,0,0,0,0
					c0.3-0.2,0.5-0.4,0.7-0.6h139.2C357.9,317.2,358.1,317.4,358.4,317.7L358.4,317.7C358.4,317.7,358.4,317.7,358.4,317.7z"/>
				<path class="st5" d="M357.6,317h0.5c0,0.2,0.1,0.5,0.2,0.6C358.1,317.4,357.9,317.2,357.6,317z"/>
				<path class="st5" d="M340.3,303.8v0.9h-0.2c-0.1-0.1-0.2-0.1-0.2-0.1L340.3,303.8z"/>
				<path class="st5" d="M340.1,304.7c0.1,0,0.1,0.1,0.2,0.1c1.8,1,9.3,5.2,17.4,12.2H218.4c4.5-3.9,8.8-7,12.1-9.1
					c1.7-1.1,3.2-2,4.1-2.5c0.5-0.3,0.9-0.5,1.2-0.6c0.3-0.1,0.4-0.2,0.4-0.2c0.3-0.2,0.5-0.5,0.5-0.8H338c0,0.5,0.4,0.9,0.9,0.9
					H340.1z"/>
				<path class="st5" d="M338.9,303.8c0,0-0.3-0.1-0.9-0.2c0.1-0.4,0.4-0.7,0.9-0.7h1.4c0.1,0,0.3,0,0.4,0.1c0,0,9.2,4.7,18.9,13.3
					c0,0,0,0,0,0c-0.4-0.3-0.9-0.3-1.3,0.1c-0.1,0.2-0.2,0.4-0.2,0.5h-0.5c-8-7-15.6-11.3-17.4-12.2c-0.1,0-0.1-0.1-0.2-0.1h0.2
					v-0.9l-0.4,0.8c0,0,0.1,0,0.2,0.1h-1.2c-0.5,0-0.9-0.4-0.9-0.9H338.9z"/>
				<path class="st5" d="M338.9,303.8H338c0-0.1,0-0.1,0-0.2C338.6,303.7,338.9,303.8,338.9,303.8z"/>
				<path class="st5" d="M324.8,224.9c0.3,0.2,0.7,0.5,1.1,0.9c0.8,0.8,1.7,2,1.7,3.5c0,1-0.4,2.1-1.3,3.3c-0.2,0.2-0.4,0.2-0.6,0.1
					s-0.2-0.4-0.1-0.6c0.8-1,1.1-1.9,1.1-2.7c0-1-0.5-1.9-1.1-2.6c-0.5-0.6-1.1-1-1.4-1.2l0.3-0.3L324.8,224.9z"/>
				<path class="st5" d="M324.8,224.9l-0.4,0.4l-0.3,0.3c-0.1,0-0.1-0.1-0.2-0.1l-0.1-0.1c-0.2-0.1-0.3-0.4-0.2-0.6
					c0,0,0-0.1,0.1-0.1c0.1-0.1,0.3-0.2,0.5-0.1C324.3,224.6,324.5,224.7,324.8,224.9z"/>
				<path class="st5" d="M323.8,224.6c1.9-2,3.9-2.4,5.2-2.4c0.8,0,1.4,0.2,1.4,0.2c0.2,0.1,0.4,0.3,0.3,0.6s-0.3,0.4-0.6,0.3h0l0,0
					l-0.2,0c-0.2,0-0.5-0.1-0.9-0.1c-0.5,0-1.3,0.1-2,0.4c-0.4,0.2-0.9,0.4-2.1,1.4c-0.3-0.2-0.5-0.3-0.5-0.3
					C324.2,224.4,323.9,224.5,323.8,224.6z"/>
				<path class="st7" d="M322.3,215.6c0.2-0.1,0.2-0.4,0.1-0.6l0.3-0.2c0,0.5,0,1,0,1.6C322.5,216.1,322.4,215.9,322.3,215.6
					L322.3,215.6z"/>
				<path class="st8" d="M321.8,227.3c0.3-2.8,0.5-5.4,0.7-7.8h0c0,0,3.8-5.5,8.3-2.8s3,12.4,0,17.3c-3,4.8-7.9,7.2-10.6,3.7
					c0.6-3,1.1-5.9,1.5-8.7c0.2,0,0.3-0.1,0.4-0.3l0-0.1c0.6-1.2,1.2-2.2,2.1-3.2c0.3,0.2,0.9,0.6,1.4,1.2c0.6,0.7,1.1,1.6,1.1,2.6
					c0,0.8-0.3,1.7-1.1,2.7c-0.2,0.2-0.1,0.5,0.1,0.6s0.5,0.1,0.6-0.1c1-1.2,1.3-2.3,1.3-3.3c0-1.5-0.9-2.7-1.7-3.5
					c-0.4-0.4-0.8-0.7-1.1-0.9c1.3-1,1.7-1.2,2.1-1.4c0.8-0.3,1.5-0.4,2-0.4c0.4,0,0.7,0,0.9,0.1l0.2,0l0,0h0c0.2,0.1,0.5,0,0.6-0.3
					s0-0.5-0.3-0.6c0,0-0.6-0.2-1.4-0.2c-1.3,0-3.3,0.4-5.2,2.4h0C323.3,225.1,322.9,225.7,321.8,227.3z"/>
				<path class="st7" d="M322,215.2l0.3-0.3c0.1,0.2,0.1,0.5-0.1,0.6l-0.1,0C322.2,215.5,322.1,215.4,322,215.2z"/>
				<path class="st7" d="M322.2,215.6l-5.8,4.5c0,0,0-0.1,0-0.2c0-0.2,0.1-0.3,0.1-0.5l5.4-4.3C322.1,215.4,322.2,215.5,322.2,215.6
					z"/>
				<path class="st7" d="M322,215.2c-0.1-0.1-0.1-0.2-0.2-0.4c0.2-0.1,0.4-0.1,0.5,0.1L322,215.2z"/>
				<path class="st7" d="M322,215.2l-5.4,4.3l0.1-0.6l5-3.9c0,0,0,0,0.1,0C321.9,215,322,215.1,322,215.2z"/>
				<path class="st5" d="M321.8,227.3c1-1.6,1.5-2.2,2-2.7h0c0,0-0.1,0.1-0.1,0.1c-0.1,0.2,0,0.5,0.2,0.6l0.1,0.1
					c0,0,0.1,0.1,0.2,0.1c-0.9,1-1.5,2-2.1,3.2l0,0.1c-0.1,0.2-0.3,0.3-0.4,0.3c0-0.2,0-0.3,0.1-0.5
					C321.7,228.1,321.8,227.7,321.8,227.3z"/>
				<path class="st5" d="M321.7,228.5c0,0.2,0,0.3-0.1,0.5c-0.1,0-0.1,0-0.2,0c-0.2-0.1-0.3-0.4-0.2-0.6l0-0.1
					c0.2-0.4,0.4-0.7,0.5-1C321.8,227.7,321.7,228.1,321.7,228.5z"/>
				<path class="st7" d="M316.7,218.8l-0.1,0.6l-0.5,0.4h0c0.1-0.2,0.1-0.4,0.2-0.6L316.7,218.8z"/>
				<path class="st7" d="M316,220.3c0-0.1,0.1-0.3,0.1-0.4h0l0.5-0.4c0,0.2-0.1,0.3-0.1,0.5c0,0,0,0.1,0,0.2l-0.1,0.1
					C316.2,220.3,316.1,220.3,316,220.3z"/>
				<path class="st7" d="M316.1,219.9c0,0.1-0.1,0.3-0.1,0.4c-0.1,0-0.1-0.1-0.2-0.1c-0.1-0.1-0.1-0.3,0-0.4c0,0,0.1-0.1,0.1-0.1
					l0.4-0.3C316.2,219.5,316.2,219.7,316.1,219.9z"/>
				<path class="st8" d="M317,216.1c0-6.8-4.7-12.5-11-14h8.5l0.7-0.3c2.6,5.7,5.2,10.6,6.6,13.1c0,0,0,0-0.1,0l-5,3.9
					C317,217.1,317,216.6,317,216.1z"/>
				<path class="st8" d="M338,303.8H236.7c0,0,0-0.1,0-0.2c19.5-3.7,25.3-14,25.3-14v-27.3h0.5c0,0,7.3,14.4,19,21.1
					c8.5,4.9,19.5,3,25.3-4.9c1.8-2.5,3.4-5.8,4.3-10v21.2c1.7,7.8,22.3,12.9,26.9,13.9C338,303.6,338,303.7,338,303.8z"/>
				<path class="st7" d="M316.6,216.1c0-7.8-6.3-14-14-14h3.5c6.3,1.5,11,7.3,11,14c0,0.5,0,1-0.3,2.7l-0.5,0.4
					C316.5,218.2,316.6,217.2,316.6,216.1z"/>
				<path class="st5" d="M306.1,202.1c-1.1-0.3-2.3-0.4-3.5-0.4c-1.2,0-2.4,0.1-3.5,0.4h-3.8c0,0-1.8-5.5-2-6l9.5,0.8
					c1.9,0.2,3.7,0.7,5.3,1.5l6.5,3.7H306.1z"/>
				<circle class="st5" cx="302.6" cy="215.2" r="3.3"/>
				<path class="st7" d="M302.6,201.7c1.2,0,2.4,0.1,3.5,0.4h-3.5h0V201.7z"/>
				<path class="st7" d="M302.6,202.1c7.7,0,14,6.3,14,14c0,1.1-0.1,2.1-0.4,3.1l-0.4,0.3c0,0-0.1,0.1-0.1,0.1h0
					c0.3-1.1,0.5-2.4,0.5-3.6c0-3.8-1.5-7.2-4-9.6c-2.5-2.5-5.9-4-9.6-4L302.6,202.1L302.6,202.1z"/>
				<path class="st7" d="M302.6,202.1h-3.5c1.1-0.3,2.3-0.4,3.5-0.4V202.1z"/>
				<path class="st8" d="M310.9,226.9c-2.3,1.8-5.2,2.8-8.3,2.8c-3.8,0-7.2-1.5-9.6-4c-2.5-2.5-4-5.9-4-9.6s1.5-7.2,4-9.6
					c2.5-2.5,5.9-4,9.6-4c3.8,0,7.2,1.5,9.6,4c2.5,2.5,4,5.9,4,9.6c0,1.2-0.2,2.5-0.5,3.6c0,0,0,0,0,0.1
					C314.9,222.6,313.2,225.1,310.9,226.9z M302.6,218.6c1.8,0,3.3-1.5,3.3-3.3c0-1.8-1.5-3.3-3.3-3.3c-1.9,0-3.3,1.5-3.3,3.3
					C299.2,217.1,300.7,218.6,302.6,218.6z M305,225c0.1-0.2,0.1-0.5-0.1-0.6l-7.4-5.5c-0.2-0.1-0.5-0.1-0.6,0.1
					c-0.1,0.2-0.1,0.5,0.1,0.6l7.4,5.5C304.6,225.2,304.9,225.2,305,225z"/>
				<path class="st5" d="M304.9,224.4c0.2,0.2,0.2,0.4,0.1,0.6c-0.2,0.2-0.4,0.2-0.6,0.1l-7.4-5.5c-0.2-0.2-0.2-0.4-0.1-0.6
					c0.2-0.2,0.4-0.2,0.6-0.1L304.9,224.4z"/>
				<path class="st7" d="M302.6,202.1v0.4c-3.8,0-7.2,1.5-9.6,4c-2.5,2.5-4,5.9-4,9.6h0c0-0.1,0-0.2-0.1-0.3
					c-0.1-0.1-0.2-0.2-0.3-0.3C288.9,208.1,295,202.1,302.6,202.1z"/>
				<path class="st7" d="M316,220.3c-1.8,5.7-7.1,9.9-13.4,9.9c-7.6,0-13.8-6-14-13.6c0.1,0,0.2,0,0.3-0.1c0.1-0.1,0.1-0.2,0.1-0.3
					h0c0,3.8,1.5,7.2,4,9.6c2.5,2.5,5.9,4,9.6,4c3.1,0,6-1.1,8.3-2.8c2.3-1.8,4-4.3,4.8-7.1c0,0,0,0,0-0.1h0c-0.1,0.1,0,0.3,0,0.4
					C315.8,220.2,315.9,220.3,316,220.3z"/>
				<path class="st7" d="M288.8,215.8c0.1,0.1,0.1,0.2,0.1,0.3s0,0.2-0.1,0.3c-0.1,0.1-0.2,0.1-0.3,0.1c0-0.1,0-0.3,0-0.4
					c0-0.2,0-0.4,0-0.6C288.7,215.6,288.8,215.7,288.8,215.8z"/>
				<path class="st7" d="M288.2,215.2c0.4-6.4,4.9-11.6,11-13.1h3.5c-7.6,0-13.7,6-14,13.5C288.4,215.4,288.3,215.3,288.2,215.2z"/>
				<path class="st7" d="M302.6,230.1c6.3,0,11.6-4.2,13.4-9.9c0.1,0,0.3,0,0.4-0.1l0.1-0.1c-1.7,6-7.3,10.4-13.9,10.4
					c-7.9,0-14.4-6.4-14.5-14.3c0,0,0.1,0.1,0.1,0.1c0.1,0.1,0.2,0.1,0.3,0.1C288.8,224.1,295,230.1,302.6,230.1z"/>
				<path class="st7" d="M288.5,216.1c-0.1-0.1-0.3-0.3-0.4-0.4c0-0.2,0-0.4,0-0.5c0.1,0.1,0.3,0.2,0.4,0.3
					C288.5,215.7,288.5,215.9,288.5,216.1z"/>
				<path class="st7" d="M288.1,215.7c0.1,0.1,0.3,0.2,0.4,0.4c0,0.1,0,0.3,0,0.4c-0.1,0-0.2,0-0.3-0.1c0,0-0.1-0.1-0.1-0.1
					c0-0.1,0-0.1,0-0.2C288.1,216,288.1,215.9,288.1,215.7z"/>
				<path class="st7" d="M285.3,233.2C285.3,233.2,285.3,233.2,285.3,233.2l-0.8,0.3L285.3,233.2z"/>
				<path class="st5" d="M283.7,233.8c-0.2-0.5-0.3-1-0.3-1.5v-14c0-0.5,0.4-0.8,0.8-0.8s0.8,0.4,0.8,0.8v14c0,0.3,0.1,0.6,0.2,0.9
					l-0.8,0.3l0.8-0.3c0.4,0.8,1.2,1.3,2.2,1.3c0.2,0,0.5,0,0.7-0.1l3.4-0.9c0.5-0.1,0.9,0.1,1,0.6c0.1,0.5-0.1,0.9-0.6,1l-3.4,0.9
					c-0.4,0.1-0.8,0.2-1.1,0.2C285.9,236.3,284.4,235.4,283.7,233.8L283.7,233.8z"/>
				<path class="st7" d="M282.5,215.3c0.6-0.4,1.7-1,3-1c0.8,0,1.8,0.2,2.6,0.9c0,0.2,0,0.4,0,0.5c-2.3-1.9-4.7-0.6-5.6,0.1
					C282.6,215.6,282.5,215.5,282.5,215.3z"/>
				<path class="st7" d="M282.6,215.8c0.9-0.7,3.3-2,5.6-0.1c0,0.1,0,0.3,0,0.4c0,0.1,0,0.1,0,0.2c-0.9-0.9-1.8-1.1-2.6-1.2
					c-1.4,0-2.6,0.8-3,1.2c0-0.1,0-0.1,0-0.2C282.6,216,282.6,215.9,282.6,215.8z"/>
				<path class="st7" d="M282.6,215.8c0,0.1,0,0.2,0,0.3h-0.4C282.1,216.1,282.3,216,282.6,215.8z"/>
				<path class="st7" d="M282.1,215.6c0.1-0.1,0.3-0.2,0.4-0.3c0,0.2,0,0.3,0,0.5c-0.3,0.2-0.4,0.3-0.4,0.3
					C282.1,215.9,282.1,215.8,282.1,215.6z"/>
				<path class="st7" d="M282.4,216.4c-0.1,0.1-0.2,0.1-0.3,0.1c0-0.1,0-0.3,0-0.4h0.4c0,0.1,0,0.1,0,0.2
					C282.5,216.3,282.5,216.3,282.4,216.4L282.4,216.4z"/>
				<path class="st7" d="M282.1,216.1h-0.4c0-0.1,0-0.2,0.1-0.3c0,0,0.1-0.1,0.3-0.2C282.1,215.8,282.1,215.9,282.1,216.1z"/>
				<path class="st7" d="M281.7,216.1h0.4c0,0.1,0,0.3,0,0.4c-0.1,0-0.2-0.1-0.3-0.1C281.7,216.3,281.7,216.2,281.7,216.1z"/>
				<path class="st5" d="M268.9,223.7l8.3-5.5c0.2-0.1,0.5-0.1,0.6,0.1c0.1,0.2,0.1,0.5-0.1,0.6l-8.3,5.5c-0.2,0.1-0.5,0.1-0.6-0.1
					C268.6,224.1,268.7,223.8,268.9,223.7z"/>
				<path class="st5" d="M287.8,246.9c-7,0-12.6-3.9-12.6-4c-0.4-0.3-0.5-0.8-0.2-1.2c0.3-0.4,0.8-0.5,1.2-0.2l0,0l0.2,0.1
					c0.2,0.1,0.4,0.2,0.7,0.4c0.6,0.3,1.5,0.8,2.5,1.3c2.1,0.9,5.1,1.8,8.2,1.8c5.9,0,10.2-3.2,10.7-3.6l0,0
					c0.4-0.3,0.9-0.3,1.2,0.1c0.3,0.4,0.3,0.9-0.1,1.2C299.6,242.9,294.8,246.9,287.8,246.9z"/>
				<path class="st7" d="M282.1,215.6c-0.3-7.5-6.4-13.5-14-13.5h3.5c6,1.5,10.6,6.8,11,13.2C282.4,215.4,282.2,215.5,282.1,215.6z"
					/>
				<path class="st8" d="M281.7,216.1c0,3.8-1.5,7.2-4,9.6c-2.5,2.5-5.9,4-9.6,4c-6.2,0-11.4-4.2-13.1-9.8c0,0,0-0.1,0-0.2
					c-0.3-1.2-0.5-2.4-0.5-3.6c0-3.8,1.5-7.2,4-9.6c2.5-2.5,5.9-4,9.6-4s7.2,1.5,9.6,4C280.2,209,281.7,212.3,281.7,216.1z
					 M271.4,218.6c1.8,0,3.3-1.5,3.3-3.3c0-1.8-1.5-3.3-3.3-3.3c-1.8,0-3.3,1.5-3.3,3.3C268.1,217.1,269.6,218.6,271.4,218.6z
					 M277.2,218.2l-8.3,5.5c-0.2,0.1-0.3,0.4-0.1,0.6c0.1,0.2,0.4,0.3,0.6,0.1l8.3-5.5c0.2-0.1,0.3-0.4,0.1-0.6
					C277.7,218.1,277.4,218.1,277.2,218.2z"/>
				<circle class="st5" cx="271.4" cy="215.2" r="3.3"/>
				<path class="st7" d="M268.1,202.1h-3.5c1.1-0.3,2.3-0.4,3.5-0.4s2.4,0.1,3.5,0.4H268.1L268.1,202.1z"/>
				<path class="st5" d="M271.6,202.1c-1.1-0.3-2.3-0.4-3.5-0.4s-2.4,0.1-3.5,0.4h-4.9l6.5-3.7c1.7-0.8,3.5-1.3,5.3-1.5l9.5-0.8
					c-0.3,0.4-2,6-2,6H271.6z"/>
				<path class="st5" d="M281.5,283.4c-11.7-6.7-19-21.1-19-21.1s1.6,1.5,4.2,3.4l0.1,0c4.9,4.4,11.3,7.3,19.4,7.3
					c0.2,0,0.4,0,0.5,0c0.6,0,1.2,0,1.8,0c1.8-0.1,3.4-0.3,5-0.7h0c5.2-1.2,9.5-3.6,13.1-6.9c3.4-2.8,5.3-5.3,5.3-5.3
					c0,3.1-0.3,5.8-0.8,8.3c-0.9,4.3-2.4,7.5-4.3,10C301.1,286.4,290.1,288.3,281.5,283.4z"/>
				<path class="st7" d="M255,219.9c1.6,5.7,6.9,9.8,13.1,9.8c3.8,0,7.2-1.5,9.6-4c2.5-2.5,4-5.9,4-9.6c0,0.1,0,0.2,0.1,0.3
					c0.1,0.1,0.2,0.1,0.3,0.1c-0.2,7.6-6.4,13.6-14,13.6c-6.3,0-11.6-4.1-13.4-9.9c0.1,0,0.1,0,0.2-0.1C255,220.1,255,220,255,219.9
					z"/>
				<path class="st7" d="M254.7,220.3c-0.1-0.1-0.1-0.3-0.1-0.4c-0.1-0.2-0.1-0.4-0.2-0.6l0.4,0.3l0,0l0,0c0,0,0.1,0.1,0.1,0.1
					c0,0.1,0,0.1,0,0.2c0,0.1,0,0.2-0.1,0.3C254.9,220.2,254.8,220.3,254.7,220.3z"/>
				<path class="st7" d="M254.6,219.9c0,0.1,0.1,0.3,0.1,0.4c-0.1,0-0.3,0-0.4-0.1h0l-0.1-0.1c0,0,0-0.1,0-0.1
					c0-0.2-0.1-0.3-0.1-0.5L254.6,219.9z"/>
				<path class="st7" d="M258.5,206.5c-2.5,2.5-4,5.9-4,9.6c0,1.2,0.1,2.4,0.5,3.6c0,0,0-0.1-0.1-0.1l0,0l0,0l-0.4-0.3
					c-0.3-1-0.4-2.1-0.4-3.1c0-7.8,6.3-14,14-14h0c7.6,0,13.7,6,14,13.5c-0.2,0.1-0.3,0.2-0.3,0.2c-0.1,0.1-0.1,0.2-0.1,0.3
					c0-3.8-1.5-7.2-4-9.6c-2.5-2.5-5.9-4-9.6-4S260.9,204,258.5,206.5z"/>
				<path class="st7" d="M254.3,220.2c0.1,0.1,0.3,0.1,0.4,0.1c1.8,5.7,7.1,9.9,13.4,9.9c7.6,0,13.8-6,14-13.6c0.1,0,0.2,0,0.3-0.1
					l0.1,0c0,0,0,0,0.1-0.1c-0.1,7.9-6.5,14.3-14.5,14.3c-3.3,0-6.4-1.1-8.8-3C257,225.8,255.2,223.3,254.3,220.2L254.3,220.2
					L254.3,220.2z"/>
				<path class="st7" d="M254.4,219.2c0,0.2,0.1,0.4,0.2,0.6l-0.5-0.4c0-0.2-0.1-0.4-0.1-0.6L254.4,219.2z"/>
				<path class="st7" d="M253.6,216.1c0-6.8,4.7-12.5,11-14h3.5c-7.8,0-14,6.3-14,14c0,1.1,0.1,2.1,0.4,3.1l-0.5-0.4
					C253.7,217.9,253.6,217,253.6,216.1z"/>
				<path class="st8" d="M253.9,218.8l-3.3-2.6c0,0-0.1,0-0.1,0c1.8-4,5.1-12.3,4.1-18.7c27.9-3.2,53-18.6,53.1-18.6
					c0.9,7,4.2,15.7,7.5,22.9l-0.7,0.3l-6.5-3.7c-1.7-0.8-3.5-1.3-5.3-1.5l-9.5-0.8c0.3,0.4,2,6,2,6h3.8c-6,1.5-10.6,6.8-11,13.1
					c-0.9-0.7-1.8-0.9-2.6-0.9c-1.3,0-2.3,0.5-3,1c-0.4-6.4-4.9-11.7-11-13.2h7.5c0,0,1.8-5.5,2-6l-9.5,0.8
					c-1.8,0.2-3.6,0.7-5.3,1.5l-6.5,3.7h4.9c-6.3,1.5-11,7.3-11,14C253.6,217,253.7,217.9,253.9,218.8z"/>
				<path class="st7" d="M250.6,216.2l3.3,2.6c0,0.2,0.1,0.4,0.1,0.6l-3.7-2.9v0C250.4,216.4,250.4,216.3,250.6,216.2
					C250.5,216.2,250.6,216.2,250.6,216.2z"/>
				<path class="st5" d="M251.1,228.4c0.1,0.2,0,0.5-0.2,0.6c-0.1-0.5-0.2-1-0.2-1.4C250.8,227.8,251,228.1,251.1,228.4z"/>
				<path class="st7" d="M254.2,220.1l-4.1-3.2c0.1-0.1,0.1-0.3,0.2-0.4l3.7,2.9c0,0.2,0.1,0.4,0.1,0.5
					C254.2,220,254.2,220.1,254.2,220.1z"/>
				<path class="st7" d="M250,216.3c0.1-0.1,0.3-0.2,0.5-0.1c-0.1,0.1-0.1,0.3-0.2,0.4L250,216.3z"/>
				<path class="st7" d="M250.1,216.9c-0.2-0.1-0.2-0.4-0.1-0.6l0.3,0.3v0C250.3,216.7,250.2,216.8,250.1,216.9L250.1,216.9z"/>
				<path class="st8" d="M285.1,218.3c0-0.5-0.4-0.8-0.8-0.8s-0.8,0.4-0.8,0.8v14c0,0.6,0.1,1.1,0.3,1.5l0,0
					c0.6,1.6,2.2,2.5,3.8,2.5c0.4,0,0.8,0,1.1-0.2l3.4-0.9c0.5-0.1,0.7-0.6,0.6-1c-0.1-0.5-0.6-0.7-1-0.6l-3.4,0.9
					c-0.2,0.1-0.5,0.1-0.7,0.1c-1,0-1.8-0.5-2.2-1.3c0,0,0,0,0,0c-0.1-0.3-0.2-0.6-0.2-0.9V218.3z M250.1,216.9l4.1,3.2
					c1,3.2,2.7,5.6,5.1,7.4c2.4,1.9,5.5,3,8.8,3c7.9,0,14.4-6.4,14.5-14.3c0.4-0.3,1.6-1.2,3-1.2c0.8,0,1.7,0.3,2.6,1.2
					c0.1,7.9,6.5,14.3,14.5,14.3c6.5,0,12.1-4.4,13.9-10.4l5.8-4.5c0.2,0.3,0.3,0.5,0.4,0.7c0,1-0.1,2.1-0.1,3.2
					c-0.1,2.4-0.3,5-0.7,7.8c-0.2,0.3-0.4,0.7-0.5,1l0,0.1c-0.1,0.2,0,0.5,0.2,0.6c0.1,0,0.1,0,0.2,0c-0.4,2.8-0.8,5.7-1.5,8.7
					c-2.2,10.3-6.2,20.9-13.5,27.7c-3.2,2.7-7.7,5.6-13.1,6.9h0c-2.1,0.5-4.4,0.7-6.8,0.7c-0.2,0-0.4,0-0.5,0
					c-8-0.4-15.1-4.3-19.4-7.3l-0.1,0c-7.6-6.9-11.9-17.7-14.3-28.2c-0.7-2.9-1.2-5.8-1.6-8.5c0.2-0.1,0.3-0.4,0.2-0.6
					c-0.1-0.3-0.3-0.6-0.4-0.8c-0.4-2.9-0.6-5.6-0.8-8c0-0.6-0.1-1.2-0.1-1.8C249.9,217.5,250,217.3,250.1,216.9z M299.6,242.9
					c0.4-0.3,0.4-0.8,0.1-1.2c-0.3-0.4-0.8-0.4-1.2-0.1l0,0c-0.5,0.4-4.8,3.6-10.7,3.6c-3.2,0-6.1-0.9-8.2-1.8
					c-1.1-0.5-1.9-0.9-2.5-1.3c-0.3-0.2-0.5-0.3-0.7-0.4l-0.2-0.1l0,0c-0.4-0.3-0.9-0.2-1.2,0.2c-0.3,0.4-0.2,0.9,0.2,1.2
					c0.1,0,5.7,4,12.6,4C294.8,246.9,299.6,242.9,299.6,242.9z"/>
				<path class="st5" d="M250,216.3l-0.3-0.3h0c-0.3-5.8-0.1-9.6-0.1-9.6s-2-39.7,38.5-39.7c37.6,0,34.5,39.7,34.5,39.7
					s0.2,3.3,0.1,8.4l-0.3,0.2c-0.1-0.2-0.3-0.2-0.5-0.1c-1.4-2.5-4-7.4-6.6-13.1c-3.3-7.3-6.6-15.9-7.5-22.9
					c-0.1,0.1-25.2,15.5-53.1,18.6c1,6.4-2.3,14.7-4.1,18.7C250.3,216.1,250.1,216.1,250,216.3z"/>
				<path class="st7" d="M249.7,217.8c0-0.6-0.1-1.2-0.1-1.8l0.3,0.3c-0.1,0.2-0.1,0.5,0.1,0.6l0.1,0
					C250,217.3,249.9,217.5,249.7,217.8z"/>
				<path class="st5" d="M249.3,218.6c-7.5-26.5-12.4-60,36.7-60c52,0,44.2,33.5,36.8,58.1c0,0-0.1-0.2-0.3-0.4c0-0.5,0-1.1,0-1.6
					c0.1-5.1-0.1-8.4-0.1-8.4s3.1-39.7-34.5-39.7c-40.4,0-38.5,39.7-38.5,39.7s-0.2,3.8,0.1,9.6h0c0,0.6,0,1.2,0.1,1.8
					C249.5,218.3,249.3,218.6,249.3,218.6z"/>
				<path class="st5" d="M248.5,225.3c0.2-0.1,0.3-0.4,0.2-0.6c0.7,0.7,1.4,1.7,2,2.8c0.1,0.5,0.1,0.9,0.2,1.4
					c-0.2,0.1-0.5,0-0.6-0.2c-0.6-1.3-1.3-2.2-2.1-3.3l0.2-0.1L248.5,225.3z"/>
				<path class="st5" d="M248.5,225.3l-0.1,0.1l-0.2,0.1c-0.1-0.1-0.2-0.2-0.2-0.3c-0.1-0.1-0.3-0.3-0.4-0.4
					c0.3-0.2,0.5-0.3,0.5-0.3c0.1-0.1,0.3-0.1,0.4,0c0.1,0,0.1,0.1,0.2,0.2C248.8,224.9,248.7,225.2,248.5,225.3z"/>
				<path class="st5" d="M244.7,229.3c0-1.5,0.9-2.7,1.7-3.5c0.4-0.4,0.8-0.7,1.1-0.9c0.1,0.1,0.3,0.3,0.4,0.4
					c0.1,0.1,0.2,0.2,0.2,0.3l-0.2,0.1c-0.3,0.2-0.6,0.5-1,0.8c-0.7,0.7-1.4,1.7-1.4,2.9c0,0.8,0.3,1.7,1.1,2.7
					c0.2,0.2,0.1,0.5-0.1,0.6c-0.2,0.2-0.5,0.1-0.6-0.1C245.1,231.4,244.7,230.3,244.7,229.3z"/>
				<path class="st5" d="M243.4,222.2c1.3,0,3.1,0.4,5.1,2.3c-0.1-0.1-0.3-0.1-0.4,0c0,0-0.2,0.1-0.5,0.3c-1.6-1.5-3.2-1.8-4.2-1.8
					c-0.6,0-1.1,0.1-1.1,0.1h0c-0.2,0.1-0.5,0-0.6-0.3c-0.1-0.2,0-0.5,0.3-0.6C242,222.4,242.5,222.2,243.4,222.2
					C243.4,222.2,243.4,222.2,243.4,222.2z"/>
				<path class="st8" d="M252.3,237.6c-2.7,3.8-7.7,1.3-10.7-3.5c-3.1-4.9-4.5-14.7,0-17.3s8.3,2.8,8.3,2.8h0c0.2,2.5,0.4,5.2,0.8,8
					c-0.6-1.2-1.3-2.1-2-2.8c0-0.1-0.1-0.1-0.2-0.2c-1.9-1.9-3.8-2.3-5.1-2.3c0,0,0,0-0.1,0c-0.8,0-1.4,0.2-1.4,0.2
					c-0.2,0.1-0.4,0.3-0.3,0.6c0.1,0.2,0.3,0.4,0.6,0.3h0c0.1,0,0.5-0.1,1.1-0.1c1,0,2.5,0.3,4.2,1.8c-0.3,0.2-0.7,0.5-1.1,0.9
					c-0.8,0.8-1.7,2-1.7,3.5c0,1,0.4,2.1,1.3,3.3c0.2,0.2,0.4,0.2,0.6,0.1c0.2-0.2,0.2-0.4,0.1-0.6c-0.8-1-1.1-1.9-1.1-2.7
					c0-1.2,0.7-2.2,1.4-2.9c0.4-0.3,0.7-0.6,1-0.8l0.2-0.1c0.9,1,1.5,2,2.1,3.3c0.1,0.2,0.4,0.3,0.6,0.2c0.4,2.8,0.9,5.6,1.6,8.5
					L252.3,237.6z"/>
				<path class="st5" d="M236.7,303.6c0,0,0,0.1,0,0.2h-0.9C236.1,303.7,236.4,303.7,236.7,303.6z"/>
				<path class="st5" d="M217.7,317.6c0.2-0.2,0.3-0.4,0.2-0.6h0.5C218.2,317.2,218,317.4,217.7,317.6z"/>
				<path class="st5" d="M216.5,316.3c9.7-8.7,18.8-13.3,18.9-13.3c0.4-0.2,1,0,1.2,0.4c0,0.1,0.1,0.2,0.1,0.3
					c-0.3,0-0.6,0.1-0.9,0.2h0.9c0,0.3-0.2,0.6-0.5,0.8c0,0-0.1,0.1-0.4,0.2c-0.3,0.1-0.7,0.4-1.2,0.6c-1,0.5-2.4,1.4-4.1,2.5
					c-3.3,2.1-7.6,5.1-12.1,9.1h-0.5c0-0.2-0.1-0.4-0.2-0.5C217.4,316.1,216.8,316,216.5,316.3C216.5,316.3,216.5,316.3,216.5,316.3
					z"/>
				<path class="st5" d="M217.1,317h0.8c0,0.2-0.1,0.5-0.2,0.6c0,0,0,0,0,0c-0.3,0.3-0.9,0.3-1.2,0L217.1,317L217.1,317z"/>
				<path class="st5" d="M208.4,326.1l8.1-8.4c0.3,0.3,0.9,0.3,1.2,0c0,0,0,0,0,0.1c-2.6,2.3-5.2,4.9-8.1,8.3H208.4z"/>
				<path class="st5" d="M217.9,317h-0.8l0,0l-0.6,0.6c0,0,0,0-0.1,0c-0.3-0.3-0.3-0.9,0-1.2l0,0c0.4-0.3,0.9-0.3,1.3,0.1
					C217.9,316.6,217.9,316.8,217.9,317z"/>
				<path class="st5" d="M197.6,345.4l3.3-7.1h0.5c-1.2,2.4-2.2,4.8-3,7.4c-0.2,0.5-0.6,0.7-1.1,0.6
					C197.4,345.9,197.5,345.7,197.6,345.4L197.6,345.4z"/>
				<path class="st5" d="M197.9,347.3H197c0.1-0.3,0.2-0.6,0.3-0.9C197.6,346.6,197.9,346.9,197.9,347.3z"/>
				<path class="st6" d="M378.2,347.3H197.9c0-0.4-0.3-0.8-0.6-0.9c0-0.1,0-0.2,0.1-0.2c0.5,0.2,1-0.1,1.1-0.6c0.8-2.6,1.8-5,3-7.4
					h173.3C376.1,341.1,377.3,344.1,378.2,347.3z"/>
				<path class="st5" d="M197.2,346.2l0.4-0.8c-0.1,0.3-0.2,0.5-0.3,0.8h0C197.2,346.2,197.2,346.2,197.2,346.2z"/>
				<path class="st5" d="M216.5,317.6l-8.1,8.4h1.2c-0.2,0.2-0.3,0.4-0.5,0.6c-2.9,3.5-5.5,7.4-7.6,11.6h-0.5l-3.3,7.1v0l-0.4,0.8
					c-0.4-0.2-0.6-0.6-0.5-1.1c1.2-3.7,2.8-7.3,4.7-10.5c1.9-3.3,4-6.3,6.3-9.1c2.8-3.4,5.8-6.5,8.8-9.1
					C216.1,316.7,216.1,317.2,216.5,317.6C216.4,317.6,216.5,317.6,216.5,317.6z"/>
				<path d="M197.3,346.2c0,0.1,0,0.2-0.1,0.2h0c0,0-0.1,0-0.2,0l0.1-0.3C197.2,346.2,197.2,346.2,197.3,346.2L197.3,346.2z"/>
				<path class="st5" d="M197,347.3h-0.3l0.4-0.9c0.1,0,0.1,0,0.2,0h0C197.1,346.7,197.1,347,197,347.3z"/>
				<path class="st5" d="M196.3,358.2c0,0.3,0,0.6,0,0.9h-0.9v-0.9H196.3z"/>
				<path class="st5" d="M380.7,360H195.4c-0.2,0-0.5-0.1-0.6-0.3c-0.2-0.2-0.3-0.4-0.3-0.6c0-4.2,0.6-8.3,1.6-12.1
					c0.1-0.4,0.5-0.7,0.9-0.6l-0.4,0.9h0.3h0.9c0,0.1,0,0.2,0,0.2c-0.9,3.4-1.5,7-1.5,10.7h-0.9v0.9h0.9c0-0.3,0-0.6,0-0.9h183.5
					c0,0.3,0,0.6,0,0.9h0.9v-0.9h-0.9c-0.2-4.3-0.7-7.6-1.5-10.7c0-0.1,0-0.2-0.1-0.2h0.9l-4.3-9.1h-0.1c-2.1-4.3-4.8-8.1-7.6-11.6
					c-0.2-0.2-0.3-0.4-0.5-0.6h1.2l-8.1-8.4c0,0,0,0,0.1,0c0.3-0.3,0.3-0.9,0-1.2c3,2.7,6,5.7,8.8,9.1c2.5,3,4.8,6.4,6.8,10
					c2,3.6,3.6,7.5,4.7,11.6c1,3.8,1.6,7.8,1.6,12.1c0,0.2-0.1,0.5-0.3,0.6C381.2,359.9,380.9,360,380.7,360z"/>
			</g>
			<g>
			</g>
		</g>
	</g>
	<g>
		<g id="XMLID_4_">
			<g>
				<path class="st7" d="M213.4,218.8c0,30.7-20.5,66.3-39.9,66.3c-5,0-9.7-1.6-14-4.6c-1-3.9-3-7.3-5.7-9.5
					c5.3-5.8,8.6-14.2,8.6-23.6c0-12.8-6.2-23.8-15.1-28.8c6.4-10,16.3-18.8,31-22.4c10-2.5,11.7-9.4,8-15.6
					C200.9,184.4,213.4,195.3,213.4,218.8z"/>
				<path class="st7" d="M186.3,180.6c3.7,6.2,1.9,13.2-8,15.6c-14.7,3.6-24.6,12.5-31,22.4c-2.5-1.4-5.2-2.3-8-2.6
					c3.6-23,16.7-37.2,33.1-37.2C177,178.9,181.8,179.4,186.3,180.6z"/>
				<path class="st7" d="M186.3,180.6c-4.5-1.2-9.3-1.7-13.9-1.7c-16.4,0-29.5,14.2-33.1,37.2c-0.8-0.1-1.6-0.1-2.5-0.1
					c-7,0-13.3,3.5-18,9.1c-1.7-14.3,1-29.9,11.8-40.1C156.1,161.1,179.8,169.6,186.3,180.6z"/>
				<path class="st7" d="M159.4,280.5c0.4,1.6,0.6,3.4,0.6,5.2c0,9.8-6.5,17.8-14.4,17.8c-5.4,0-10.1-3.7-12.6-9.1
					c6.8-1.4,11.9-8.5,12.1-17.1c2.3-1,4.5-2.4,6.5-4.1C154,276.1,156.6,278.6,159.4,280.5z"/>
				<path class="st7" d="M153.8,271c2.7,2.3,4.7,5.6,5.7,9.5c-2.8-1.9-5.4-4.4-7.8-7.4C152.4,272.4,153.1,271.7,153.8,271z"/>
				<path class="st7" d="M147.3,218.7c8.9,4.9,15.1,15.9,15.1,28.8c0,9.4-3.3,17.8-8.6,23.6c-1.6-1.4-3.5-2.4-5.6-2.8
					c-4.9-7.9-8.3-18.2-9.4-29.6C140.4,232.2,143.1,225.2,147.3,218.7z"/>
				<path class="st7" d="M153.8,271c-0.7,0.8-1.4,1.5-2.1,2.1c-1.2-1.5-2.4-3.2-3.4-5C150.3,268.6,152.1,269.6,153.8,271z"/>
				<path class="st7" d="M151.6,273.1c-2,1.7-4.2,3.1-6.5,4.1c0-0.1,0-0.3,0-0.4c0-3.2-0.7-6.1-1.8-8.7c0.8-0.2,1.5-0.2,2.3-0.2
					c0.9,0,1.7,0.1,2.6,0.3C149.3,269.9,150.4,271.6,151.6,273.1z"/>
				<path class="st7" d="M145.1,276.8c0,0.1,0,0.3,0,0.4c-2.6,1.1-5.4,1.7-8.3,1.7c-1.5,0-3-0.2-4.4-0.5c1.9-5.4,6-9.4,10.9-10.4
					C144.5,270.6,145.1,273.6,145.1,276.8z"/>
				<path class="st7" d="M135,259.8c3.5,1.4,6.5,4.4,8.3,8.3c-4.9,1-8.9,5-10.9,10.4c-5.7-1.2-10.8-4.8-14.6-9.9
					c2.4-5.7,7.2-9.6,12.8-9.6C132.2,259,133.6,259.3,135,259.8z"/>
				<path class="st7" d="M145.1,277.2c-0.2,8.7-5.3,15.8-12.1,17.1c-1.2-2.6-1.9-5.5-1.9-8.7c0-2.6,0.4-5,1.3-7.2
					c1.4,0.3,2.9,0.5,4.4,0.5C139.7,278.9,142.5,278.3,145.1,277.2z"/>
				<path class="st7" d="M139.3,216.1c2.8,0.3,5.5,1.2,8,2.6c-4.2,6.5-6.9,13.5-8.5,19.9c-0.3-3-0.5-6-0.5-9.1
					C138.3,224.7,138.6,220.2,139.3,216.1z"/>
				<path class="st7" d="M138.8,238.6c-2.5,10.2-2.2,18.8-0.4,21c-1,0-2-0.2-2.9-0.7c-7.3-3.2-14.7-17.7-16.6-33.9
					c4.6-5.6,11-9.1,18-9.1c0.8,0,1.7,0,2.5,0.1c-0.7,4.2-1,8.6-1,13.4C138.3,232.5,138.5,235.6,138.8,238.6z"/>
				<path class="st7" d="M135.4,258.9c1,0.4,2,0.7,2.9,0.7c-1.8-2.2-2.1-10.8,0.4-21c1.2,11.4,4.5,21.6,9.4,29.6
					c-0.8-0.2-1.7-0.3-2.6-0.3c-0.8,0-1.6,0.1-2.3,0.2c-1.8-3.9-4.8-6.9-8.3-8.3L135.4,258.9z"/>
				<path class="st7" d="M133,294.4c-0.8,0.2-1.5,0.2-2.3,0.2c-8,0-14.4-8-14.4-17.8c0-3,0.6-5.8,1.6-8.2c3.8,5.1,8.8,8.7,14.6,9.9
					c-0.8,2.2-1.3,4.6-1.3,7.2C131.2,288.8,131.9,291.8,133,294.4z"/>
				<path class="st7" d="M135,259.8c-1.4-0.5-2.8-0.8-4.3-0.8c-5.6,0-10.4,3.9-12.8,9.6c-4.1-5.6-6.6-13-6.6-21.1
					c0-8.8,2.9-16.7,7.6-22.4c1.9,16.2,9.3,30.7,16.6,33.9L135,259.8z"/>
			</g>
			<g>
			</g>
		</g>
	</g>
	<g>
		<g id="XMLID_3_">
			<g>
				<path class="st5" d="M260.3,370.5l0,0.9C260.3,371.1,260.3,370.8,260.3,370.5C260.3,370.5,260.3,370.5,260.3,370.5z"/>
				<path class="st5" d="M260.3,370.5c0,0.3,0,0.6,0,0.9c0,0,0,0,0,0c-0.1,0-0.4,0-0.9,0c0-0.3,0-0.6,0-0.9
					C259.9,370.5,260.1,370.5,260.3,370.5z"/>
				<path class="st5" d="M260.3,371.4h-0.9v0C259.9,371.4,260.2,371.4,260.3,371.4z"/>
				<path class="st5" d="M219,317.1c0,0-0.4-0.1-1-0.2c0.4-0.2,0.8-0.3,1.2-0.4c0.3,0,0.5,0,0.8,0
					C219.9,316.9,219.4,317.2,219,317.1z"/>
				<path class="st5" d="M219.2,316.2c0,0-0.5-0.1-1.3-0.3c1-0.3,1.1-0.3,1.2-0.3c0.2,0,0.4,0,0.6,0c0.3,0.2,0.4,0.5,0.3,0.9
					c0,0,0,0,0,0c-0.3,0-0.5,0-0.8,0L219.2,316.2z"/>
				<path class="st5" d="M218,316.9c-0.3-0.1-0.8-0.2-1.3-0.3c0.1-0.1,0.2-0.1,0.3-0.2l0.8-0.4c0,0,0,0,0,0c0.8,0.2,1.3,0.3,1.3,0.3
					l0.1,0.3C218.8,316.6,218.4,316.7,218,316.9z"/>
				<path class="st5" d="M207.2,313.7c3.8,1.3,7.4,2.3,9.6,2.8c-6,3.7-22.4,12.5-43.5,12.5c-12.6,0-26.9-3.1-41.6-12.5
					c3.4-0.7,6.5-1.7,9.1-2.8c1.2,0.7,13.6,7.4,32.3,7.4C183,321.2,194.6,319.3,207.2,313.7z"/>
				<path class="st7" d="M211.2,238.6c0.2-0.2,0.4-0.5,0.7-0.6c0.3,0.2,0.8,0.5,1.3,1c0.8,0.8,1.7,2,1.7,3.5c0,1-0.4,2.1-1.3,3.3
					c-0.2,0.2-0.4,0.2-0.6,0.1s-0.2-0.4-0.1-0.6c0.8-1,1.1-2,1.1-2.7c0-1-0.5-1.9-1.2-2.6C212.1,239.2,211.4,238.7,211.2,238.6z"/>
				<path class="st7" d="M210.9,237.9c0.1-0.2,0.4-0.3,0.6-0.2c0,0,0.1,0.1,0.4,0.2c-0.2,0.2-0.5,0.4-0.7,0.6h0l-0.1-0.1
					C210.8,238.4,210.7,238.1,210.9,237.9z"/>
				<path class="st9" d="M210.6,231.5l0.2,0.2L210.6,231.5z"/>
				<path class="st8" d="M211,229.9c-0.1,0.7-0.3,1.2-0.4,1.6l-0.1-0.1l-0.1-0.1c0-0.1,0-0.2,0-0.3l-0.4,0l0,0l0-0.1
					C210.3,230.5,210.6,230.2,211,229.9z"/>
				<path class="st9" d="M210.5,232l0.5,0.4c-0.2,0.2-0.4,0.4-0.5,0.6c0-0.2,0-0.3,0-0.3l-0.2,0c0-0.1,0-0.3,0-0.4
					C210.4,232.2,210.4,232.2,210.5,232z"/>
				<polygon class="st8" points="210.5,231.4 210.6,231.4 210.5,231.4 				"/>
				<path class="st9" d="M210.6,231.5L210.6,231.5l-0.2,0.2c0-0.1,0-0.2,0-0.3L210.6,231.5L210.6,231.5z"/>
				<path class="st8" d="M210.6,231.5c0,0.2-0.1,0.4-0.1,0.5l0,0c0-0.1,0-0.2,0-0.3L210.6,231.5z"/>
				<path class="st9" d="M210.4,233.1c0-0.1,0-0.3,0-0.4l0.2,0c0,0,0,0.1,0,0.3C210.5,233.1,210.4,233.1,210.4,233.1L210.4,233.1
					L210.4,233.1z"/>
				<path class="st8" d="M210.5,231c0,0.1,0,0.2,0,0.3l-0.1-0.1l-0.3-0.3L210.5,231z"/>
				<path class="st8" d="M210.4,231.7c0,0.1,0,0.2,0,0.3l-0.1-0.1L210.4,231.7z"/>
				<path class="st8" d="M210.5,232c0,0.1-0.1,0.2-0.1,0.3C210.4,232.2,210.4,232.1,210.5,232L210.5,232z"/>
				<path class="st8" d="M210.4,231.3L210.4,231.3L210.4,231.3z"/>
				<path class="st8" d="M210.4,232c0,0.1,0,0.2,0,0.3l-0.1-0.4v0L210.4,232z"/>
				<path class="st9" d="M210.4,232.7c0,0.1,0,0.3,0,0.4l-0.7-0.5L210.4,232.7z"/>
				<path class="st9" d="M209.6,232.6c0,0,0.2-0.3,0.6-0.8l0.1,0.4c0,0.1,0,0.3,0,0.4L209.6,232.6z"/>
				<polygon class="st8" points="210.4,231.3 210.1,231 210.1,231 210.1,231 				"/>
				<path class="st8" d="M210.1,231l0.3,0.3l0.1,0.1v0c0,0.1,0,0.2,0,0.3l-0.2,0.2L210.1,231z"/>
				<polygon class="st8" points="210.1,230.9 210.1,231 210.1,231 				"/>
				<path class="st7" d="M210.3,231.9l-0.7-0.6c0,0,0,0,0,0c0,0,0-0.1,0-0.1c0-0.1,0-0.1,0-0.2l0.5,0v0L210.3,231.9z"/>
				<path class="st9" d="M210.4,233.1c-0.1,1.1-0.2,2.3-0.3,3.4l-0.9-0.1c0,0,0-0.1,0-0.2c0.3-2.1,0.4-3.7,0.4-3.7L210.4,233.1z"/>
				<path class="st7" d="M210.1,230.8l0,0.1L210.1,230.8C210,230.9,210,230.8,210.1,230.8z"/>
				<polygon class="st7" points="210,230.9 210.1,230.9 210.1,231 210,230.9 				"/>
				<path class="st9" d="M208.6,246.4c0.1-0.5,0.2-1,0.3-1.6v0v0c0-0.3,0.1-0.6,0.2-1v0c0.1-0.7,0.2-1.3,0.3-2v0
					c0-0.3,0.1-0.7,0.1-1.1c0.5-0.9,1-1.5,1.6-2.1h0c0.3,0.2,1,0.6,1.6,1.3c0.6,0.7,1.2,1.6,1.2,2.6c0,0.8-0.3,1.7-1.1,2.7
					c-0.2,0.2-0.1,0.5,0.1,0.6s0.5,0.1,0.6-0.1c1-1.2,1.3-2.3,1.3-3.3c0-1.5-0.9-2.7-1.7-3.5c-0.5-0.5-1-0.8-1.3-1
					c1.6-1.4,3.2-1.6,4.3-1.7c0.4,0,0.7,0,0.9,0.1l0.2,0l0.1,0h0c0.2,0.1,0.5,0,0.5-0.3c0.1-0.2,0-0.5-0.3-0.5c0,0-0.6-0.2-1.5-0.2
					c-1.5,0-4,0.6-6.3,3.3l0.1-0.5v0c0.1-0.5,0.1-1.1,0.2-1.6c0.1-1.1,0.3-2,0.3-2.7c0-0.4,0.1-0.7,0.1-0.8c0.1-0.1,0.3-0.3,0.5-0.6
					l-0.5-0.4c0-0.1,0.1-0.3,0.1-0.5l0,0l0.2,0.2l0.4,0.4c0.5-0.5,1.1-1,1.8-1.5c0.7-0.4,1.5-0.7,2.3-0.7c0.6,0,1.3,0.2,2.1,0.6
					c0.8,0.5,1.4,1.3,1.8,2.3s0.6,2.4,0.6,3.8c0,3.5-1.2,7.5-2.7,10c-1,1.5-2.1,2.8-3.4,3.7c-1.2,0.9-2.5,1.3-3.5,1.3
					c-1,0-1.8-0.3-2.5-1.2l0.4-1.9L208.6,246.4L208.6,246.4L208.6,246.4z"/>
				<path class="st7" d="M209.6,240.7c0.2-1.2,0.2-1.3,0.3-1.9c0,0,0,0,0,0c2.2-2.8,4.8-3.4,6.3-3.3c0.9,0,1.4,0.2,1.5,0.2
					c0.3,0.1,0.4,0.3,0.3,0.5c-0.1,0.3-0.3,0.4-0.5,0.3h0l-0.1,0l-0.2,0c-0.2,0-0.5-0.1-0.9-0.1c-1,0-2.6,0.3-4.3,1.7
					c-0.2-0.1-0.4-0.2-0.4-0.2c-0.2-0.1-0.5,0-0.6,0.2c-0.1,0.2,0,0.5,0.2,0.6l0.1,0.1C210.6,239.1,210.1,239.8,209.6,240.7z"/>
				<path class="st8" d="M209.6,231.2c0,0,0,0.1,0,0.1h0C209.6,231.3,209.6,231.2,209.6,231.2z"/>
				<path class="st7" d="M209.4,231.5c-0.1-0.1-0.2-0.3-0.4-0.5l0.6,0c0,0.1,0,0.1,0,0.2c0,0,0,0.1,0,0.1
					C209.5,231.4,209.5,231.4,209.4,231.5z"/>
				<path class="st8" d="M209.6,231.3c0,0.1,0,0.2,0,0.3C209.6,231.5,209.6,231.4,209.6,231.3z"/>
				<path class="st7" d="M209.6,231.7c0,0-0.1-0.1-0.1-0.2c0,0,0.1-0.1,0.1-0.2C209.6,231.4,209.6,231.5,209.6,231.7
					C209.6,231.6,209.6,231.6,209.6,231.7z"/>
				<path class="st7" d="M209.2,236.3c0.1-1.7,0.3-3.2,0.4-4.7c0-0.1,0-0.2,0-0.3h0c0,0,0,0,0,0l0.7,0.6v0c-0.4,0.5-0.6,0.8-0.6,0.8
					S209.5,234.2,209.2,236.3z"/>
				<polygon class="st7" points="209.1,243.8 209.1,243.8 208.4,243.7 				"/>
				<path class="st9" d="M210.1,236.6c0.1-1.2,0.2-2.3,0.3-3.4l0,0l0,0c0,0,0-0.1,0.1-0.1c0,0.2,0,0.5-0.1,0.8
					C210.3,234.5,210.2,235.5,210.1,236.6c0,0.5-0.1,1.1-0.2,1.6v0l-0.1,0.5c0,0,0,0,0,0c-0.4,0.5-0.8,1-1.1,1.6
					c0.1-0.5,0.1-1.1,0.2-1.6c0-0.2,0.1-0.4,0.1-0.6c0.1-0.5,0.1-1.1,0.2-1.6L210.1,236.6z"/>
				<path class="st8" d="M208.9,238.7c0-0.2,0-0.4,0.1-0.6C209,238.3,209,238.5,208.9,238.7z"/>
				<path class="st9" d="M208.9,241.8l-0.1,0.2c-0.1,0.2-0.2,0.3-0.4,0.3c0-0.2,0.1-0.5,0.1-0.7c0.1-0.4,0.1-0.8,0.2-1.2
					c0.3-0.6,0.7-1.1,1.1-1.6c-0.1,0.6-0.1,0.8-0.3,1.9C209.4,241,209.2,241.3,208.9,241.8L208.9,241.8z"/>
				<path class="st8" d="M208.9,238.7c0,0.5-0.1,1.1-0.2,1.6c0,0,0,0,0,0C208.8,239.8,208.9,239.2,208.9,238.7z"/>
				<path class="st9" d="M209,244.8c-0.1,0.6-0.2,1.1-0.3,1.6v-0.1C208.7,245.8,208.9,245.3,209,244.8l-0.9-0.2c0-0.3,0.1-0.6,0.2-1
					l0.1,0l0.8,0.1C209.1,244.2,209,244.5,209,244.8L209,244.8L209,244.8z"/>
				<path class="st7" d="M208.6,246.4c0-0.1,0-0.1,0-0.2L208.6,246.4L208.6,246.4L208.6,246.4L208.6,246.4z"/>
				<path class="st9" d="M208.7,230.9l0.3,0c0.2,0.2,0.3,0.4,0.4,0.5c-0.3,0.4-0.5,0.6-0.5,0.7l-0.1,0.2l0,0.2c0,0-0.1,1.3-0.4,3
					C208.5,233.9,208.6,232.4,208.7,230.9z"/>
				<path class="st9" d="M207.8,246.3h0.9c0,0.1,0,0.1,0,0.2L207.8,246.3z"/>
				<path class="st9" d="M208.9,242l0.1-0.2l0-0.1c0.2-0.4,0.4-0.8,0.6-1.1c0,0.4-0.1,0.7-0.1,1.1v0c-0.1,0.7-0.2,1.4-0.3,2
					l-0.8-0.1l-0.1,0v0c0.1-0.3,0.1-0.7,0.2-1c0-0.1,0.1-0.3,0.1-0.4C208.6,242.2,208.8,242.1,208.9,242z"/>
				<path class="st8" d="M208.5,241.6c0.1-0.4,0.1-0.8,0.2-1.3c0,0,0,0,0,0C208.7,240.7,208.6,241.1,208.5,241.6L208.5,241.6z"/>
				<path class="st8" d="M208.6,241.5c0,0.2-0.1,0.5-0.1,0.7h0C208.5,242,208.5,241.8,208.6,241.5L208.6,241.5z"/>
				<path class="st8" d="M208.5,242.2c0,0.1,0,0.3-0.1,0.4C208.4,242.5,208.4,242.4,208.5,242.2L208.5,242.2z"/>
				<path class="st9" d="M208.8,232.3l0.1-0.2c0,0,0.2-0.3,0.5-0.7c0,0.1,0.1,0.2,0.1,0.2c0,0,0-0.1,0-0.1c-0.1,1.5-0.2,3.1-0.4,4.7
					c0,0,0,0.1,0,0.2l-0.9-0.1c0-0.2,0-0.4,0.1-0.6c0-0.1,0-0.1,0-0.2c0.2-1.8,0.4-3,0.4-3L208.8,232.3z"/>
				<path class="st9" d="M208,241.6L208,241.6L208,241.6l0.3,0l0.3,0c0,0.2-0.1,0.4-0.1,0.6c-0.1,0-0.1,0-0.2,0
					C208,242.1,207.9,241.8,208,241.6z"/>
				<path class="st7" d="M208.1,241.5l0.2,0L208.1,241.5z"/>
				<path class="st9" d="M208.3,241.6l-0.2,0l-0.1,0l0.1-0.1l0-0.1c0.2-0.3,0.3-0.7,0.5-1c-0.1,0.4-0.1,0.8-0.2,1.3L208.3,241.6z"/>
				<polygon class="st8" points="208.1,241.5 208.1,241.5 208.1,241.5 				"/>
				<path class="st5" d="M207.2,313.7c0.3-0.1,0.5-0.4,0.5-0.7c4.3,1.5,8.2,2.5,10.1,3l-0.8,0.4c-0.1,0.1-0.2,0.1-0.3,0.2
					C214.6,316,211,315,207.2,313.7C207.2,313.7,207.2,313.7,207.2,313.7z"/>
				<path class="st9" d="M208.9,238.7c-0.1,0.5-0.1,1.1-0.2,1.7c-0.2,0.3-0.4,0.6-0.5,1l0,0.1l-0.1,0.1h0l-0.2,0l-0.2,0
					c0.2-1.2,0.3-2.4,0.5-3.5c0.1-0.5,0.1-1.1,0.2-1.6c0-0.2,0-0.4,0.1-0.6c0,0.2,0,0.4-0.1,0.6l0.9,0.1c-0.1,0.5-0.1,1-0.2,1.6
					C209,238.3,209,238.5,208.9,238.7z"/>
				<path class="st9" d="M207.6,244.6l0.5,0.1L207.6,244.6z"/>
				<path class="st7" d="M208.1,244.6c-0.1,0.5-0.2,1-0.3,1.5C207.9,245.6,208,245.1,208.1,244.6z"/>
				<polygon class="st8" points="208.1,241.5 208.1,241.5 208,241.5 				"/>
				<path class="st9" d="M207.3,248.5l0.5-2.3v0l0.9,0.2h0l-0.5,2.3l-0.4,1.9c0,0,0,0,0-0.1c0.2-0.6,0.3-1.2,0.4-1.8L207.3,248.5z"
					/>
				<path class="st9" d="M208.1,244.6l0.9,0.1c-0.1,0.5-0.2,1-0.3,1.5h-0.9c0-0.1,0-0.1,0-0.2C207.9,245.7,208,245.2,208.1,244.6z"
					/>
				<path class="st9" d="M217.9,247.2c-2.8,4.5-7.6,7-10.5,4.3c0-0.2,0.1-0.4,0.1-0.6l0.1,0l0.1-0.4c0.7,0.8,1.5,1.2,2.5,1.2
					c1,0,2.3-0.5,3.5-1.3c1.2-0.9,2.4-2.1,3.4-3.7c1.6-2.5,2.7-6.6,2.7-10c0-1.4-0.2-2.8-0.6-3.8s-1-1.8-1.8-2.3
					c-0.8-0.4-1.4-0.6-2.1-0.6c-0.8,0-1.6,0.3-2.3,0.7c-0.7,0.4-1.3,1-1.8,1.5l-0.4-0.4l-0.2-0.2c1.4-1.5,4.2-3.5,7.3-1.7
					C222.4,232.5,221,242.3,217.9,247.2z"/>
				<polygon class="st7" points="207.8,241.5 207.6,241.5 207.6,241.4 				"/>
				<path class="st9" d="M207.8,246.1c0,0.1,0,0.1,0,0.2l-0.9-0.2c0.1-0.5,0.2-1.1,0.3-1.6l0.4,0.1l0.5,0.1
					C208,245.1,207.9,245.6,207.8,246.1z"/>
				<path class="st9" d="M207.8,250.6l-0.1,0.4l-0.1,0C207.7,250.8,207.7,250.7,207.8,250.6C207.8,250.5,207.8,250.6,207.8,250.6z"
					/>
				<path class="st9" d="M210.6,231.5c0.1-0.4,0.2-0.9,0.4-1.6c0.4-0.3,0.8-0.6,1.2-0.8c0.9-0.5,2-0.9,3.3-0.9c1,0,2,0.3,3,0.9v0
					c1.2,0.7,2.1,1.9,2.6,3.2c0.5,1.3,0.7,2.9,0.7,4.5c0,3.8-1.2,8.1-3,11c-1.1,1.7-2.4,3.2-3.9,4.2c-1.4,1-3,1.7-4.6,1.7
					c-1.1,0-2.1-0.3-3-1v0c0.1-0.3,0.2-0.6,0.3-1c2.9,2.7,7.6,0.2,10.5-4.3c3.1-4.9,4.5-14.7,0-17.4
					C214.8,228,212,230.1,210.6,231.5z"/>
				<path class="st9" d="M207.7,250.5c0,0.2-0.1,0.3-0.1,0.5l-0.8-0.2l0.7-0.5C207.6,250.4,207.7,250.5,207.7,250.5z"/>
				<polygon class="st9" points="207.2,244.5 207.6,244.6 207.2,244.5 				"/>
				<path class="st9" d="M207.6,251c0,0.2-0.1,0.4-0.1,0.6c-0.2-0.2-0.5-0.4-0.7-0.7L207.6,251z"/>
				<path class="st9" d="M207.6,241.5l0.2,0l0.2,0l0,0l0,0c-0.1,0.2,0,0.5,0.2,0.6c0.1,0,0.1,0,0.2,0c0,0.1,0,0.3-0.1,0.4
					c0,0.3-0.1,0.7-0.2,1v0c0,0.3-0.1,0.7-0.2,1l-0.5-0.1l-0.4-0.1h0c0-0.3,0.1-0.6,0.2-1v0v0C207.4,242.9,207.5,242.2,207.6,241.5z
					"/>
				<rect x="207.2" y="244.5" class="st7" width="0" height="0"/>
				<path class="st9" d="M207.3,248.5l0.9,0.2c-0.1,0.6-0.3,1.2-0.4,1.8c-0.1-0.1-0.1-0.2-0.2-0.2l-0.7,0.5L207.3,248.5z"/>
				<path class="st5" d="M207.8,313c0,0.3-0.2,0.6-0.5,0.7c0,0,0,0-0.1,0c-0.2-0.1-0.4-0.1-0.5-0.2c-0.2-0.1-0.5-0.2-0.7-0.3
					c0.3-0.1,0.6-0.3,0.9-0.4l0.1-0.2C207.2,312.8,207.5,312.9,207.8,313z"/>
				<path class="st9" d="M207.8,246.3l-0.5,2.3l-0.9-0.2c0,0.2-0.1,0.5-0.2,0.7l0.1-0.7l0.4-2.2v0l0-0.1c0.1-0.5,0.2-1,0.3-1.6h0
					c-0.1,0.5-0.2,1.1-0.3,1.6L207.8,246.3L207.8,246.3z"/>
				<path class="st5" d="M207.7,312.5c0.1,0.2,0.1,0.3,0,0.5c-0.3-0.1-0.5-0.2-0.8-0.3c-0.3-0.1-0.7-0.3-1-0.4
					c0.2-0.1,0.4-0.2,0.6-0.3C207,311.9,207.5,312.1,207.7,312.5z"/>
				<path class="st9" d="M207.5,251.5c-0.1,0.3-0.2,0.6-0.3,1c-0.3-0.2-0.5-0.4-0.7-0.7c0.3-1.1,0.6-2.2,0.8-3.3l-0.5,2.3
					C207,251.1,207.3,251.3,207.5,251.5z"/>
				<path class="st9" d="M205.9,251l0.4-2c0.1-0.2,0.1-0.5,0.2-0.7l0.9,0.2c-0.2,1.1-0.5,2.2-0.8,3.3c-0.1-0.2-0.3-0.3-0.4-0.5
					L205.9,251z"/>
				<path class="st9" d="M201.6,213.3c1.7,9.3,6,15.5,7.5,17.6l-0.3,0c-0.1,1.5-0.2,3-0.3,4.7c0,0.1,0,0.1,0,0.2
					c0,0.2-0.1,0.4-0.1,0.6c-0.1,0.5-0.1,1-0.2,1.6c-0.1,1.1-0.3,2.3-0.5,3.5v0c-0.1,0.7-0.2,1.4-0.3,2v0v0c0,0.3-0.1,0.6-0.2,1v0
					c-0.1,0.6-0.2,1.1-0.3,1.6l0,0.1v0l-0.4,2.2l-0.1,0.7c-2.5,11-7.3,22.1-16.2,28.2c0,0,0,0,0,0c-0.1,0-0.2,0.1-0.3,0.2
					c0,0,0,0,0,0c-2.4,1.5-4.6,2.6-7.1,3.3c-2.7,0.8-5.7,1.2-9,1.2c-6.6,0-11.9-1.7-16.3-4.6c-0.1-0.1-0.2-0.2-0.3-0.2
					c-3.9-2.8-6.7-5.9-9-9.4c-2.5-3.8-4.4-8-5.9-12.5c-3-8.8-4.2-18.3-4.7-25.4l-0.9,0.1c1.5-2.1,5.6-8.5,7.5-16.6H201.6z"/>
				<path class="st5" d="M206.9,312.9c-0.3,0.1-0.6,0.3-0.9,0.4c-0.4-0.2-0.8-0.3-1.3-0.5c0.4-0.2,0.8-0.3,1.2-0.5
					c0.3,0.1,0.7,0.3,1,0.4L206.9,312.9z"/>
				<path class="st9" d="M202.2,265.6c-2.5,4.8-5.8,9.1-11,12.9v-0.5v0c0-0.2-0.1-0.4-0.2-0.5c8.1-5.8,12.8-15.7,15.4-25.7
					c0.2,0.3,0.5,0.5,0.7,0.7v0C206,257,204.4,261.5,202.2,265.6z"/>
				<path class="st7" d="M191.3,301.4v0.1h-0.9L191.3,301.4C191.3,301.4,191.3,301.4,191.3,301.4z"/>
				<path class="st9" d="M190.9,278.8c-0.2,0.1-0.3,0.2-0.5,0.3v-1c0.3-0.2,0.5-0.3,0.7-0.5c0.1,0.1,0.2,0.3,0.2,0.5v0v0.5
					C191.1,278.6,191,278.7,190.9,278.8z"/>
				<path class="st5" d="M190.4,283.4l0-0.2v-4c0.2-0.1,0.3-0.2,0.5-0.3c0.1-0.1,0.3-0.2,0.4-0.3v4.6c0,0.2-0.1,0.4-0.2,0.6
					C190.9,283.5,190.7,283.4,190.4,283.4z"/>
				<path class="st9" d="M191.3,284.3v17.1c0,0,0,0,0-0.1l-0.9,0.2v-17.3c0-0.1,0-0.2,0.1-0.3c0.3,0,0.5-0.1,0.6-0.3
					C191.2,283.9,191.3,284.1,191.3,284.3z"/>
				<path class="st9" d="M207.2,311.9c4.8,1.7,9.2,2.8,11.1,3.3c0.6,0.2,1,0.2,1,0.2c0.2,0,0.3,0.1,0.4,0.2c-0.2,0-0.4,0-0.6,0
					c-0.1,0-0.2,0-1.2,0.3c0,0,0,0,0,0c-1.9-0.5-5.8-1.5-10.1-3c0-0.1,0-0.3,0-0.5c-0.2-0.5-0.7-0.7-1.2-0.5
					c-0.2,0.1-0.4,0.2-0.6,0.3c-7.1-2.6-14.5-6.3-15.5-10.8h0.9v-0.1c0.2,0.9,0.8,1.9,1.7,2.9s2.2,2,3.7,2.9
					C199.8,309,203.6,310.6,207.2,311.9z"/>
				<path class="st9" d="M190.1,277.2c8.9-6,13.7-17.1,16.2-28.2l-0.4,2l0.2,0.3c0.1,0.2,0.3,0.3,0.4,0.5
					c-2.6,10-7.3,19.9-15.4,25.7c-0.2-0.3-0.4-0.4-0.7-0.4C190.3,277.1,190.2,277.2,190.1,277.2z"/>
				<path class="st5" d="M190.4,283.4c0.3,0,0.5,0.1,0.6,0.3c-0.2,0.2-0.4,0.3-0.6,0.3c0-0.1,0-0.2,0.1-0.3L190.4,283.4z"/>
				<path class="st5" d="M190.4,283.4l0.1,0.4c0,0.1,0,0.2-0.1,0.3c0,0,0,0-0.1,0L190.4,283.4C190.4,283.4,190.4,283.4,190.4,283.4z
					"/>
				<path class="st7" d="M190.5,284c0,0.1,0,0.2-0.1,0.3L190.5,284C190.4,284,190.4,284,190.5,284z"/>
				<path class="st7" d="M190.4,283.1l0,0.2c0,0,0,0,0,0V283.1z"/>
				<path class="st9" d="M191.7,305.5c-1.1-1.1-1.9-2.4-2.2-3.8l0-0.2v-14.8c0.3-0.7,0.7-1.5,0.9-2.4v17.3c1,4.5,8.4,8.2,15.5,10.8
					c-0.4,0.2-0.8,0.4-1.2,0.5C199.7,311,194.6,308.5,191.7,305.5z"/>
				<path class="st5" d="M190.4,284v0.3c-0.2,0.9-0.5,1.7-0.9,2.4v-2.4c0-0.2,0.1-0.4,0.2-0.6C189.9,283.9,190.1,284,190.4,284z"/>
				<path class="st5" d="M190.4,283.4v0.7c-0.3,0-0.5-0.1-0.7-0.3C189.9,283.5,190.1,283.4,190.4,283.4z"/>
				<path class="st5" d="M190.4,279.1v4l-0.8-3.5C189.9,279.4,190.1,279.3,190.4,279.1z"/>
				<path class="st9" d="M189.5,279.3v-0.7c0.3-0.2,0.6-0.4,0.9-0.6v1c-0.3,0.2-0.5,0.3-0.8,0.5L189.5,279.3
					C189.5,279.3,189.5,279.3,189.5,279.3z"/>
				<path class="st5" d="M189.5,283.1v-3.5c0,0,0.1,0,0.1-0.1l0.8,3.5v0.2c-0.3,0-0.5,0.1-0.7,0.3
					C189.6,283.6,189.5,283.4,189.5,283.1z"/>
				<path class="st9" d="M190,277.2c0,0-0.1,0.1-0.1,0.1c0,0-0.1,0.1-0.1,0.1C189.8,277.3,189.9,277.3,190,277.2z"/>
				<path class="st9" d="M189.5,279.3l0.1,0.3c0,0-0.1,0-0.1,0.1L189.5,279.3C189.5,279.3,189.5,279.3,189.5,279.3z"/>
				<path class="st9" d="M189.9,277.3c0,0,0.1-0.1,0.1-0.1c0,0,0,0,0,0c0.1,0,0.2-0.1,0.3-0.1c0.3,0,0.6,0.2,0.7,0.4
					c-0.2,0.2-0.5,0.3-0.7,0.5c-0.3,0.2-0.6,0.4-0.9,0.6v-0.6v0c0-0.2,0.1-0.5,0.3-0.6c0,0,0,0,0,0
					C189.8,277.4,189.9,277.4,189.9,277.3z"/>
				<path class="st9" d="M157.5,280.7c2.2,3.9,8.9,14,20.5,13.2c0,0,8.1-0.1,11.5-7.2v14.8l0,0.2c0.3,1.4,1.1,2.7,2.2,3.8
					c2.9,3,8,5.4,13,7.3c-11.7,4.9-22.4,6.5-31.6,6.5c-9.6,0-17.5-1.8-23-3.6c-2.8-0.9-4.9-1.8-6.3-2.5c-0.3-0.2-0.6-0.3-0.9-0.4
					c6.3-3.2,8.9-5.2,10.7-6.8c2.6-2.3,3.7-4,3.8-4c0.1-0.2,0.1-0.3,0.1-0.5V280.7z"/>
				<path class="st9" d="M173.6,282c3.3,0,6.3-0.4,9-1.2c2.5-0.8,4.8-1.8,7.1-3.3c-0.2,0.2-0.3,0.4-0.3,0.6v0v0.6
					c-4.3,2.7-9.6,4.3-15.9,4.3c-6.4,0-11.7-1.6-16.1-4.3V278c0-0.3-0.1-0.5-0.2-0.6C161.7,280.3,167,282,173.6,282z"/>
				<path class="st9" d="M173.6,282.9c6.3,0,11.6-1.6,15.9-4.3v0.7c-0.7,0.5-13,8.6-32,0.3v-1C161.9,281.3,167.2,282.9,173.6,282.9z
					"/>
				<path class="st9" d="M157.5,279.6c19,8.3,31.3,0.2,32-0.3v0.4c-4.4,2.6-9.6,4.1-15.9,4.1C167.3,283.8,162,282.2,157.5,279.6
					L157.5,279.6z"/>
				<path class="st5" d="M189.5,283.1c0,0.2,0.1,0.4,0.2,0.6c-0.1,0.2-0.2,0.3-0.2,0.6v2.4c-3.4,7.2-11.5,7.2-11.5,7.2
					c-11.5,0.8-18.3-9.3-20.5-13.2v-1.1c4.5,2.6,9.8,4.2,16.1,4.2c6.3,0,11.5-1.5,15.9-4.1V283.1z"/>
				<path class="st7" d="M157.5,279.6L157.5,279.6c-0.1,0-0.1,0-0.2-0.1C157.4,279.5,157.5,279.6,157.5,279.6z"/>
				<path class="st9" d="M156.6,278c0.3,0.2,0.6,0.4,0.9,0.6v1c0,0-0.1,0-0.2-0.1c-0.3-0.1-0.5-0.3-0.7-0.4V278z"/>
				<path class="st9" d="M157,277.2c0.1,0,0.2,0.1,0.3,0.2c0.1,0.2,0.2,0.4,0.2,0.6v0.6c-0.3-0.2-0.6-0.4-0.9-0.6
					c-0.3-0.2-0.5-0.3-0.7-0.5c0.2-0.2,0.4-0.4,0.7-0.4C156.8,277.1,156.9,277.1,157,277.2z"/>
				<path class="st5" d="M157.5,280.7c-0.5-0.9-0.8-1.5-0.8-1.5c0.2,0.1,0.4,0.2,0.6,0.3c0.1,0,0.1,0.1,0.2,0.1V280.7z"/>
				<path class="st7" d="M156.6,301.5h-0.9v-0.3c0.1-0.1,0.1-0.2,0.1-0.2v0L156.6,301.5z"/>
				<path class="st9" d="M156.6,278v1.1c-0.2-0.1-0.3-0.2-0.5-0.3c-0.1-0.1-0.3-0.2-0.4-0.3V278c0-0.2,0.1-0.4,0.2-0.5
					C156.2,277.7,156.4,277.8,156.6,278z"/>
				<path class="st9" d="M156.1,278.7c0.2,0.1,0.3,0.2,0.5,0.3v22.5l-0.8-0.5v0c0,0-0.1,0.1-0.1,0.2v-22.8
					C155.9,278.6,156,278.6,156.1,278.7z"/>
				<path class="st9" d="M153.6,306.1c-1.8,1.7-4.4,3.6-10.7,6.8c-0.3-0.2-0.6-0.3-0.8-0.4c-0.1,0-0.2-0.1-0.2-0.1
					c10.6-4.6,14.7-10.8,14.7-10.8v-22.5c0.2,0.2,0.5,0.3,0.7,0.4c-0.2-0.1-0.4-0.2-0.6-0.3c0,0,0.3,0.6,0.8,1.5v20.8
					c0,0.2,0,0.3-0.1,0.5C157.4,302.1,156.2,303.8,153.6,306.1z"/>
				<path class="st5" d="M141.9,313.4l1.1-0.5c0.3,0.1,0.5,0.3,0.9,0.4c1.5,0.7,3.6,1.6,6.3,2.5c5.5,1.8,13.4,3.6,23,3.6
					c9.2,0,19.9-1.6,31.6-6.5c0.4,0.2,0.8,0.3,1.3,0.5C172.4,327.7,146.4,315.7,141.9,313.4z"/>
				<path class="st5" d="M141.9,313.4c4.6,2.4,30.6,14.3,64.1-0.1c0.2,0.1,0.5,0.2,0.7,0.3c0.2,0.1,0.4,0.1,0.5,0.2
					c-12.6,5.6-24.2,7.4-34.1,7.4c-18.7,0-31.2-6.7-32.3-7.4c0.2-0.1,0.4-0.2,0.6-0.3C141.5,313.5,141.7,313.4,141.9,313.4z"/>
				<path class="st5" d="M141,312.7c0.3-0.1,0.6-0.3,0.9-0.4c0.1,0,0.1,0.1,0.2,0.1c0.2,0.1,0.5,0.3,0.8,0.4l-1.1,0.5
					c-0.5-0.3-0.7-0.4-0.7-0.4L141,312.7z"/>
				<path class="st5" d="M141.9,313.4c-0.2,0.1-0.3,0.1-0.5,0.2c-0.2,0.1-0.4,0.2-0.6,0.3c-0.1,0-0.1-0.1-0.1-0.1
					c-0.3-0.2-0.4-0.4-0.4-0.7c0.3-0.1,0.5-0.2,0.8-0.3l0.1,0.2C141.1,313,141.4,313.1,141.9,313.4z"/>
				<path class="st5" d="M141.9,312.4c-0.3,0.1-0.6,0.2-0.9,0.4c-0.3,0.1-0.5,0.2-0.8,0.3c0-0.2,0-0.4,0.1-0.5
					c0.3-0.4,0.8-0.6,1.2-0.3l0.1,0.1C141.8,312.3,141.8,312.3,141.9,312.4z"/>
				<path class="st5" d="M140.8,313.8c-2.7,1.1-5.7,2-9.1,2.8c-0.4-0.2-0.7-0.5-1.1-0.7c3.7-0.8,6.9-1.7,9.7-2.8
					C140.3,313.3,140.4,313.6,140.8,313.8C140.7,313.8,140.7,313.8,140.8,313.8z"/>
				<path class="st7" d="M209.1,230.9c-1.5-2.1-5.8-8.3-7.5-17.6H144c-1.8,8.2-6,14.5-7.5,16.6c-0.5-7-0.2-11.9-0.2-11.9
					s-2-38.6,38.7-38.6c37.8,0,34.7,38.6,34.7,38.6s0.3,4.5,0,11.2v0c0,0.6,0,1.1-0.1,1.7L209.1,230.9z"/>
				<path class="st9" d="M155.9,277.5c-14.6-10.4-18.4-33.4-19.4-47.5l0.9-0.1c0.5,7.2,1.7,16.6,4.7,25.4c1.5,4.4,3.4,8.7,5.9,12.5
					c2.3,3.5,5.1,6.6,9,9.4c-0.1,0-0.2-0.1-0.3-0.1C156.3,277.1,156.1,277.3,155.9,277.5z"/>
				<path class="st9" d="M136.5,229.9c1,14.2,4.8,37.2,19.4,47.5c-0.1,0.1-0.2,0.3-0.2,0.5v0.5c-7.6-5.2-12.3-13.7-15.3-22.6
					c-2.8-8.4-4.1-17.1-4.6-24.1c0.1,0.4,0.2,0.5,0.2,0.5l0.2-1.8C136.2,230.4,136.4,230.2,136.5,229.9z"/>
				<path class="st7" d="M135.7,230l0.9-0.1c-0.2,0.3-0.3,0.5-0.4,0.6l-0.2,1.8c0,0-0.1-0.2-0.2-0.5
					C135.8,231.2,135.7,230.6,135.7,230z"/>
				<path class="st8" d="M136.3,218.1c0,0-0.3,4.8,0.2,11.9l-0.9,0.1c0,0.6,0.1,1.2,0.1,1.8c-1.4-4.9-10.5-41.2,17.9-55.4
					c6.9-3.4,13.3-4.7,19.2-4.5c5.9-0.2,12.3,1,19.2,4.5c26.1,13,20.9,44.7,18.8,53.6c-0.4,0.3-0.7,0.6-0.9,0.9l-0.4-1.5v0
					c0.3-6.7,0-11.2,0-11.2s3.1-38.6-34.7-38.6C134.4,179.5,136.3,218.1,136.3,218.1z"/>
				<path class="st5" d="M217.6,317.1c-9.1,5.7-46.7,25.9-87.2-0.3c0.4-0.1,0.8-0.2,1.3-0.3c14.7,9.3,29,12.5,41.6,12.5
					c21,0,37.5-8.8,43.5-12.5c0.5,0.1,0.9,0.2,1.3,0.3C217.9,317,217.7,317,217.6,317.1z"/>
				<path class="st5" d="M131.7,316.6c-0.4,0.1-0.8,0.2-1.3,0.3c-0.1-0.1-0.3-0.2-0.4-0.3l0.4-0.6c0.1,0,0.1,0,0.2,0
					C130.9,316.1,131.3,316.3,131.7,316.6z"/>
				<path class="st5" d="M130.5,315.8c0,0,0.1,0.1,0.1,0.1c-0.1,0-0.1,0-0.2,0L130.5,315.8z"/>
				<polygon class="st5" points="130.5,315.8 130.4,315.9 130.5,315.8 				"/>
				<path class="st5" d="M130.4,315.9l-0.4,0.6L130.4,315.9C130.4,315.9,130.4,315.9,130.4,315.9z"/>
				<path class="st5" d="M130.4,315.9l-0.4,0.6c-0.3-0.2-0.6-0.3-1-0.4C129.5,316.1,129.9,316,130.4,315.9z"/>
				<path class="st5" d="M129,316.2l0.2-0.9c0.4,0.1,0.9,0.2,1.3,0.5l-0.1,0.1c0,0,0,0,0,0C129.9,316,129.5,316.1,129,316.2z"/>
				<path class="st9" d="M140.7,311.9c9.8-4,14.2-9.6,15.1-10.7v0.3h0.9c0,0-4.2,6.2-14.7,10.8c-0.1,0-0.1-0.1-0.2-0.1l-0.1-0.1
					c-0.4-0.3-1-0.1-1.2,0.3c-0.1,0.2-0.1,0.4-0.1,0.5c-2.8,1.1-6,2.1-9.7,2.8c0,0-0.1,0-0.1-0.1h0c-0.4-0.3-0.8-0.4-1.3-0.5
					c0,0,0,0-0.1,0c0,0-0.1,0-0.1,0h0C133.6,314.4,137.5,313.2,140.7,311.9z"/>
				<path class="st5" d="M129.2,315.3l-0.2,0.9L129.2,315.3C129.1,315.3,129.2,315.3,129.2,315.3z"/>
				<path class="st5" d="M129,316.2v-0.9c0,0,0.1,0,0.1,0L129,316.2z"/>
				<path class="st5" d="M129,316.2l-0.2-0.9c0,0,0,0,0,0c0,0,0,0,0.1,0h0h0V316.2z"/>
				<path class="st5" d="M173.3,330.8c-13.3,0-28.4-3.4-43.8-13.5v0c-0.2-0.1-0.4-0.2-0.6-0.2c0,0,0,0,0.1,0h0h0.2
					c0.4-0.1,0.8-0.2,1.3-0.2c40.4,26.2,78,6,87.2,0.3c0.1-0.1,0.3-0.2,0.4-0.2c0.6,0.1,1,0.2,1,0.2c0.5,0.1,0.9-0.2,1-0.6
					c0.7,0,1.4,0.2,2.1,0.6c8.7,5,37.6,24,38.2,53.4c-0.1,0-0.4,0-0.9,0c-0.3-14.2-7.4-26-15.6-34.9c-8.4-9.1-17.8-15.2-22.2-17.7
					c-0.6-0.3-1.2-0.5-1.8-0.5c-0.2,0-0.3,0-0.5,0c-0.4,0.1-0.9,0.2-1.3,0.5l0,0C212.2,321.5,195.3,330.8,173.3,330.8z"/>
				<path class="st5" d="M128.9,317.1c0,0-0.1,0-0.1,0c-0.4-0.1-0.7-0.4-0.7-0.9c0.3-0.1,0.6-0.1,0.9,0c0.3,0,0.7,0.2,1,0.4
					c0.1,0.1,0.3,0.2,0.4,0.3c-0.4,0.1-0.8,0.2-1.3,0.2H129H128.9C128.9,317.1,128.9,317.1,128.9,317.1z"/>
				<path class="st5" d="M128.8,315.3l0.2,0.9c-0.3-0.1-0.6-0.1-0.9,0v0C128.1,315.7,128.4,315.3,128.8,315.3z"/>
				<path class="st5" d="M127.9,317.2c0.2-0.1,0.5-0.2,0.7-0.2l0.2,0c0,0,0.1,0,0.1,0c0.2,0,0.4,0.1,0.6,0.2v0
					c15.4,10.1,30.5,13.5,43.8,13.5c22,0,39-9.3,44.8-12.9l0,0c0.4-0.3,0.9-0.4,1.3-0.5c0.2,0,0.3,0,0.5,0c0.6,0,1.2,0.2,1.8,0.5
					c4.3,2.5,13.8,8.6,22.2,17.7c8.2,8.9,15.3,20.7,15.6,34.9c-8.8-0.1-79.6-0.9-127.4-0.9c-12.4,0-23.3,0.1-31.2,0.2
					c-3.9,0.1-7,0.2-9.2,0.3c-1,0-1.9,0.1-2.5,0.2c0.4-14.8,8.1-27,16.8-36C114.7,325,124.4,319.1,127.9,317.2L127.9,317.2z"/>
				<path class="st5" d="M128.8,315.3c-0.4,0-0.8,0.4-0.8,0.9v0c-0.2,0-0.5,0.1-0.7,0.3l0-0.1l0-0.1l-0.1-0.2h0l-0.1-0.2l-0.1-0.2
					c0.5-0.3,1-0.4,1.6-0.4c0.1,0,0.3,0,0.4,0C128.9,315.3,128.9,315.3,128.8,315.3C128.9,315.3,128.9,315.3,128.8,315.3z"/>
				<polygon class="st5" points="127,315.7 127.1,315.9 127,315.7 				"/>
				<path class="st5" d="M132,369.6c47.8,0,118.6,0.8,127.4,0.9c0,0.3,0,0.6,0,0.9c-12.7-0.1-157.6-1.8-170.3-0.3c0-0.3,0-0.6,0-0.9
					c0.6-0.1,1.5-0.1,2.5-0.2c2.2-0.1,5.3-0.2,9.2-0.3C108.6,369.6,119.5,369.6,132,369.6z"/>
				<path class="st5" d="M89,371.1c12.8-1.5,157.6,0.1,170.3,0.3v0h0.9c0,0,0,0,0,0l0-0.9c0,0,0,0,0,0
					c-0.6-29.4-29.5-48.4-38.2-53.4c-0.6-0.4-1.3-0.6-2.1-0.6c0,0,0,0,0,0c0.1-0.3,0-0.7-0.3-0.9c0,0,0.1,0,0.1,0
					c0.9,0,1.9,0.3,2.7,0.7h0c4.4,2.6,14,8.7,22.6,18c8.5,9.3,16,21.8,16,37.1c0,0.2-0.1,0.5-0.3,0.6s-0.4,0.3-0.6,0.3
					c0,0-1.2,0-3.4,0c-2.2,0-5.4-0.1-9.5-0.1c-8-0.1-19.3-0.2-32.2-0.3c-25.7-0.2-57.8-0.5-83.3-0.5c-10.4,0-19.7,0-27,0.1
					c-7.3,0.1-12.7,0.2-15.1,0.4c-0.5,0-0.9,0.1-1.1,0.1c0,0,0,0,0.1,0c0.1-0.1,0.1-0.2,0.2-0.3v0c0,0,0-0.1,0-0.2c0,0,0,0,0,0
					c0,0,0-0.1,0-0.1v0C89,371.3,89,371.2,89,371.1z"/>
				<path class="st5" d="M89,371.1c0,0.1,0,0.1,0,0.2C89,371.3,89,371.2,89,371.1C89,371.1,89,371.1,89,371.1z"/>
				<path class="st5" d="M88.2,370.4c0.7-30.7,32.4-50.1,39.3-53.9c0.2-0.1,0.4-0.2,0.7-0.3c0,0.4,0.3,0.8,0.7,0.9l-0.2,0
					c-0.2,0-0.5,0.1-0.7,0.2h0c-3.4,1.9-13.2,7.8-22,17c-8.6,9-16.4,21.1-16.8,36c0,0,0,0-0.1,0C88.7,370.3,88.4,370.3,88.2,370.4
					L88.2,370.4z"/>
				<path class="st5" d="M88.8,371.9C88.8,371.9,88.8,371.9,88.8,371.9C88.8,371.9,88.8,371.9,88.8,371.9
					C88.8,371.9,88.8,371.9,88.8,371.9z"/>
				<path class="st5" d="M88.8,371.9C88.8,371.9,88.8,372,88.8,371.9C88.8,372,88.8,372,88.8,371.9C88.8,372,88.8,372,88.8,371.9
					C88.8,371.9,88.8,371.9,88.8,371.9z"/>
				<path class="st5" d="M88.8,372C88.8,372,88.8,372,88.8,372C88.8,372,88.8,372,88.8,372C88.8,372,88.8,372,88.8,372z"/>
				<path class="st5" d="M88.8,372C88.7,372,88.7,372,88.8,372L88.8,372C88.7,372,88.7,372,88.8,372C88.8,372,88.8,372,88.8,372z"/>
				<path class="st5" d="M88.7,372C88.7,372,88.7,372,88.7,372C88.7,372,88.7,372,88.7,372z"/>
				<rect x="88.7" y="372" class="st5" width="0" height="0"/>
				<path class="st5" d="M88.8,371.9c0,0,0.1-0.1,0.1-0.2c0,0,0-0.1,0.1-0.2c0,0.1,0,0.1,0,0.2v0c0,0.1-0.1,0.2-0.2,0.3
					c0,0,0,0-0.1,0v0c0,0,0,0,0,0s0,0-0.1,0c0,0,0,0,0,0l0,0h0c0,0,0,0,0,0C88.8,372,88.8,371.9,88.8,371.9
					C88.8,371.9,88.8,371.9,88.8,371.9z"/>
				<path class="st5" d="M88.7,372.1C88.7,372.1,88.7,372.1,88.7,372.1L88.7,372.1z"/>
				<polygon class="st5" points="88.6,372.1 88.6,372.1 88.6,372.1 				"/>
				<polygon class="st5" points="88.5,372 88.6,372.1 88.6,372.1 				"/>
				<path class="st5" d="M88.5,372.1c0,0-0.1,0-0.1,0C88.5,372.2,88.5,372.2,88.5,372.1z"/>
				<path class="st5" d="M88.5,372L88.5,372l0-0.1l-0.1-0.2l-0.1-0.2l0.2,0.3h0l0,0l0,0.1l0,0v0c0,0,0,0,0,0
					C88.6,372.1,88.6,372.1,88.5,372L88.5,372C88.6,372.1,88.6,372.1,88.5,372L88.5,372z"/>
				<path class="st5" d="M88.4,372.2C88.4,372.2,88.3,372.2,88.4,372.2C88.3,372.2,88.4,372.2,88.4,372.2z"/>
				<polygon class="st5" points="88.3,371.5 88.4,371.6 88.3,371.6 				"/>
				<path class="st5" d="M88.1,371.3c0-0.3,0-0.6,0-0.9c0,0,0,0,0.1,0v0c0.2,0,0.4,0.1,0.6,0.3c0,0,0.1,0.1,0.1,0.1
					c0,0,0,0.1,0.1,0.1c0,0.1,0,0.1,0,0.2C88.5,371.2,88.2,371.3,88.1,371.3z"/>
				<path class="st5" d="M88.8,371.9C88.8,372,88.8,372,88.8,371.9C88.8,372,88.8,372,88.8,371.9C88.7,372,88.7,372,88.8,371.9
					l-0.1,0.1l0,0l0-0.1l0,0h0l-0.2-0.3l0,0l-0.1-0.1l0.7,0.3C88.9,371.8,88.9,371.8,88.8,371.9C88.8,371.9,88.8,371.9,88.8,371.9z"
					/>
				<polygon class="st5" points="88.2,371.4 88.2,371.4 88.2,371.4 				"/>
				<path class="st5" d="M89.1,370.2c0,0.3,0,0.6,0,0.9c0,0,0,0,0,0c0-0.1,0-0.1,0-0.2c0,0,0-0.1-0.1-0.1c0,0-0.1-0.1-0.1-0.1
					c-0.2-0.1-0.4-0.2-0.6-0.3v0c0,0,0,0-0.1,0c0,0,0,0,0-0.1l0,0C88.4,370.3,88.7,370.3,89.1,370.2C89,370.2,89,370.2,89.1,370.2z"
					/>
				<path class="st5" d="M87.9,370.4l0.3-0.1c0,0,0,0,0,0.1h0c-0.2,0-0.3,0.1-0.5,0.2L87.9,370.4z"/>
				<path class="st5" d="M87.6,370.6c0,0-0.1,0.1-0.1,0.1C87.5,370.6,87.6,370.6,87.6,370.6z"/>
				<path class="st5" d="M87.6,372C87.6,372,87.6,372.1,87.6,372C87.6,372.1,87.6,372,87.6,372z"/>
				<path class="st5" d="M87.5,372C87.5,372,87.5,372,87.5,372C87.5,372,87.5,372,87.5,372z"/>
				<path class="st7" d="M88.7,372.1c-0.2,0.1-0.4,0.2-0.5,0.2c-0.2,0-0.5-0.1-0.6-0.3c-0.1-0.1-0.2-0.3-0.2-0.4c0,0,0,0,0,0
					c0,0.1,0,0.1,0.1,0.2c0,0,0,0,0,0l0,0c0,0,0,0,0,0h0c0,0,0,0.1,0.1,0.1c0,0,0,0,0,0c0,0,0,0,0,0c0,0,0,0,0,0l0,0c0,0,0,0,0,0
					c0,0,0,0,0,0c0,0,0,0,0,0h0c0,0,0.1,0,0.2,0.1c0.1,0,0.1,0,0.2,0c0.1,0,0.1,0,0.2,0c0,0,0,0,0,0h0c0,0,0,0,0,0c0,0,0.1,0,0.1,0
					c0,0,0,0,0,0C88.6,372.1,88.6,372.1,88.7,372.1L88.7,372.1L88.7,372.1C88.6,372.1,88.7,372.1,88.7,372.1z"/>
				<path class="st5" d="M87.4,371.8C87.4,371.8,87.4,371.8,87.4,371.8L87.4,371.8z"/>
				<path class="st5" d="M87.3,371.6c0,0.1,0,0.1,0.1,0.2C87.3,371.7,87.3,371.7,87.3,371.6z"/>
				<path class="st5" d="M87.3,371.5C87.3,371.5,87.3,371.6,87.3,371.5L87.3,371.5C87.3,371.6,87.3,371.5,87.3,371.5z"/>
				<path class="st7" d="M87.3,371.6L87.3,371.6C87.3,371.6,87.3,371.6,87.3,371.6C87.3,371.6,87.3,371.6,87.3,371.6z"/>
				<path class="st5" d="M87.6,370.6c0,0-0.1,0.1-0.1,0.1c-0.1,0.1-0.2,0.3-0.2,0.5c0,0,0,0,0,0c0,0,0,0.1,0,0.2
					c0-16,8.2-28.9,17.3-38.3c9-9.4,18.9-15.3,22.4-17.3l0.1,0.2l0.1,0.2h0l0.1,0.2l0,0.1l0,0.1c-6.9,3.9-38.6,23.2-39.3,53.9
					l-0.3,0.1L87.6,370.6z"/>
				<path class="st5" d="M88.2,370.4c0,0.3,0,0.6,0,0.9h-0.9c0-0.1,0-0.1,0-0.2c0,0,0,0,0,0c0-0.2,0.1-0.3,0.2-0.5
					c0,0,0.1-0.1,0.1-0.1C87.8,370.5,88,370.4,88.2,370.4L88.2,370.4z"/>
				<path class="st7" d="M87.3,371.4c0,0,0,0.1,0,0.1C87.3,371.5,87.3,371.4,87.3,371.4z"/>
				<path class="st5" d="M88.2,371.4L88.2,371.4L88.2,371.4l0.1,0.2l0,0h0l0.1,0.2l0.1,0.2l0,0l0,0.1l0,0.1h0c0,0,0,0,0,0
					c0,0-0.1,0-0.1,0c0,0,0,0,0,0h0c0,0,0,0,0,0c-0.1,0-0.1,0-0.2,0c-0.1,0-0.1,0-0.2,0c-0.1,0-0.1,0-0.2-0.1h0c0,0,0,0,0,0
					c0,0,0,0,0,0c0,0,0,0,0,0l0,0c0,0,0,0,0,0c0,0,0,0,0,0c0,0,0,0,0,0c0,0-0.1,0-0.1-0.1h0c0,0,0,0,0,0c0,0,0,0,0,0c0,0,0,0,0,0
					c0,0-0.1-0.1-0.1-0.2c0,0,0,0,0,0c0,0,0,0,0,0c0,0,0,0,0,0s0,0,0,0c0,0,0-0.1,0-0.1v0L88.2,371.4c-0.1-0.1,0.2-0.2,0.8-0.2
					c0,0.1,0,0.1,0,0.2v0c0,0,0,0.1,0,0.1c0,0,0,0,0,0c0,0.1,0,0.1-0.1,0.2L88.2,371.4L88.2,371.4z"/>
			</g>
			<g>
			</g>
		</g>
	</g>
	<g>
		<g>
			<path class="st10" d="M179.6,247.3c-0.6,1.7-4.8,2.9-6.7,3c-1.4,0.1-5.2-0.6-6.3-2.7"/>
		</g>
	</g>
	<g>
		<g>
			<path class="st7" d="M203,224.8c-1.6-0.8-6.4-2.7-8.7-3c-3.6-0.5-12.2-1.3-12.2-1.3c-1.7-1.4-2.2-3.7-1.7-3.5
				c2.3,0.9,15.4,1.9,17.2,2.8C198.7,220.3,203.3,224.5,203,224.8z"/>
		</g>
	</g>
	<g>
		<g>
			<path class="st7" d="M143.9,223.5c1.7-0.7,6.5-2.4,8.8-2.6c3.6-0.3,12.3-0.7,12.3-0.7c1.8-1.3,2.4-3.6,1.8-3.4
				c-3.1,1-15.4,1.2-17.3,2.1C148.3,219.3,143.5,223.2,143.9,223.5z"/>
		</g>
	</g>
	<path class="st7" d="M180.7,236.7C180.7,236.7,180.7,236.7,180.7,236.7c1.3-2.9,4.2-4.6,9.3-5c3.7-0.3,7.2,1.5,7.2,1.5
		c-1.1,0.2-1.7,0.8-2,1.2c1.7-1.1,3.2-0.5,4,0c0,0-2.4,0.4-3.1,1.5C188.5,232.1,180.7,236.7,180.7,236.7z"/>
	<path class="st7" d="M166.4,236.7C166.4,236.7,166.4,236.7,166.4,236.7c-1.4-2.9-4.2-4.6-9.4-5c-3.7-0.3-7.2,1.5-7.2,1.5
		c1.1,0.2,1.7,0.8,2,1.2c-1.7-1.1-3.2-0.5-4,0c0,0,2.4,0.3,3.1,1.5C158.6,232.1,166.4,236.7,166.4,236.7z"/>
	<ellipse class="st7" cx="134.9" cy="301.9" rx="14.4" ry="17.8"/>
	<path class="st7" d="M156,308.4c0,7.5-4.9,13.6-11,13.6c-6.1,0-11-6.1-11-13.6c0-7.5,4.9-13.6,11-13.6
		C151.1,294.8,156,300.9,156,308.4z"/>
	<ellipse class="st7" cx="138.4" cy="326.2" rx="8.6" ry="10.6"/>
	<path class="st7" d="M145.3,343.4c0,5.8-6.9,19.8-6.9,19.8s-6.4-14-6.4-19.8c0-5.8,3-10.6,6.7-10.6
		C142.3,332.8,145.3,337.6,145.3,343.4z"/>
	<path class="st6" d="M178.5,266.2l-8.5,1.6c-2.1,0-6.9-5.1-6.9-5.1c0-2.1,0.7-3.4,2.8-3.4h15.3c2.1,0,3.1,1.2,3.1,3.2
		C184.4,262.5,180.6,266.2,178.5,266.2z"/>
	<g>
		<g>
			<path class="st7" d="M186.2,259.9c-1.6-0.1-8.3-3.8-10.3-3c-1.2,0.5-3,0.8-4.4,0c-1.4-0.8-9.6,3-9.9,3.7c3.9,0,8.1-1.2,12.1-1.1
				C178.6,259.6,183.1,260.8,186.2,259.9z"/>
		</g>
	</g>
	<g>
		<g>
			<path class="st7" d="M173.3,270.7c4.2-0.1,9.6-4.4,12.4-10.6c-3.9,0.7-7.5,6.4-12.7,6.4c-5.9,0-9.2-5.6-12-5.6
				C164.9,268.1,169.1,270.8,173.3,270.7z"/>
		</g>
	</g>
</g>
</svg>
