<?xml version="1.0" encoding="utf-8"?>
<!-- Generator: Adobe Illustrator 23.0.4, SVG Export Plug-In . SVG Version: 6.00 Build 0)  -->
<svg version="1.1" id="Camada_1" xmlns="http://www.w3.org/2000/svg" xmlns:xlink="http://www.w3.org/1999/xlink" x="0px" y="0px"
	 viewBox="0 0 464 412.9" style="enable-background:new 0 0 464 412.9;" xml:space="preserve">
<style type="text/css">
	.st0{fill:#7D96EE;}
	.st1{fill:#3C58E8;}
	.st2{fill:#334A8C;}
	.st3{fill:#202020;}
</style>
<g>
	<g id="XMLID_2_">
		<g>
			<path class="st0" d="M233.2,42.3c8.2,5.1,38.7,31.7,40.4,70.3c1.8,43.1-18.9,78.1-42.2,78.1s-42.2-35-42.2-78.1
				S231.6,41.3,233.2,42.3z"/>
			<path class="st1" d="M282.8,28c-18.2,0-35.2,5.2-49.6,14.3c-0.5-0.4-1.1-0.7-1.6-1c14.8-9.5,32.4-15,51.2-15
				c52.4,0,95.1,42.7,95.1,95.1s-42.7,95.1-95.1,95.1c-18.8,0-36.4-5.5-51.2-15c0.5-0.3,1-0.7,1.6-1c14.4,9.1,31.4,14.3,49.6,14.3
				c51.5,0,93.4-41.9,93.4-93.4S334.3,28,282.8,28z"/>
			<path class="st1" d="M275.5,121.4c0,32.9-16.8,62-42.3,79.1c-0.5-0.3-1.1-0.7-1.6-1c25.4-16.7,42.2-45.5,42.2-78.1
				S257,60,231.6,43.3c0.5-0.4,1.1-0.7,1.6-1C258.7,59.4,275.5,88.5,275.5,121.4z"/>
			<path class="st1" d="M233.2,42.3c-0.5,0.3-1.1,0.7-1.6,1c-0.5-0.4-1.1-0.7-1.6-1c0.5-0.4,1.1-0.7,1.6-1
				C232.2,41.6,232.7,41.9,233.2,42.3z"/>
			<ellipse class="st1" cx="231.6" cy="200.5" rx="1.6" ry="1"/>
			<path class="st1" d="M187.7,121.4c0-32.9,16.8-62,42.3-79.1c0.5,0.3,1.1,0.7,1.6,1c-25.4,16.7-42.2,45.5-42.2,78.1
				s16.8,61.4,42.2,78.1c-0.5,0.4-1,0.7-1.6,1C204.5,183.4,187.7,154.3,187.7,121.4z"/>
			<path class="st1" d="M180.4,28C128.9,28,87,69.9,87,121.4s41.9,93.4,93.4,93.4c18.2,0,35.3-5.2,49.6-14.3c0.5,0.4,1.1,0.7,1.6,1
				c-14.8,9.5-32.4,15-51.2,15c-52.4,0-95.1-42.7-95.1-95.1c0-52.5,42.7-95.1,95.1-95.1c18.8,0,36.4,5.5,51.2,15
				c-0.5,0.3-1.1,0.7-1.6,1C215.7,33.2,198.7,28,180.4,28z"/>
		</g>
	</g>
</g>
<g>
	<path class="st1" d="M357.3,144.2c-8.7,0-16.7-8-21.6-14c-0.2,0.4-1.7,2.8-4,5.9c5.8,6.8,14.9,15,25.6,15V144.2z"/>
	<path class="st1" d="M240.4,99.3v6.8c2.3,0,4.6,0.6,6.8,1.5v27.9h3.4v-26.1c1.8,1.1,3.5,2.5,5,3.9v16.1h3.4v-12.7
		c3,3.3,5.3,6.5,6.5,8.4l4-6.2C264.6,112,253.6,99.3,240.4,99.3z"/>
	<path class="st1" d="M303.8,143.2c-1.6,0.6-3.3,0.9-5,0.9c-6.9,0-13.4-5.2-17.8-9.7l0,0c-1.4-1.4-2.6-2.9-3.7-4.3
		c-0.2,0.4-1.7,2.8-4,5.9c3.1,3.7,7.2,7.8,12,10.7l0,0c4.1,2.5,8.6,4.3,13.5,4.3l0,0c1.7,0,3.4-0.2,5-0.6V143.2z"/>
	<path class="st1" d="M328.1,119l-4,6.2c-3.4,5.2-10.5,13.9-18.5,17.4v7.3c14.5-4.5,25-22.2,25.5-23c1.4-2.4,4.1-6.3,7.6-10.1v12.7
		h3.4v-16c1.6-1.4,3.3-2.8,5-3.9v26h3.4v-27.8c2.2-1,4.5-1.6,6.8-1.6v-6.8C344,99.3,333.1,112,328.1,119z"/>
	<path class="st1" d="M303.8,99.9c-1.6-0.4-3.3-0.6-5-0.6c-13,0-23.7,12.1-28.9,19.2c-0.1,0.2-0.2,0.3-0.3,0.5l-4,6.2
		c-3.3,5-13.6,19-25.2,19v6.8c17.9,0,31.6-23.1,32.2-24.1l0,0c0,0,0.4-0.7,1.2-1.8c1.3-1.9,3.5-5.1,6.5-8.3v12.7h3.4v-16.1
		c1.6-1.4,3.3-2.8,5-3.9v26.1h3.4v-27.9c1.6-0.7,3.3-1.2,5-1.4v32.5h3.4v-32.5c1.1,0.1,2.2,0.4,3.3,0.7V99.9z"/>
	<path class="st1" d="M305.5,100.4v7.2c0,0,0,0,0.1,0v27.9h3.4v-26.1c1.8,1.1,3.5,2.5,5,3.9v16.1h3.4v-12.7c3,3.3,5.3,6.5,6.6,8.4
		l4-6.2C323.9,113.2,315.7,103.6,305.5,100.4z"/>
</g>
<g>
	<g>
		<path class="st1" d="M170.8,150.1v-25.3c0-0.5,0.4-0.9,0.9-0.9s0.9,0.4,0.9,0.9v25.3c0,0.5-0.4,0.9-0.9,0.9
			C171.2,150.9,170.8,150.6,170.8,150.1z"/>
	</g>
	<g>
		<path class="st1" d="M185.7,136.3v-16.7c0-0.5,0.4-0.9,0.9-0.9s0.9,0.4,0.9,0.9v16.7c0,0.5-0.4,0.9-0.9,0.9
			C186.1,137.2,185.7,136.8,185.7,136.3z"/>
	</g>
	<g>
		<path class="st1" d="M170.8,124.8V99.4c0-0.5,0.4-0.9,0.9-0.9s0.9,0.4,0.9,0.9v25.3c0,0.5-0.4,0.9-0.9,0.9
			S170.8,125.2,170.8,124.8z"/>
	</g>
	<g>
		<path class="st1" d="M185.7,129.9v-16.7c0-0.5,0.4-0.9,0.9-0.9s0.9,0.4,0.9,0.9v16.7c0,0.5-0.4,0.9-0.9,0.9
			C186.1,130.7,185.7,130.4,185.7,129.9z"/>
	</g>
	<g>
		<path class="st1" d="M213.4,136.3v-16.7c0-0.5,0.4-0.9,0.9-0.9s0.9,0.4,0.9,0.9v16.7c0,0.5-0.4,0.9-0.9,0.9
			C213.8,137.2,213.4,136.8,213.4,136.3z"/>
	</g>
	<g>
		<path class="st1" d="M213.4,128.2v-16.7c0-0.5,0.4-0.9,0.9-0.9s0.9,0.4,0.9,0.9v16.7c0,0.5-0.4,0.9-0.9,0.9
			C213.8,129,213.4,128.7,213.4,128.2z"/>
	</g>
	<g>
		<path class="st1" d="M156,136.3v-16.7c0-0.5,0.4-0.9,0.9-0.9s0.9,0.4,0.9,0.9v16.7c0,0.5-0.4,0.9-0.9,0.9
			C156.3,137.2,156,136.8,156,136.3z"/>
	</g>
	<g>
		<path class="st1" d="M156,128.2v-16.7c0-0.5,0.4-0.9,0.9-0.9s0.9,0.4,0.9,0.9v16.7c0,0.5-0.4,0.9-0.9,0.9
			C156.3,129,156,128.7,156,128.2z"/>
	</g>
	<g>
		<path class="st1" d="M128.3,138v-16.7c0-0.5,0.4-0.9,0.9-0.9s0.9,0.4,0.9,0.9V138c0,0.5-0.4,0.9-0.9,0.9S128.3,138.5,128.3,138z"
			/>
	</g>
	<g>
		<path class="st1" d="M128.3,129.9v-16.7c0-0.5,0.4-0.9,0.9-0.9s0.9,0.4,0.9,0.9v16.7c0,0.5-0.4,0.9-0.9,0.9
			C128.7,130.7,128.3,130.4,128.3,129.9z"/>
	</g>
	<g>
		<path class="st1" d="M113.4,150.1v-25.3c0-0.5,0.4-0.9,0.9-0.9s0.9,0.4,0.9,0.9v25.3c0,0.5-0.4,0.9-0.9,0.9
			C113.8,150.9,113.4,150.6,113.4,150.1z"/>
	</g>
	<g>
		<path class="st1" d="M113.4,127.3V96.9c0-0.5,0.4-0.9,0.9-0.9s0.9,0.4,0.9,0.9v30.4c0,0.5-0.4,0.9-0.9,0.9
			S113.4,127.8,113.4,127.3z"/>
	</g>
	<g>
		<path class="st1" d="M228.2,150.1v-25.3c0-0.5,0.4-0.9,0.9-0.9s0.9,0.4,0.9,0.9v25.3c0,0.5-0.4,0.9-0.9,0.9
			C228.6,150.9,228.2,150.6,228.2,150.1z"/>
	</g>
	<g>
		<path class="st1" d="M228.2,124.8V99.4c0-0.5,0.4-0.9,0.9-0.9s0.9,0.4,0.9,0.9v25.3c0,0.5-0.4,0.9-0.9,0.9
			C228.6,125.6,228.2,125.2,228.2,124.8z"/>
	</g>
	<path class="st1" d="M229.1,100.5c3.6,0,6.5-2.9,6.5-6.5s-2.9-6.5-6.5-6.5s-6.5,2.9-6.5,6.5S225.5,100.5,229.1,100.5z"/>
	<circle class="st1" cx="143" cy="124.8" r="6.5"/>
	<path class="st1" d="M186.5,114.3c3.6,0,6.5-2.9,6.5-6.5s-2.9-6.5-6.5-6.5s-6.5,2.9-6.5,6.5S182.9,114.3,186.5,114.3z"/>
	<path class="st1" d="M114.3,101.5c3.6,0,6.5-2.9,6.5-6.5s-2.9-6.5-6.5-6.5s-6.5,2.9-6.5,6.5C107.7,98.6,110.7,101.5,114.3,101.5z"
		/>
	<rect x="194.5" y="118.9" class="st1" width="11.9" height="11.9"/>
	<rect x="165.7" y="149.1" class="st1" width="11.9" height="11.9"/>
	<rect x="223.1" y="149.1" class="st1" width="11.9" height="11.9"/>
	
		<rect x="208.3" y="134.2" transform="matrix(0.7071 -0.7071 0.7071 0.7071 -36.3581 192.5091)" class="st1" width="11.9" height="11.9"/>
	
		<rect x="165.7" y="89" transform="matrix(0.7071 -0.7071 0.7071 0.7071 -16.8458 149.1976)" class="st1" width="11.9" height="11.9"/>
	
		<rect x="150.9" y="135.7" transform="matrix(0.7071 -0.7071 0.7071 0.7071 -54.236 152.4025)" class="st1" width="11.9" height="11.9"/>
	
		<rect x="123.2" y="101.9" transform="matrix(0.7071 -0.7071 0.7071 0.7071 -38.4471 122.8759)" class="st1" width="11.9" height="11.9"/>
	<polygon class="st1" points="220.2,110.1 208.3,117.5 208.3,102.6 	"/>
	<polygon class="st1" points="192.8,140.1 180.9,147.5 180.9,132.7 	"/>
	<polygon class="st1" points="162.8,109.1 150.9,116.5 150.9,101.6 	"/>
	<polygon class="st1" points="135.1,140.5 123.2,147.9 123.2,133.1 	"/>
	<rect x="108.3" y="149.1" class="st1" width="11.9" height="11.9"/>
</g>
<g>
	<g id="XMLID_1_">
		<g>
			<path class="st2" d="M332.3,387.7H129.9c0-38.2,44.1-60.5,44.1-60.5l0.9,0.4c-0.1,0.2-0.1,0.4-0.1,0.6c0.1,0.5,0.6,0.9,1.1,0.8
				s0.9-0.2,1.4-0.3l52.2,21.7l55.6-21.9c0.5,0.1,1,0.2,1.3,0.3c0.5,0.1,1-0.2,1.2-0.7c0.1-0.2,0-0.4-0.1-0.6l0.5-0.2
				C288.2,327.2,332.3,349.6,332.3,387.7z"/>
			<path class="st3" d="M287.7,327.4c0.1,0.2,0.1,0.4,0.1,0.6c-0.1,0.5-0.7,0.9-1.2,0.7c-0.4-0.1-0.8-0.2-1.3-0.3l1.6-0.6
				L287.7,327.4z"/>
			<path class="st0" d="M287.7,327.4l-0.9,0.4c-4.7-1.1-28.6-7.4-30.5-16h1v-0.1c0.4,1.7,2,3.6,4.5,5.3c2.5,1.7,5.7,3.3,9.1,4.7
				c6.7,2.7,13.8,4.6,16.2,5.1C287.4,326.9,287.6,327.1,287.7,327.4z"/>
			<path class="st0" d="M286.8,327.8l-1.6,0.6c-2.2-0.6-5.9-1.6-10-3c-5-1.7-10.6-4-14.6-6.8c-2.7-1.9-4.7-4-5.3-6.6v-0.2v-19.5
				c0.4-1.1,0.7-2.3,1-3.6v23.2C258.2,320.4,282.1,326.6,286.8,327.8z"/>
			<path class="st0" d="M285.2,328.4l-55.6,21.9l-52.2-21.7c20-4.4,26-16.2,26.1-16.4l0.1-0.4v-29.1c1.8,3.2,9.2,15.9,20.4,22.3
				c9.3,5.3,21.3,3.3,27.7-5.4c1.5-2,2.7-4.4,3.7-7.3v19.5v0.2c0.6,2.6,2.6,4.7,5.3,6.6c4,2.8,9.6,5.1,14.6,6.8
				C279.3,326.8,283,327.8,285.2,328.4z"/>
			<path class="st0" d="M281.1,234.8c0.6,1.5,0.8,3.1,0.8,4.9c0,2.1-0.3,4.3-0.9,6.4c-0.6,2.1-1.4,4-2.4,5.6l0,0
				c-1.2,1.9-2.5,3.4-4.1,4.5c-1.5,1.1-3.1,1.8-4.8,1.8c0,0,0,0-0.1,0c-1,0-2-0.3-2.9-0.9c0.1-0.3,0.2-0.7,0.2-1
				c3.1,2.6,7.8-0.1,10.8-4.9c3.3-5.3,4.9-16,0-18.9c-3.5-2.1-6.6,0.4-8.1,2h-0.9c0-0.2,0.1-0.4,0.1-0.5l0,0c0.3-0.3,0.6-0.6,1-0.9
				c1.2-1,3-2.2,5.1-2.2h0.1c1,0,2.1,0.3,3.2,0.9C279.7,232,280.6,233.3,281.1,234.8z"/>
			<path class="st0" d="M277,250.5c1.7-2.7,3-7.1,3-10.9c0-0.3,0-0.6,0-0.9c-0.1-1.2-0.3-2.3-0.6-3.2c-0.5-1.1-1.1-2-2-2.5
				c-0.8-0.5-1.6-0.6-2.3-0.6c-1.3,0-2.6,0.7-3.7,1.5c-0.8,0.7-1.5,1.4-1.7,1.7c0-0.1,0-0.2,0-0.3l0,0c0-0.4,0-0.8,0.1-1.1h-0.1
				c1.5-1.6,4.6-4,8.1-2c4.9,2.9,3.3,13.6,0,18.9c-3,4.8-7.7,7.5-10.8,4.9c0.1-0.2,0.1-0.4,0.2-0.6c0-0.2,0.1-0.3,0.1-0.5
				c0.8,0.8,1.6,1.1,2.5,1.2c1.1,0,2.4-0.5,3.6-1.4C274.7,253.6,275.9,252.2,277,250.5L277,250.5z"/>
			<path class="st0" d="M279.9,239.6c0,3.8-1.3,8.2-3,10.9l0,0c-1.1,1.7-2.3,3.1-3.6,4c-1.3,0.9-2.5,1.4-3.6,1.4
				c-0.9,0-1.8-0.3-2.5-1.2c0.7-3.3,1.2-6.6,1.6-9.7c0.1-0.4,0.1-0.8,0.1-1.1c0.5-0.9,1.1-1.6,1.6-2.2c0.4,0.2,1,0.7,1.6,1.3
				c0.7,0.8,1.2,1.7,1.2,2.8c0,0.9-0.3,1.8-1.2,3c-0.2,0.2-0.1,0.5,0.1,0.7s0.5,0.1,0.7-0.1c1-1.3,1.5-2.5,1.5-3.6
				c0-1.7-0.9-3-1.8-3.8c-0.5-0.4-0.9-0.8-1.2-1c1.8-1.6,3.5-1.9,4.6-1.9c0.4,0,0.7,0.1,0.9,0.1l0.2,0.1h0.1l0,0
				c0.3,0.1,0.5-0.1,0.6-0.3c0-0.1,0-0.1,0-0.2l2.2-0.1C279.9,239,279.9,239.3,279.9,239.6z"/>
			<path class="st0" d="M270.2,240.8L270.2,240.8c-0.1,0-0.1,0.1-0.1,0.1c-0.3,0.3-0.6,0.6-0.9,1c0.2-2.2,0.4-4.3,0.5-6.3
				c0.2-0.3,0.9-1.1,1.7-1.7c1-0.8,2.3-1.5,3.7-1.5c0.7,0,1.4,0.2,2.3,0.6c0.9,0.5,1.5,1.4,2,2.5c0.4,0.9,0.6,2,0.6,3.2l-2.2,0.1
				c0-0.2-0.1-0.4-0.3-0.5c0,0-0.6-0.2-1.5-0.2C274.5,238.1,272.3,238.6,270.2,240.8z"/>
			<path class="st2" d="M277.7,238.8c0,0.1,0,0.1,0,0.2c-0.1,0.3-0.4,0.4-0.6,0.3l0,0H277l-0.2-0.1c-0.2,0-0.5-0.1-0.9-0.1
				c-1.1,0-2.8,0.3-4.6,1.9c-0.3-0.2-0.5-0.3-0.6-0.3c-0.2-0.1-0.4-0.1-0.6,0.1c2.1-2.2,4.3-2.6,5.7-2.6c0.9,0,1.5,0.2,1.5,0.2
				C277.6,238.4,277.7,238.6,277.7,238.8z"/>
			<path class="st2" d="M274.4,245.8c0,1.1-0.4,2.3-1.5,3.6c-0.2,0.2-0.5,0.2-0.7,0.1s-0.2-0.5-0.1-0.7c0.9-1.1,1.2-2.1,1.2-3
				c0-1.1-0.6-2.1-1.2-2.8c-0.6-0.6-1.2-1.1-1.6-1.3c0.1-0.1,0.2-0.2,0.3-0.3l0,0c0.1-0.2,0.3-0.3,0.4-0.4c0.3,0.2,0.8,0.6,1.2,1
				C273.5,242.9,274.4,244.2,274.4,245.8z"/>
			<path class="st2" d="M270.2,240.8L270.2,240.8c0.1-0.2,0.4-0.2,0.6-0.1c0,0,0.2,0.1,0.6,0.3c-0.1,0.1-0.3,0.3-0.4,0.4l0,0
				c-0.1,0.1-0.2,0.2-0.3,0.3c-0.1-0.1-0.1-0.1-0.2-0.1l-0.1-0.1C270.1,241.4,270,241.1,270.2,240.8
				C270.1,240.8,270.1,240.8,270.2,240.8z"/>
			<path class="st2" d="M270.4,241.6c0.1,0,0.1,0.1,0.2,0.1c-0.5,0.6-1.1,1.3-1.6,2.2c0.1-0.7,0.2-1.4,0.2-2.1
				c0.3-0.4,0.6-0.7,0.9-1c-0.1,0.2,0,0.5,0.2,0.7L270.4,241.6z"/>
			<path class="st2" d="M270.3,197.9l-0.9,32.5c0-0.4,0-1.8,0-4.1c0,2.5-0.1,5-0.4,7.1l0,0c-0.1,0-0.1,0.1-0.1,0.1
				c0.3-7.6,0-12.8,0-12.8s1.2-15.5-6.6-28c-5.2-8.4-14.6-15.4-31.1-15.4c-17.6,0-27.9,6.9-33.8,15.2c-9,12.5-8.2,28.2-8.2,28.2
				s-0.2,5,0.2,12.4h-0.3c-0.1-0.1-0.2-0.2-0.3-0.3l0,0c-0.1-1.1-0.2-2.3-0.3-3.5v-0.1c-0.1-1.7-0.1-3.6,0-5.4v-26
				c0-6.9,4-13.1,10.3-16l10-5.3c1.9-8.6,10.4-12.4,14.6-13.7c1.3-0.4,2.7-0.7,4.1-0.7c14.9-0.4,22.1,7.3,25.5,15.9l7.3,3.8
				C266.3,184.8,270.3,191,270.3,197.9z"/>
			<path class="st0" d="M269.8,234.1c0,0.4,0,0.8-0.1,1.1l0,0c0,0.1,0,0.2,0,0.3c-0.1,0.1-0.1,0.1-0.1,0.1l0,0l-0.8-0.6
				C268.8,235.2,269.1,234.7,269.8,234.1L269.8,234.1z"/>
			<path class="st0" d="M268.9,234h0.9c-0.6,0.6-0.9,1.1-0.9,1.1l0,0C268.8,234.8,268.8,234.4,268.9,234v0.1
				C268.8,234.1,268.9,234.1,268.9,234z"/>
			<path class="st0" d="M269.6,235.7l0.1-0.1c-0.1,2-0.3,4.1-0.5,6.3c-0.4,0.5-0.8,1.1-1.2,1.8c0.4-3,0.6-5.8,0.7-8.5l0,0
				L269.6,235.7L269.6,235.7z"/>
			<path class="st2" d="M269.2,241.9c-0.1,0.7-0.2,1.4-0.2,2.1c-0.2,0.4-0.4,0.8-0.6,1.2l-0.3-0.1l-0.2-0.1c0.1-0.5,0.1-0.9,0.2-1.3
				C268.4,243,268.8,242.4,269.2,241.9z"/>
			<path class="st0" d="M269,244c0,0.4-0.1,0.8-0.1,1.1c-0.4,3.1-0.9,6.4-1.6,9.7c-0.1-0.1-0.2-0.2-0.3-0.3l-0.1-0.2l-0.6,0.5
				c0.7-3.1,1.2-6.3,1.5-9.2c0.2,0,0.4-0.1,0.5-0.3v-0.1l0,0C268.6,244.7,268.8,244.3,269,244z"/>
			<path class="st2" d="M268.8,220.8c0,0,0.3,5.2,0,12.8c-0.1,0.1-0.1,0.1-0.2,0.2c-1.3-2.5-8.4-17-5.7-29.3
				c0.9-3.9,0.3-7.9-1.7-11.3l0.9-0.4C270,205.3,268.8,220.8,268.8,220.8z"/>
			<path class="st3" d="M268.9,233.5c0,0.2,0,0.4-0.1,0.5h-0.1l0,0c0-0.1,0-0.3,0-0.4C268.8,233.6,268.9,233.5,268.9,233.5z"/>
			<path class="st3" d="M268.9,234v0.1V234L268.9,234z"/>
			<path class="st0" d="M268.8,233.6c0,0.1,0,0.3,0,0.4c0-0.1-0.1-0.1-0.1-0.3C268.7,233.7,268.8,233.7,268.8,233.6z"/>
			<path class="st0" d="M268.8,234L268.8,234c0,0.4,0,0.8-0.1,1.1l-0.8-0.5c0,0,0.2-0.2,0.5-0.6H268.8z"/>
			<path class="st0" d="M268.8,234h-0.3c0.1-0.1,0.1-0.2,0.2-0.3C268.7,233.9,268.8,234,268.8,234z"/>
			<polygon class="st3" points="268.8,235.2 268.7,235.2 268.7,235.2 			"/>
			<path class="st0" d="M268.7,235.2L268.7,235.2c-0.1,2.6-0.4,5.5-0.7,8.5c-0.2,0.4-0.4,0.7-0.6,1.1l0,0v0.1
				c-0.1,0.3,0,0.5,0.3,0.6c0.1,0,0.1,0,0.2,0c-0.4,3-0.9,6.1-1.5,9.2l-0.9,0.7l0.1,0.2c0.2,0.2,0.3,0.4,0.5,0.6
				c-2.4,10.9-6.8,21.9-14.6,29.2l0,0c0,0,0,0-0.1,0.1c-3.5,2.9-8.3,6-14.2,7.5v-1l0,0H237c5.5-1.2,10-3.8,13.7-7.3
				c3.9-3.6,6.9-8.3,9.3-13.5s4-10.8,5.2-16.4c0.7-3.4,1.2-6.8,1.6-10c0.4-3.5,0.7-6.7,0.9-9.7c0-0.4,0-0.8,0.1-1.1h0.6
				c-0.3,0.4-0.5,0.6-0.5,0.6L268.7,235.2z"/>
			<path class="st0" d="M268.7,233.8c-0.1,0.1-0.2,0.2-0.2,0.3h-0.6c0,0.4,0,0.7-0.1,1.1c-0.2,3-0.4,6.3-0.9,9.7
				c-0.4,3.2-0.9,6.6-1.6,10c-1.2,5.6-2.9,11.2-5.2,16.4c-2.4,5.2-5.4,9.8-9.3,13.5c-3.7,3.5-8.2,6-13.7,7.3H237l0,0l0,0
				c-2.2,0.5-4.6,0.8-7.2,0.8h-0.1h-0.4h-0.1l0,0c-8.6-0.1-15.3-3.1-20.5-7.8l0,0l0,0l-0.1-0.1c-8.1-7.3-12.7-18.9-15.3-30.2
				c-1.6-7-2.4-13.8-2.8-19.5c-0.1-0.7-0.1-1.3-0.1-1.9l-1,0.1c1.8-3.8,8.3-18.6,6.8-28.4c-0.6-3.9,0-8,2.2-11.3l0.1-0.1
				c0.6-0.8,1.2-1.6,1.8-2.3c3-3.3,6.3-5.6,9.4-7.1c2.1,6.1,7.9,14.7,24,18.3c-0.6-0.4-10.7-7.3-16.5-15.4
				c5.2,4.9,16.1,11.4,38.3,12.9c0,0,0.7-5.9-0.4-13.1c1.6,1.1,3.1,2.4,4.6,4l0.1,0.1c0.6,0.7,1.2,1.4,1.6,2.2
				c2,3.3,2.6,7.4,1.7,11.3C260.3,216.7,267.4,231.3,268.7,233.8z M239,216.1h21.1l-7.2-4c-1.8-0.9-3.8-1.5-5.8-1.6l-10.3-0.9
				C237.1,210,239,216.1,239,216.1z M250.6,230.5c0-2-1.6-3.7-3.7-3.7c-2,0-3.7,1.6-3.7,3.7s1.6,3.7,3.7,3.7
				C249,234.1,250.6,232.5,250.6,230.5z M249.6,241.2c0.2-0.2,0.1-0.5-0.1-0.7l-8-6.1c-0.2-0.2-0.5-0.1-0.7,0.1
				c-0.2,0.2-0.1,0.5,0.1,0.7l8,6.1C249.2,241.4,249.5,241.4,249.6,241.2z M243.8,258.9c0.4-0.3,0.4-0.9,0.1-1.3
				c-0.3-0.4-0.9-0.4-1.3-0.1l0,0c-0.5,0.4-5.2,4-11.7,4c-3.5,0-6.7-1-9-2c-1.2-0.5-2.1-1-2.8-1.4c-0.3-0.2-0.6-0.4-0.8-0.5
				l-0.2-0.1H218c-0.4-0.3-1-0.2-1.3,0.2c-0.3,0.4-0.2,1,0.2,1.3c0.1,0.1,6.2,4.4,13.8,4.4C238.5,263.3,243.7,259,243.8,258.9z
				 M235.4,252.3c0.5-0.1,0.8-0.6,0.6-1.1c-0.1-0.5-0.6-0.8-1.1-0.6l-3.7,1c-0.2,0.1-0.5,0.1-0.7,0.1c-1.1,0-2-0.6-2.4-1.5
				c-0.1-0.3-0.2-0.7-0.2-1v-15.3c0-0.5-0.4-0.9-0.9-0.9s-0.9,0.4-0.9,0.9v15.3c0,0.6,0.1,1.2,0.3,1.7l0,0c0.7,1.7,2.4,2.7,4.2,2.7
				c0.4,0,0.8-0.1,1.2-0.2L235.4,252.3z M232.5,280.8c0.1-0.3-0.1-0.5-0.3-0.6c-0.3-0.1-0.5,0.1-0.6,0.3l-1.4,4.5
				c-0.1,0.3,0.1,0.5,0.3,0.6c0.3,0.1,0.5-0.1,0.6-0.3L232.5,280.8z M223.5,209.6l-10.4,0.9c-2,0.2-4,0.7-5.8,1.6l-7.2,4h21.1
				C221.2,216.1,223.2,210,223.5,209.6z M219.8,234.5c0.2-0.2,0.3-0.5,0.1-0.7s-0.5-0.3-0.7-0.1l-9.1,6c-0.2,0.2-0.3,0.5-0.1,0.7
				s0.5,0.3,0.7,0.1L219.8,234.5z M216.6,230.5c0-2-1.6-3.7-3.7-3.7c-2,0-3.7,1.6-3.7,3.7s1.6,3.7,3.7,3.7
				C214.9,234.1,216.6,232.5,216.6,230.5z"/>
			<path class="st3" d="M268.3,245.2L268.3,245.2l-0.3-0.1L268.3,245.2z"/>
			<path class="st3" d="M268.3,245.2L268.3,245.2c-0.1,0.2-0.3,0.4-0.5,0.3c0-0.2,0.1-0.4,0.1-0.6l0.2,0.1L268.3,245.2z"/>
			<path class="st2" d="M268,243.6c0,0.4-0.1,0.9-0.2,1.3c0,0.2-0.1,0.4-0.1,0.6c-0.1,0-0.1,0-0.2,0c-0.2-0.1-0.4-0.4-0.3-0.6v-0.1
				l0,0C267.6,244.4,267.8,244,268,243.6z"/>
			<path class="st0" d="M267.3,254.8c0,0.2-0.1,0.3-0.1,0.5c-0.1,0.2-0.1,0.4-0.2,0.6c-0.3-0.2-0.5-0.5-0.8-0.9c0-0.1,0-0.2,0.1-0.3
				l0.6-0.5l0.1,0.2C267.1,254.6,267.2,254.7,267.3,254.8z"/>
			<path class="st0" d="M267,255.9c-0.1,0.3-0.1,0.7-0.2,1c-0.3-0.2-0.6-0.4-0.8-0.7c0.1-0.4,0.2-0.8,0.3-1.2
				C266.5,255.4,266.7,255.7,267,255.9z"/>
			<path class="st0" d="M266,256.2c0.3,0.3,0.5,0.5,0.8,0.7c-1.2,5.2-2.8,10.3-5,15.1c-1.3,2.9-2.8,5.6-4.6,8.1c0-0.2,0-0.4,0-0.6
				c0,0-2.1,2.7-5.8,5.8C259.1,278.2,263.5,267.1,266,256.2z"/>
			<path class="st0" d="M266.3,254.8c0,0.1,0,0.2-0.1,0.3c-0.1,0.4-0.2,0.8-0.3,1.2c-0.2-0.2-0.4-0.4-0.5-0.6l-0.1-0.2L266.3,254.8z
				"/>
			<path class="st2" d="M262.2,192.8l-0.9,0.4c-0.5-0.8-1-1.5-1.6-2.2l-0.1-0.1c-1.5-1.6-3-2.9-4.6-4c1.1,7.1,0.4,13.1,0.4,13.1
				c-22.3-1.5-33.2-8-38.3-12.9c5.7,8.1,15.8,15,16.5,15.4c-16.1-3.6-21.9-12.2-24-18.3c-3.1,1.5-6.4,3.8-9.4,7.1
				c-0.6,0.7-1.2,1.4-1.8,2.3l-1.1-0.8c5.9-8.3,16.2-15.2,33.8-15.2C247.6,177.4,257,184.4,262.2,192.8z"/>
			<path class="st2" d="M260.1,216.1H239c0,0-1.9-6.1-2.2-6.5l10.3,0.9c2,0.2,4,0.7,5.8,1.6L260.1,216.1z"/>
			<path class="st3" d="M257.3,311.6v0.1h-1L257.3,311.6L257.3,311.6z"/>
			<path class="st0" d="M257.3,288.6v23v-0.1l-1,0.2v-23.2c0.1-0.3,0.1-0.6,0.2-1C257,287.7,257.3,288.1,257.3,288.6z"/>
			<path class="st0" d="M257.2,279.6c0,0.2,0,0.4,0,0.6c-1.5,2.2-3.2,4.2-5.2,6c-3.9,3.7-8.8,6.5-14.7,7.8l0,0l-0.2-1l0,0
				c5.7-1.2,10.4-3.9,14.2-7.5c0,0,0,0,0.1-0.1l0,0C255.1,282.3,257.2,279.6,257.2,279.6z"/>
			<path class="st2" d="M257.2,280.2c0,2.7-0.3,5.2-0.7,7.5c-0.1,0-0.1,0-0.2,0c-0.5,0-1,0.4-1,1v3.6c-1,3-2.3,5.4-3.7,7.3
				c-6.3,8.7-18.4,10.7-27.7,5.4c-11.2-6.3-18.6-19.1-20.4-22.3v-0.1c1.1,1.3,2.3,2.6,3.6,3.8l0,0l0,0c0,0,0.1,0,0.1,0.1
				c5.5,5,12.6,8.1,21.6,8.2h0.1c0.2,0,0.4,0,0.5,0h0.1c2.7,0,5.2-0.3,7.5-0.8h0.1l0,0c5.9-1.3,10.7-4,14.7-7.8
				C254,284.3,255.7,282.3,257.2,280.2z"/>
			<path class="st2" d="M256.5,287.6c-0.1,0.3-0.1,0.6-0.2,1c-0.3,1.3-0.6,2.5-1,3.6v-3.6c0-0.5,0.4-1,1-1
				C256.4,287.6,256.5,287.6,256.5,287.6z"/>
			<circle class="st2" cx="247" cy="230.5" r="3.7"/>
			<path class="st2" d="M249.5,240.5c0.2,0.2,0.3,0.5,0.1,0.7s-0.5,0.3-0.7,0.1l-8-6.1c-0.2-0.2-0.3-0.5-0.1-0.7s0.5-0.3,0.7-0.1
				L249.5,240.5z"/>
			<path class="st0" d="M237.2,292.9c5.9-1.5,10.7-4.6,14.2-7.5C247.5,289,242.8,291.7,237.2,292.9z"/>
			<path class="st2" d="M243.9,257.6c0.3,0.4,0.3,1-0.1,1.3c-0.1,0.1-5.3,4.4-12.9,4.4c-7.6,0-13.7-4.3-13.8-4.4
				c-0.4-0.3-0.5-0.9-0.2-1.3s0.9-0.5,1.3-0.2h0.1l0.2,0.1c0.2,0.1,0.4,0.3,0.8,0.5c0.6,0.4,1.6,0.9,2.8,1.4c2.3,1,5.5,2,9,2
				c6.5,0,11.2-3.6,11.7-4l0,0C242.9,257.2,243.5,257.2,243.9,257.6z"/>
			<polygon class="st0" points="237.1,292.9 237.3,293.9 237.3,293.9 237.2,293.9 237.1,293.9 			"/>
			<path class="st0" d="M237.2,293.9h0.1c-2.4,0.5-4.9,0.8-7.5,0.8h-0.1c-0.1,0-0.3,0-0.5,0v-1l0,0c0.2,0,0.3,0,0.5,0h0.1l0,0
				c0.6,0,1.3,0,1.9,0c1.9-0.1,3.7-0.4,5.5-0.8l0,0V293.9L237.2,293.9z"/>
			<path class="st0" d="M237.2,292v1l-0.2-1l0,0H237.2L237.2,292L237.2,292z"/>
			<path class="st0" d="M237,292l0.2,1l0,0l0,0c-2.3,0.5-4.7,0.8-7.4,0.8l0,0h-0.1c-0.2,0-0.3,0-0.5,0c-8.7-0.4-16.4-4.7-21.1-8
				c0,0-0.1,0-0.1-0.1l-0.1-0.1l0.6-0.7l0,0l0,0c5.2,4.7,11.9,7.7,20.5,7.8l0,0h0.1h0.4h0.1C232.3,292.7,234.7,292.5,237,292
				L237,292z"/>
			<path class="st2" d="M236.1,251.2c0.1,0.5-0.2,1-0.6,1.1l-3.7,1c-0.4,0.1-0.8,0.2-1.2,0.2c-1.7,0-3.5-0.9-4.2-2.7l0,0
				c-0.2-0.5-0.3-1.1-0.3-1.7v-15.3c0-0.5,0.4-0.9,0.9-0.9s0.9,0.4,0.9,0.9v15.3c0,0.3,0.1,0.7,0.2,1l0,0l-0.9,0.3l0.9-0.3
				c0.4,0.9,1.3,1.5,2.4,1.5c0.2,0,0.5,0,0.7-0.1l3.7-1C235.4,250.4,235.9,250.7,236.1,251.2z"/>
			<path class="st0" d="M237.1,292.9c-1.8,0.4-3.6,0.7-5.5,0.8c-0.6,0-1.3,0-1.9,0C232.4,293.7,234.8,293.4,237.1,292.9z"/>
			<path class="st0" d="M232.2,280.2c0.3,0.1,0.4,0.3,0.3,0.6l-1.4,4.5c-0.1,0.3-0.3,0.4-0.6,0.3s-0.4-0.3-0.3-0.6l1.4-4.5
				C231.7,280.2,231.9,280.1,232.2,280.2z"/>
			<path class="st0" d="M229.1,293.7L229.1,293.7l-0.1,1c-9-0.1-16.1-3.3-21.6-8.2l0.6-0.8c0,0,0.1,0,0.1,0.1
				C213.4,290.6,220.3,293.6,229.1,293.7z"/>
			<path class="st0" d="M229.1,293.7v1H229L229.1,293.7z"/>
			<path class="st3" d="M228.1,250.1l-0.8,0.3L228.1,250.1z"/>
			<path class="st2" d="M213.1,210.4l10.4-0.9c-0.3,0.5-2.2,6.5-2.2,6.5h-21.1l7.2-4C209.2,211.1,211.1,210.6,213.1,210.4z"/>
			<path class="st2" d="M219.9,233.9c0.2,0.2,0.1,0.5-0.1,0.7l-9.1,6c-0.2,0.2-0.5,0.1-0.7-0.1c-0.2-0.2-0.1-0.5,0.1-0.7l9.1-6
				C219.5,233.6,219.8,233.6,219.9,233.9z"/>
			<path class="st0" d="M229.1,293.7c-8.8-0.1-15.7-3.1-21.1-8C212.7,289,220.5,293.3,229.1,293.7z"/>
			<circle class="st2" cx="212.9" cy="230.5" r="3.7"/>
			<polygon class="st0" points="208.5,284.9 207.9,285.6 208.5,284.8 			"/>
			<path class="st0" d="M208.5,284.8l-0.6,0.8c0,0-0.1,0-0.1-0.1c-1.5-1.4-2.9-2.9-4.2-4.5c0-0.4-0.3-0.8-0.7-0.9
				c-5.2-6.9-8.4-15.6-10.5-24.3c0.1-0.1,0.2-0.3,0.3-0.4l-0.5-0.4c0-0.1,0-0.2-0.1-0.2c-0.7-3.2-1.3-6.3-1.7-9.3
				c0.3-0.1,0.4-0.4,0.2-0.6c-0.2-0.3-0.3-0.6-0.5-0.9c-0.4-3.1-0.7-6.1-0.9-8.8l0,0l0.8-0.5c0,0-0.3-0.5-0.9-1.1c0-0.1,0-0.2,0-0.3
				l1-0.1c0,0.6,0.1,1.3,0.1,1.9c0.4,5.7,1.2,12.6,2.8,19.5C195.7,266,200.4,277.5,208.5,284.8z"/>
			<path class="st0" d="M208,285.7l-0.6,0.8l-0.1-0.1L208,285.7z"/>
			<path class="st0" d="M208,285.7l-0.6,0.7l0,0l0,0c-1.3-1.2-2.5-2.4-3.6-3.8v-0.3c0.6,0.6,2.1,1.8,4.2,3.2
				C207.8,285.6,207.9,285.6,208,285.7L208,285.7z"/>
			<path class="st0" d="M207.8,285.6c-2.1-1.5-3.5-2.7-4.2-3.2V282v-0.8c0,0,0,0,0-0.1C204.9,282.7,206.3,284.2,207.8,285.6z"/>
			<path class="st0" d="M203.6,282.7v29.1l-0.1,0.4c-0.1,0.2-6.1,12-26.1,16.4l-1.6-0.7c20.8-4.1,26.8-16.2,26.8-16.2V282h0.5
				c0.1,0.1,0.2,0.3,0.3,0.4l0,0C203.5,282.5,203.6,282.6,203.6,282.7z"/>
			<path class="st2" d="M203.6,282.6v0.1c-0.1-0.1-0.1-0.2-0.2-0.3C203.5,282.4,203.6,282.5,203.6,282.6z"/>
			<path class="st0" d="M203.6,282.3v0.3c-0.1-0.1-0.1-0.1-0.2-0.2l0,0c-0.1-0.3-0.2-0.4-0.2-0.4S203.4,282.1,203.6,282.3z"/>
			<path class="st0" d="M203.6,282v0.4c-0.3-0.2-0.4-0.4-0.4-0.4h-0.1c-0.4-0.5-0.8-1-1.2-1.5c0.2-0.2,0.4-0.3,0.7-0.3
				c0.1,0,0.2,0,0.3,0.1c0.2,0.3,0.4,0.6,0.7,0.9c0,0,0,0,0,0.1V282z"/>
			<path class="st0" d="M203.6,281.1c-0.2-0.3-0.4-0.6-0.7-0.9C203.3,280.3,203.6,280.7,203.6,281.1z"/>
			<path class="st0" d="M203.4,282.3c-0.1-0.1-0.2-0.3-0.3-0.4h0.1C203.2,282,203.3,282.1,203.4,282.3z"/>
			<path class="st0" d="M203.1,282h-0.5v29.8l-0.9-0.4l0,0c0,0-0.1,0.1-0.1,0.2V282v-0.8c0-0.3,0.1-0.5,0.3-0.7
				C202.3,280.9,202.7,281.5,203.1,282z"/>
			<path class="st0" d="M203,280.2c-0.1,0-0.2-0.1-0.3-0.1c-0.3,0-0.5,0.1-0.7,0.3c-1.9-2.6-3.5-5.4-5-8.3
				c-2.3-4.9-4.1-10.2-5.3-15.4l0,0c0.3-0.2,0.6-0.5,0.8-0.8C194.5,264.6,197.8,273.3,203,280.2z"/>
			<path class="st0" d="M202.7,311.8h-1v-0.3c0-0.1,0.1-0.1,0.1-0.2l0,0L202.7,311.8z"/>
			<path class="st0" d="M201.7,311.8h1c0,0-6,12.1-26.8,16.2l-0.9-0.4c0.1-0.3,0.4-0.5,0.7-0.6c18.8-3.8,25.2-14,26-15.5V311.8z"/>
			<path class="st2" d="M198.4,193.4l-0.1,0.1c-2.2,3.3-2.8,7.4-2.2,11.3c1.5,9.7-5.1,24.5-6.8,28.4c-0.4-7.4-0.2-12.4-0.2-12.4
				s-0.8-15.7,8.2-28.2L198.4,193.4z"/>
			<path class="st0" d="M192.8,255.5c-0.1,0.2-0.2,0.3-0.3,0.4c-0.1-0.3-0.1-0.6-0.2-0.8L192.8,255.5z"/>
			<path class="st0" d="M192.3,255.1c0.1,0.3,0.1,0.6,0.2,0.8c-0.3,0.3-0.5,0.6-0.8,0.8c-0.1-0.4-0.2-0.7-0.3-1.1
				c0.2-0.2,0.4-0.5,0.6-0.7L192.3,255.1z"/>
			<path class="st0" d="M192.3,255.1l-0.2-0.2l0.2-0.1C192.2,254.9,192.3,255,192.3,255.1z"/>
			<path class="st0" d="M192.2,254.8l-0.2,0.1l-0.8-0.6c0,0.1-0.1,0.1-0.1,0.1c-0.8-3.5-1.4-6.9-1.8-10.2c0.2,0.3,0.4,0.6,0.5,1
				c0.1,0.3,0.4,0.4,0.6,0.2C190.9,248.5,191.5,251.7,192.2,254.8z"/>
			<path class="st0" d="M191.3,254.3l0.8,0.6c-0.2,0.3-0.4,0.5-0.6,0.7c-0.1-0.2-0.1-0.4-0.1-0.6
				C191.3,254.8,191.3,254.6,191.3,254.3C191.2,254.4,191.2,254.4,191.3,254.3z"/>
			<path class="st0" d="M191.7,256.7L191.7,256.7c-1,0.8-2.1,1.2-3.3,1.2c-1.7,0-3.3-0.7-4.8-1.8c-1.5-1.1-2.9-2.7-4.1-4.5l0,0
				c-1.9-3.1-3.3-7.7-3.3-11.9c0-1.7,0.2-3.4,0.8-4.9s1.5-2.7,2.8-3.5c1.1-0.6,2.2-0.9,3.2-0.9c2.2,0,3.9,1.1,5.1,2.2
				c0.2,0.1,0.3,0.3,0.4,0.4l0,0c0,0.1,0,0.2,0,0.3h-0.4c0,0.2,0,0.5,0.1,0.7c-1.5-1.6-4.6-3.9-8-1.8c-4.9,2.9-3.3,13.6,0,18.9
				c3.1,5,8,7.6,11.1,4.6C191.5,256,191.6,256.3,191.7,256.7z"/>
			<path class="st0" d="M191.3,255.1c0.1,0.2,0.1,0.4,0.1,0.6c-3.1,3-8,0.4-11.1-4.6c-3.3-5.3-4.9-16,0-18.9c3.4-2,6.5,0.3,8,1.8
				c0,0.4,0.1,0.9,0.1,1.3c0,0.1,0,0.2,0,0.3c-0.1-0.1-0.2-0.2-0.3-0.4c-0.3-0.3-0.7-0.8-1.2-1.2c-1-0.9-2.4-1.7-3.8-1.7
				c-0.7,0-1.4,0.2-2.3,0.6c-0.9,0.5-1.5,1.4-2,2.5c-0.4,0.9-0.6,2-0.6,3.2c0,0.3,0,0.6,0,0.9c0,3.8,1.3,8.2,3,10.9l0,0
				c1,1.7,2.3,3.1,3.6,4s2.5,1.4,3.6,1.4c1,0,1.9-0.4,2.8-1.5C191.2,254.7,191.2,254.9,191.3,255.1z"/>
			<path class="st2" d="M190.7,244.9c0.1,0.2,0,0.5-0.2,0.6c-0.1-0.5-0.2-1-0.2-1.6C190.4,244.2,190.6,244.5,190.7,244.9z"/>
			<path class="st2" d="M190.5,245.5c-0.2,0.1-0.5,0-0.6-0.2c-0.2-0.3-0.3-0.7-0.5-1c-0.1-0.8-0.2-1.5-0.3-2.3
				c0.4,0.6,0.9,1.2,1.2,1.9C190.3,244.5,190.4,245,190.5,245.5z"/>
			<path class="st0" d="M190.1,234.6l-0.8,0.5c-0.1-0.6-0.1-1.1-0.1-1.6C189.8,234.1,190.1,234.6,190.1,234.6z"/>
			<path class="st0" d="M189.4,235.2c0.2,2.7,0.5,5.7,0.9,8.8c-0.4-0.7-0.8-1.4-1.2-1.9c-0.3-2.3-0.5-4.4-0.6-6.4l0.1,0.1l0,0
				L189.4,235.2L189.4,235.2z"/>
			<path class="st3" d="M189.4,235.1C189.4,235.2,189.4,235.2,189.4,235.1L189.4,235.1L189.4,235.1z"/>
			<path class="st0" d="M189.3,244.3c0.4,3.3,1,6.7,1.8,10.2c-0.9,1.1-1.7,1.5-2.8,1.5s-2.4-0.5-3.6-1.4c-1.3-0.9-2.5-2.3-3.6-4l0,0
				c-1.7-2.7-3-7.1-3-10.9c0-0.3,0-0.6,0-0.9l2.2,0.1c0,0.1,0,0.1,0,0.2c0.1,0.3,0.4,0.4,0.6,0.3l0,0c0.1,0,0.5-0.2,1.2-0.2
				c1.1,0,2.8,0.3,4.6,1.9c-0.3,0.2-0.8,0.6-1.2,1c-0.9,0.9-1.8,2.2-1.8,3.8c0,1.1,0.4,2.3,1.5,3.6c0.2,0.2,0.5,0.2,0.7,0.1
				c0.2-0.2,0.2-0.5,0.1-0.7c-0.9-1.1-1.2-2.1-1.2-3c0-1.3,0.8-2.4,1.6-3.1c0.4-0.4,0.8-0.7,1.1-0.9l0.2-0.1
				C188.1,242.4,188.8,243.2,189.3,244.3z"/>
			<path class="st0" d="M189.4,235.1L189.4,235.1c0,0-0.4-0.5-1.1-1.2c0-0.2,0-0.5-0.1-0.7h0.4c0.1,0.3,0.1,0.6,0.1,0.9
				c0,0,0.1-0.3,0.3-0.7l0.1,0.1C189.3,234,189.3,234.6,189.4,235.1z"/>
			<path class="st0" d="M189.3,235.2l-0.8,0.5l0,0l-0.1-0.1l0,0c0-0.1,0-0.2,0-0.3c0-0.4-0.1-0.9-0.1-1.3
				C189,234.6,189.3,235.2,189.3,235.2z"/>
			<path class="st0" d="M189.2,233.2c0,0.1,0,0.2,0,0.3l-0.1-0.1C189.2,233.3,189.2,233.3,189.2,233.2z"/>
			<path class="st2" d="M189.2,233.2c0,0.1-0.1,0.1-0.1,0.2c-0.1-0.1-0.1-0.1-0.2-0.2H189.2z"/>
			<path class="st2" d="M189,242c0.1,0.8,0.2,1.5,0.3,2.3c-0.6-1-1.2-1.9-1.8-2.6l0.2-0.1l0.1-0.1c0.2-0.1,0.3-0.4,0.2-0.7
				C188.4,241.2,188.7,241.6,189,242z"/>
			<path class="st2" d="M188.9,233.2c0.1,0.1,0.1,0.1,0.2,0.2c-0.2,0.5-0.3,0.7-0.3,0.7c-0.1-0.3-0.1-0.6-0.1-0.9H188.9z"/>
			<path class="st2" d="M188.9,233.2h-0.3c0-0.1,0-0.2,0-0.3C188.7,233,188.8,233.1,188.9,233.2z"/>
			<path class="st0" d="M188.4,235.6c0.1,2,0.3,4.2,0.6,6.4c-0.3-0.4-0.6-0.8-1-1.1c0-0.1-0.1-0.1-0.2-0.2c-1-1.1-2.1-1.7-3-2
				c-1-0.4-1.9-0.5-2.6-0.5c-0.9,0-1.5,0.2-1.5,0.2c-0.2,0.1-0.3,0.3-0.3,0.5l-2.2-0.1c0.1-1.2,0.3-2.3,0.6-3.2c0.4-1.2,1.1-2,2-2.5
				c0.8-0.5,1.6-0.6,2.3-0.6c1.4,0,2.8,0.8,3.8,1.7c0.5,0.4,0.9,0.9,1.2,1.2C188.3,235.4,188.3,235.5,188.4,235.6L188.4,235.6z"/>
			<path class="st2" d="M188,240.9c0.1,0.2,0,0.5-0.2,0.7l-0.1,0.1l-0.2,0.1c-0.1-0.1-0.2-0.2-0.3-0.3c-0.2-0.2-0.3-0.3-0.4-0.4
				c0.3-0.2,0.5-0.3,0.6-0.3C187.6,240.7,187.7,240.7,188,240.9C187.9,240.7,188,240.8,188,240.9z"/>
			<path class="st2" d="M187.9,240.7c-0.1-0.1-0.3-0.1-0.5,0c0,0-0.2,0.1-0.6,0.3c-1.8-1.6-3.5-1.9-4.6-1.9c-0.7,0-1.1,0.1-1.2,0.2
				l0,0c-0.3,0.1-0.5-0.1-0.6-0.3c0-0.1,0-0.1,0-0.2c0-0.2,0.1-0.4,0.3-0.5c0,0,0.6-0.2,1.5-0.2c0.7,0,1.6,0.1,2.6,0.5
				C185.8,239,186.8,239.6,187.9,240.7z"/>
			<path class="st2" d="M187.3,241.4c0.1,0.1,0.2,0.2,0.3,0.3l-0.2,0.1c-0.3,0.2-0.7,0.5-1.1,0.9c-0.8,0.8-1.6,1.9-1.6,3.1
				c0,0.9,0.3,1.8,1.2,3c0.2,0.2,0.1,0.5-0.1,0.7c-0.2,0.2-0.5,0.1-0.7-0.1c-1-1.3-1.5-2.5-1.5-3.6c0-1.7,0.9-3,1.8-3.8
				c0.5-0.4,0.9-0.8,1.2-1C187,241.2,187.1,241.3,187.3,241.4z"/>
			<path class="st3" d="M175.8,328l1.6,0.7c-0.5,0.1-0.9,0.2-1.4,0.3c-0.5,0.1-1-0.2-1.1-0.8c0-0.2,0-0.4,0.1-0.6L175.8,328z"/>
		</g>
	</g>
</g>
</svg>
