<?xml version="1.0" encoding="utf-8"?>
<!-- Generator: Adobe Illustrator 23.0.4, SVG Export Plug-In . SVG Version: 6.00 Build 0)  -->
<svg version="1.1" id="Camada_1" xmlns="http://www.w3.org/2000/svg" xmlns:xlink="http://www.w3.org/1999/xlink" x="0px" y="0px"
	 viewBox="0 0 464 412.9" style="enable-background:new 0 0 464 412.9;" xml:space="preserve">
<style type="text/css">
	.st0{fill:#0000FF;}
	.st1{fill:url(#SVGID_1_);}
	.st2{fill:#2E2B28;}
	.st3{fill:#FFFFFF;}
	.st4{fill:#221E22;}
	.st5{fill:#333333;}
	.st6{fill:#EE5622;}
	.st7{fill:#FBB03B;}
	.st8{fill:#9E005D;}
	.st9{fill:#EFEF0C;}
</style>
<g>
	<g>
		<g>
			<path class="st0" d="M298.5,184.9l-4.4,8.2l8,15.7l-6.1,13.5l3.6,12.6c0,0-3,9-9.7,15.3c-2.8,2.7,3.6-1.3-0.6-7.9
				c-5.9-9.5-28.2-15-28.2-15l17.5-43.7L298.5,184.9z"/>
			
				<linearGradient id="SVGID_1_" gradientUnits="userSpaceOnUse" x1="232.3828" y1="-74.3513" x2="178.5399" y2="1.3533" gradientTransform="matrix(1 0 0 1 0 332)">
				<stop  offset="0.5354" style="stop-color:#0000FF"/>
				<stop  offset="0.5802" style="stop-color:#0000FC"/>
				<stop  offset="0.6194" style="stop-color:#0000F1"/>
				<stop  offset="0.6566" style="stop-color:#0000DF"/>
				<stop  offset="0.6925" style="stop-color:#0000C5"/>
				<stop  offset="0.7275" style="stop-color:#0000A5"/>
				<stop  offset="0.7619" style="stop-color:#00007D"/>
				<stop  offset="0.7957" style="stop-color:#00004D"/>
				<stop  offset="0.8283" style="stop-color:#000017"/>
				<stop  offset="0.8411" style="stop-color:#000000"/>
			</linearGradient>
			<path class="st1" d="M172.3,273.7c0,0-0.7,7.1-3.3,10c-1.6,1.7-4.6,5.5-6.9,8.4c-1.9,2.3-1.9,5.6-0.1,8c2.8,3.8,7.6,9.5,14.7,15
				c7.2,5.6,14.4,9.8,19,12.2c2.9,1.6,6.4,0.7,8.3-1.9c4.4-5.9,12-16,14.4-17.6c3.6-2.3,27-12,39.6-24.1
				c12.5-12.1,13.1-12.3,13.1-12.3l-61-0.6c-1.4,0-2.8-0.4-3.9-1.2l-6.7-6.7L172.3,273.7z"/>
			<path class="st0" d="M286.5,138.5c1.3-0.8,16-12.7,22.9-15.3c7-2.6,17.6,8.1,7.2,18.1c-10.2,9.6-31.2,25.3-31.2,25.3L286.5,138.5
				z"/>
			<path class="st2" d="M260.2,118.4c0-1-0.8-1.9-1.9-1.9s-1.9,0.8-1.9,1.9s0.8,1.9,1.9,1.9C259.5,120.3,260.2,119.4,260.2,118.4z"
				/>
			<circle cx="258.5" cy="118.4" r="1.2"/>
		</g>
	</g>
	<g>
		<g>
			<g>
				<path class="st3" d="M214.1,272.3c-9.2,0-16.7-7.5-16.7-16.7l-0.1-151c0.1-9.2,7.6-16.7,16.7-16.7h59.7
					c9.2,0,16.7,7.5,16.7,16.7l0.1,151c0,9.2-7.5,16.7-16.7,16.7H214.1z M214,89.1c-8.5,0-15.4,7-15.5,15.5l0.1,151
					c0,8.5,7,15.4,15.5,15.4h59.7c8.5-0.1,15.5-7,15.5-15.5l-0.1-151c0-8.5-7-15.4-15.5-15.4L214,89.1L214,89.1z"/>
			</g>
		</g>
		<g>
			<g>
				<path class="st3" d="M227.8,97.6c-0.3-1.3,0.8-2.5,2.2-2.2c0.6,0.1,1.2,0.7,1.3,1.3c0.3,1.3-0.8,2.5-2.2,2.2
					C228.4,98.8,227.9,98.2,227.8,97.6z"/>
			</g>
		</g>
		<g>
			<g>
				<path class="st3" d="M234.5,96.7c0.1-0.5,0.7-0.9,1.3-0.9h12.6c0.6,0,1.2,0.4,1.3,0.9c0.3,0.9-0.4,1.8-1.3,1.8h-12.7
					C235,98.5,234.2,97.6,234.5,96.7z"/>
			</g>
		</g>
		<g>
			<g>
				<g>
					<path class="st3" d="M291.2,143.6h-1.6v-17.3h1.7c1.3,0,2.2,1,2.2,2.4v12.4C293.7,142.6,292.5,143.6,291.2,143.6z M290.9,142.4
						h0.3c0.7,0,1.2-0.5,1.2-1.2v-12.5c0-0.7-0.4-1.2-1-1.2h-0.5L290.9,142.4L290.9,142.4z"/>
				</g>
			</g>
		</g>
		<g>
			<g>
				<g>
					<path class="st3" d="M291.3,162.1h-1.6v-17.3h1.7c1.3,0,2.2,1,2.2,2.4v12.4C293.7,161.1,292.6,162.1,291.3,162.1z M291,160.9
						h0.3c0.7,0,1.2-0.5,1.2-1.2v-12.5c0-0.7-0.4-1.2-1-1.2h-0.5L291,160.9L291,160.9z"/>
				</g>
			</g>
		</g>
		<g>
			<g>
				<g>
					<path class="st3" d="M198.3,143.6h-1.7c-1.3,0-2.2-1-2.2-2.4v-12.4c0-1.3,1-2.4,2.4-2.4h1.6L198.3,143.6L198.3,143.6z
						 M196.7,127.5c-0.7,0-1.2,0.5-1.2,1.2v12.4c0,0.7,0.4,1.2,1,1.2h0.5v-14.9L196.7,127.5L196.7,127.5z"/>
				</g>
			</g>
		</g>
		<g>
			<g>
				<rect x="200.1" y="103.7" class="st4" width="87.2" height="22.2"/>
			</g>
			<g>
				<rect x="200.1" y="125.1" class="st5" width="87.2" height="22.2"/>
			</g>
			<g>
				<rect x="200.1" y="146.6" class="st6" width="87.2" height="22.2"/>
			</g>
			<g>
				<rect x="200.1" y="168.9" class="st7" width="87.2" height="22.2"/>
			</g>
			<g>
				<rect x="200.1" y="191" class="st8" width="87.2" height="22.2"/>
			</g>
			<g>
				<rect x="200.1" y="213.2" class="st0" width="87.2" height="22.2"/>
			</g>
			<g>
				<rect x="200.1" y="233.9" class="st9" width="87.2" height="22.2"/>
			</g>
		</g>
	</g>
	<g>
		<path class="st0" d="M173.8,279.4c0,0-7.2-25-1.6-48.2s10.7-23.9,12.7-44.8c0.8-8.3-1.8-21.4,0-26.8c1.8-5.4,12.6-4.8,17.3,11.3
			s1.5,38.2-0.5,46.1c-1.9,7.9-1.6,50.8-1.6,50.8L173.8,279.4z"/>
	</g>
	<g>
		<path class="st0" d="M291.6,165.5c0,0-10.5,4.7-13.3,8.8c-2.8,4.1-1.9,16.5,7.9,16.7c9.8,0.3,16.6-7.6,17.9-12.3
			C306.5,170.4,300.8,160,291.6,165.5z"/>
	</g>
	<g>
		<path class="st0" d="M291.7,191.5c0,0-10.5,4.7-13.3,8.8c-2.8,4.1-1.9,16.5,7.9,16.7c9.8,0.3,16.6-7.6,17.9-12.3
			C306.7,196.4,301,185.9,291.7,191.5z"/>
	</g>
	<g>
		<path class="st0" d="M291.7,218.9c0,0-9,4.1-11.4,7.6c-2.4,3.6-1.6,14.2,6.8,14.4c8.4,0.2,14.2-6.6,15.3-10.5
			C304.5,223,299.6,214.1,291.7,218.9z"/>
	</g>
</g>
</svg>
