<?xml version="1.0" encoding="utf-8"?>
<!-- Generator: Adobe Illustrator 23.0.4, SVG Export Plug-In . SVG Version: 6.00 Build 0)  -->
<svg version="1.1" id="Camada_1" xmlns="http://www.w3.org/2000/svg" xmlns:xlink="http://www.w3.org/1999/xlink" x="0px" y="0px"
	 viewBox="0 0 464 412.9" style="enable-background:new 0 0 464 412.9;" xml:space="preserve">
<style type="text/css">
	.st0{fill:#FFFFFF;}
	.st1{fill:#0000FF;}
	.st2{fill:url(#SVGID_1_);}
	.st3{fill:#2E2B28;}
	.st4{fill:none;stroke:#FFFFFF;stroke-width:2;stroke-miterlimit:10;}
	.st5{fill:#221E22;}
	.st6{fill:#333333;}
	.st7{fill:#EE5622;}
	.st8{fill:#FBB03B;}
	.st9{fill:#9E005D;}
	.st10{fill:#EFEF0C;}
	.st11{fill:#44355B;}
	.st12{fill:#2C1F44;}
	.st13{fill:#CED5D8;}
	.st14{fill:#B53F1F;}
	.st15{fill:#83B8FC;}
	.st16{fill:#E2F1F7;}
	.st17{fill:#F49E87;}
	.st18{fill:#F1B653;}
	.st19{opacity:0.3;fill:#44355B;}
	.st20{fill:url(#SVGID_2_);}
	.st21{fill:url(#SVGID_3_);}
	.st22{fill:url(#SVGID_4_);}
	.st23{fill:url(#SVGID_5_);}
	.st24{fill:url(#SVGID_6_);}
	.st25{fill:url(#SVGID_7_);}
</style>
<g>
	<g>
		<path class="st0" d="M448.2,155.2l-27.8,99.2l-3.4,11.8l-5,17.4l-4.7,16.3l-4.5,15.6l-0.5,1.6l-0.1,0.3l-2,1.2v-1.3l45.8-161.9
			L448.2,155.2 M449.6,154.1l-4.3,0.5l-46,162.6v3.2l3.9-2.2l0.2-0.7l0.5-1.6l4.5-15.6l4.7-16.3l5-17.4l3.4-11.8L449.6,154.1
			L449.6,154.1z"/>
	</g>
	<g>
		<polygon class="st0" points="122.2,210.3 105.4,219.9 105.4,222 122.2,212.4 122.2,210.3 		"/>
	</g>
	<g>
		<polygon class="st0" points="100,216.7 100,218.4 100,218.8 105.4,222 105.4,219.9 100,216.7 		"/>
	</g>
	<g>
		<path class="st0" d="M208.4,17.1L444.1,155l-45.5,160.7L163,177.8l32.4-112.8L208.4,17.1 M207.8,15.6l-13.4,49.1l-32.6,113.6
			l237.5,139l46-162.6L207.8,15.6L207.8,15.6z"/>
	</g>
	<g>
		<path class="st0" d="M161.8,179.4l237.5,136.5c0,0,0,0,0,0l-152.9,82.4l-228-133.8l-0.2-0.1l-0.2,0l-2.7-0.2L99,216.9v1.5v0.4v0.6
			l0.5,0.3l5.4,3.2l0.5,0.3l0.5-0.3l16.8-9.6l0.5-0.3v-0.6V211l1.2,0.7l0.5,0.3l0.5-0.3l10.9-6.2v0.5v2.1v0.6l0.5,0.3l16.1,9.4
			l0.5,0.3l0.5-0.3l1.6-0.9v1.9v0.6l0.5,0.3l10.7,6.3l0.5,0.3l0.5-0.3l0.7-0.4v0.9v0.6l0.5,0.3l10.7,6.3l0.5,0.3l0.5-0.3l0.7-0.4
			v0.9v0.6l0.5,0.3l10.7,6.3l0.5,0.3l0.5-0.3l0.7-0.4v0.9v0.6l0.5,0.3l10.7,6.3l0.5,0.3l0.5-0.3l1.6-0.9v1.9v0.6l0.5,0.3l10.7,6.3
			l0.5,0.3l0.5-0.3l0.7-0.4v0.9v0.6l0.5,0.3l10.7,6.3l0.5,0.3l0.5-0.3l0.7-0.4v0.9v0.6l0.5,0.3l10.7,6.3l0.5,0.3l0.5-0.3l0.4-0.2
			v0.5v0.6l0.5,0.3l10.7,6.3l0.5,0.3l0.5-0.3l1.6-0.9v1.9v0.6l0.5,0.3l10.7,6.3l0.5,0.3l0.5-0.3l0.7-0.4v0.9v0.6l0.5,0.3l10.7,6.3
			l0.5,0.3l0.5-0.3l0.7-0.4v0.9v0.6l0.5,0.3l15.6,9.1l0.5,0.3l0.5-0.3l6.7-3.8l0.5-0.3v-0.6v-2.1v-0.6l-0.5-0.3l-15.6-9.1l-0.5-0.3
			l-0.5,0.3l-0.7,0.4v-0.9v-0.6l-0.5-0.3l-10.7-6.3l-0.5-0.3l-0.5,0.3l-0.7,0.4v-0.9v-0.6l-0.5-0.3l-10.7-6.3l-0.5-0.3l-0.5,0.3
			l-1.6,0.9v-1.9v-0.6l-0.5-0.3l-10.7-6.3l-0.5-0.3l-0.5,0.3l-0.4,0.2v-0.5v-0.6l-0.5-0.3l-10.7-6.3l-0.5-0.3l-0.5,0.3l-0.7,0.4
			v-0.9v-0.6l-0.5-0.3l-10.7-6.3l-0.5-0.3l-0.5,0.3l-0.7,0.4v-0.9V250l-0.5-0.3l-10.7-6.3l-0.5-0.3l-0.5,0.3l-1.6,0.9v-1.9v-0.6
			l-0.5-0.3l-10.7-6.3l-0.5-0.3l-0.5,0.3l-0.7,0.4v-0.9v-0.6l-0.5-0.3l-10.7-6.3l-0.5-0.3l-0.5,0.3l-0.7,0.4v-0.9v-0.6l-0.5-0.3
			l-10.7-6.3l-0.5-0.3l-0.5,0.3l-0.7,0.4v-0.9v-0.6l-0.5-0.3l-10.7-6.3l-0.5-0.3l-0.5,0.3l-1.6,0.9v-1.9V211l-0.5-0.3l-16.1-9.4
			L144,201l-0.5,0.3l-0.8,0.5v-0.5v-1.4l1.2,0.7l0.5,0.3l0.5-0.3l16.8-9.6l0.5-0.3v-0.6v-2.1v-0.6l-0.5-0.3l-5.4-3.2l-0.5-0.3
			l-0.5,0.3l-9.6,5.5L161.8,179.4 M166,200.8l-2.2-1.3l-0.5-0.3l-0.5,0.3l-6.7,3.8l-0.5,0.3v0.6v2.1v0.6l0.5,0.3l8,4.7l0.5,0.3
			l0.5-0.3l1.6-0.9v1.9v0.6l0.5,0.3l10.7,6.3l0.5,0.3l0.5-0.3l0.7-0.4v0.9v0.6l0.5,0.3l10.7,6.3l0.5,0.3l0.5-0.3l0.7-0.4v0.9v0.6
			l0.5,0.3l10.7,6.3l0.5,0.3l0.5-0.3l0.7-0.4v0.9v0.6l0.5,0.3l10.7,6.3l0.5,0.3l0.5-0.3l1.6-0.9v1.9v0.6l0.5,0.3l10.7,6.3l0.5,0.3
			l0.5-0.3l0.7-0.4v0.9v0.6l0.5,0.3l10.7,6.3l0.5,0.3l0.5-0.3l0.7-0.4v0.9v0.6l0.5,0.3l10.7,6.3l0.5,0.3l0.5-0.3l0.4-0.2v0.5v0.6
			l0.5,0.3l10.7,6.3l0.5,0.3l0.5-0.3l1.6-0.9v1.9v0.6l0.5,0.3l10.7,6.3l0.5,0.3l0.5-0.3l0.7-0.4v0.9v0.6l0.5,0.3l10.7,6.3l0.5,0.3
			l0.5-0.3l0.7-0.4v0.9v0.6l0.5,0.3l11.7,6.8l0.5,0.3l0.5-0.3l6.7-3.8l0.5-0.3v-0.6v-2.1v-0.4l2.2,1.3l0.5,0.3l0.5-0.3l6.7-3.8
			l0.5-0.3v-0.6v-2.1V284l-0.5-0.3l-11.7-6.8l-0.5-0.3l-0.5,0.3l-0.7,0.4v-0.9v-0.6l-0.5-0.3l-10.7-6.3l-0.5-0.3l-0.5,0.3l-0.7,0.4
			v-0.9v-0.6l-0.5-0.3l-10.7-6.3l-0.5-0.3l-0.5,0.3l-1.6,0.9v-1.9v-0.6l-0.5-0.3l-10.7-6.3l-0.5-0.3l-0.5,0.3l-0.4,0.2v-0.5v-0.6
			l-0.5-0.3l-10.7-6.3l-0.5-0.3l-0.5,0.3l-0.7,0.4v-0.9v-0.6l-0.5-0.3l-10.7-6.3l-0.5-0.3l-0.5,0.3l-0.7,0.4v-0.9v-0.6l-0.5-0.3
			l-10.7-6.3l-0.5-0.3l-0.5,0.3l-1.6,0.9v-1.9v-0.6l-0.5-0.3l-10.7-6.3l-0.5-0.3l-0.5,0.3l-0.7,0.4v-0.9v-0.6l-0.5-0.3l-10.7-6.3
			l-0.5-0.3l-0.5,0.3l-0.7,0.4v-0.9v-0.6l-0.5-0.3l-10.7-6.3l-0.5-0.3l-0.5,0.3l-0.7,0.4v-0.9v-0.6l-0.5-0.3l-10.7-6.3l-0.5-0.3
			l-0.5,0.3l-1.6,0.9v-1.9v-0.6l-0.5-0.3l-8-4.7l-0.5-0.3l-0.5,0.3l-6.7,3.8l-0.5,0.3v0.6v2.1V200.8 M128.3,217.2l-4.9-2.9l-0.5-0.3
			l-0.5,0.3l-6.7,3.8l-0.5,0.3v0.6v2.1v0.6l0.5,0.3l2,1.2l-6.4,3.7l-0.5,0.3v0.6v2.1v0.6l0.5,0.3L122,237l0.5,0.3l0.5-0.3l1.6-0.9
			v1.9v0.6l0.5,0.3l10.7,6.3l0.5,0.3l0.5-0.3l0.7-0.4v0.9v1.7l1.5-0.9l1.3-0.8l7.9,4.6v1.5v1.7l1.5-0.9l0.7-0.4v0.9v0.6l0.5,0.3
			l10.7,6.3l0.5,0.3l0.5-0.3l6.7-3.8l0.5-0.3v-0.6v-1.8l1.5,0.9l0.5,0.3l0.5-0.3l0.7-0.4v0.9v0.6l0.5,0.3l1.5,0.9l-6.4,3.7l-0.5,0.3
			v0.6v2.1v0.6l0.5,0.3l48.3,28.2l0.5,0.3l0.5-0.3l6.7-3.8l0.5-0.3v-0.6v-2.1v-0.3l0.4-0.2v0.5v0.6l0.5,0.3l1.8,1.1l-6.4,3.7
			l-0.5,0.3v0.6v2.1v0.6l0.5,0.3l10.7,6.3l0.5,0.3l0.5-0.3l0.4-0.2v0.5v0.6l0.5,0.3l10.7,6.3l0.5,0.3l0.3-0.2v0.4l0.5,0.3L257,316
			l0.5,0.3l0.5-0.3l6.7-3.8l0.5-0.3v-0.6v-2.1v-0.6l-0.2-0.1l0.5-0.3v0.9v0.6l0.5,0.3l9.8,5.7l-1.9,1.1l-0.5,0.3v0.6v0.4l-0.3-0.2
			l-0.5-0.3l-0.5,0.3l-0.3,0.2v-0.4V317l-0.5-0.3l-4.8-2.8l-0.5-0.3l-0.5,0.3l-2.7,1.6l-0.5,0.3v0.6v2.1v0.6l0.5,0.3l4.8,2.8
			l0.5,0.3l0.5-0.3l0.3-0.2v0.4v0.6l0.5,0.3l4.8,2.8l0.5,0.3l0.5-0.3l0.3-0.2v0.4v0.6l0.5,0.3l4.8,2.8l0.5,0.3l0.5-0.3l2.2-1.3v0.5
			v2.1v0.6l0.5,0.3l5.9,3.5l0.5,0.3l0.5-0.3l0.7-0.4v0.9v0.6l0.5,0.3l5.9,3.5l0.5,0.3l0.5-0.3l0.4-0.3v0.5v0.6l0.5,0.3l5.9,3.5
			l0.5,0.3l0.5-0.3l0.7-0.4v0.9v0.6l0.5,0.3l5.9,3.5l0.5,0.3l0.5-0.3l4.2-2.4v1.8v0.6l0.5,0.3l4.8,2.8l0.5,0.3l0.5-0.3l15.3-8.7
			l0.5-0.3v-0.6v-2.1v-0.4l2.2,1.3l0.5,0.3l0.5-0.3l15.3-8.7l0.5-0.3v-0.6v-1.8l1.5,0.9l0.5,0.3l0.5-0.3l15.3-8.7l0.5-0.3V322v-2.1
			v-0.6l-0.5-0.3l-4.8-2.8l-0.5-0.3l-0.5,0.3l-0.2,0.1v-1.8v-0.6l-0.5-0.3l-5.9-3.5l-0.5-0.3l-0.5,0.3l-0.7,0.4v-0.9v-0.6l-0.5-0.3
			l-5.9-3.5l-0.5-0.3l-0.5,0.3l-0.4,0.3v-0.5v-0.6l-0.5-0.3l-5.9-3.5l-0.5-0.3l-0.5,0.3l-0.7,0.4v-0.9v-0.6l-0.5-0.3l-5.9-3.5
			l-0.5-0.3l-0.5,0.3l-6.7,3.8l-0.5,0.3v0.6v2.1v0.4l-2.2-1.3l-0.5-0.3l-0.5,0.3l-6.7,3.8l-0.5,0.3v0.6v1.8l-1.5-0.9l-0.5-0.3
			l-0.5,0.3l-6.7,3.8l-0.5,0.3v0.6v2.1v0l-1.9-1.1l-0.5-0.3l-0.5,0.3l-6.7,3.8l-0.5,0.3v0.6v2.1v0.4l-2.2-1.3l-0.5-0.3l-0.5,0.3
			l-6.7,3.8l-0.5,0.3v0.6v1.1l-0.9-0.5l-0.5-0.3l-0.5,0.3l-6.2,3.5v-0.5v-2.1v-0.6l-0.5-0.3l-3.3-1.9l1.3-0.7l0.5-0.3V321v-2.1v-0.1
			l6.3-3.6l0.5-0.3v-0.6v-2.1v-0.4l4.9,2.9l0.5,0.3l0.5-0.3l6.7-3.8l0.5-0.3V310v-2.1v-0.6l-0.5-0.3l-15.6-9.1l-0.5-0.3l-0.5,0.3
			l-0.7,0.4v-0.9V297l-0.5-0.3l-10.7-6.3l-0.5-0.3l-0.5,0.3l-0.7,0.4v-0.9v-0.6l-0.5-0.3l-10.7-6.3l-0.5-0.3l-0.5,0.3l-1.6,0.9v-1.9
			v-0.6l-0.5-0.3l-10.7-6.3l-0.5-0.3l-0.5,0.3l-0.4,0.2v-0.5v-0.6l-0.5-0.3l-10.7-6.3l-0.5-0.3l-0.5,0.3l-0.7,0.4v-0.9v-0.6
			l-0.5-0.3l-10.7-6.3l-0.5-0.3l-0.5,0.3l-0.7,0.4v-0.9v-0.6l-0.5-0.3l-10.7-6.3l-0.5-0.3l-0.5,0.3l-1.6,0.9v-1.9v-0.6l-0.5-0.3
			l-10.7-6.3l-0.5-0.3l-0.5,0.3l-0.7,0.4v-0.9V243l-0.5-0.3l-10.7-6.3l-0.5-0.3l-0.5,0.3l-0.7,0.4V236v-0.6l-0.5-0.3l-10.7-6.3
			l-0.5-0.3l-0.5,0.3l-0.7,0.4v-0.9v-0.6l-0.5-0.3l-10.7-6.3l-0.5-0.3l-0.5,0.3l-1.6,0.9v-1.9v-0.6l-0.5-0.3l-16.1-9.4l-0.5-0.3
			l-0.5,0.3l-6.7,3.8l-0.5,0.3v0.6v2.1V217.2 M202,331.2l0.5-0.3l27.1-15.4l1-0.6l1.5-0.9l-1.5-0.9l-71.1-41.6l-0.5-0.3l-0.5,0.3
			l-28.1,16l-1.5,0.9l1.5,0.9l1,0.6l70.1,41L202,331.2 M351.8,299.1L351.8,299.1l0.6,0l0.1,0l0.1,0l0.5-0.1l0.1,0l0.1,0l0.2-0.1v0.9
			v0.1l0,0.1l0.1,0.3l0,0.2l0.1,0.2l0.2,0.3l0.1,0.1l0.1,0.1l0.3,0.3l0.1,0.1l0.1,0l0.4,0.2l0.1,0l0.1,0l0.5,0.1l0.1,0l0.1,0l0.6,0
			l0.1,0l0.1,0l0.6,0l0.1,0l0.1,0l0.5-0.1l0.1,0v0.6v0.1l0,0.1l0.1,0.3l0,0.2l0.1,0.2l0.2,0.3l0.1,0.1l0.1,0.1l0.3,0.3l0.1,0.1
			l0.1,0l0.4,0.2l0.1,0l0.1,0l0.5,0.1l0.1,0l0.1,0l0.6,0l0.1,0l0.1,0l0.6,0l0.1,0l0.1,0l0.5-0.1l0.1,0l0.1,0l0.4-0.2l0.1,0l0.1-0.1
			l0.3-0.3l0.1-0.1l0.1-0.1l0.2-0.3l0.1-0.2l0-0.2l0.1-0.3l0-0.1v-0.1v-2.1v-0.1l0-0.1l-0.1-0.3l0-0.2l-0.1-0.2l-0.2-0.3l-0.1-0.1
			l-0.1-0.1l-0.3-0.3l-0.1-0.1l-0.1,0l-0.4-0.2l-0.1,0l-0.1,0l-0.5-0.1l-0.1,0l-0.1,0l-0.6,0l-0.1,0l-0.1,0l-0.6,0l-0.1,0l-0.1,0
			l-0.5,0.1l-0.1,0v-0.6v-0.1l0-0.1l-0.1-0.3l0-0.2l-0.1-0.2l-0.2-0.3l-0.1-0.1l-0.1-0.1l-0.3-0.3l-0.1-0.1l-0.1,0l-0.4-0.2l-0.1,0
			l-0.1,0l-0.5-0.1l-0.1,0l-0.1,0l-0.6,0l-0.1,0l-0.1,0l-0.6,0l-0.1,0l-0.1,0l-0.5,0.1l-0.1,0l-0.1,0l-0.2,0.1v-0.9v-0.1l0-0.1
			l-0.1-0.3l0-0.2l-0.1-0.2l-0.2-0.3l-0.1-0.1l-0.1-0.1l-0.3-0.3l-0.1-0.1l-0.1,0l-0.4-0.2l-0.1,0l-0.1,0l-0.5-0.1l-0.1,0l-0.1,0
			l-0.6,0l-0.1,0l-0.1,0l-0.6,0l-0.1,0l-0.1,0l-0.5,0.1l-0.1,0l-0.1,0l-0.4,0.2l-0.1,0l-0.1,0.1l-0.3,0.3l-0.1,0.1l-0.1,0.1
			l-0.2,0.3l-0.1,0.2l0,0.2l-0.1,0.3l0,0.1v0.1v2.1v0.1l0,0.1l0.1,0.3l0,0.2l0.1,0.2l0.2,0.3l0.1,0.1l0.1,0.1l0.3,0.3l0.1,0.1l0.1,0
			l0.4,0.2l0.1,0l0.1,0l0.5,0.1l0.1,0l0.1,0L351.8,299.1L351.8,299.1 M138.1,194.3v0.1v1.4l-1.2-0.7l-0.1,0L138.1,194.3
			 M172.4,204.7l2,1.2l-0.3,0.2l-1.6,0.9v-1.9V204.7 M177.2,205.1v1.9v0.4l-2-1.2l0.3-0.2L177.2,205.1 M118.5,205.8v1.2l-1-0.6
			L118.5,205.8 M186.3,212.9l1.1,0.6l-0.3,0.2l-0.7,0.4v-0.9V212.9 M190.2,213.7v0.9v0.4l-1.1-0.6l0.3-0.2L190.2,213.7 M199.2,220.4
			l1.1,0.6l-0.3,0.2l-0.7,0.4v-0.9V220.4 M203.1,221.3v0.9v0.4l-1.1-0.6l0.3-0.2L203.1,221.3 M140,224.2l2,1.2l-0.3,0.2l-1.6,0.9
			v-1.9V224.2 M147.6,226.2v1.9v0.4l-2-1.2l0.3-0.2L147.6,226.2 M212.2,228l1.1,0.6l-0.3,0.2l-0.7,0.4v-0.9V228 M216.1,228.9v0.9
			v0.4l-1.1-0.6l0.3-0.2L216.1,228.9 M134.5,230.5v1.6l-1.4-0.8L134.5,230.5 M130.3,230.5l1.4,0.8l-1.4,0.8V230.5 M153.9,232.3
			l1.1,0.6l-0.3,0.2l-0.7,0.4v-0.9V232.3 M160.5,234.8v0.9v0.4l-1.1-0.6l0.3-0.2L160.5,234.8 M225.2,235.6l2,1.2l-0.3,0.2l-1.6,0.9
			V236V235.6 M230,235.9v1.9v0.4l-2-1.2l0.3-0.2L230,235.9 M144.1,238.6l0.5,0.3l-0.5,0.3V238.6 M147.4,239.1v0.5l-0.5-0.3
			L147.4,239.1 M166.9,239.9l1.1,0.6l-0.3,0.2l-0.7,0.4v-0.9V239.9 M173.5,242.4v0.9v0.4l-1.1-0.6l0.3-0.2L173.5,242.4 M239,243.7
			l1.1,0.6l-0.3,0.2L239,245v-0.9V243.7 M242.9,244.6v0.9v0.4l-1.1-0.6l0.3-0.2L242.9,244.6 M157.1,246.2l0.5,0.3l-0.5,0.3V246.2
			 M160.4,246.7v0.5l-0.5-0.3L160.4,246.7 M179.8,247.5l1.1,0.6l-0.3,0.2l-0.7,0.4v-0.9V247.5 M186.4,250v0.9v0.4l-1.1-0.6l0.3-0.2
			L186.4,250 M252,251.3l1.1,0.6l-0.3,0.2l-0.7,0.4v-0.9V251.3 M255.9,252.1v0.9v0.4l-1.1-0.6l0.3-0.2L255.9,252.1 M192.8,255.1
			l2,1.2l-0.3,0.2l-1.6,0.9v-1.9V255.1 M200.3,257v1.9v0.4l-2-1.2l0.3-0.2L200.3,257 M264.9,258.9l0.8,0.5l-0.3,0.2l-0.4,0.2v-0.5
			V258.9 M268.5,259.9v0.5v0.4l-0.8-0.5l0.3-0.2L268.5,259.9 M187.2,261.3v1.6l-1.4-0.8L187.2,261.3 M206.6,263.2l1.1,0.6l-0.3,0.2
			l-0.7,0.4v-0.9V263.2 M213.2,265.6v0.9v0.4l-1.1-0.6l0.3-0.2L213.2,265.6 M277.6,266.3l2,1.2l-0.3,0.2l-1.6,0.9v-1.9V266.3
			 M282.4,266.6v1.9v0.4l-2-1.2l0.3-0.2L282.4,266.6 M200.1,270v0.5l-0.5-0.3L200.1,270 M219.6,270.8l1.1,0.6l-0.3,0.2l-0.7,0.4
			v-0.9V270.8 M226.2,273.2v0.9v0.4l-1.1-0.6l0.3-0.2L226.2,273.2 M291.4,274.4l1.1,0.6l-0.3,0.2l-0.7,0.4v-0.9V274.4 M295.3,275.2
			v0.9v0.4l-1.1-0.6l0.3-0.2L295.3,275.2 M213.1,277.6v0.5l-0.5-0.3L213.1,277.6 M232.5,278.4l0.8,0.5L233,279l-0.4,0.2v-0.5V278.4
			 M238.8,281v0.5v0.4l-0.8-0.5l0.3-0.2L238.8,281 M304.4,282l1.1,0.6l-0.3,0.2l-0.7,0.4v-0.9V282 M308.3,282.8v0.9v0.4l-1.1-0.6
			l0.3-0.2L308.3,282.8 M245.2,285.8l2,1.2l-0.3,0.2l-1.6,0.9v-1.9V285.8 M252.7,287.7v1.9v0.4l-2-1.2l0.3-0.2L252.7,287.7
			 M239.6,292v1.6l-1.4-0.8L239.6,292 M259.1,293.9l1.1,0.6l-0.3,0.2l-0.7,0.4v-0.9V293.9 M240.5,295l0.2,0.1l-0.2,0.1V295
			 M265.7,296.3v0.9v0.4l-1.1-0.6l0.3-0.2L265.7,296.3 M252.6,300.7v0.5l-0.5-0.3L252.6,300.7 M272,301.5l1.1,0.6l-0.3,0.2l-0.7,0.4
			v-0.9V301.5 M278.6,303.9v0.9v0.4l-1.1-0.6l0.3-0.2L278.6,303.9 M338.1,305.9l1.1,0.6l-0.3,0.2l-0.7,0.4v-0.9V305.9 M342,306.8
			v0.9v0.4l-1.1-0.6l0.3-0.2L342,306.8 M346.2,310.7l0.8,0.5l-0.3,0.2l-0.4,0.3v-0.5V310.7 M349.8,311.7v0.5v0.4l-0.8-0.5l0.3-0.2
			L349.8,311.7 M328.3,312.2l0.5,0.3l-0.5,0.3V312.2 M331.6,312.7v0.5l-0.5-0.3L331.6,312.7 M354.1,315.3l1.1,0.6l-0.3,0.2l-0.7,0.4
			v-0.9V315.3 M358,316.1v0.9v0.4l-1.1-0.6l0.3-0.2L358,316.1 M336.4,317l0.2,0.1l-0.2,0.1V317 M318.2,317.6l0.8,0.5l0,0l-0.7,0.4
			V317.6L318.2,317.6 M339.4,317.6v0.2l-0.2-0.1L339.4,317.6 M321.8,318.3v0.9v0l-0.8-0.5l0,0L321.8,318.3 M362.2,320l1.9,1.1
			l-1.9,1.1v-1.8V320 M344.3,321.5l0.5,0.3l-0.5,0.3V321.5 M347.6,322v0.5l-0.5-0.3L347.6,322 M326.4,322.3l0.5,0.3l0,0l-0.4,0.3
			V322.3L326.4,322.3 M307.9,323.2l1.1,0.6l-0.3,0.2l-0.7,0.4v-0.9V323.2 M329.7,323.2v0.5v0l-0.5-0.3l0,0L329.7,323.2 M311.8,324
			v0.9v0.4l-1.1-0.6l0.3-0.2L311.8,324 M357,326v1.5l-1.3-0.8L357,326 M352.4,326.3l1.3,0.8l-1.3,0.7V326.3 M334.2,326.9l0.8,0.5
			l0,0l-0.7,0.4V326.9L334.2,326.9 M337.8,327.6v0.9v0L337,328l0,0L337.8,327.6 M316,327.9l0.8,0.5l-0.3,0.2l-0.4,0.3v-0.5V327.9
			 M319.6,328.9v0.5v0.4l-0.8-0.5l0.3-0.2L319.6,328.9 M342.3,331.7l1.6,0.9l-1.6,0.9V331.7L342.3,331.7 M323.8,332.5l1.1,0.6
			l-0.3,0.2l-0.7,0.4v-0.9V332.5 M327.7,333.3v0.9v0.4l-1.1-0.6l0.3-0.2L327.7,333.3 M338.7,336.5v1.8v0.4l-1.9-1.1L338.7,336.5
			 M332,337.3l1.9,1.1l-1.9,1.1v-1.8V337.3 M322.8,343.9l0.7,0.4l-0.7,0.4V343.9 M161.8,178.2L130.2,198L11.9,265l6,0.4l228.5,134.1
			l153.9-82.9c0-0.2,0-0.4,0.1-0.7c0-0.2,0.1-0.3,0.1-0.5L161.8,178.2L161.8,178.2z M144.5,199.7l-5.4-3.2v-2.1l16.8-9.6l5.4,3.2
			v2.1L144.5,199.7L144.5,199.7z M175.1,205.1l-8-4.7v-2.1l6.7-3.8l8,4.7v2.1L175.1,205.1L175.1,205.1z M124.9,210.9l-5.4-3.2v-2.1
			l16.8-9.6l5.4,3.2v2.1L124.9,210.9L124.9,210.9z M164.7,211.1l-8-4.7v-2.1l6.7-3.8l8,4.7v2.1L164.7,211.1L164.7,211.1z M189,213.3
			l-10.7-6.3v-2.1l6.7-3.8l10.7,6.3v2.1L189,213.3L189,213.3z M153.4,217.5l-16.1-9.4V206l6.7-3.8l16.1,9.4v2.1L153.4,217.5
			L153.4,217.5z M178.6,219.2l-10.7-6.3v-2.1l6.7-3.8l10.7,6.3v2.1L178.6,219.2L178.6,219.2z M105.4,222l-5.4-3.2v-0.4v-1.7
			l16.4-9.3l0.4-0.2l5.4,3.2v2.1L105.4,222L105.4,222z M201.9,220.8l-10.7-6.3v-2.1l6.7-3.8l10.7,6.3v2.1L201.9,220.8L201.9,220.8z
			 M145.4,226.2l-16.1-9.4v-2.1l6.7-3.8l16.1,9.4v2.1L145.4,226.2L145.4,226.2z M167.3,225.6l-10.7-6.3v-2.1l6.7-3.8l10.7,6.3v2.1
			L167.3,225.6L167.3,225.6z M191.5,226.8l-10.7-6.3v-2.1l6.7-3.8l10.7,6.3v2.1L191.5,226.8L191.5,226.8z M132.3,230.6l-16.1-9.4
			V219l6.7-3.8l16.1,9.4v2.1L132.3,230.6L132.3,230.6z M214.9,228.4l-10.7-6.3V220l6.7-3.8l10.7,6.3v2.1L214.9,228.4L214.9,228.4z
			 M180.2,233.2l-10.7-6.3v-2.1l6.7-3.8l10.7,6.3v2.1L180.2,233.2L180.2,233.2z M159.3,234.3l-10.7-6.3V226l6.7-3.8l10.7,6.3v2.1
			L159.3,234.3L159.3,234.3z M204.5,234.3l-10.7-6.3V226l6.7-3.8l10.7,6.3v2.1L204.5,234.3L204.5,234.3z M227.8,236l-10.7-6.3v-2.1
			l6.7-3.8l10.7,6.3v2.1L227.8,236L227.8,236z M122.5,236.1l-10.7-6.3v-2.1l6.7-3.8l10.7,6.3v2.1L122.5,236.1L122.5,236.1z
			 M146.2,238.7l-10.7-6.3v-2.1l6.7-3.8l10.7,6.3v2.1L146.2,238.7L146.2,238.7z M193.2,240.8l-10.7-6.3v-2.1l6.7-3.8l10.7,6.3v2.1
			L193.2,240.8L193.2,240.8z M172.2,241.9l-10.7-6.3v-2.1l6.7-3.8L179,236v2.1L172.2,241.9L172.2,241.9z M217.4,241.9l-10.7-6.3
			v-2.1l6.7-3.8l10.7,6.3v2.1L217.4,241.9L217.4,241.9z M241.7,244.1l-10.7-6.3v-2.1l6.7-3.8l10.7,6.3v2.1L241.7,244.1L241.7,244.1z
			 M136.4,244.2l-10.7-6.3v-2.1l6.7-3.8l10.7,6.3v2.1L136.4,244.2L136.4,244.2z M159.1,246.2l-10.7-6.3v-2.1l6.7-3.8l10.7,6.3v2.1
			L159.1,246.2L159.1,246.2z M206.1,248.4l-10.7-6.3V240l6.7-3.8l10.7,6.3v2.1L206.1,248.4L206.1,248.4z M185.2,249.5l-10.7-6.3
			v-2.1l6.7-3.8l10.7,6.3v2.1L185.2,249.5L185.2,249.5z M231.3,250l-10.7-6.3v-2.1l6.7-3.8l10.7,6.3v2.1L231.3,250L231.3,250z
			 M254.6,251.7l-10.7-6.3v-2.1l6.7-3.8l10.7,6.3v2.1L254.6,251.7L254.6,251.7z M138.6,245.5v-2.1l6.7-3.8l10.7,6.3v2.1l-6.7,3.8
			v-2.1l-8.9-5.2L138.6,245.5L138.6,245.5z M172.1,253.8l-10.7-6.3v-2.1l6.7-3.8l10.7,6.3v2.1L172.1,253.8L172.1,253.8z M220,256.5
			l-10.7-6.3v-2.1l6.7-3.8l10.7,6.3v2.1L220,256.5L220,256.5z M198.1,257.1l-10.7-6.3v-2.1l6.7-3.8l10.7,6.3v2.1L198.1,257.1
			L198.1,257.1z M244.3,257.6l-10.7-6.3v-2.1l6.7-3.8l10.7,6.3v2.1L244.3,257.6L244.3,257.6z M267.6,259.3l-10.7-6.3v-2.1l6.7-3.8
			l10.7,6.3v2.1L267.6,259.3L267.6,259.3z M162.3,259.4l-10.7-6.3V251l6.7-3.8l10.7,6.3v2.1L162.3,259.4L162.3,259.4z M185.1,261.4
			l-10.7-6.3V253l6.7-3.8l10.7,6.3v2.1L185.1,261.4L185.1,261.4z M233,264.1l-10.7-6.3v-2.1l6.7-3.8l10.7,6.3v2.1L233,264.1
			L233,264.1z M212,265.2l-10.7-6.3v-2.1l6.7-3.8l10.7,6.3v2.1L212,265.2L212,265.2z M257.2,265.2l-10.7-6.3v-2.1l6.7-3.8l10.7,6.3
			v2.1L257.2,265.2L257.2,265.2z M280.2,266.7l-10.7-6.3v-2.1l6.7-3.8l10.7,6.3v2.1L280.2,266.7L280.2,266.7z M198.9,269.5
			l-10.7-6.3v-2.1l6.7-3.8l10.7,6.3v2.1L198.9,269.5L198.9,269.5z M217.6,291.8l-48.3-28.2v-2.1l6.7-3.8l48.3,28.2v2.1L217.6,291.8
			L217.6,291.8z M245.9,271.6l-10.7-6.3v-2.1l6.7-3.8l10.7,6.3v2.1L245.9,271.6L245.9,271.6z M269.9,272.6l-10.7-6.3v-2.1l6.7-3.8
			l10.7,6.3v2.1L269.9,272.6L269.9,272.6z M225,272.8l-10.7-6.3v-2.1l6.7-3.8l10.7,6.3v2.1L225,272.8L225,272.8z M294.1,274.8
			l-10.7-6.3v-2.1l6.7-3.8l10.7,6.3v2.1L294.1,274.8L294.1,274.8z M211.9,277.1l-10.7-6.3v-2.1l6.7-3.8l10.7,6.3v2.1L211.9,277.1
			L211.9,277.1z M258.6,279l-10.7-6.3v-2.1l6.7-3.8l10.7,6.3v2.1L258.6,279L258.6,279z M237.9,280.4l-10.7-6.3V272l6.7-3.8l10.7,6.3
			v2.1L237.9,280.4L237.9,280.4z M283.7,280.7l-10.7-6.3v-2.1l6.7-3.8l10.7,6.3v2.1L283.7,280.7L283.7,280.7z M307.1,282.4
			l-10.7-6.3V274l6.7-3.8l10.7,6.3v2.1L307.1,282.4L307.1,282.4z M202,330l-70.1-41l-1-0.6l28.1-16l71.1,41.6l-1,0.6L202,330
			L202,330z M224.8,284.7l-10.7-6.3v-2.1l6.7-3.8l10.7,6.3v2.1L224.8,284.7L224.8,284.7z M272.4,287.1l-10.7-6.3v-2.1l6.7-3.8
			l10.7,6.3v2.1L272.4,287.1L272.4,287.1z M250.6,287.8l-10.7-6.3v-2.1l6.7-3.8l10.7,6.3v2.1L250.6,287.8L250.6,287.8z M296.7,288.3
			L286,282v-2.1l6.7-3.8l10.7,6.3v2.1L296.7,288.3L296.7,288.3z M321,290.5l-11.7-6.8v-2.1l6.7-3.8l11.7,6.8v2.1L321,290.5
			L321,290.5z M237.5,292.1l-10.7-6.3v-2.1l6.7-3.8l10.7,6.3v2.1L237.5,292.1L237.5,292.1z M285.4,294.7l-10.7-6.3v-2.1l6.7-3.8
			l10.7,6.3v2.1L285.4,294.7L285.4,294.7z M264.4,295.9l-10.7-6.3v-2.1l6.7-3.8l10.7,6.3v2.1L264.4,295.9L264.4,295.9z M310.6,296.4
			l-11.7-6.8v-2.1l6.7-3.8l11.7,6.8v2.1L310.6,296.4L310.6,296.4z M251.3,300.2l-10.7-6.3v-2.1l6.7-3.8l10.7,6.3v2.1L251.3,300.2
			L251.3,300.2z M232.8,300.7l-10.7-6.3v-2.1l6.7-3.8l10.7,6.3v2.1L232.8,300.7L232.8,300.7z M303.2,305.1l-15.6-9.1v-2.1l6.7-3.8
			l15.6,9.1v2.1L303.2,305.1L303.2,305.1z M277.4,303.5l-10.7-6.3v-2.1l6.7-3.8l10.7,6.3v2.1L277.4,303.5L277.4,303.5z M351.8,298.1
			l-0.6,0l-0.5-0.1l-0.4-0.2l-0.3-0.3l-0.2-0.3l-0.1-0.3v-2.1l0.1-0.3l0.2-0.3l0.3-0.3l0.4-0.2l0.5-0.1l0.6,0l0.6,0l0.5,0.1l0.4,0.2
			l0.3,0.3l0.2,0.3l0.1,0.3v2.1l-0.1,0.3l-0.2,0.3l-0.3,0.3l-0.4,0.2l-0.5,0.1L351.8,298.1L351.8,298.1z M264.3,307.8l-10.7-6.3
			v-2.1l6.7-3.8l10.7,6.3v2.1L264.3,307.8L264.3,307.8z M245.5,308.1l-10.7-6.3v-2.1l6.7-3.8l10.7,6.3v1.5l1.3-0.8l10.7,6.3v2.1
			l-6.7,3.8l-10.7-6.3v-1.5L245.5,308.1L245.5,308.1z M356.6,300.9l-0.6,0l-0.5-0.1l-0.4-0.2l-0.3-0.3l-0.2-0.3l-0.1-0.3v-2.1
			l0.1-0.3l0.2-0.3l0.3-0.3l0.4-0.2l0.5-0.1l0.6,0l0.6,0l0.5,0.1l0.4,0.2l0.3,0.3l0.2,0.3l0.1,0.3v2.1l-0.1,0.3l-0.2,0.3l-0.3,0.3
			l-0.4,0.2l-0.5,0.1L356.6,300.9L356.6,300.9z M340.8,306.3l-5.9-3.5v-2.1l6.7-3.8l5.9,3.5v2.1L340.8,306.3L340.8,306.3z
			 M295.2,313.9l-15.6-9.1v-2.1l6.7-3.8l15.6,9.1v2.1L295.2,313.9L295.2,313.9z M361.1,303.5l-0.6,0l-0.5-0.1l-0.4-0.2l-0.3-0.3
			l-0.2-0.3l-0.1-0.3v-2.1l0.1-0.3l0.2-0.3l0.3-0.3l0.4-0.2l0.5-0.1l0.6,0l0.6,0l0.5,0.1l0.4,0.2l0.3,0.3l0.2,0.3l0.1,0.3v2.1
			l-0.1,0.3l-0.2,0.3l-0.3,0.3l-0.4,0.2l-0.5,0.1L361.1,303.5L361.1,303.5z M348.9,311.1l-5.9-3.5v-2.1l6.7-3.8l5.9,3.5v2.1
			L348.9,311.1L348.9,311.1z M330.4,312.2l-5.9-3.5v-2.1l6.7-3.8l5.9,3.5v2.1L330.4,312.2L330.4,312.2z M282.1,318.2l-15.6-9.1V307
			l6.7-3.8l15.6,9.1v2.1L282.1,318.2L282.1,318.2z M356.7,315.7l-5.9-3.5v-2.1l6.7-3.8l5.9,3.5v2.1L356.7,315.7L356.7,315.7z
			 M338.5,317l-5.9-3.5v-2.1l6.7-3.8l5.9,3.5v2.1L338.5,317L338.5,317z M320.6,317.8l-5.9-3.5v-2.1l6.7-3.8l5.9,3.5v2.1L320.6,317.8
			L320.6,317.8z M364.9,320.4L359,317v-2.1l6.7-3.8l5.9,3.5v2.1L364.9,320.4L364.9,320.4z M346.3,321.6l-5.9-3.5V316l6.7-3.8
			l5.9,3.5v2.1L346.3,321.6L346.3,321.6z M328.7,322.6l-5.9-3.5V317l6.7-3.8l5.9,3.5v2.1L328.7,322.6L328.7,322.6z M310.5,323.6
			l-5.9-3.5V318l6.7-3.8l5.9,3.5v2.1L310.5,323.6L310.5,323.6z M268.1,321.3l-4.8-2.8v-2.1l2.7-1.6l4.8,2.8v2.1l1.8-1l4.8,2.8v2.1
			l1.8-1l4.8,2.8v2.1l-2.7,1.6l-4.8-2.8v-2.1l-1.8,1l-4.8-2.8v-2.1L268.1,321.3L268.1,321.3z M279.3,322.6l-4.8-2.8v-2.1l2.7-1.6
			l4.8,2.8v2.1L279.3,322.6L279.3,322.6z M354.5,326.4l-5.9-3.5v-2.1l6.7-3.8l5.9,3.5v2.1L354.5,326.4L354.5,326.4z M362.9,330.7
			l-4.8-2.8v-2.1l15.3-8.7l4.8,2.8v2.1L362.9,330.7L362.9,330.7z M336.6,327.2l-5.9-3.5v-2.1l6.7-3.8l5.9,3.5v2.1L336.6,327.2
			L336.6,327.2z M318.7,328.3l-5.9-3.5v-2.1l6.7-3.8l5.9,3.5v2.1L318.7,328.3L318.7,328.3z M300.1,329.5l-5.9-3.5v-2.1l6.7-3.8
			l5.9,3.5v2.1L300.1,329.5L300.1,329.5z M344.7,331.9l-5.9-3.5v-2.1l6.7-3.8l5.9,3.5v2.1L344.7,331.9L344.7,331.9z M326.5,332.9
			l-5.9-3.5v-2.1l6.7-3.8l5.9,3.5v2.1L326.5,332.9L326.5,332.9z M308.3,334.2l-5.9-3.5v-2.1l6.7-3.8l5.9,3.5v2.1L308.3,334.2
			L308.3,334.2z M291,334.7l-5.9-3.5v-2.1l6.7-3.8l5.9,3.5v2.1L291,334.7L291,334.7z M344.5,341.1l-4.8-2.8v-2.1l15.3-8.7l4.8,2.8
			v2.1L344.5,341.1L344.5,341.1z M334.6,337.7l-5.9-3.5v-2.1l6.7-3.8l5.9,3.5v2.1L334.6,337.7L334.6,337.7z M316.1,338.8l-5.9-3.5
			v-2.1l6.7-3.8l5.9,3.5v2.1L316.1,338.8L316.1,338.8z M299.1,339.4l-5.9-3.5v-2.1l6.7-3.8l5.9,3.5v2.1L299.1,339.4L299.1,339.4z
			 M324.2,343.6l-5.9-3.5V338l6.7-3.8l5.9,3.5v2.1L324.2,343.6L324.2,343.6z M306.9,344l-5.9-3.5v-2.1l6.7-3.8l5.9,3.5v2.1
			L306.9,344L306.9,344z M325.6,351.9l-4.8-2.8V347l15.3-8.7l4.8,2.8v2.1L325.6,351.9L325.6,351.9z M315.1,348.8l-5.9-3.5v-2.1
			l6.7-3.8l5.9,3.5v2.1L315.1,348.8L315.1,348.8z"/>
	</g>
	<g>
		<path class="st0" d="M399.5,316.5l-1,3.2l0,0l0,0l0,0l-0.2,0.1l-147.5,83.5l-2.8-3.6L399.5,316.5 M401.2,314.4l-154.8,85l4.1,5.2
			l148.2-84l-0.2,0l0.2,0l0.5-0.3L401.2,314.4L401.2,314.4z"/>
	</g>
	<g>
		<path class="st0" d="M16,266.2l1.6,0.1l228.1,133.9l0.7,0.9L16,266.2 M11.9,265l238.6,139.7l-4.1-5.2L17.9,265.3L11.9,265
			L11.9,265z"/>
	</g>
	<g>
		<path class="st0" d="M211.9,16.1l111.4,65.2l123.2,72.1l-1,0.1L210.9,16.2L211.9,16.1 M212.1,15.1l-4.3,0.5l237.5,139l4.3-0.5
			L323.8,80.5L212.1,15.1L212.1,15.1z"/>
	</g>
	<g>
		<polygon class="st0" points="138.6,243.4 138.6,245.5 140.5,244.5 138.6,243.4 		"/>
	</g>
	<g>
		<polygon class="st0" points="156.1,245.9 149.4,249.7 149.4,251.8 156.1,248 156.1,245.9 		"/>
	</g>
	<g>
		<polygon class="st0" points="317.2,317.6 310.5,321.4 310.5,323.6 317.2,319.7 317.2,317.6 		"/>
	</g>
	<g>
		<polygon class="st0" points="304.6,318 304.6,320.1 310.5,323.6 310.5,321.4 304.6,318 		"/>
	</g>
	<g>
		<polygon class="st0" points="322.8,332.9 316.1,336.7 316.1,338.8 322.8,335 322.8,332.9 		"/>
	</g>
	<g>
		<polygon class="st0" points="310.2,333.3 310.2,335.4 316.1,338.8 316.1,336.7 310.2,333.3 		"/>
	</g>
	<g>
		<polygon class="st0" points="333.2,327 326.5,330.8 326.5,332.9 333.2,329.1 333.2,327 		"/>
	</g>
	<g>
		<polygon class="st0" points="320.6,327.3 320.6,329.4 326.5,332.9 326.5,330.8 320.6,327.3 		"/>
	</g>
	<g>
		<polygon class="st0" points="193.8,226 193.8,228.1 204.5,234.3 204.5,232.2 193.8,226 		"/>
	</g>
	<g>
		<polygon class="st0" points="211.2,228.4 204.5,232.2 204.5,234.3 211.2,230.5 211.2,228.4 		"/>
	</g>
	<g>
		<polygon class="st0" points="331,337.6 324.2,341.5 324.2,343.6 331,339.7 331,337.6 		"/>
	</g>
	<g>
		<polygon class="st0" points="318.3,338 318.3,340.1 324.2,343.6 324.2,341.5 318.3,338 		"/>
	</g>
	<g>
		<polygon class="st0" points="301,338.5 301,340.6 306.9,344 306.9,341.9 301,338.5 		"/>
	</g>
	<g>
		<polygon class="st0" points="313.7,338.1 306.9,341.9 306.9,344 313.7,340.2 313.7,338.1 		"/>
	</g>
	<g>
		<polygon class="st0" points="293.2,333.9 293.2,336 299.1,339.4 299.1,337.3 293.2,333.9 		"/>
	</g>
	<g>
		<polygon class="st0" points="305.8,333.5 299.1,337.3 299.1,339.4 305.8,335.6 305.8,333.5 		"/>
	</g>
	<g>
		<polygon class="st0" points="309.2,343.2 309.2,345.3 315.1,348.8 315.1,346.7 309.2,343.2 		"/>
	</g>
	<g>
		<polygon class="st0" points="321.8,342.9 315.1,346.7 315.1,348.8 321.8,345 321.8,342.9 		"/>
	</g>
	<g>
		<polygon class="st0" points="178.8,247.9 172.1,251.7 172.1,253.8 178.8,250 178.8,247.9 		"/>
	</g>
	<g>
		<polygon class="st0" points="161.4,245.5 161.4,247.6 172.1,253.8 172.1,251.7 161.4,245.5 		"/>
	</g>
	<g>
		<polygon class="st0" points="139,224.6 132.3,228.5 132.3,230.6 139,226.7 139,224.6 		"/>
	</g>
	<g>
		<polygon class="st0" points="116.2,219 116.2,221.1 132.3,230.6 132.3,228.5 116.2,219 		"/>
	</g>
	<g>
		<polygon class="st0" points="315,328.3 308.3,332.1 308.3,334.2 315,330.4 315,328.3 		"/>
	</g>
	<g>
		<polygon class="st0" points="302.4,328.7 302.4,330.8 308.3,334.2 308.3,332.1 302.4,328.7 		"/>
	</g>
	<g>
		<polygon class="st0" points="156.7,204.3 156.7,206.4 164.7,211.1 164.7,209 156.7,204.3 		"/>
	</g>
	<g>
		<polygon class="st0" points="171.4,205.1 164.7,209 164.7,211.1 171.4,207.2 171.4,205.1 		"/>
	</g>
	<g>
		<polygon class="st0" points="306.9,323.5 300.1,327.4 300.1,329.5 306.9,325.6 306.9,323.5 		"/>
	</g>
	<g>
		<polygon class="st0" points="294.2,323.9 294.2,326 300.1,329.5 300.1,327.4 294.2,323.9 		"/>
	</g>
	<g>
		<polygon class="st0" points="181.8,199.2 175.1,203 175.1,205.1 181.8,201.3 181.8,199.2 		"/>
	</g>
	<g>
		<polygon class="st0" points="167,198.3 167,200.4 175.1,205.1 175.1,203 167,198.3 		"/>
	</g>
	<g>
		<polygon class="st0" points="341.3,331.7 334.6,335.6 334.6,337.7 341.3,333.8 341.3,331.7 		"/>
	</g>
	<g>
		<polygon class="st0" points="328.7,332.1 328.7,334.2 334.6,337.7 334.6,335.6 328.7,332.1 		"/>
	</g>
	<g>
		<polygon class="st0" points="325.4,322.4 318.7,326.2 318.7,328.3 325.4,324.5 325.4,322.4 		"/>
	</g>
	<g>
		<polygon class="st0" points="312.8,322.8 312.8,324.9 318.7,328.3 318.7,326.2 312.8,322.8 		"/>
	</g>
	<g>
		<polygon class="st0" points="359,314.9 359,317 364.9,320.4 364.9,318.3 359,314.9 		"/>
	</g>
	<g>
		<polygon class="st0" points="371.6,314.5 364.9,318.3 364.9,320.4 371.6,316.6 371.6,314.5 		"/>
	</g>
	<g>
		<polygon class="st0" points="355.6,305.2 348.9,309 348.9,311.1 355.6,307.3 355.6,305.2 		"/>
	</g>
	<g>
		<polygon class="st0" points="343,305.5 343,307.6 348.9,311.1 348.9,309 343,305.5 		"/>
	</g>
	<g>
		<polygon class="st0" points="139.1,194.4 139.1,196.5 144.5,199.7 144.5,197.6 139.1,194.4 		"/>
	</g>
	<g>
		<polygon class="st0" points="161.3,188.1 144.5,197.6 144.5,199.7 161.3,190.2 161.3,188.1 		"/>
	</g>
	<g>
		<polygon class="st0" points="340.9,341.1 325.6,349.8 325.6,351.9 340.9,343.2 340.9,341.1 		"/>
	</g>
	<g>
		<polygon class="st0" points="320.8,347 320.8,349.1 325.6,351.9 325.6,349.8 320.8,347 		"/>
	</g>
	<g>
		<polygon class="st0" points="314.7,312.3 314.7,314.4 320.6,317.8 320.6,315.7 314.7,312.3 		"/>
	</g>
	<g>
		<polygon class="st0" points="327.3,311.9 320.6,315.7 320.6,317.8 327.3,314 327.3,311.9 		"/>
	</g>
	<g>
		<polygon class="st0" points="338.8,326.4 338.8,328.5 344.7,331.9 344.7,329.8 338.8,326.4 		"/>
	</g>
	<g>
		<polygon class="st0" points="351.4,326 344.7,329.8 344.7,331.9 351.4,328.1 351.4,326 		"/>
	</g>
	<g>
		<polygon class="st0" points="348.6,320.8 348.6,322.9 354.5,326.4 354.5,324.2 348.6,320.8 		"/>
	</g>
	<g>
		<polygon class="st0" points="361.2,320.4 354.5,324.2 354.5,326.4 361.2,322.5 361.2,320.4 		"/>
	</g>
	<g>
		<polygon class="st0" points="337.1,306.3 330.4,310.1 330.4,312.2 337.1,308.4 337.1,306.3 		"/>
	</g>
	<g>
		<polygon class="st0" points="324.5,306.7 324.5,308.8 330.4,312.2 330.4,310.1 324.5,306.7 		"/>
	</g>
	<g>
		<polygon class="st0" points="347.5,300.4 340.8,304.2 340.8,306.3 347.5,302.5 347.5,300.4 		"/>
	</g>
	<g>
		<polygon class="st0" points="334.9,300.8 334.9,302.9 340.8,306.3 340.8,304.2 334.9,300.8 		"/>
	</g>
	<g>
		<polygon class="st0" points="335.4,316.6 328.7,320.5 328.7,322.6 335.4,318.7 335.4,316.6 		"/>
	</g>
	<g>
		<polygon class="st0" points="322.8,317 322.8,319.1 328.7,322.6 328.7,320.5 322.8,317 		"/>
	</g>
	<g>
		<polygon class="st0" points="378.1,319.9 362.9,328.6 362.9,330.7 378.1,322 378.1,319.9 		"/>
	</g>
	<g>
		<polygon class="st0" points="358,325.7 358,327.8 362.9,330.7 362.9,328.6 358,325.7 		"/>
	</g>
	<g>
		<polygon class="st0" points="332.6,311.5 332.6,313.6 338.5,317 338.5,314.9 332.6,311.5 		"/>
	</g>
	<g>
		<polygon class="st0" points="345.2,311.1 338.5,314.9 338.5,317 345.2,313.2 345.2,311.1 		"/>
	</g>
	<g>
		<polygon class="st0" points="353.1,315.7 346.3,319.5 346.3,321.6 353.1,317.8 353.1,315.7 		"/>
	</g>
	<g>
		<polygon class="st0" points="340.4,316 340.4,318.1 346.3,321.6 346.3,319.5 340.4,316 		"/>
	</g>
	<g>
		<polygon class="st0" points="359.8,330.3 344.5,339 344.5,341.1 359.8,332.4 359.8,330.3 		"/>
	</g>
	<g>
		<polygon class="st0" points="339.7,336.2 339.7,338.3 344.5,341.1 344.5,339 339.7,336.2 		"/>
	</g>
	<g>
		<polygon class="st0" points="330.7,321.6 330.7,323.7 336.6,327.2 336.6,325.1 330.7,321.6 		"/>
	</g>
	<g>
		<polygon class="st0" points="343.3,321.2 336.6,325.1 336.6,327.2 343.3,323.3 343.3,321.2 		"/>
	</g>
	<g>
		<polygon class="st0" points="363.4,309.7 356.7,313.6 356.7,315.7 363.4,311.8 363.4,309.7 		"/>
	</g>
	<g>
		<polygon class="st0" points="350.8,310.1 350.8,312.2 356.7,315.7 356.7,313.6 350.8,310.1 		"/>
	</g>
	<g>
		<polygon class="st0" points="279.6,302.7 279.6,304.8 295.2,313.9 295.2,311.8 279.6,302.7 		"/>
	</g>
	<g>
		<polygon class="st0" points="301.9,307.9 295.2,311.8 295.2,313.9 301.9,310 301.9,307.9 		"/>
	</g>
	<g>
		<polygon class="st0" points="125.7,235.9 125.7,238 136.4,244.2 136.4,242.1 125.7,235.9 		"/>
	</g>
	<g>
		<polygon class="st0" points="143.1,238.3 136.4,242.1 136.4,244.2 143.1,240.4 143.1,238.3 		"/>
	</g>
	<g>
		<polygon class="st0" points="111.8,227.7 111.8,229.8 122.5,236.1 122.5,234 111.8,227.7 		"/>
	</g>
	<g>
		<polygon class="st0" points="129.3,230.2 122.5,234 122.5,236.1 129.3,232.3 129.3,230.2 		"/>
	</g>
	<g>
		<polygon class="st0" points="284.1,325.4 281.3,326.9 281.3,329 284.1,327.5 284.1,325.4 		"/>
	</g>
	<g>
		<path class="st0" d="M276.5,324.1C276.5,324.1,276.5,324.1,276.5,324.1l0,2.1l4.8,2.8v-2.1C281.3,326.9,276.5,324.1,276.5,324.1
			L276.5,324.1z"/>
	</g>
	<g>
		<path class="st0" d="M269.9,320.3C269.9,320.3,269.9,320.3,269.9,320.3l0,2.1l4.8,2.8v-2.1C274.7,323.1,269.9,320.3,269.9,320.3
			L269.9,320.3z"/>
	</g>
	<g>
		<polygon class="st0" points="277.5,321.5 274.7,323.1 274.7,325.2 276.5,324.1 276.5,324.1 277.5,323.6 277.5,321.5 		"/>
	</g>
	<g>
		<polygon class="st0" points="263.3,316.4 263.3,318.5 268.1,321.3 268.1,319.2 263.3,316.4 		"/>
	</g>
	<g>
		<path class="st0" d="M270.8,317.6l-2.7,1.6v2.1c0,0,1.8-1,1.8-1l0.9-0.5V317.6L270.8,317.6z"/>
	</g>
	<g>
		<polygon class="st0" points="195.7,207.3 189,211.2 189,213.3 195.7,209.4 195.7,207.3 		"/>
	</g>
	<g>
		<polygon class="st0" points="178.2,204.9 178.2,207 189,213.3 189,211.2 178.2,204.9 		"/>
	</g>
	<g>
		<polygon class="st0" points="282,318.9 279.3,320.5 279.3,322.6 282,321 282,318.9 		"/>
	</g>
	<g>
		<polygon class="st0" points="274.5,317.6 274.5,319.7 279.3,322.6 279.3,320.5 274.5,317.6 		"/>
	</g>
	<g>
		<polygon class="st0" points="204.1,220 204.1,222.1 214.9,228.4 214.9,226.3 204.1,220 		"/>
	</g>
	<g>
		<polygon class="st0" points="221.6,222.5 214.9,226.3 214.9,228.4 221.6,224.6 221.6,222.5 		"/>
	</g>
	<g>
		<polygon class="st0" points="152.1,220.3 145.4,224.1 145.4,226.2 152.1,222.4 152.1,220.3 		"/>
	</g>
	<g>
		<polygon class="st0" points="129.3,214.7 129.3,216.8 145.4,226.2 145.4,224.1 129.3,214.7 		"/>
	</g>
	<g>
		<polygon class="st0" points="288.8,312.3 282.1,316.1 282.1,318.2 288.8,314.4 288.8,312.3 		"/>
	</g>
	<g>
		<polygon class="st0" points="266.5,307 266.5,309.1 282.1,318.2 282.1,316.1 266.5,307 		"/>
	</g>
	<g>
		<polygon class="st0" points="285.1,329.1 285.1,331.2 291,334.7 291,332.6 285.1,329.1 		"/>
	</g>
	<g>
		<polygon class="st0" points="297.7,328.8 291,332.6 291,334.7 297.7,330.9 297.7,328.8 		"/>
	</g>
	<g>
		<polygon class="st0" points="191.2,212.5 191.2,214.6 201.9,220.8 201.9,218.7 191.2,212.5 		"/>
	</g>
	<g>
		<polygon class="st0" points="208.6,214.9 201.9,218.7 201.9,220.8 208.6,217 208.6,214.9 		"/>
	</g>
	<g>
		<polygon class="st0" points="152.9,232.7 146.2,236.6 146.2,238.7 152.9,234.8 152.9,232.7 		"/>
	</g>
	<g>
		<polygon class="st0" points="135.5,230.3 135.5,232.4 146.2,238.7 146.2,236.6 135.5,230.3 		"/>
	</g>
	<g>
		<polygon class="st0" points="235.2,263.3 235.2,265.4 245.9,271.6 245.9,269.5 235.2,263.3 		"/>
	</g>
	<g>
		<polygon class="st0" points="252.6,265.7 245.9,269.5 245.9,271.6 252.6,267.8 252.6,265.7 		"/>
	</g>
	<g>
		<polygon class="st0" points="199.9,234.8 193.2,238.7 193.2,240.8 199.9,236.9 199.9,234.8 		"/>
	</g>
	<g>
		<polygon class="st0" points="182.5,232.4 182.5,234.5 193.2,240.8 193.2,238.7 182.5,232.4 		"/>
	</g>
	<g>
		<polygon class="st0" points="300.8,268.9 294.1,272.7 294.1,274.8 300.8,271 300.8,268.9 		"/>
	</g>
	<g>
		<polygon class="st0" points="283.4,266.4 283.4,268.5 294.1,274.8 294.1,272.7 283.4,266.4 		"/>
	</g>
	<g>
		<polygon class="st0" points="327.7,284.6 321,288.4 321,290.5 327.7,286.7 327.7,284.6 		"/>
	</g>
	<g>
		<polygon class="st0" points="309.3,281.6 309.3,283.7 321,290.5 321,288.4 309.3,281.6 		"/>
	</g>
	<g>
		<polygon class="st0" points="274.3,253.4 267.6,257.2 267.6,259.3 274.3,255.5 274.3,253.4 		"/>
	</g>
	<g>
		<polygon class="st0" points="256.9,250.9 256.9,253 267.6,259.3 267.6,257.2 256.9,250.9 		"/>
	</g>
	<g>
		<polygon class="st0" points="217.1,227.6 217.1,229.7 227.8,236 227.8,233.9 217.1,227.6 		"/>
	</g>
	<g>
		<polygon class="st0" points="234.5,230.1 227.8,233.9 227.8,236 234.5,232.2 234.5,230.1 		"/>
	</g>
	<g>
		<polygon class="st0" points="243.9,243.3 243.9,245.4 254.6,251.7 254.6,249.6 243.9,243.3 		"/>
	</g>
	<g>
		<polygon class="st0" points="261.4,245.8 254.6,249.6 254.6,251.7 261.4,247.9 261.4,245.8 		"/>
	</g>
	<g>
		<polygon class="st0" points="296.3,274 296.3,276.1 307.1,282.4 307.1,280.3 296.3,274 		"/>
	</g>
	<g>
		<polygon class="st0" points="313.8,276.5 307.1,280.3 307.1,282.4 313.8,278.6 313.8,276.5 		"/>
	</g>
	<g>
		<polygon class="st0" points="231,235.7 231,237.8 241.7,244.1 241.7,242 231,235.7 		"/>
	</g>
	<g>
		<polygon class="st0" points="248.4,238.2 241.7,242 241.7,244.1 248.4,240.3 248.4,238.2 		"/>
	</g>
	<g>
		<polygon class="st0" points="269.5,258.3 269.5,260.4 280.2,266.7 280.2,264.6 269.5,258.3 		"/>
	</g>
	<g>
		<polygon class="st0" points="287,260.8 280.2,264.6 280.2,266.7 287,262.9 287,260.8 		"/>
	</g>
	<g>
		<path class="st0" d="M351.8,294.5l0.4,0l0.3,0.1l0.3,0.1l0,0l0,0l-0.3,0.1l-0.4,0.1l-0.4,0l-0.4,0l-0.3-0.1l-0.3-0.1l0,0l0,0
			l0.3-0.1l0.4-0.1L351.8,294.5 M351.8,293.5l-0.6,0l-0.5,0.1l-0.4,0.2l-0.3,0.3l-0.2,0.3l-0.1,0.3l0.1,0.3l0.2,0.3l0.3,0.3l0.4,0.2
			l0.5,0.1l0.6,0l0.6,0l0.5-0.1l0.4-0.2l0.3-0.3l0.2-0.3l0.1-0.3l-0.1-0.3l-0.2-0.3l-0.3-0.3l-0.4-0.2l-0.5-0.1L351.8,293.5
			L351.8,293.5z"/>
	</g>
	<g>
		<polygon class="st0" points="141.7,199.2 124.9,208.8 124.9,210.9 141.7,201.3 141.7,199.2 		"/>
	</g>
	<g>
		<polygon class="st0" points="119.5,205.6 119.5,207.7 124.9,210.9 124.9,208.8 119.5,205.6 		"/>
	</g>
	<g>
		<polygon class="st0" points="212.9,242.4 206.1,246.3 206.1,248.4 212.9,244.5 212.9,242.4 		"/>
	</g>
	<g>
		<polygon class="st0" points="195.4,240 195.4,242.1 206.1,248.4 206.1,246.3 195.4,240 		"/>
	</g>
	<g>
		<polygon class="st0" points="187.4,248.7 187.4,250.8 198.1,257.1 198.1,255 187.4,248.7 		"/>
	</g>
	<g>
		<polygon class="st0" points="204.9,251.2 198.1,255 198.1,257.1 204.9,253.3 204.9,251.2 		"/>
	</g>
	<g>
		<polygon class="st0" points="191.9,243.6 185.2,247.4 185.2,249.5 191.9,245.7 191.9,243.6 		"/>
	</g>
	<g>
		<polygon class="st0" points="174.5,241.1 174.5,243.2 185.2,249.5 185.2,247.4 174.5,241.1 		"/>
	</g>
	<g>
		<polygon class="st0" points="218.7,259.3 212,263.1 212,265.2 218.7,261.4 218.7,259.3 		"/>
	</g>
	<g>
		<polygon class="st0" points="201.3,256.8 201.3,258.9 212,265.2 212,263.1 201.3,256.8 		"/>
	</g>
	<g>
		<polygon class="st0" points="287.6,293.9 287.6,296 303.2,305.1 303.2,303 287.6,293.9 		"/>
	</g>
	<g>
		<polygon class="st0" points="309.9,299.2 303.2,303 303.2,305.1 309.9,301.3 309.9,299.2 		"/>
	</g>
	<g>
		<polygon class="st0" points="238,244.1 231.3,247.9 231.3,250 238,246.2 238,244.1 		"/>
	</g>
	<g>
		<polygon class="st0" points="220.6,241.7 220.6,243.8 231.3,250 231.3,247.9 220.6,241.7 		"/>
	</g>
	<g>
		<polygon class="st0" points="259.1,264.2 259.1,266.3 269.9,272.6 269.9,270.5 259.1,264.2 		"/>
	</g>
	<g>
		<polygon class="st0" points="276.6,266.7 269.9,270.5 269.9,272.6 276.6,268.8 276.6,266.7 		"/>
	</g>
	<g>
		<polygon class="st0" points="286,279.9 286,282 296.7,288.3 296.7,286.2 286,279.9 		"/>
	</g>
	<g>
		<polygon class="st0" points="303.4,282.4 296.7,286.2 296.7,288.3 303.4,284.5 303.4,282.4 		"/>
	</g>
	<g>
		<polygon class="st0" points="266.7,295.1 266.7,297.2 277.4,303.5 277.4,301.4 266.7,295.1 		"/>
	</g>
	<g>
		<polygon class="st0" points="284.1,297.5 277.4,301.4 277.4,303.5 284.1,299.6 284.1,297.5 		"/>
	</g>
	<g>
		<polygon class="st0" points="274.7,286.4 274.7,288.5 285.4,294.7 285.4,292.6 274.7,286.4 		"/>
	</g>
	<g>
		<polygon class="st0" points="292.1,288.8 285.4,292.6 285.4,294.7 292.1,290.9 292.1,288.8 		"/>
	</g>
	<g>
		<polygon class="st0" points="263.9,259.3 257.2,263.1 257.2,265.2 263.9,261.4 263.9,259.3 		"/>
	</g>
	<g>
		<polygon class="st0" points="246.5,256.8 246.5,258.9 257.2,265.2 257.2,263.1 246.5,256.8 		"/>
	</g>
	<g>
		<polygon class="st0" points="239.8,279.4 239.8,281.5 250.6,287.8 250.6,285.7 239.8,279.4 		"/>
	</g>
	<g>
		<polygon class="st0" points="257.3,281.8 250.6,285.7 250.6,287.8 257.3,283.9 257.3,281.8 		"/>
	</g>
	<g>
		<polygon class="st0" points="224.2,236 217.4,239.8 217.4,241.9 224.2,238.1 224.2,236 		"/>
	</g>
	<g>
		<polygon class="st0" points="206.7,233.5 206.7,235.6 217.4,241.9 217.4,239.8 206.7,233.5 		"/>
	</g>
	<g>
		<polygon class="st0" points="188.2,261.1 188.2,263.2 198.9,269.5 198.9,267.4 188.2,261.1 		"/>
	</g>
	<g>
		<polygon class="st0" points="205.6,263.6 198.9,267.4 198.9,269.5 205.6,265.7 205.6,263.6 		"/>
	</g>
	<g>
		<polygon class="st0" points="247.8,270.7 247.8,272.8 258.6,279 258.6,276.9 247.8,270.7 		"/>
	</g>
	<g>
		<polygon class="st0" points="265.3,273.1 258.6,276.9 258.6,279 265.3,275.2 265.3,273.1 		"/>
	</g>
	<g>
		<polygon class="st0" points="214.2,264.4 214.2,266.5 225,272.8 225,270.7 214.2,264.4 		"/>
	</g>
	<g>
		<polygon class="st0" points="231.7,266.8 225,270.7 225,272.8 231.7,268.9 231.7,266.8 		"/>
	</g>
	<g>
		<polygon class="st0" points="226.7,250.5 220,254.4 220,256.5 226.7,252.6 226.7,250.5 		"/>
	</g>
	<g>
		<polygon class="st0" points="209.3,248.1 209.3,250.2 220,256.5 220,254.4 209.3,248.1 		"/>
	</g>
	<g>
		<polygon class="st0" points="201.1,268.7 201.1,270.8 211.9,277.1 211.9,275 201.1,268.7 		"/>
	</g>
	<g>
		<polygon class="st0" points="218.6,271.2 211.9,275 211.9,277.1 218.6,273.3 218.6,271.2 		"/>
	</g>
	<g>
		<polygon class="st0" points="240.6,291.8 240.6,293.9 251.3,300.2 251.3,298.1 240.6,291.8 		"/>
	</g>
	<g>
		<polygon class="st0" points="258.1,294.3 251.3,298.1 251.3,300.2 258.1,296.4 258.1,294.3 		"/>
	</g>
	<g>
		<polygon class="st0" points="166,228.4 159.3,232.2 159.3,234.3 166,230.5 166,228.4 		"/>
	</g>
	<g>
		<polygon class="st0" points="148.6,226 148.6,228.1 159.3,234.3 159.3,232.2 148.6,226 		"/>
	</g>
	<g>
		<polygon class="st0" points="179,236 172.2,239.8 172.2,241.9 179,238.1 179,236 		"/>
	</g>
	<g>
		<polygon class="st0" points="161.5,233.5 161.5,235.6 172.2,241.9 172.2,239.8 161.5,233.5 		"/>
	</g>
	<g>
		<polygon class="st0" points="290.4,274.8 283.7,278.6 283.7,280.7 290.4,276.9 290.4,274.8 		"/>
	</g>
	<g>
		<polygon class="st0" points="273,272.3 273,274.4 283.7,280.7 283.7,278.6 273,272.3 		"/>
	</g>
	<g>
		<polygon class="st0" points="261.7,278.8 261.7,280.9 272.4,287.1 272.4,285 261.7,278.8 		"/>
	</g>
	<g>
		<polygon class="st0" points="279.1,281.2 272.4,285 272.4,287.1 279.1,283.3 279.1,281.2 		"/>
	</g>
	<g>
		<polygon class="st0" points="253.6,299.4 253.6,301.5 264.3,307.8 264.3,305.7 253.6,299.4 		"/>
	</g>
	<g>
		<polygon class="st0" points="271,301.9 264.3,305.7 264.3,307.8 271,304 271,301.9 		"/>
	</g>
	<g>
		<polygon class="st0" points="253.7,287.5 253.7,289.6 264.4,295.9 264.4,293.8 253.7,287.5 		"/>
	</g>
	<g>
		<polygon class="st0" points="271.2,289.9 264.4,293.8 264.4,295.9 271.2,292 271.2,289.9 		"/>
	</g>
	<g>
		<polygon class="st0" points="264.3,309.2 257.5,313 257.5,315.1 264.3,311.3 264.3,309.2 		"/>
	</g>
	<g>
		<polygon class="st0" points="246.8,306.7 246.8,307.3 246.8,308.8 257.5,315.1 257.5,313 246.8,306.7 		"/>
	</g>
	<g>
		<polygon class="st0" points="252.2,302.1 245.5,306 245.5,308.1 246.8,307.3 246.8,306.7 252.2,303.7 252.2,302.1 		"/>
	</g>
	<g>
		<polygon class="st0" points="234.8,299.7 234.8,301.8 245.5,308.1 245.5,306 234.8,299.7 		"/>
	</g>
	<g>
		<polygon class="st0" points="222.1,292.3 222.1,294.4 232.8,300.7 232.8,298.6 222.1,292.3 		"/>
	</g>
	<g>
		<polygon class="st0" points="239.5,294.7 232.8,298.6 232.8,300.7 239.5,296.8 239.5,294.7 		"/>
	</g>
	<g>
		<polygon class="st0" points="244.2,286.2 237.5,290 237.5,292.1 244.2,288.3 244.2,286.2 		"/>
	</g>
	<g>
		<polygon class="st0" points="226.8,283.7 226.8,285.8 237.5,292.1 237.5,290 226.8,283.7 		"/>
	</g>
	<g>
		<polygon class="st0" points="169.4,261.4 169.4,263.5 217.6,291.8 217.6,289.7 169.4,261.4 		"/>
	</g>
	<g>
		<polygon class="st0" points="224.4,285.8 217.6,289.7 217.6,291.8 224.4,287.9 224.4,285.8 		"/>
	</g>
	<g>
		<polygon class="st0" points="165.9,240.3 159.1,244.1 159.1,246.2 165.9,242.4 165.9,240.3 		"/>
	</g>
	<g>
		<polygon class="st0" points="148.4,237.9 148.4,240 159.1,246.2 159.1,244.1 148.4,237.9 		"/>
	</g>
	<g>
		<polygon class="st0" points="214.1,276.3 214.1,278.4 224.8,284.7 224.8,282.6 214.1,276.3 		"/>
	</g>
	<g>
		<polygon class="st0" points="231.5,278.8 224.8,282.6 224.8,284.7 231.5,280.9 231.5,278.8 		"/>
	</g>
	<g>
		<polygon class="st0" points="198.2,220.8 191.5,224.7 191.5,226.8 198.2,222.9 198.2,220.8 		"/>
	</g>
	<g>
		<polygon class="st0" points="180.8,218.4 180.8,220.5 191.5,226.8 191.5,224.7 180.8,218.4 		"/>
	</g>
	<g>
		<polygon class="st0" points="222.2,255.7 222.2,257.8 233,264.1 233,261.9 222.2,255.7 		"/>
	</g>
	<g>
		<polygon class="st0" points="239.7,258.1 233,261.9 233,264.1 239.7,260.2 239.7,258.1 		"/>
	</g>
	<g>
		<polygon class="st0" points="244.6,274.4 237.9,278.3 237.9,280.4 244.6,276.5 244.6,274.4 		"/>
	</g>
	<g>
		<polygon class="st0" points="227.2,272 227.2,274.1 237.9,280.4 237.9,278.3 227.2,272 		"/>
	</g>
	<g>
		<polygon class="st0" points="298.9,287.5 298.9,289.6 310.6,296.4 310.6,294.3 298.9,287.5 		"/>
	</g>
	<g>
		<polygon class="st0" points="317.3,290.5 310.6,294.3 310.6,296.4 317.3,292.6 317.3,290.5 		"/>
	</g>
	<g>
		<polygon class="st0" points="233.5,249.2 233.5,251.3 244.3,257.6 244.3,255.5 233.5,249.2 		"/>
	</g>
	<g>
		<polygon class="st0" points="251,251.7 244.3,255.5 244.3,257.6 251,253.8 251,251.7 		"/>
	</g>
	<g>
		<path class="st0" d="M356.6,297.3l0.4,0l0.3,0.1l0.3,0.1l0,0l0,0l-0.3,0.1l-0.4,0.1l-0.4,0l-0.4,0l-0.3-0.1l-0.3-0.1l0,0l0,0
			l0.3-0.1l0.4-0.1L356.6,297.3 M356.6,296.3l-0.6,0l-0.5,0.1l-0.4,0.2l-0.3,0.3l-0.2,0.3l-0.1,0.3l0.1,0.3l0.2,0.3l0.3,0.3l0.4,0.2
			l0.5,0.1l0.6,0l0.6,0l0.5-0.1l0.4-0.2l0.3-0.3l0.2-0.3l0.1-0.3l-0.1-0.3l-0.2-0.3l-0.3-0.3l-0.4-0.2l-0.5-0.1L356.6,296.3
			L356.6,296.3z"/>
	</g>
	<g>
		<polygon class="st0" points="137.3,206 137.3,208.1 153.4,217.5 153.4,215.4 137.3,206 		"/>
	</g>
	<g>
		<polygon class="st0" points="160.1,211.6 153.4,215.4 153.4,217.5 160.1,213.7 160.1,211.6 		"/>
	</g>
	<g>
		<polygon class="st0" points="186.9,227.3 180.2,231.1 180.2,233.2 186.9,229.4 186.9,227.3 		"/>
	</g>
	<g>
		<polygon class="st0" points="169.5,224.8 169.5,226.9 180.2,233.2 180.2,231.1 169.5,224.8 		"/>
	</g>
	<g>
		<polygon class="st0" points="151.6,251 151.6,253.1 162.3,259.4 162.3,257.3 151.6,251 		"/>
	</g>
	<g>
		<polygon class="st0" points="169,253.5 162.3,257.3 162.3,259.4 169,255.6 169,253.5 		"/>
	</g>
	<g>
		<g>
			<path class="st0" d="M352.8,296.9l-0.2,0.1l-0.4,0.1l-0.4,0l-0.4,0L351,297l-0.2-0.1l0.2,0l0.1,0l0.1,0l0.6,0l0.1,0l0.1,0l0.6,0
				l0.1,0l0.1,0L352.8,296.9 M349.7,294.7v2.1l0.1,0.3l0.2,0.3l0.3,0.3l0.4,0.2l0.5,0.1l0.6,0l0.6,0l0.5-0.1l0.4-0.2l0.3-0.3
				l0.2-0.3l0.1-0.3v-2.1l-0.1,0.3l-0.2,0.3l-0.3,0.3l-0.4,0.2l-0.5,0.1l-0.6,0l-0.6,0l-0.5-0.1l-0.4-0.2l-0.3-0.3l-0.2-0.3
				L349.7,294.7L349.7,294.7z"/>
		</g>
		<g>
			<path class="st0" d="M357.6,299.7l-0.2,0.1l-0.4,0.1l-0.4,0l-0.4,0l-0.3-0.1l-0.2-0.1l0.2,0l0.1,0l0.1,0l0.6,0l0.1,0l0.1,0l0.6,0
				l0.1,0l0.1,0L357.6,299.7 M354.5,297.6v2.1l0.1,0.3l0.2,0.3l0.3,0.3l0.4,0.2l0.5,0.1l0.6,0l0.6,0l0.5-0.1l0.4-0.2l0.3-0.3
				l0.2-0.3l0.1-0.3v-2.1l-0.1,0.3l-0.2,0.3l-0.3,0.3l-0.4,0.2l-0.5,0.1l-0.6,0l-0.6,0l-0.5-0.1l-0.4-0.2l-0.3-0.3l-0.2-0.3
				L354.5,297.6L354.5,297.6z"/>
		</g>
		<g>
			<path class="st0" d="M362.1,302.3l-0.2,0.1l-0.4,0.1l-0.4,0l-0.4,0l-0.3-0.1l-0.2-0.1l0.2,0l0.1,0l0.1,0l0.6,0l0.1,0l0.1,0l0.6,0
				l0.1,0l0.1,0L362.1,302.3 M359,300.2v2.1l0.1,0.3l0.2,0.3l0.3,0.3l0.4,0.2l0.5,0.1l0.6,0l0.6,0l0.5-0.1l0.4-0.2l0.3-0.3l0.2-0.3
				l0.1-0.3v-2.1l-0.1,0.3l-0.2,0.3l-0.3,0.3l-0.4,0.2l-0.5,0.1l-0.6,0l-0.6,0l-0.5-0.1l-0.4-0.2l-0.3-0.3l-0.2-0.3L359,300.2
				L359,300.2z"/>
		</g>
	</g>
	<g>
		<path class="st0" d="M361.2,300l0.4,0l0.3,0.1l0.3,0.1l0,0l0,0l-0.3,0.1l-0.4,0.1l-0.4,0l-0.4,0l-0.3-0.1l-0.3-0.1l0,0l0,0
			l0.3-0.1l0.4-0.1L361.2,300 M361.2,299l-0.6,0l-0.5,0.1l-0.4,0.2l-0.3,0.3l-0.2,0.3l-0.1,0.3l0.1,0.3l0.2,0.3l0.3,0.3l0.4,0.2
			l0.5,0.1l0.6,0l0.6,0l0.5-0.1l0.4-0.2l0.3-0.3l0.2-0.3l0.1-0.3l-0.1-0.3l-0.2-0.3l-0.3-0.3l-0.4-0.2l-0.5-0.1L361.2,299L361.2,299
			z"/>
	</g>
	<g>
		<polygon class="st0" points="167.8,210.8 167.8,212.9 178.6,219.2 178.6,217.1 167.8,210.8 		"/>
	</g>
	<g>
		<polygon class="st0" points="185.3,213.2 178.6,217.1 178.6,219.2 185.3,215.3 185.3,213.2 		"/>
	</g>
	<g>
		<polygon class="st0" points="156.5,217.2 156.5,219.3 167.3,225.6 167.3,223.5 156.5,217.2 		"/>
	</g>
	<g>
		<polygon class="st0" points="174,219.7 167.3,223.5 167.3,225.6 174,221.8 174,219.7 		"/>
	</g>
	<g>
		<polygon class="st0" points="191.8,255.5 185.1,259.3 185.1,261.4 191.8,257.6 191.8,255.5 		"/>
	</g>
	<g>
		<g>
			<path class="st0" d="M116.9,208.1l3.4,2l-14.8,8.4l-3.4-2L116.9,208.1 M116.9,206.9l-0.4,0.2l-16.4,9.3l5.4,3.2l16.8-9.6
				L116.9,206.9L116.9,206.9z"/>
		</g>
		<g>
			<path class="st0" d="M145.6,240.9l8.8,5.2l-4.8,2.7l-8.5-5l-0.3-0.2L145.6,240.9 M145.7,239.7l-6.8,3.9l1.8,1.1l9,5.2l6.8-3.9
				L145.7,239.7L145.7,239.7z"/>
		</g>
		<g>
			<path class="st0" d="M311.3,315.3l3.9,2.3l-4.7,2.7l-3.9-2.3L311.3,315.3 M311.3,314.2l-6.7,3.8l5.9,3.5l6.7-3.8L311.3,314.2
				L311.3,314.2z"/>
		</g>
		<g>
			<path class="st0" d="M316.9,330.6l3.9,2.3l-4.7,2.7l-3.9-2.3L316.9,330.6 M316.9,329.4l-6.7,3.8l5.9,3.5l6.7-3.8L316.9,329.4
				L316.9,329.4z"/>
		</g>
		<g>
			<path class="st0" d="M327.3,324.7l3.9,2.3l-4.7,2.7l-3.9-2.3L327.3,324.7 M327.3,323.5l-6.7,3.8l5.9,3.5l6.7-3.8L327.3,323.5
				L327.3,323.5z"/>
		</g>
		<g>
			<path class="st0" d="M200.5,223.3l8.7,5.1l-4.7,2.7l-8.7-5.1L200.5,223.3 M200.5,222.1l-6.7,3.8l10.7,6.3l6.7-3.8L200.5,222.1
				L200.5,222.1z"/>
		</g>
		<g>
			<path class="st0" d="M325.1,335.3l3.9,2.3l-4.7,2.7l-3.9-2.3L325.1,335.3 M325.1,334.2l-6.7,3.8l5.9,3.5l6.7-3.8L325.1,334.2
				L325.1,334.2z"/>
		</g>
		<g>
			<path class="st0" d="M307.8,335.8l3.9,2.3l-4.7,2.7l-3.9-2.3L307.8,335.8 M307.8,334.6l-6.7,3.8l5.9,3.5l6.7-3.8L307.8,334.6
				L307.8,334.6z"/>
		</g>
		<g>
			<path class="st0" d="M299.9,331.2l3.9,2.3l-4.7,2.7l-3.9-2.3L299.9,331.2 M299.9,330.1l-6.7,3.8l5.9,3.5l6.7-3.8L299.9,330.1
				L299.9,330.1z"/>
		</g>
		<g>
			<path class="st0" d="M315.9,340.6l3.9,2.3l-4.7,2.7l-3.9-2.3L315.9,340.6 M315.9,339.4l-6.7,3.8l5.9,3.5l6.7-3.8L315.9,339.4
				L315.9,339.4z"/>
		</g>
		<g>
			<path class="st0" d="M168.5,242.9l8.8,5.2l-4.8,2.7l-8.8-5.2L168.5,242.9 M168.5,241.8l-6.8,3.9l10.8,6.3l6.8-3.9L168.5,241.8
				L168.5,241.8z"/>
		</g>
		<g>
			<path class="st0" d="M123.1,216.3l14.2,8.3l-4.8,2.7l-14.2-8.3L123.1,216.3 M123.1,215.2l-6.8,3.9l16.2,9.5l6.8-3.9L123.1,215.2
				L123.1,215.2z"/>
		</g>
		<g>
			<path class="st0" d="M309.1,326l3.9,2.3l-4.7,2.7l-3.9-2.3L309.1,326 M309.1,324.8l-6.7,3.8l5.9,3.5l6.7-3.8L309.1,324.8
				L309.1,324.8z"/>
		</g>
		<g>
			<path class="st0" d="M163.8,201.4l6.1,3.6l-4.8,2.7l-6.1-3.6L163.8,201.4 M163.8,200.3l-6.8,3.9l8.1,4.7l6.8-3.9L163.8,200.3
				L163.8,200.3z"/>
		</g>
		<g>
			<path class="st0" d="M300.9,321.2l3.9,2.3l-4.7,2.7l-3.9-2.3L300.9,321.2 M301,320.1l-6.7,3.8l5.9,3.5l6.7-3.8L301,320.1
				L301,320.1z"/>
		</g>
		<g>
			<path class="st0" d="M173.8,195.7l6.1,3.5l-4.7,2.7l-6.1-3.5L173.8,195.7 M173.8,194.5l-6.7,3.8l8,4.7l6.7-3.8L173.8,194.5
				L173.8,194.5z"/>
		</g>
		<g>
			<path class="st0" d="M335.4,329.4l3.9,2.3l-4.7,2.7l-3.9-2.3L335.4,329.4 M335.4,328.3l-6.7,3.8l5.9,3.5l6.7-3.8L335.4,328.3
				L335.4,328.3z"/>
		</g>
		<g>
			<path class="st0" d="M319.5,320.1l3.9,2.3l-4.7,2.7l-3.9-2.3L319.5,320.1 M319.5,318.9l-6.7,3.8l5.9,3.5l6.7-3.8L319.5,318.9
				L319.5,318.9z"/>
		</g>
		<g>
			<path class="st0" d="M365.7,312.2l3.9,2.3l-4.7,2.7l-3.9-2.3L365.7,312.2 M365.7,311.1l-6.7,3.8l5.9,3.5l6.7-3.8L365.7,311.1
				L365.7,311.1z"/>
		</g>
		<g>
			<path class="st0" d="M349.7,302.9l3.9,2.3l-4.7,2.7l-3.9-2.3L349.7,302.9 M349.7,301.7l-6.7,3.8l5.9,3.5l6.7-3.8L349.7,301.7
				L349.7,301.7z"/>
		</g>
		<g>
			<path class="st0" d="M156.1,185.8l3.4,2l-14.8,8.4l-3.4-2L156.1,185.8 M156.1,184.6l-16.8,9.6l5.4,3.2l16.8-9.6L156.1,184.6
				L156.1,184.6z"/>
		</g>
		<g>
			<path class="st0" d="M336.1,339.4l2.8,1.7l-13.3,7.6l-2.8-1.7L336.1,339.4 M336.1,338.3l-15.3,8.7l4.8,2.8l15.3-8.7L336.1,338.3
				L336.1,338.3z"/>
		</g>
		<g>
			<path class="st0" d="M321.4,309.6l3.9,2.3l-4.7,2.7l-3.9-2.3L321.4,309.6 M321.4,308.4l-6.7,3.8l5.9,3.5l6.7-3.8L321.4,308.4
				L321.4,308.4z"/>
		</g>
		<g>
			<path class="st0" d="M345.5,323.7l3.9,2.3l-4.7,2.7l-3.9-2.3L345.5,323.7 M345.5,322.5l-6.7,3.8l5.9,3.5l6.7-3.8L345.5,322.5
				L345.5,322.5z"/>
		</g>
		<g>
			<path class="st0" d="M355.3,318.1l3.9,2.3l-4.7,2.7l-3.9-2.3L355.3,318.1 M355.3,317l-6.7,3.8l5.9,3.5l6.7-3.8L355.3,317
				L355.3,317z"/>
		</g>
		<g>
			<path class="st0" d="M331.2,304l3.9,2.3l-4.7,2.7l-3.9-2.3L331.2,304 M331.2,302.9l-6.7,3.8l5.9,3.5l6.7-3.8L331.2,302.9
				L331.2,302.9z"/>
		</g>
		<g>
			<path class="st0" d="M341.6,298.1l3.9,2.3l-4.7,2.7l-3.9-2.3L341.6,298.1 M341.6,296.9l-6.7,3.8l5.9,3.5l6.7-3.8L341.6,296.9
				L341.6,296.9z"/>
		</g>
		<g>
			<path class="st0" d="M329.5,314.3l3.9,2.3l-4.7,2.7l-3.9-2.3L329.5,314.3 M329.6,313.2l-6.7,3.8l5.9,3.5l6.7-3.8L329.6,313.2
				L329.6,313.2z"/>
		</g>
		<g>
			<path class="st0" d="M373.3,318.2l2.8,1.7l-13.3,7.6l-2.8-1.7L373.3,318.2 M373.3,317l-15.3,8.7l4.8,2.8l15.3-8.7L373.3,317
				L373.3,317z"/>
		</g>
		<g>
			<path class="st0" d="M339.3,308.8l3.9,2.3l-4.7,2.7l-3.9-2.3L339.3,308.8 M339.3,307.6l-6.7,3.8l5.9,3.5l6.7-3.8L339.3,307.6
				L339.3,307.6z"/>
		</g>
		<g>
			<path class="st0" d="M347.2,313.4l3.9,2.3l-4.7,2.7l-3.9-2.3L347.2,313.4 M347.2,312.2l-6.7,3.8l5.9,3.5l6.7-3.8L347.2,312.2
				L347.2,312.2z"/>
		</g>
		<g>
			<path class="st0" d="M355,328.6l2.8,1.7l-13.3,7.6l-2.8-1.7L355,328.6 M355,327.5l-15.3,8.7l4.8,2.8l15.3-8.7L355,327.5
				L355,327.5z"/>
		</g>
		<g>
			<path class="st0" d="M337.4,318.9l3.9,2.3l-4.7,2.7l-3.9-2.3L337.4,318.9 M337.4,317.8l-6.7,3.8l5.9,3.5l6.7-3.8L337.4,317.8
				L337.4,317.8z"/>
		</g>
		<g>
			<path class="st0" d="M357.5,307.4l3.9,2.3l-4.7,2.7l-3.9-2.3L357.5,307.4 M357.5,306.3l-6.7,3.8l5.9,3.5l6.7-3.8L357.5,306.3
				L357.5,306.3z"/>
		</g>
		<g>
			<path class="st0" d="M286.3,300l13.6,7.9l-4.7,2.7l-13.6-7.9L286.3,300 M286.3,298.8l-6.7,3.8l15.6,9.1l6.7-3.8L286.3,298.8
				L286.3,298.8z"/>
		</g>
		<g>
			<path class="st0" d="M132.6,233.3l8.8,5.2l-4.8,2.7l-8.8-5.2L132.6,233.3 M132.6,232.1l-6.8,3.9l10.8,6.3l6.8-3.9L132.6,232.1
				L132.6,232.1z"/>
		</g>
		<g>
			<path class="st0" d="M118.7,225.1l8.8,5.2l-4.8,2.7l-8.8-5.2L118.7,225.1 M118.7,223.9l-6.8,3.9l10.8,6.3l6.8-3.9L118.7,223.9
				L118.7,223.9z"/>
		</g>
		<g>
			<path class="st0" d="M272.6,319.8l2.8,1.7l-0.7,0.4l-2.8-1.7L272.6,319.8 M272.6,318.7l-1.8,1l-0.9,0.5l4.8,2.8l2.7-1.6
				L272.6,318.7L272.6,318.7z"/>
		</g>
		<g>
			<path class="st0" d="M266,316l2.8,1.7l-0.7,0.4l-2.8-1.7L266,316 M266,314.8l-2.7,1.6l4.8,2.8l2.7-1.6L266,314.8L266,314.8z"/>
		</g>
		<g>
			<path class="st0" d="M279.3,323.7l2.8,1.7l-0.7,0.4l-2.8-1.7L279.3,323.7 M279.3,322.6l-1.8,1l-0.9,0.5l4.8,2.8l2.7-1.6
				L279.3,322.6L279.3,322.6z"/>
		</g>
		<g>
			<path class="st0" d="M184.9,202.2l8.7,5.1L189,210l-8.7-5.1L184.9,202.2 M184.9,201.1l-6.7,3.8l10.7,6.3l6.7-3.8L184.9,201.1
				L184.9,201.1z"/>
		</g>
		<g>
			<path class="st0" d="M277.2,317.2l2.8,1.7l-0.7,0.4l-2.8-1.7L277.2,317.2 M277.2,316.1l-2.7,1.6l4.8,2.8l2.7-1.6L277.2,316.1
				L277.2,316.1z"/>
		</g>
		<g>
			<path class="st0" d="M210.9,217.4l8.7,5.1l-4.7,2.7l-8.7-5.1L210.9,217.4 M210.9,216.2l-6.7,3.8l10.7,6.3l6.7-3.8L210.9,216.2
				L210.9,216.2z"/>
		</g>
		<g>
			<path class="st0" d="M136.3,211.8l14.1,8.3l-4.7,2.7l-14.1-8.3L136.3,211.8 M136.3,210.7l-6.7,3.8l16.1,9.4l6.7-3.8L136.3,210.7
				L136.3,210.7z"/>
		</g>
		<g>
			<path class="st0" d="M273.2,304.3l13.6,7.9l-4.7,2.7l-13.6-7.9L273.2,304.3 M273.2,303.2l-6.7,3.8l15.6,9.1l6.7-3.8L273.2,303.2
				L273.2,303.2z"/>
		</g>
		<g>
			<path class="st0" d="M291.8,326.5l3.9,2.3l-4.7,2.7l-3.9-2.3L291.8,326.5 M291.8,325.3l-6.7,3.8l5.9,3.5l6.7-3.8L291.8,325.3
				L291.8,325.3z"/>
		</g>
		<g>
			<path class="st0" d="M197.9,209.8l8.7,5.1l-4.7,2.7l-8.7-5.1L197.9,209.8 M197.9,208.6l-6.7,3.8l10.7,6.3l6.7-3.8L197.9,208.6
				L197.9,208.6z"/>
		</g>
		<g>
			<path class="st0" d="M142.4,227.6l8.8,5.2l-4.8,2.7l-8.8-5.2L142.4,227.6 M142.5,226.5l-6.8,3.9l10.8,6.3l6.8-3.9L142.5,226.5
				L142.5,226.5z"/>
		</g>
		<g>
			<path class="st0" d="M241.9,260.6l8.7,5.1l-4.7,2.7l-8.7-5.1L241.9,260.6 M241.9,259.4l-6.7,3.8l10.7,6.3l6.7-3.8L241.9,259.4
				L241.9,259.4z"/>
		</g>
		<g>
			<path class="st0" d="M189.2,229.7l8.7,5.1l-4.7,2.7l-8.7-5.1L189.2,229.7 M189.2,228.6l-6.7,3.8l10.7,6.3l6.7-3.8L189.2,228.6
				L189.2,228.6z"/>
		</g>
		<g>
			<path class="st0" d="M290.1,263.7l8.7,5.1l-4.7,2.7l-8.7-5.1L290.1,263.7 M290.1,262.6l-6.7,3.8l10.7,6.3l6.7-3.8L290.1,262.6
				L290.1,262.6z"/>
		</g>
		<g>
			<path class="st0" d="M316,278.9l9.7,5.7l-4.7,2.7l-9.7-5.7L316,278.9 M316,277.8l-6.7,3.8l11.7,6.8l6.7-3.8L316,277.8L316,277.8z
				"/>
		</g>
		<g>
			<path class="st0" d="M263.6,248.2l8.7,5.1l-4.7,2.7l-8.7-5.1L263.6,248.2 M263.6,247.1l-6.7,3.8l10.7,6.3l6.7-3.8L263.6,247.1
				L263.6,247.1z"/>
		</g>
		<g>
			<path class="st0" d="M223.8,225l8.7,5.1l-4.7,2.7l-8.7-5.1L223.8,225 M223.8,223.8l-6.7,3.8l10.7,6.3l6.7-3.8L223.8,223.8
				L223.8,223.8z"/>
		</g>
		<g>
			<path class="st0" d="M250.6,240.6l8.7,5.1l-4.7,2.7l-8.7-5.1L250.6,240.6 M250.6,239.5l-6.7,3.8l10.7,6.3l6.7-3.8L250.6,239.5
				L250.6,239.5z"/>
		</g>
		<g>
			<path class="st0" d="M303,271.3l8.7,5.1l-4.7,2.7l-8.7-5.1L303,271.3 M303.1,270.2l-6.7,3.8l10.7,6.3l6.7-3.8L303.1,270.2
				L303.1,270.2z"/>
		</g>
		<g>
			<path class="st0" d="M237.7,233.1l8.7,5.1l-4.7,2.7l-8.7-5.1L237.7,233.1 M237.7,231.9l-6.7,3.8l10.7,6.3l6.7-3.8L237.7,231.9
				L237.7,231.9z"/>
		</g>
		<g>
			<path class="st0" d="M276.2,255.6l8.7,5.1l-4.7,2.7l-8.7-5.1L276.2,255.6 M276.2,254.5l-6.7,3.8l10.7,6.3l6.7-3.8L276.2,254.5
				L276.2,254.5z"/>
		</g>
		<g>
			<path class="st0" d="M136.5,196.9l3.4,2l-14.8,8.4l-3.4-2L136.5,196.9 M136.5,195.8l-16.8,9.6l5.4,3.2l16.8-9.6L136.5,195.8
				L136.5,195.8z"/>
		</g>
		<g>
			<path class="st0" d="M202.1,237.3l8.7,5.1l-4.7,2.7l-8.7-5.1L202.1,237.3 M202.1,236.2l-6.7,3.8l10.7,6.3l6.7-3.8L202.1,236.2
				L202.1,236.2z"/>
		</g>
		<g>
			<path class="st0" d="M194.1,246l8.7,5.1l-4.7,2.7l-8.7-5.1L194.1,246 M194.1,244.9l-6.7,3.8l10.7,6.3l6.7-3.8L194.1,244.9
				L194.1,244.9z"/>
		</g>
		<g>
			<path class="st0" d="M181.2,238.5l8.7,5.1l-4.7,2.7l-8.7-5.1L181.2,238.5 M181.2,237.3l-6.7,3.8l10.7,6.3l6.7-3.8L181.2,237.3
				L181.2,237.3z"/>
		</g>
		<g>
			<path class="st0" d="M208,254.1l8.7,5.1l-4.7,2.7l-8.7-5.1L208,254.1 M208,253l-6.7,3.8l10.7,6.3l6.7-3.8L208,253L208,253z"/>
		</g>
		<g>
			<path class="st0" d="M294.3,291.3l13.6,7.9l-4.7,2.7l-13.6-7.9L294.3,291.3 M294.3,290.1l-6.7,3.8l15.6,9.1l6.7-3.8L294.3,290.1
				L294.3,290.1z"/>
		</g>
		<g>
			<path class="st0" d="M227.3,239l8.7,5.1l-4.7,2.7l-8.7-5.1L227.3,239 M227.3,237.8l-6.7,3.8l10.7,6.3l6.7-3.8L227.3,237.8
				L227.3,237.8z"/>
		</g>
		<g>
			<path class="st0" d="M265.8,261.6l8.7,5.1l-4.7,2.7l-8.7-5.1L265.8,261.6 M265.9,260.4l-6.7,3.8l10.7,6.3l6.7-3.8L265.9,260.4
				L265.9,260.4z"/>
		</g>
		<g>
			<path class="st0" d="M292.7,277.2l8.7,5.1l-4.7,2.7l-8.7-5.1L292.7,277.2 M292.7,276.1l-6.7,3.8l10.7,6.3l6.7-3.8L292.7,276.1
				L292.7,276.1z"/>
		</g>
		<g>
			<path class="st0" d="M273.4,292.4l8.7,5.1l-4.7,2.7l-8.7-5.1L273.4,292.4 M273.4,291.3l-6.7,3.8l10.7,6.3l6.7-3.8L273.4,291.3
				L273.4,291.3z"/>
		</g>
		<g>
			<path class="st0" d="M253.2,254.1l8.7,5.1l-4.7,2.7l-8.7-5.1L253.2,254.1 M253.2,253l-6.7,3.8l10.7,6.3l6.7-3.8L253.2,253
				L253.2,253z"/>
		</g>
		<g>
			<path class="st0" d="M246.6,276.7l8.7,5.1l-4.7,2.7l-8.7-5.1L246.6,276.7 M246.6,275.6l-6.7,3.8l10.7,6.3l6.7-3.8L246.6,275.6
				L246.6,275.6z"/>
		</g>
		<g>
			<path class="st0" d="M213.4,230.9l8.7,5.1l-4.7,2.7l-8.7-5.1L213.4,230.9 M213.4,229.7l-6.7,3.8l10.7,6.3l6.7-3.8L213.4,229.7
				L213.4,229.7z"/>
		</g>
		<g>
			<path class="st0" d="M194.9,258.5l8.7,5.1l-4.7,2.7l-8.7-5.1L194.9,258.5 M194.9,257.3l-6.7,3.8l10.7,6.3l6.7-3.8L194.9,257.3
				L194.9,257.3z"/>
		</g>
		<g>
			<path class="st0" d="M254.5,268l8.7,5.1l-4.7,2.7l-8.7-5.1L254.5,268 M254.6,266.8l-6.7,3.8l10.7,6.3l6.7-3.8L254.6,266.8
				L254.6,266.8z"/>
		</g>
		<g>
			<path class="st0" d="M220.9,261.7l8.7,5.1l-4.7,2.7l-8.7-5.1L220.9,261.7 M221,260.6l-6.7,3.8l10.7,6.3l6.7-3.8L221,260.6
				L221,260.6z"/>
		</g>
		<g>
			<path class="st0" d="M216,245.4l8.7,5.1l-4.7,2.7l-8.7-5.1L216,245.4 M216,244.3l-6.7,3.8l10.7,6.3l6.7-3.8L216,244.3L216,244.3z
				"/>
		</g>
		<g>
			<path class="st0" d="M207.9,266.1l8.7,5.1l-4.7,2.7l-8.7-5.1L207.9,266.1 M207.9,264.9l-6.7,3.8l10.7,6.3l6.7-3.8L207.9,264.9
				L207.9,264.9z"/>
		</g>
		<g>
			<path class="st0" d="M247.3,289.2l8.7,5.1l-4.7,2.7l-8.7-5.1L247.3,289.2 M247.3,288l-6.7,3.8l10.7,6.3l6.7-3.8L247.3,288
				L247.3,288z"/>
		</g>
		<g>
			<path class="st0" d="M155.6,223.3l8.8,5.2l-4.8,2.7l-8.8-5.2L155.6,223.3 M155.6,222.1l-6.8,3.9l10.8,6.3l6.8-3.9L155.6,222.1
				L155.6,222.1z"/>
		</g>
		<g>
			<path class="st0" d="M168.7,230.9l8.8,5.2l-4.8,2.7l-8.8-5.2L168.7,230.9 M168.7,229.8l-6.8,3.9l10.8,6.3l6.8-3.9L168.7,229.8
				L168.7,229.8z"/>
		</g>
		<g>
			<path class="st0" d="M279.7,269.7l8.7,5.1l-4.7,2.7l-8.7-5.1L279.7,269.7 M279.7,268.5l-6.7,3.8l10.7,6.3l6.7-3.8L279.7,268.5
				L279.7,268.5z"/>
		</g>
		<g>
			<path class="st0" d="M268.4,276.1l8.7,5.1l-4.7,2.7l-8.7-5.1L268.4,276.1 M268.4,274.9l-6.7,3.8l10.7,6.3l6.7-3.8L268.4,274.9
				L268.4,274.9z"/>
		</g>
		<g>
			<path class="st0" d="M260.3,296.7l8.7,5.1l-4.7,2.7l-8.7-5.1L260.3,296.7 M260.3,295.6l-6.7,3.8l10.7,6.3l6.7-3.8L260.3,295.6
				L260.3,295.6z"/>
		</g>
		<g>
			<path class="st0" d="M260.4,284.8l8.7,5.1l-4.7,2.7l-8.7-5.1L260.4,284.8 M260.4,283.7l-6.7,3.8l10.7,6.3l6.7-3.8L260.4,283.7
				L260.4,283.7z"/>
		</g>
		<g>
			<path class="st0" d="M241.5,297l8.7,5.1l-4.7,2.7l-8.7-5.1L241.5,297 M241.5,295.9l-6.7,3.8l10.7,6.3l6.7-3.8L241.5,295.9
				L241.5,295.9z"/>
		</g>
		<g>
			<path class="st0" d="M253.5,304.1l8.7,5.1l-4.7,2.7l-8.7-5.1l3.9-2.2L253.5,304.1 M253.5,302.9l-1.3,0.8l-5.4,3.1l10.7,6.3
				l6.7-3.8L253.5,302.9L253.5,302.9z"/>
		</g>
		<g>
			<path class="st0" d="M228.8,289.6l8.7,5.1l-4.7,2.7l-8.7-5.1L228.8,289.6 M228.8,288.5l-6.7,3.8l10.7,6.3l6.7-3.8L228.8,288.5
				L228.8,288.5z"/>
		</g>
		<g>
			<path class="st0" d="M233.5,281l8.7,5.1l-4.7,2.7l-8.7-5.1L233.5,281 M233.5,279.9l-6.7,3.8l10.7,6.3l6.7-3.8L233.5,279.9
				L233.5,279.9z"/>
		</g>
		<g>
			<path class="st0" d="M176.1,258.7l46.3,27.1l-4.7,2.7l-46.3-27.1L176.1,258.7 M176.1,257.6l-6.7,3.8l48.3,28.2l6.7-3.8
				L176.1,257.6L176.1,257.6z"/>
		</g>
		<g>
			<path class="st0" d="M155.5,235.3l8.8,5.2l-4.8,2.7l-8.8-5.2L155.5,235.3 M155.5,234.1l-6.8,3.9l10.8,6.3l6.8-3.9L155.5,234.1
				L155.5,234.1z"/>
		</g>
		<g>
			<path class="st0" d="M220.8,273.6l8.7,5.1l-4.7,2.7l-8.7-5.1L220.8,273.6 M220.8,272.5l-6.7,3.8l10.7,6.3l6.7-3.8L220.8,272.5
				L220.8,272.5z"/>
		</g>
		<g>
			<path class="st0" d="M187.5,215.7l8.7,5.1l-4.7,2.7l-8.7-5.1L187.5,215.7 M187.5,214.6l-6.7,3.8l10.7,6.3l6.7-3.8L187.5,214.6
				L187.5,214.6z"/>
		</g>
		<g>
			<path class="st0" d="M228.9,253l8.7,5.1l-4.7,2.7l-8.7-5.1L228.9,253 M228.9,251.8l-6.7,3.8l10.7,6.3l6.7-3.8L228.9,251.8
				L228.9,251.8z"/>
		</g>
		<g>
			<path class="st0" d="M233.9,269.3l8.7,5.1l-4.7,2.7l-8.7-5.1L233.9,269.3 M233.9,268.2l-6.7,3.8l10.7,6.3l6.7-3.8L233.9,268.2
				L233.9,268.2z"/>
		</g>
		<g>
			<path class="st0" d="M305.6,284.8l9.7,5.7l-4.7,2.7l-9.7-5.7L305.6,284.8 M305.6,283.7l-6.7,3.8l11.7,6.8l6.7-3.8L305.6,283.7
				L305.6,283.7z"/>
		</g>
		<g>
			<path class="st0" d="M240.2,246.6l8.7,5.1l-4.7,2.7l-8.7-5.1L240.2,246.6 M240.2,245.4l-6.7,3.8l10.7,6.3l6.7-3.8L240.2,245.4
				L240.2,245.4z"/>
		</g>
		<g>
			<path class="st0" d="M144.3,203.1l14.1,8.3l-4.7,2.7l-14.1-8.3L144.3,203.1 M144.3,201.9l-6.7,3.8l16.1,9.4l6.7-3.8L144.3,201.9
				L144.3,201.9z"/>
		</g>
		<g>
			<path class="st0" d="M176.7,222.1l8.8,5.2l-4.8,2.7l-8.8-5.2L176.7,222.1 M176.7,221l-6.8,3.9l10.8,6.3l6.8-3.9L176.7,221
				L176.7,221z"/>
		</g>
		<g>
			<path class="st0" d="M158.7,248.5l8.8,5.2l-4.8,2.7l-8.8-5.2L158.7,248.5 M158.7,247.4l-6.8,3.9l10.8,6.3l6.8-3.9L158.7,247.4
				L158.7,247.4z"/>
		</g>
		<g>
			<path class="st0" d="M175,208l8.8,5.2l-4.8,2.7l-8.8-5.2L175,208 M175,206.9l-6.8,3.9l10.8,6.3l6.8-3.9L175,206.9L175,206.9z"/>
		</g>
		<g>
			<path class="st0" d="M163.7,214.5l8.8,5.2l-4.8,2.7l-8.8-5.2L163.7,214.5 M163.7,213.4l-6.8,3.9l10.8,6.3l6.8-3.9L163.7,213.4
				L163.7,213.4z"/>
		</g>
		<g>
			<path class="st0" d="M181,250.4l8.7,5.1l-4.7,2.7l-8.7-5.1L181,250.4 M181,249.2l-6.7,3.8l10.7,6.3l6.7-3.8L181,249.2L181,249.2z
				"/>
		</g>
	</g>
	<g>
		<polygon class="st0" points="174.3,253 174.3,255.1 185.1,261.4 185.1,259.3 174.3,253 		"/>
	</g>
	<g>
		<path class="st0" d="M212.5,31.3l222.2,130l-39.7,142l-222.2-130L212.5,31.3 M211.9,29.8l-40.3,143.9l224,131.1l40.3-143.9
			L211.9,29.8L211.9,29.8z"/>
	</g>
	<g>
		<polygon class="st0" points="159,272.4 130.9,288.4 131.9,289 159,273.6 159,272.4 		"/>
	</g>
	<g>
		<polygon class="st0" points="159,272.4 159,273.6 229.1,314.6 230.1,314 159,272.4 		"/>
	</g>
	<g>
		<path class="st0" d="M159,274.7l68.1,39.8L202,328.9L133.9,289L159,274.7 M159,273.6L131.9,289l70.1,41l27.1-15.4L159,273.6
			L159,273.6z"/>
	</g>
	<g>
		<path class="st0" d="M161.8,179.4l2.1,1.2l-6.7,3.9l-0.8-0.5l-0.5-0.3l-0.5,0.3l-9.6,5.5L161.8,179.4 M138.1,194.3v0.1v1.1
			l-0.3,0.2l-0.9-0.5l-0.1,0L138.1,194.3 M118.5,205.8v1l-0.2,0.1l-0.9-0.5L118.5,205.8 M99,216.9v1.2l-81.3,46.2l-2.4-0.1L99,216.9
			 M161.8,178.2L130.2,198L11.9,265l6,0.4l82.1-46.7v-0.2v-1.7l16.4-9.3l0.4-0.2l1.6,0.9l1.2-0.7v-1.8l16.8-9.6l1.4,0.8l1.3-0.8
			v-1.6l16.8-9.6l1.3,0.8l8.7-5L161.8,178.2L161.8,178.2z"/>
	</g>
</g>
<g>
	<g>
		<g>
			<g>
				<polygon class="st5" points="240.8,57.6 240.8,82.2 250.4,74.6 				"/>
				<polygon class="st11" points="241.1,90.7 209.5,182.8 188.1,195.2 187.1,195.8 184.9,197 184.9,89.8 240.9,57.5 				"/>
				<path class="st12" d="M170.6,86.9l-0.1-0.6l0,107.5l0,0.2l0,0.2l0.1,0.2l0.1,0.2l0.1,0.2l0.1,0.2l0.1,0.2l0.1,0.2l0.1,0.2
					l0.2,0.2l0.2,0.2l0.2,0.2l0.2,0.2l0.2,0.2l0.2,0.2l0.2,0.2l0.3,0.2l0.3,0.1l0.3,0.1l0.3,0.1l0.3,0.1l0.3,0.1l0.3,0.1l0.3,0.1
					l0.3,0.1l0.3,0.1l0.3,0.1l0.4,0.1l0.4,0.1l0.4,0l0.4,0l0.4,0l0.4,0l0.4,0l0.4,0l0.4,0l0.4,0l0.4,0l0.4,0l0.4,0l0.4,0l0.4-0.1
					l0.4-0.1l0.3-0.1l0.3-0.1l0.3-0.1l0.3-0.1l0.3-0.1l0.3-0.1l0.3-0.1l0.3-0.1l0.3-0.1l0.3-0.1V89.8
					C177.7,93.1,171.2,90.2,170.6,86.9z"/>
				<path class="st0" d="M184.9,89.8L240.1,58l-10.7-6.2l-56.2,32.5c-1.8,1.3-2.4,2.7-2.1,4.1C172.9,91.3,179.2,93.2,184.9,89.8z"/>
				<path class="st13" d="M175.5,84.4l55.2-31.9v-0.9l-1.7-1l-56.2,32.5c-4.2,2.9-1.9,6.8,2.6,8.1C172.9,89.4,172.3,86.6,175.5,84.4
					z"/>
				<path class="st11" d="M237.4,57.5c0,0-53.3,30.8-53.3,30.8c-1.7,1-3.7,1.6-5.6,1.6c-3.2,0-5.7-1.5-6.1-3
					c-0.2-0.8,0.2-1.6,1.3-2.4l32-18.5c0,0,24.9-14.4,24.9-14.4l-1.7-1l-56.2,32.5c-5.1,3.5-0.6,8.6,5.8,8.6c2,0,4.3-0.5,6.4-1.8
					l55.9-32.3l-1.7-1L237.4,57.5z"/>
			</g>
			<g>
				<polygon class="st5" points="269.1,73.9 269.1,98.5 278.6,90.9 				"/>
				<polygon class="st11" points="269.4,107.1 237.7,199.2 216.4,211.5 215.4,212.1 213.2,213.3 213.2,106.1 269.1,73.8 				"/>
				<path class="st12" d="M198.9,103.2l-0.1-0.6l0,107.5l0,0.2l0,0.2l0.1,0.2l0.1,0.2l0.1,0.2l0.1,0.2l0.1,0.2l0.1,0.2l0.1,0.2
					l0.2,0.2l0.2,0.2l0.2,0.2l0.2,0.2l0.2,0.2l0.2,0.2l0.2,0.2l0.3,0.2l0.3,0.1l0.3,0.1l0.3,0.1l0.3,0.1l0.3,0.1l0.3,0.1l0.3,0.1
					l0.3,0.1l0.3,0.1l0.3,0.1l0.3,0.1l0.4,0.1l0.4,0.1l0.4,0l0.4,0l0.4,0l0.4,0l0.4,0l0.4,0l0.4,0l0.4,0l0.4,0l0.4,0l0.4-0.1
					l0.4-0.1l0.3-0.1l0.3-0.1l0.3-0.1l0.3-0.1l0.3-0.1l0.3-0.1l0.3-0.1l0.3-0.1l0.3-0.1l0.3-0.1l0.3-0.1V106.1
					C206,109.4,199.5,106.6,198.9,103.2z"/>
				<path class="st0" d="M213.2,106.1l55.2-31.9l-10.7-6.2l-56.2,32.5c-1.8,1.3-2.4,2.7-2.1,4.1
					C201.2,107.6,207.5,109.5,213.2,106.1z"/>
				<path class="st13" d="M203.7,100.7l55.2-31.9v-0.9l-1.7-1L201,99.4c-4.2,2.9-1.9,6.8,2.6,8.1
					C201.2,105.7,200.5,102.9,203.7,100.7z"/>
				<path class="st11" d="M265.7,73.8c0,0-53.3,30.8-53.3,30.8c-1.7,1-3.7,1.6-5.6,1.6c-3.2,0-5.7-1.5-6.1-3
					c-0.2-0.8,0.2-1.6,1.3-2.4l32-18.5c0,0,24.9-14.4,24.9-14.4l-1.7-1L201,99.4c-5.1,3.5-0.6,8.6,5.8,8.6c2,0,4.3-0.5,6.4-1.8
					l55.9-32.3l-1.7-1L265.7,73.8z"/>
			</g>
			<g>
				<polygon class="st5" points="297.4,90.2 297.4,114.8 306.9,107.2 				"/>
				<polygon class="st11" points="297.7,123.4 266,215.5 244.7,227.8 243.6,228.4 241.5,229.7 241.5,122.5 297.4,90.2 				"/>
				<path class="st12" d="M227.1,119.6l-0.1-0.6l0,107.5l0,0.2l0,0.2l0.1,0.2l0.1,0.2l0.1,0.2l0.1,0.2l0.1,0.2l0.1,0.2l0.1,0.2
					l0.2,0.2l0.2,0.2l0.2,0.2l0.2,0.2l0.2,0.2l0.2,0.2l0.2,0.2l0.3,0.2l0.3,0.1l0.3,0.1l0.3,0.1l0.3,0.1l0.3,0.1l0.3,0.1l0.3,0.1
					l0.3,0.1l0.3,0.1l0.3,0.1l0.3,0.1l0.4,0.1l0.4,0.1l0.4,0l0.4,0l0.4,0l0.4,0l0.4,0l0.4,0l0.4,0l0.4,0l0.4,0l0.4,0l0.4-0.1
					l0.4-0.1l0.4-0.1l0.3-0.1l0.3-0.1l0.3-0.1l0.3-0.1l0.3-0.1l0.3-0.1l0.3-0.1l0.3-0.1l0.3-0.1l0.3-0.1V122.5
					C234.3,125.8,227.8,122.9,227.1,119.6z"/>
				<path class="st0" d="M241.5,122.5l55.2-31.9l-10.7-6.2l-56.2,32.5c-1.8,1.3-2.4,2.7-2.1,4.1C229.4,124,235.7,125.9,241.5,122.5z
					"/>
				<path class="st13" d="M232,117l55.2-31.9v-0.9l-1.7-1l-56.2,32.5c-4.2,2.9-1.9,6.8,2.6,8.1C229.4,122.1,228.8,119.2,232,117z"/>
				<path class="st11" d="M293.9,90.2c0,0-53.3,30.8-53.3,30.8c-1.7,1-3.7,1.6-5.6,1.6c-3.2,0-5.7-1.5-6.1-3
					c-0.2-0.8,0.2-1.6,1.3-2.4l32-18.5c0,0,24.9-14.4,24.9-14.4l-1.7-1l-56.2,32.5c-5.1,3.5-0.6,8.6,5.8,8.6c2,0,4.3-0.5,6.4-1.8
					l55.9-32.3l-1.7-1L293.9,90.2z"/>
			</g>
			<g>
				<polygon class="st5" points="327.6,107.7 327.6,132.3 337.1,124.7 				"/>
				<polygon class="st11" points="327.9,140.8 296.2,232.9 274.9,245.3 273.9,245.9 271.7,247.1 271.7,139.9 327.6,107.6 				"/>
				<path class="st12" d="M257.4,137l-0.1-0.6l0,107.5l0,0.2l0,0.2l0.1,0.2l0.1,0.2l0.1,0.2l0.1,0.2l0.1,0.2l0.1,0.2l0.1,0.2
					l0.2,0.2l0.2,0.2l0.2,0.2l0.2,0.2l0.2,0.2l0.2,0.2l0.2,0.2l0.3,0.2l0.3,0.1l0.3,0.1l0.3,0.1l0.3,0.1l0.3,0.1l0.3,0.1l0.3,0.1
					l0.3,0.1l0.3,0.1l0.3,0.1l0.4,0.1l0.4,0.1l0.4,0.1l0.4,0l0.4,0l0.4,0l0.4,0l0.4,0l0.4,0l0.4,0l0.4,0l0.4,0l0.4,0l0.4-0.1
					l0.4-0.1l0.3-0.1l0.3-0.1l0.3-0.1l0.3-0.1l0.3-0.1l0.3-0.1l0.3-0.1l0.3-0.1l0.3-0.1l0.3-0.1l0.3-0.1V139.9
					C264.5,143.2,258,140.3,257.4,137z"/>
				<path class="st0" d="M271.7,139.9l55.2-31.9l-10.7-6.2L260,134.3c-1.8,1.3-2.4,2.7-2.1,4.1C259.7,141.4,266,143.3,271.7,139.9z"
					/>
				<path class="st13" d="M262.2,134.5l55.2-31.9v-0.9l-1.7-1l-56.2,32.5c-4.2,2.9-1.9,6.8,2.6,8.1
					C259.7,139.5,259,136.7,262.2,134.5z"/>
				<path class="st11" d="M324.2,107.6c0,0-53.3,30.8-53.3,30.8c-1.7,1-3.7,1.6-5.6,1.6c-3.2,0-5.7-1.5-6.1-3
					c-0.2-0.8,0.2-1.6,1.3-2.4l32-18.5c0,0,24.9-14.4,24.9-14.4l-1.7-1l-56.2,32.5c-5.1,3.5-0.6,8.6,5.8,8.6c2,0,4.3-0.5,6.4-1.8
					l55.9-32.3l-1.7-1L324.2,107.6z"/>
			</g>
			<g>
				<polygon class="st7" points="354.1,157.2 337,124.4 334.7,126.8 334.7,126.7 283.8,181.4 324.3,259.1 325.5,254.6 326.7,256.7 
									"/>
				<path class="st14" d="M285.1,179.9l-0.3,0.2l-0.3,0.2c-4.1,3.8-10.4,4.4-12.7,0.8l43.9,84.3l0.1,0.2l0.2,0.2l0.2,0.2l0.2,0.2
					l0.2,0.2l0.2,0.2l0.2,0.2l0.2,0.2l0.2,0.1l0.2,0.1l0.3,0.1l0.3,0.1l0.3,0.1l0.3,0.1l0.3,0.1l0.3,0.1l0.3,0l0.3,0l0.3,0l0.3,0
					l0.3,0l0.3,0l0.3,0l0.3,0l0.3-0.1l0.3-0.1l0.3-0.1l0.3-0.1l0.3-0.1l0.3-0.1l0.3-0.1l0.3-0.1l0.3-0.1l0.3-0.2l0.1,0V266v-0.8
					v-0.8v-0.8v-0.8V262v-0.8v-0.8v-0.7V259v-0.7v-0.7L285.1,179.9z"/>
				<path class="st15" d="M327.6,121.2l-3.4-1.7l-50.8,54.7l-0.2,0.3c-6.3,7.9,4.3,12.5,11.4,5.8l0.3-0.2l0.3-0.2l50.8-54.7
					L327.6,121.2z"/>
				<g>
					<path class="st0" d="M287.3,178.6l48.9-53.5l-12.7-5.9l-50.8,57.5c-1.5,2-1.6,3.7-0.9,5C274.9,184.3,282.3,184.2,287.3,178.6z"
						/>
					<path class="st16" d="M275.3,176l49.7-56l0-1l-1.9-1.1l-51.1,57.7c-3.5,4.5,0.4,7.9,5.6,7.7C274.3,182.3,272.7,179.5,275.3,176
						z"/>
					<path class="st17" d="M285.9,177.3c-1.5,1.7-3.4,2.9-5.4,3.6c-3.5,1.1-6.6,0.3-7.6-1c-0.5-0.8-0.3-1.8,0.6-3l28-30.8
						c0,0,23.6-27,23.6-27l-1.9-1.1l-51.1,57.7c-4.2,5.5,2.3,9.3,9.1,7.1c2.2-0.7,4.4-2,6.3-4.2l49.7-54.1l-2.1-0.9L285.9,177.3z"/>
				</g>
			</g>
			<g>
				<polygon class="st11" points="395.9,162.2 364.5,272.3 343.1,284.7 342.1,285.3 340,286.5 340,179.3 395.9,147 				"/>
				<path class="st12" d="M325.6,176.4l-0.1-0.6l0,107.5l0,0.2l0,0.2l0.1,0.2l0.1,0.2l0.1,0.2l0.1,0.2l0.1,0.2l0.1,0.2l0.1,0.2
					l0.2,0.2l0.2,0.2l0.2,0.2l0.2,0.2l0.2,0.2l0.2,0.2l0.2,0.2l0.3,0.2l0.3,0.1l0.3,0.1l0.3,0.1l0.3,0.1l0.3,0.1l0.3,0.1l0.3,0.1
					l0.3,0.1l0.3,0.1l0.3,0.1l0.4,0.1l0.4,0.1l0.4,0l0.4,0l0.4,0l0.4,0l0.4,0l0.4,0l0.4,0l0.4,0l0.4,0l0.4,0l0.4,0l0.4,0l0.4-0.1
					l0.3-0.1l0.3-0.1l0.3-0.1l0.3-0.1l0.3-0.1l0.3-0.1l0.3-0.1l0.3-0.1l0.3-0.1l0.3-0.1l0.3-0.1V179.3
					C332.8,182.6,326.3,179.7,325.6,176.4z"/>
				<path class="st0" d="M340,179.3l55.2-31.9l-10.7-6.2l-56.2,32.5c-1.8,1.3-2.4,2.7-2.1,4.1C327.9,180.8,334.2,182.7,340,179.3z"
					/>
				<path class="st13" d="M330.5,173.9l55.2-31.9v-0.9l-1.7-1l-56.2,32.5c-4.2,2.9-1.9,6.8,2.6,8.1
					C327.9,178.9,327.3,176.1,330.5,173.9z"/>
				<path class="st11" d="M392.4,147c0,0-53.3,30.8-53.3,30.8c-1.7,1-3.7,1.6-5.6,1.6c-3.2,0-5.7-1.5-6.1-3
					c-0.2-0.8,0.2-1.6,1.3-2.4l32-18.5c0,0,24.9-14.4,24.9-14.4l-1.7-1l-56.2,32.5c-5.1,3.5-0.6,8.6,5.8,8.6c2,0,4.3-0.5,6.4-1.8
					l55.9-32.3l-1.7-1L392.4,147z"/>
			</g>
		</g>
		<g>
			<g>
				<path class="st18" d="M318.9,163.9c-0.1,0-0.2,0.1-0.2,0.1l-0.2,0.1L318.9,163.9L318.9,163.9z"/>
			</g>
		</g>
		<polygon class="st19" points="395.9,162.2 395.9,254.6 346.7,282.4 		"/>
	</g>
</g>
<linearGradient id="SVGID_1_" gradientUnits="userSpaceOnUse" x1="322.2975" y1="181.5894" x2="207.3646" y2="249.8701">
	<stop  offset="0.5354" style="stop-color:#0000FF"/>
	<stop  offset="0.5802" style="stop-color:#0000FC"/>
	<stop  offset="0.6194" style="stop-color:#0000F1"/>
	<stop  offset="0.6566" style="stop-color:#0000DF"/>
	<stop  offset="0.6925" style="stop-color:#0000C5"/>
	<stop  offset="0.7275" style="stop-color:#0000A5"/>
	<stop  offset="0.7619" style="stop-color:#00007D"/>
	<stop  offset="0.7957" style="stop-color:#00004D"/>
	<stop  offset="0.8283" style="stop-color:#000017"/>
	<stop  offset="0.8411" style="stop-color:#000000"/>
</linearGradient>
<path class="st2" d="M349.3,212.1c-2.7-3.3-5.5-4.6-9.6-5.1c-1.5-0.2-3.2-0.2-5.1-0.2c-8.4,0.2-25.5,4.5-33.5,5.1
	c-0.7,0.1-1.4,0.1-2,0.1c-0.4,0-0.8,0-1.2-0.1c-5.1-1-14.5-7.6-15.5-10.9c0-0.1,0-0.1-0.1-0.2c0,0-11.4-19.4-11.2-19.1
	c0.1,0.1-0.3-0.3-0.5-0.4c0,0,0,0,0,0c-0.1-0.2-0.4-0.6-0.4-0.6c-0.1-0.2-0.2-0.3-0.2-0.5c0,0,0,0,0-0.1c-0.1-0.2-0.1-0.6-0.2-0.6
	c0-0.2,0-0.7,0-0.7c0-0.2,0.1-0.7,0.1-0.7c0.1-0.2,0.1-0.4,0.2-0.7c0,0,0.5-0.9,0.5-1c0.1-0.2,0.5-0.8,0.5-0.8l31.5-35.6
	c0.6-0.7,0-1.8-0.9-1.6h0c-6.9,1.7-16.7,9.8-23.5,16.4c-4.8,4.6-9.8,13.8-16.8,19.9c-5.8,5.2-8.1,13.4-8.9,17.5
	c-1.6,8-6.9,33.2-10.6,36c-3.2,2.4-23.1,6.3-23.8,9.7c-0.1,0.4-0.7,31.4,19,33.8c6.7,0.8,44.4-22.8,46.5-23.5
	c6.2-2.2,11.9-6.3,16.8-10.9c2.2-2,4.2-4.2,6-6.2c0.5-0.6,1.1-1.1,1.8-1.6c0.5-0.4,1-0.7,1.5-1c4.6-2.8,11.6-4.3,18.9-5.6
	c2.2-0.4,4.6-0.7,7-0.9c6.1-0.5,12.1-0.6,14.2-0.5c0.5,0,0.9-0.4,0.9-0.9C350.9,218.7,351.1,214.3,349.3,212.1z"/>
</svg>
