<?xml version="1.0" encoding="utf-8"?>
<!-- Generator: Adobe Illustrator 23.0.4, SVG Export Plug-In . SVG Version: 6.00 Build 0)  -->
<svg version="1.1" id="Camada_1" xmlns="http://www.w3.org/2000/svg" xmlns:xlink="http://www.w3.org/1999/xlink" x="0px" y="0px"
	 viewBox="0 0 464 412.9" style="enable-background:new 0 0 464 412.9;" xml:space="preserve">
<style type="text/css">
	.st0{fill:#FFFFFF;}
	.st1{fill:#0000FF;}
	.st2{fill:url(#SVGID_1_);}
	.st3{fill:#2E2B28;}
	.st4{fill:none;stroke:#FFFFFF;stroke-width:2;stroke-miterlimit:10;}
	.st5{fill:#221E22;}
	.st6{fill:#333333;}
	.st7{fill:#EE5622;}
	.st8{fill:#FBB03B;}
	.st9{fill:#9E005D;}
	.st10{fill:#EFEF0C;}
	.st11{fill:#44355B;}
	.st12{fill:#2C1F44;}
	.st13{fill:#CED5D8;}
	.st14{fill:#B53F1F;}
	.st15{fill:#83B8FC;}
	.st16{fill:#E2F1F7;}
	.st17{fill:#F49E87;}
	.st18{fill:#F1B653;}
	.st19{opacity:0.3;fill:#44355B;}
	.st20{fill:url(#SVGID_2_);}
	.st21{fill:url(#SVGID_3_);}
	.st22{fill:url(#SVGID_4_);}
	.st23{fill:url(#SVGID_5_);}
	.st24{fill:url(#SVGID_6_);}
	.st25{fill:url(#SVGID_7_);}
</style>
<g>
	<linearGradient id="SVGID_1_" gradientUnits="userSpaceOnUse" x1="282.3522" y1="197.485" x2="315.967" y2="197.485">
		<stop  offset="0.5354" style="stop-color:#0000FF"/>
		<stop  offset="0.5802" style="stop-color:#0000FC"/>
		<stop  offset="0.6194" style="stop-color:#0000F1"/>
		<stop  offset="0.6566" style="stop-color:#0000DF"/>
		<stop  offset="0.6925" style="stop-color:#0000C5"/>
		<stop  offset="0.7275" style="stop-color:#0000A5"/>
		<stop  offset="0.7619" style="stop-color:#00007D"/>
		<stop  offset="0.7957" style="stop-color:#00004D"/>
		<stop  offset="0.8283" style="stop-color:#000017"/>
		<stop  offset="0.8411" style="stop-color:#000000"/>
	</linearGradient>
	<path class="st2" d="M282.4,190.4c0,0,7.6,25.4,9.8,35.2c2.3,9.8,4,11.7,4,11.7s9.8-5.4,7.5-17.5c-2.3-12.1-4.1-33.4-4.1-33.4
		l16.4-28.8C316,157.7,282.4,171.3,282.4,190.4z"/>
	<linearGradient id="SVGID_2_" gradientUnits="userSpaceOnUse" x1="297.0303" y1="183.9064" x2="326.0957" y2="183.9064">
		<stop  offset="0.5354" style="stop-color:#0000FF"/>
		<stop  offset="0.5802" style="stop-color:#0000FC"/>
		<stop  offset="0.6194" style="stop-color:#0000F1"/>
		<stop  offset="0.6566" style="stop-color:#0000DF"/>
		<stop  offset="0.6925" style="stop-color:#0000C5"/>
		<stop  offset="0.7275" style="stop-color:#0000A5"/>
		<stop  offset="0.7619" style="stop-color:#00007D"/>
		<stop  offset="0.7957" style="stop-color:#00004D"/>
		<stop  offset="0.8283" style="stop-color:#000017"/>
		<stop  offset="0.8411" style="stop-color:#000000"/>
	</linearGradient>
	<path class="st20" d="M297.2,180.1c0,0,10.9,24.1,14.5,33.5c3.6,9.4,5.5,11.1,5.5,11.1s9-6.7,5.1-18.3c-3.9-11.7-8.6-32.5-8.6-32.5
		l12.4-30.7C326.1,143.2,294.6,161.2,297.2,180.1z"/>
	<linearGradient id="SVGID_3_" gradientUnits="userSpaceOnUse" x1="269.2744" y1="203.6441" x2="306.9054" y2="203.6441">
		<stop  offset="0.5354" style="stop-color:#0000FF"/>
		<stop  offset="0.5802" style="stop-color:#0000FC"/>
		<stop  offset="0.6194" style="stop-color:#0000F1"/>
		<stop  offset="0.6566" style="stop-color:#0000DF"/>
		<stop  offset="0.6925" style="stop-color:#0000C5"/>
		<stop  offset="0.7275" style="stop-color:#0000A5"/>
		<stop  offset="0.7619" style="stop-color:#00007D"/>
		<stop  offset="0.7957" style="stop-color:#00004D"/>
		<stop  offset="0.8283" style="stop-color:#000017"/>
		<stop  offset="0.8411" style="stop-color:#000000"/>
	</linearGradient>
	<path class="st21" d="M277.2,168.6c0,0-8.3,23-7.9,33.4c0.4,10.4,3.9,40.8,3.9,40.8s6.3,3.5,9.7-9.2c3.4-12.7,4.6-43.2,4.6-43.2
		l19.4-26.3L277.2,168.6z"/>
	<linearGradient id="SVGID_4_" gradientUnits="userSpaceOnUse" x1="237.7035" y1="205.6877" x2="464.4275" y2="139.1559">
		<stop  offset="0.4022" style="stop-color:#0000FF"/>
		<stop  offset="0.4779" style="stop-color:#0000FC"/>
		<stop  offset="0.5443" style="stop-color:#0000F1"/>
		<stop  offset="0.6072" style="stop-color:#0000DF"/>
		<stop  offset="0.6679" style="stop-color:#0000C5"/>
		<stop  offset="0.7272" style="stop-color:#0000A5"/>
		<stop  offset="0.7854" style="stop-color:#00007D"/>
		<stop  offset="0.8426" style="stop-color:#00004D"/>
		<stop  offset="0.8977" style="stop-color:#000017"/>
		<stop  offset="0.9194" style="stop-color:#000000"/>
	</linearGradient>
	<path class="st22" d="M461.8,93.9c-17.9-2.1-31.8-4.8-44.3-1.5c-18.8,4.9-50.5,15-75.3,22.8c-9.6,3-20.7,9.2-28,14.8
		c-13.2,10.2-26.6,18.5-49.3,36c-18.7,14.4-39.4,42.1-39.4,42.1s11.3,8.4,23.7-3.6c12.3-11.8,65.3-44,85.1-46.7
		c3.3-0.4,13.2,5.8,13.2,5.8s-12.2,29.1-17,40.9c-10,24.4-0.1,29.8,3.6,31.9c8.7,5,11-15,15.7-22.8c7.3-12.3,18.3-25.1,52.9-40.3
		c12.4-5.5,26.9-26.6,39-31.2c2.8-1,14.2-1.5,20.1-1.7V93.9z"/>
</g>
<g>
	<linearGradient id="SVGID_5_" gradientUnits="userSpaceOnUse" x1="168.8165" y1="268.5297" x2="1.9735" y2="349.0992">
		<stop  offset="0.4022" style="stop-color:#F15A24"/>
		<stop  offset="0.4798" style="stop-color:#EE5923"/>
		<stop  offset="0.5479" style="stop-color:#E35522"/>
		<stop  offset="0.6124" style="stop-color:#D14E1F"/>
		<stop  offset="0.6747" style="stop-color:#B7451B"/>
		<stop  offset="0.7355" style="stop-color:#973817"/>
		<stop  offset="0.7951" style="stop-color:#6F2911"/>
		<stop  offset="0.8538" style="stop-color:#3F1809"/>
		<stop  offset="0.9103" style="stop-color:#090301"/>
		<stop  offset="0.9194" style="stop-color:#000000"/>
	</linearGradient>
	<path class="st23" d="M199.2,239.6c-2.8-2-7.4-4.1-12.3-5.8c10.8-4.8,20.2-8.3,25.5-9.5c16.8-3.8,16.1-17.8,16.1-17.8
		s-34.5,2-56.9,9.6c-27.1,9.3-41.4,15.8-57.2,21.2c-8.7,3-20,8.8-27.8,15.1c-20.2,16.4-46.1,37.3-60.6,50.2
		c-9.6,8.6-15.1,21.7-23.2,37.7l38.9,25.8c3.4-4.9,10.1-14.1,12.5-15.9c10.5-7.5,36.1-7.9,47.6-15.3c31.7-20.4,48.5-22.5,62.8-21.8
		c9.1,0.4,27,9.5,27.7-0.5c0.3-4.2,1.3-15.5-24.6-20.6c-12.5-2.5-43.5-8.4-43.5-8.4s0.3-11.8,2.5-14.2c2.8-3.2,7.5-6.8,13.3-10.7
		l11.4,2.3c0,0,14.8,15.4,22.4,25.1c7.5,9.7,18.1,5.9,18.1,5.9s-0.3-2.6-6.2-10.7c-4-5.6-12-17.9-16.5-25.1l0.6,0
		c0,0,16.7,13.2,25.5,21.9c8.8,8.6,18.7,3.4,18.7,3.4s-0.7-2.5-7.6-9.8c-3.3-3.5-9-10-13.9-15.8c8.4,4.7,19,10.3,25.7,12.6
		c12.5,4.1,13-3,13-3S207.6,245.6,199.2,239.6z"/>
</g>
</svg>
