<?xml version="1.0" encoding="utf-8"?>
<!-- Generator: Adobe Illustrator 23.0.4, SVG Export Plug-In . SVG Version: 6.00 Build 0)  -->
<svg version="1.1" id="Camada_1" xmlns="http://www.w3.org/2000/svg" xmlns:xlink="http://www.w3.org/1999/xlink" x="0px" y="0px"
	 viewBox="0 0 565.2 389.2" style="enable-background:new 0 0 565.2 389.2;" xml:space="preserve">
<style type="text/css">
	.st0{fill:#EBEBEB;}
	.st1{fill:#F5F5F5;}
	.st2{fill:#E0E0E0;}
	.st3{fill:#FFFFFF;}
	.st4{display:none;}
	.st5{display:inline;}
	.st6{fill:#263238;}
	.st7{fill:#334A8C;}
	.st8{opacity:0.2;enable-background:new    ;}
	.st9{fill:#455A64;}
	.st10{fill:#4D4D4D;}
	.st11{fill:#B3B3B3;}
	.st12{fill:#CCCCCC;}
	.st13{fill:#7D96EE;}
	.st14{fill:#ED1C24;}
	.st15{opacity:0.2;}
	.st16{fill:#EB996E;}
	.st17{fill:#202020;}
	.st18{fill:none;stroke:#263238;stroke-width:0.5;stroke-miterlimit:10;}
</style>
<g id="Background_Complete">
	<g>
		<g>
			<path class="st0" d="M422.9,323.6c-0.3,0.9,10,40,10,40l7.1-1.5l-9.7-38.5H422.9z"/>
		</g>
		<g>
			<polygon class="st1" points="477.6,318 463.5,363.6 471.7,363.6 485.2,321.2 			"/>
		</g>
		<g>
			<polygon class="st0" points="490.5,310.9 474.3,363.6 482.6,363.6 498.2,314.1 			"/>
		</g>
		<g>
			<polygon class="st2" points="427.9,360.3 436.1,388.9 477.6,388.9 485.2,360.3 			"/>
		</g>
		<g>
			<g>
				<path class="st2" d="M449.3,360.3c0,0,0-0.1-0.1-0.3c-0.1-0.2-0.1-0.5-0.2-0.9c-0.2-0.8-0.5-1.9-0.8-3.4
					c-0.7-3-1.6-7.2-2.8-12.5c-2.4-10.6-5.6-25.2-9.3-41.5l0.3,0.2c-1.2,0-2.4,0-3.7,0c-1.2,0-2.5,0-3.6,0l0.3-0.3
					c3.7,16.3,7,31,9.4,41.6c1.2,5.3,2.1,9.5,2.8,12.5c0.3,1.4,0.5,2.6,0.7,3.4c0.1,0.4,0.1,0.7,0.2,0.9c0,0.2,0.1,0.3,0,0.3
					c0,0,0-0.1-0.1-0.3c-0.1-0.2-0.1-0.5-0.2-0.9c-0.2-0.8-0.5-1.9-0.8-3.4c-0.7-3-1.7-7.2-2.9-12.5c-2.4-10.6-5.8-25.2-9.5-41.5
					l-0.1-0.3h0.3c1.1,0,2.4,0,3.6,0c1.3,0,2.5,0,3.7,0h0.2v0.2c3.6,16.3,6.8,31,9.2,41.6c1.1,5.3,2.1,9.5,2.7,12.5
					c0.3,1.4,0.5,2.6,0.7,3.4c0.1,0.4,0.1,0.7,0.2,0.9C449.3,360.2,449.3,360.3,449.3,360.3z"/>
			</g>
		</g>
	</g>
	<g>
		<g>
			<g>
				<rect x="113.7" y="28" class="st1" width="70.2" height="48.9"/>
			</g>
			<g>
				<rect x="113.7" y="28" class="st2" width="70.2" height="6.1"/>
			</g>
			<g>
				<path class="st3" d="M117.5,31.2c0,0.4-0.3,0.8-0.7,0.8s-0.7-0.3-0.7-0.8c0-0.4,0.3-0.8,0.7-0.8S117.5,30.8,117.5,31.2z"/>
			</g>
			<g>
				<path class="st3" d="M120.5,31.2c0,0.4-0.3,0.8-0.7,0.8s-0.7-0.3-0.7-0.8c0-0.4,0.3-0.8,0.7-0.8
					C120.2,30.4,120.5,30.8,120.5,31.2z"/>
			</g>
			<g>
				<path class="st3" d="M123.5,31.2c0,0.4-0.3,0.8-0.7,0.8s-0.7-0.3-0.7-0.8c0-0.4,0.3-0.8,0.7-0.8
					C123.2,30.4,123.5,30.8,123.5,31.2z"/>
			</g>
		</g>
		<rect x="120.4" y="40.1" class="st2" width="10" height="24"/>
		<rect x="135.8" y="40.1" class="st0" width="10" height="24"/>
		<rect x="151.3" y="40.1" class="st3" width="10" height="24"/>
		<rect x="166.7" y="40.3" class="st0" width="10" height="24"/>
		<rect x="119.2" y="66.7" class="st0" width="60.7" height="5.5"/>
		<polygon class="st2" points="171.6,70.4 172.9,77 174,75.1 176.3,78.4 177.4,77.7 175.1,74.4 177.2,74.1 		"/>
	</g>
	<g>
		<g>
			<rect x="48.9" y="93.8" class="st1" width="122.9" height="85.6"/>
		</g>
		<g>
			<rect x="48.9" y="93.8" class="st2" width="122.9" height="10.7"/>
		</g>
		<g>
			<path class="st3" d="M55.6,99.4c0,0.7-0.6,1.3-1.3,1.3s-1.3-0.6-1.3-1.3s0.6-1.3,1.3-1.3S55.6,98.7,55.6,99.4z"/>
		</g>
		<g>
			<path class="st3" d="M60.8,99.4c0,0.7-0.6,1.3-1.3,1.3s-1.3-0.6-1.3-1.3s0.6-1.3,1.3-1.3S60.8,98.7,60.8,99.4z"/>
		</g>
		<g>
			<path class="st3" d="M66,99.4c0,0.7-0.6,1.3-1.3,1.3s-1.3-0.6-1.3-1.3s0.6-1.3,1.3-1.3S66,98.7,66,99.4z"/>
		</g>
	</g>
</g>
<g id="Background_Simple" class="st4">
	<g class="st5">
		<g>
			<path class="st1" d="M312.6,125.3c25.5-2,32-4.6,57.3-8.2c31.7-4.5,47.5-8.5,78.9-2.5s62.3,24.6,74.5,54.2
				c15.3,37.2-3.6,81.7-34.7,107.1c-31.1,25.5-71.8,35.7-111.4,42.9c-34.4,6.2-69.3,10.6-104.2,8.8c-34.9-1.8-69.9-10.1-100-27.9
				c-37.5-22.1-65.3-57.6-86.7-95.5c-15.5-27.5-28.4-57.4-29.7-88.9s10.6-64.9,36.3-83.2c32.4-23,78.8-16.5,112,5.3
				c29.9,19.7,40.8,32.9,58.2,59.9c6.8,10.5,16.4,19,27.9,23.9C297.5,124.1,304.9,125.9,312.6,125.3z"/>
		</g>
	</g>
</g>
<g id="Floor">
	<g>
		<g>
			<path class="st6" d="M565.2,388.1c0,0.1-126.5,0.3-282.6,0.3S0,388.3,0,388.1s126.5-0.3,282.6-0.3S565.2,387.9,565.2,388.1z"/>
		</g>
	</g>
</g>
<g id="Plant">
	<g>
		<g>
			<g>
				<g>
					<g>
						<path class="st7" d="M59,195c-6.6,0.6-10,8.4-9.8,15c0.1,6.6,2.4,13.2,1.3,19.6c-1.4,8.2-8.2,14.8-9.4,23.1
							c-1.5,9.7,4.9,18.9,6.3,28.6c0.7,4.7,0.2,9.7,1.7,14.3c2.5,7.7,10.8,13.1,18.8,12.2s14.9-8,15.6-16.1
							c0.6-7.5-3.6-14.9-2.5-22.4c0.8-5.5,4.4-10.6,4-16.1c-0.4-6.6-6.2-11.7-7.9-18.1s0.8-13.2,0.4-19.8
							C76.9,203.5,70.9,194.8,59,195"/>
						<path class="st8" d="M59,195c-6.6,0.6-10,8.4-9.8,15c0.1,6.6,2.4,13.2,1.3,19.6c-1.4,8.2-8.2,14.8-9.4,23.1
							c-1.5,9.7,4.9,18.9,6.3,28.6c0.7,4.7,0.2,9.7,1.7,14.3c2.5,7.7,10.8,13.1,18.8,12.2s14.9-8,15.6-16.1
							c0.6-7.5-3.6-14.9-2.5-22.4c0.8-5.5,4.4-10.6,4-16.1c-0.4-6.6-6.2-11.7-7.9-18.1s0.8-13.2,0.4-19.8
							C76.9,203.5,70.9,194.8,59,195"/>
					</g>
					<g>
						<g>
							<path class="st7" d="M22.2,250.1c-1.8,10.9,2.2,24,7.2,33.9c5,9.8,13.3,17.9,23.1,22.8c1.1,0.6,2.5,1,3.5,0.3
								c0.8-0.6,1-1.7,1.1-2.7c0.8-11.5-2.2-23.3-8.4-33C42.4,261.7,33,254.1,22.2,250.1"/>
						</g>
					</g>
					<g>
						<g>
							<g>
								<path class="st6" d="M64.8,330.5c0,0-0.1-0.2-0.3-0.6c-0.2-0.5-0.4-1.1-0.7-1.8c-0.6-1.6-1.4-3.9-2.5-6.8
									c-2.1-5.7-5.4-13.4-9.5-21.7c-4.2-8.3-8.4-15.5-11.7-20.6c-1.6-2.6-3-4.6-3.9-6c-0.4-0.7-0.8-1.2-1.1-1.6
									c-0.2-0.4-0.4-0.6-0.3-0.6c0,0,0.2,0.2,0.4,0.5c0.3,0.4,0.7,0.9,1.2,1.6c1,1.4,2.4,3.4,4.1,5.9c3.4,5.1,7.7,12.3,11.9,20.6
									c4.2,8.3,7.3,16.1,9.4,21.9c1,2.9,1.8,5.2,2.3,6.8c0.2,0.8,0.4,1.4,0.6,1.9C64.8,330.3,64.9,330.5,64.8,330.5z"/>
							</g>
						</g>
					</g>
					<g>
						<g>
							<g>
								<path class="st6" d="M64.5,225.8c0,0,0,0.4,0.1,1.1c0,0.7,0,1.8,0,3c0,2.7,0,6.5,0,11.1c0,9.4,0,22.4,0.1,36.7
									c0.1,14.3,0.2,27.3,0.4,36.7c0.1,4.7,0.1,8.4,0.1,11.1c0,1.3,0,2.3,0,3s0,1.1,0,1.1s-0.1-0.4-0.1-1.1s-0.1-1.8-0.1-3
									c-0.1-2.7-0.2-6.5-0.3-11.1c-0.2-9.4-0.5-22.4-0.6-36.7c-0.1-14.3,0-27.3,0.1-36.7c0.1-4.7,0.2-8.4,0.2-11.1
									c0-1.3,0.1-2.3,0.1-3C64.5,226.1,64.5,225.8,64.5,225.8z"/>
							</g>
						</g>
					</g>
				</g>
			</g>
			<g>
				<polygon class="st9" points="48.9,315.3 52.2,387.3 75.2,387.3 77.8,318.6 				"/>
			</g>
		</g>
		<g>
			<g>
				<path class="st6" d="M77.1,333.2c0,0-0.4,0.2-1,0.4c-0.7,0.2-1.7,0.4-3,0.6c-1.3,0.1-2.8,0.2-4.5,0.1s-3.5-0.5-5.4-1
					s-3.6-1-5.3-1.2c-1.6-0.2-3.1-0.2-4.4,0c-2.5,0.4-3.7,1.5-3.8,1.4c0,0,0.3-0.3,0.9-0.7c0.6-0.4,1.6-0.8,2.8-1.1
					c1.3-0.3,2.8-0.3,4.5-0.1c1.7,0.2,3.5,0.7,5.3,1.2c3.7,1.1,7.2,1.3,9.7,1C75.5,333.5,77,333.1,77.1,333.2z"/>
			</g>
		</g>
		<g>
			<g>
				<path class="st6" d="M76.5,341.1c0,0-0.3-0.3-0.8-0.7c-0.6-0.4-1.5-0.9-2.8-1.1s-2.8,0-4.4,0.5c-1.6,0.5-3.3,1.3-5.3,1.8
					c-3.9,1-7.7,0.1-10-1c-1.2-0.6-2.1-1.1-2.6-1.6c-0.6-0.5-0.8-0.7-0.8-0.8c0.1-0.1,1.3,1,3.6,2s6,1.8,9.7,0.8
					c1.9-0.5,3.6-1.3,5.3-1.8c1.6-0.5,3.3-0.7,4.6-0.4c1.3,0.2,2.3,0.8,2.8,1.3c0.3,0.2,0.5,0.5,0.6,0.6
					C76.4,341,76.5,341,76.5,341.1z"/>
			</g>
		</g>
		<g>
			<g>
				<path class="st6" d="M76.7,350.9c0,0-0.1,0.1-0.3,0.1c-0.2,0.1-0.4,0.1-0.8,0.2c-0.7,0.1-1.8,0-2.9-0.4
					c-1.2-0.4-2.5-1.2-3.9-1.9c-1.5-0.7-3.1-1.3-5-1.8c-3.7-0.9-7.1-0.8-9.6-0.4c-2.4,0.3-3.9,0.9-3.9,0.8c0,0,0.3-0.2,1-0.4
					c0.7-0.2,1.6-0.5,2.9-0.7c2.5-0.5,6-0.6,9.7,0.3c1.9,0.4,3.6,1.1,5.1,1.9s2.7,1.5,3.9,2c1.1,0.5,2.1,0.6,2.8,0.6
					C76.4,350.9,76.7,350.8,76.7,350.9z"/>
			</g>
		</g>
		<g>
			<g>
				<path class="st6" d="M50.8,357.5c0,0,0.4,0.1,1,0.1c0.7,0,1.6-0.1,2.7-0.7c1.1-0.5,2.2-1.5,3.5-2.4c0.7-0.5,1.4-1,2.2-1.3
					s1.8-0.6,2.7-0.6c1.9-0.1,3.7,0.2,5.3,0.5s3,0.6,4.2,0.8c1.2,0.2,2.2,0.1,2.9,0.1c0.7-0.1,1.1-0.1,1.1-0.1s-0.4,0.1-1,0.3
					c-0.7,0.1-1.7,0.2-2.9,0.1s-2.7-0.4-4.3-0.7c-1.6-0.3-3.4-0.6-5.2-0.5c-0.9,0.1-1.8,0.3-2.6,0.6c-0.8,0.3-1.5,0.8-2.2,1.2
					c-1.3,0.9-2.5,1.9-3.6,2.4s-2.2,0.6-2.9,0.5C51.3,357.8,51.1,357.7,50.8,357.5C50.9,357.5,50.8,357.5,50.8,357.5z"/>
			</g>
		</g>
		<g>
			<g>
				<path class="st6" d="M76.4,363.7c0,0.1-1.2-0.9-3.6-0.9c-2.3-0.1-5.4,1.2-9,1.3c-3.6,0.2-6.9-0.2-9.1-0.8
					c-1.1-0.3-2-0.6-2.7-0.8c-0.6-0.2-0.9-0.4-0.9-0.4c0-0.1,1.4,0.4,3.7,0.9s5.5,0.9,9,0.7c1.8-0.1,3.4-0.4,4.9-0.7
					c1.5-0.3,2.9-0.6,4.1-0.5c1.2,0,2.1,0.4,2.7,0.7C76.2,363.4,76.4,363.7,76.4,363.7z"/>
			</g>
		</g>
	</g>
</g>
<g id="Windows">
</g>
<g id="Character">
	<g>
		<path class="st10" d="M560.7,202.7c0,1.8-1.4,3.2-3.2,3.2H253.6c-1.8,0-3.2-1.4-3.2-3.2V12.5c0-1.8,1.4-3.2,3.2-3.2h303.9
			c1.8,0,3.2,1.4,3.2,3.2L560.7,202.7L560.7,202.7z"/>
		<path class="st3" d="M550.9,192.6c0,1.6-1.3,2.9-3,2.9H263.2c-1.7,0-3-1.3-3-2.9V21.4c0-1.6,1.3-2.9,3-2.9h284.7
			c1.7,0,3,1.3,3,2.9L550.9,192.6L550.9,192.6z"/>
		<g>
			<g>
				<path class="st11" d="M330.3,1.3c1.6,0,2.9,1.3,2.9,2.9h1c0-2.2-1.8-4-4-4s-4,1.8-4,4h1C327.4,2.6,328.7,1.3,330.3,1.3z"/>
				<path class="st11" d="M334.5,4.5H333V4.2c0-1.5-1.2-2.7-2.7-2.7s-2.7,1.2-2.7,2.7v0.3h-1.5V4.2c0-2.3,1.9-4.2,4.2-4.2
					c2.3,0,4.2,1.9,4.2,4.2V4.5z M333.5,4h0.5c-0.1-1.9-1.7-3.5-3.7-3.5S326.7,2,326.6,4h0.5c0.1-1.6,1.5-2.9,3.2-2.9
					C332,1,333.4,2.3,333.5,4z"/>
			</g>
			<g>
				<path class="st11" d="M330.3,8.2c-2.2,0-4-1.8-4-4v7.4h7.9V4.2C334.3,6.4,332.5,8.2,330.3,8.2z"/>
				<path class="st11" d="M334.5,11.9h-8.4V4.2h0.5c0,2,1.7,3.7,3.7,3.7s3.7-1.7,3.7-3.7h0.5L334.5,11.9L334.5,11.9z M326.6,11.4
					h7.4V6.2c-0.7,1.3-2.1,2.2-3.7,2.2s-3-0.9-3.7-2.2L326.6,11.4L326.6,11.4z"/>
			</g>
			<g>
				<path class="st11" d="M330.3,8.2c2.2,0,4-1.8,4-4h-1c0,1.6-1.3,2.9-2.9,2.9s-2.9-1.3-2.9-2.9h-1C326.4,6.4,328.1,8.2,330.3,8.2z
					"/>
				<path class="st11" d="M330.3,8.4c-2.3,0-4.2-1.9-4.2-4.2V3.9h1.5v0.3c0,1.5,1.2,2.7,2.7,2.7s2.7-1.2,2.7-2.7V3.9h1.5v0.3
					C334.5,6.5,332.6,8.4,330.3,8.4z M326.6,4.5c0.1,1.9,1.7,3.5,3.7,3.5s3.6-1.5,3.7-3.5h-0.5c-0.1,1.6-1.5,2.9-3.2,2.9
					s-3.1-1.3-3.2-2.9H326.6z"/>
			</g>
		</g>
		<g>
			<g>
				<path class="st11" d="M487.1,1.3c1.6,0,2.9,1.3,2.9,2.9h1c0-2.2-1.8-4-4-4s-4,1.8-4,4h1C484.2,2.6,485.5,1.3,487.1,1.3z"/>
				<path class="st11" d="M491.3,4.5h-1.5V4.2c0-1.5-1.2-2.7-2.7-2.7s-2.7,1.2-2.7,2.7v0.3h-1.5V4.2c0-2.3,1.9-4.2,4.2-4.2
					s4.2,1.9,4.2,4.2V4.5z M490.3,4h0.5c-0.1-1.9-1.7-3.5-3.7-3.5S483.5,2,483.4,4h0.5c0.1-1.6,1.5-2.9,3.2-2.9S490.2,2.3,490.3,4z"
					/>
			</g>
			<g>
				<path class="st11" d="M487.1,8.2c-2.2,0-4-1.8-4-4v7.4h7.9V4.2C491.1,6.4,489.3,8.2,487.1,8.2z"/>
				<path class="st11" d="M491.3,11.9h-8.4V4.2h0.5c0,2,1.7,3.7,3.7,3.7s3.7-1.7,3.7-3.7h0.5V11.9z M483.4,11.4h7.4V6.2
					c-0.7,1.3-2.1,2.2-3.7,2.2c-1.6,0-3-0.9-3.7-2.2V11.4z"/>
			</g>
			<g>
				<path class="st11" d="M487.1,8.2c2.2,0,4-1.8,4-4h-1c0,1.6-1.3,2.9-2.9,2.9s-2.9-1.3-2.9-2.9h-1C483.2,6.4,484.9,8.2,487.1,8.2z
					"/>
				<path class="st11" d="M487.1,8.4c-2.3,0-4.2-1.9-4.2-4.2V3.9h1.5v0.3c0,1.5,1.2,2.7,2.7,2.7s2.7-1.2,2.7-2.7V3.9h1.5v0.3
					C491.3,6.5,489.4,8.4,487.1,8.4z M483.4,4.5c0.1,1.9,1.7,3.5,3.7,3.5s3.6-1.5,3.7-3.5h-0.5c-0.1,1.6-1.5,2.9-3.2,2.9
					s-3.1-1.3-3.2-2.9H483.4z"/>
			</g>
		</g>
		<rect x="268.7" y="195.4" class="st7" width="275.8" height="10.5"/>
		<rect x="268.7" y="9.3" class="st7" width="275.8" height="9.3"/>
		<rect x="250.4" y="28.3" class="st7" width="9.8" height="155.6"/>
		<rect x="550.9" y="28.3" class="st7" width="9.8" height="155.6"/>
		<g>
			<path class="st10" d="M319.7,192.9c0-0.6-0.5-1.1-1.1-1.1h-45.1c-0.6,0-1.1,0.5-1.1,1.1v1.5c0,0.6,0.5,1.1,1.1,1.1h45.1
				c0.6,0,1.1-0.5,1.1-1.1V192.9z"/>
			<path class="st12" d="M323.5,191.7c0,0.6-0.5,1.1-1.1,1.1h-52.6c-0.6,0-1.1-0.5-1.1-1.1v-10.8c0-0.6,0.5-1.1,1.1-1.1h52.6
				c0.6,0,1.1,0.5,1.1,1.1V191.7z"/>
		</g>
		<g>
			<g>
				<g>
					<path class="st13" d="M343.4,194.4c-0.8,0-1.4-0.6-1.4-1.4v-6.9c0-0.8,0.6-1.4,1.4-1.4h59.7c0.8,0,1.4,0.6,1.4,1.4v6.9
						c0,0.8-0.6,1.4-1.4,1.4H343.4z"/>
					<polygon class="st14" points="343,189.6 343,184.8 334.7,188.3 334.7,189.6 334.7,190.8 343,194.3 					"/>
					<path class="st14" d="M334.8,188.8c0,0-2.5,0.1-2.5,0.8s2.5,0.7,2.5,0.7V188.8z"/>
				</g>
				<rect x="347.2" y="191.5" class="st3" width="51.7" height="1.6"/>
			</g>
			<path class="st3" d="M343.4,184.8h-11.7c-0.8,0-1.4,0.6-1.4,1.4v6.9c0,0.8,0.6,1.4,1.4,1.4h11.7"/>
		</g>
	</g>
	<path class="st6" d="M211.2,126.5c3.1-3.3,5.6-7.2,7.8-12.6c2.3-5.8,9.8-3.5,9.8-3.5s6.3-7.2,15.7-4.7c9.4,2.5,12.7,8.5,12.9,15.7
		c0.2,7.1,6.5,8.3,11.3,16.5c8.5,14.6-5.8,26.9-31.9,23.5v-0.2c-2.6,0.7-5.7,1-9.6,0.8C195.7,160.3,198.7,139.6,211.2,126.5z"/>
	<g>
		<g>
			<g>
				<g>
					<path class="st7" d="M209.2,253v-5c0,0-0.2-6.3,8.3-6.9s38.3-0.1,38.3-0.1s8.8-0.2,8.8,5.4c0,3.4,0,6.7,0,6.7L209.2,253z"/>
					<path class="st8" d="M209.2,253v-5c0,0-0.2-6.3,8.3-6.9s38.3-0.1,38.3-0.1s8.8-0.2,8.8,5.4c0,3.4,0,6.7,0,6.7L209.2,253z"/>
				</g>
				<g>
					<path class="st6" d="M209.2,253c0,0,25.9,1.6,27.2,6.7h4.8c0,0,3.2-5.3,23.5-6.5L209.2,253z"/>
				</g>
			</g>
			<g>
				<path class="st6" d="M218.1,387.8h40.5l-15.4-10.2l-0.2-58.9h7.5v-1.5H243l-0.1-16.6l-1.4-3.9l-0.2-43.4h-4.7
					c-0.2,0.9,0,43.3,0,43.3l-1.4,3.8v16.8h-12.3v1.6h12.3v58.9L218.1,387.8z"/>
			</g>
		</g>
		<g>
			<g>
				<path class="st13" d="M262.7,169.5c0,0,17.6,24.1,18.5,24.7c3,1.9,33.6,13.7,33.6,13.7l-1.7,10.6c0,0-39-11.1-41.3-12.7
					c-2.3-1.6-18.2-25.7-18.2-25.7L262.7,169.5z"/>
			</g>
			<g>
				<g>
					<g>
						<g>
							<path class="st7" d="M204.3,182.5l1.5-19.6c2.5-13.8,20.1-12.6,20.1-12.6l15.2-0.2c0,0,10.5,0.3,16.6,8.9
								c4.9,7,10.2,14.3,10.2,14.3l-11.3,11.4l-4-6.9c0,0,2.2,2.4,1.8,6.6c-0.5,5.3-4.3,6.3-4.3,6.3l1.7,35.5l-47.9-0.4l7.9-18.3
								l-1.6-25.6L204.3,182.5z"/>
						</g>
					</g>
				</g>
				<g>
					<g>
						<g>
							<g>
								<path class="st7" d="M222.9,182.7c0.4-0.1,0.9,0.5,1.1,1.3c0.2,0.7,0.2,1.5-0.2,1.7c-0.4,0.2-1-0.3-1.3-1.2
									C222.2,183.6,222.4,182.8,222.9,182.7z"/>
							</g>
						</g>
						<g>
							<g>
								<path class="st7" d="M224.3,163.7c0.4,0.1,0.7,1.4,0.5,3.1c-0.1,1.7-0.6,3-1,3s-0.7-1.4-0.5-3.1
									C223.4,165,223.9,163.7,224.3,163.7z"/>
							</g>
						</g>
						<g>
							<g>
								<path class="st7" d="M221.5,177.2c-0.4,0-0.7-0.5-0.5-1.1c0.3-0.5,0.9-0.6,1.2-0.3c0.3,0.3,0.4,0.7,0.3,1
									C222.3,177,222,177.2,221.5,177.2z"/>
							</g>
						</g>
						<g>
							<g>
								<path class="st7" d="M233.9,165.3c0.4,0.1,0.6,0.9,0.4,1.8c-0.2,0.9-0.7,1.6-1.1,1.5s-0.6-0.9-0.4-1.8
									C232.9,165.9,233.4,165.2,233.9,165.3z"/>
							</g>
						</g>
						<g>
							<g>
								<path class="st7" d="M247.2,166.8c0.1,0.4-0.6,0.9-1.6,0.8c-1-0.1-1.6-0.6-1.5-1.1c0.1-0.4,0.8-0.6,1.6-0.5
									C246.5,166.1,247.2,166.3,247.2,166.8z"/>
							</g>
						</g>
						<g>
							<g>
								<path class="st7" d="M249.6,164.7c-0.3,0.3-1.2,0.1-2.1-0.6c-0.9-0.7-1.4-1.5-1.2-1.9c0.3-0.3,1.2-0.1,2.1,0.6
									C249.3,163.6,249.8,164.4,249.6,164.7z"/>
							</g>
						</g>
						<g>
							<g>
								<path class="st7" d="M251.8,163.2c-0.4,0-0.8-1.1-0.4-2.3c0.3-1.3,1.2-2,1.5-1.8c0.4,0.2,0.2,1.2,0,2.2
									C252.6,162.3,252.3,163.2,251.8,163.2z"/>
							</g>
						</g>
						<g>
							<g>
								<path class="st7" d="M256.7,162.1c0.3,0.3,0,1.1-0.7,1.9c-0.7,0.8-1.5,1.1-1.8,0.9c-0.3-0.3,0-1.1,0.7-1.9
									C255.6,162.2,256.4,161.8,256.7,162.1z"/>
							</g>
						</g>
						<g>
							<g>
								<path class="st7" d="M254.4,168.4c-0.1,0.4-1,0.6-2.1,0.4c-1.1-0.2-1.9-0.7-1.8-1.1c0.1-0.4,1-0.6,2.1-0.4
									S254.5,168,254.4,168.4z"/>
							</g>
						</g>
						<g>
							<g>
								<path class="st7" d="M242,167.4c-0.1,0.4-0.9,0.6-1.9,0.4c-0.9-0.2-1.6-0.7-1.5-1.1c0.1-0.4,0.9-0.6,1.9-0.4
									S242.1,167,242,167.4z"/>
							</g>
						</g>
						<g>
							<g>
								<path class="st7" d="M243.8,163.4c-0.2,0.4-1,0.3-1.8-0.1c-0.8-0.5-1.2-1.1-1-1.5s1-0.3,1.8,0.1
									C243.6,162.4,244,163.1,243.8,163.4z"/>
							</g>
						</g>
						<g>
							<g>
								<path class="st7" d="M249.5,160.4c-0.4,0.2-1.1-0.4-1.3-1.4c-0.2-1,0.1-1.9,0.6-1.8c0.4,0,0.8,0.7,1,1.5
									C249.9,159.4,249.9,160.2,249.5,160.4z"/>
							</g>
						</g>
						<g>
							<g>
								<path class="st7" d="M256.2,158.3c0.4,0.2,0.5,0.8,0.2,1.3s-0.8,0.8-1.2,0.6c-0.4-0.2-0.5-0.8-0.2-1.3
									C255.3,158.4,255.9,158.1,256.2,158.3z"/>
							</g>
						</g>
						<g>
							<g>
								<path class="st7" d="M260.2,164.3c0.1,0.4-0.3,0.9-0.8,1c-0.6,0.2-1.1-0.1-1.2-0.5s0.3-0.9,0.8-1
									C259.5,163.6,260.1,163.9,260.2,164.3z"/>
							</g>
						</g>
						<g>
							<g>
								<path class="st7" d="M241.8,156.5c0.2-0.4,1.3-0.1,2.2,0.9c0.9,1,1.1,2.1,0.7,2.3s-1.1-0.4-1.8-1.2
									C242.1,157.6,241.6,156.8,241.8,156.5z"/>
							</g>
						</g>
						<g>
							<g>
								<path class="st7" d="M251.7,154.4c0.4,0,0.8,0.5,0.8,1.2s-0.3,1.2-0.8,1.2c-0.4,0-0.8-0.5-0.8-1.2
									C250.9,155,251.2,154.4,251.7,154.4z"/>
							</g>
						</g>
						<g>
							<g>
								<path class="st7" d="M235,162.6c0.1-0.4,1.1-0.4,2.2-0.1c1.1,0.4,1.8,1,1.7,1.4c-0.1,0.4-1.1,0.4-2.2,0.1
									C235.6,163.6,234.8,163,235,162.6z"/>
							</g>
						</g>
						<g>
							<g>
								<path class="st7" d="M239.4,159.1c-0.3,0.3-0.9,0.2-1.4-0.3s-0.6-1.1-0.3-1.4c0.3-0.3,0.9-0.2,1.4,0.3
									S239.7,158.8,239.4,159.1z"/>
							</g>
						</g>
						<g>
							<g>
								<path class="st7" d="M246.4,152.7c0.4,0,0.8,0.6,0.9,1.4c0.1,0.8-0.2,1.5-0.7,1.5c-0.4,0-0.8-0.6-0.9-1.4
									C245.7,153.4,246,152.8,246.4,152.7z"/>
							</g>
						</g>
						<g>
							<g>
								<path class="st7" d="M227.9,162.1c0.4,0.2,0.4,1.1,0.1,2c-0.4,1-1,1.6-1.4,1.5c-0.4-0.2-0.4-1.1-0.1-2
									C226.9,162.6,227.5,162,227.9,162.1z"/>
							</g>
						</g>
						<g>
							<g>
								<path class="st7" d="M230.7,161.8c0.4-0.1,0.9,0.6,1.1,1.6s0,1.8-0.4,1.9c-0.4,0.1-0.9-0.6-1.1-1.6
									C230.1,162.8,230.3,161.9,230.7,161.8z"/>
							</g>
						</g>
						<g>
							<g>
								<path class="st7" d="M236.8,160.4c0,0.4-0.8,0.7-1.8,0.7c-1-0.1-1.8-0.4-1.8-0.9c0-0.4,0.8-0.7,1.8-0.7
									C236,159.6,236.8,159.9,236.8,160.4z"/>
							</g>
						</g>
						<g>
							<g>
								<path class="st7" d="M225.4,159.9c0.1,0.4-0.5,0.9-1.3,1.1c-0.8,0.2-1.5,0-1.6-0.4s0.5-0.9,1.3-1.1
									C224.6,159.3,225.3,159.5,225.4,159.9z"/>
							</g>
						</g>
						<g>
							<g>
								<path class="st7" d="M230.7,158.3c0.2,0.4-0.3,0.9-0.9,1.2c-0.7,0.3-1.3,0.1-1.5-0.3c-0.2-0.4,0.3-0.9,0.9-1.2
									C229.9,157.8,230.6,157.9,230.7,158.3z"/>
							</g>
						</g>
						<g>
							<g>
								<path class="st7" d="M226,156.9c0,0.4-1.1,0.9-2.6,0.8c-1.5-0.1-2.6-0.8-2.5-1.2s1.3-0.5,2.6-0.4
									C224.8,156.2,225.9,156.5,226,156.9z"/>
							</g>
						</g>
						<g>
							<g>
								<path class="st7" d="M228.5,154.9c-0.2,0.4-1.4,0.2-2.7-0.3c-1.3-0.6-2.3-1.4-2.1-1.8c0.2-0.4,1.4-0.2,2.7,0.3
									C227.8,153.7,228.7,154.5,228.5,154.9z"/>
							</g>
						</g>
						<g>
							<g>
								<path class="st7" d="M242.9,152.9c0.2,0.4-0.3,1-0.9,1.4c-0.7,0.4-1.4,0.6-1.7,0.3c-0.3-0.3,0-1.1,0.8-1.6
									C241.9,152.5,242.8,152.5,242.9,152.9z"/>
							</g>
						</g>
						<g>
							<g>
								<path class="st7" d="M220.7,153.8c-0.2,0.4-0.8,0.5-1.4,0.3s-1-0.8-0.8-1.2s0.8-0.5,1.4-0.3
									C220.5,152.9,220.9,153.4,220.7,153.8z"/>
							</g>
						</g>
						<g>
							<g>
								<path class="st7" d="M242.3,197.5c0,0.4-1,0.8-2.3,0.9c-1.3,0-2.3-0.3-2.4-0.7c0-0.4,1-0.8,2.3-0.9
									C241.2,196.8,242.3,197.1,242.3,197.5z"/>
							</g>
						</g>
						<g>
							<g>
								<path class="st7" d="M244.6,194.8c-0.3,0.3-1.1,0-1.8-0.7c-0.7-0.7-1-1.5-0.7-1.8s1.1,0,1.8,0.7
									C244.6,193.7,244.9,194.5,244.6,194.8z"/>
							</g>
						</g>
						<g>
							<g>
								<path class="st7" d="M246.9,193.4c-0.4,0.1-0.9-0.8-0.9-1.9c0.1-1.2,0.7-1.9,1.1-1.8c0.4,0.1,0.5,1,0.4,1.9
									C247.5,192.5,247.3,193.3,246.9,193.4z"/>
							</g>
						</g>
						<g>
							<g>
								<path class="st7" d="M248.8,195.4c0.3,0.3,0.1,1-0.4,1.5s-1.1,0.8-1.5,0.6c-0.3-0.3-0.2-1,0.3-1.6
									C247.7,195.3,248.5,195.1,248.8,195.4z"/>
							</g>
						</g>
						<g>
							<g>
								<path class="st7" d="M247.8,202.1c-0.4,0-0.8-0.7-0.6-1.4c0.1-0.8,0.7-1.3,1.1-1.1c0.4,0.1,0.6,0.8,0.5,1.4
									C248.6,201.6,248.2,202.1,247.8,202.1z"/>
							</g>
						</g>
						<g>
							<g>
								<path class="st7" d="M244,199.6c0.3,0.3,0.4,0.7,0.3,0.9s-0.5,0.3-0.9,0.2s-0.7-0.5-0.5-1
									C243.2,199.3,243.7,199.3,244,199.6z"/>
							</g>
						</g>
						<g>
							<g>
								<path class="st7" d="M250.5,188.1c0.4,0.1,0.4,1.1-0.1,2.1s-1.4,1.5-1.7,1.2c-0.3-0.3-0.1-1.1,0.4-2
									C249.5,188.5,250.1,187.9,250.5,188.1z"/>
							</g>
						</g>
						<g>
							<g>
								<path class="st7" d="M247.3,187.6c0,0.4-0.8,0.8-1.9,0.9c-1.1,0.1-2-0.2-2-0.7c0-0.4,0.8-0.8,1.9-0.9
									C246.4,186.9,247.3,187.2,247.3,187.6z"/>
							</g>
						</g>
						<g>
							<g>
								<path class="st7" d="M240.3,194.6c-0.3,0.3-0.9,0.1-1.3-0.4s-0.4-1.1-0.1-1.4c0.3-0.3,0.9-0.1,1.3,0.4
									S240.7,194.3,240.3,194.6z"/>
							</g>
						</g>
						<g>
							<g>
								<path class="st7" d="M234,197.9c-0.3,0.3-1.3-0.2-1.9-1.3c-0.7-1.1-0.6-2.2-0.2-2.3s1,0.6,1.5,1.5
									C233.9,196.8,234.3,197.6,234,197.9z"/>
							</g>
						</g>
						<g>
							<g>
								<path class="st7" d="M230.7,197.9c-0.1,0.4-0.7,0.6-1.4,0.4c-0.7-0.2-1.1-0.7-1-1.1c0.1-0.4,0.7-0.6,1.4-0.4
									S230.8,197.4,230.7,197.9z"/>
							</g>
						</g>
						<g>
							<g>
								<path class="st7" d="M208.7,221.3c-0.4-0.1-0.6-1.1-0.5-2.3c0.2-1.2,0.7-2.1,1.1-2s0.6,1.1,0.5,2.3
									C209.7,220.4,209.2,221.3,208.7,221.3z"/>
							</g>
						</g>
						<g>
							<g>
								<path class="st7" d="M214.6,220.6c-0.4,0.2-1.2-0.7-1.8-2c-0.6-1.3-0.8-2.5-0.4-2.7s1.2,0.7,1.8,2
									C214.9,219.2,215,220.4,214.6,220.6z"/>
							</g>
						</g>
						<g>
							<g>
								<path class="st7" d="M219.8,217c-0.3,0.3-1.4-0.2-2.5-1c-1.2-0.8-2-1.7-1.8-2.1s1.4-0.1,2.7,0.8
									C219.4,215.6,220.1,216.6,219.8,217z"/>
							</g>
						</g>
						<g>
							<g>
								<path class="st7" d="M211.9,210.9c0.4,0.2,0.5,0.9,0.1,1.7c-0.3,0.8-0.9,1.3-1.3,1.2c-0.4-0.2-0.5-0.9-0.1-1.7
									C210.9,211.2,211.5,210.7,211.9,210.9z"/>
							</g>
						</g>
						<g>
							<g>
								<path class="st7" d="M220,221.5c-0.3,0.3-1.1-0.1-1.6-0.9c-0.6-0.7-0.7-1.5-0.4-1.8c0.3-0.3,1.1,0.1,1.6,0.9
									C220.2,220.5,220.4,221.3,220,221.5z"/>
							</g>
						</g>
						<g>
							<g>
								<path class="st7" d="M211.4,223.1c-0.4,0.1-0.9-0.4-0.9-1.1c-0.1-0.7,0.2-1.3,0.6-1.3c0.4-0.1,0.9,0.4,0.9,1.1
									C212.1,222.5,211.9,223.1,211.4,223.1z"/>
							</g>
						</g>
						<g>
							<g>
								<path class="st7" d="M228,215.3c-0.1,0.4-1.5,0.5-3.1,0.2s-2.8-0.9-2.8-1.4c0.1-0.4,1.4-0.5,3.1-0.2
									C226.9,214.2,228.1,214.8,228,215.3z"/>
							</g>
						</g>
						<g>
							<g>
								<path class="st7" d="M227,221.4c-0.3,0.3-1.4-0.1-2.5-1.1c-1.1-0.9-1.8-1.9-1.5-2.3c0.3-0.3,1.4,0.1,2.5,1.1
									C226.6,220.1,227.3,221.1,227,221.4z"/>
							</g>
						</g>
						<g>
							<g>
								<path class="st7" d="M232.6,219.7c-0.1,0.4-1.1,0.5-2.1,0.2s-1.8-0.9-1.6-1.3c0.1-0.4,1.1-0.5,2.1-0.2
									S232.8,219.3,232.6,219.7z"/>
							</g>
						</g>
						<g>
							<g>
								<path class="st7" d="M237.1,220.7c0,0.4-0.6,0.8-1.3,1.2c-0.7,0.3-1.4,0.5-1.7,0.2c-0.3-0.3,0.1-1.2,1.1-1.6
									C236.1,220,237.1,220.3,237.1,220.7z"/>
							</g>
						</g>
						<g>
							<g>
								<path class="st7" d="M235.7,217c-0.2,0.4-1,0.3-1.8-0.1c-0.8-0.5-1.3-1.1-1.1-1.5c0.2-0.4,1-0.3,1.8,0.1
									C235.4,215.9,235.9,216.6,235.7,217z"/>
							</g>
						</g>
						<g>
							<g>
								<path class="st7" d="M240.2,216.5c0.2,0.4,0,0.9-0.3,1.3s-0.7,0.8-1.1,0.8s-0.7-0.9-0.1-1.6
									C239.2,216.2,240.1,216.1,240.2,216.5z"/>
							</g>
						</g>
						<g>
							<g>
								<path class="st7" d="M244.9,220c0,0.4-0.8,0.8-1.8,0.8s-1.9-0.3-1.9-0.7c0-0.4,0.8-0.8,1.8-0.8
									C244,219.2,244.9,219.6,244.9,220z"/>
							</g>
						</g>
						<g>
							<g>
								<path class="st7" d="M245.6,217.5c-0.2,0.4-1,0.4-1.8,0.1c-0.8-0.4-1.4-1-1.2-1.4c0.2-0.4,1-0.4,1.8-0.1
									C245.2,216.5,245.7,217.1,245.6,217.5z"/>
							</g>
						</g>
						<g>
							<g>
								<path class="st7" d="M248.7,218.7c-0.4-0.1-0.7-0.7-0.4-1.4c0.3-0.7,0.9-1,1.2-0.8c0.4,0.2,0.4,0.8,0.2,1.3
									C249.6,218.4,249.2,218.8,248.7,218.7z"/>
							</g>
						</g>
						<g>
							<g>
								<path class="st7" d="M223.5,177.9c0.4-0.2,1.2,0.3,1.8,1.3c0.6,0.9,0.8,1.9,0.5,2.1c-0.4,0.2-1.2-0.3-1.8-1.3
									C223.3,179.1,223.1,178.2,223.5,177.9z"/>
							</g>
						</g>
						<g>
							<g>
								<path class="st7" d="M230,176.5c0.4,0.2,0.1,1.4-0.7,2.5c-0.7,1.2-1.6,1.9-2,1.7s-0.1-1.4,0.7-2.5
									C228.8,177,229.7,176.3,230,176.5z"/>
							</g>
						</g>
						<g>
							<g>
								<path class="st7" d="M233.7,180.9c0.2,0.4-0.6,1.1-1.6,1.4c-1.1,0.4-2,0.4-2.2,0s0.6-1.1,1.6-1.4
									C232.5,180.5,233.5,180.5,233.7,180.9z"/>
							</g>
						</g>
						<g>
							<g>
								<path class="st7" d="M232.7,187.9c-0.3,0.3-1.2,0.1-2-0.7s-1.2-1.7-0.8-2c0.3-0.3,1.1,0.1,1.9,0.8
									C232.5,186.8,232.9,187.6,232.7,187.9z"/>
							</g>
						</g>
						<g>
							<g>
								<path class="st7" d="M226.9,190.7c-0.4,0.1-1-1-0.9-2.4c0.1-1.5,0.8-2.5,1.2-2.3c0.4,0.1,0.4,1.2,0.3,2.4
									C227.5,189.6,227.3,190.6,226.9,190.7z"/>
							</g>
						</g>
						<g>
							<g>
								<path class="st7" d="M228.7,184c-0.1,0.4-0.8,0.6-1.5,0.4c-0.7-0.2-1.2-0.7-1.1-1.1c0.1-0.4,0.8-0.6,1.5-0.4
									C228.3,183,228.8,183.5,228.7,184z"/>
							</g>
						</g>
						<g>
							<g>
								<path class="st7" d="M234.7,175.9c0.3,0.2,0,1.3-1,2.2s-2.1,1.1-2.3,0.8c-0.2-0.4,0.4-1.2,1.3-1.9
									C233.5,176.2,234.4,175.7,234.7,175.9z"/>
							</g>
						</g>
						<g>
							<g>
								<path class="st7" d="M226,173.3c0.4-0.1,0.9,0.7,1,1.7s-0.4,1.8-0.8,1.8c-0.4-0.1-0.7-0.8-0.7-1.7
									C225.4,174.2,225.6,173.4,226,173.3z"/>
							</g>
						</g>
						<g>
							<g>
								<path class="st7" d="M231.7,170.5c0.4,0.1,0.5,1.1,0.1,2.2c-0.4,1.1-1.2,1.7-1.6,1.5s-0.3-1.1,0.1-2.1
									C230.8,171.2,231.3,170.4,231.7,170.5z"/>
							</g>
						</g>
						<g>
							<g>
								<path class="st7" d="M239,180.1c0,0.4-0.6,0.8-1.4,0.9c-0.8,0.1-1.5-0.2-1.5-0.6c0-0.4,0.6-0.8,1.4-0.9
									C238.2,179.4,238.9,179.7,239,180.1z"/>
							</g>
						</g>
						<g>
							<g>
								<path class="st7" d="M236.7,185.7c-0.2,0.4-1,0.5-2,0.2c-0.9-0.3-1.6-0.9-1.5-1.3c0.1-0.4,1-0.5,2-0.2
									S236.9,185.3,236.7,185.7z"/>
							</g>
						</g>
						<g>
							<g>
								<path class="st7" d="M230.7,192c-0.4,0.2-1.1-0.3-1.4-1.3s0-1.8,0.4-1.8s0.8,0.6,1.1,1.4C231.1,191.1,231.1,191.8,230.7,192
									z"/>
							</g>
						</g>
						<g>
							<g>
								<path class="st7" d="M226.7,195.8c-0.4,0-0.8-0.6-0.9-1.3c0-0.7,0.3-1.4,0.7-1.4c0.4,0,0.8,0.6,0.9,1.3
									C227.5,195.1,227.2,195.8,226.7,195.8z"/>
							</g>
						</g>
						<g>
							<g>
								<path class="st7" d="M236.6,193.9c-0.4,0.2-1.1-0.5-1.7-1.4s-0.9-1.8-0.6-2.1s1.2,0.2,1.9,1.2
									C236.9,192.6,237,193.7,236.6,193.9z"/>
							</g>
						</g>
						<g>
							<g>
								<path class="st7" d="M241.2,190.2c-0.2,0.4-1.2,0.2-2.3-0.2c-1.1-0.4-1.9-1-1.8-1.4s1.2-0.5,2.4,0
									C240.7,189,241.4,189.8,241.2,190.2z"/>
							</g>
						</g>
						<g>
							<g>
								<path class="st7" d="M241.5,185.6c-0.3,0.3-0.9,0.1-1.4-0.1c-0.5-0.3-0.9-0.6-0.9-1.1c0-0.4,0.8-0.7,1.6-0.3
									C241.7,184.6,241.8,185.4,241.5,185.6z"/>
							</g>
						</g>
						<g>
							<g>
								<path class="st7" d="M228.6,166.8c0.4,0.1,0.6,1.1,0.5,2.2c-0.1,1.2-0.5,2.1-0.9,2.1s-0.8-1-0.6-2.2
									C227.6,167.6,228.1,166.7,228.6,166.8z"/>
							</g>
						</g>
						<g>
							<g>
								<path class="st7" d="M237.5,170.2c0.3,0.3,0,1.2-0.8,2c-0.7,0.8-1.6,1.3-1.9,1s0-1.2,0.8-2
									C236.3,170.3,237.2,169.9,237.5,170.2z"/>
							</g>
						</g>
						<g>
							<g>
								<path class="st7" d="M238.9,172.3c0.3-0.3,0.8-0.2,1,0.1s0.1,0.8-0.2,1c-0.3,0.3-0.8,0.2-1-0.1
									C238.4,173,238.5,172.6,238.9,172.3z"/>
							</g>
						</g>
						<g>
							<g>
								<path class="st7" d="M214.9,169.3c-0.1,0.4-1.2,0.4-2.4-0.1c-1.2-0.5-1.9-1.4-1.7-1.7c0.2-0.4,1.2-0.2,2.3,0.3
									C214.2,168.2,215,168.9,214.9,169.3z"/>
							</g>
						</g>
						<g>
							<g>
								<path class="st7" d="M210,177.8c-0.4,0.2-1-0.4-1.2-1.4c-0.2-0.9,0-1.8,0.4-1.8c0.4-0.1,0.9,0.6,1.1,1.4
									C210.5,176.8,210.4,177.6,210,177.8z"/>
							</g>
						</g>
						<g>
							<g>
								<path class="st7" d="M216.2,174.1c-0.3,0.3-1.1-0.1-1.8-0.8c-0.6-0.7-0.9-1.6-0.6-1.8c0.3-0.3,1.1,0.1,1.8,0.8
									C216.2,172.9,216.5,173.8,216.2,174.1z"/>
							</g>
						</g>
						<g>
							<g>
								<path class="st7" d="M213.3,161.2c0.3,0.3-0.3,1.4-1.2,2.4c-1,1-2.1,1.6-2.4,1.3s0.3-1.4,1.2-2.4
									C211.9,161.4,213,160.9,213.3,161.2z"/>
							</g>
						</g>
						<g>
							<g>
								<path class="st7" d="M208.7,159.3c0.4,0.1,0.5,1.1,0.1,2c-0.3,1-1,1.7-1.4,1.5c-0.4-0.1-0.5-1.1-0.1-2
									C207.6,159.8,208.3,159.2,208.7,159.3z"/>
							</g>
						</g>
						<g>
							<g>
								<path class="st7" d="M208.8,166.8c0.2,0.4-0.1,1-0.7,1.6s-1.2,1-1.6,0.7c-0.4-0.2-0.2-1.1,0.5-1.8
									C207.7,166.6,208.6,166.4,208.8,166.8z"/>
							</g>
						</g>
						<g>
							<g>
								<path class="st7" d="M207.1,165.7c-0.4,0.2-0.9-0.2-0.9-0.8s0.5-1,0.9-0.9s0.7,0.5,0.7,0.8
									C207.7,165.2,207.5,165.6,207.1,165.7z"/>
							</g>
						</g>
						<g>
							<g>
								<path class="st7" d="M215.7,164.7c0.1,0.4-0.7,0.9-1.6,1c-1,0.1-1.8-0.1-1.8-0.5c-0.1-0.4,0.7-0.9,1.6-1
									S215.7,164.3,215.7,164.7z"/>
							</g>
						</g>
						<g>
							<g>
								<path class="st7" d="M212.5,157.4c0.4,0.3,0.2,1.1-0.4,2c-0.6,0.8-1.4,1.3-1.7,1.1c-0.4-0.3-0.2-1.1,0.4-2
									C211.4,157.6,212.1,157.1,212.5,157.4z"/>
							</g>
						</g>
						<g>
							<g>
								<path class="st7" d="M215.3,179.4c-0.3,0.3-1.3-0.2-1.8-1.3c-0.6-1.1-0.4-2.1,0-2.2c0.4-0.1,0.9,0.6,1.4,1.5
									C215.3,178.2,215.6,179.1,215.3,179.4z"/>
							</g>
						</g>
						<g>
							<g>
								<path class="st7" d="M206.4,180.9c-0.4,0-0.8-0.6-0.8-1.5c0.1-0.9,0.6-1.5,1-1.3c0.4,0.1,0.6,0.8,0.6,1.5
									C207.1,180.3,206.9,180.9,206.4,180.9z"/>
							</g>
						</g>
						<g>
							<g>
								<path class="st7" d="M212.2,180.8c-0.1,0.4-0.9,0.5-1.8,0.3c-0.9-0.3-1.4-0.8-1.3-1.2s0.9-0.5,1.8-0.3
									C211.8,179.9,212.4,180.4,212.2,180.8z"/>
							</g>
						</g>
						<g>
							<g>
								<path class="st7" d="M219.6,178.8c-0.3,0.3-1.1-0.1-1.8-0.8c-0.7-0.8-1-1.6-0.6-1.9c0.3-0.3,1.1,0.1,1.8,0.8
									C219.7,177.6,219.9,178.5,219.6,178.8z"/>
							</g>
						</g>
						<g>
							<g>
								<path class="st7" d="M221.3,167c0,0.4-0.9,0.8-2.1,0.9c-1.2,0.1-2.2-0.2-2.2-0.7c0-0.4,0.9-0.8,2.1-0.9
									C220.3,166.2,221.3,166.5,221.3,167z"/>
							</g>
						</g>
						<g>
							<g>
								<path class="st7" d="M219,159.4c0.2,0.4-0.4,1.1-1.4,1.7c-1,0.5-1.9,0.7-2.1,0.3s0.4-1.1,1.4-1.7
									C217.9,159.2,218.8,159,219,159.4z"/>
							</g>
						</g>
						<g>
							<g>
								<path class="st7" d="M210.4,155.4c0.4,0.2,0.5,0.8,0.2,1.3s-0.8,0.8-1.2,0.6c-0.4-0.2-0.5-0.8-0.2-1.3
									C209.5,155.5,210,155.2,210.4,155.4z"/>
							</g>
						</g>
						<g>
							<g>
								<path class="st7" d="M217.4,155.3c0.3,0.3,0,1.1-0.7,1.9c-0.7,0.7-1.5,1.1-1.8,0.8s0-1.1,0.7-1.9
									C216.3,155.3,217.1,155,217.4,155.3z"/>
							</g>
						</g>
						<g>
							<g>
								<path class="st7" d="M221.8,163.1c0.1,0.4-0.6,0.9-1.6,1.1c-0.9,0.2-1.8,0-1.9-0.4s0.6-0.9,1.6-1.1
									C220.9,162.4,221.8,162.6,221.8,163.1z"/>
							</g>
						</g>
						<g>
							<g>
								<path class="st7" d="M222.4,173.4c-0.2,0.4-1.2,0.1-2.1-0.4s-1.6-1.2-1.4-1.6c0.2-0.4,1.2-0.3,2.2,0.2
									C222.1,172.2,222.7,173,222.4,173.4z"/>
							</g>
						</g>
						<g>
							<g>
								<path class="st7" d="M248.2,180.7c-0.1,0.4-1.2,0.4-2.4,0.1c-1.2-0.4-2.1-1-2-1.4s1.2-0.4,2.4-0.1
									C247.4,179.7,248.3,180.3,248.2,180.7z"/>
							</g>
						</g>
						<g>
							<g>
								<path class="st7" d="M248.6,184.9c-0.3,0.3-1.1,0.1-1.7-0.5c-0.7-0.6-1-1.3-0.7-1.6s1-0.1,1.7,0.5
									C248.5,183.8,248.8,184.5,248.6,184.9z"/>
							</g>
						</g>
						<g>
							<g>
								<path class="st7" d="M249.2,175.4c0.1,0.4-0.8,1.2-2.1,1.7c-1.3,0.5-2.5,0.6-2.6,0.2c-0.2-0.4,0.7-1.1,2.1-1.7
									C247.9,175.1,249.1,175,249.2,175.4z"/>
							</g>
						</g>
						<g>
							<g>
								<path class="st7" d="M250.9,178.2c0,0.4-0.6,0.8-1.4,0.8s-1.4-0.3-1.4-0.7s0.6-0.8,1.4-0.8
									C250.3,177.4,250.9,177.7,250.9,178.2z"/>
							</g>
						</g>
						<g>
							<g>
								<path class="st7" d="M252.9,183.7c-0.4,0.2-1-0.3-1.6-0.8s-1.2-0.9-1.2-1.4c0-0.2,0.3-0.4,0.7-0.4c0.4,0,0.9,0.1,1.4,0.5
									s0.8,0.8,0.9,1.2C253.2,183.3,253.1,183.6,252.9,183.7z"/>
							</g>
						</g>
						<g>
							<g>
								<path class="st7" d="M253,187.8c-0.3,0.3-1.1-0.2-1.8-1c-0.6-0.8-0.9-1.7-0.5-1.9c0.3-0.3,1.1,0.2,1.8,1
									C253.1,186.6,253.3,187.5,253,187.8z"/>
							</g>
						</g>
						<g>
							<g>
								<path class="st7" d="M237.2,175.9c0.2-0.4,1.4-0.1,2.7,0.6c1.3,0.7,2.1,1.6,1.9,2s-1.4,0.1-2.7-0.6
									C237.8,177.2,237,176.3,237.2,175.9z"/>
							</g>
						</g>
						<g>
							<g>
								<path class="st7" d="M242.2,169.7c0.4,0,0.8,1.2,0.9,2.7s-0.2,2.8-0.6,2.8s-0.8-1.2-0.9-2.7
									C241.5,170.9,241.8,169.7,242.2,169.7z"/>
							</g>
						</g>
						<g>
							<g>
								<path class="st7" d="M248.7,170.8c0.3,0.3-0.3,1.2-1.2,2c-0.9,0.7-1.9,1.1-2.2,0.7c-0.3-0.3,0.3-1.2,1.2-2
									C247.4,170.8,248.4,170.4,248.7,170.8z"/>
							</g>
						</g>
						<g>
							<g>
								<path class="st7" d="M255,172.1c0.1,0.4-0.8,1-2,1.3s-2.3,0.2-2.4-0.2s0.8-1,2-1.3S254.9,171.7,255,172.1z"/>
							</g>
						</g>
						<g>
							<g>
								<path class="st7" d="M256.7,177.2c-0.1,0.4-1.1,0.5-2.1,0.2s-1.8-0.9-1.7-1.3c0.1-0.4,1.1-0.5,2.1-0.2
									C256.1,176.2,256.8,176.8,256.7,177.2z"/>
							</g>
						</g>
						<g>
							<g>
								<path class="st7" d="M260.8,173.2c0.1,0.4-0.6,0.9-1.5,1s-1.7-0.1-1.7-0.5c-0.1-0.4,0.6-0.9,1.5-1
									C260,172.5,260.7,172.8,260.8,173.2z"/>
							</g>
						</g>
						<g>
							<g>
								<path class="st7" d="M258.4,179c0.2,0.4-0.3,1-1.2,1.2c-0.8,0.2-1.6-0.1-1.6-0.6c0-0.4,0.5-0.8,1.2-1
									C257.6,178.5,258.3,178.6,258.4,179z"/>
							</g>
						</g>
						<g>
							<g>
								<path class="st7" d="M260.5,178.3c-0.4,0.1-0.9-0.4-1-1.2c0-0.8,0.5-1.3,0.9-1.2s0.7,0.6,0.7,1.2
									C261.2,177.6,261,178.1,260.5,178.3z"/>
							</g>
						</g>
						<g>
							<g>
								<path class="st7" d="M257.8,167.1c0.4,0.1,0.6,1,0.4,2.1s-0.7,1.9-1.1,1.8c-0.4-0.1-0.6-1-0.4-2.1
									C256.8,167.8,257.3,167,257.8,167.1z"/>
							</g>
						</g>
						<g>
							<g>
								<path class="st7" d="M261.5,170.2c-0.4,0-0.7-0.7-0.6-1.4c0.1-0.8,0.5-1.3,0.9-1.3s0.7,0.7,0.6,1.4
									C262.4,169.7,262,170.3,261.5,170.2z"/>
							</g>
						</g>
						<g>
							<g>
								<path class="st7" d="M264.2,174.3c-0.4,0.1-0.9-0.6-1-1.5s0.2-1.6,0.6-1.7c0.4-0.1,0.9,0.6,1,1.5
									C264.9,173.6,264.6,174.3,264.2,174.3z"/>
							</g>
						</g>
						<g>
							<g>
								<path class="st7" d="M206.8,176.6c-0.4,0-0.8-1.4-0.8-3.1c0.1-1.7,0.5-3,1-3c0.4,0,0.7,1.4,0.6,3
									C207.5,175.2,207.2,176.5,206.8,176.6z"/>
							</g>
						</g>
						<g>
							<g>
								<path class="st7" d="M211.7,174.1c-0.4,0.2-1.3-0.6-2.1-1.8c-0.8-1.2-1.1-2.4-0.8-2.6c0.4-0.2,1.3,0.6,2.1,1.8
									C211.7,172.7,212.1,173.8,211.7,174.1z"/>
							</g>
						</g>
						<g>
							<g>
								<path class="st7" d="M244.5,185.7c-0.4,0.2-1.3-0.7-2.1-2.1c-0.8-1.4-1.1-2.7-0.7-2.9s1.3,0.7,2.1,2.1
									C244.6,184.2,244.9,185.4,244.5,185.7z"/>
							</g>
						</g>
					</g>
					<g class="st15">
						<g>
							<g>
								<path class="st3" d="M222.9,182.7c0.4-0.1,0.9,0.5,1.1,1.3c0.2,0.7,0.2,1.5-0.2,1.7c-0.4,0.2-1-0.3-1.3-1.2
									C222.2,183.6,222.4,182.8,222.9,182.7z"/>
							</g>
						</g>
						<g>
							<g>
								<path class="st3" d="M224.3,163.7c0.4,0.1,0.7,1.4,0.5,3.1c-0.1,1.7-0.6,3-1,3s-0.7-1.4-0.5-3.1
									C223.4,165,223.9,163.7,224.3,163.7z"/>
							</g>
						</g>
						<g>
							<g>
								<path class="st3" d="M221.5,177.2c-0.4,0-0.7-0.5-0.5-1.1c0.3-0.5,0.9-0.6,1.2-0.3c0.3,0.3,0.4,0.7,0.3,1
									C222.3,177,222,177.2,221.5,177.2z"/>
							</g>
						</g>
						<g>
							<g>
								<path class="st3" d="M233.9,165.3c0.4,0.1,0.6,0.9,0.4,1.8c-0.2,0.9-0.7,1.6-1.1,1.5s-0.6-0.9-0.4-1.8
									C232.9,165.9,233.4,165.2,233.9,165.3z"/>
							</g>
						</g>
						<g>
							<g>
								<path class="st3" d="M247.2,166.8c0.1,0.4-0.6,0.9-1.6,0.8c-1-0.1-1.6-0.6-1.5-1.1c0.1-0.4,0.8-0.6,1.6-0.5
									C246.5,166.1,247.2,166.3,247.2,166.8z"/>
							</g>
						</g>
						<g>
							<g>
								<path class="st3" d="M249.6,164.7c-0.3,0.3-1.2,0.1-2.1-0.6c-0.9-0.7-1.4-1.5-1.2-1.9c0.3-0.3,1.2-0.1,2.1,0.6
									C249.3,163.6,249.8,164.4,249.6,164.7z"/>
							</g>
						</g>
						<g>
							<g>
								<path class="st3" d="M251.8,163.2c-0.4,0-0.8-1.1-0.4-2.3c0.3-1.3,1.2-2,1.5-1.8c0.4,0.2,0.2,1.2,0,2.2
									C252.6,162.3,252.3,163.2,251.8,163.2z"/>
							</g>
						</g>
						<g>
							<g>
								<path class="st3" d="M256.7,162.1c0.3,0.3,0,1.1-0.7,1.9c-0.7,0.8-1.5,1.1-1.8,0.9c-0.3-0.3,0-1.1,0.7-1.9
									C255.6,162.2,256.4,161.8,256.7,162.1z"/>
							</g>
						</g>
						<g>
							<g>
								<path class="st3" d="M254.4,168.4c-0.1,0.4-1,0.6-2.1,0.4c-1.1-0.2-1.9-0.7-1.8-1.1c0.1-0.4,1-0.6,2.1-0.4
									S254.5,168,254.4,168.4z"/>
							</g>
						</g>
						<g>
							<g>
								<path class="st3" d="M242,167.4c-0.1,0.4-0.9,0.6-1.9,0.4c-0.9-0.2-1.6-0.7-1.5-1.1c0.1-0.4,0.9-0.6,1.9-0.4
									S242.1,167,242,167.4z"/>
							</g>
						</g>
						<g>
							<g>
								<path class="st3" d="M243.8,163.4c-0.2,0.4-1,0.3-1.8-0.1c-0.8-0.5-1.2-1.1-1-1.5s1-0.3,1.8,0.1
									C243.6,162.4,244,163.1,243.8,163.4z"/>
							</g>
						</g>
						<g>
							<g>
								<path class="st3" d="M249.5,160.4c-0.4,0.2-1.1-0.4-1.3-1.4c-0.2-1,0.1-1.9,0.6-1.8c0.4,0,0.8,0.7,1,1.5
									C249.9,159.4,249.9,160.2,249.5,160.4z"/>
							</g>
						</g>
						<g>
							<g>
								<path class="st3" d="M256.2,158.3c0.4,0.2,0.5,0.8,0.2,1.3s-0.8,0.8-1.2,0.6c-0.4-0.2-0.5-0.8-0.2-1.3
									C255.3,158.4,255.9,158.1,256.2,158.3z"/>
							</g>
						</g>
						<g>
							<g>
								<path class="st3" d="M260.2,164.3c0.1,0.4-0.3,0.9-0.8,1c-0.6,0.2-1.1-0.1-1.2-0.5s0.3-0.9,0.8-1
									C259.5,163.6,260.1,163.9,260.2,164.3z"/>
							</g>
						</g>
						<g>
							<g>
								<path class="st3" d="M241.8,156.5c0.2-0.4,1.3-0.1,2.2,0.9c0.9,1,1.1,2.1,0.7,2.3s-1.1-0.4-1.8-1.2
									C242.1,157.6,241.6,156.8,241.8,156.5z"/>
							</g>
						</g>
						<g>
							<g>
								<path class="st3" d="M251.7,154.4c0.4,0,0.8,0.5,0.8,1.2s-0.3,1.2-0.8,1.2c-0.4,0-0.8-0.5-0.8-1.2
									C250.9,155,251.2,154.4,251.7,154.4z"/>
							</g>
						</g>
						<g>
							<g>
								<path class="st3" d="M235,162.6c0.1-0.4,1.1-0.4,2.2-0.1c1.1,0.4,1.8,1,1.7,1.4c-0.1,0.4-1.1,0.4-2.2,0.1
									C235.6,163.6,234.8,163,235,162.6z"/>
							</g>
						</g>
						<g>
							<g>
								<path class="st3" d="M239.4,159.1c-0.3,0.3-0.9,0.2-1.4-0.3s-0.6-1.1-0.3-1.4c0.3-0.3,0.9-0.2,1.4,0.3
									S239.7,158.8,239.4,159.1z"/>
							</g>
						</g>
						<g>
							<g>
								<path class="st3" d="M246.4,152.7c0.4,0,0.8,0.6,0.9,1.4c0.1,0.8-0.2,1.5-0.7,1.5c-0.4,0-0.8-0.6-0.9-1.4
									C245.7,153.4,246,152.8,246.4,152.7z"/>
							</g>
						</g>
						<g>
							<g>
								<path class="st3" d="M227.9,162.1c0.4,0.2,0.4,1.1,0.1,2c-0.4,1-1,1.6-1.4,1.5c-0.4-0.2-0.4-1.1-0.1-2
									C226.9,162.6,227.5,162,227.9,162.1z"/>
							</g>
						</g>
						<g>
							<g>
								<path class="st3" d="M230.7,161.8c0.4-0.1,0.9,0.6,1.1,1.6s0,1.8-0.4,1.9c-0.4,0.1-0.9-0.6-1.1-1.6
									C230.1,162.8,230.3,161.9,230.7,161.8z"/>
							</g>
						</g>
						<g>
							<g>
								<path class="st3" d="M236.8,160.4c0,0.4-0.8,0.7-1.8,0.7c-1-0.1-1.8-0.4-1.8-0.9c0-0.4,0.8-0.7,1.8-0.7
									C236,159.6,236.8,159.9,236.8,160.4z"/>
							</g>
						</g>
						<g>
							<g>
								<path class="st3" d="M225.4,159.9c0.1,0.4-0.5,0.9-1.3,1.1c-0.8,0.2-1.5,0-1.6-0.4s0.5-0.9,1.3-1.1
									C224.6,159.3,225.3,159.5,225.4,159.9z"/>
							</g>
						</g>
						<g>
							<g>
								<path class="st3" d="M230.7,158.3c0.2,0.4-0.3,0.9-0.9,1.2c-0.7,0.3-1.3,0.1-1.5-0.3c-0.2-0.4,0.3-0.9,0.9-1.2
									C229.9,157.8,230.6,157.9,230.7,158.3z"/>
							</g>
						</g>
						<g>
							<g>
								<path class="st3" d="M226,156.9c0,0.4-1.1,0.9-2.6,0.8c-1.5-0.1-2.6-0.8-2.5-1.2s1.3-0.5,2.6-0.4
									C224.8,156.2,225.9,156.5,226,156.9z"/>
							</g>
						</g>
						<g>
							<g>
								<path class="st3" d="M228.5,154.9c-0.2,0.4-1.4,0.2-2.7-0.3c-1.3-0.6-2.3-1.4-2.1-1.8c0.2-0.4,1.4-0.2,2.7,0.3
									C227.8,153.7,228.7,154.5,228.5,154.9z"/>
							</g>
						</g>
						<g>
							<g>
								<path class="st3" d="M242.9,152.9c0.2,0.4-0.3,1-0.9,1.4c-0.7,0.4-1.4,0.6-1.7,0.3c-0.3-0.3,0-1.1,0.8-1.6
									C241.9,152.5,242.8,152.5,242.9,152.9z"/>
							</g>
						</g>
						<g>
							<g>
								<path class="st3" d="M220.7,153.8c-0.2,0.4-0.8,0.5-1.4,0.3s-1-0.8-0.8-1.2s0.8-0.5,1.4-0.3
									C220.5,152.9,220.9,153.4,220.7,153.8z"/>
							</g>
						</g>
						<g>
							<g>
								<path class="st3" d="M242.3,197.5c0,0.4-1,0.8-2.3,0.9c-1.3,0-2.3-0.3-2.4-0.7c0-0.4,1-0.8,2.3-0.9
									C241.2,196.8,242.3,197.1,242.3,197.5z"/>
							</g>
						</g>
						<g>
							<g>
								<path class="st3" d="M244.6,194.8c-0.3,0.3-1.1,0-1.8-0.7c-0.7-0.7-1-1.5-0.7-1.8s1.1,0,1.8,0.7
									C244.6,193.7,244.9,194.5,244.6,194.8z"/>
							</g>
						</g>
						<g>
							<g>
								<path class="st3" d="M246.9,193.4c-0.4,0.1-0.9-0.8-0.9-1.9c0.1-1.2,0.7-1.9,1.1-1.8c0.4,0.1,0.5,1,0.4,1.9
									C247.5,192.5,247.3,193.3,246.9,193.4z"/>
							</g>
						</g>
						<g>
							<g>
								<path class="st3" d="M248.8,195.4c0.3,0.3,0.1,1-0.4,1.5s-1.1,0.8-1.5,0.6c-0.3-0.3-0.2-1,0.3-1.6
									C247.7,195.3,248.5,195.1,248.8,195.4z"/>
							</g>
						</g>
						<g>
							<g>
								<path class="st3" d="M247.8,202.1c-0.4,0-0.8-0.7-0.6-1.4c0.1-0.8,0.7-1.3,1.1-1.1c0.4,0.1,0.6,0.8,0.5,1.4
									C248.6,201.6,248.2,202.1,247.8,202.1z"/>
							</g>
						</g>
						<g>
							<g>
								<path class="st3" d="M244,199.6c0.3,0.3,0.4,0.7,0.3,0.9s-0.5,0.3-0.9,0.2s-0.7-0.5-0.5-1
									C243.2,199.3,243.7,199.3,244,199.6z"/>
							</g>
						</g>
						<g>
							<g>
								<path class="st3" d="M250.5,188.1c0.4,0.1,0.4,1.1-0.1,2.1s-1.4,1.5-1.7,1.2c-0.3-0.3-0.1-1.1,0.4-2
									C249.5,188.5,250.1,187.9,250.5,188.1z"/>
							</g>
						</g>
						<g>
							<g>
								<path class="st3" d="M247.3,187.6c0,0.4-0.8,0.8-1.9,0.9c-1.1,0.1-2-0.2-2-0.7c0-0.4,0.8-0.8,1.9-0.9
									C246.4,186.9,247.3,187.2,247.3,187.6z"/>
							</g>
						</g>
						<g>
							<g>
								<path class="st3" d="M240.3,194.6c-0.3,0.3-0.9,0.1-1.3-0.4s-0.4-1.1-0.1-1.4c0.3-0.3,0.9-0.1,1.3,0.4
									S240.7,194.3,240.3,194.6z"/>
							</g>
						</g>
						<g>
							<g>
								<path class="st3" d="M234,197.9c-0.3,0.3-1.3-0.2-1.9-1.3c-0.7-1.1-0.6-2.2-0.2-2.3s1,0.6,1.5,1.5
									C233.9,196.8,234.3,197.6,234,197.9z"/>
							</g>
						</g>
						<g>
							<g>
								<path class="st3" d="M230.7,197.9c-0.1,0.4-0.7,0.6-1.4,0.4c-0.7-0.2-1.1-0.7-1-1.1c0.1-0.4,0.7-0.6,1.4-0.4
									S230.8,197.4,230.7,197.9z"/>
							</g>
						</g>
						<g>
							<g>
								<path class="st3" d="M208.7,221.3c-0.4-0.1-0.6-1.1-0.5-2.3c0.2-1.2,0.7-2.1,1.1-2s0.6,1.1,0.5,2.3
									C209.7,220.4,209.2,221.3,208.7,221.3z"/>
							</g>
						</g>
						<g>
							<g>
								<path class="st3" d="M214.6,220.6c-0.4,0.2-1.2-0.7-1.8-2c-0.6-1.3-0.8-2.5-0.4-2.7s1.2,0.7,1.8,2
									C214.9,219.2,215,220.4,214.6,220.6z"/>
							</g>
						</g>
						<g>
							<g>
								<path class="st3" d="M219.8,217c-0.3,0.3-1.4-0.2-2.5-1c-1.2-0.8-2-1.7-1.8-2.1s1.4-0.1,2.7,0.8
									C219.4,215.6,220.1,216.6,219.8,217z"/>
							</g>
						</g>
						<g>
							<g>
								<path class="st3" d="M211.9,210.9c0.4,0.2,0.5,0.9,0.1,1.7c-0.3,0.8-0.9,1.3-1.3,1.2c-0.4-0.2-0.5-0.9-0.1-1.7
									C210.9,211.2,211.5,210.7,211.9,210.9z"/>
							</g>
						</g>
						<g>
							<g>
								<path class="st3" d="M220,221.5c-0.3,0.3-1.1-0.1-1.6-0.9c-0.6-0.7-0.7-1.5-0.4-1.8c0.3-0.3,1.1,0.1,1.6,0.9
									C220.2,220.5,220.4,221.3,220,221.5z"/>
							</g>
						</g>
						<g>
							<g>
								<path class="st3" d="M211.4,223.1c-0.4,0.1-0.9-0.4-0.9-1.1c-0.1-0.7,0.2-1.3,0.6-1.3c0.4-0.1,0.9,0.4,0.9,1.1
									C212.1,222.5,211.9,223.1,211.4,223.1z"/>
							</g>
						</g>
						<g>
							<g>
								<path class="st3" d="M228,215.3c-0.1,0.4-1.5,0.5-3.1,0.2s-2.8-0.9-2.8-1.4c0.1-0.4,1.4-0.5,3.1-0.2
									C226.9,214.2,228.1,214.8,228,215.3z"/>
							</g>
						</g>
						<g>
							<g>
								<path class="st3" d="M227,221.4c-0.3,0.3-1.4-0.1-2.5-1.1c-1.1-0.9-1.8-1.9-1.5-2.3c0.3-0.3,1.4,0.1,2.5,1.1
									C226.6,220.1,227.3,221.1,227,221.4z"/>
							</g>
						</g>
						<g>
							<g>
								<path class="st3" d="M232.6,219.7c-0.1,0.4-1.1,0.5-2.1,0.2s-1.8-0.9-1.6-1.3c0.1-0.4,1.1-0.5,2.1-0.2
									S232.8,219.3,232.6,219.7z"/>
							</g>
						</g>
						<g>
							<g>
								<path class="st3" d="M237.1,220.7c0,0.4-0.6,0.8-1.3,1.2c-0.7,0.3-1.4,0.5-1.7,0.2c-0.3-0.3,0.1-1.2,1.1-1.6
									C236.1,220,237.1,220.3,237.1,220.7z"/>
							</g>
						</g>
						<g>
							<g>
								<path class="st3" d="M235.7,217c-0.2,0.4-1,0.3-1.8-0.1c-0.8-0.5-1.3-1.1-1.1-1.5c0.2-0.4,1-0.3,1.8,0.1
									C235.4,215.9,235.9,216.6,235.7,217z"/>
							</g>
						</g>
						<g>
							<g>
								<path class="st3" d="M240.2,216.5c0.2,0.4,0,0.9-0.3,1.3s-0.7,0.8-1.1,0.8s-0.7-0.9-0.1-1.6
									C239.2,216.2,240.1,216.1,240.2,216.5z"/>
							</g>
						</g>
						<g>
							<g>
								<path class="st3" d="M244.9,220c0,0.4-0.8,0.8-1.8,0.8s-1.9-0.3-1.9-0.7c0-0.4,0.8-0.8,1.8-0.8
									C244,219.2,244.9,219.6,244.9,220z"/>
							</g>
						</g>
						<g>
							<g>
								<path class="st3" d="M245.6,217.5c-0.2,0.4-1,0.4-1.8,0.1c-0.8-0.4-1.4-1-1.2-1.4c0.2-0.4,1-0.4,1.8-0.1
									C245.2,216.5,245.7,217.1,245.6,217.5z"/>
							</g>
						</g>
						<g>
							<g>
								<path class="st3" d="M248.7,218.7c-0.4-0.1-0.7-0.7-0.4-1.4c0.3-0.7,0.9-1,1.2-0.8c0.4,0.2,0.4,0.8,0.2,1.3
									C249.6,218.4,249.2,218.8,248.7,218.7z"/>
							</g>
						</g>
						<g>
							<g>
								<path class="st3" d="M223.5,177.9c0.4-0.2,1.2,0.3,1.8,1.3c0.6,0.9,0.8,1.9,0.5,2.1c-0.4,0.2-1.2-0.3-1.8-1.3
									C223.3,179.1,223.1,178.2,223.5,177.9z"/>
							</g>
						</g>
						<g>
							<g>
								<path class="st3" d="M230,176.5c0.4,0.2,0.1,1.4-0.7,2.5c-0.7,1.2-1.6,1.9-2,1.7s-0.1-1.4,0.7-2.5
									C228.8,177,229.7,176.3,230,176.5z"/>
							</g>
						</g>
						<g>
							<g>
								<path class="st3" d="M233.7,180.9c0.2,0.4-0.6,1.1-1.6,1.4c-1.1,0.4-2,0.4-2.2,0s0.6-1.1,1.6-1.4
									C232.5,180.5,233.5,180.5,233.7,180.9z"/>
							</g>
						</g>
						<g>
							<g>
								<path class="st3" d="M232.7,187.9c-0.3,0.3-1.2,0.1-2-0.7s-1.2-1.7-0.8-2c0.3-0.3,1.1,0.1,1.9,0.8
									C232.5,186.8,232.9,187.6,232.7,187.9z"/>
							</g>
						</g>
						<g>
							<g>
								<path class="st3" d="M226.9,190.7c-0.4,0.1-1-1-0.9-2.4c0.1-1.5,0.8-2.5,1.2-2.3c0.4,0.1,0.4,1.2,0.3,2.4
									C227.5,189.6,227.3,190.6,226.9,190.7z"/>
							</g>
						</g>
						<g>
							<g>
								<path class="st3" d="M228.7,184c-0.1,0.4-0.8,0.6-1.5,0.4c-0.7-0.2-1.2-0.7-1.1-1.1c0.1-0.4,0.8-0.6,1.5-0.4
									C228.3,183,228.8,183.5,228.7,184z"/>
							</g>
						</g>
						<g>
							<g>
								<path class="st3" d="M234.7,175.9c0.3,0.2,0,1.3-1,2.2s-2.1,1.1-2.3,0.8c-0.2-0.4,0.4-1.2,1.3-1.9
									C233.5,176.2,234.4,175.7,234.7,175.9z"/>
							</g>
						</g>
						<g>
							<g>
								<path class="st3" d="M226,173.3c0.4-0.1,0.9,0.7,1,1.7s-0.4,1.8-0.8,1.8c-0.4-0.1-0.7-0.8-0.7-1.7
									C225.4,174.2,225.6,173.4,226,173.3z"/>
							</g>
						</g>
						<g>
							<g>
								<path class="st3" d="M231.7,170.5c0.4,0.1,0.5,1.1,0.1,2.2c-0.4,1.1-1.2,1.7-1.6,1.5s-0.3-1.1,0.1-2.1
									C230.8,171.2,231.3,170.4,231.7,170.5z"/>
							</g>
						</g>
						<g>
							<g>
								<path class="st3" d="M239,180.1c0,0.4-0.6,0.8-1.4,0.9c-0.8,0.1-1.5-0.2-1.5-0.6c0-0.4,0.6-0.8,1.4-0.9
									C238.2,179.4,238.9,179.7,239,180.1z"/>
							</g>
						</g>
						<g>
							<g>
								<path class="st3" d="M236.7,185.7c-0.2,0.4-1,0.5-2,0.2c-0.9-0.3-1.6-0.9-1.5-1.3c0.1-0.4,1-0.5,2-0.2
									S236.9,185.3,236.7,185.7z"/>
							</g>
						</g>
						<g>
							<g>
								<path class="st3" d="M230.7,192c-0.4,0.2-1.1-0.3-1.4-1.3s0-1.8,0.4-1.8s0.8,0.6,1.1,1.4C231.1,191.1,231.1,191.8,230.7,192
									z"/>
							</g>
						</g>
						<g>
							<g>
								<path class="st3" d="M226.7,195.8c-0.4,0-0.8-0.6-0.9-1.3c0-0.7,0.3-1.4,0.7-1.4c0.4,0,0.8,0.6,0.9,1.3
									C227.5,195.1,227.2,195.8,226.7,195.8z"/>
							</g>
						</g>
						<g>
							<g>
								<path class="st3" d="M236.6,193.9c-0.4,0.2-1.1-0.5-1.7-1.4s-0.9-1.8-0.6-2.1s1.2,0.2,1.9,1.2
									C236.9,192.6,237,193.7,236.6,193.9z"/>
							</g>
						</g>
						<g>
							<g>
								<path class="st3" d="M241.2,190.2c-0.2,0.4-1.2,0.2-2.3-0.2c-1.1-0.4-1.9-1-1.8-1.4s1.2-0.5,2.4,0
									C240.7,189,241.4,189.8,241.2,190.2z"/>
							</g>
						</g>
						<g>
							<g>
								<path class="st3" d="M241.5,185.6c-0.3,0.3-0.9,0.1-1.4-0.1c-0.5-0.3-0.9-0.6-0.9-1.1c0-0.4,0.8-0.7,1.6-0.3
									C241.7,184.6,241.8,185.4,241.5,185.6z"/>
							</g>
						</g>
						<g>
							<g>
								<path class="st3" d="M228.6,166.8c0.4,0.1,0.6,1.1,0.5,2.2c-0.1,1.2-0.5,2.1-0.9,2.1s-0.8-1-0.6-2.2
									C227.6,167.6,228.1,166.7,228.6,166.8z"/>
							</g>
						</g>
						<g>
							<g>
								<path class="st3" d="M237.5,170.2c0.3,0.3,0,1.2-0.8,2c-0.7,0.8-1.6,1.3-1.9,1s0-1.2,0.8-2
									C236.3,170.3,237.2,169.9,237.5,170.2z"/>
							</g>
						</g>
						<g>
							<g>
								<path class="st3" d="M238.9,172.3c0.3-0.3,0.8-0.2,1,0.1s0.1,0.8-0.2,1c-0.3,0.3-0.8,0.2-1-0.1
									C238.4,173,238.5,172.6,238.9,172.3z"/>
							</g>
						</g>
						<g>
							<g>
								<path class="st3" d="M214.9,169.3c-0.1,0.4-1.2,0.4-2.4-0.1c-1.2-0.5-1.9-1.4-1.7-1.7c0.2-0.4,1.2-0.2,2.3,0.3
									C214.2,168.2,215,168.9,214.9,169.3z"/>
							</g>
						</g>
						<g>
							<g>
								<path class="st3" d="M210,177.8c-0.4,0.2-1-0.4-1.2-1.4c-0.2-0.9,0-1.8,0.4-1.8c0.4-0.1,0.9,0.6,1.1,1.4
									C210.5,176.8,210.4,177.6,210,177.8z"/>
							</g>
						</g>
						<g>
							<g>
								<path class="st3" d="M216.2,174.1c-0.3,0.3-1.1-0.1-1.8-0.8c-0.6-0.7-0.9-1.6-0.6-1.8c0.3-0.3,1.1,0.1,1.8,0.8
									C216.2,172.9,216.5,173.8,216.2,174.1z"/>
							</g>
						</g>
						<g>
							<g>
								<path class="st3" d="M213.3,161.2c0.3,0.3-0.3,1.4-1.2,2.4c-1,1-2.1,1.6-2.4,1.3s0.3-1.4,1.2-2.4
									C211.9,161.4,213,160.9,213.3,161.2z"/>
							</g>
						</g>
						<g>
							<g>
								<path class="st3" d="M208.7,159.3c0.4,0.1,0.5,1.1,0.1,2c-0.3,1-1,1.7-1.4,1.5c-0.4-0.1-0.5-1.1-0.1-2
									C207.6,159.8,208.3,159.2,208.7,159.3z"/>
							</g>
						</g>
						<g>
							<g>
								<path class="st3" d="M208.8,166.8c0.2,0.4-0.1,1-0.7,1.6s-1.2,1-1.6,0.7c-0.4-0.2-0.2-1.1,0.5-1.8
									C207.7,166.6,208.6,166.4,208.8,166.8z"/>
							</g>
						</g>
						<g>
							<g>
								<path class="st3" d="M207.1,165.7c-0.4,0.2-0.9-0.2-0.9-0.8s0.5-1,0.9-0.9s0.7,0.5,0.7,0.8
									C207.7,165.2,207.5,165.6,207.1,165.7z"/>
							</g>
						</g>
						<g>
							<g>
								<path class="st3" d="M215.7,164.7c0.1,0.4-0.7,0.9-1.6,1c-1,0.1-1.8-0.1-1.8-0.5c-0.1-0.4,0.7-0.9,1.6-1
									S215.7,164.3,215.7,164.7z"/>
							</g>
						</g>
						<g>
							<g>
								<path class="st3" d="M212.5,157.4c0.4,0.3,0.2,1.1-0.4,2c-0.6,0.8-1.4,1.3-1.7,1.1c-0.4-0.3-0.2-1.1,0.4-2
									C211.4,157.6,212.1,157.1,212.5,157.4z"/>
							</g>
						</g>
						<g>
							<g>
								<path class="st3" d="M215.3,179.4c-0.3,0.3-1.3-0.2-1.8-1.3c-0.6-1.1-0.4-2.1,0-2.2c0.4-0.1,0.9,0.6,1.4,1.5
									C215.3,178.2,215.6,179.1,215.3,179.4z"/>
							</g>
						</g>
						<g>
							<g>
								<path class="st3" d="M206.4,180.9c-0.4,0-0.8-0.6-0.8-1.5c0.1-0.9,0.6-1.5,1-1.3c0.4,0.1,0.6,0.8,0.6,1.5
									C207.1,180.3,206.9,180.9,206.4,180.9z"/>
							</g>
						</g>
						<g>
							<g>
								<path class="st3" d="M212.2,180.8c-0.1,0.4-0.9,0.5-1.8,0.3c-0.9-0.3-1.4-0.8-1.3-1.2s0.9-0.5,1.8-0.3
									C211.8,179.9,212.4,180.4,212.2,180.8z"/>
							</g>
						</g>
						<g>
							<g>
								<path class="st3" d="M219.6,178.8c-0.3,0.3-1.1-0.1-1.8-0.8c-0.7-0.8-1-1.6-0.6-1.9c0.3-0.3,1.1,0.1,1.8,0.8
									C219.7,177.6,219.9,178.5,219.6,178.8z"/>
							</g>
						</g>
						<g>
							<g>
								<path class="st3" d="M221.3,167c0,0.4-0.9,0.8-2.1,0.9c-1.2,0.1-2.2-0.2-2.2-0.7c0-0.4,0.9-0.8,2.1-0.9
									C220.3,166.2,221.3,166.5,221.3,167z"/>
							</g>
						</g>
						<g>
							<g>
								<path class="st3" d="M219,159.4c0.2,0.4-0.4,1.1-1.4,1.7c-1,0.5-1.9,0.7-2.1,0.3s0.4-1.1,1.4-1.7
									C217.9,159.2,218.8,159,219,159.4z"/>
							</g>
						</g>
						<g>
							<g>
								<path class="st3" d="M210.4,155.4c0.4,0.2,0.5,0.8,0.2,1.3s-0.8,0.8-1.2,0.6c-0.4-0.2-0.5-0.8-0.2-1.3
									C209.5,155.5,210,155.2,210.4,155.4z"/>
							</g>
						</g>
						<g>
							<g>
								<path class="st3" d="M217.4,155.3c0.3,0.3,0,1.1-0.7,1.9c-0.7,0.7-1.5,1.1-1.8,0.8s0-1.1,0.7-1.9
									C216.3,155.3,217.1,155,217.4,155.3z"/>
							</g>
						</g>
						<g>
							<g>
								<path class="st3" d="M221.8,163.1c0.1,0.4-0.6,0.9-1.6,1.1c-0.9,0.2-1.8,0-1.9-0.4s0.6-0.9,1.6-1.1
									C220.9,162.4,221.8,162.6,221.8,163.1z"/>
							</g>
						</g>
						<g>
							<g>
								<path class="st3" d="M222.4,173.4c-0.2,0.4-1.2,0.1-2.1-0.4s-1.6-1.2-1.4-1.6c0.2-0.4,1.2-0.3,2.2,0.2
									C222.1,172.2,222.7,173,222.4,173.4z"/>
							</g>
						</g>
						<g>
							<g>
								<path class="st3" d="M248.2,180.7c-0.1,0.4-1.2,0.4-2.4,0.1c-1.2-0.4-2.1-1-2-1.4s1.2-0.4,2.4-0.1
									C247.4,179.7,248.3,180.3,248.2,180.7z"/>
							</g>
						</g>
						<g>
							<g>
								<path class="st3" d="M248.6,184.9c-0.3,0.3-1.1,0.1-1.7-0.5c-0.7-0.6-1-1.3-0.7-1.6s1-0.1,1.7,0.5
									C248.5,183.8,248.8,184.5,248.6,184.9z"/>
							</g>
						</g>
						<g>
							<g>
								<path class="st3" d="M249.2,175.4c0.1,0.4-0.8,1.2-2.1,1.7c-1.3,0.5-2.5,0.6-2.6,0.2c-0.2-0.4,0.7-1.1,2.1-1.7
									C247.9,175.1,249.1,175,249.2,175.4z"/>
							</g>
						</g>
						<g>
							<g>
								<path class="st3" d="M250.9,178.2c0,0.4-0.6,0.8-1.4,0.8s-1.4-0.3-1.4-0.7s0.6-0.8,1.4-0.8
									C250.3,177.4,250.9,177.7,250.9,178.2z"/>
							</g>
						</g>
						<g>
							<g>
								<path class="st3" d="M252.9,183.7c-0.4,0.2-1-0.3-1.6-0.8s-1.2-0.9-1.2-1.4c0-0.2,0.3-0.4,0.7-0.4c0.4,0,0.9,0.1,1.4,0.5
									s0.8,0.8,0.9,1.2C253.2,183.3,253.1,183.6,252.9,183.7z"/>
							</g>
						</g>
						<g>
							<g>
								<path class="st3" d="M253,187.8c-0.3,0.3-1.1-0.2-1.8-1c-0.6-0.8-0.9-1.7-0.5-1.9c0.3-0.3,1.1,0.2,1.8,1
									C253.1,186.6,253.3,187.5,253,187.8z"/>
							</g>
						</g>
						<g>
							<g>
								<path class="st3" d="M237.2,175.9c0.2-0.4,1.4-0.1,2.7,0.6c1.3,0.7,2.1,1.6,1.9,2s-1.4,0.1-2.7-0.6
									C237.8,177.2,237,176.3,237.2,175.9z"/>
							</g>
						</g>
						<g>
							<g>
								<path class="st3" d="M242.2,169.7c0.4,0,0.8,1.2,0.9,2.7s-0.2,2.8-0.6,2.8s-0.8-1.2-0.9-2.7
									C241.5,170.9,241.8,169.7,242.2,169.7z"/>
							</g>
						</g>
						<g>
							<g>
								<path class="st3" d="M248.7,170.8c0.3,0.3-0.3,1.2-1.2,2c-0.9,0.7-1.9,1.1-2.2,0.7c-0.3-0.3,0.3-1.2,1.2-2
									C247.4,170.8,248.4,170.4,248.7,170.8z"/>
							</g>
						</g>
						<g>
							<g>
								<path class="st3" d="M255,172.1c0.1,0.4-0.8,1-2,1.3s-2.3,0.2-2.4-0.2s0.8-1,2-1.3S254.9,171.7,255,172.1z"/>
							</g>
						</g>
						<g>
							<g>
								<path class="st3" d="M256.7,177.2c-0.1,0.4-1.1,0.5-2.1,0.2s-1.8-0.9-1.7-1.3c0.1-0.4,1.1-0.5,2.1-0.2
									C256.1,176.2,256.8,176.8,256.7,177.2z"/>
							</g>
						</g>
						<g>
							<g>
								<path class="st3" d="M260.8,173.2c0.1,0.4-0.6,0.9-1.5,1s-1.7-0.1-1.7-0.5c-0.1-0.4,0.6-0.9,1.5-1
									C260,172.5,260.7,172.8,260.8,173.2z"/>
							</g>
						</g>
						<g>
							<g>
								<path class="st3" d="M258.4,179c0.2,0.4-0.3,1-1.2,1.2c-0.8,0.2-1.6-0.1-1.6-0.6c0-0.4,0.5-0.8,1.2-1
									C257.6,178.5,258.3,178.6,258.4,179z"/>
							</g>
						</g>
						<g>
							<g>
								<path class="st3" d="M260.5,178.3c-0.4,0.1-0.9-0.4-1-1.2c0-0.8,0.5-1.3,0.9-1.2s0.7,0.6,0.7,1.2
									C261.2,177.6,261,178.1,260.5,178.3z"/>
							</g>
						</g>
						<g>
							<g>
								<path class="st3" d="M257.8,167.1c0.4,0.1,0.6,1,0.4,2.1s-0.7,1.9-1.1,1.8c-0.4-0.1-0.6-1-0.4-2.1
									C256.8,167.8,257.3,167,257.8,167.1z"/>
							</g>
						</g>
						<g>
							<g>
								<path class="st3" d="M261.5,170.2c-0.4,0-0.7-0.7-0.6-1.4c0.1-0.8,0.5-1.3,0.9-1.3s0.7,0.7,0.6,1.4
									C262.4,169.7,262,170.3,261.5,170.2z"/>
							</g>
						</g>
						<g>
							<g>
								<path class="st3" d="M264.2,174.3c-0.4,0.1-0.9-0.6-1-1.5s0.2-1.6,0.6-1.7c0.4-0.1,0.9,0.6,1,1.5
									C264.9,173.6,264.6,174.3,264.2,174.3z"/>
							</g>
						</g>
						<g>
							<g>
								<path class="st3" d="M206.8,176.6c-0.4,0-0.8-1.4-0.8-3.1c0.1-1.7,0.5-3,1-3c0.4,0,0.7,1.4,0.6,3
									C207.5,175.2,207.2,176.5,206.8,176.6z"/>
							</g>
						</g>
						<g>
							<g>
								<path class="st3" d="M211.7,174.1c-0.4,0.2-1.3-0.6-2.1-1.8c-0.8-1.2-1.1-2.4-0.8-2.6c0.4-0.2,1.3,0.6,2.1,1.8
									C211.7,172.7,212.1,173.8,211.7,174.1z"/>
							</g>
						</g>
						<g>
							<g>
								<path class="st3" d="M244.5,185.7c-0.4,0.2-1.3-0.7-2.1-2.1c-0.8-1.4-1.1-2.7-0.7-2.9s1.3,0.7,2.1,2.1
									C244.6,184.2,244.9,185.4,244.5,185.7z"/>
							</g>
						</g>
					</g>
				</g>
				<g>
					<g>
						<path class="st6" d="M221.5,164.2c0.1,0,0.2,3.8,0.3,8.5c0.1,4.7,0,8.5,0,8.5c-0.1,0-0.2-3.8-0.3-8.5
							C221.4,168,221.5,164.2,221.5,164.2z"/>
					</g>
				</g>
				<g>
					<g>
						<path class="st6" d="M222.7,167.3c0.1,0-0.2,0.7-0.4,1.5c-0.2,0.8-0.4,1.5-0.5,1.5s-0.1-0.7,0.2-1.6
							C222.2,167.9,222.6,167.2,222.7,167.3z"/>
					</g>
				</g>
				<g>
					<g>
						<path class="st6" d="M240.8,150.4c0,0,0,0.1,0.1,0.3s0.1,0.4,0.1,0.8c0.1,0.7,0.1,1.7-0.3,2.8c-0.4,1.2-1.1,2.5-2.3,3.5
							c-1.2,1.1-3,1.7-4.9,1.7c-1.9-0.1-3.6-0.8-4.8-1.9c-1.2-1.1-1.8-2.5-2.1-3.7c-0.3-1.2-0.2-2.2-0.1-2.8
							c0.1-0.3,0.1-0.6,0.2-0.8s0.1-0.3,0.1-0.3c0.1,0-0.5,1.5,0.1,3.8c0.3,1.1,1,2.4,2.1,3.5s2.8,1.7,4.6,1.8
							c1.8,0,3.5-0.6,4.7-1.6s1.9-2.3,2.3-3.4C241.3,151.9,240.7,150.4,240.8,150.4z"/>
					</g>
				</g>
				<g>
					<g>
						<path class="st6" d="M249.4,170.3c0,0,0.3,0.4,0.7,1.2c0.5,1,1,1.9,1.5,3c0.5,1,1,2,1.5,3c0.4,0.8,0.6,1.2,0.6,1.3
							c0,0-0.3-0.4-0.8-1.2c-0.4-0.7-1-1.8-1.6-2.9c-0.6-1.2-1.1-2.2-1.4-3C249.6,170.8,249.4,170.3,249.4,170.3z"/>
					</g>
				</g>
			</g>
			<g>
				<g>
					<g>
						<g>
							<g>
								<g>
									<path class="st7" d="M281.1,382.1l-1.6-9.1l-17,2.9l2.2,13.3l1.1-0.1c4.7-0.5,24-3.1,27-4.6
										C296.1,382.8,281.1,382.1,281.1,382.1z"/>
								</g>
							</g>
						</g>
						<g>
							<g>
								<g>
									<path class="st7" d="M270.9,388c-0.5-1.4-1.5-2.6-2.8-3.2c-1.3-0.7-2.8-0.9-4.2-0.5l0.8,4.7L270.9,388z"/>
								</g>
							</g>
						</g>
					</g>
					<g>
						<g>
							<g>
								<path class="st7" d="M288.5,382.7c0,0,5.3,0.6,4.8,1.5s-19.9,4.3-28.5,5v-0.4l22.6-3.7C287.4,385.1,287.5,382.9,288.5,382.7
									z"/>
							</g>
						</g>
					</g>
					<g>
						<g>
							<g>
								<g>
									<path class="st6" d="M264.5,388.9c0,0,0.1,0,0.3,0c0.3,0,0.5-0.1,0.8-0.1c0.8-0.1,1.9-0.2,3.1-0.4
										c2.6-0.4,6.2-0.9,10.2-1.6s7.6-1.4,10.2-1.9c1.2-0.3,2.2-0.5,3.1-0.7c0.3-0.1,0.6-0.1,0.8-0.2c0.2,0,0.3-0.1,0.3-0.1
										s-0.1,0-0.3,0c-0.3,0-0.5,0.1-0.8,0.2c-0.8,0.2-1.9,0.4-3.1,0.6c-2.6,0.5-6.2,1.2-10.2,1.9c-4,0.7-7.6,1.2-10.2,1.6
										c-1.2,0.2-2.3,0.3-3.1,0.5c-0.3,0-0.6,0.1-0.8,0.1S264.5,388.9,264.5,388.9z"/>
								</g>
							</g>
						</g>
					</g>
					<g>
						<g>
							<g>
								<g>
									<path class="st6" d="M287.4,385.4c0.1,0,0-0.7,0.3-1.6c0.3-0.8,0.9-1.3,0.8-1.4c0,0-0.7,0.4-1,1.3
										C287.2,384.6,287.4,385.4,287.4,385.4z"/>
								</g>
							</g>
						</g>
					</g>
					<g>
						<g>
							<g>
								<g>
									<path class="st6" d="M282,383.7c0.1,0,0.2-0.3,0.4-0.7c0.2-0.4,0.3-0.8,0.2-0.8c-0.1,0-0.2,0.3-0.4,0.7
										C282,383.3,281.9,383.7,282,383.7z"/>
								</g>
							</g>
						</g>
					</g>
					<g>
						<g>
							<g>
								<g>
									<path class="st6" d="M280.5,383.2c0,0,0.3-0.2,0.5-0.5s0.4-0.6,0.4-0.6s-0.3,0.2-0.5,0.5
										C280.6,382.9,280.4,383.2,280.5,383.2z"/>
								</g>
							</g>
						</g>
					</g>
					<g>
						<g>
							<g>
								<g>
									<path class="st6" d="M279.3,381.8c0,0.1,0.4,0,0.9,0c0.5-0.1,0.9-0.2,0.9-0.2c0-0.1-0.4,0-0.9,0S279.3,381.7,279.3,381.8z"
										/>
								</g>
							</g>
						</g>
					</g>
					<g>
						<g>
							<g>
								<g>
									<path class="st6" d="M278.8,380.7c0,0.1,0.5,0.2,1,0.1c0.6-0.1,1-0.3,1-0.3c0-0.1-0.5,0.1-1,0.1
										C279.3,380.7,278.8,380.6,278.8,380.7z"/>
								</g>
							</g>
						</g>
					</g>
					<g>
						<g>
							<g>
								<g>
									<path class="st6" d="M282.3,382.1c0,0,0.4,0,1.1-0.2c0.3-0.1,0.7-0.2,1.1-0.5c0.2-0.1,0.4-0.2,0.6-0.4
										c0.1-0.1,0.2-0.2,0.2-0.4c0-0.2-0.1-0.3-0.2-0.4c-1.1-0.4-2.1,0.4-2.4,1c-0.2,0.3-0.2,0.6-0.2,0.8c0,0.2,0,0.3,0,0.3
										s0-0.4,0.3-1c0.2-0.3,0.4-0.6,0.8-0.8c0.4-0.2,0.9-0.3,1.3-0.1c0.2,0.1,0.2,0.3,0,0.5c-0.2,0.1-0.4,0.3-0.6,0.4
										c-0.4,0.2-0.8,0.4-1.1,0.5C282.7,382,282.3,382.1,282.3,382.1z"/>
								</g>
							</g>
						</g>
					</g>
					<g>
						<g>
							<g>
								<g>
									<path class="st6" d="M282.6,382.1c0,0,0.1-0.3,0-0.8c-0.1-0.2-0.2-0.5-0.4-0.7c-0.2-0.2-0.5-0.5-1-0.4
										c-0.2,0.1-0.3,0.4-0.2,0.6c0.1,0.2,0.2,0.3,0.3,0.5c0.2,0.2,0.4,0.4,0.6,0.6C282.2,382.1,282.5,382.2,282.6,382.1
										c-0.1,0-0.3-0.2-0.7-0.5c-0.2-0.1-0.4-0.3-0.6-0.6c-0.2-0.2-0.4-0.6-0.1-0.7s0.6,0.2,0.8,0.3c0.2,0.2,0.4,0.4,0.4,0.7
										C282.6,381.8,282.5,382.1,282.6,382.1z"/>
								</g>
							</g>
						</g>
					</g>
					<g>
						<g>
							<g>
								<g>
									<path class="st6" d="M264,384.2c0,0,0.5-0.1,1.3-0.2c0.8,0,1.9,0.1,2.9,0.7s1.7,1.4,2.1,2.1s0.5,1.2,0.5,1.2s0-0.1-0.1-0.3
										c-0.1-0.2-0.2-0.5-0.3-0.9c-0.4-0.7-1.1-1.6-2.2-2.2s-2.2-0.7-3-0.6c-0.4,0-0.7,0.1-0.9,0.2
										C264.1,384.1,264,384.1,264,384.2z"/>
								</g>
							</g>
						</g>
					</g>
					<g>
						<g>
							<g>
								<g>
									<path class="st6" d="M264.6,376.8c-0.1,0,0.1,1.6,0.5,3.5c0.3,1.9,0.6,3.5,0.7,3.5s-0.1-1.6-0.5-3.5
										C264.9,378.3,264.6,376.8,264.6,376.8z"/>
								</g>
							</g>
						</g>
					</g>
					<g>
						<g>
							<g>
								<g>
									<path class="st6" d="M272.8,386c0,0.1,1.1,0,2.5-0.2s2.5-0.6,2.4-0.6c0-0.1-1.1,0.2-2.5,0.4
										C273.9,385.8,272.8,385.9,272.8,386z"/>
								</g>
							</g>
						</g>
					</g>
					<g>
						<g>
							<g>
								<g>
									<path class="st6" d="M269.4,386.6c0,0,0.1,0.2,0.3,0.5c0.2,0.2,0.3,0.4,0.3,0.4c0.1,0,0-0.3-0.1-0.6
										C269.7,386.6,269.5,386.5,269.4,386.6z"/>
								</g>
							</g>
						</g>
					</g>
					<g>
						<g>
							<g>
								<g>
									<path class="st6" d="M267.9,385.2c0,0,0.1,0.2,0.3,0.4c0.2,0.1,0.4,0.2,0.4,0.2s-0.1-0.2-0.3-0.4
										C268.1,385.3,267.9,385.2,267.9,385.2z"/>
								</g>
							</g>
						</g>
					</g>
					<g>
						<g>
							<g>
								<g>
									<path class="st6" d="M266,384.8c0,0.1,0.2,0,0.5,0.1c0.3,0,0.5,0.1,0.5,0.1s-0.1-0.3-0.5-0.3
										C266.2,384.6,266,384.8,266,384.8z"/>
								</g>
							</g>
						</g>
					</g>
					<g>
						<g>
							<g>
								<g>
									<path class="st6" d="M264.7,384.7c0,0.1,0.1,0.1,0.3,0.2c0.2,0,0.3,0,0.3,0c0-0.1-0.1-0.1-0.3-0.2S264.7,384.6,264.7,384.7
										z"/>
								</g>
							</g>
						</g>
					</g>
				</g>
			</g>
			<g>
				<g>
					<path class="st9" d="M263.5,226.9c0,0,54.6,9.2,50.3,25.6c-4.3,16.3-36.6,56-36.6,56l-20.4-12.9c0,0,30.2-37.5,29.1-38.8
						c-1.2-1.2-42.5-10.2-42.5-10.2l-9.2-23.7L263.5,226.9z"/>
				</g>
				<g>
					<g>
						<g>
							<path class="st6" d="M249.5,243.4c0,0.1-0.4,0.2-0.8,0.1s-0.7-0.3-0.7-0.4s0.4-0.2,0.8-0.1
								C249.2,243,249.5,243.2,249.5,243.4z"/>
						</g>
					</g>
					<g>
						<g>
							<path class="st6" d="M255.2,244.5c0,0.1-0.7,0.1-1.5,0c-0.8-0.2-1.4-0.4-1.4-0.5s0.7-0.1,1.5,0S255.2,244.4,255.2,244.5z"/>
						</g>
					</g>
					<g>
						<g>
							<path class="st6" d="M260.9,245.7c0,0.1-0.7,0.1-1.5-0.1s-1.4-0.4-1.4-0.6c0-0.1,0.7-0.1,1.5,0.1
								C260.3,245.3,260.9,245.6,260.9,245.7z"/>
						</g>
					</g>
					<g>
						<g>
							<path class="st6" d="M266.6,247.1c0,0.1-0.7,0.1-1.5-0.1s-1.4-0.5-1.4-0.6s0.7-0.1,1.5,0.1S266.6,246.9,266.6,247.1z"/>
						</g>
					</g>
					<g>
						<g>
							<path class="st6" d="M272.2,248.5c0,0.1-0.7,0.1-1.5-0.1s-1.4-0.5-1.3-0.6c0-0.1,0.7-0.1,1.5,0.1S272.3,248.4,272.2,248.5z"
								/>
						</g>
					</g>
					<g>
						<g>
							<path class="st6" d="M277.9,250c0,0.1-0.7,0.1-1.5-0.1s-1.4-0.5-1.3-0.6c0-0.1,0.7-0.1,1.5,0.1
								C277.3,249.6,277.9,249.9,277.9,250z"/>
						</g>
					</g>
					<g>
						<g>
							<path class="st6" d="M283.5,251.7c0,0.1-0.7,0.1-1.5-0.2c-0.8-0.2-1.4-0.5-1.3-0.7c0-0.1,0.7-0.1,1.5,0.2
								C282.9,251.2,283.5,251.5,283.5,251.7z"/>
						</g>
					</g>
					<g>
						<g>
							<path class="st6" d="M289.1,253.4c0,0.1-0.7,0.1-1.5-0.2c-0.8-0.2-1.4-0.5-1.3-0.7c0-0.1,0.7-0.1,1.5,0.2
								C288.5,253,289.1,253.3,289.1,253.4z"/>
						</g>
					</g>
					<g>
						<g>
							<path class="st6" d="M290.5,257.7c-0.1-0.1,0.2-0.7,0.6-1.3c0.4-0.7,0.2-1.2,0.3-1.3c0.1,0,0.2,0.1,0.3,0.4
								c0.1,0.3,0.1,0.7-0.1,1.1C291.1,257.3,290.6,257.7,290.5,257.7z"/>
						</g>
					</g>
					<g>
						<g>
							<path class="st6" d="M287.1,262.4c-0.1-0.1,0.2-0.7,0.7-1.3c0.5-0.6,1-1.1,1.1-1s-0.2,0.7-0.7,1.3
								C287.6,262,287.2,262.5,287.1,262.4z"/>
						</g>
					</g>
					<g>
						<g>
							<path class="st6" d="M283.6,267.1c-0.1-0.1,0.2-0.7,0.7-1.3c0.5-0.6,1-1.1,1.1-1s-0.2,0.7-0.7,1.3
								C284.2,266.7,283.7,267.2,283.6,267.1z"/>
						</g>
					</g>
					<g>
						<g>
							<path class="st6" d="M280.1,271.8c-0.1-0.1,0.2-0.7,0.7-1.3c0.5-0.6,1-1.1,1.1-1s-0.2,0.7-0.7,1.3
								C280.7,271.4,280.2,271.9,280.1,271.8z"/>
						</g>
					</g>
					<g>
						<g>
							<path class="st6" d="M276.7,276.5c-0.1-0.1,0.2-0.7,0.7-1.3c0.5-0.6,1-1.1,1.1-1s-0.2,0.7-0.7,1.3
								C277.3,276.1,276.8,276.6,276.7,276.5z"/>
						</g>
					</g>
					<g>
						<g>
							<path class="st6" d="M273.2,281.2c-0.1-0.1,0.2-0.7,0.7-1.3c0.5-0.6,1-1.1,1.1-1s-0.2,0.7-0.7,1.3
								C273.8,280.8,273.3,281.3,273.2,281.2z"/>
						</g>
					</g>
					<g>
						<g>
							<path class="st6" d="M269.8,285.9c-0.1-0.1,0.2-0.7,0.7-1.3c0.5-0.6,1-1.1,1.1-1s-0.2,0.7-0.7,1.3
								C270.4,285.5,269.9,286,269.8,285.9z"/>
						</g>
					</g>
					<g>
						<g>
							<path class="st6" d="M266.3,290.6c-0.1-0.1,0.2-0.7,0.7-1.3c0.5-0.6,1-1.1,1.1-1s-0.2,0.7-0.7,1.3
								C266.9,290.2,266.4,290.7,266.3,290.6z"/>
						</g>
					</g>
					<g>
						<g>
							<path class="st6" d="M263.7,294.1c-0.1-0.1,0-0.4,0.2-0.8c0.2-0.3,0.5-0.5,0.7-0.4c0.1,0.1,0,0.4-0.2,0.8
								C264.1,294,263.8,294.2,263.7,294.1z"/>
						</g>
					</g>
				</g>
				<g>
					<g>
						<path class="st6" d="M292.8,254.5c0.1,0.1-1.5,0.8-3.5,1.5c-2,0.7-3.6,1.1-3.6,1s1.5-0.8,3.5-1.5
							C291.1,254.8,292.7,254.3,292.8,254.5z"/>
					</g>
				</g>
				<g>
					<g>
						<path class="st6" d="M293.5,256.3c0,0.1-1.8,0.5-4,0.7s-4.1,0.1-4.1-0.1c0-0.1,1.8-0.3,4-0.5
							C291.6,256.4,293.4,256.2,293.5,256.3z"/>
					</g>
				</g>
				<g>
					<path class="st6" d="M277.5,309.9l-12.3-8c0,0-1-10.2-3.3-12.8l19.6,15.7L277.5,309.9z"/>
				</g>
			</g>
			<g>
				<g>
					<path class="st9" d="M205.6,225.2c0,0-3.4,10.7,7.5,26.8l36.4,56.3l8.2,73.2l27-2.4l-9.1-81.1l-38.4-71.8L205.6,225.2z"/>
				</g>
				<g>
					<g>
						<g>
							<path class="st6" d="M208.4,227.2c-0.1,0-0.3-0.3-0.3-0.8c0-0.4,0.1-0.8,0.3-0.7c0.1,0,0.3,0.4,0.3,0.8
								C208.7,226.9,208.5,227.2,208.4,227.2z"/>
						</g>
					</g>
					<g>
						<g>
							<path class="st6" d="M209.3,233.2c-0.1,0-0.4-0.6-0.6-1.4s-0.2-1.5-0.1-1.5s0.4,0.6,0.6,1.4
								C209.5,232.5,209.5,233.2,209.3,233.2z"/>
						</g>
					</g>
					<g>
						<g>
							<path class="st6" d="M211.3,238.9c-0.1,0.1-0.5-0.5-0.8-1.3s-0.4-1.5-0.3-1.5s0.5,0.5,0.8,1.3S211.4,238.8,211.3,238.9z"/>
						</g>
					</g>
					<g>
						<g>
							<path class="st6" d="M214,244.3c-0.1,0.1-0.6-0.5-1-1.2s-0.6-1.4-0.5-1.5s0.5,0.5,0.9,1.2C213.9,243.6,214.1,244.2,214,244.3
								z"/>
						</g>
					</g>
					<g>
						<g>
							<path class="st6" d="M217.1,249.4c-0.1,0.1-0.6-0.4-1-1.1s-0.7-1.3-0.6-1.4s0.6,0.4,1,1.1C217,248.7,217.3,249.3,217.1,249.4
								z"/>
						</g>
					</g>
					<g>
						<g>
							<path class="st6" d="M220.4,254.5c-0.1,0.1-0.6-0.4-1-1.1c-0.5-0.7-0.7-1.3-0.6-1.4s0.6,0.4,1,1.1
								C220.3,253.7,220.6,254.4,220.4,254.5z"/>
						</g>
					</g>
					<g>
						<g>
							<path class="st6" d="M223.8,259.5c-0.1,0.1-0.6-0.4-1.1-1.1s-0.7-1.3-0.6-1.4s0.6,0.4,1.1,1.1
								C223.6,258.8,223.9,259.4,223.8,259.5z"/>
						</g>
					</g>
					<g>
						<g>
							<path class="st6" d="M227.2,264.5c-0.1,0.1-0.6-0.4-1.1-1.1s-0.8-1.3-0.6-1.4c0.1-0.1,0.6,0.4,1.1,1.1
								C227,263.8,227.3,264.4,227.2,264.5z"/>
						</g>
					</g>
					<g>
						<g>
							<path class="st6" d="M230.6,269.5c-0.1,0.1-0.6-0.4-1.1-1.1s-0.8-1.3-0.6-1.4c0.1-0.1,0.6,0.4,1.1,1.1
								C230.4,268.8,230.7,269.4,230.6,269.5z"/>
						</g>
					</g>
					<g>
						<g>
							<path class="st6" d="M234,274.4c-0.1,0.1-0.6-0.4-1.1-1.1s-0.8-1.3-0.6-1.4c0.1-0.1,0.6,0.4,1.1,1.1
								C233.8,273.7,234.1,274.4,234,274.4z"/>
						</g>
					</g>
					<g>
						<g>
							<path class="st6" d="M237.4,279.4c-0.1,0.1-0.6-0.4-1.1-1.1s-0.8-1.3-0.6-1.4c0.1-0.1,0.6,0.4,1.1,1.1
								C237.2,278.7,237.5,279.3,237.4,279.4z"/>
						</g>
					</g>
					<g>
						<g>
							<path class="st6" d="M240.8,284.4c-0.1,0.1-0.6-0.4-1.1-1.1s-0.8-1.3-0.6-1.4c0.1-0.1,0.6,0.4,1.1,1.1
								C240.6,283.7,240.9,284.3,240.8,284.4z"/>
						</g>
					</g>
					<g>
						<g>
							<path class="st6" d="M244.2,289.4c-0.1,0.1-0.6-0.4-1.1-1.1s-0.8-1.3-0.6-1.4c0.1-0.1,0.6,0.4,1.1,1.1
								C244,288.7,244.3,289.3,244.2,289.4z"/>
						</g>
					</g>
					<g>
						<g>
							<path class="st6" d="M247.6,294.4c-0.1,0.1-0.6-0.4-1.1-1.1s-0.7-1.3-0.6-1.4s0.6,0.4,1.1,1.1
								C247.4,293.7,247.7,294.3,247.6,294.4z"/>
						</g>
					</g>
					<g>
						<g>
							<path class="st6" d="M250.9,299.4c-0.1,0.1-0.6-0.4-1-1.1c-0.5-0.7-0.7-1.3-0.6-1.4s0.6,0.4,1,1.1
								C250.7,298.7,251,299.3,250.9,299.4z"/>
						</g>
					</g>
					<g>
						<g>
							<path class="st6" d="M253.9,304.6c-0.1,0-0.5-0.5-0.9-1.2s-0.7-1.4-0.5-1.4c0.1-0.1,0.6,0.4,1,1.2
								C253.9,303.9,254.1,304.6,253.9,304.6z"/>
						</g>
					</g>
					<g>
						<g>
							<path class="st6" d="M254.6,310.6c-0.1,0-0.3-0.6-0.4-1.5c-0.1-0.8-0.1-1.5,0.1-1.5c0.1,0,0.3,0.6,0.4,1.5
								C254.8,309.9,254.8,310.6,254.6,310.6z"/>
						</g>
					</g>
					<g>
						<g>
							<path class="st6" d="M255.3,316.6c-0.1,0-0.3-0.6-0.4-1.5c-0.1-0.8,0-1.5,0.1-1.5s0.3,0.6,0.4,1.5
								C255.5,315.9,255.4,316.6,255.3,316.6z"/>
						</g>
					</g>
					<g>
						<g>
							<path class="st6" d="M255.9,322.6c-0.1,0-0.3-0.6-0.4-1.5c-0.1-0.8,0-1.5,0.1-1.5s0.3,0.6,0.4,1.5
								C256.1,321.9,256.1,322.6,255.9,322.6z"/>
						</g>
					</g>
					<g>
						<g>
							<path class="st6" d="M256.5,328.6c-0.1,0-0.3-0.6-0.4-1.5c-0.1-0.8,0-1.5,0.1-1.5s0.3,0.6,0.4,1.5
								C256.7,327.9,256.7,328.6,256.5,328.6z"/>
						</g>
					</g>
					<g>
						<g>
							<path class="st6" d="M257.2,334.6c-0.1,0-0.3-0.6-0.4-1.5c-0.1-0.8,0-1.5,0.1-1.5s0.3,0.6,0.4,1.5
								C257.4,333.9,257.3,334.6,257.2,334.6z"/>
						</g>
					</g>
					<g>
						<g>
							<path class="st6" d="M257.8,340.6c-0.1,0-0.3-0.6-0.4-1.5c-0.1-0.8,0-1.5,0.1-1.5s0.3,0.6,0.4,1.5
								C258,339.9,257.9,340.6,257.8,340.6z"/>
						</g>
					</g>
					<g>
						<g>
							<path class="st6" d="M258.4,346.6c-0.1,0-0.3-0.6-0.4-1.5c-0.1-0.8,0-1.5,0.1-1.5s0.3,0.6,0.4,1.5
								C258.6,345.9,258.5,346.6,258.4,346.6z"/>
						</g>
					</g>
					<g>
						<g>
							<path class="st6" d="M259,352.6c-0.1,0-0.3-0.6-0.4-1.5c-0.1-0.8,0-1.5,0.1-1.5s0.3,0.6,0.4,1.5
								C259.2,351.9,259.1,352.6,259,352.6z"/>
						</g>
					</g>
					<g>
						<g>
							<path class="st6" d="M259.6,358.6c-0.1,0-0.3-0.6-0.4-1.5c-0.1-0.8,0-1.5,0.1-1.5s0.3,0.6,0.4,1.5
								C259.8,357.9,259.7,358.6,259.6,358.6z"/>
						</g>
					</g>
					<g>
						<g>
							<path class="st6" d="M260.2,364.6c-0.1,0-0.3-0.6-0.4-1.5c-0.1-0.8,0-1.5,0.1-1.5s0.3,0.6,0.4,1.5
								C260.4,363.9,260.4,364.6,260.2,364.6z"/>
						</g>
					</g>
					<g>
						<g>
							<path class="st6" d="M260.8,370.6c-0.1,0-0.3-0.6-0.4-1.5c-0.1-0.8,0-1.5,0.1-1.5s0.3,0.6,0.4,1.5
								C261,369.9,261,370.6,260.8,370.6z"/>
						</g>
					</g>
					<g>
						<g>
							<path class="st6" d="M261.4,376.6c-0.1,0-0.3-0.6-0.4-1.5c-0.1-0.8,0-1.5,0.1-1.5s0.3,0.6,0.4,1.5
								C261.6,375.9,261.6,376.6,261.4,376.6z"/>
						</g>
					</g>
					<g>
						<g>
							<path class="st6" d="M261.9,381.1c-0.1,0-0.3-0.3-0.3-0.7c0-0.4,0-0.8,0.2-0.8c0.1,0,0.3,0.3,0.3,0.7
								C262.1,380.8,262,381.1,261.9,381.1z"/>
						</g>
					</g>
				</g>
				<g>
					<g>
						<path class="st6" d="M276.5,306.8c-0.1,0-0.2-1.5-0.6-3.8s-1.1-5.5-2.4-8.9s-3-6.2-4.2-8.2s-2-3.3-2-3.3s0.3,0.3,0.7,0.8
							c0.4,0.5,1,1.3,1.6,2.3c1.3,2,3.1,4.8,4.4,8.2c1.3,3.4,2,6.7,2.3,9c0.1,1.2,0.2,2.1,0.3,2.8
							C276.6,306.4,276.6,306.8,276.5,306.8z"/>
					</g>
				</g>
				<g>
					<polygon class="st6" points="256.2,377.7 257,382.4 285.5,379.2 284.7,373.5 					"/>
				</g>
				<g>
					<g>
						<path class="st6" d="M240.9,223.1c0,0,0,0.7-0.1,1.9c-0.1,1.2-0.2,2.9-0.4,5v-0.1c0.6,1.9,1.6,4.2,2.8,6.5
							c1.7,3.4,3.4,6.5,4.5,8.8c0.6,1.1,1,2.1,1.2,2.7c0.3,0.7,0.4,1,0.4,1s-0.2-0.3-0.6-1s-0.8-1.6-1.4-2.6
							c-1.2-2.2-2.9-5.3-4.6-8.7c-1.2-2.3-2.2-4.6-2.8-6.6l0,0l0,0c0.2-2,0.4-3.7,0.6-4.9C240.8,223.8,240.9,223.1,240.9,223.1z"/>
					</g>
				</g>
			</g>
			<g>
				<g>
					<g>
						<path class="st13" d="M275.7,211.9c-0.1-2.2-5.5-4-7.7-4.6l0,0l-0.7-0.1c-0.1,0-0.2-0.1-0.2-0.1l0,0l-41.3-8.8l-4.6-16.1
							h-14.9c0.4,0.7,3.4,27.3,11.5,29.2c8,1.9,42.4,4.7,42.4,4.7s1.1,0.1,2.6,0.3c0,0,0,0,0,0.1c0,1.4,1.5,1.5,3.1,1.6
							c4,0.2,5.1-1.5,5.1-1.5l0,0c1.2-0.9,2.2-2.7,2.2-2.7s0.9,2.7,1.3,4.3c0.5,2.3,1.4,2,1.4,2S275.8,213.5,275.7,211.9z"/>
					</g>
					<g>
						<g>
							<path class="st16" d="M268.8,216.9c0,0.1-1.4,0.1-3.1,0s-3.1-0.4-3.1-0.5s1.4-0.1,3.1,0C267.4,216.5,268.8,216.7,268.8,216.9
								z"/>
						</g>
					</g>
					<g>
						<g>
							<path class="st16" d="M270,215c0,0,0.1-0.1,0.4,0c0.2,0,0.6,0.2,0.8,0.6c0.2,0.4,0.1,0.8-0.1,1s-0.4,0.2-0.4,0.1
								c0,0,0.1-0.1,0.2-0.3c0.1-0.2,0.2-0.4,0-0.7C270.6,215.1,270,215.1,270,215z"/>
						</g>
					</g>
					<g>
						<g>
							<path class="st16" d="M271.6,213.1c0-0.1,0.7-0.1,0.9,0.6c0.3,0.7-0.2,1.2-0.3,1.1c-0.1,0,0.2-0.5,0-1
								S271.6,213.2,271.6,213.1z"/>
						</g>
					</g>
				</g>
				<g>
					<path class="st9" d="M268.8,207.6l4-7.2c0.6-0.1,0.9,0,1,0.4l-3.9,7.2L268.8,207.6z"/>
				</g>
				<g>
					<polygon class="st9" points="264.2,216.3 262.6,219.3 262.6,220.9 264.2,219.8 266,216.6 					"/>
				</g>
			</g>
			<g>
				<g>
					<g>
						<path class="st13" d="M241.9,151.2c0.1-4.6,0.3-4.6,0.3-4.6s5.3,0.5,8.2-8.6c1.9-6-1.3-5.5,0.1-12.2
							c1.6-7.6-0.8-13.2-0.8-13.2l0,0c-8.2-3.9-20.6,1.4-26.5,8.2l-0.4,5.8l3.4,10.9c1.1,2.6,1.8,7.4,1.1,10.1l-1.7,3.5
							c0,4.5,3.6,8.2,8.1,8.2l0,0C238.1,159.4,241.8,155.8,241.9,151.2z"/>
					</g>
					<g>
						<path class="st7" d="M242.2,146.6c0,0-5,0.1-10-3.3c0,0,2.3,5.6,9.8,5.1L242.2,146.6z"/>
					</g>
				</g>
				<g>
					<path class="st6" d="M230.1,112c2.6,4.6,9.6,9.6,14.8,10.9c-0.6-0.9-3.7-3.4-4.2-4.3c2.3,2.1,5.5,5,8.6,5.3
						c0.4,0,0.8,0.1,1.1-0.1c0.4-0.3,0.5-0.8,0.6-1.3c0.3-2.1,0.3-5.7,0-7.8c-0.2-2.1-1-4.2-2.5-5.7c-1.9-1.9-4.8-2.4-7.5-2.6
						c-2.3-0.2-4.6-0.1-6.7,0.7s-3.9,2.6-4.3,4.9"/>
				</g>
				<g>
					<path class="st6" d="M231.8,113c0,0,2.3,9.1-3.5,15c0,0-0.8,8.5-4.8,12.5c0,0-2.1-10.4-2.2-14.4s-1.9-18.7,11.3-17L231.8,113z"
						/>
				</g>
				<g>
					<g>
						<path class="st6" d="M239.2,119c0.1,0-0.2,0.7-1.3,1c-0.5,0.1-1.2,0.1-1.9-0.1c-0.7-0.2-1.3-0.7-1.9-1.2
							c-1.2-1-1.9-2.3-2.3-3.2s-0.5-1.6-0.4-1.6c0.2-0.1,0.9,2.3,3.2,4.3c1.1,1,2.3,1.5,3.2,1.4C238.8,119.5,239.2,119,239.2,119z"
							/>
					</g>
				</g>
			</g>
		</g>
		<g>
			<g>
				<polygon class="st9" points="239.1,223 240.2,221.9 267.9,221.9 268.8,223.1 				"/>
			</g>
			<g>
				<g>
					<g>
						<polygon class="st6" points="138.9,225.6 174.1,387.5 178.3,387.5 142.6,225.6 						"/>
					</g>
					<g>
						<polyline class="st6" points="175.1,225.6 138.9,387.5 142.5,387.5 178.3,225.6 175.1,225.6 						"/>
					</g>
					<g>
						<polygon class="st6" points="145.7,366 171.1,366 171.1,362.7 146.8,362.7 						"/>
					</g>
				</g>
				<g>
					<g>
						<polygon class="st6" points="348.2,225.6 383.4,387.9 387.5,387.9 351.8,225.6 						"/>
					</g>
					<g>
						<polyline class="st6" points="384.3,225.6 348.2,387.9 351.7,387.9 387.5,225.6 384.3,225.6 						"/>
					</g>
					<g>
						<polygon class="st6" points="355,366.4 380.3,366.4 380.3,363.1 356,363.1 						"/>
					</g>
				</g>
				<g>
					<g>
						<g>
							<g>
								<polygon class="st6" points="350.8,180.8 336.4,223 271,223 271.5,220.8 298,220 310.1,180.8 								"/>
							</g>
						</g>
						<g>
							<g>
								<path class="st3" d="M321.9,200.6c-0.4,1.7,0.3,3.4,1.7,3.8c1.3,0.4,2.8-0.7,3.2-2.5c0.4-1.7-0.3-3.4-1.7-3.8
									C323.7,197.8,322.3,198.9,321.9,200.6z"/>
							</g>
						</g>
					</g>
					<g>
						<g>
							<polygon class="st3" points="324.7,209.7 326.1,213.2 339.5,206.8 338.2,203.3 							"/>
						</g>
						<g>
							<polygon class="st9" points="325.8,210 326.7,211.9 338.5,206.4 337.8,204 							"/>
						</g>
					</g>
					<g>
						<g>
							<path class="st3" d="M338.6,190.3c0,2.3-1.9,4.2-4.2,4.2c-2.3,0-4.2-1.9-4.2-4.2s1.9-4.2,4.2-4.2
								C336.7,186,338.6,187.9,338.6,190.3z"/>
						</g>
						<g>
							<path class="st7" d="M333.7,186.9c-1.5,0.4-2.6,1.9-2.6,3.4s1.2,3,2.7,3.4c0.7,0.2,1.4,0.2,2.1-0.1c0.6-0.3,1.1-0.9,1.4-1.5
								c0.4-0.9,0.6-1.9,0.4-2.8c-0.2-1-1-1.9-2-2.3c-1-0.4-2.1-0.2-3,0.4"/>
						</g>
					</g>
					<g>
						<g>
							<polygon class="st3" points="309.8,208.3 313.9,206.5 316.7,208.7 314.6,213.7 309.4,211.6 							"/>
						</g>
						<g>
							<polygon class="st7" points="310.1,208.7 313.7,207 316.1,208.9 314.3,213.1 309.9,211.4 							"/>
						</g>
					</g>
				</g>
				<g>
					<rect x="119.1" y="223" class="st6" width="285.6" height="2.8"/>
				</g>
				<g>
					<g>
						<g>
							<path class="st7" d="M369.1,203.1c-3.1-3.2-5-7.6-5.2-12.1c-0.1-2.2,0.2-4.5,1.7-6.1c1.9-2,5.5-2.1,7.4-0.1c2,2,2,5.2,1.5,8
								c-0.7,4.1-2.8,7.2-5.2,10.6"/>
						</g>
						<g>
							<path class="st7" d="M373.7,203.1c0.8-3.3,2.7-6.2,5.4-8.2c1.3-0.9,2.9-1.7,4.5-1.4c2,0.3,3.5,2.6,3.1,4.6
								c-0.4,2.1-2.4,3.4-4.4,4.2c-2.9,1.2-5.6,1.1-8.8,1.1"/>
						</g>
						<g>
							<g>
								<path class="st6" d="M369.1,212.2c-0.1,0-0.2-4.2-0.1-9.4s0.3-9.4,0.5-9.4c0.1,0,0.2,4.2,0.1,9.4S369.3,212.2,369.1,212.2z"
									/>
							</g>
						</g>
						<g>
							<g>
								<path class="st6" d="M382.8,197.5c0,0.1-0.7,0.6-1.9,1.4c-1.2,0.8-2.9,1.9-4.8,3s-3.7,2-5,2.7c-1.3,0.6-2.1,1-2.2,0.9
									c0-0.1,0.7-0.5,2-1.3c1.4-0.8,3.1-1.8,4.9-2.8c1.8-1.1,3.5-2,4.9-2.8C382,197.9,382.8,197.5,382.8,197.5z"/>
							</g>
						</g>
						<g>
							<polyline class="st9" points="360.1,210.7 379.1,211.6 377.2,223.1 362,223.1 360.1,210.7 							"/>
						</g>
					</g>
					<g>
						<g>
							<path class="st6" d="M369.4,208.3c0,0.1-1.8-0.2-3.9-1.1c-2.1-0.9-3.6-1.9-3.6-2c0.1-0.1,1.7,0.7,3.8,1.5
								C367.7,207.5,369.4,208.1,369.4,208.3z"/>
						</g>
					</g>
				</g>
			</g>
		</g>
	</g>
	<g>
		<path class="st13" d="M230.1,133.9c-0.9,1.2-2.5,0.4-3.5-1.1s-1.4-4.6,0-5.4c1.4-0.8,2.6,0.9,2.6,0.9s0.3,3.1,0.6,4.3L230.1,133.9
			z"/>
		<g>
			<g>
				<g>
					<path class="st17" d="M229.6,131.2c-0.1,0-0.1,0-0.1-0.1c-1.1-2.2-2.6-1.8-2.6-1.7c-0.1,0-0.2,0-0.2-0.1s0-0.2,0.1-0.2
						c0,0,1.8-0.5,3,1.9C229.7,131.1,229.7,131.1,229.6,131.2L229.6,131.2z"/>
				</g>
			</g>
			<g>
				<path class="st17" d="M228.1,132.3c0,0-0.1,0-0.1-0.1c-0.3-0.4-0.5-0.8-0.4-1.3c0.2-0.8,1-1.2,1-1.2c0.1,0,0.2,0,0.2,0.1
					s0,0.2-0.1,0.2c0,0-0.8,0.4-0.9,1.1c-0.1,0.3,0,0.7,0.3,1C228.3,132.2,228.3,132.3,228.1,132.3
					C228.2,132.3,228.1,132.3,228.1,132.3z"/>
			</g>
		</g>
	</g>
	<g>
		<g>
			<path class="st17" d="M242.2,135.5c-0.4,0-0.8-0.2-0.9-0.7c-0.1-0.1-0.1-0.3-0.1-0.5l-0.1-1.9c0-0.1,0.1-0.3,0.2-0.3
				s0.2,0.1,0.2,0.2l0.1,1.9c0,0.1,0,0.2,0.1,0.3c0.1,0.3,0.4,0.5,0.7,0.3l0.4-0.2c0.1,0,0.2,0,0.3,0.2c0,0.1,0,0.3-0.1,0.3
				l-0.4,0.2C242.4,135.4,242.3,135.5,242.2,135.5z"/>
		</g>
		<g>
			
				<ellipse transform="matrix(0.9983 -5.846715e-02 5.846715e-02 0.9983 -7.2109 14.1441)" class="st17" cx="238.1" cy="130.3" rx="0.8" ry="1"/>
		</g>
		<g>
			
				<ellipse transform="matrix(0.9983 -5.846715e-02 5.846715e-02 0.9983 -7.1751 14.5762)" class="st17" cx="245.5" cy="129.9" rx="0.8" ry="1"/>
		</g>
		<g>
			<path class="st17" d="M242.4,138.4c-1.6,0.1-2.9-0.8-3-0.8c-0.1-0.1-0.1-0.2-0.1-0.3c0.1-0.1,0.2-0.2,0.3-0.1
				c0,0,1.2,0.8,2.8,0.7c1.5-0.1,2.6-1.1,2.6-1.1c0.1-0.1,0.2-0.1,0.3,0.1c0.1,0.1,0,0.3,0,0.4C245.2,137.3,244,138.3,242.4,138.4z"
				/>
		</g>
	</g>
	<g>
		<path class="st17" d="M235.4,127.7c-0.1,0-0.3-0.1-0.4-0.2c-0.2-0.2-0.1-0.5,0.1-0.7c0.1-0.1,2.4-1.9,4.2-0.4
			c0.2,0.2,0.2,0.5,0,0.7s-0.5,0.2-0.7,0c-1.2-1-2.9,0.4-2.9,0.4C235.6,127.6,235.5,127.7,235.4,127.7z"/>
	</g>
	<g>
		<path class="st17" d="M244.1,127.1c-0.1,0-0.3-0.1-0.4-0.2c-0.2-0.2-0.1-0.5,0.1-0.7c0.1-0.1,2.4-1.9,4.2-0.4
			c0.2,0.2,0.2,0.5,0,0.7s-0.5,0.2-0.7,0c-1.2-1-2.9,0.4-2.9,0.4C244.3,127.1,244.2,127.1,244.1,127.1z"/>
	</g>
	<path class="st6" d="M216.4,132.2c3.1,2.8,3.4,0.9,7.4,2.3c5.8,2,15.3,10.4,6.9,18.9c-6.3,6.3-12.5-4.9-17.9-1.5
		C208.6,154.4,205.2,122.2,216.4,132.2z"/>
	<path class="st18" d="M257.2,137.8"/>
	<path class="st18" d="M260.1,119.9"/>
	<path class="st18" d="M228.7,110.4c0,0,18-15.2,27,3.4"/>
</g>
</svg>
