<?xml version="1.0" encoding="utf-8"?>
<!-- Generator: Adobe Illustrator 23.0.4, SVG Export Plug-In . SVG Version: 6.00 Build 0)  -->
<svg version="1.1" xmlns="http://www.w3.org/2000/svg" xmlns:xlink="http://www.w3.org/1999/xlink" x="0px" y="0px"
	 viewBox="0 0 750 500" style="enable-background:new 0 0 750 500;" xml:space="preserve">
<style type="text/css">
	.st0{fill:#EBEBEB;}
	.st1{fill:#F5F5F5;}
	.st2{fill:#E0E0E0;}
	.st3{fill:#FFFFFF;}
	.st4{display:none;}
	.st5{display:inline;}
	.st6{fill:#263238;}
	.st7{fill:#334A8C;}
	.st8{opacity:0.2;}
	.st9{fill:#455A64;}
	.st10{fill:#4D4D4D;}
	.st11{fill:#B3B3B3;}
	.st12{fill:#CCCCCC;}
	.st13{fill:#7D96EE;}
	.st14{fill:#ED1C24;}
	.st15{fill:#EB996E;}
	.st16{fill:#202020;}
	.st17{fill:none;stroke:#263238;stroke-width:0.5;stroke-miterlimit:10;}
</style>
<g id="Background_Complete">
	<g>
		<g>
			<path class="st0" d="M515.3,370.4c-0.3,0.9,10,40,10,40l7.1-1.5l-9.7-38.5H515.3z"/>
		</g>
		<g>
			<polygon class="st1" points="570,364.8 555.9,410.4 564.1,410.4 577.6,368 			"/>
		</g>
		<g>
			<polygon class="st0" points="582.9,357.7 566.7,410.4 575,410.4 590.6,360.9 			"/>
		</g>
		<g>
			<polygon class="st2" points="520.3,407.1 528.5,435.7 570,435.7 577.6,407.1 			"/>
		</g>
		<g>
			<g>
				<path class="st2" d="M541.7,407.1c0,0,0-0.1-0.1-0.3c-0.1-0.2-0.1-0.5-0.2-0.9c-0.2-0.8-0.5-1.9-0.8-3.4
					c-0.7-3-1.6-7.2-2.8-12.5c-2.4-10.6-5.6-25.2-9.3-41.5l0.3,0.2c-1.2,0-2.4,0-3.7,0c-1.2,0-2.5,0-3.6,0l0.3-0.3
					c3.7,16.3,7,31,9.4,41.6c1.2,5.3,2.1,9.5,2.8,12.5c0.3,1.4,0.5,2.6,0.7,3.4c0.1,0.4,0.1,0.7,0.2,0.9c0,0.2,0.1,0.3,0,0.3
					c0,0,0-0.1-0.1-0.3c-0.1-0.2-0.1-0.5-0.2-0.9c-0.2-0.8-0.5-1.9-0.8-3.4c-0.7-3-1.7-7.2-2.9-12.5c-2.4-10.6-5.8-25.2-9.5-41.5
					l-0.1-0.3l0.3,0c1.1,0,2.4,0,3.6,0c1.3,0,2.5,0,3.7,0h0.2l0,0.2c3.6,16.3,6.8,31,9.2,41.6c1.1,5.3,2.1,9.5,2.7,12.5
					c0.3,1.4,0.5,2.6,0.7,3.4c0.1,0.4,0.1,0.7,0.2,0.9C541.7,407,541.7,407.1,541.7,407.1z"/>
			</g>
		</g>
	</g>
	<g>
		<g>
			<g>
				<rect x="206.1" y="74.8" class="st1" width="70.2" height="48.9"/>
			</g>
			<g>
				<rect x="206.1" y="74.8" class="st2" width="70.2" height="6.1"/>
			</g>
			<g>
				<path class="st3" d="M209.9,78c0,0.4-0.3,0.8-0.7,0.8s-0.7-0.3-0.7-0.8c0-0.4,0.3-0.8,0.7-0.8S209.9,77.6,209.9,78z"/>
			</g>
			<g>
				<path class="st3" d="M212.9,78c0,0.4-0.3,0.8-0.7,0.8c-0.4,0-0.7-0.3-0.7-0.8c0-0.4,0.3-0.8,0.7-0.8
					C212.6,77.2,212.9,77.6,212.9,78z"/>
			</g>
			<g>
				<path class="st3" d="M215.9,78c0,0.4-0.3,0.8-0.7,0.8c-0.4,0-0.7-0.3-0.7-0.8c0-0.4,0.3-0.8,0.7-0.8
					C215.6,77.2,215.9,77.6,215.9,78z"/>
			</g>
		</g>
		<rect x="212.8" y="86.9" class="st2" width="10" height="24"/>
		<rect x="228.2" y="86.9" class="st0" width="10" height="24"/>
		<rect x="243.7" y="86.9" class="st3" width="10" height="24"/>
		<rect x="259.1" y="87.1" class="st0" width="10" height="24"/>
		<rect x="211.6" y="113.5" class="st0" width="60.7" height="5.5"/>
		<polygon class="st2" points="264,117.2 265.3,123.8 266.4,121.9 268.7,125.2 269.8,124.5 267.5,121.2 269.6,120.9 		"/>
	</g>
	<g>
		<g>
			<rect x="141.3" y="140.6" class="st1" width="122.9" height="85.6"/>
		</g>
		<g>
			<rect x="141.3" y="140.6" class="st2" width="122.9" height="10.7"/>
		</g>
		<g>
			<path class="st3" d="M148,146.2c0,0.7-0.6,1.3-1.3,1.3c-0.7,0-1.3-0.6-1.3-1.3c0-0.7,0.6-1.3,1.3-1.3
				C147.4,144.9,148,145.5,148,146.2z"/>
		</g>
		<g>
			<path class="st3" d="M153.2,146.2c0,0.7-0.6,1.3-1.3,1.3s-1.3-0.6-1.3-1.3c0-0.7,0.6-1.3,1.3-1.3S153.2,145.5,153.2,146.2z"/>
		</g>
		<g>
			<path class="st3" d="M158.4,146.2c0,0.7-0.6,1.3-1.3,1.3s-1.3-0.6-1.3-1.3c0-0.7,0.6-1.3,1.3-1.3S158.4,145.5,158.4,146.2z"/>
		</g>
	</g>
</g>
<g id="Background_Simple" class="st4">
	<g class="st5">
		<g>
			<path class="st1" d="M405,172.1c25.5-2,32-4.6,57.3-8.2c31.7-4.5,47.5-8.5,78.9-2.5c31.4,6,62.3,24.6,74.5,54.2
				c15.3,37.2-3.6,81.7-34.7,107.1c-31.1,25.5-71.8,35.7-111.4,42.9c-34.4,6.2-69.3,10.6-104.2,8.8c-34.9-1.8-69.9-10.1-100-27.9
				c-37.5-22.1-65.3-57.6-86.7-95.5c-15.5-27.5-28.4-57.4-29.7-88.9c-1.3-31.5,10.6-64.9,36.3-83.2c32.4-23,78.8-16.5,112,5.3
				c29.9,19.7,40.8,32.9,58.2,59.9c6.8,10.5,16.4,19,27.9,23.9C389.9,170.9,397.3,172.7,405,172.1z"/>
		</g>
	</g>
</g>
<g id="Floor">
	<g>
		<g>
			<path class="st6" d="M657.6,434.9c0,0.1-126.5,0.3-282.6,0.3c-156.1,0-282.6-0.1-282.6-0.3s126.5-0.3,282.6-0.3
				C531.1,434.6,657.6,434.7,657.6,434.9z"/>
		</g>
	</g>
</g>
<g id="Plant">
	<g>
		<g>
			<g>
				<g>
					<g>
						<path class="st7" d="M151.4,241.8c-6.6,0.6-10,8.4-9.8,15c0.1,6.6,2.4,13.2,1.3,19.6c-1.4,8.2-8.2,14.8-9.4,23.1
							c-1.5,9.7,4.9,18.9,6.3,28.6c0.7,4.7,0.2,9.7,1.7,14.3c2.5,7.7,10.8,13.1,18.8,12.2c8-0.9,14.9-8,15.6-16.1
							c0.6-7.5-3.6-14.9-2.5-22.4c0.8-5.5,4.4-10.6,4-16.1c-0.4-6.6-6.2-11.7-7.9-18.1c-1.7-6.4,0.8-13.2,0.4-19.8
							C169.3,250.3,163.3,241.6,151.4,241.8"/>
						<path class="st8" d="M151.4,241.8c-6.6,0.6-10,8.4-9.8,15c0.1,6.6,2.4,13.2,1.3,19.6c-1.4,8.2-8.2,14.8-9.4,23.1
							c-1.5,9.7,4.9,18.9,6.3,28.6c0.7,4.7,0.2,9.7,1.7,14.3c2.5,7.7,10.8,13.1,18.8,12.2c8-0.9,14.9-8,15.6-16.1
							c0.6-7.5-3.6-14.9-2.5-22.4c0.8-5.5,4.4-10.6,4-16.1c-0.4-6.6-6.2-11.7-7.9-18.1c-1.7-6.4,0.8-13.2,0.4-19.8
							C169.3,250.3,163.3,241.6,151.4,241.8"/>
					</g>
					<g>
						<g>
							<path class="st7" d="M114.6,296.9c-1.8,10.9,2.2,24,7.2,33.9c5,9.8,13.3,17.9,23.1,22.8c1.1,0.6,2.5,1,3.5,0.3
								c0.8-0.6,1-1.7,1.1-2.7c0.8-11.5-2.2-23.3-8.4-33C134.8,308.5,125.4,300.9,114.6,296.9"/>
						</g>
					</g>
					<g>
						<g>
							<g>
								<path class="st6" d="M157.2,377.3c0,0-0.1-0.2-0.3-0.6c-0.2-0.5-0.4-1.1-0.7-1.8c-0.6-1.6-1.4-3.9-2.5-6.8
									c-2.1-5.7-5.4-13.4-9.5-21.7c-4.2-8.3-8.4-15.5-11.7-20.6c-1.6-2.6-3-4.6-3.9-6c-0.4-0.7-0.8-1.2-1.1-1.6
									c-0.2-0.4-0.4-0.6-0.3-0.6c0,0,0.2,0.2,0.4,0.5c0.3,0.4,0.7,0.9,1.2,1.6c1,1.4,2.4,3.4,4.1,5.9c3.4,5.1,7.7,12.3,11.9,20.6
									c4.2,8.3,7.3,16.1,9.4,21.9c1,2.9,1.8,5.2,2.3,6.8c0.2,0.8,0.4,1.4,0.6,1.9C157.2,377.1,157.3,377.3,157.2,377.3z"/>
							</g>
						</g>
					</g>
					<g>
						<g>
							<g>
								<path class="st6" d="M156.9,272.6c0,0,0,0.4,0.1,1.1c0,0.7,0,1.8,0,3c0,2.7,0,6.5,0,11.1c0,9.4,0,22.4,0.1,36.7
									c0.1,14.3,0.2,27.3,0.4,36.7c0.1,4.7,0.1,8.4,0.1,11.1c0,1.3,0,2.3,0,3c0,0.7,0,1.1,0,1.1c0,0-0.1-0.4-0.1-1.1
									c0-0.7-0.1-1.8-0.1-3c-0.1-2.7-0.2-6.5-0.3-11.1c-0.2-9.4-0.5-22.4-0.6-36.7c-0.1-14.3,0-27.3,0.1-36.7
									c0.1-4.7,0.2-8.4,0.2-11.1c0-1.3,0.1-2.3,0.1-3C156.9,272.9,156.9,272.6,156.9,272.6z"/>
							</g>
						</g>
					</g>
				</g>
			</g>
			<g>
				<polygon class="st9" points="141.3,362.1 144.6,434.1 167.6,434.1 170.2,365.4 				"/>
			</g>
		</g>
		<g>
			<g>
				<path class="st6" d="M169.5,380c0,0-0.4,0.2-1,0.4c-0.7,0.2-1.7,0.4-3,0.6c-1.3,0.1-2.8,0.2-4.5,0.1c-1.7-0.1-3.5-0.5-5.4-1
					c-1.9-0.5-3.6-1-5.3-1.2c-1.6-0.2-3.1-0.2-4.4,0c-2.5,0.4-3.7,1.5-3.8,1.4c0,0,0.3-0.3,0.9-0.7c0.6-0.4,1.6-0.8,2.8-1.1
					c1.3-0.3,2.8-0.3,4.5-0.1c1.7,0.2,3.5,0.7,5.3,1.2c3.7,1.1,7.2,1.3,9.7,1C167.9,380.3,169.4,379.9,169.5,380z"/>
			</g>
		</g>
		<g>
			<g>
				<path class="st6" d="M168.9,387.9c0,0-0.3-0.3-0.8-0.7c-0.6-0.4-1.5-0.9-2.8-1.1c-1.3-0.2-2.8,0-4.4,0.5
					c-1.6,0.5-3.3,1.3-5.3,1.8c-3.9,1-7.7,0.1-10-1c-1.2-0.6-2.1-1.1-2.6-1.6c-0.6-0.5-0.8-0.7-0.8-0.8c0.1-0.1,1.3,1,3.6,2
					c2.3,1,6,1.8,9.7,0.8c1.9-0.5,3.6-1.3,5.3-1.8c1.6-0.5,3.3-0.7,4.6-0.4c1.3,0.2,2.3,0.8,2.8,1.3c0.3,0.2,0.5,0.5,0.6,0.6
					C168.8,387.8,168.9,387.8,168.9,387.9z"/>
			</g>
		</g>
		<g>
			<g>
				<path class="st6" d="M169.1,397.7c0,0-0.1,0.1-0.3,0.1c-0.2,0.1-0.4,0.1-0.8,0.2c-0.7,0.1-1.8,0-2.9-0.4
					c-1.2-0.4-2.5-1.2-3.9-1.9c-1.5-0.7-3.1-1.3-5-1.8c-3.7-0.9-7.1-0.8-9.6-0.4c-2.4,0.3-3.9,0.9-3.9,0.8c0,0,0.3-0.2,1-0.4
					c0.7-0.2,1.6-0.5,2.9-0.7c2.5-0.5,6-0.6,9.7,0.3c1.9,0.4,3.6,1.1,5.1,1.9c1.5,0.8,2.7,1.5,3.9,2c1.1,0.5,2.1,0.6,2.8,0.6
					C168.8,397.7,169.1,397.6,169.1,397.7z"/>
			</g>
		</g>
		<g>
			<g>
				<path class="st6" d="M143.2,404.3c0,0,0.4,0.1,1,0.1c0.7,0,1.6-0.1,2.7-0.7c1.1-0.5,2.2-1.5,3.5-2.4c0.7-0.5,1.4-1,2.2-1.3
					c0.8-0.3,1.8-0.6,2.7-0.6c1.9-0.1,3.7,0.2,5.3,0.5c1.6,0.3,3,0.6,4.2,0.8c1.2,0.2,2.2,0.1,2.9,0.1c0.7-0.1,1.1-0.1,1.1-0.1
					c0,0-0.4,0.1-1,0.3c-0.7,0.1-1.7,0.2-2.9,0.1c-1.2-0.1-2.7-0.4-4.3-0.7c-1.6-0.3-3.4-0.6-5.2-0.5c-0.9,0.1-1.8,0.3-2.6,0.6
					c-0.8,0.3-1.5,0.8-2.2,1.2c-1.3,0.9-2.5,1.9-3.6,2.4c-1.1,0.5-2.2,0.6-2.9,0.5c-0.4,0-0.6-0.1-0.8-0.2
					C143.3,404.3,143.2,404.3,143.2,404.3z"/>
			</g>
		</g>
		<g>
			<g>
				<path class="st6" d="M168.8,410.5c0,0.1-1.2-0.9-3.6-0.9c-2.3-0.1-5.4,1.2-9,1.3c-3.6,0.2-6.9-0.2-9.1-0.8
					c-1.1-0.3-2-0.6-2.7-0.8c-0.6-0.2-0.9-0.4-0.9-0.4c0-0.1,1.4,0.4,3.7,0.9c2.3,0.5,5.5,0.9,9,0.7c1.8-0.1,3.4-0.4,4.9-0.7
					c1.5-0.3,2.9-0.6,4.1-0.5c1.2,0,2.1,0.4,2.7,0.7C168.6,410.2,168.8,410.5,168.8,410.5z"/>
			</g>
		</g>
	</g>
</g>
<g id="Windows">
</g>
<g id="Character">
	<g>
		<path class="st10" d="M653.1,249.5c0,1.8-1.4,3.2-3.2,3.2H346c-1.8,0-3.2-1.4-3.2-3.2V59.3c0-1.8,1.4-3.2,3.2-3.2h303.9
			c1.8,0,3.2,1.4,3.2,3.2V249.5z"/>
		<path class="st3" d="M643.3,239.4c0,1.6-1.3,2.9-3,2.9H355.6c-1.7,0-3-1.3-3-2.9V68.2c0-1.6,1.3-2.9,3-2.9h284.7
			c1.7,0,3,1.3,3,2.9V239.4z"/>
		<g>
			<g>
				<path class="st11" d="M422.7,48.1c1.6,0,2.9,1.3,2.9,2.9h1c0-2.2-1.8-4-4-4c-2.2,0-4,1.8-4,4h1
					C419.8,49.4,421.1,48.1,422.7,48.1z"/>
				<path class="st11" d="M426.9,51.3h-1.5V51c0-1.5-1.2-2.7-2.7-2.7c-1.5,0-2.7,1.2-2.7,2.7v0.3h-1.5V51c0-2.3,1.9-4.2,4.2-4.2
					c2.3,0,4.2,1.9,4.2,4.2V51.3z M425.9,50.8h0.5c-0.1-1.9-1.7-3.5-3.7-3.5c-2,0-3.6,1.5-3.7,3.5h0.5c0.1-1.6,1.5-2.9,3.2-2.9
					C424.4,47.8,425.8,49.1,425.9,50.8z"/>
			</g>
			<g>
				<path class="st11" d="M422.7,55c-2.2,0-4-1.8-4-4v7.4h7.9V51C426.7,53.2,424.9,55,422.7,55z"/>
				<path class="st11" d="M426.9,58.7h-8.4V51h0.5c0,2,1.7,3.7,3.7,3.7c2,0,3.7-1.7,3.7-3.7h0.5V58.7z M419,58.2h7.4V53
					c-0.7,1.3-2.1,2.2-3.7,2.2c-1.6,0-3-0.9-3.7-2.2V58.2z"/>
			</g>
			<g>
				<path class="st11" d="M422.7,55c2.2,0,4-1.8,4-4h-1c0,1.6-1.3,2.9-2.9,2.9c-1.6,0-2.9-1.3-2.9-2.9h-1
					C418.8,53.2,420.5,55,422.7,55z"/>
				<path class="st11" d="M422.7,55.2c-2.3,0-4.2-1.9-4.2-4.2v-0.3h1.5V51c0,1.5,1.2,2.7,2.7,2.7c1.5,0,2.7-1.2,2.7-2.7v-0.3h1.5V51
					C426.9,53.3,425,55.2,422.7,55.2z M419,51.3c0.1,1.9,1.7,3.5,3.7,3.5c2,0,3.6-1.5,3.7-3.5h-0.5c-0.1,1.6-1.5,2.9-3.2,2.9
					c-1.7,0-3.1-1.3-3.2-2.9H419z"/>
			</g>
		</g>
		<g>
			<g>
				<path class="st11" d="M579.5,48.1c1.6,0,2.9,1.3,2.9,2.9h1c0-2.2-1.8-4-4-4c-2.2,0-4,1.8-4,4h1
					C576.6,49.4,577.9,48.1,579.5,48.1z"/>
				<path class="st11" d="M583.7,51.3h-1.5V51c0-1.5-1.2-2.7-2.7-2.7c-1.5,0-2.7,1.2-2.7,2.7v0.3h-1.5V51c0-2.3,1.9-4.2,4.2-4.2
					c2.3,0,4.2,1.9,4.2,4.2V51.3z M582.7,50.8h0.5c-0.1-1.9-1.7-3.5-3.7-3.5c-2,0-3.6,1.5-3.7,3.5h0.5c0.1-1.6,1.5-2.9,3.2-2.9
					S582.6,49.1,582.7,50.8z"/>
			</g>
			<g>
				<path class="st11" d="M579.5,55c-2.2,0-4-1.8-4-4v7.4h7.9V51C583.5,53.2,581.7,55,579.5,55z"/>
				<path class="st11" d="M583.7,58.7h-8.4V51h0.5c0,2,1.7,3.7,3.7,3.7c2,0,3.7-1.7,3.7-3.7h0.5V58.7z M575.8,58.2h7.4V53
					c-0.7,1.3-2.1,2.2-3.7,2.2c-1.6,0-3-0.9-3.7-2.2V58.2z"/>
			</g>
			<g>
				<path class="st11" d="M579.5,55c2.2,0,4-1.8,4-4h-1c0,1.6-1.3,2.9-2.9,2.9s-2.9-1.3-2.9-2.9h-1C575.6,53.2,577.3,55,579.5,55z"
					/>
				<path class="st11" d="M579.5,55.2c-2.3,0-4.2-1.9-4.2-4.2v-0.3h1.5V51c0,1.5,1.2,2.7,2.7,2.7c1.5,0,2.7-1.2,2.7-2.7v-0.3h1.5V51
					C583.7,53.3,581.8,55.2,579.5,55.2z M575.8,51.3c0.1,1.9,1.7,3.5,3.7,3.5c2,0,3.6-1.5,3.7-3.5h-0.5c-0.1,1.6-1.5,2.9-3.2,2.9
					s-3.1-1.3-3.2-2.9H575.8z"/>
			</g>
		</g>
		<rect x="361.1" y="242.2" class="st7" width="275.8" height="10.5"/>
		<rect x="361.1" y="56.1" class="st7" width="275.8" height="9.3"/>
		<rect x="342.8" y="75.1" class="st7" width="9.8" height="155.6"/>
		<rect x="643.3" y="75.1" class="st7" width="9.8" height="155.6"/>
		<g>
			<path class="st10" d="M412.1,239.7c0-0.6-0.5-1.1-1.1-1.1h-45.1c-0.6,0-1.1,0.5-1.1,1.1v1.5c0,0.6,0.5,1.1,1.1,1.1h45.1
				c0.6,0,1.1-0.5,1.1-1.1V239.7z"/>
			<path class="st12" d="M415.9,238.5c0,0.6-0.5,1.1-1.1,1.1h-52.6c-0.6,0-1.1-0.5-1.1-1.1v-10.8c0-0.6,0.5-1.1,1.1-1.1h52.6
				c0.6,0,1.1,0.5,1.1,1.1V238.5z"/>
		</g>
		<g>
			<g>
				<g>
					<path class="st13" d="M435.8,241.2c-0.8,0-1.4-0.6-1.4-1.4v-6.9c0-0.8,0.6-1.4,1.4-1.4h59.7c0.8,0,1.4,0.6,1.4,1.4v6.9
						c0,0.8-0.6,1.4-1.4,1.4H435.8z"/>
					<polygon class="st14" points="435.4,236.4 435.4,231.6 427.1,235.1 427.1,236.4 427.1,237.6 435.4,241.1 					"/>
					<path class="st14" d="M427.2,235.6c0,0-2.5,0.1-2.5,0.8c0,0.7,2.5,0.7,2.5,0.7V235.6z"/>
				</g>
				<rect x="439.6" y="238.3" class="st3" width="51.7" height="1.6"/>
			</g>
			<path class="st3" d="M435.8,231.6h-11.7c-0.8,0-1.4,0.6-1.4,1.4v6.9c0,0.8,0.6,1.4,1.4,1.4h11.7"/>
		</g>
	</g>
	<path class="st6" d="M303.6,173.3c3.1-3.3,5.6-7.2,7.8-12.6c2.3-5.8,9.8-3.5,9.8-3.5s6.3-7.2,15.7-4.7c9.4,2.5,12.7,8.5,12.9,15.7
		c0.2,7.1,6.5,8.3,11.3,16.5c8.5,14.6-5.8,26.9-31.9,23.5l0-0.2c-2.6,0.7-5.7,1-9.6,0.8C288.1,207.1,291.1,186.4,303.6,173.3z"/>
	<g>
		<g>
			<g>
				<g>
					<path class="st7" d="M301.6,299.8v-5c0,0-0.2-6.3,8.3-6.9c8.5-0.6,38.3-0.1,38.3-0.1s8.8-0.2,8.8,5.4c0,3.4,0,6.7,0,6.7
						L301.6,299.8z"/>
					<path class="st8" d="M301.6,299.8v-5c0,0-0.2-6.3,8.3-6.9c8.5-0.6,38.3-0.1,38.3-0.1s8.8-0.2,8.8,5.4c0,3.4,0,6.7,0,6.7
						L301.6,299.8z"/>
				</g>
				<g>
					<path class="st6" d="M301.6,299.8c0,0,25.9,1.6,27.2,6.7h4.8c0,0,3.2-5.3,23.5-6.5L301.6,299.8z"/>
				</g>
			</g>
			<g>
				<path class="st6" d="M310.5,434.6h40.5l-15.4-10.2l-0.2-58.9h7.5V364h-7.5l-0.1-16.6l-1.4-3.9l-0.2-43.4h-4.7
					c-0.2,0.9,0,43.3,0,43.3l-1.4,3.8V364h-12.3v1.6h12.3v58.9L310.5,434.6z"/>
			</g>
		</g>
		<g>
			<g>
				<path class="st13" d="M355.1,216.3c0,0,17.6,24.1,18.5,24.7c3,1.9,33.6,13.7,33.6,13.7l-1.7,10.6c0,0-39-11.1-41.3-12.7
					c-2.3-1.6-18.2-25.7-18.2-25.7L355.1,216.3z"/>
			</g>
			<g>
				<g>
					<g>
						<g>
							<path class="st7" d="M296.7,229.3l1.5-19.6c2.5-13.8,20.1-12.6,20.1-12.6l15.2-0.2c0,0,10.5,0.3,16.6,8.9
								c4.9,7,10.2,14.3,10.2,14.3L349,231.5l-4-6.9c0,0,2.2,2.4,1.8,6.6c-0.5,5.3-4.3,6.3-4.3,6.3l1.7,35.5l-47.9-0.4l7.9-18.3
								l-1.6-25.6L296.7,229.3z"/>
						</g>
					</g>
				</g>
				<g>
					<g>
						<g>
							<g>
								<path class="st7" d="M315.3,229.5c0.4-0.1,0.9,0.5,1.1,1.3c0.2,0.7,0.2,1.5-0.2,1.7c-0.4,0.2-1-0.3-1.3-1.2
									C314.6,230.4,314.8,229.6,315.3,229.5z"/>
							</g>
						</g>
						<g>
							<g>
								<path class="st7" d="M316.7,210.5c0.4,0.1,0.7,1.4,0.5,3.1c-0.1,1.7-0.6,3-1,3c-0.4,0-0.7-1.4-0.5-3.1
									C315.8,211.8,316.3,210.5,316.7,210.5z"/>
							</g>
						</g>
						<g>
							<g>
								<path class="st7" d="M313.9,224c-0.4,0-0.7-0.5-0.5-1.1c0.3-0.5,0.9-0.6,1.2-0.3c0.3,0.3,0.4,0.7,0.3,1
									C314.7,223.8,314.4,224,313.9,224z"/>
							</g>
						</g>
						<g>
							<g>
								<path class="st7" d="M326.3,212.1c0.4,0.1,0.6,0.9,0.4,1.8c-0.2,0.9-0.7,1.6-1.1,1.5c-0.4-0.1-0.6-0.9-0.4-1.8
									C325.3,212.7,325.8,212,326.3,212.1z"/>
							</g>
						</g>
						<g>
							<g>
								<path class="st7" d="M339.6,213.6c0.1,0.4-0.6,0.9-1.6,0.8c-1-0.1-1.6-0.6-1.5-1.1c0.1-0.4,0.8-0.6,1.6-0.5
									C338.9,212.9,339.6,213.1,339.6,213.6z"/>
							</g>
						</g>
						<g>
							<g>
								<path class="st7" d="M342,211.5c-0.3,0.3-1.2,0.1-2.1-0.6c-0.9-0.7-1.4-1.5-1.2-1.9c0.3-0.3,1.2-0.1,2.1,0.6
									C341.7,210.4,342.2,211.2,342,211.5z"/>
							</g>
						</g>
						<g>
							<g>
								<path class="st7" d="M344.2,210c-0.4,0-0.8-1.1-0.4-2.3c0.3-1.3,1.2-2,1.5-1.8c0.4,0.2,0.2,1.2,0,2.2
									C345,209.1,344.7,210,344.2,210z"/>
							</g>
						</g>
						<g>
							<g>
								<path class="st7" d="M349.1,208.9c0.3,0.3,0,1.1-0.7,1.9c-0.7,0.8-1.5,1.1-1.8,0.9c-0.3-0.3,0-1.1,0.7-1.9
									C348,209,348.8,208.6,349.1,208.9z"/>
							</g>
						</g>
						<g>
							<g>
								<path class="st7" d="M346.8,215.2c-0.1,0.4-1,0.6-2.1,0.4c-1.1-0.2-1.9-0.7-1.8-1.1c0.1-0.4,1-0.6,2.1-0.4
									C346.1,214.3,346.9,214.8,346.8,215.2z"/>
							</g>
						</g>
						<g>
							<g>
								<path class="st7" d="M334.4,214.2c-0.1,0.4-0.9,0.6-1.9,0.4c-0.9-0.2-1.6-0.7-1.5-1.1c0.1-0.4,0.9-0.6,1.9-0.4
									C333.9,213.3,334.5,213.8,334.4,214.2z"/>
							</g>
						</g>
						<g>
							<g>
								<path class="st7" d="M336.2,210.2c-0.2,0.4-1,0.3-1.8-0.1c-0.8-0.5-1.2-1.1-1-1.5c0.2-0.4,1-0.3,1.8,0.1
									C336,209.2,336.4,209.9,336.2,210.2z"/>
							</g>
						</g>
						<g>
							<g>
								<path class="st7" d="M341.9,207.2c-0.4,0.2-1.1-0.4-1.3-1.4c-0.2-1,0.1-1.9,0.6-1.8c0.4,0,0.8,0.7,1,1.5
									C342.3,206.2,342.3,207,341.9,207.2z"/>
							</g>
						</g>
						<g>
							<g>
								<path class="st7" d="M348.6,205.1c0.4,0.2,0.5,0.8,0.2,1.3c-0.3,0.5-0.8,0.8-1.2,0.6c-0.4-0.2-0.5-0.8-0.2-1.3
									C347.7,205.2,348.3,204.9,348.6,205.1z"/>
							</g>
						</g>
						<g>
							<g>
								<path class="st7" d="M352.6,211.1c0.1,0.4-0.3,0.9-0.8,1c-0.6,0.2-1.1-0.1-1.2-0.5c-0.1-0.4,0.3-0.9,0.8-1
									C351.9,210.4,352.5,210.7,352.6,211.1z"/>
							</g>
						</g>
						<g>
							<g>
								<path class="st7" d="M334.2,203.3c0.2-0.4,1.3-0.1,2.2,0.9c0.9,1,1.1,2.1,0.7,2.3c-0.4,0.2-1.1-0.4-1.8-1.2
									C334.5,204.4,334,203.6,334.2,203.3z"/>
							</g>
						</g>
						<g>
							<g>
								<path class="st7" d="M344.1,201.2c0.4,0,0.8,0.5,0.8,1.2c0,0.7-0.3,1.2-0.8,1.2c-0.4,0-0.8-0.5-0.8-1.2
									C343.3,201.8,343.6,201.2,344.1,201.2z"/>
							</g>
						</g>
						<g>
							<g>
								<path class="st7" d="M327.4,209.4c0.1-0.4,1.1-0.4,2.2-0.1c1.1,0.4,1.8,1,1.7,1.4c-0.1,0.4-1.1,0.4-2.2,0.1
									C328,210.4,327.2,209.8,327.4,209.4z"/>
							</g>
						</g>
						<g>
							<g>
								<path class="st7" d="M331.8,205.9c-0.3,0.3-0.9,0.2-1.4-0.3c-0.5-0.5-0.6-1.1-0.3-1.4c0.3-0.3,0.9-0.2,1.4,0.3
									C332,205,332.1,205.6,331.8,205.9z"/>
							</g>
						</g>
						<g>
							<g>
								<path class="st7" d="M338.8,199.5c0.4,0,0.8,0.6,0.9,1.4c0.1,0.8-0.2,1.5-0.7,1.5c-0.4,0-0.8-0.6-0.9-1.4
									C338.1,200.2,338.4,199.6,338.8,199.5z"/>
							</g>
						</g>
						<g>
							<g>
								<path class="st7" d="M320.3,208.9c0.4,0.2,0.4,1.1,0.1,2c-0.4,1-1,1.6-1.4,1.5c-0.4-0.2-0.4-1.1-0.1-2
									C319.3,209.4,319.9,208.8,320.3,208.9z"/>
							</g>
						</g>
						<g>
							<g>
								<path class="st7" d="M323.1,208.6c0.4-0.1,0.9,0.6,1.1,1.6c0.2,1,0,1.8-0.4,1.9c-0.4,0.1-0.9-0.6-1.1-1.6
									C322.5,209.6,322.7,208.7,323.1,208.6z"/>
							</g>
						</g>
						<g>
							<g>
								<path class="st7" d="M329.2,207.2c0,0.4-0.8,0.7-1.8,0.7c-1-0.1-1.8-0.4-1.8-0.9c0-0.4,0.8-0.7,1.8-0.7
									C328.4,206.4,329.2,206.7,329.2,207.2z"/>
							</g>
						</g>
						<g>
							<g>
								<path class="st7" d="M317.8,206.7c0.1,0.4-0.5,0.9-1.3,1.1c-0.8,0.2-1.5,0-1.6-0.4c-0.1-0.4,0.5-0.9,1.3-1.1
									C317,206.1,317.7,206.3,317.8,206.7z"/>
							</g>
						</g>
						<g>
							<g>
								<path class="st7" d="M323.1,205.1c0.2,0.4-0.3,0.9-0.9,1.2c-0.7,0.3-1.3,0.1-1.5-0.3c-0.2-0.4,0.3-0.9,0.9-1.2
									C322.3,204.6,323,204.7,323.1,205.1z"/>
							</g>
						</g>
						<g>
							<g>
								<path class="st7" d="M318.4,203.7c0,0.4-1.1,0.9-2.6,0.8c-1.5-0.1-2.6-0.8-2.5-1.2c0.1-0.4,1.3-0.5,2.6-0.4
									C317.2,203,318.3,203.3,318.4,203.7z"/>
							</g>
						</g>
						<g>
							<g>
								<path class="st7" d="M320.9,201.7c-0.2,0.4-1.4,0.2-2.7-0.3c-1.3-0.6-2.3-1.4-2.1-1.8c0.2-0.4,1.4-0.2,2.7,0.3
									C320.2,200.5,321.1,201.3,320.9,201.7z"/>
							</g>
						</g>
						<g>
							<g>
								<path class="st7" d="M335.3,199.7c0.2,0.4-0.3,1-0.9,1.4c-0.7,0.4-1.4,0.6-1.7,0.3c-0.3-0.3,0-1.1,0.8-1.6
									C334.3,199.3,335.2,199.3,335.3,199.7z"/>
							</g>
						</g>
						<g>
							<g>
								<path class="st7" d="M313.1,200.6c-0.2,0.4-0.8,0.5-1.4,0.3c-0.6-0.2-1-0.8-0.8-1.2c0.2-0.4,0.8-0.5,1.4-0.3
									C312.9,199.7,313.3,200.2,313.1,200.6z"/>
							</g>
						</g>
						<g>
							<g>
								<path class="st7" d="M334.7,244.3c0,0.4-1,0.8-2.3,0.9c-1.3,0-2.3-0.3-2.4-0.7c0-0.4,1-0.8,2.3-0.9
									C333.6,243.6,334.7,243.9,334.7,244.3z"/>
							</g>
						</g>
						<g>
							<g>
								<path class="st7" d="M337,241.6c-0.3,0.3-1.1,0-1.8-0.7c-0.7-0.7-1-1.5-0.7-1.8c0.3-0.3,1.1,0,1.8,0.7
									C337,240.5,337.3,241.3,337,241.6z"/>
							</g>
						</g>
						<g>
							<g>
								<path class="st7" d="M339.3,240.2c-0.4,0.1-0.9-0.8-0.9-1.9c0.1-1.2,0.7-1.9,1.1-1.8c0.4,0.1,0.5,1,0.4,1.9
									C339.9,239.3,339.7,240.1,339.3,240.2z"/>
							</g>
						</g>
						<g>
							<g>
								<path class="st7" d="M341.2,242.2c0.3,0.3,0.1,1-0.4,1.5c-0.5,0.5-1.1,0.8-1.5,0.6c-0.3-0.3-0.2-1,0.3-1.6
									C340.1,242.1,340.9,241.9,341.2,242.2z"/>
							</g>
						</g>
						<g>
							<g>
								<path class="st7" d="M340.2,248.9c-0.4,0-0.8-0.7-0.6-1.4c0.1-0.8,0.7-1.3,1.1-1.1c0.4,0.1,0.6,0.8,0.5,1.4
									C341,248.4,340.6,248.9,340.2,248.9z"/>
							</g>
						</g>
						<g>
							<g>
								<path class="st7" d="M336.4,246.4c0.3,0.3,0.4,0.7,0.3,0.9c-0.1,0.2-0.5,0.3-0.9,0.2c-0.4-0.1-0.7-0.5-0.5-1
									C335.6,246.1,336.1,246.1,336.4,246.4z"/>
							</g>
						</g>
						<g>
							<g>
								<path class="st7" d="M342.9,234.9c0.4,0.1,0.4,1.1-0.1,2.1c-0.5,1-1.4,1.5-1.7,1.2c-0.3-0.3-0.1-1.1,0.4-2
									C341.9,235.3,342.5,234.7,342.9,234.9z"/>
							</g>
						</g>
						<g>
							<g>
								<path class="st7" d="M339.7,234.4c0,0.4-0.8,0.8-1.9,0.9c-1.1,0.1-2-0.2-2-0.7c0-0.4,0.8-0.8,1.9-0.9
									C338.8,233.7,339.7,234,339.7,234.4z"/>
							</g>
						</g>
						<g>
							<g>
								<path class="st7" d="M332.7,241.4c-0.3,0.3-0.9,0.1-1.3-0.4c-0.4-0.5-0.4-1.1-0.1-1.4c0.3-0.3,0.9-0.1,1.3,0.4
									C333,240.5,333.1,241.1,332.7,241.4z"/>
							</g>
						</g>
						<g>
							<g>
								<path class="st7" d="M326.4,244.7c-0.3,0.3-1.3-0.2-1.9-1.3c-0.7-1.1-0.6-2.2-0.2-2.3c0.4-0.1,1,0.6,1.5,1.5
									C326.3,243.6,326.7,244.4,326.4,244.7z"/>
							</g>
						</g>
						<g>
							<g>
								<path class="st7" d="M323.1,244.7c-0.1,0.4-0.7,0.6-1.4,0.4c-0.7-0.2-1.1-0.7-1-1.1c0.1-0.4,0.7-0.6,1.4-0.4
									C322.8,243.8,323.2,244.2,323.1,244.7z"/>
							</g>
						</g>
						<g>
							<g>
								<path class="st7" d="M301.1,268.1c-0.4-0.1-0.6-1.1-0.5-2.3c0.2-1.2,0.7-2.1,1.1-2c0.4,0.1,0.6,1.1,0.5,2.3
									C302.1,267.2,301.6,268.1,301.1,268.1z"/>
							</g>
						</g>
						<g>
							<g>
								<path class="st7" d="M307,267.4c-0.4,0.2-1.2-0.7-1.8-2c-0.6-1.3-0.8-2.5-0.4-2.7c0.4-0.2,1.2,0.7,1.8,2
									C307.3,266,307.4,267.2,307,267.4z"/>
							</g>
						</g>
						<g>
							<g>
								<path class="st7" d="M312.2,263.8c-0.3,0.3-1.4-0.2-2.5-1c-1.2-0.8-2-1.7-1.8-2.1c0.2-0.4,1.4-0.1,2.7,0.8
									C311.8,262.4,312.5,263.4,312.2,263.8z"/>
							</g>
						</g>
						<g>
							<g>
								<path class="st7" d="M304.3,257.7c0.4,0.2,0.5,0.9,0.1,1.7c-0.3,0.8-0.9,1.3-1.3,1.2c-0.4-0.2-0.5-0.9-0.1-1.7
									C303.3,258,303.9,257.5,304.3,257.7z"/>
							</g>
						</g>
						<g>
							<g>
								<path class="st7" d="M312.4,268.3c-0.3,0.3-1.1-0.1-1.6-0.9c-0.6-0.7-0.7-1.5-0.4-1.8c0.3-0.3,1.1,0.1,1.6,0.9
									C312.6,267.3,312.8,268.1,312.4,268.3z"/>
							</g>
						</g>
						<g>
							<g>
								<path class="st7" d="M303.8,269.9c-0.4,0.1-0.9-0.4-0.9-1.1c-0.1-0.7,0.2-1.3,0.6-1.3c0.4-0.1,0.9,0.4,0.9,1.1
									C304.5,269.3,304.3,269.9,303.8,269.9z"/>
							</g>
						</g>
						<g>
							<g>
								<path class="st7" d="M320.4,262.1c-0.1,0.4-1.5,0.5-3.1,0.2c-1.6-0.3-2.8-0.9-2.8-1.4c0.1-0.4,1.4-0.5,3.1-0.2
									C319.3,261,320.5,261.6,320.4,262.1z"/>
							</g>
						</g>
						<g>
							<g>
								<path class="st7" d="M319.4,268.2c-0.3,0.3-1.4-0.1-2.5-1.1c-1.1-0.9-1.8-1.9-1.5-2.3c0.3-0.3,1.4,0.1,2.5,1.1
									C319,266.9,319.7,267.9,319.4,268.2z"/>
							</g>
						</g>
						<g>
							<g>
								<path class="st7" d="M325,266.5c-0.1,0.4-1.1,0.5-2.1,0.2c-1-0.3-1.8-0.9-1.6-1.3c0.1-0.4,1.1-0.5,2.1-0.2
									C324.4,265.5,325.2,266.1,325,266.5z"/>
							</g>
						</g>
						<g>
							<g>
								<path class="st7" d="M329.5,267.5c0,0.4-0.6,0.8-1.3,1.2c-0.7,0.3-1.4,0.5-1.7,0.2c-0.3-0.3,0.1-1.2,1.1-1.6
									C328.5,266.8,329.5,267.1,329.5,267.5z"/>
							</g>
						</g>
						<g>
							<g>
								<path class="st7" d="M328.1,263.8c-0.2,0.4-1,0.3-1.8-0.1c-0.8-0.5-1.3-1.1-1.1-1.5c0.2-0.4,1-0.3,1.8,0.1
									C327.8,262.7,328.3,263.4,328.1,263.8z"/>
							</g>
						</g>
						<g>
							<g>
								<path class="st7" d="M332.6,263.3c0.2,0.4,0,0.9-0.3,1.3c-0.3,0.4-0.7,0.8-1.1,0.8c-0.4,0-0.7-0.9-0.1-1.6
									C331.6,263,332.5,262.9,332.6,263.3z"/>
							</g>
						</g>
						<g>
							<g>
								<path class="st7" d="M337.3,266.8c0,0.4-0.8,0.8-1.8,0.8c-1,0-1.9-0.3-1.9-0.7c0-0.4,0.8-0.8,1.8-0.8
									C336.4,266,337.3,266.4,337.3,266.8z"/>
							</g>
						</g>
						<g>
							<g>
								<path class="st7" d="M338,264.3c-0.2,0.4-1,0.4-1.8,0.1c-0.8-0.4-1.4-1-1.2-1.4c0.2-0.4,1-0.4,1.8-0.1
									C337.6,263.3,338.1,263.9,338,264.3z"/>
							</g>
						</g>
						<g>
							<g>
								<path class="st7" d="M341.1,265.5c-0.4-0.1-0.7-0.7-0.4-1.4c0.3-0.7,0.9-1,1.2-0.8c0.4,0.2,0.4,0.8,0.2,1.3
									C342,265.2,341.6,265.6,341.1,265.5z"/>
							</g>
						</g>
						<g>
							<g>
								<path class="st7" d="M315.9,224.7c0.4-0.2,1.2,0.3,1.8,1.3c0.6,0.9,0.8,1.9,0.5,2.1c-0.4,0.2-1.2-0.3-1.8-1.3
									C315.7,225.9,315.5,225,315.9,224.7z"/>
							</g>
						</g>
						<g>
							<g>
								<path class="st7" d="M322.4,223.3c0.4,0.2,0.1,1.4-0.7,2.5c-0.7,1.2-1.6,1.9-2,1.7c-0.4-0.2-0.1-1.4,0.7-2.5
									C321.2,223.8,322.1,223.1,322.4,223.3z"/>
							</g>
						</g>
						<g>
							<g>
								<path class="st7" d="M326.1,227.7c0.2,0.4-0.6,1.1-1.6,1.4c-1.1,0.4-2,0.4-2.2,0c-0.2-0.4,0.6-1.1,1.6-1.4
									C324.9,227.3,325.9,227.3,326.1,227.7z"/>
							</g>
						</g>
						<g>
							<g>
								<path class="st7" d="M325.1,234.7c-0.3,0.3-1.2,0.1-2-0.7c-0.8-0.8-1.2-1.7-0.8-2c0.3-0.3,1.1,0.1,1.9,0.8
									C324.9,233.6,325.3,234.4,325.1,234.7z"/>
							</g>
						</g>
						<g>
							<g>
								<path class="st7" d="M319.3,237.5c-0.4,0.1-1-1-0.9-2.4c0.1-1.5,0.8-2.5,1.2-2.3c0.4,0.1,0.4,1.2,0.3,2.4
									C319.9,236.4,319.7,237.4,319.3,237.5z"/>
							</g>
						</g>
						<g>
							<g>
								<path class="st7" d="M321.1,230.8c-0.1,0.4-0.8,0.6-1.5,0.4c-0.7-0.2-1.2-0.7-1.1-1.1c0.1-0.4,0.8-0.6,1.5-0.4
									C320.7,229.8,321.2,230.3,321.1,230.8z"/>
							</g>
						</g>
						<g>
							<g>
								<path class="st7" d="M327.1,222.7c0.3,0.2,0,1.3-1,2.2c-1,0.9-2.1,1.1-2.3,0.8c-0.2-0.4,0.4-1.2,1.3-1.9
									C325.9,223,326.8,222.5,327.1,222.7z"/>
							</g>
						</g>
						<g>
							<g>
								<path class="st7" d="M318.4,220.1c0.4-0.1,0.9,0.7,1,1.7c0.1,1-0.4,1.8-0.8,1.8c-0.4-0.1-0.7-0.8-0.7-1.7
									C317.8,221,318,220.2,318.4,220.1z"/>
							</g>
						</g>
						<g>
							<g>
								<path class="st7" d="M324.1,217.3c0.4,0.1,0.5,1.1,0.1,2.2c-0.4,1.1-1.2,1.7-1.6,1.5c-0.4-0.2-0.3-1.1,0.1-2.1
									C323.2,218,323.7,217.2,324.1,217.3z"/>
							</g>
						</g>
						<g>
							<g>
								<path class="st7" d="M331.4,226.9c0,0.4-0.6,0.8-1.4,0.9c-0.8,0.1-1.5-0.2-1.5-0.6c0-0.4,0.6-0.8,1.4-0.9
									C330.6,226.2,331.3,226.5,331.4,226.9z"/>
							</g>
						</g>
						<g>
							<g>
								<path class="st7" d="M329.1,232.5c-0.2,0.4-1,0.5-2,0.2c-0.9-0.3-1.6-0.9-1.5-1.3c0.1-0.4,1-0.5,2-0.2
									C328.6,231.5,329.3,232.1,329.1,232.5z"/>
							</g>
						</g>
						<g>
							<g>
								<path class="st7" d="M323.1,238.8c-0.4,0.2-1.1-0.3-1.4-1.3c-0.3-1,0-1.8,0.4-1.8c0.4,0,0.8,0.6,1.1,1.4
									C323.5,237.9,323.5,238.6,323.1,238.8z"/>
							</g>
						</g>
						<g>
							<g>
								<path class="st7" d="M319.1,242.6c-0.4,0-0.8-0.6-0.9-1.3c0-0.7,0.3-1.4,0.7-1.4c0.4,0,0.8,0.6,0.9,1.3
									C319.9,241.9,319.6,242.6,319.1,242.6z"/>
							</g>
						</g>
						<g>
							<g>
								<path class="st7" d="M329,240.7c-0.4,0.2-1.1-0.5-1.7-1.4c-0.6-0.9-0.9-1.8-0.6-2.1c0.3-0.3,1.2,0.2,1.9,1.2
									C329.3,239.4,329.4,240.5,329,240.7z"/>
							</g>
						</g>
						<g>
							<g>
								<path class="st7" d="M333.6,237c-0.2,0.4-1.2,0.2-2.3-0.2c-1.1-0.4-1.9-1-1.8-1.4c0.1-0.4,1.2-0.5,2.4,0
									C333.1,235.8,333.8,236.6,333.6,237z"/>
							</g>
						</g>
						<g>
							<g>
								<path class="st7" d="M333.9,232.4c-0.3,0.3-0.9,0.1-1.4-0.1c-0.5-0.3-0.9-0.6-0.9-1.1c0-0.4,0.8-0.7,1.6-0.3
									C334.1,231.4,334.2,232.2,333.9,232.4z"/>
							</g>
						</g>
						<g>
							<g>
								<path class="st7" d="M321,213.6c0.4,0.1,0.6,1.1,0.5,2.2c-0.1,1.2-0.5,2.1-0.9,2.1c-0.4,0-0.8-1-0.6-2.2
									C320,214.4,320.5,213.5,321,213.6z"/>
							</g>
						</g>
						<g>
							<g>
								<path class="st7" d="M329.9,217c0.3,0.3,0,1.2-0.8,2c-0.7,0.8-1.6,1.3-1.9,1c-0.3-0.3,0-1.2,0.8-2
									C328.7,217.1,329.6,216.7,329.9,217z"/>
							</g>
						</g>
						<g>
							<g>
								<path class="st7" d="M331.3,219.1c0.3-0.3,0.8-0.2,1,0.1c0.2,0.3,0.1,0.8-0.2,1c-0.3,0.3-0.8,0.2-1-0.1
									C330.8,219.8,330.9,219.4,331.3,219.1z"/>
							</g>
						</g>
						<g>
							<g>
								<path class="st7" d="M307.3,216.1c-0.1,0.4-1.2,0.4-2.4-0.1c-1.2-0.5-1.9-1.4-1.7-1.7c0.2-0.4,1.2-0.2,2.3,0.3
									C306.6,215,307.4,215.7,307.3,216.1z"/>
							</g>
						</g>
						<g>
							<g>
								<path class="st7" d="M302.4,224.6c-0.4,0.2-1-0.4-1.2-1.4c-0.2-0.9,0-1.8,0.4-1.8c0.4-0.1,0.9,0.6,1.1,1.4
									C302.9,223.6,302.8,224.4,302.4,224.6z"/>
							</g>
						</g>
						<g>
							<g>
								<path class="st7" d="M308.6,220.9c-0.3,0.3-1.1-0.1-1.8-0.8c-0.6-0.7-0.9-1.6-0.6-1.8c0.3-0.3,1.1,0.1,1.8,0.8
									C308.6,219.7,308.9,220.6,308.6,220.9z"/>
							</g>
						</g>
						<g>
							<g>
								<path class="st7" d="M305.7,208c0.3,0.3-0.3,1.4-1.2,2.4c-1,1-2.1,1.6-2.4,1.3c-0.3-0.3,0.3-1.4,1.2-2.4
									C304.3,208.2,305.4,207.7,305.7,208z"/>
							</g>
						</g>
						<g>
							<g>
								<path class="st7" d="M301.1,206.1c0.4,0.1,0.5,1.1,0.1,2c-0.3,1-1,1.7-1.4,1.5c-0.4-0.1-0.5-1.1-0.1-2
									C300,206.6,300.7,206,301.1,206.1z"/>
							</g>
						</g>
						<g>
							<g>
								<path class="st7" d="M301.2,213.6c0.2,0.4-0.1,1-0.7,1.6c-0.6,0.6-1.2,1-1.6,0.7c-0.4-0.2-0.2-1.1,0.5-1.8
									C300.1,213.4,301,213.2,301.2,213.6z"/>
							</g>
						</g>
						<g>
							<g>
								<path class="st7" d="M299.5,212.5c-0.4,0.2-0.9-0.2-0.9-0.8c0-0.6,0.5-1,0.9-0.9c0.4,0.1,0.7,0.5,0.7,0.8
									C300.1,212,299.9,212.4,299.5,212.5z"/>
							</g>
						</g>
						<g>
							<g>
								<path class="st7" d="M308.1,211.5c0.1,0.4-0.7,0.9-1.6,1c-1,0.1-1.8-0.1-1.8-0.5c-0.1-0.4,0.7-0.9,1.6-1
									C307.2,210.9,308.1,211.1,308.1,211.5z"/>
							</g>
						</g>
						<g>
							<g>
								<path class="st7" d="M304.9,204.2c0.4,0.3,0.2,1.1-0.4,2c-0.6,0.8-1.4,1.3-1.7,1.1c-0.4-0.3-0.2-1.1,0.4-2
									C303.8,204.4,304.5,203.9,304.9,204.2z"/>
							</g>
						</g>
						<g>
							<g>
								<path class="st7" d="M307.7,226.2c-0.3,0.3-1.3-0.2-1.8-1.3c-0.6-1.1-0.4-2.1,0-2.2c0.4-0.1,0.9,0.6,1.4,1.5
									C307.7,225,308,225.9,307.7,226.2z"/>
							</g>
						</g>
						<g>
							<g>
								<path class="st7" d="M298.8,227.7c-0.4,0-0.8-0.6-0.8-1.5c0.1-0.9,0.6-1.5,1-1.3c0.4,0.1,0.6,0.8,0.6,1.5
									C299.5,227.1,299.3,227.7,298.8,227.7z"/>
							</g>
						</g>
						<g>
							<g>
								<path class="st7" d="M304.6,227.6c-0.1,0.4-0.9,0.5-1.8,0.3c-0.9-0.3-1.4-0.8-1.3-1.2c0.1-0.4,0.9-0.5,1.8-0.3
									C304.2,226.7,304.8,227.2,304.6,227.6z"/>
							</g>
						</g>
						<g>
							<g>
								<path class="st7" d="M312,225.6c-0.3,0.3-1.1-0.1-1.8-0.8c-0.7-0.8-1-1.6-0.6-1.9c0.3-0.3,1.1,0.1,1.8,0.8
									C312.1,224.4,312.3,225.3,312,225.6z"/>
							</g>
						</g>
						<g>
							<g>
								<path class="st7" d="M313.7,213.8c0,0.4-0.9,0.8-2.1,0.9c-1.2,0.1-2.2-0.2-2.2-0.7c0-0.4,0.9-0.8,2.1-0.9
									C312.7,213,313.7,213.3,313.7,213.8z"/>
							</g>
						</g>
						<g>
							<g>
								<path class="st7" d="M311.4,206.2c0.2,0.4-0.4,1.1-1.4,1.7c-1,0.5-1.9,0.7-2.1,0.3c-0.2-0.4,0.4-1.1,1.4-1.7
									C310.3,206,311.2,205.8,311.4,206.2z"/>
							</g>
						</g>
						<g>
							<g>
								<path class="st7" d="M302.8,202.2c0.4,0.2,0.5,0.8,0.2,1.3c-0.3,0.5-0.8,0.8-1.2,0.6c-0.4-0.2-0.5-0.8-0.2-1.3
									C301.9,202.3,302.4,202,302.8,202.2z"/>
							</g>
						</g>
						<g>
							<g>
								<path class="st7" d="M309.8,202.1c0.3,0.3,0,1.1-0.7,1.9c-0.7,0.7-1.5,1.1-1.8,0.8c-0.3-0.3,0-1.1,0.7-1.9
									C308.7,202.1,309.5,201.8,309.8,202.1z"/>
							</g>
						</g>
						<g>
							<g>
								<path class="st7" d="M314.2,209.9c0.1,0.4-0.6,0.9-1.6,1.1c-0.9,0.2-1.8,0-1.9-0.4c-0.1-0.4,0.6-0.9,1.6-1.1
									C313.3,209.2,314.2,209.4,314.2,209.9z"/>
							</g>
						</g>
						<g>
							<g>
								<path class="st7" d="M314.8,220.2c-0.2,0.4-1.2,0.1-2.1-0.4c-0.9-0.5-1.6-1.2-1.4-1.6c0.2-0.4,1.2-0.3,2.2,0.2
									C314.5,219,315.1,219.8,314.8,220.2z"/>
							</g>
						</g>
						<g>
							<g>
								<path class="st7" d="M340.6,227.5c-0.1,0.4-1.2,0.4-2.4,0.1c-1.2-0.4-2.1-1-2-1.4c0.1-0.4,1.2-0.4,2.4-0.1
									C339.8,226.5,340.7,227.1,340.6,227.5z"/>
							</g>
						</g>
						<g>
							<g>
								<path class="st7" d="M341,231.7c-0.3,0.3-1.1,0.1-1.7-0.5c-0.7-0.6-1-1.3-0.7-1.6c0.3-0.3,1-0.1,1.7,0.5
									C340.9,230.6,341.2,231.3,341,231.7z"/>
							</g>
						</g>
						<g>
							<g>
								<path class="st7" d="M341.6,222.2c0.1,0.4-0.8,1.2-2.1,1.7c-1.3,0.5-2.5,0.6-2.6,0.2c-0.2-0.4,0.7-1.1,2.1-1.7
									C340.3,221.9,341.5,221.8,341.6,222.2z"/>
							</g>
						</g>
						<g>
							<g>
								<path class="st7" d="M343.3,225c0,0.4-0.6,0.8-1.4,0.8c-0.8,0-1.4-0.3-1.4-0.7c0-0.4,0.6-0.8,1.4-0.8
									C342.7,224.2,343.3,224.5,343.3,225z"/>
							</g>
						</g>
						<g>
							<g>
								<path class="st7" d="M345.3,230.5c-0.4,0.2-1-0.3-1.6-0.8c-0.6-0.5-1.2-0.9-1.2-1.4c0-0.2,0.3-0.4,0.7-0.4
									c0.4,0,0.9,0.1,1.4,0.5c0.5,0.4,0.8,0.8,0.9,1.2C345.6,230.1,345.5,230.4,345.3,230.5z"/>
							</g>
						</g>
						<g>
							<g>
								<path class="st7" d="M345.4,234.6c-0.3,0.3-1.1-0.2-1.8-1c-0.6-0.8-0.9-1.7-0.5-1.9c0.3-0.3,1.1,0.2,1.8,1
									C345.5,233.4,345.7,234.3,345.4,234.6z"/>
							</g>
						</g>
						<g>
							<g>
								<path class="st7" d="M329.6,222.7c0.2-0.4,1.4-0.1,2.7,0.6c1.3,0.7,2.1,1.6,1.9,2c-0.2,0.4-1.4,0.1-2.7-0.6
									C330.2,224,329.4,223.1,329.6,222.7z"/>
							</g>
						</g>
						<g>
							<g>
								<path class="st7" d="M334.6,216.5c0.4,0,0.8,1.2,0.9,2.7c0.1,1.5-0.2,2.8-0.6,2.8c-0.4,0-0.8-1.2-0.9-2.7
									C333.9,217.7,334.2,216.5,334.6,216.5z"/>
							</g>
						</g>
						<g>
							<g>
								<path class="st7" d="M341.1,217.6c0.3,0.3-0.3,1.2-1.2,2c-0.9,0.7-1.9,1.1-2.2,0.7c-0.3-0.3,0.3-1.2,1.2-2
									C339.8,217.6,340.8,217.2,341.1,217.6z"/>
							</g>
						</g>
						<g>
							<g>
								<path class="st7" d="M347.4,218.9c0.1,0.4-0.8,1-2,1.3c-1.2,0.3-2.3,0.2-2.4-0.2c-0.1-0.4,0.8-1,2-1.3
									C346.2,218.4,347.3,218.5,347.4,218.9z"/>
							</g>
						</g>
						<g>
							<g>
								<path class="st7" d="M349.1,224c-0.1,0.4-1.1,0.5-2.1,0.2c-1-0.3-1.8-0.9-1.7-1.3c0.1-0.4,1.1-0.5,2.1-0.2
									C348.5,223,349.2,223.6,349.1,224z"/>
							</g>
						</g>
						<g>
							<g>
								<path class="st7" d="M353.2,220c0.1,0.4-0.6,0.9-1.5,1c-0.9,0.1-1.7-0.1-1.7-0.5c-0.1-0.4,0.6-0.9,1.5-1
									C352.4,219.3,353.1,219.6,353.2,220z"/>
							</g>
						</g>
						<g>
							<g>
								<path class="st7" d="M350.8,225.8c0.2,0.4-0.3,1-1.2,1.2c-0.8,0.2-1.6-0.1-1.6-0.6c0-0.4,0.5-0.8,1.2-1
									C350,225.3,350.7,225.4,350.8,225.8z"/>
							</g>
						</g>
						<g>
							<g>
								<path class="st7" d="M352.9,225.1c-0.4,0.1-0.9-0.4-1-1.2c0-0.8,0.5-1.3,0.9-1.2c0.4,0.1,0.7,0.6,0.7,1.2
									C353.6,224.4,353.4,224.9,352.9,225.1z"/>
							</g>
						</g>
						<g>
							<g>
								<path class="st7" d="M350.2,213.9c0.4,0.1,0.6,1,0.4,2.1c-0.2,1.1-0.7,1.9-1.1,1.8c-0.4-0.1-0.6-1-0.4-2.1
									C349.2,214.6,349.7,213.8,350.2,213.9z"/>
							</g>
						</g>
						<g>
							<g>
								<path class="st7" d="M353.9,217c-0.4,0-0.7-0.7-0.6-1.4c0.1-0.8,0.5-1.3,0.9-1.3c0.4,0,0.7,0.7,0.6,1.4
									C354.8,216.5,354.4,217.1,353.9,217z"/>
							</g>
						</g>
						<g>
							<g>
								<path class="st7" d="M356.6,221.1c-0.4,0.1-0.9-0.6-1-1.5c-0.1-0.9,0.2-1.6,0.6-1.7c0.4-0.1,0.9,0.6,1,1.5
									C357.3,220.4,357,221.1,356.6,221.1z"/>
							</g>
						</g>
						<g>
							<g>
								<path class="st7" d="M299.2,223.4c-0.4,0-0.8-1.4-0.8-3.1c0.1-1.7,0.5-3,1-3c0.4,0,0.7,1.4,0.6,3
									C299.9,222,299.6,223.3,299.2,223.4z"/>
							</g>
						</g>
						<g>
							<g>
								<path class="st7" d="M304.1,220.9c-0.4,0.2-1.3-0.6-2.1-1.8c-0.8-1.2-1.1-2.4-0.8-2.6c0.4-0.2,1.3,0.6,2.1,1.8
									C304.1,219.5,304.5,220.6,304.1,220.9z"/>
							</g>
						</g>
						<g>
							<g>
								<path class="st7" d="M336.9,232.5c-0.4,0.2-1.3-0.7-2.1-2.1c-0.8-1.4-1.1-2.7-0.7-2.9c0.4-0.2,1.3,0.7,2.1,2.1
									C337,231,337.3,232.2,336.9,232.5z"/>
							</g>
						</g>
					</g>
					<g class="st8">
						<g>
							<g>
								<path class="st3" d="M315.3,229.5c0.4-0.1,0.9,0.5,1.1,1.3c0.2,0.7,0.2,1.5-0.2,1.7c-0.4,0.2-1-0.3-1.3-1.2
									C314.6,230.4,314.8,229.6,315.3,229.5z"/>
							</g>
						</g>
						<g>
							<g>
								<path class="st3" d="M316.7,210.5c0.4,0.1,0.7,1.4,0.5,3.1c-0.1,1.7-0.6,3-1,3c-0.4,0-0.7-1.4-0.5-3.1
									C315.8,211.8,316.3,210.5,316.7,210.5z"/>
							</g>
						</g>
						<g>
							<g>
								<path class="st3" d="M313.9,224c-0.4,0-0.7-0.5-0.5-1.1c0.3-0.5,0.9-0.6,1.2-0.3c0.3,0.3,0.4,0.7,0.3,1
									C314.7,223.8,314.4,224,313.9,224z"/>
							</g>
						</g>
						<g>
							<g>
								<path class="st3" d="M326.3,212.1c0.4,0.1,0.6,0.9,0.4,1.8c-0.2,0.9-0.7,1.6-1.1,1.5c-0.4-0.1-0.6-0.9-0.4-1.8
									C325.3,212.7,325.8,212,326.3,212.1z"/>
							</g>
						</g>
						<g>
							<g>
								<path class="st3" d="M339.6,213.6c0.1,0.4-0.6,0.9-1.6,0.8c-1-0.1-1.6-0.6-1.5-1.1c0.1-0.4,0.8-0.6,1.6-0.5
									C338.9,212.9,339.6,213.1,339.6,213.6z"/>
							</g>
						</g>
						<g>
							<g>
								<path class="st3" d="M342,211.5c-0.3,0.3-1.2,0.1-2.1-0.6c-0.9-0.7-1.4-1.5-1.2-1.9c0.3-0.3,1.2-0.1,2.1,0.6
									C341.7,210.4,342.2,211.2,342,211.5z"/>
							</g>
						</g>
						<g>
							<g>
								<path class="st3" d="M344.2,210c-0.4,0-0.8-1.1-0.4-2.3c0.3-1.3,1.2-2,1.5-1.8c0.4,0.2,0.2,1.2,0,2.2
									C345,209.1,344.7,210,344.2,210z"/>
							</g>
						</g>
						<g>
							<g>
								<path class="st3" d="M349.1,208.9c0.3,0.3,0,1.1-0.7,1.9c-0.7,0.8-1.5,1.1-1.8,0.9c-0.3-0.3,0-1.1,0.7-1.9
									C348,209,348.8,208.6,349.1,208.9z"/>
							</g>
						</g>
						<g>
							<g>
								<path class="st3" d="M346.8,215.2c-0.1,0.4-1,0.6-2.1,0.4c-1.1-0.2-1.9-0.7-1.8-1.1c0.1-0.4,1-0.6,2.1-0.4
									C346.1,214.3,346.9,214.8,346.8,215.2z"/>
							</g>
						</g>
						<g>
							<g>
								<path class="st3" d="M334.4,214.2c-0.1,0.4-0.9,0.6-1.9,0.4c-0.9-0.2-1.6-0.7-1.5-1.1c0.1-0.4,0.9-0.6,1.9-0.4
									C333.9,213.3,334.5,213.8,334.4,214.2z"/>
							</g>
						</g>
						<g>
							<g>
								<path class="st3" d="M336.2,210.2c-0.2,0.4-1,0.3-1.8-0.1c-0.8-0.5-1.2-1.1-1-1.5c0.2-0.4,1-0.3,1.8,0.1
									C336,209.2,336.4,209.9,336.2,210.2z"/>
							</g>
						</g>
						<g>
							<g>
								<path class="st3" d="M341.9,207.2c-0.4,0.2-1.1-0.4-1.3-1.4c-0.2-1,0.1-1.9,0.6-1.8c0.4,0,0.8,0.7,1,1.5
									C342.3,206.2,342.3,207,341.9,207.2z"/>
							</g>
						</g>
						<g>
							<g>
								<path class="st3" d="M348.6,205.1c0.4,0.2,0.5,0.8,0.2,1.3c-0.3,0.5-0.8,0.8-1.2,0.6c-0.4-0.2-0.5-0.8-0.2-1.3
									C347.7,205.2,348.3,204.9,348.6,205.1z"/>
							</g>
						</g>
						<g>
							<g>
								<path class="st3" d="M352.6,211.1c0.1,0.4-0.3,0.9-0.8,1c-0.6,0.2-1.1-0.1-1.2-0.5c-0.1-0.4,0.3-0.9,0.8-1
									C351.9,210.4,352.5,210.7,352.6,211.1z"/>
							</g>
						</g>
						<g>
							<g>
								<path class="st3" d="M334.2,203.3c0.2-0.4,1.3-0.1,2.2,0.9c0.9,1,1.1,2.1,0.7,2.3c-0.4,0.2-1.1-0.4-1.8-1.2
									C334.5,204.4,334,203.6,334.2,203.3z"/>
							</g>
						</g>
						<g>
							<g>
								<path class="st3" d="M344.1,201.2c0.4,0,0.8,0.5,0.8,1.2c0,0.7-0.3,1.2-0.8,1.2c-0.4,0-0.8-0.5-0.8-1.2
									C343.3,201.8,343.6,201.2,344.1,201.2z"/>
							</g>
						</g>
						<g>
							<g>
								<path class="st3" d="M327.4,209.4c0.1-0.4,1.1-0.4,2.2-0.1c1.1,0.4,1.8,1,1.7,1.4c-0.1,0.4-1.1,0.4-2.2,0.1
									C328,210.4,327.2,209.8,327.4,209.4z"/>
							</g>
						</g>
						<g>
							<g>
								<path class="st3" d="M331.8,205.9c-0.3,0.3-0.9,0.2-1.4-0.3c-0.5-0.5-0.6-1.1-0.3-1.4c0.3-0.3,0.9-0.2,1.4,0.3
									C332,205,332.1,205.6,331.8,205.9z"/>
							</g>
						</g>
						<g>
							<g>
								<path class="st3" d="M338.8,199.5c0.4,0,0.8,0.6,0.9,1.4c0.1,0.8-0.2,1.5-0.7,1.5c-0.4,0-0.8-0.6-0.9-1.4
									C338.1,200.2,338.4,199.6,338.8,199.5z"/>
							</g>
						</g>
						<g>
							<g>
								<path class="st3" d="M320.3,208.9c0.4,0.2,0.4,1.1,0.1,2c-0.4,1-1,1.6-1.4,1.5c-0.4-0.2-0.4-1.1-0.1-2
									C319.3,209.4,319.9,208.8,320.3,208.9z"/>
							</g>
						</g>
						<g>
							<g>
								<path class="st3" d="M323.1,208.6c0.4-0.1,0.9,0.6,1.1,1.6c0.2,1,0,1.8-0.4,1.9c-0.4,0.1-0.9-0.6-1.1-1.6
									C322.5,209.6,322.7,208.7,323.1,208.6z"/>
							</g>
						</g>
						<g>
							<g>
								<path class="st3" d="M329.2,207.2c0,0.4-0.8,0.7-1.8,0.7c-1-0.1-1.8-0.4-1.8-0.9c0-0.4,0.8-0.7,1.8-0.7
									C328.4,206.4,329.2,206.7,329.2,207.2z"/>
							</g>
						</g>
						<g>
							<g>
								<path class="st3" d="M317.8,206.7c0.1,0.4-0.5,0.9-1.3,1.1c-0.8,0.2-1.5,0-1.6-0.4c-0.1-0.4,0.5-0.9,1.3-1.1
									C317,206.1,317.7,206.3,317.8,206.7z"/>
							</g>
						</g>
						<g>
							<g>
								<path class="st3" d="M323.1,205.1c0.2,0.4-0.3,0.9-0.9,1.2c-0.7,0.3-1.3,0.1-1.5-0.3c-0.2-0.4,0.3-0.9,0.9-1.2
									C322.3,204.6,323,204.7,323.1,205.1z"/>
							</g>
						</g>
						<g>
							<g>
								<path class="st3" d="M318.4,203.7c0,0.4-1.1,0.9-2.6,0.8c-1.5-0.1-2.6-0.8-2.5-1.2c0.1-0.4,1.3-0.5,2.6-0.4
									C317.2,203,318.3,203.3,318.4,203.7z"/>
							</g>
						</g>
						<g>
							<g>
								<path class="st3" d="M320.9,201.7c-0.2,0.4-1.4,0.2-2.7-0.3c-1.3-0.6-2.3-1.4-2.1-1.8c0.2-0.4,1.4-0.2,2.7,0.3
									C320.2,200.5,321.1,201.3,320.9,201.7z"/>
							</g>
						</g>
						<g>
							<g>
								<path class="st3" d="M335.3,199.7c0.2,0.4-0.3,1-0.9,1.4c-0.7,0.4-1.4,0.6-1.7,0.3c-0.3-0.3,0-1.1,0.8-1.6
									C334.3,199.3,335.2,199.3,335.3,199.7z"/>
							</g>
						</g>
						<g>
							<g>
								<path class="st3" d="M313.1,200.6c-0.2,0.4-0.8,0.5-1.4,0.3c-0.6-0.2-1-0.8-0.8-1.2c0.2-0.4,0.8-0.5,1.4-0.3
									C312.9,199.7,313.3,200.2,313.1,200.6z"/>
							</g>
						</g>
						<g>
							<g>
								<path class="st3" d="M334.7,244.3c0,0.4-1,0.8-2.3,0.9c-1.3,0-2.3-0.3-2.4-0.7c0-0.4,1-0.8,2.3-0.9
									C333.6,243.6,334.7,243.9,334.7,244.3z"/>
							</g>
						</g>
						<g>
							<g>
								<path class="st3" d="M337,241.6c-0.3,0.3-1.1,0-1.8-0.7c-0.7-0.7-1-1.5-0.7-1.8c0.3-0.3,1.1,0,1.8,0.7
									C337,240.5,337.3,241.3,337,241.6z"/>
							</g>
						</g>
						<g>
							<g>
								<path class="st3" d="M339.3,240.2c-0.4,0.1-0.9-0.8-0.9-1.9c0.1-1.2,0.7-1.9,1.1-1.8c0.4,0.1,0.5,1,0.4,1.9
									C339.9,239.3,339.7,240.1,339.3,240.2z"/>
							</g>
						</g>
						<g>
							<g>
								<path class="st3" d="M341.2,242.2c0.3,0.3,0.1,1-0.4,1.5c-0.5,0.5-1.1,0.8-1.5,0.6c-0.3-0.3-0.2-1,0.3-1.6
									C340.1,242.1,340.9,241.9,341.2,242.2z"/>
							</g>
						</g>
						<g>
							<g>
								<path class="st3" d="M340.2,248.9c-0.4,0-0.8-0.7-0.6-1.4c0.1-0.8,0.7-1.3,1.1-1.1c0.4,0.1,0.6,0.8,0.5,1.4
									C341,248.4,340.6,248.9,340.2,248.9z"/>
							</g>
						</g>
						<g>
							<g>
								<path class="st3" d="M336.4,246.4c0.3,0.3,0.4,0.7,0.3,0.9c-0.1,0.2-0.5,0.3-0.9,0.2c-0.4-0.1-0.7-0.5-0.5-1
									C335.6,246.1,336.1,246.1,336.4,246.4z"/>
							</g>
						</g>
						<g>
							<g>
								<path class="st3" d="M342.9,234.9c0.4,0.1,0.4,1.1-0.1,2.1c-0.5,1-1.4,1.5-1.7,1.2c-0.3-0.3-0.1-1.1,0.4-2
									C341.9,235.3,342.5,234.7,342.9,234.9z"/>
							</g>
						</g>
						<g>
							<g>
								<path class="st3" d="M339.7,234.4c0,0.4-0.8,0.8-1.9,0.9c-1.1,0.1-2-0.2-2-0.7c0-0.4,0.8-0.8,1.9-0.9
									C338.8,233.7,339.7,234,339.7,234.4z"/>
							</g>
						</g>
						<g>
							<g>
								<path class="st3" d="M332.7,241.4c-0.3,0.3-0.9,0.1-1.3-0.4c-0.4-0.5-0.4-1.1-0.1-1.4c0.3-0.3,0.9-0.1,1.3,0.4
									C333,240.5,333.1,241.1,332.7,241.4z"/>
							</g>
						</g>
						<g>
							<g>
								<path class="st3" d="M326.4,244.7c-0.3,0.3-1.3-0.2-1.9-1.3c-0.7-1.1-0.6-2.2-0.2-2.3c0.4-0.1,1,0.6,1.5,1.5
									C326.3,243.6,326.7,244.4,326.4,244.7z"/>
							</g>
						</g>
						<g>
							<g>
								<path class="st3" d="M323.1,244.7c-0.1,0.4-0.7,0.6-1.4,0.4c-0.7-0.2-1.1-0.7-1-1.1c0.1-0.4,0.7-0.6,1.4-0.4
									C322.8,243.8,323.2,244.2,323.1,244.7z"/>
							</g>
						</g>
						<g>
							<g>
								<path class="st3" d="M301.1,268.1c-0.4-0.1-0.6-1.1-0.5-2.3c0.2-1.2,0.7-2.1,1.1-2c0.4,0.1,0.6,1.1,0.5,2.3
									C302.1,267.2,301.6,268.1,301.1,268.1z"/>
							</g>
						</g>
						<g>
							<g>
								<path class="st3" d="M307,267.4c-0.4,0.2-1.2-0.7-1.8-2c-0.6-1.3-0.8-2.5-0.4-2.7c0.4-0.2,1.2,0.7,1.8,2
									C307.3,266,307.4,267.2,307,267.4z"/>
							</g>
						</g>
						<g>
							<g>
								<path class="st3" d="M312.2,263.8c-0.3,0.3-1.4-0.2-2.5-1c-1.2-0.8-2-1.7-1.8-2.1c0.2-0.4,1.4-0.1,2.7,0.8
									C311.8,262.4,312.5,263.4,312.2,263.8z"/>
							</g>
						</g>
						<g>
							<g>
								<path class="st3" d="M304.3,257.7c0.4,0.2,0.5,0.9,0.1,1.7c-0.3,0.8-0.9,1.3-1.3,1.2c-0.4-0.2-0.5-0.9-0.1-1.7
									C303.3,258,303.9,257.5,304.3,257.7z"/>
							</g>
						</g>
						<g>
							<g>
								<path class="st3" d="M312.4,268.3c-0.3,0.3-1.1-0.1-1.6-0.9c-0.6-0.7-0.7-1.5-0.4-1.8c0.3-0.3,1.1,0.1,1.6,0.9
									C312.6,267.3,312.8,268.1,312.4,268.3z"/>
							</g>
						</g>
						<g>
							<g>
								<path class="st3" d="M303.8,269.9c-0.4,0.1-0.9-0.4-0.9-1.1c-0.1-0.7,0.2-1.3,0.6-1.3c0.4-0.1,0.9,0.4,0.9,1.1
									C304.5,269.3,304.3,269.9,303.8,269.9z"/>
							</g>
						</g>
						<g>
							<g>
								<path class="st3" d="M320.4,262.1c-0.1,0.4-1.5,0.5-3.1,0.2c-1.6-0.3-2.8-0.9-2.8-1.4c0.1-0.4,1.4-0.5,3.1-0.2
									C319.3,261,320.5,261.6,320.4,262.1z"/>
							</g>
						</g>
						<g>
							<g>
								<path class="st3" d="M319.4,268.2c-0.3,0.3-1.4-0.1-2.5-1.1c-1.1-0.9-1.8-1.9-1.5-2.3c0.3-0.3,1.4,0.1,2.5,1.1
									C319,266.9,319.7,267.9,319.4,268.2z"/>
							</g>
						</g>
						<g>
							<g>
								<path class="st3" d="M325,266.5c-0.1,0.4-1.1,0.5-2.1,0.2c-1-0.3-1.8-0.9-1.6-1.3c0.1-0.4,1.1-0.5,2.1-0.2
									C324.4,265.5,325.2,266.1,325,266.5z"/>
							</g>
						</g>
						<g>
							<g>
								<path class="st3" d="M329.5,267.5c0,0.4-0.6,0.8-1.3,1.2c-0.7,0.3-1.4,0.5-1.7,0.2c-0.3-0.3,0.1-1.2,1.1-1.6
									C328.5,266.8,329.5,267.1,329.5,267.5z"/>
							</g>
						</g>
						<g>
							<g>
								<path class="st3" d="M328.1,263.8c-0.2,0.4-1,0.3-1.8-0.1c-0.8-0.5-1.3-1.1-1.1-1.5c0.2-0.4,1-0.3,1.8,0.1
									C327.8,262.7,328.3,263.4,328.1,263.8z"/>
							</g>
						</g>
						<g>
							<g>
								<path class="st3" d="M332.6,263.3c0.2,0.4,0,0.9-0.3,1.3c-0.3,0.4-0.7,0.8-1.1,0.8c-0.4,0-0.7-0.9-0.1-1.6
									C331.6,263,332.5,262.9,332.6,263.3z"/>
							</g>
						</g>
						<g>
							<g>
								<path class="st3" d="M337.3,266.8c0,0.4-0.8,0.8-1.8,0.8c-1,0-1.9-0.3-1.9-0.7c0-0.4,0.8-0.8,1.8-0.8
									C336.4,266,337.3,266.4,337.3,266.8z"/>
							</g>
						</g>
						<g>
							<g>
								<path class="st3" d="M338,264.3c-0.2,0.4-1,0.4-1.8,0.1c-0.8-0.4-1.4-1-1.2-1.4c0.2-0.4,1-0.4,1.8-0.1
									C337.6,263.3,338.1,263.9,338,264.3z"/>
							</g>
						</g>
						<g>
							<g>
								<path class="st3" d="M341.1,265.5c-0.4-0.1-0.7-0.7-0.4-1.4c0.3-0.7,0.9-1,1.2-0.8c0.4,0.2,0.4,0.8,0.2,1.3
									C342,265.2,341.6,265.6,341.1,265.5z"/>
							</g>
						</g>
						<g>
							<g>
								<path class="st3" d="M315.9,224.7c0.4-0.2,1.2,0.3,1.8,1.3c0.6,0.9,0.8,1.9,0.5,2.1c-0.4,0.2-1.2-0.3-1.8-1.3
									C315.7,225.9,315.5,225,315.9,224.7z"/>
							</g>
						</g>
						<g>
							<g>
								<path class="st3" d="M322.4,223.3c0.4,0.2,0.1,1.4-0.7,2.5c-0.7,1.2-1.6,1.9-2,1.7c-0.4-0.2-0.1-1.4,0.7-2.5
									C321.2,223.8,322.1,223.1,322.4,223.3z"/>
							</g>
						</g>
						<g>
							<g>
								<path class="st3" d="M326.1,227.7c0.2,0.4-0.6,1.1-1.6,1.4c-1.1,0.4-2,0.4-2.2,0c-0.2-0.4,0.6-1.1,1.6-1.4
									C324.9,227.3,325.9,227.3,326.1,227.7z"/>
							</g>
						</g>
						<g>
							<g>
								<path class="st3" d="M325.1,234.7c-0.3,0.3-1.2,0.1-2-0.7c-0.8-0.8-1.2-1.7-0.8-2c0.3-0.3,1.1,0.1,1.9,0.8
									C324.9,233.6,325.3,234.4,325.1,234.7z"/>
							</g>
						</g>
						<g>
							<g>
								<path class="st3" d="M319.3,237.5c-0.4,0.1-1-1-0.9-2.4c0.1-1.5,0.8-2.5,1.2-2.3c0.4,0.1,0.4,1.2,0.3,2.4
									C319.9,236.4,319.7,237.4,319.3,237.5z"/>
							</g>
						</g>
						<g>
							<g>
								<path class="st3" d="M321.1,230.8c-0.1,0.4-0.8,0.6-1.5,0.4c-0.7-0.2-1.2-0.7-1.1-1.1c0.1-0.4,0.8-0.6,1.5-0.4
									C320.7,229.8,321.2,230.3,321.1,230.8z"/>
							</g>
						</g>
						<g>
							<g>
								<path class="st3" d="M327.1,222.7c0.3,0.2,0,1.3-1,2.2c-1,0.9-2.1,1.1-2.3,0.8c-0.2-0.4,0.4-1.2,1.3-1.9
									C325.9,223,326.8,222.5,327.1,222.7z"/>
							</g>
						</g>
						<g>
							<g>
								<path class="st3" d="M318.4,220.1c0.4-0.1,0.9,0.7,1,1.7c0.1,1-0.4,1.8-0.8,1.8c-0.4-0.1-0.7-0.8-0.7-1.7
									C317.8,221,318,220.2,318.4,220.1z"/>
							</g>
						</g>
						<g>
							<g>
								<path class="st3" d="M324.1,217.3c0.4,0.1,0.5,1.1,0.1,2.2c-0.4,1.1-1.2,1.7-1.6,1.5c-0.4-0.2-0.3-1.1,0.1-2.1
									C323.2,218,323.7,217.2,324.1,217.3z"/>
							</g>
						</g>
						<g>
							<g>
								<path class="st3" d="M331.4,226.9c0,0.4-0.6,0.8-1.4,0.9c-0.8,0.1-1.5-0.2-1.5-0.6c0-0.4,0.6-0.8,1.4-0.9
									C330.6,226.2,331.3,226.5,331.4,226.9z"/>
							</g>
						</g>
						<g>
							<g>
								<path class="st3" d="M329.1,232.5c-0.2,0.4-1,0.5-2,0.2c-0.9-0.3-1.6-0.9-1.5-1.3c0.1-0.4,1-0.5,2-0.2
									C328.6,231.5,329.3,232.1,329.1,232.5z"/>
							</g>
						</g>
						<g>
							<g>
								<path class="st3" d="M323.1,238.8c-0.4,0.2-1.1-0.3-1.4-1.3c-0.3-1,0-1.8,0.4-1.8c0.4,0,0.8,0.6,1.1,1.4
									C323.5,237.9,323.5,238.6,323.1,238.8z"/>
							</g>
						</g>
						<g>
							<g>
								<path class="st3" d="M319.1,242.6c-0.4,0-0.8-0.6-0.9-1.3c0-0.7,0.3-1.4,0.7-1.4c0.4,0,0.8,0.6,0.9,1.3
									C319.9,241.9,319.6,242.6,319.1,242.6z"/>
							</g>
						</g>
						<g>
							<g>
								<path class="st3" d="M329,240.7c-0.4,0.2-1.1-0.5-1.7-1.4c-0.6-0.9-0.9-1.8-0.6-2.1c0.3-0.3,1.2,0.2,1.9,1.2
									C329.3,239.4,329.4,240.5,329,240.7z"/>
							</g>
						</g>
						<g>
							<g>
								<path class="st3" d="M333.6,237c-0.2,0.4-1.2,0.2-2.3-0.2c-1.1-0.4-1.9-1-1.8-1.4c0.1-0.4,1.2-0.5,2.4,0
									C333.1,235.8,333.8,236.6,333.6,237z"/>
							</g>
						</g>
						<g>
							<g>
								<path class="st3" d="M333.9,232.4c-0.3,0.3-0.9,0.1-1.4-0.1c-0.5-0.3-0.9-0.6-0.9-1.1c0-0.4,0.8-0.7,1.6-0.3
									C334.1,231.4,334.2,232.2,333.9,232.4z"/>
							</g>
						</g>
						<g>
							<g>
								<path class="st3" d="M321,213.6c0.4,0.1,0.6,1.1,0.5,2.2c-0.1,1.2-0.5,2.1-0.9,2.1c-0.4,0-0.8-1-0.6-2.2
									C320,214.4,320.5,213.5,321,213.6z"/>
							</g>
						</g>
						<g>
							<g>
								<path class="st3" d="M329.9,217c0.3,0.3,0,1.2-0.8,2c-0.7,0.8-1.6,1.3-1.9,1c-0.3-0.3,0-1.2,0.8-2
									C328.7,217.1,329.6,216.7,329.9,217z"/>
							</g>
						</g>
						<g>
							<g>
								<path class="st3" d="M331.3,219.1c0.3-0.3,0.8-0.2,1,0.1c0.2,0.3,0.1,0.8-0.2,1c-0.3,0.3-0.8,0.2-1-0.1
									C330.8,219.8,330.9,219.4,331.3,219.1z"/>
							</g>
						</g>
						<g>
							<g>
								<path class="st3" d="M307.3,216.1c-0.1,0.4-1.2,0.4-2.4-0.1c-1.2-0.5-1.9-1.4-1.7-1.7c0.2-0.4,1.2-0.2,2.3,0.3
									C306.6,215,307.4,215.7,307.3,216.1z"/>
							</g>
						</g>
						<g>
							<g>
								<path class="st3" d="M302.4,224.6c-0.4,0.2-1-0.4-1.2-1.4c-0.2-0.9,0-1.8,0.4-1.8c0.4-0.1,0.9,0.6,1.1,1.4
									C302.9,223.6,302.8,224.4,302.4,224.6z"/>
							</g>
						</g>
						<g>
							<g>
								<path class="st3" d="M308.6,220.9c-0.3,0.3-1.1-0.1-1.8-0.8c-0.6-0.7-0.9-1.6-0.6-1.8c0.3-0.3,1.1,0.1,1.8,0.8
									C308.6,219.7,308.9,220.6,308.6,220.9z"/>
							</g>
						</g>
						<g>
							<g>
								<path class="st3" d="M305.7,208c0.3,0.3-0.3,1.4-1.2,2.4c-1,1-2.1,1.6-2.4,1.3c-0.3-0.3,0.3-1.4,1.2-2.4
									C304.3,208.2,305.4,207.7,305.7,208z"/>
							</g>
						</g>
						<g>
							<g>
								<path class="st3" d="M301.1,206.1c0.4,0.1,0.5,1.1,0.1,2c-0.3,1-1,1.7-1.4,1.5c-0.4-0.1-0.5-1.1-0.1-2
									C300,206.6,300.7,206,301.1,206.1z"/>
							</g>
						</g>
						<g>
							<g>
								<path class="st3" d="M301.2,213.6c0.2,0.4-0.1,1-0.7,1.6c-0.6,0.6-1.2,1-1.6,0.7c-0.4-0.2-0.2-1.1,0.5-1.8
									C300.1,213.4,301,213.2,301.2,213.6z"/>
							</g>
						</g>
						<g>
							<g>
								<path class="st3" d="M299.5,212.5c-0.4,0.2-0.9-0.2-0.9-0.8c0-0.6,0.5-1,0.9-0.9c0.4,0.1,0.7,0.5,0.7,0.8
									C300.1,212,299.9,212.4,299.5,212.5z"/>
							</g>
						</g>
						<g>
							<g>
								<path class="st3" d="M308.1,211.5c0.1,0.4-0.7,0.9-1.6,1c-1,0.1-1.8-0.1-1.8-0.5c-0.1-0.4,0.7-0.9,1.6-1
									C307.2,210.9,308.1,211.1,308.1,211.5z"/>
							</g>
						</g>
						<g>
							<g>
								<path class="st3" d="M304.9,204.2c0.4,0.3,0.2,1.1-0.4,2c-0.6,0.8-1.4,1.3-1.7,1.1c-0.4-0.3-0.2-1.1,0.4-2
									C303.8,204.4,304.5,203.9,304.9,204.2z"/>
							</g>
						</g>
						<g>
							<g>
								<path class="st3" d="M307.7,226.2c-0.3,0.3-1.3-0.2-1.8-1.3c-0.6-1.1-0.4-2.1,0-2.2c0.4-0.1,0.9,0.6,1.4,1.5
									C307.7,225,308,225.9,307.7,226.2z"/>
							</g>
						</g>
						<g>
							<g>
								<path class="st3" d="M298.8,227.7c-0.4,0-0.8-0.6-0.8-1.5c0.1-0.9,0.6-1.5,1-1.3c0.4,0.1,0.6,0.8,0.6,1.5
									C299.5,227.1,299.3,227.7,298.8,227.7z"/>
							</g>
						</g>
						<g>
							<g>
								<path class="st3" d="M304.6,227.6c-0.1,0.4-0.9,0.5-1.8,0.3c-0.9-0.3-1.4-0.8-1.3-1.2c0.1-0.4,0.9-0.5,1.8-0.3
									C304.2,226.7,304.8,227.2,304.6,227.6z"/>
							</g>
						</g>
						<g>
							<g>
								<path class="st3" d="M312,225.6c-0.3,0.3-1.1-0.1-1.8-0.8c-0.7-0.8-1-1.6-0.6-1.9c0.3-0.3,1.1,0.1,1.8,0.8
									C312.1,224.4,312.3,225.3,312,225.6z"/>
							</g>
						</g>
						<g>
							<g>
								<path class="st3" d="M313.7,213.8c0,0.4-0.9,0.8-2.1,0.9c-1.2,0.1-2.2-0.2-2.2-0.7c0-0.4,0.9-0.8,2.1-0.9
									C312.7,213,313.7,213.3,313.7,213.8z"/>
							</g>
						</g>
						<g>
							<g>
								<path class="st3" d="M311.4,206.2c0.2,0.4-0.4,1.1-1.4,1.7c-1,0.5-1.9,0.7-2.1,0.3c-0.2-0.4,0.4-1.1,1.4-1.7
									C310.3,206,311.2,205.8,311.4,206.2z"/>
							</g>
						</g>
						<g>
							<g>
								<path class="st3" d="M302.8,202.2c0.4,0.2,0.5,0.8,0.2,1.3c-0.3,0.5-0.8,0.8-1.2,0.6c-0.4-0.2-0.5-0.8-0.2-1.3
									C301.9,202.3,302.4,202,302.8,202.2z"/>
							</g>
						</g>
						<g>
							<g>
								<path class="st3" d="M309.8,202.1c0.3,0.3,0,1.1-0.7,1.9c-0.7,0.7-1.5,1.1-1.8,0.8c-0.3-0.3,0-1.1,0.7-1.9
									C308.7,202.1,309.5,201.8,309.8,202.1z"/>
							</g>
						</g>
						<g>
							<g>
								<path class="st3" d="M314.2,209.9c0.1,0.4-0.6,0.9-1.6,1.1c-0.9,0.2-1.8,0-1.9-0.4c-0.1-0.4,0.6-0.9,1.6-1.1
									C313.3,209.2,314.2,209.4,314.2,209.9z"/>
							</g>
						</g>
						<g>
							<g>
								<path class="st3" d="M314.8,220.2c-0.2,0.4-1.2,0.1-2.1-0.4c-0.9-0.5-1.6-1.2-1.4-1.6c0.2-0.4,1.2-0.3,2.2,0.2
									C314.5,219,315.1,219.8,314.8,220.2z"/>
							</g>
						</g>
						<g>
							<g>
								<path class="st3" d="M340.6,227.5c-0.1,0.4-1.2,0.4-2.4,0.1c-1.2-0.4-2.1-1-2-1.4c0.1-0.4,1.2-0.4,2.4-0.1
									C339.8,226.5,340.7,227.1,340.6,227.5z"/>
							</g>
						</g>
						<g>
							<g>
								<path class="st3" d="M341,231.7c-0.3,0.3-1.1,0.1-1.7-0.5c-0.7-0.6-1-1.3-0.7-1.6c0.3-0.3,1-0.1,1.7,0.5
									C340.9,230.6,341.2,231.3,341,231.7z"/>
							</g>
						</g>
						<g>
							<g>
								<path class="st3" d="M341.6,222.2c0.1,0.4-0.8,1.2-2.1,1.7c-1.3,0.5-2.5,0.6-2.6,0.2c-0.2-0.4,0.7-1.1,2.1-1.7
									C340.3,221.9,341.5,221.8,341.6,222.2z"/>
							</g>
						</g>
						<g>
							<g>
								<path class="st3" d="M343.3,225c0,0.4-0.6,0.8-1.4,0.8c-0.8,0-1.4-0.3-1.4-0.7c0-0.4,0.6-0.8,1.4-0.8
									C342.7,224.2,343.3,224.5,343.3,225z"/>
							</g>
						</g>
						<g>
							<g>
								<path class="st3" d="M345.3,230.5c-0.4,0.2-1-0.3-1.6-0.8c-0.6-0.5-1.2-0.9-1.2-1.4c0-0.2,0.3-0.4,0.7-0.4
									c0.4,0,0.9,0.1,1.4,0.5c0.5,0.4,0.8,0.8,0.9,1.2C345.6,230.1,345.5,230.4,345.3,230.5z"/>
							</g>
						</g>
						<g>
							<g>
								<path class="st3" d="M345.4,234.6c-0.3,0.3-1.1-0.2-1.8-1c-0.6-0.8-0.9-1.7-0.5-1.9c0.3-0.3,1.1,0.2,1.8,1
									C345.5,233.4,345.7,234.3,345.4,234.6z"/>
							</g>
						</g>
						<g>
							<g>
								<path class="st3" d="M329.6,222.7c0.2-0.4,1.4-0.1,2.7,0.6c1.3,0.7,2.1,1.6,1.9,2c-0.2,0.4-1.4,0.1-2.7-0.6
									C330.2,224,329.4,223.1,329.6,222.7z"/>
							</g>
						</g>
						<g>
							<g>
								<path class="st3" d="M334.6,216.5c0.4,0,0.8,1.2,0.9,2.7c0.1,1.5-0.2,2.8-0.6,2.8c-0.4,0-0.8-1.2-0.9-2.7
									C333.9,217.7,334.2,216.5,334.6,216.5z"/>
							</g>
						</g>
						<g>
							<g>
								<path class="st3" d="M341.1,217.6c0.3,0.3-0.3,1.2-1.2,2c-0.9,0.7-1.9,1.1-2.2,0.7c-0.3-0.3,0.3-1.2,1.2-2
									C339.8,217.6,340.8,217.2,341.1,217.6z"/>
							</g>
						</g>
						<g>
							<g>
								<path class="st3" d="M347.4,218.9c0.1,0.4-0.8,1-2,1.3c-1.2,0.3-2.3,0.2-2.4-0.2c-0.1-0.4,0.8-1,2-1.3
									C346.2,218.4,347.3,218.5,347.4,218.9z"/>
							</g>
						</g>
						<g>
							<g>
								<path class="st3" d="M349.1,224c-0.1,0.4-1.1,0.5-2.1,0.2c-1-0.3-1.8-0.9-1.7-1.3c0.1-0.4,1.1-0.5,2.1-0.2
									C348.5,223,349.2,223.6,349.1,224z"/>
							</g>
						</g>
						<g>
							<g>
								<path class="st3" d="M353.2,220c0.1,0.4-0.6,0.9-1.5,1c-0.9,0.1-1.7-0.1-1.7-0.5c-0.1-0.4,0.6-0.9,1.5-1
									C352.4,219.3,353.1,219.6,353.2,220z"/>
							</g>
						</g>
						<g>
							<g>
								<path class="st3" d="M350.8,225.8c0.2,0.4-0.3,1-1.2,1.2c-0.8,0.2-1.6-0.1-1.6-0.6c0-0.4,0.5-0.8,1.2-1
									C350,225.3,350.7,225.4,350.8,225.8z"/>
							</g>
						</g>
						<g>
							<g>
								<path class="st3" d="M352.9,225.1c-0.4,0.1-0.9-0.4-1-1.2c0-0.8,0.5-1.3,0.9-1.2c0.4,0.1,0.7,0.6,0.7,1.2
									C353.6,224.4,353.4,224.9,352.9,225.1z"/>
							</g>
						</g>
						<g>
							<g>
								<path class="st3" d="M350.2,213.9c0.4,0.1,0.6,1,0.4,2.1c-0.2,1.1-0.7,1.9-1.1,1.8c-0.4-0.1-0.6-1-0.4-2.1
									C349.2,214.6,349.7,213.8,350.2,213.9z"/>
							</g>
						</g>
						<g>
							<g>
								<path class="st3" d="M353.9,217c-0.4,0-0.7-0.7-0.6-1.4c0.1-0.8,0.5-1.3,0.9-1.3c0.4,0,0.7,0.7,0.6,1.4
									C354.8,216.5,354.4,217.1,353.9,217z"/>
							</g>
						</g>
						<g>
							<g>
								<path class="st3" d="M356.6,221.1c-0.4,0.1-0.9-0.6-1-1.5c-0.1-0.9,0.2-1.6,0.6-1.7c0.4-0.1,0.9,0.6,1,1.5
									C357.3,220.4,357,221.1,356.6,221.1z"/>
							</g>
						</g>
						<g>
							<g>
								<path class="st3" d="M299.2,223.4c-0.4,0-0.8-1.4-0.8-3.1c0.1-1.7,0.5-3,1-3c0.4,0,0.7,1.4,0.6,3
									C299.9,222,299.6,223.3,299.2,223.4z"/>
							</g>
						</g>
						<g>
							<g>
								<path class="st3" d="M304.1,220.9c-0.4,0.2-1.3-0.6-2.1-1.8c-0.8-1.2-1.1-2.4-0.8-2.6c0.4-0.2,1.3,0.6,2.1,1.8
									C304.1,219.5,304.5,220.6,304.1,220.9z"/>
							</g>
						</g>
						<g>
							<g>
								<path class="st3" d="M336.9,232.5c-0.4,0.2-1.3-0.7-2.1-2.1c-0.8-1.4-1.1-2.7-0.7-2.9c0.4-0.2,1.3,0.7,2.1,2.1
									C337,231,337.3,232.2,336.9,232.5z"/>
							</g>
						</g>
					</g>
				</g>
				<g>
					<g>
						<path class="st6" d="M313.9,211c0.1,0,0.2,3.8,0.3,8.5c0.1,4.7,0,8.5,0,8.5c-0.1,0-0.2-3.8-0.3-8.5
							C313.8,214.8,313.9,211,313.9,211z"/>
					</g>
				</g>
				<g>
					<g>
						<path class="st6" d="M315.1,214.1c0.1,0-0.2,0.7-0.4,1.5c-0.2,0.8-0.4,1.5-0.5,1.5c-0.1,0-0.1-0.7,0.2-1.6
							C314.6,214.7,315,214,315.1,214.1z"/>
					</g>
				</g>
				<g>
					<g>
						<path class="st6" d="M333.2,197.2c0,0,0,0.1,0.1,0.3c0.1,0.2,0.1,0.4,0.1,0.8c0.1,0.7,0.1,1.7-0.3,2.8
							c-0.4,1.2-1.1,2.5-2.3,3.5c-1.2,1.1-3,1.7-4.9,1.7c-1.9-0.1-3.6-0.8-4.8-1.9c-1.2-1.1-1.8-2.5-2.1-3.7
							c-0.3-1.2-0.2-2.2-0.1-2.8c0.1-0.3,0.1-0.6,0.2-0.8c0.1-0.2,0.1-0.3,0.1-0.3c0.1,0-0.5,1.5,0.1,3.8c0.3,1.1,1,2.4,2.1,3.5
							c1.1,1.1,2.8,1.7,4.6,1.8c1.8,0,3.5-0.6,4.7-1.6c1.2-1,1.9-2.3,2.3-3.4C333.7,198.7,333.1,197.2,333.2,197.2z"/>
					</g>
				</g>
				<g>
					<g>
						<path class="st6" d="M341.8,217.1c0,0,0.3,0.4,0.7,1.2c0.5,1,1,1.9,1.5,3c0.5,1,1,2,1.5,3c0.4,0.8,0.6,1.2,0.6,1.3
							c0,0-0.3-0.4-0.8-1.2c-0.4-0.7-1-1.8-1.6-2.9c-0.6-1.2-1.1-2.2-1.4-3C342,217.6,341.8,217.1,341.8,217.1z"/>
					</g>
				</g>
			</g>
			<g>
				<g>
					<g>
						<g>
							<g>
								<g>
									<path class="st7" d="M373.5,428.9l-1.6-9.1l-17,2.9l2.2,13.3l1.1-0.1c4.7-0.5,24-3.1,27-4.6
										C388.5,429.6,373.5,428.9,373.5,428.9z"/>
								</g>
							</g>
						</g>
						<g>
							<g>
								<g>
									<path class="st7" d="M363.3,434.8c-0.5-1.4-1.5-2.6-2.8-3.2c-1.3-0.7-2.8-0.9-4.2-0.5l0.8,4.7L363.3,434.8z"/>
								</g>
							</g>
						</g>
					</g>
					<g>
						<g>
							<g>
								<path class="st7" d="M380.9,429.5c0,0,5.3,0.6,4.8,1.5c-0.5,0.9-19.9,4.3-28.5,5l0-0.4l22.6-3.7
									C379.8,431.9,379.9,429.7,380.9,429.5z"/>
							</g>
						</g>
					</g>
					<g>
						<g>
							<g>
								<g>
									<path class="st6" d="M356.9,435.7c0,0,0.1,0,0.3,0c0.3,0,0.5-0.1,0.8-0.1c0.8-0.1,1.9-0.2,3.1-0.4
										c2.6-0.4,6.2-0.9,10.2-1.6c4-0.7,7.6-1.4,10.2-1.9c1.2-0.3,2.2-0.5,3.1-0.7c0.3-0.1,0.6-0.1,0.8-0.2c0.2,0,0.3-0.1,0.3-0.1
										c0,0-0.1,0-0.3,0c-0.3,0-0.5,0.1-0.8,0.2c-0.8,0.2-1.9,0.4-3.1,0.6c-2.6,0.5-6.2,1.2-10.2,1.9c-4,0.7-7.6,1.2-10.2,1.6
										c-1.2,0.2-2.3,0.3-3.1,0.5c-0.3,0-0.6,0.1-0.8,0.1C357,435.6,356.9,435.7,356.9,435.7z"/>
								</g>
							</g>
						</g>
					</g>
					<g>
						<g>
							<g>
								<g>
									<path class="st6" d="M379.8,432.2c0.1,0,0-0.7,0.3-1.6c0.3-0.8,0.9-1.3,0.8-1.4c0,0-0.7,0.4-1,1.3
										C379.6,431.4,379.8,432.2,379.8,432.2z"/>
								</g>
							</g>
						</g>
					</g>
					<g>
						<g>
							<g>
								<g>
									<path class="st6" d="M374.4,430.5c0.1,0,0.2-0.3,0.4-0.7c0.2-0.4,0.3-0.8,0.2-0.8c-0.1,0-0.2,0.3-0.4,0.7
										C374.4,430.1,374.3,430.5,374.4,430.5z"/>
								</g>
							</g>
						</g>
					</g>
					<g>
						<g>
							<g>
								<g>
									<path class="st6" d="M372.9,430c0,0,0.3-0.2,0.5-0.5c0.2-0.3,0.4-0.6,0.4-0.6c0,0-0.3,0.2-0.5,0.5
										C373,429.7,372.8,430,372.9,430z"/>
								</g>
							</g>
						</g>
					</g>
					<g>
						<g>
							<g>
								<g>
									<path class="st6" d="M371.7,428.6c0,0.1,0.4,0,0.9,0c0.5-0.1,0.9-0.2,0.9-0.2c0-0.1-0.4,0-0.9,0
										C372.1,428.4,371.7,428.5,371.7,428.6z"/>
								</g>
							</g>
						</g>
					</g>
					<g>
						<g>
							<g>
								<g>
									<path class="st6" d="M371.2,427.5c0,0.1,0.5,0.2,1,0.1c0.6-0.1,1-0.3,1-0.3c0-0.1-0.5,0.1-1,0.1
										C371.7,427.5,371.2,427.4,371.2,427.5z"/>
								</g>
							</g>
						</g>
					</g>
					<g>
						<g>
							<g>
								<g>
									<path class="st6" d="M374.7,428.9c0,0,0.4,0,1.1-0.2c0.3-0.1,0.7-0.2,1.1-0.5c0.2-0.1,0.4-0.2,0.6-0.4
										c0.1-0.1,0.2-0.2,0.2-0.4c0-0.2-0.1-0.3-0.2-0.4c-1.1-0.4-2.1,0.4-2.4,1c-0.2,0.3-0.2,0.6-0.2,0.8c0,0.2,0,0.3,0,0.3
										c0,0,0-0.4,0.3-1c0.2-0.3,0.4-0.6,0.8-0.8c0.4-0.2,0.9-0.3,1.3-0.1c0.2,0.1,0.2,0.3,0,0.5c-0.2,0.1-0.4,0.3-0.6,0.4
										c-0.4,0.2-0.8,0.4-1.1,0.5C375.1,428.8,374.7,428.9,374.7,428.9z"/>
								</g>
							</g>
						</g>
					</g>
					<g>
						<g>
							<g>
								<g>
									<path class="st6" d="M375,428.9c0,0,0.1-0.3,0-0.8c-0.1-0.2-0.2-0.5-0.4-0.7c-0.2-0.2-0.5-0.5-1-0.4
										c-0.2,0.1-0.3,0.4-0.2,0.6c0.1,0.2,0.2,0.3,0.3,0.5c0.2,0.2,0.4,0.4,0.6,0.6C374.6,428.9,374.9,429,375,428.9
										c-0.1,0-0.3-0.2-0.7-0.5c-0.2-0.1-0.4-0.3-0.6-0.6c-0.2-0.2-0.4-0.6-0.1-0.7c0.3-0.1,0.6,0.2,0.8,0.3
										c0.2,0.2,0.4,0.4,0.4,0.7C375,428.6,374.9,428.9,375,428.9z"/>
								</g>
							</g>
						</g>
					</g>
					<g>
						<g>
							<g>
								<g>
									<path class="st6" d="M356.4,431c0,0,0.5-0.1,1.3-0.2c0.8,0,1.9,0.1,2.9,0.7c1,0.6,1.7,1.4,2.1,2.1c0.4,0.7,0.5,1.2,0.5,1.2
										c0,0,0-0.1-0.1-0.3c-0.1-0.2-0.2-0.5-0.3-0.9c-0.4-0.7-1.1-1.6-2.2-2.2c-1.1-0.6-2.2-0.7-3-0.6c-0.4,0-0.7,0.1-0.9,0.2
										C356.5,430.9,356.4,430.9,356.4,431z"/>
								</g>
							</g>
						</g>
					</g>
					<g>
						<g>
							<g>
								<g>
									<path class="st6" d="M357,423.6c-0.1,0,0.1,1.6,0.5,3.5c0.3,1.9,0.6,3.5,0.7,3.5c0.1,0-0.1-1.6-0.5-3.5
										C357.3,425.1,357,423.6,357,423.6z"/>
								</g>
							</g>
						</g>
					</g>
					<g>
						<g>
							<g>
								<g>
									<path class="st6" d="M365.2,432.8c0,0.1,1.1,0,2.5-0.2c1.4-0.2,2.5-0.6,2.4-0.6c0-0.1-1.1,0.2-2.5,0.4
										C366.3,432.6,365.2,432.7,365.2,432.8z"/>
								</g>
							</g>
						</g>
					</g>
					<g>
						<g>
							<g>
								<g>
									<path class="st6" d="M361.8,433.4c0,0,0.1,0.2,0.3,0.5c0.2,0.2,0.3,0.4,0.3,0.4c0.1,0,0-0.3-0.1-0.6
										C362.1,433.4,361.9,433.3,361.8,433.4z"/>
								</g>
							</g>
						</g>
					</g>
					<g>
						<g>
							<g>
								<g>
									<path class="st6" d="M360.3,432c0,0,0.1,0.2,0.3,0.4c0.2,0.1,0.4,0.2,0.4,0.2c0,0-0.1-0.2-0.3-0.4
										C360.5,432.1,360.3,432,360.3,432z"/>
								</g>
							</g>
						</g>
					</g>
					<g>
						<g>
							<g>
								<g>
									<path class="st6" d="M358.4,431.6c0,0.1,0.2,0,0.5,0.1c0.3,0,0.5,0.1,0.5,0.1c0,0-0.1-0.3-0.5-0.3
										C358.6,431.4,358.4,431.6,358.4,431.6z"/>
								</g>
							</g>
						</g>
					</g>
					<g>
						<g>
							<g>
								<g>
									<path class="st6" d="M357.1,431.5c0,0.1,0.1,0.1,0.3,0.2c0.2,0,0.3,0,0.3,0c0-0.1-0.1-0.1-0.3-0.2
										C357.2,431.4,357.1,431.4,357.1,431.5z"/>
								</g>
							</g>
						</g>
					</g>
				</g>
			</g>
			<g>
				<g>
					<path class="st9" d="M355.9,273.7c0,0,54.6,9.2,50.3,25.6c-4.3,16.3-36.6,56-36.6,56l-20.4-12.9c0,0,30.2-37.5,29.1-38.8
						c-1.2-1.2-42.5-10.2-42.5-10.2l-9.2-23.7L355.9,273.7z"/>
				</g>
				<g>
					<g>
						<g>
							<path class="st6" d="M341.9,290.2c0,0.1-0.4,0.2-0.8,0.1c-0.4-0.1-0.7-0.3-0.7-0.4c0-0.1,0.4-0.2,0.8-0.1
								C341.6,289.8,341.9,290,341.9,290.2z"/>
						</g>
					</g>
					<g>
						<g>
							<path class="st6" d="M347.6,291.3c0,0.1-0.7,0.1-1.5,0c-0.8-0.2-1.4-0.4-1.4-0.5c0-0.1,0.7-0.1,1.5,0
								C347,290.9,347.6,291.2,347.6,291.3z"/>
						</g>
					</g>
					<g>
						<g>
							<path class="st6" d="M353.3,292.5c0,0.1-0.7,0.1-1.5-0.1c-0.8-0.2-1.4-0.4-1.4-0.6c0-0.1,0.7-0.1,1.5,0.1
								C352.7,292.1,353.3,292.4,353.3,292.5z"/>
						</g>
					</g>
					<g>
						<g>
							<path class="st6" d="M359,293.9c0,0.1-0.7,0.1-1.5-0.1c-0.8-0.2-1.4-0.5-1.4-0.6c0-0.1,0.7-0.1,1.5,0.1
								C358.4,293.5,359,293.7,359,293.9z"/>
						</g>
					</g>
					<g>
						<g>
							<path class="st6" d="M364.6,295.3c0,0.1-0.7,0.1-1.5-0.1c-0.8-0.2-1.4-0.5-1.3-0.6c0-0.1,0.7-0.1,1.5,0.1
								C364.1,294.9,364.7,295.2,364.6,295.3z"/>
						</g>
					</g>
					<g>
						<g>
							<path class="st6" d="M370.3,296.8c0,0.1-0.7,0.1-1.5-0.1c-0.8-0.2-1.4-0.5-1.3-0.6c0-0.1,0.7-0.1,1.5,0.1
								C369.7,296.4,370.3,296.7,370.3,296.8z"/>
						</g>
					</g>
					<g>
						<g>
							<path class="st6" d="M375.9,298.5c0,0.1-0.7,0.1-1.5-0.2c-0.8-0.2-1.4-0.5-1.3-0.7c0-0.1,0.7-0.1,1.5,0.2
								C375.3,298,375.9,298.3,375.9,298.5z"/>
						</g>
					</g>
					<g>
						<g>
							<path class="st6" d="M381.5,300.2c0,0.1-0.7,0.1-1.5-0.2c-0.8-0.2-1.4-0.5-1.3-0.7c0-0.1,0.7-0.1,1.5,0.2
								C380.9,299.8,381.5,300.1,381.5,300.2z"/>
						</g>
					</g>
					<g>
						<g>
							<path class="st6" d="M382.9,304.5c-0.1-0.1,0.2-0.7,0.6-1.3c0.4-0.7,0.2-1.2,0.3-1.3c0.1,0,0.2,0.1,0.3,0.4
								c0.1,0.3,0.1,0.7-0.1,1.1C383.5,304.1,383,304.5,382.9,304.5z"/>
						</g>
					</g>
					<g>
						<g>
							<path class="st6" d="M379.5,309.2c-0.1-0.1,0.2-0.7,0.7-1.3c0.5-0.6,1-1.1,1.1-1c0.1,0.1-0.2,0.7-0.7,1.3
								C380,308.8,379.6,309.3,379.5,309.2z"/>
						</g>
					</g>
					<g>
						<g>
							<path class="st6" d="M376,313.9c-0.1-0.1,0.2-0.7,0.7-1.3c0.5-0.6,1-1.1,1.1-1c0.1,0.1-0.2,0.7-0.7,1.3
								C376.6,313.5,376.1,314,376,313.9z"/>
						</g>
					</g>
					<g>
						<g>
							<path class="st6" d="M372.5,318.6c-0.1-0.1,0.2-0.7,0.7-1.3c0.5-0.6,1-1.1,1.1-1c0.1,0.1-0.2,0.7-0.7,1.3
								C373.1,318.2,372.6,318.7,372.5,318.6z"/>
						</g>
					</g>
					<g>
						<g>
							<path class="st6" d="M369.1,323.3c-0.1-0.1,0.2-0.7,0.7-1.3c0.5-0.6,1-1.1,1.1-1c0.1,0.1-0.2,0.7-0.7,1.3
								C369.7,322.9,369.2,323.4,369.1,323.3z"/>
						</g>
					</g>
					<g>
						<g>
							<path class="st6" d="M365.6,328c-0.1-0.1,0.2-0.7,0.7-1.3c0.5-0.6,1-1.1,1.1-1c0.1,0.1-0.2,0.7-0.7,1.3
								C366.2,327.6,365.7,328.1,365.6,328z"/>
						</g>
					</g>
					<g>
						<g>
							<path class="st6" d="M362.2,332.7c-0.1-0.1,0.2-0.7,0.7-1.3c0.5-0.6,1-1.1,1.1-1c0.1,0.1-0.2,0.7-0.7,1.3
								C362.8,332.3,362.3,332.8,362.2,332.7z"/>
						</g>
					</g>
					<g>
						<g>
							<path class="st6" d="M358.7,337.4c-0.1-0.1,0.2-0.7,0.7-1.3c0.5-0.6,1-1.1,1.1-1c0.1,0.1-0.2,0.7-0.7,1.3
								C359.3,337,358.8,337.5,358.7,337.4z"/>
						</g>
					</g>
					<g>
						<g>
							<path class="st6" d="M356.1,340.9c-0.1-0.1,0-0.4,0.2-0.8c0.2-0.3,0.5-0.5,0.7-0.4c0.1,0.1,0,0.4-0.2,0.8
								C356.5,340.8,356.2,341,356.1,340.9z"/>
						</g>
					</g>
				</g>
				<g>
					<g>
						<path class="st6" d="M385.2,301.3c0.1,0.1-1.5,0.8-3.5,1.5c-2,0.7-3.6,1.1-3.6,1c0-0.1,1.5-0.8,3.5-1.5
							C383.5,301.6,385.1,301.1,385.2,301.3z"/>
					</g>
				</g>
				<g>
					<g>
						<path class="st6" d="M385.9,303.1c0,0.1-1.8,0.5-4,0.7c-2.2,0.2-4.1,0.1-4.1-0.1c0-0.1,1.8-0.3,4-0.5
							C384,303.2,385.8,303,385.9,303.1z"/>
					</g>
				</g>
				<g>
					<path class="st6" d="M369.9,356.7l-12.3-8c0,0-1-10.2-3.3-12.8l19.6,15.7L369.9,356.7z"/>
				</g>
			</g>
			<g>
				<g>
					<path class="st9" d="M298,272c0,0-3.4,10.7,7.5,26.8l36.4,56.3l8.2,73.2l27-2.4l-9.1-81.1L329.6,273L298,272z"/>
				</g>
				<g>
					<g>
						<g>
							<path class="st6" d="M300.8,274c-0.1,0-0.3-0.3-0.3-0.8c0-0.4,0.1-0.8,0.3-0.7c0.1,0,0.3,0.4,0.3,0.8
								C301.1,273.7,300.9,274,300.8,274z"/>
						</g>
					</g>
					<g>
						<g>
							<path class="st6" d="M301.7,280c-0.1,0-0.4-0.6-0.6-1.4c-0.2-0.8-0.2-1.5-0.1-1.5c0.1,0,0.4,0.6,0.6,1.4
								C301.9,279.3,301.9,280,301.7,280z"/>
						</g>
					</g>
					<g>
						<g>
							<path class="st6" d="M303.7,285.7c-0.1,0.1-0.5-0.5-0.8-1.3c-0.3-0.8-0.4-1.5-0.3-1.5c0.1,0,0.5,0.5,0.8,1.3
								C303.7,285,303.8,285.6,303.7,285.7z"/>
						</g>
					</g>
					<g>
						<g>
							<path class="st6" d="M306.4,291.1c-0.1,0.1-0.6-0.5-1-1.2c-0.4-0.7-0.6-1.4-0.5-1.5c0.1-0.1,0.5,0.5,0.9,1.2
								C306.3,290.4,306.5,291,306.4,291.1z"/>
						</g>
					</g>
					<g>
						<g>
							<path class="st6" d="M309.5,296.2c-0.1,0.1-0.6-0.4-1-1.1c-0.4-0.7-0.7-1.3-0.6-1.4c0.1-0.1,0.6,0.4,1,1.1
								C309.4,295.5,309.7,296.1,309.5,296.2z"/>
						</g>
					</g>
					<g>
						<g>
							<path class="st6" d="M312.8,301.3c-0.1,0.1-0.6-0.4-1-1.1c-0.5-0.7-0.7-1.3-0.6-1.4c0.1-0.1,0.6,0.4,1,1.1
								C312.7,300.5,313,301.2,312.8,301.3z"/>
						</g>
					</g>
					<g>
						<g>
							<path class="st6" d="M316.2,306.3c-0.1,0.1-0.6-0.4-1.1-1.1c-0.5-0.7-0.7-1.3-0.6-1.4c0.1-0.1,0.6,0.4,1.1,1.1
								C316,305.6,316.3,306.2,316.2,306.3z"/>
						</g>
					</g>
					<g>
						<g>
							<path class="st6" d="M319.6,311.3c-0.1,0.1-0.6-0.4-1.1-1.1c-0.5-0.7-0.8-1.3-0.6-1.4c0.1-0.1,0.6,0.4,1.1,1.1
								C319.4,310.6,319.7,311.2,319.6,311.3z"/>
						</g>
					</g>
					<g>
						<g>
							<path class="st6" d="M323,316.3c-0.1,0.1-0.6-0.4-1.1-1.1c-0.5-0.7-0.8-1.3-0.6-1.4c0.1-0.1,0.6,0.4,1.1,1.1
								C322.8,315.6,323.1,316.2,323,316.3z"/>
						</g>
					</g>
					<g>
						<g>
							<path class="st6" d="M326.4,321.2c-0.1,0.1-0.6-0.4-1.1-1.1c-0.5-0.7-0.8-1.3-0.6-1.4c0.1-0.1,0.6,0.4,1.1,1.1
								C326.2,320.5,326.5,321.2,326.4,321.2z"/>
						</g>
					</g>
					<g>
						<g>
							<path class="st6" d="M329.8,326.2c-0.1,0.1-0.6-0.4-1.1-1.1c-0.5-0.7-0.8-1.3-0.6-1.4c0.1-0.1,0.6,0.4,1.1,1.1
								C329.6,325.5,329.9,326.1,329.8,326.2z"/>
						</g>
					</g>
					<g>
						<g>
							<path class="st6" d="M333.2,331.2c-0.1,0.1-0.6-0.4-1.1-1.1c-0.5-0.7-0.8-1.3-0.6-1.4c0.1-0.1,0.6,0.4,1.1,1.1
								C333,330.5,333.3,331.1,333.2,331.2z"/>
						</g>
					</g>
					<g>
						<g>
							<path class="st6" d="M336.6,336.2c-0.1,0.1-0.6-0.4-1.1-1.1c-0.5-0.7-0.8-1.3-0.6-1.4c0.1-0.1,0.6,0.4,1.1,1.1
								C336.4,335.5,336.7,336.1,336.6,336.2z"/>
						</g>
					</g>
					<g>
						<g>
							<path class="st6" d="M340,341.2c-0.1,0.1-0.6-0.4-1.1-1.1c-0.5-0.7-0.7-1.3-0.6-1.4c0.1-0.1,0.6,0.4,1.1,1.1
								C339.8,340.5,340.1,341.1,340,341.2z"/>
						</g>
					</g>
					<g>
						<g>
							<path class="st6" d="M343.3,346.2c-0.1,0.1-0.6-0.4-1-1.1c-0.5-0.7-0.7-1.3-0.6-1.4c0.1-0.1,0.6,0.4,1,1.1
								C343.1,345.5,343.4,346.1,343.3,346.2z"/>
						</g>
					</g>
					<g>
						<g>
							<path class="st6" d="M346.3,351.4c-0.1,0-0.5-0.5-0.9-1.2c-0.4-0.7-0.7-1.4-0.5-1.4c0.1-0.1,0.6,0.4,1,1.2
								C346.3,350.7,346.5,351.4,346.3,351.4z"/>
						</g>
					</g>
					<g>
						<g>
							<path class="st6" d="M347,357.4c-0.1,0-0.3-0.6-0.4-1.5c-0.1-0.8-0.1-1.5,0.1-1.5c0.1,0,0.3,0.6,0.4,1.5
								C347.2,356.7,347.2,357.4,347,357.4z"/>
						</g>
					</g>
					<g>
						<g>
							<path class="st6" d="M347.7,363.4c-0.1,0-0.3-0.6-0.4-1.5c-0.1-0.8,0-1.5,0.1-1.5c0.1,0,0.3,0.6,0.4,1.5
								C347.9,362.7,347.8,363.4,347.7,363.4z"/>
						</g>
					</g>
					<g>
						<g>
							<path class="st6" d="M348.3,369.4c-0.1,0-0.3-0.6-0.4-1.5c-0.1-0.8,0-1.5,0.1-1.5c0.1,0,0.3,0.6,0.4,1.5
								C348.5,368.7,348.5,369.4,348.3,369.4z"/>
						</g>
					</g>
					<g>
						<g>
							<path class="st6" d="M348.9,375.4c-0.1,0-0.3-0.6-0.4-1.5c-0.1-0.8,0-1.5,0.1-1.5c0.1,0,0.3,0.6,0.4,1.5
								C349.1,374.7,349.1,375.4,348.9,375.4z"/>
						</g>
					</g>
					<g>
						<g>
							<path class="st6" d="M349.6,381.4c-0.1,0-0.3-0.6-0.4-1.5c-0.1-0.8,0-1.5,0.1-1.5c0.1,0,0.3,0.6,0.4,1.5
								C349.8,380.7,349.7,381.4,349.6,381.4z"/>
						</g>
					</g>
					<g>
						<g>
							<path class="st6" d="M350.2,387.4c-0.1,0-0.3-0.6-0.4-1.5c-0.1-0.8,0-1.5,0.1-1.5c0.1,0,0.3,0.6,0.4,1.5
								C350.4,386.7,350.3,387.4,350.2,387.4z"/>
						</g>
					</g>
					<g>
						<g>
							<path class="st6" d="M350.8,393.4c-0.1,0-0.3-0.6-0.4-1.5c-0.1-0.8,0-1.5,0.1-1.5c0.1,0,0.3,0.6,0.4,1.5
								C351,392.7,350.9,393.4,350.8,393.4z"/>
						</g>
					</g>
					<g>
						<g>
							<path class="st6" d="M351.4,399.4c-0.1,0-0.3-0.6-0.4-1.5c-0.1-0.8,0-1.5,0.1-1.5c0.1,0,0.3,0.6,0.4,1.5
								C351.6,398.7,351.5,399.4,351.4,399.4z"/>
						</g>
					</g>
					<g>
						<g>
							<path class="st6" d="M352,405.4c-0.1,0-0.3-0.6-0.4-1.5c-0.1-0.8,0-1.5,0.1-1.5c0.1,0,0.3,0.6,0.4,1.5
								C352.2,404.7,352.1,405.4,352,405.4z"/>
						</g>
					</g>
					<g>
						<g>
							<path class="st6" d="M352.6,411.4c-0.1,0-0.3-0.6-0.4-1.5c-0.1-0.8,0-1.5,0.1-1.5c0.1,0,0.3,0.6,0.4,1.5
								C352.8,410.7,352.8,411.4,352.6,411.4z"/>
						</g>
					</g>
					<g>
						<g>
							<path class="st6" d="M353.2,417.4c-0.1,0-0.3-0.6-0.4-1.5c-0.1-0.8,0-1.5,0.1-1.5c0.1,0,0.3,0.6,0.4,1.5
								C353.4,416.7,353.4,417.4,353.2,417.4z"/>
						</g>
					</g>
					<g>
						<g>
							<path class="st6" d="M353.8,423.4c-0.1,0-0.3-0.6-0.4-1.5c-0.1-0.8,0-1.5,0.1-1.5c0.1,0,0.3,0.6,0.4,1.5
								C354,422.7,354,423.4,353.8,423.4z"/>
						</g>
					</g>
					<g>
						<g>
							<path class="st6" d="M354.3,427.9c-0.1,0-0.3-0.3-0.3-0.7c0-0.4,0-0.8,0.2-0.8c0.1,0,0.3,0.3,0.3,0.7
								C354.5,427.6,354.4,427.9,354.3,427.9z"/>
						</g>
					</g>
				</g>
				<g>
					<g>
						<path class="st6" d="M368.9,353.6c-0.1,0-0.2-1.5-0.6-3.8c-0.4-2.3-1.1-5.5-2.4-8.9c-1.3-3.4-3-6.2-4.2-8.2
							c-1.2-2-2-3.3-2-3.3c0,0,0.3,0.3,0.7,0.8c0.4,0.5,1,1.3,1.6,2.3c1.3,2,3.1,4.8,4.4,8.2c1.3,3.4,2,6.7,2.3,9
							c0.1,1.2,0.2,2.1,0.3,2.8C369,353.2,369,353.6,368.9,353.6z"/>
					</g>
				</g>
				<g>
					<polygon class="st6" points="348.6,424.5 349.4,429.2 377.9,426 377.1,420.3 					"/>
				</g>
				<g>
					<g>
						<path class="st6" d="M333.3,269.9c0,0,0,0.7-0.1,1.9c-0.1,1.2-0.2,2.9-0.4,5l0-0.1c0.6,1.9,1.6,4.2,2.8,6.5
							c1.7,3.4,3.4,6.5,4.5,8.8c0.6,1.1,1,2.1,1.2,2.7c0.3,0.7,0.4,1,0.4,1c0,0-0.2-0.3-0.6-1c-0.4-0.7-0.8-1.6-1.4-2.6
							c-1.2-2.2-2.9-5.3-4.6-8.7c-1.2-2.3-2.2-4.6-2.8-6.6l0,0l0,0c0.2-2,0.4-3.7,0.6-4.9C333.2,270.6,333.3,269.9,333.3,269.9z"/>
					</g>
				</g>
			</g>
			<g>
				<g>
					<g>
						<path class="st13" d="M368.1,258.7c-0.1-2.2-5.5-4-7.7-4.6l0,0l-0.7-0.1c-0.1,0-0.2-0.1-0.2-0.1l0,0l-41.3-8.8l-4.6-16.1
							h-14.9c0.4,0.7,3.4,27.3,11.5,29.2c8,1.9,42.4,4.7,42.4,4.7s1.1,0.1,2.6,0.3c0,0,0,0,0,0.1c0,1.4,1.5,1.5,3.1,1.6
							c4,0.2,5.1-1.5,5.1-1.5l0,0c1.2-0.9,2.2-2.7,2.2-2.7s0.9,2.7,1.3,4.3c0.5,2.3,1.4,2,1.4,2S368.2,260.3,368.1,258.7z"/>
					</g>
					<g>
						<g>
							<path class="st15" d="M361.2,263.7c0,0.1-1.4,0.1-3.1,0c-1.7-0.1-3.1-0.4-3.1-0.5c0-0.1,1.4-0.1,3.1,0
								C359.8,263.3,361.2,263.5,361.2,263.7z"/>
						</g>
					</g>
					<g>
						<g>
							<path class="st15" d="M362.4,261.8c0,0,0.1-0.1,0.4,0c0.2,0,0.6,0.2,0.8,0.6c0.2,0.4,0.1,0.8-0.1,1c-0.2,0.2-0.4,0.2-0.4,0.1
								c0,0,0.1-0.1,0.2-0.3c0.1-0.2,0.2-0.4,0-0.7C363,261.9,362.4,261.9,362.4,261.8z"/>
						</g>
					</g>
					<g>
						<g>
							<path class="st15" d="M364,259.9c0-0.1,0.7-0.1,0.9,0.6c0.3,0.7-0.2,1.2-0.3,1.1c-0.1,0,0.2-0.5,0-1
								C364.4,260.1,364,260,364,259.9z"/>
						</g>
					</g>
				</g>
				<g>
					<path class="st9" d="M361.2,254.4l4-7.2c0.6-0.1,0.9,0,1,0.4l-3.9,7.2L361.2,254.4z"/>
				</g>
				<g>
					<polygon class="st9" points="356.6,263.1 355,266.1 355,267.7 356.6,266.6 358.4,263.4 					"/>
				</g>
			</g>
			<g>
				<g>
					<g>
						<path class="st13" d="M334.3,198c0.1-4.6,0.3-4.6,0.3-4.6s5.3,0.5,8.2-8.6c1.9-6-1.3-5.5,0.1-12.2c1.6-7.6-0.8-13.2-0.8-13.2
							l0,0c-8.2-3.9-20.6,1.4-26.5,8.2l-0.4,5.8l3.4,10.9c1.1,2.6,1.8,7.4,1.1,10.1l-1.7,3.5c0,4.5,3.6,8.2,8.1,8.2h0
							C330.5,206.2,334.2,202.6,334.3,198z"/>
					</g>
					<g>
						<path class="st7" d="M334.6,193.4c0,0-5,0.1-10-3.3c0,0,2.3,5.6,9.8,5.1L334.6,193.4z"/>
					</g>
				</g>
				<g>
					<path class="st6" d="M322.5,158.8c2.6,4.6,9.6,9.6,14.8,10.9c-0.6-0.9-3.7-3.4-4.2-4.3c2.3,2.1,5.5,5,8.6,5.3
						c0.4,0,0.8,0.1,1.1-0.1c0.4-0.3,0.5-0.8,0.6-1.3c0.3-2.1,0.3-5.7,0-7.8c-0.2-2.1-1-4.2-2.5-5.7c-1.9-1.9-4.8-2.4-7.5-2.6
						c-2.3-0.2-4.6-0.1-6.7,0.7c-2.1,0.8-3.9,2.6-4.3,4.9"/>
				</g>
				<g>
					<path class="st6" d="M324.2,159.8c0,0,2.3,9.1-3.5,15c0,0-0.8,8.5-4.8,12.5c0,0-2.1-10.4-2.2-14.4c-0.1-4-1.9-18.7,11.3-17
						L324.2,159.8z"/>
				</g>
				<g>
					<g>
						<path class="st6" d="M331.6,165.8c0.1,0-0.2,0.7-1.3,1c-0.5,0.1-1.2,0.1-1.9-0.1c-0.7-0.2-1.3-0.7-1.9-1.2
							c-1.2-1-1.9-2.3-2.3-3.2c-0.4-0.9-0.5-1.6-0.4-1.6c0.2-0.1,0.9,2.3,3.2,4.3c1.1,1,2.3,1.5,3.2,1.4
							C331.2,166.3,331.6,165.8,331.6,165.8z"/>
					</g>
				</g>
			</g>
		</g>
		<g>
			<g>
				<polygon class="st9" points="331.5,269.8 332.6,268.7 360.3,268.7 361.2,269.9 				"/>
			</g>
			<g>
				<g>
					<g>
						<polygon class="st6" points="231.3,272.4 266.5,434.3 270.7,434.3 235,272.4 						"/>
					</g>
					<g>
						<polyline class="st6" points="267.5,272.4 231.3,434.3 234.9,434.3 270.7,272.4 267.5,272.4 						"/>
					</g>
					<g>
						<polygon class="st6" points="238.1,412.8 263.5,412.8 263.5,409.5 239.2,409.5 						"/>
					</g>
				</g>
				<g>
					<g>
						<polygon class="st6" points="440.6,272.4 475.8,434.7 479.9,434.7 444.2,272.4 						"/>
					</g>
					<g>
						<polyline class="st6" points="476.7,272.4 440.6,434.7 444.1,434.7 479.9,272.4 476.7,272.4 						"/>
					</g>
					<g>
						<polygon class="st6" points="447.4,413.2 472.7,413.2 472.7,409.9 448.4,409.9 						"/>
					</g>
				</g>
				<g>
					<g>
						<g>
							<g>
								<polygon class="st6" points="443.2,227.6 428.8,269.8 363.4,269.8 363.9,267.6 390.4,266.8 402.5,227.6 								"/>
							</g>
						</g>
						<g>
							<g>
								<path class="st3" d="M414.3,247.4c-0.4,1.7,0.3,3.4,1.7,3.8c1.3,0.4,2.8-0.7,3.2-2.5c0.4-1.7-0.3-3.4-1.7-3.8
									C416.1,244.6,414.7,245.7,414.3,247.4z"/>
							</g>
						</g>
					</g>
					<g>
						<g>
							<polygon class="st3" points="417.1,256.5 418.5,260 431.9,253.6 430.6,250.1 							"/>
						</g>
						<g>
							<polygon class="st9" points="418.2,256.8 419.1,258.7 430.9,253.2 430.2,250.8 							"/>
						</g>
					</g>
					<g>
						<g>
							<path class="st3" d="M431,237.1c0,2.3-1.9,4.2-4.2,4.2c-2.3,0-4.2-1.9-4.2-4.2c0-2.3,1.9-4.2,4.2-4.2
								C429.1,232.8,431,234.7,431,237.1z"/>
						</g>
						<g>
							<path class="st7" d="M426.1,233.7c-1.5,0.4-2.6,1.9-2.6,3.4c0,1.5,1.2,3,2.7,3.4c0.7,0.2,1.4,0.2,2.1-0.1
								c0.6-0.3,1.1-0.9,1.4-1.5c0.4-0.9,0.6-1.9,0.4-2.8c-0.2-1-1-1.9-2-2.3c-1-0.4-2.1-0.2-3,0.4"/>
						</g>
					</g>
					<g>
						<g>
							<polygon class="st3" points="402.2,255.1 406.3,253.3 409.1,255.5 407,260.5 401.8,258.4 							"/>
						</g>
						<g>
							<polygon class="st7" points="402.5,255.5 406.1,253.8 408.5,255.7 406.7,259.9 402.3,258.2 							"/>
						</g>
					</g>
				</g>
				<g>
					<rect x="211.5" y="269.8" class="st6" width="285.6" height="2.8"/>
				</g>
				<g>
					<g>
						<g>
							<path class="st7" d="M461.5,249.9c-3.1-3.2-5-7.6-5.2-12.1c-0.1-2.2,0.2-4.5,1.7-6.1c1.9-2,5.5-2.1,7.4-0.1c2,2,2,5.2,1.5,8
								c-0.7,4.1-2.8,7.2-5.2,10.6"/>
						</g>
						<g>
							<path class="st7" d="M466.1,249.9c0.8-3.3,2.7-6.2,5.4-8.2c1.3-0.9,2.9-1.7,4.5-1.4c2,0.3,3.5,2.6,3.1,4.6
								c-0.4,2.1-2.4,3.4-4.4,4.2c-2.9,1.2-5.6,1.1-8.8,1.1"/>
						</g>
						<g>
							<g>
								<path class="st6" d="M461.5,259c-0.1,0-0.2-4.2-0.1-9.4c0.1-5.2,0.3-9.4,0.5-9.4c0.1,0,0.2,4.2,0.1,9.4
									C461.9,254.8,461.7,259,461.5,259z"/>
							</g>
						</g>
						<g>
							<g>
								<path class="st6" d="M475.2,244.3c0,0.1-0.7,0.6-1.9,1.4c-1.2,0.8-2.9,1.9-4.8,3c-1.9,1.1-3.7,2-5,2.7
									c-1.3,0.6-2.1,1-2.2,0.9c0-0.1,0.7-0.5,2-1.3c1.4-0.8,3.1-1.8,4.9-2.8c1.8-1.1,3.5-2,4.9-2.8
									C474.4,244.7,475.2,244.3,475.2,244.3z"/>
							</g>
						</g>
						<g>
							<polyline class="st9" points="452.5,257.5 471.5,258.4 469.6,269.9 454.4,269.9 452.5,257.5 							"/>
						</g>
					</g>
					<g>
						<g>
							<path class="st6" d="M461.8,255.1c0,0.1-1.8-0.2-3.9-1.1c-2.1-0.9-3.6-1.9-3.6-2c0.1-0.1,1.7,0.7,3.8,1.5
								C460.1,254.3,461.8,254.9,461.8,255.1z"/>
						</g>
					</g>
				</g>
			</g>
		</g>
	</g>
	<g>
		<path class="st13" d="M322.5,180.7c-0.9,1.2-2.5,0.4-3.5-1.1c-1-1.5-1.4-4.6,0-5.4c1.4-0.8,2.6,0.9,2.6,0.9s0.3,3.1,0.6,4.3
			L322.5,180.7z"/>
		<g>
			<g>
				<g>
					<path class="st16" d="M322,178c-0.1,0-0.1,0-0.1-0.1c-1.1-2.2-2.6-1.8-2.6-1.7c-0.1,0-0.2,0-0.2-0.1c0-0.1,0-0.2,0.1-0.2
						c0,0,1.8-0.5,3,1.9C322.1,177.9,322.1,177.9,322,178C322,178,322,178,322,178z"/>
				</g>
			</g>
			<g>
				<path class="st16" d="M320.5,179.1c0,0-0.1,0-0.1-0.1c-0.3-0.4-0.5-0.8-0.4-1.3c0.2-0.8,1-1.2,1-1.2c0.1,0,0.2,0,0.2,0.1
					c0,0.1,0,0.2-0.1,0.2c0,0-0.8,0.4-0.9,1.1c-0.1,0.3,0,0.7,0.3,1C320.7,179,320.7,179.1,320.5,179.1
					C320.6,179.1,320.5,179.1,320.5,179.1z"/>
			</g>
		</g>
	</g>
	<g>
		<g>
			<path class="st16" d="M334.6,182.3c-0.4,0-0.8-0.2-0.9-0.7c-0.1-0.1-0.1-0.3-0.1-0.5l-0.1-1.9c0-0.1,0.1-0.3,0.2-0.3
				c0.1,0,0.2,0.1,0.2,0.2l0.1,1.9c0,0.1,0,0.2,0.1,0.3c0.1,0.3,0.4,0.5,0.7,0.3l0.4-0.2c0.1,0,0.2,0,0.3,0.2c0,0.1,0,0.3-0.1,0.3
				l-0.4,0.2C334.8,182.2,334.7,182.3,334.6,182.3z"/>
		</g>
		<g>
			
				<ellipse transform="matrix(0.9983 -5.846778e-02 5.846778e-02 0.9983 -9.7907 19.624)" class="st16" cx="330.5" cy="177.1" rx="0.8" ry="1"/>
		</g>
		<g>
			
				<ellipse transform="matrix(0.9983 -5.846778e-02 5.846778e-02 0.9983 -9.7522 20.0608)" class="st16" cx="337.9" cy="176.7" rx="0.8" ry="1"/>
		</g>
		<g>
			<path class="st16" d="M334.8,185.2c-1.6,0.1-2.9-0.8-3-0.8c-0.1-0.1-0.1-0.2-0.1-0.3c0.1-0.1,0.2-0.2,0.3-0.1
				c0,0,1.2,0.8,2.8,0.7c1.5-0.1,2.6-1.1,2.6-1.1c0.1-0.1,0.2-0.1,0.3,0.1c0.1,0.1,0,0.3,0,0.4C337.6,184.1,336.4,185.1,334.8,185.2
				z"/>
		</g>
	</g>
	<g>
		<path class="st16" d="M327.8,174.5c-0.1,0-0.3-0.1-0.4-0.2c-0.2-0.2-0.1-0.5,0.1-0.7c0.1-0.1,2.4-1.9,4.2-0.4
			c0.2,0.2,0.2,0.5,0,0.7c-0.2,0.2-0.5,0.2-0.7,0c-1.2-1-2.9,0.4-2.9,0.4C328,174.4,327.9,174.5,327.8,174.5z"/>
	</g>
	<g>
		<path class="st16" d="M336.5,173.9c-0.1,0-0.3-0.1-0.4-0.2c-0.2-0.2-0.1-0.5,0.1-0.7c0.1-0.1,2.4-1.9,4.2-0.4
			c0.2,0.2,0.2,0.5,0,0.7c-0.2,0.2-0.5,0.2-0.7,0c-1.2-1-2.9,0.4-2.9,0.4C336.7,173.9,336.6,173.9,336.5,173.9z"/>
	</g>
	<path class="st6" d="M308.8,179c3.1,2.8,3.4,0.9,7.4,2.3c5.8,2,15.3,10.4,6.9,18.9c-6.3,6.3-12.5-4.9-17.9-1.5
		C301,201.2,297.6,169,308.8,179z"/>
	<path class="st17" d="M349.6,184.6"/>
	<path class="st17" d="M352.5,166.7"/>
	<path class="st17" d="M321.1,157.2c0,0,18-15.2,27,3.4"/>
</g>
</svg>
